<svg width="80" height="42" viewBox="0 0 80 42" fill="none" xmlns="http://www.w3.org/2000/svg">
<path d="M6.07031 36.9707H69.9903" stroke="#EFE5B9" stroke-width="3" stroke-miterlimit="10"/>
<path d="M4.54004 3.53906V35.4291" stroke="#827336" stroke-width="3" stroke-miterlimit="10"/>
<path d="M74.4902 3.53906V32.4991" stroke="#EFE5B9" stroke-width="3" stroke-miterlimit="10"/>
<path d="M9.04004 32.4805H6.04004V35.4805H9.04004V32.4805Z" fill="#C0CFFF"/>
<path d="M72.9902 32.4805H69.9902V35.4805H72.9902V32.4805Z" fill="#EFE5B9"/>
<path d="M72.9902 30H69.9902V33H72.9902V30Z" fill="#EFE5B9"/>
<path d="M70 32.4805H67V35.4805H70V32.4805Z" fill="#EFE5B9"/>
<path d="M6.1001 4.98047H76.0001" stroke="#72652B" stroke-width="3" stroke-miterlimit="10"/>
<path d="M6.0498 2H73.1198" stroke="black" stroke-width="3" stroke-miterlimit="10"/>
<path d="M6.0498 39.9805H73.1198" stroke="black" stroke-width="3" stroke-miterlimit="10"/>
<path d="M5.99023 3.49023H2.99023V6.49023H5.99023V3.49023Z" fill="black"/>
<path d="M5.99023 6.4707H2.99023V9.4707H5.99023V6.4707Z" fill="black"/>
<path d="M3 6.4707H0V35.4807H3V6.4707Z" fill="black"/>
<path d="M79.1104 6.4707H76.1104V35.4807H79.1104V6.4707Z" fill="black"/>
<path d="M8.95996 3.49023H5.95996V6.49023H8.95996V3.49023Z" fill="black"/>
<path d="M9.0498 6.44922H6.0498V9.44922H9.0498V6.44922Z" fill="#72652B"/>
<path d="M12.0298 6.44922H9.02979V9.44922H12.0298V6.44922Z" fill="#72652B"/>
<path d="M9.0498 9.42969H6.0498V12.4297H9.0498V9.42969Z" fill="#72652B"/>
<path d="M6.0498 32.4512V35.4512H9.0498V32.4512H6.0498Z" fill="#A0935C"/>
<path d="M6.0498 29.4805V32.4805H9.0498V29.4805H6.0498Z" fill="#A0935C"/>
<path d="M9.02979 32.4512V35.4512H12.0298V32.4512H9.02979Z" fill="#A0935C"/>
<path d="M2.99023 35.4902V38.4902H5.99023V35.4902H2.99023Z" fill="black"/>
<path d="M5.96973 35.4902V38.4902H8.96973V35.4902H5.96973Z" fill="black"/>
<path d="M2.99023 32.5098V35.5098H5.99023V32.5098H2.99023Z" fill="black"/>
<path d="M73.1201 38.4902H76.1201V35.4902H73.1201V38.4902Z" fill="black"/>
<path d="M73.1201 35.5098H76.1201V32.5098H73.1201V35.5098Z" fill="black"/>
<path d="M70.1299 38.4902H73.1299V35.4902H70.1299V38.4902Z" fill="black"/>
<path d="M76.1201 6.49023V3.49023H73.1201V6.49023H76.1201Z" fill="black"/>
<path d="M73.1396 6.5V3.5H70.1396V6.5H73.1396Z" fill="black"/>
<path d="M76.1104 9.46094V6.46094H73.1104V9.46094H76.1104Z" fill="black"/>
</svg>
