<svg width="167" height="46" viewBox="0 0 167 46" fill="none" xmlns="http://www.w3.org/2000/svg">
<path d="M164 3H3V43H164V3Z" fill="#CA3E3E" fill-opacity="0.3" stroke="black" stroke-width="5" stroke-miterlimit="10"/>
<path d="M10.1558 39L156.845 39" stroke="#D87D7D" stroke-width="3" stroke-miterlimit="10"/>
<path d="M6.57764 5.5498V34.5198" stroke="#FFC0C0" stroke-width="3" stroke-miterlimit="10"/>
<path d="M160.422 5.5498V34.5198" stroke="#EDA2A2" stroke-width="3" stroke-miterlimit="10"/>
<path d="M11.05 34H8.3667V37H11.05V34Z" fill="#FFC0C0"/>
<path d="M159.528 34.5H156.844V37.5H159.528V34.5Z" fill="#D87D7D"/>
<path d="M7.47217 7L161.317 7" stroke="#FFC0C0" stroke-width="3" stroke-miterlimit="10"/>
<path d="M58 16.75H59.25V15.5H65.5V16.75H66.75V18H64.25V16.75H60.5V26.75H64.25V25.5H66.75V26.75H65.5V28H59.25V26.75H58V16.75ZM68 15.5H70.5V26.75H76.75V28H68V15.5ZM78 15.5H83V16.75H81.75V26.75H83V28H78V26.75H79.25V16.75H78V15.5ZM84.25 16.75H85.5V15.5H91.75V16.75H93V18H90.5V16.75H86.75V26.75H90.5V25.5H93V26.75H91.75V28H85.5V26.75H84.25V16.75ZM94.25 15.5H96.75V20.5H99.25V19.25H100.5V15.5H103V19.25H101.75V20.5H100.5V21.75H101.75V23H103V28H100.5V23H99.25V21.75H96.75V28H94.25V15.5Z" fill="white"/>
</svg>
