<svg width="auto" height="auto" viewBox="0 0 167 46" fill="none" xmlns="http://www.w3.org/2000/svg">
<path d="M164 3H3V43H164V3Z" fill="#CA3E3E" fill-opacity="0.3" stroke="black" stroke-width="5" stroke-miterlimit="10"/>
<path d="M10.1558 39L156.845 39" stroke="#D87D7D" stroke-width="3" stroke-miterlimit="10"/>
<path d="M6.57764 5.5498V34.5198" stroke="#FFC0C0" stroke-width="3" stroke-miterlimit="10"/>
<path d="M160.422 5.5498V34.5198" stroke="#EDA2A2" stroke-width="3" stroke-miterlimit="10"/>
<path d="M11.05 34H8.3667V37H11.05V34Z" fill="#FFC0C0"/>
<path d="M159.528 34.5H156.844V37.5H159.528V34.5Z" fill="#D87D7D"/>
<path d="M7.47217 7L161.317 7" stroke="#FFC0C0" stroke-width="3" stroke-miterlimit="10"/>
<path d="M58 16.75H59.25V15.5H66.75V16.75H60.5V20.5H65.5V21.75H60.5V26.75H66.75V28H59.25V26.75H58V16.75ZM68 15.5H75.5V16.75H76.75V28H74.25V16.75H70.5V28H68V15.5ZM78 15.5H88V16.75H84.25V28H81.75V16.75H78V15.5ZM89.25 16.75H90.5V15.5H98V16.75H91.75V20.5H96.75V21.75H91.75V26.75H98V28H90.5V26.75H89.25V16.75ZM99.25 15.5H106.75V16.75H108V20.5H106.75V21.75H108V28H105.5V21.75H101.75V28H99.25V15.5ZM101.75 16.75V20.5H105.5V16.75H101.75Z" fill="white"/>
</svg>
