<svg width="167" height="46" viewBox="0 0 167 46" fill="none" xmlns="http://www.w3.org/2000/svg">
<g id="READY">
<g id="Group">
<path id="Vector" d="M164 3H3V43H164V3Z" fill="#CA3E3E" stroke="black" stroke-width="5" stroke-miterlimit="10"/>
<path id="Vector_2" d="M10.1553 39L156.844 39" stroke="#D87D7D" stroke-width="3" stroke-miterlimit="10"/>
<path id="Vector_3" d="M6.57715 5.5498V34.5198" stroke="#FFC0C0" stroke-width="3" stroke-miterlimit="10"/>
<path id="Vector_4" d="M160.423 5.5498V34.5198" stroke="#EDA2A2" stroke-width="3" stroke-miterlimit="10"/>
<path id="Vector_5" d="M11.0505 34H8.36719V37H11.0505V34Z" fill="#FFC0C0"/>
<path id="Vector_6" d="M159.528 34.5H156.845V37.5H159.528V34.5Z" fill="#D87D7D"/>
<path id="Vector_7" d="M7.47266 7L161.317 7" stroke="#FFC0C0" stroke-width="3" stroke-miterlimit="10"/>
<path id="ENTER" d="M58 16.75H59.25V15.5H66.75V16.75H60.5V20.5H65.5V21.75H60.5V26.75H66.75V28H59.25V26.75H58V16.75ZM68 15.5H75.5V16.75H76.75V28H74.25V16.75H70.5V28H68V15.5ZM78 15.5H88V16.75H84.25V28H81.75V16.75H78V15.5ZM89.25 16.75H90.5V15.5H98V16.75H91.75V20.5H96.75V21.75H91.75V26.75H98V28H90.5V26.75H89.25V16.75ZM99.25 15.5H106.75V16.75H108V20.5H106.75V21.75H108V28H105.5V21.75H101.75V28H99.25V15.5ZM101.75 16.75V20.5H105.5V16.75H101.75Z" fill="white"/>
</g>
</g>
</svg>
