<svg width="29" height="29" viewBox="0 0 29 29" fill="none" xmlns="http://www.w3.org/2000/svg">
<path d="M26.01 26V23.02H29V5.97H26.01V3H23.03V0H5.97V3H3V5.98H0V23.03H3V26H5.98V29H23.03V26H26.01Z" fill="#C0CFFF"/>
<path d="M21.53 1.49023H7.45996V2.99023H21.53V1.49023Z" fill="white"/>
<path d="M4.5 5.98047H3V7.48047H4.5V5.98047Z" fill="white"/>
<path d="M3 7.48047H1.5V21.5205H3V7.48047Z" fill="white"/>
<path d="M5.99023 4.48047H4.49023V5.98047H5.99023V4.48047Z" fill="white"/>
<path d="M5.99023 5.98047H4.49023V7.48047H5.99023V5.98047Z" fill="white"/>
<path d="M7.47021 4.48047H5.97021V5.98047H7.47021V4.48047Z" fill="white"/>
<path d="M7.47021 2.98047H5.97021V4.48047H7.47021V2.98047Z" fill="white"/>
<path d="M7.46955 27.4902H21.5396V25.9902H7.46955V27.4902Z" fill="#7D98D8"/>
<path d="M24.4995 23H25.9995V21.5H24.4995V23Z" fill="#7D98D8"/>
<path d="M26.0098 21.5H27.5098V7.46H26.0098V21.5Z" fill="#7D98D8"/>
<path d="M23.0098 24.5117H24.5098V23.0117H23.0098V24.5117Z" fill="#7D98D8"/>
<path d="M23.0098 23H24.5098V21.5H23.0098V23Z" fill="#7D98D8"/>
<path d="M21.5396 24.5117H23.0396V23.0117H21.5396V24.5117Z" fill="#7D98D8"/>
<path d="M21.5396 26H23.0396V24.5H21.5396V26Z" fill="#7D98D8"/>
</svg>
