<svg width="26" height="25" viewBox="0 0 26 25" fill="none" xmlns="http://www.w3.org/2000/svg">
<path d="M11.2306 3.98047H8.89062V6.32047H11.2306V3.98047Z" fill="white"/>
<path d="M8.90133 5.03125H7.61133V6.32125H8.90133V5.03125Z" fill="white"/>
<path d="M19.4502 5.03125H18.1602V6.32125H19.4502V5.03125Z" fill="white"/>
<path d="M13.5412 3.98047H11.2012V6.32047H13.5412V3.98047Z" fill="white"/>
<path d="M15.8517 3.98047H13.5117V6.32047H15.8517V3.98047Z" fill="white"/>
<path d="M18.1701 3.98047H15.8301V6.32047H18.1701V3.98047Z" fill="white"/>
<path d="M11.2306 6.32031H8.89062V8.66031H11.2306V6.32031Z" fill="white"/>
<path d="M13.5412 6.32031H11.2012V8.66031H13.5412V6.32031Z" fill="white"/>
<path d="M15.8517 6.32031H13.5117V8.66031H15.8517V6.32031Z" fill="white"/>
<path d="M18.1701 6.32031H15.8301V8.66031H18.1701V6.32031Z" fill="white"/>
<path d="M11.2306 8.65039H8.89062V10.9904H11.2306V8.65039Z" fill="white"/>
<path d="M13.5412 8.65039H11.2012V10.9904H13.5412V8.65039Z" fill="#5777CC"/>
<path d="M11.2409 9.71094H9.96094V10.9909H11.2409V9.71094Z" fill="#5777CC"/>
<path d="M15.8517 8.65039H13.5117V10.9904H15.8517V8.65039Z" fill="#5777CC"/>
<path d="M18.1701 8.65039H15.8301V10.9904H18.1701V8.65039Z" fill="white"/>
<path d="M11.2306 10.9902H8.89062V13.3302H11.2306V10.9902Z" fill="#5777CC"/>
<path d="M13.5412 10.9902H11.2012V13.3302H13.5412V10.9902Z" fill="#5777CC"/>
<path d="M15.8517 10.9902H13.5117V13.3302H15.8517V10.9902Z" fill="#5777CC"/>
<path d="M18.1701 10.9902H15.8301V13.3302H18.1701V10.9902Z" fill="#5777CC"/>
<path d="M11.2306 13.3203H8.89062V15.6603H11.2306V13.3203Z" fill="#5777CC"/>
<path d="M13.5412 13.3203H11.2012V15.6603H13.5412V13.3203Z" fill="#5777CC"/>
<path d="M15.8517 13.3203H13.5117V15.6603H15.8517V13.3203Z" fill="#5777CC"/>
<path d="M18.1701 13.3203H15.8301V15.6603H18.1701V13.3203Z" fill="#5777CC"/>
<path d="M11.2306 15.6602H8.89062V18.0002H11.2306V15.6602Z" fill="white"/>
<path d="M13.5412 15.6602H11.2012V18.0002H13.5412V15.6602Z" fill="#5777CC"/>
<path d="M15.8517 15.6602H13.5117V18.0002H15.8517V15.6602Z" fill="#5777CC"/>
<path d="M18.1701 15.6602H15.8301V18.0002H18.1701V15.6602Z" fill="white"/>
<path d="M11.2306 17.9902H8.89062V20.3302H11.2306V17.9902Z" fill="white"/>
<path d="M8.89078 6.32031H6.55078V8.66031H8.89078V6.32031Z" fill="white"/>
<path d="M8.89078 8.65039H6.55078V10.9904H8.89078V8.65039Z" fill="white"/>
<path d="M8.89078 10.9902H6.55078V13.3302H8.89078V10.9902Z" fill="white"/>
<path d="M8.89078 13.3203H6.55078V15.6603H8.89078V13.3203Z" fill="white"/>
<path d="M8.89078 15.6602H6.55078V18.0002H8.89078V15.6602Z" fill="white"/>
<path d="M8.89078 17.9902H6.55078V20.3302H8.89078V17.9902Z" fill="white"/>
<path d="M6.55094 6.32031H4.21094V8.66031H6.55094V6.32031Z" fill="white"/>
<path d="M6.55094 8.65039H4.21094V10.9904H6.55094V8.65039Z" fill="white"/>
<path d="M6.55094 10.9902H4.21094V13.3302H6.55094V10.9902Z" fill="white"/>
<path d="M6.55094 13.3203H4.21094V15.6603H6.55094V13.3203Z" fill="white"/>
<path d="M6.55094 15.6602H4.21094V18.0002H6.55094V15.6602Z" fill="white"/>
<path d="M6.55094 17.9902H4.21094V20.3302H6.55094V17.9902Z" fill="white"/>
<path d="M22.8517 6.32031H20.5117V8.66031H22.8517V6.32031Z" fill="white"/>
<path d="M22.8517 8.65039H20.5117V10.9904H22.8517V8.65039Z" fill="white"/>
<path d="M22.8517 10.9902H20.5117V13.3302H22.8517V10.9902Z" fill="white"/>
<path d="M22.8517 13.3203H20.5117V15.6603H22.8517V13.3203Z" fill="white"/>
<path d="M22.8517 15.6602H20.5117V18.0002H22.8517V15.6602Z" fill="white"/>
<path d="M22.8517 17.9902H20.5117V20.3302H22.8517V17.9902Z" fill="white"/>
<path d="M20.5119 6.32031H18.1719V8.66031H20.5119V6.32031Z" fill="white"/>
<path d="M20.5119 8.65039H18.1719V10.9904H20.5119V8.65039Z" fill="white"/>
<path d="M20.5119 10.9902H18.1719V13.3302H20.5119V10.9902Z" fill="white"/>
<path d="M20.5119 13.3203H18.1719V15.6603H20.5119V13.3203Z" fill="white"/>
<path d="M20.5119 15.6602H18.1719V18.0002H20.5119V15.6602Z" fill="white"/>
<path d="M20.5119 17.9902H18.1719V20.3302H20.5119V17.9902Z" fill="white"/>
<path d="M13.5412 17.9902H11.2012V20.3302H13.5412V17.9902Z" fill="white"/>
<path d="M15.8517 17.9902H13.5117V20.3302H15.8517V17.9902Z" fill="white"/>
<path d="M18.1701 17.9902H15.8301V20.3302H18.1701V17.9902Z" fill="white"/>
<path d="M17.0905 9.71094H15.8105V10.9909H17.0905V9.71094Z" fill="#5777CC"/>
<path d="M11.2409 15.6504H9.96094V16.9304H11.2409V15.6504Z" fill="#5777CC"/>
<path d="M17.0905 15.6504H15.8105V16.9304H17.0905V15.6504Z" fill="#5777CC"/>
<path d="M22.96 20.52V18.35H20.67V16.18H18.39V14.01H16.1V11.84H13.82V9.67H11.53V7.5H9.24V5.33H6.96V3.16H4.67V1H1V4.67H3.28V6.84H5.57V9.01H7.85V11.18H10.14V13.35H12.42V15.52H14.71V17.69H17V19.86H19.28V22.03H21.57V24.2H25.25V20.52H22.96Z" fill="#CC5858" stroke="black" stroke-width="0.75" stroke-miterlimit="10"/>
<path d="M3.28 20.52V18.35H5.57V16.18H7.85V14.01H10.14V11.84H12.42V9.67H14.71V7.5H17V5.33H19.28V3.16H21.57V1H25.25V4.67H22.96V6.84H20.67V9.01H18.39V11.18H16.1V13.35H13.82V15.52H11.53V17.69H9.24V19.86H6.96V22.03H4.67V24.2H1V20.52H3.28Z" fill="#CC5858" stroke="black" stroke-width="0.75" stroke-miterlimit="10"/>
</svg>
