<svg width="19" height="18" viewBox="0 0 19 18" fill="none" xmlns="http://www.w3.org/2000/svg">
<path d="M7.23062 0.980469H4.89062V3.32047H7.23062V0.980469Z" fill="white"/>
<path d="M4.90133 2.03125H3.61133V3.32125H4.90133V2.03125Z" fill="white"/>
<path d="M15.4502 2.03125H14.1602V3.32125H15.4502V2.03125Z" fill="white"/>
<path d="M9.54117 0.980469H7.20117V3.32047H9.54117V0.980469Z" fill="white"/>
<path d="M11.8517 0.980469H9.51172V3.32047H11.8517V0.980469Z" fill="white"/>
<path d="M14.1701 0.980469H11.8301V3.32047H14.1701V0.980469Z" fill="white"/>
<path d="M7.23062 3.32031H4.89062V5.66031H7.23062V3.32031Z" fill="white"/>
<path d="M9.54117 3.32031H7.20117V5.66031H9.54117V3.32031Z" fill="white"/>
<path d="M11.8517 3.32031H9.51172V5.66031H11.8517V3.32031Z" fill="white"/>
<path d="M14.1701 3.32031H11.8301V5.66031H14.1701V3.32031Z" fill="white"/>
<path d="M7.23062 5.65039H4.89062V7.99039H7.23062V5.65039Z" fill="white"/>
<path d="M9.54117 5.65039H7.20117V7.99039H9.54117V5.65039Z" fill="#5777CC"/>
<path d="M7.24094 6.71094H5.96094V7.99094H7.24094V6.71094Z" fill="#5777CC"/>
<path d="M11.8517 5.65039H9.51172V7.99039H11.8517V5.65039Z" fill="#5777CC"/>
<path d="M14.1701 5.65039H11.8301V7.99039H14.1701V5.65039Z" fill="white"/>
<path d="M7.23062 7.99023H4.89062V10.3302H7.23062V7.99023Z" fill="#5777CC"/>
<path d="M9.54117 7.99023H7.20117V10.3302H9.54117V7.99023Z" fill="#5777CC"/>
<path d="M11.8517 7.99023H9.51172V10.3302H11.8517V7.99023Z" fill="#5777CC"/>
<path d="M14.1701 7.99023H11.8301V10.3302H14.1701V7.99023Z" fill="#5777CC"/>
<path d="M7.23062 10.3203H4.89062V12.6603H7.23062V10.3203Z" fill="#5777CC"/>
<path d="M9.54117 10.3203H7.20117V12.6603H9.54117V10.3203Z" fill="#5777CC"/>
<path d="M11.8517 10.3203H9.51172V12.6603H11.8517V10.3203Z" fill="#5777CC"/>
<path d="M14.1701 10.3203H11.8301V12.6603H14.1701V10.3203Z" fill="#5777CC"/>
<path d="M7.23062 12.6602H4.89062V15.0002H7.23062V12.6602Z" fill="white"/>
<path d="M9.54117 12.6602H7.20117V15.0002H9.54117V12.6602Z" fill="#5777CC"/>
<path d="M11.8517 12.6602H9.51172V15.0002H11.8517V12.6602Z" fill="#5777CC"/>
<path d="M14.1701 12.6602H11.8301V15.0002H14.1701V12.6602Z" fill="white"/>
<path d="M7.23062 14.9902H4.89062V17.3302H7.23062V14.9902Z" fill="white"/>
<path d="M4.89078 3.32031H2.55078V5.66031H4.89078V3.32031Z" fill="white"/>
<path d="M4.89078 5.65039H2.55078V7.99039H4.89078V5.65039Z" fill="white"/>
<path d="M4.89078 7.99023H2.55078V10.3302H4.89078V7.99023Z" fill="white"/>
<path d="M4.89078 10.3203H2.55078V12.6603H4.89078V10.3203Z" fill="white"/>
<path d="M4.89078 12.6602H2.55078V15.0002H4.89078V12.6602Z" fill="white"/>
<path d="M4.89078 14.9902H2.55078V17.3302H4.89078V14.9902Z" fill="white"/>
<path d="M2.55094 3.32031H0.210938V5.66031H2.55094V3.32031Z" fill="white"/>
<path d="M2.55094 5.65039H0.210938V7.99039H2.55094V5.65039Z" fill="white"/>
<path d="M2.55094 7.99023H0.210938V10.3302H2.55094V7.99023Z" fill="white"/>
<path d="M2.55094 10.3203H0.210938V12.6603H2.55094V10.3203Z" fill="white"/>
<path d="M2.55094 12.6602H0.210938V15.0002H2.55094V12.6602Z" fill="white"/>
<path d="M2.55094 14.9902H0.210938V17.3302H2.55094V14.9902Z" fill="white"/>
<path d="M18.8517 3.32031H16.5117V5.66031H18.8517V3.32031Z" fill="white"/>
<path d="M18.8517 5.65039H16.5117V7.99039H18.8517V5.65039Z" fill="white"/>
<path d="M18.8517 7.99023H16.5117V10.3302H18.8517V7.99023Z" fill="white"/>
<path d="M18.8517 10.3203H16.5117V12.6603H18.8517V10.3203Z" fill="white"/>
<path d="M18.8517 12.6602H16.5117V15.0002H18.8517V12.6602Z" fill="white"/>
<path d="M18.8517 14.9902H16.5117V17.3302H18.8517V14.9902Z" fill="white"/>
<path d="M16.5119 3.32031H14.1719V5.66031H16.5119V3.32031Z" fill="white"/>
<path d="M16.5119 5.65039H14.1719V7.99039H16.5119V5.65039Z" fill="white"/>
<path d="M16.5119 7.99023H14.1719V10.3302H16.5119V7.99023Z" fill="white"/>
<path d="M16.5119 10.3203H14.1719V12.6603H16.5119V10.3203Z" fill="white"/>
<path d="M16.5119 12.6602H14.1719V15.0002H16.5119V12.6602Z" fill="white"/>
<path d="M16.5119 14.9902H14.1719V17.3302H16.5119V14.9902Z" fill="white"/>
<path d="M9.54117 14.9902H7.20117V17.3302H9.54117V14.9902Z" fill="white"/>
<path d="M11.8517 14.9902H9.51172V17.3302H11.8517V14.9902Z" fill="white"/>
<path d="M14.1701 14.9902H11.8301V17.3302H14.1701V14.9902Z" fill="white"/>
<path d="M13.0905 6.71094H11.8105V7.99094H13.0905V6.71094Z" fill="#5777CC"/>
<path d="M7.24094 12.6504H5.96094V13.9304H7.24094V12.6504Z" fill="#5777CC"/>
<path d="M13.0905 12.6504H11.8105V13.9304H13.0905V12.6504Z" fill="#5777CC"/>
</svg>
