<svg width="auto" height="auto" viewBox="0 0 43 35" fill="none" xmlns="http://www.w3.org/2000/svg">
<path d="M0.855205 17.4297H9.14453L9.14453 9.14036L0.855205 9.14036L0.855205 17.4297Z" fill="#FFDF2C"/>
<path d="M0.855205 9.12402L9.14453 9.12402L9.14453 0.834697L0.855205 0.834697L0.855205 9.12402Z" fill="#D6122A"/>
<path d="M0.855205 25.7529H9.14453L9.14453 17.4636H0.855205L0.855205 25.7529Z" fill="#FFDF2C"/>
<path d="M0.855205 34.042H9.14453L9.14453 25.7527H0.855205L0.855205 34.042Z" fill="#D6122A"/>
<path d="M9.12669 17.4297H17.416V9.14036L9.12669 9.14036L9.12669 17.4297Z" fill="#FFDF2C"/>
<path d="M9.12669 9.12402L17.416 9.12402V0.834697L9.12669 0.834697L9.12669 9.12402Z" fill="#D6122A"/>
<path d="M9.12669 25.7529H17.416V17.4636H9.12669L9.12669 25.7529Z" fill="#FFA229"/>
<path d="M9.12669 34.042H17.416V25.7527H9.12669L9.12669 34.042Z" fill="#D6122A"/>
<path d="M17.3835 17.4297H25.6729V9.14036L17.3835 9.14036V17.4297Z" fill="#FFA229"/>
<path d="M17.3835 9.12402L25.6729 9.12402V0.834697L17.3835 0.834697V9.12402Z" fill="#D6122A"/>
<path d="M17.3835 25.7529H25.6729V17.4636H17.3835V25.7529Z" fill="#FFA229"/>
<path d="M17.3835 34.042H25.6729V25.7527H17.3835V34.042Z" fill="#D6122A"/>
<path d="M25.6384 17.4297H33.9277V9.14036L25.6384 9.14036V17.4297Z" fill="#D6122A"/>
<path d="M32.9997 12.959L41.2891 12.959V4.66966L32.9997 4.66966V12.959Z" fill="#D6122A"/>
<path d="M25.6384 9.12402L33.9277 9.12402V0.834697L25.6384 0.834697V9.12402Z" fill="#D6122A"/>
<path d="M25.6384 25.7529H33.9277V17.4636H25.6384V25.7529Z" fill="#FFA229"/>
<path d="M25.6384 34.042H33.9277V25.7527H25.6384V34.042Z" fill="#D6122A"/>
<path d="M33.9118 25.7529H42.2012V17.4636H33.9118V25.7529Z" fill="#D6122A"/>
</svg>
