<svg width="auto" height="auto" viewBox="0 0 264 331" fill="none" xmlns="http://www.w3.org/2000/svg">
<path d="M255.478 223.132H263.768V214.843H255.478V223.132Z" fill="black"/>
<path d="M254.681 140.57H262.921V132.331H254.681V140.57Z" fill="black"/>
<path d="M254.681 132.313H262.921V124.074H254.681V132.313Z" fill="black"/>
<path d="M254.681 124.042H262.921V115.802H254.681V124.042Z" fill="black"/>
<path d="M254.681 115.769H262.921V107.529H254.681V115.769Z" fill="black"/>
<path d="M254.681 107.512H262.921V99.2721H254.681V107.512Z" fill="black"/>
<path d="M254.681 99.2402H262.921V91.0006H254.681V99.2402Z" fill="black"/>
<path d="M254.681 90.9834H262.921V82.7438H254.681V90.9834Z" fill="black"/>
<path d="M254.681 82.71H262.921V74.4704H254.681V82.71Z" fill="black"/>
<path d="M254.681 74.4385H262.921V66.1989H254.681V74.4385Z" fill="black"/>
<path d="M254.681 66.1816H262.921V57.942H254.681V66.1816Z" fill="black"/>
<path d="M254.681 57.9092H262.921V49.6696H254.681V57.9092Z" fill="black"/>
<path d="M254.681 49.5049H262.921V41.2653H254.681V49.5049Z" fill="black"/>
<path d="M107.214 181.553H98.9248V189.842H107.214V181.553Z" fill="black"/>
<path d="M123.594 19.6615V11.4219H115.354V19.6615H123.594Z" fill="#DDF8FF"/>
<path d="M131.851 19.6458V11.4062H123.611V19.6458H131.851Z" fill="#DDF8FF"/>
<path d="M140.09 19.6615V11.4219H131.85V19.6615H140.09Z" fill="#DDF8FF"/>
<path d="M148.346 19.6458V11.4062H140.106V19.6458H148.346Z" fill="#DDF8FF"/>
<path d="M156.603 19.6615V11.4219H148.363V19.6615H156.603Z" fill="#DDF8FF"/>
<path d="M164.842 19.6458V11.4062H156.602V19.6458H164.842Z" fill="#DDF8FF"/>
<path d="M173.099 19.6615V11.4219H164.859V19.6615H173.099Z" fill="#DDF8FF"/>
<path d="M181.338 19.6458V11.4062H173.098V19.6458H181.338Z" fill="#DDF8FF"/>
<path d="M189.595 19.6458V11.4062H181.355V19.6458H189.595Z" fill="#DDF8FF"/>
<path d="M197.834 19.6458V11.4062H189.594V19.6458H197.834Z" fill="#DDF8FF"/>
<path d="M206.089 19.6458V11.4062H197.849V19.6458H206.089Z" fill="#DDF8FF"/>
<path d="M214.33 19.6458V11.4062H206.09V19.6458H214.33Z" fill="#DDF8FF"/>
<path d="M222.585 19.6458V11.4062H214.345V19.6458H222.585Z" fill="#DDF8FF"/>
<path d="M221.822 27.8174H230.062V19.5778H221.822V27.8174Z" fill="#DDF8FF"/>
<path d="M107.098 27.8187V19.5791H98.8581V27.8187H107.098Z" fill="#DDF8FF"/>
<path d="M115.355 27.8021V19.5625H107.116V27.8021H115.355Z" fill="#DDF8FF"/>
<path d="M115.355 24.7015V16.4619H107.116V24.7015H115.355Z" fill="#DDF8FF"/>
<path d="M123.594 27.8187V19.5791H115.354V27.8187H123.594Z" fill="#DDF8FF"/>
<path d="M131.851 27.8021V19.5625H123.611V27.8021H131.851Z" fill="#DDF8FF"/>
<path d="M140.09 27.8187V19.5791H131.85V27.8187H140.09Z" fill="#DDF8FF"/>
<path d="M148.346 27.8021V19.5625H140.106V27.8021H148.346Z" fill="#DDF8FF"/>
<path d="M156.603 27.8187V19.5791H148.363V27.8187H156.603Z" fill="#DDF8FF"/>
<path d="M164.842 27.8021V19.5625H156.602V27.8021H164.842Z" fill="#DDF8FF"/>
<path d="M173.099 27.8187V19.5791H164.859V27.8187H173.099Z" fill="#DDF8FF"/>
<path d="M181.338 27.8021V19.5625H173.098V27.8021H181.338Z" fill="#DDF8FF"/>
<path d="M189.595 27.8021V19.5625H181.355V27.8021H189.595Z" fill="#DDF8FF"/>
<path d="M197.834 27.8021V19.5625H189.594V27.8021H197.834Z" fill="#DDF8FF"/>
<path d="M206.089 27.8021V19.5625H197.849V27.8021H206.089Z" fill="#DDF8FF"/>
<path d="M214.33 27.8021V19.5625H206.09V27.8021H214.33Z" fill="#DDF8FF"/>
<path d="M222.585 27.8021V19.5625H214.345V27.8021H222.585Z" fill="#DDF8FF"/>
<path d="M230.063 35.9756H238.303V27.736H230.063V35.9756Z" fill="#DDF8FF"/>
<path d="M221.822 35.9756H230.062V27.736H221.822V35.9756Z" fill="#DDF8FF"/>
<path d="M107.098 35.9749V27.7354H98.8581V35.9749H107.098Z" fill="#DDF8FF"/>
<path d="M115.355 35.9583V27.7188H107.116V35.9583H115.355Z" fill="#DDF8FF"/>
<path d="M123.594 35.9749V27.7354H115.354V35.9749H123.594Z" fill="#DDF8FF"/>
<path d="M131.851 35.9583V27.7188H123.611V35.9583H131.851Z" fill="#DDF8FF"/>
<path d="M140.09 35.9749V27.7354H131.85V35.9749H140.09Z" fill="#DDF8FF"/>
<path d="M148.346 35.9583V27.7188H140.106V35.9583H148.346Z" fill="#DDF8FF"/>
<path d="M156.603 35.9749V27.7354H148.363V35.9749H156.603Z" fill="#DDF8FF"/>
<path d="M164.842 35.9583V27.7188H156.602V35.9583H164.842Z" fill="#DDF8FF"/>
<path d="M173.099 35.9749V27.7354H164.859V35.9749H173.099Z" fill="#DDF8FF"/>
<path d="M181.338 35.9583V27.7188H173.098V35.9583H181.338Z" fill="#DDF8FF"/>
<path d="M189.595 35.9583V27.7188H181.355V35.9583H189.595Z" fill="#DDF8FF"/>
<path d="M197.834 35.9583V27.7188H189.594V35.9583H197.834Z" fill="#DDF8FF"/>
<path d="M206.089 35.9583V27.7188H197.849V35.9583H206.089Z" fill="#DDF8FF"/>
<path d="M214.33 35.9583V27.7188H206.09V35.9583H214.33Z" fill="#DDF8FF"/>
<path d="M222.585 35.9583V27.7188H214.345V35.9583H222.585Z" fill="#DDF8FF"/>
<path d="M230.063 44.1328H238.303V35.8932H230.063V44.1328Z" fill="#DDF8FF"/>
<path d="M221.822 44.1328H230.062V35.8932H221.822V44.1328Z" fill="#DDF8FF"/>
<path d="M238.268 44.1328H246.508V35.8932H238.268V44.1328Z" fill="#DDF8FF"/>
<path d="M98.8428 44.1156V35.876H90.6032V44.1156H98.8428Z" fill="#DDF8FF"/>
<path d="M107.098 44.1312V35.8916H98.8581V44.1312H107.098Z" fill="#DDF8FF"/>
<path d="M115.355 44.1156V35.876H107.116V44.1156H115.355Z" fill="#DDF8FF"/>
<path d="M123.594 44.1312V35.8916H115.354V44.1312H123.594Z" fill="#DDF8FF"/>
<path d="M131.851 44.1156V35.876H123.611V44.1156H131.851Z" fill="#DDF8FF"/>
<path d="M140.09 44.1312V35.8916H131.85V44.1312H140.09Z" fill="#DDF8FF"/>
<path d="M148.346 44.1156V35.876H140.106V44.1156H148.346Z" fill="#DDF8FF"/>
<path d="M156.586 44.1312V35.8916H148.346V44.1312H156.586Z" fill="#DDF8FF"/>
<path d="M164.842 44.1156V35.876H156.602V44.1156H164.842Z" fill="#DDF8FF"/>
<path d="M173.099 44.1312V35.8916H164.859V44.1312H173.099Z" fill="#DDF8FF"/>
<path d="M181.338 44.1156V35.876H173.098V44.1156H181.338Z" fill="#DDF8FF"/>
<path d="M189.595 44.1156V35.876H181.355V44.1156H189.595Z" fill="#DDF8FF"/>
<path d="M197.834 44.1156V35.876H189.594V44.1156H197.834Z" fill="#DDF8FF"/>
<path d="M206.089 44.1156V35.876H197.849V44.1156H206.089Z" fill="#DDF8FF"/>
<path d="M214.33 44.1156V35.876H206.09V44.1156H214.33Z" fill="#DDF8FF"/>
<path d="M222.585 44.1155V35.876H214.345V44.1155H222.585Z" fill="#DDF8FF"/>
<path d="M230.063 52.2891H238.303V44.0495H230.063V52.2891Z" fill="#DDF8FF"/>
<path d="M221.822 52.2891H230.062V44.0495H221.822V52.2891Z" fill="#DDF8FF"/>
<path d="M238.268 52.2891H246.508V44.0495H238.268V52.2891Z" fill="#DDF8FF"/>
<path d="M246.493 52.2891H254.732V44.0495H246.493V52.2891Z" fill="#DDF8FF"/>
<path d="M90.5859 52.2718V44.0322H82.3463V52.2718H90.5859Z" fill="#DDF8FF"/>
<path d="M123.594 16.4945V8.25488H115.354V16.4945H123.594Z" fill="#DDF8FF"/>
<path d="M131.851 16.4788V8.23926H123.611V16.4788H131.851Z" fill="#DDF8FF"/>
<path d="M140.09 16.4789V8.23926H131.85V16.4789H140.09Z" fill="#DDF8FF"/>
<path d="M148.346 16.4788V8.23926H140.106V16.4788H148.346Z" fill="#DDF8FF"/>
<path d="M156.586 16.4789V8.23926H148.346V16.4789H156.586Z" fill="#DDF8FF"/>
<path d="M164.842 16.4789V8.23926H156.602V16.4789H164.842Z" fill="#DDF8FF"/>
<path d="M173.082 16.4789V8.23926H164.842V16.4789H173.082Z" fill="#DDF8FF"/>
<path d="M181.338 16.4789V8.23926H173.098V16.4789H181.338Z" fill="#DDF8FF"/>
<path d="M189.577 16.4789V8.23926H181.338V16.4789H189.577Z" fill="#DDF8FF"/>
<path d="M197.834 16.4789V8.23926H189.594V16.4789H197.834Z" fill="#DDF8FF"/>
<path d="M206.089 16.4789V8.23926H197.849V16.4789H206.089Z" fill="#DDF8FF"/>
<path d="M214.33 16.4789V8.23926H206.09V16.4789H214.33Z" fill="#DDF8FF"/>
<path d="M222.585 16.4788V8.23926H214.345V16.4788H222.585Z" fill="#DDF8FF"/>
<path d="M221.822 24.6523H230.062V16.4128H221.822V24.6523Z" fill="#DDF8FF"/>
<path d="M230.063 32.8096H238.303V24.57H230.063V32.8096Z" fill="#DDF8FF"/>
<path d="M238.268 40.9658H246.508V32.7262H238.268V40.9658Z" fill="#DDF8FF"/>
<path d="M98.8428 40.9486V32.709H90.6032V40.9486H98.8428Z" fill="#DDF8FF"/>
<path d="M246.493 49.1221H254.732V40.8825H246.493V49.1221Z" fill="#DDF8FF"/>
<path d="M90.5859 49.1048V40.8652H82.3463V49.1048H90.5859Z" fill="#DDF8FF"/>
<path d="M98.8428 52.2718V44.0322H90.6032V52.2718H98.8428Z" fill="#DDF8FF"/>
<path d="M107.098 52.2884V44.0488H98.8581V52.2884H107.098Z" fill="#DDF8FF"/>
<path d="M115.355 52.2718V44.0322H107.116V52.2718H115.355Z" fill="#DDF8FF"/>
<path d="M123.594 52.2884V44.0488H115.354V52.2884H123.594Z" fill="#DDF8FF"/>
<path d="M131.851 52.2718V44.0322H123.611V52.2718H131.851Z" fill="#DDF8FF"/>
<path d="M140.09 52.2884V44.0488H131.85V52.2884H140.09Z" fill="#DDF8FF"/>
<path d="M148.346 52.2718V44.0322H140.106V52.2718H148.346Z" fill="#DDF8FF"/>
<path d="M156.586 52.2884V44.0488H148.346V52.2884H156.586Z" fill="#DDF8FF"/>
<path d="M164.842 52.2718V44.0322H156.602V52.2718H164.842Z" fill="#DDF8FF"/>
<path d="M173.099 52.2884V44.0488H164.859V52.2884H173.099Z" fill="#DDF8FF"/>
<path d="M181.338 52.2718V44.0322H173.098V52.2718H181.338Z" fill="#DDF8FF"/>
<path d="M189.595 52.2718V44.0322H181.355V52.2718H189.595Z" fill="#DDF8FF"/>
<path d="M197.834 52.2718V44.0322H189.594V52.2718H197.834Z" fill="#DDF8FF"/>
<path d="M206.089 52.2718V44.0322H197.849V52.2718H206.089Z" fill="#DDF8FF"/>
<path d="M214.33 52.2718V44.0322H206.09V52.2718H214.33Z" fill="#DDF8FF"/>
<path d="M222.585 52.2718V44.0322H214.345V52.2718H222.585Z" fill="#DDF8FF"/>
<path d="M230.063 60.4453H238.303V52.2057H230.063V60.4453Z" fill="#DDF8FF"/>
<path d="M221.822 60.4453H230.062V52.2057H221.822V60.4453Z" fill="#DDF8FF"/>
<path d="M238.268 60.4453H246.508V52.2057H238.268V60.4453Z" fill="#DDF8FF"/>
<path d="M246.493 60.4453H254.732V52.2057H246.493V60.4453Z" fill="#DDF8FF"/>
<path d="M90.5859 60.4281V52.1885H82.3463V60.4281H90.5859Z" fill="#DDF8FF"/>
<path d="M98.8428 60.4281V52.1885H90.6032V60.4281H98.8428Z" fill="#DDF8FF"/>
<path d="M107.098 60.4447V52.2051H98.8581V60.4447H107.098Z" fill="#DDF8FF"/>
<path d="M115.355 60.4281V52.1885H107.116V60.4281H115.355Z" fill="#DDF8FF"/>
<path d="M123.594 60.4447V52.2051H115.354V60.4447H123.594Z" fill="#DDF8FF"/>
<path d="M131.851 60.4281V52.1885H123.611V60.4281H131.851Z" fill="#DDF8FF"/>
<path d="M140.09 60.4447V52.2051H131.85V60.4447H140.09Z" fill="#DDF8FF"/>
<path d="M148.346 60.4281V52.1885H140.106V60.4281H148.346Z" fill="#DDF8FF"/>
<path d="M156.586 60.4447V52.2051H148.346V60.4447H156.586Z" fill="#DDF8FF"/>
<path d="M164.842 60.4281V52.1885H156.602V60.4281H164.842Z" fill="#DDF8FF"/>
<path d="M173.099 60.4447V52.2051H164.859V60.4447H173.099Z" fill="#DDF8FF"/>
<path d="M181.338 60.4281V52.1885H173.098V60.4281H181.338Z" fill="#DDF8FF"/>
<path d="M189.595 60.4281V52.1885H181.355V60.4281H189.595Z" fill="#DDF8FF"/>
<path d="M197.834 60.4281V52.1885H189.594V60.4281H197.834Z" fill="#DDF8FF"/>
<path d="M206.089 60.4281V52.1885H197.849V60.4281H206.089Z" fill="#DDF8FF"/>
<path d="M214.33 60.4281V52.1885H206.09V60.4281H214.33Z" fill="#DDF8FF"/>
<path d="M222.585 60.428V52.1885H214.345V60.428H222.585Z" fill="#DDF8FF"/>
<path d="M230.063 68.6025H238.303V60.363H230.063V68.6025Z" fill="#DDF8FF"/>
<path d="M221.822 68.6025H230.062V60.363H221.822V68.6025Z" fill="#DDF8FF"/>
<path d="M238.268 68.6025H246.508V60.363H238.268V68.6025Z" fill="#DDF8FF"/>
<path d="M246.493 68.6025H254.732V60.363H246.493V68.6025Z" fill="#DDF8FF"/>
<path d="M90.5859 68.5853V60.3457H82.3464V68.5853H90.5859Z" fill="#DDF8FF"/>
<path d="M98.8428 68.5853V60.3457H90.6032V68.5853H98.8428Z" fill="#DDF8FF"/>
<path d="M107.098 68.6029V60.3633H98.8581V68.6029H107.098Z" fill="#DDF8FF"/>
<path d="M115.355 68.5853V60.3457H107.116V68.5853H115.355Z" fill="#DDF8FF"/>
<path d="M123.594 68.6029V60.3633H115.354V68.6029H123.594Z" fill="#DDF8FF"/>
<path d="M131.851 68.5853V60.3457H123.611V68.5853H131.851Z" fill="#DDF8FF"/>
<path d="M140.09 68.6029V60.3633H131.85V68.6029H140.09Z" fill="#DDF8FF"/>
<path d="M148.346 68.5853V60.3457H140.106V68.5853H148.346Z" fill="#DDF8FF"/>
<path d="M156.586 68.6029V60.3633H148.346V68.6029H156.586Z" fill="#DDF8FF"/>
<path d="M164.842 68.5853V60.3457H156.602V68.5853H164.842Z" fill="#DDF8FF"/>
<path d="M173.099 68.6029V60.3633H164.859V68.6029H173.099Z" fill="#DDF8FF"/>
<path d="M181.338 68.5853V60.3457H173.098V68.5853H181.338Z" fill="#DDF8FF"/>
<path d="M189.595 68.5853V60.3457H181.355V68.5853H189.595Z" fill="#DDF8FF"/>
<path d="M197.834 68.5853V60.3457H189.594V68.5853H197.834Z" fill="#DDF8FF"/>
<path d="M206.089 68.5853V60.3457H197.849V68.5853H206.089Z" fill="#DDF8FF"/>
<path d="M214.33 68.5853V60.3457H206.09V68.5853H214.33Z" fill="#DDF8FF"/>
<path d="M222.585 68.5853V60.3457H214.345V68.5853H222.585Z" fill="#DDF8FF"/>
<path d="M230.063 76.7588H238.303V68.5192H230.063V76.7588Z" fill="#DDF8FF"/>
<path d="M221.822 76.7588H230.062V68.5192H221.822V76.7588Z" fill="#DDF8FF"/>
<path d="M238.268 76.7588H246.508V68.5192H238.268V76.7588Z" fill="#DDF8FF"/>
<path d="M246.493 76.7588H254.732V68.5192H246.493V76.7588Z" fill="#DDF8FF"/>
<path d="M90.5859 76.7415V68.502H82.3463V76.7415H90.5859Z" fill="#DDF8FF"/>
<path d="M98.8428 76.7415V68.502H90.6032V76.7415H98.8428Z" fill="#DDF8FF"/>
<path d="M107.098 76.7591V68.5195H98.8581V76.7591H107.098Z" fill="#DDF8FF"/>
<path d="M115.355 76.7415V68.502H107.116V76.7415H115.355Z" fill="#DDF8FF"/>
<path d="M123.594 76.7591V68.5195H115.354V76.7591H123.594Z" fill="#DDF8FF"/>
<path d="M131.851 76.7415V68.502H123.611V76.7415H131.851Z" fill="#DDF8FF"/>
<path d="M140.09 76.7591V68.5195H131.85V76.7591H140.09Z" fill="#DDF8FF"/>
<path d="M148.346 76.7415V68.502H140.106V76.7415H148.346Z" fill="#DDF8FF"/>
<path d="M156.586 76.7591V68.5195H148.346V76.7591H156.586Z" fill="#DDF8FF"/>
<path d="M164.842 76.7415V68.502H156.602V76.7415H164.842Z" fill="#DDF8FF"/>
<path d="M173.099 76.7415V68.502H164.859V76.7415H173.099Z" fill="#DDF8FF"/>
<path d="M181.338 76.7415V68.502H173.098V76.7415H181.338Z" fill="#DDF8FF"/>
<path d="M189.595 76.7415V68.502H181.355V76.7415H189.595Z" fill="#DDF8FF"/>
<path d="M197.834 76.7415V68.502H189.594V76.7415H197.834Z" fill="#DDF8FF"/>
<path d="M206.089 76.7415V68.502H197.849V76.7415H206.089Z" fill="#DDF8FF"/>
<path d="M214.33 76.7415V68.502H206.09V76.7415H214.33Z" fill="#DDF8FF"/>
<path d="M222.585 76.7415V68.502H214.345V76.7415H222.585Z" fill="#DDF8FF"/>
<path d="M230.063 84.915H238.303V76.6755H230.063V84.915Z" fill="#DDF8FF"/>
<path d="M221.822 84.915H230.062V76.6755H221.822V84.915Z" fill="#DDF8FF"/>
<path d="M238.268 84.915H246.508V76.6755H238.268V84.915Z" fill="#DDF8FF"/>
<path d="M246.493 84.915H254.732V76.6755H246.493V84.915Z" fill="#DDF8FF"/>
<path d="M90.5859 84.8978V76.6582H82.3464V84.8978H90.5859Z" fill="#DDF8FF"/>
<path d="M98.8428 84.8978V76.6582H90.6032V84.8978H98.8428Z" fill="#DDF8FF"/>
<path d="M107.098 84.9164V76.6768H98.8581V84.9164H107.098Z" fill="#DDF8FF"/>
<path d="M115.355 84.8978V76.6582H107.116V84.8978H115.355Z" fill="#DDF8FF"/>
<path d="M123.594 84.9164V76.6768H115.354V84.9164H123.594Z" fill="#DDF8FF"/>
<path d="M131.851 84.8978V76.6582H123.611V84.8978H131.851Z" fill="#DDF8FF"/>
<path d="M140.09 84.9164V76.6768H131.85V84.9164H140.09Z" fill="#DDF8FF"/>
<path d="M148.346 84.8978V76.6582H140.106V84.8978H148.346Z" fill="#DDF8FF"/>
<path d="M156.586 84.9164V76.6768H148.346V84.9164H156.586Z" fill="#DDF8FF"/>
<path d="M164.842 84.8978V76.6582H156.602V84.8978H164.842Z" fill="#DDF8FF"/>
<path d="M173.099 84.8978V76.6582H164.859V84.8978H173.099Z" fill="#DDF8FF"/>
<path d="M181.338 84.8978V76.6582H173.098V84.8978H181.338Z" fill="#DDF8FF"/>
<path d="M189.595 84.8978V76.6582H181.355V84.8978H189.595Z" fill="#DDF8FF"/>
<path d="M197.834 84.8978V76.6582H189.594V84.8978H197.834Z" fill="#DDF8FF"/>
<path d="M206.089 84.8978V76.6582H197.849V84.8978H206.089Z" fill="#DDF8FF"/>
<path d="M214.33 84.8978V76.6582H206.09V84.8978H214.33Z" fill="#DDF8FF"/>
<path d="M222.585 84.8978V76.6582H214.345V84.8978H222.585Z" fill="#DDF8FF"/>
<path d="M230.063 93.0723H238.303V84.8327H230.063V93.0723Z" fill="#DDF8FF"/>
<path d="M221.822 93.0723H230.062V84.8327H221.822V93.0723Z" fill="#DDF8FF"/>
<path d="M238.268 93.0723H246.508V84.8327H238.268V93.0723Z" fill="#DDF8FF"/>
<path d="M246.493 93.0723H254.732V84.8327H246.493V93.0723Z" fill="#DDF8FF"/>
<path d="M90.5859 93.056V84.8164H82.3463V93.056H90.5859Z" fill="#DDF8FF"/>
<path d="M98.8428 93.056V84.8164H90.6032V93.056H98.8428Z" fill="#DDF8FF"/>
<path d="M107.098 93.0726V84.833H98.8581V93.0726H107.098Z" fill="#DDF8FF"/>
<path d="M115.355 93.056V84.8164H107.116V93.056H115.355Z" fill="#DDF8FF"/>
<path d="M123.594 93.0726V84.833H115.354V93.0726H123.594Z" fill="#DDF8FF"/>
<path d="M131.851 93.056V84.8164H123.611V93.056H131.851Z" fill="#DDF8FF"/>
<path d="M140.09 93.0726V84.833H131.85V93.0726H140.09Z" fill="#DDF8FF"/>
<path d="M148.346 93.056V84.8164H140.106V93.056H148.346Z" fill="#DDF8FF"/>
<path d="M156.586 93.0726V84.833H148.346V93.0726H156.586Z" fill="#DDF8FF"/>
<path d="M164.842 93.056V84.8164H156.602V93.056H164.842Z" fill="#DDF8FF"/>
<path d="M173.099 93.056V84.8164H164.859V93.056H173.099Z" fill="#DDF8FF"/>
<path d="M181.338 93.056V84.8164H173.098V93.056H181.338Z" fill="#DDF8FF"/>
<path d="M189.595 93.056V84.8164H181.355V93.056H189.595Z" fill="#DDF8FF"/>
<path d="M197.834 93.056V84.8164H189.594V93.056H197.834Z" fill="#DDF8FF"/>
<path d="M206.089 93.056V84.8164H197.849V93.056H206.089Z" fill="#DDF8FF"/>
<path d="M214.33 93.056V84.8164H206.09V93.056H214.33Z" fill="#DDF8FF"/>
<path d="M222.585 93.056V84.8164H214.345V93.056H222.585Z" fill="#DDF8FF"/>
<path d="M230.063 101.229H238.303V92.9889H230.063V101.229Z" fill="#DDF8FF"/>
<path d="M221.822 101.229H230.062V92.9889H221.822V101.229Z" fill="#DDF8FF"/>
<path d="M238.268 101.229H246.508V92.9889H238.268V101.229Z" fill="#DDF8FF"/>
<path d="M246.493 101.229H254.732V92.9889H246.493V101.229Z" fill="#DDF8FF"/>
<path d="M90.5859 101.213V92.9736H82.3464V101.213H90.5859Z" fill="#DDF8FF"/>
<path d="M98.8428 101.213V92.9736H90.6032V101.213H98.8428Z" fill="#DDF8FF"/>
<path d="M107.098 101.229V92.9893H98.8581V101.229H107.098Z" fill="#DDF8FF"/>
<path d="M115.355 101.213V92.9736H107.116V101.213H115.355Z" fill="#DDF8FF"/>
<path d="M123.594 101.229V92.9893H115.354V101.229H123.594Z" fill="#DDF8FF"/>
<path d="M131.851 101.213V92.9736H123.611V101.213H131.851Z" fill="#DDF8FF"/>
<path d="M140.09 101.229V92.9893H131.85V101.229H140.09Z" fill="#DDF8FF"/>
<path d="M148.346 101.213V92.9736H140.106V101.213H148.346Z" fill="#DDF8FF"/>
<path d="M156.586 101.229V92.9893H148.346V101.229H156.586Z" fill="#DDF8FF"/>
<path d="M164.842 101.213V92.9736H156.602V101.213H164.842Z" fill="#DDF8FF"/>
<path d="M173.099 101.213V92.9736H164.859V101.213H173.099Z" fill="#DDF8FF"/>
<path d="M181.338 101.213V92.9736H173.098V101.213H181.338Z" fill="#DDF8FF"/>
<path d="M189.595 101.213V92.9736H181.355V101.213H189.595Z" fill="#DDF8FF"/>
<path d="M197.834 101.213V92.9736H189.594V101.213H197.834Z" fill="#DDF8FF"/>
<path d="M206.089 101.213V92.9736H197.849V101.213H206.089Z" fill="#DDF8FF"/>
<path d="M214.33 101.213V92.9736H206.09V101.213H214.33Z" fill="#DDF8FF"/>
<path d="M222.585 101.213V92.9736H214.345V101.213H222.585Z" fill="#DDF8FF"/>
<path d="M230.063 109.385H238.303V101.145H230.063V109.385Z" fill="#DDF8FF"/>
<path d="M221.822 109.385H230.062V101.145H221.822V109.385Z" fill="#DDF8FF"/>
<path d="M238.268 109.385H246.508V101.145H238.268V109.385Z" fill="#DDF8FF"/>
<path d="M246.493 109.385H254.732V101.145H246.493V109.385Z" fill="#DDF8FF"/>
<path d="M90.5859 109.369V101.13H82.3463V109.369H90.5859Z" fill="#DDF8FF"/>
<path d="M98.8428 109.369V101.13H90.6032V109.369H98.8428Z" fill="#DDF8FF"/>
<path d="M107.098 109.385V101.146H98.8581V109.385H107.098Z" fill="#DDF8FF"/>
<path d="M115.355 109.369V101.13H107.116V109.369H115.355Z" fill="#DDF8FF"/>
<path d="M123.594 109.385V101.146H115.354V109.385H123.594Z" fill="#DDF8FF"/>
<path d="M131.851 109.369V101.13H123.611V109.369H131.851Z" fill="#DDF8FF"/>
<path d="M140.09 109.385V101.146H131.85V109.385H140.09Z" fill="#DDF8FF"/>
<path d="M148.346 109.369V101.13H140.106V109.369H148.346Z" fill="#DDF8FF"/>
<path d="M156.586 109.385V101.146H148.346V109.385H156.586Z" fill="#DDF8FF"/>
<path d="M164.842 109.369V101.13H156.602V109.369H164.842Z" fill="#DDF8FF"/>
<path d="M173.082 109.369V101.13H164.842V109.369H173.082Z" fill="#DDF8FF"/>
<path d="M181.338 109.369V101.13H173.098V109.369H181.338Z" fill="#DDF8FF"/>
<path d="M189.595 109.369V101.13H181.355V109.369H189.595Z" fill="#DDF8FF"/>
<path d="M197.834 109.369V101.13H189.594V109.369H197.834Z" fill="#DDF8FF"/>
<path d="M206.089 109.369V101.13H197.849V109.369H206.089Z" fill="#DDF8FF"/>
<path d="M214.33 109.369V101.13H206.09V109.369H214.33Z" fill="#DDF8FF"/>
<path d="M222.585 109.369V101.13H214.345V109.369H222.585Z" fill="#DDF8FF"/>
<path d="M230.063 117.542H238.303V109.302H230.063V117.542Z" fill="#DDF8FF"/>
<path d="M221.822 117.542H230.062V109.302H221.822V117.542Z" fill="#DDF8FF"/>
<path d="M238.268 117.542H246.508V109.302H238.268V117.542Z" fill="#DDF8FF"/>
<path d="M246.493 117.542H254.732V109.302H246.493V117.542Z" fill="#DDF8FF"/>
<path d="M90.5859 117.526V109.286H82.3463V117.526H90.5859Z" fill="#DDF8FF"/>
<path d="M98.8428 117.526V109.286H90.6032V117.526H98.8428Z" fill="#DDF8FF"/>
<path d="M107.098 117.542V109.303H98.8581V117.542H107.098Z" fill="#DDF8FF"/>
<path d="M115.355 117.526V109.286H107.116V117.526H115.355Z" fill="#DDF8FF"/>
<path d="M123.594 117.542V109.303H115.354V117.542H123.594Z" fill="#DDF8FF"/>
<path d="M131.851 117.526V109.286H123.611V117.526H131.851Z" fill="#DDF8FF"/>
<path d="M140.09 117.542V109.303H131.85V117.542H140.09Z" fill="#DDF8FF"/>
<path d="M148.346 117.526V109.286H140.106V117.526H148.346Z" fill="#DDF8FF"/>
<path d="M156.586 117.542V109.303H148.346V117.542H156.586Z" fill="#DDF8FF"/>
<path d="M164.842 117.526V109.286H156.602V117.526H164.842Z" fill="#DDF8FF"/>
<path d="M173.082 117.526V109.286H164.842V117.526H173.082Z" fill="#DDF8FF"/>
<path d="M181.338 117.526V109.286H173.098V117.526H181.338Z" fill="#DDF8FF"/>
<path d="M189.595 117.526V109.286H181.355V117.526H189.595Z" fill="#DDF8FF"/>
<path d="M197.834 117.526V109.286H189.594V117.526H197.834Z" fill="#DDF8FF"/>
<path d="M206.089 117.526V109.286H197.849V117.526H206.089Z" fill="#DDF8FF"/>
<path d="M214.33 117.526V109.286H206.09V117.526H214.33Z" fill="#DDF8FF"/>
<path d="M222.585 117.526V109.286H214.345V117.526H222.585Z" fill="#DDF8FF"/>
<path d="M230.063 125.698H238.303V117.459H230.063V125.698Z" fill="#DDF8FF"/>
<path d="M221.822 125.698H230.062V117.459H221.822V125.698Z" fill="#DDF8FF"/>
<path d="M238.268 125.698H246.508V117.459H238.268V125.698Z" fill="#DDF8FF"/>
<path d="M246.493 125.698H254.732V117.459H246.493V125.698Z" fill="#DDF8FF"/>
<path d="M90.5859 125.683V117.443H82.3463V125.683H90.5859Z" fill="#DDF8FF"/>
<path d="M98.8428 125.683V117.443H90.6032V125.683H98.8428Z" fill="#DDF8FF"/>
<path d="M107.098 125.699V117.459H98.8581V125.699H107.098Z" fill="#DDF8FF"/>
<path d="M115.355 125.683V117.443H107.116V125.683H115.355Z" fill="#DDF8FF"/>
<path d="M123.594 125.699V117.459H115.354V125.699H123.594Z" fill="#DDF8FF"/>
<path d="M131.851 125.683V117.443H123.611V125.683H131.851Z" fill="#DDF8FF"/>
<path d="M140.09 125.699V117.459H131.85V125.699H140.09Z" fill="#DDF8FF"/>
<path d="M148.346 125.683V117.443H140.106V125.683H148.346Z" fill="#DDF8FF"/>
<path d="M156.586 125.699V117.459H148.346V125.699H156.586Z" fill="#DDF8FF"/>
<path d="M164.842 125.683V117.443H156.602V125.683H164.842Z" fill="#DDF8FF"/>
<path d="M173.082 125.683V117.443H164.842V125.683H173.082Z" fill="#DDF8FF"/>
<path d="M181.338 125.683V117.443H173.098V125.683H181.338Z" fill="#DDF8FF"/>
<path d="M189.595 125.683V117.443H181.355V125.683H189.595Z" fill="#DDF8FF"/>
<path d="M197.834 125.683V117.443H189.594V125.683H197.834Z" fill="#DDF8FF"/>
<path d="M206.089 125.683V117.443H197.849V125.683H206.089Z" fill="#DDF8FF"/>
<path d="M214.33 125.683V117.443H206.09V125.683H214.33Z" fill="#DDF8FF"/>
<path d="M222.585 125.683V117.443H214.345V125.683H222.585Z" fill="#DDF8FF"/>
<path d="M230.063 133.854H238.303V125.615H230.063V133.854Z" fill="#DDF8FF"/>
<path d="M221.822 133.854H230.062V125.615H221.822V133.854Z" fill="#DDF8FF"/>
<path d="M238.268 133.854H246.508V125.615H238.268V133.854Z" fill="#DDF8FF"/>
<path d="M246.493 133.854H254.732V125.615H246.493V133.854Z" fill="#DDF8FF"/>
<path d="M90.5859 133.839V125.6H82.3463V133.839H90.5859Z" fill="#DDF8FF"/>
<path d="M98.8428 133.839V125.6H90.6032V133.839H98.8428Z" fill="#DDF8FF"/>
<path d="M107.098 133.855V125.615H98.8581V133.855H107.098Z" fill="#DDF8FF"/>
<path d="M115.355 133.839V125.6H107.116V133.839H115.355Z" fill="#DDF8FF"/>
<path d="M123.594 133.855V125.615H115.354V133.855H123.594Z" fill="#DDF8FF"/>
<path d="M131.851 133.839V125.6H123.611V133.839H131.851Z" fill="#DDF8FF"/>
<path d="M140.09 133.855V125.615H131.85V133.855H140.09Z" fill="#DDF8FF"/>
<path d="M148.346 133.839V125.6H140.106V133.839H148.346Z" fill="#DDF8FF"/>
<path d="M156.586 133.855V125.615H148.346V133.855H156.586Z" fill="#DDF8FF"/>
<path d="M164.842 133.839V125.6H156.602V133.839H164.842Z" fill="#DDF8FF"/>
<path d="M173.082 133.839V125.6H164.842V133.839H173.082Z" fill="#DDF8FF"/>
<path d="M181.338 133.839V125.6H173.098V133.839H181.338Z" fill="#DDF8FF"/>
<path d="M189.595 133.839V125.6H181.355V133.839H189.595Z" fill="#DDF8FF"/>
<path d="M197.834 133.839V125.6H189.594V133.839H197.834Z" fill="#DDF8FF"/>
<path d="M206.089 133.839V125.6H197.849V133.839H206.089Z" fill="#DDF8FF"/>
<path d="M214.33 133.839V125.6H206.09V133.839H214.33Z" fill="#DDF8FF"/>
<path d="M222.585 133.839V125.6H214.345V133.839H222.585Z" fill="#DDF8FF"/>
<path d="M230.063 142.013H238.303V133.773H230.063V142.013Z" fill="#DDF8FF"/>
<path d="M221.822 142.013H230.062V133.773H221.822V142.013Z" fill="#DDF8FF"/>
<path d="M238.268 142.013H246.508V133.773H238.268V142.013Z" fill="#DDF8FF"/>
<path d="M246.493 142.013H254.732V133.773H246.493V142.013Z" fill="#DDF8FF"/>
<path d="M90.5859 141.995V133.756H82.3463V141.995H90.5859Z" fill="#DDF8FF"/>
<path d="M98.8428 141.995V133.756H90.6032V141.995H98.8428Z" fill="#DDF8FF"/>
<path d="M107.098 142.012V133.772H98.8581V142.012H107.098Z" fill="#DDF8FF"/>
<path d="M115.355 141.995V133.756H107.116V141.995H115.355Z" fill="#DDF8FF"/>
<path d="M123.594 142.012V133.772H115.354V142.012H123.594Z" fill="#DDF8FF"/>
<path d="M131.851 141.995V133.756H123.611V141.995H131.851Z" fill="#DDF8FF"/>
<path d="M140.09 142.012V133.772H131.85V142.012H140.09Z" fill="#DDF8FF"/>
<path d="M148.346 141.995V133.756H140.106V141.995H148.346Z" fill="#DDF8FF"/>
<path d="M156.586 141.995V133.756H148.346V141.995H156.586Z" fill="#DDF8FF"/>
<path d="M164.842 141.995V133.756H156.602V141.995H164.842Z" fill="#DDF8FF"/>
<path d="M173.082 141.995V133.756H164.842V141.995H173.082Z" fill="#DDF8FF"/>
<path d="M181.338 141.995V133.756H173.098V141.995H181.338Z" fill="#DDF8FF"/>
<path d="M189.595 141.995V133.756H181.355V141.995H189.595Z" fill="#DDF8FF"/>
<path d="M197.834 141.995V133.756H189.594V141.995H197.834Z" fill="#DDF8FF"/>
<path d="M206.089 141.995V133.756H197.849V141.995H206.089Z" fill="#DDF8FF"/>
<path d="M214.33 141.995V133.756H206.09V141.995H214.33Z" fill="#DDF8FF"/>
<path d="M222.585 141.995V133.756H214.345V141.995H222.585Z" fill="#DDF8FF"/>
<path d="M230.063 150.17H238.303V141.93H230.063V150.17Z" fill="#DDF8FF"/>
<path d="M221.822 150.17H230.062V141.93H221.822V150.17Z" fill="#DDF8FF"/>
<path d="M238.268 150.17H246.508V141.93H238.268V150.17Z" fill="#DDF8FF"/>
<path d="M98.8428 150.153V141.913H90.6032V150.153H98.8428Z" fill="#DDF8FF"/>
<path d="M107.098 150.168V141.929H98.8581V150.168H107.098Z" fill="#DDF8FF"/>
<path d="M115.355 150.153V141.913H107.116V150.153H115.355Z" fill="#DDF8FF"/>
<path d="M123.594 150.168V141.929H115.354V150.168H123.594Z" fill="#DDF8FF"/>
<path d="M131.851 150.153V141.913H123.611V150.153H131.851Z" fill="#DDF8FF"/>
<path d="M140.09 150.168V141.929H131.85V150.168H140.09Z" fill="#DDF8FF"/>
<path d="M148.346 150.153V141.913H140.106V150.153H148.346Z" fill="#DDF8FF"/>
<path d="M156.586 150.153V141.913H148.346V150.153H156.586Z" fill="#DDF8FF"/>
<path d="M164.842 150.153V141.913H156.602V150.153H164.842Z" fill="#DDF8FF"/>
<path d="M173.082 150.153V141.913H164.842V150.153H173.082Z" fill="#DDF8FF"/>
<path d="M181.338 150.153V141.913H173.098V150.153H181.338Z" fill="#DDF8FF"/>
<path d="M189.595 150.153V141.913H181.355V150.153H189.595Z" fill="#DDF8FF"/>
<path d="M197.834 150.153V141.913H189.594V150.153H197.834Z" fill="#DDF8FF"/>
<path d="M206.089 150.153V141.913H197.849V150.153H206.089Z" fill="#DDF8FF"/>
<path d="M214.33 150.153V141.913H206.09V150.153H214.33Z" fill="#DDF8FF"/>
<path d="M222.585 150.153V141.913H214.345V150.153H222.585Z" fill="#DDF8FF"/>
<path d="M230.063 158.326H238.303V150.087H230.063V158.326Z" fill="#DDF8FF"/>
<path d="M221.822 158.326H230.062V150.087H221.822V158.326Z" fill="#DDF8FF"/>
<path d="M107.098 158.325V150.085H98.8581V158.325H107.098Z" fill="#DDF8FF"/>
<path d="M115.355 158.309V150.069H107.116V158.309H115.355Z" fill="#DDF8FF"/>
<path d="M123.594 158.325V150.085H115.354V158.325H123.594Z" fill="#DDF8FF"/>
<path d="M131.851 158.309V150.069H123.611V158.309H131.851Z" fill="#DDF8FF"/>
<path d="M140.09 158.325V150.085H131.85V158.325H140.09Z" fill="#DDF8FF"/>
<path d="M148.346 158.309V150.069H140.106V158.309H148.346Z" fill="#DDF8FF"/>
<path d="M156.586 158.309V150.069H148.346V158.309H156.586Z" fill="#DDF8FF"/>
<path d="M164.842 158.309V150.069H156.602V158.309H164.842Z" fill="#DDF8FF"/>
<path d="M173.082 158.309V150.069H164.842V158.309H173.082Z" fill="#DDF8FF"/>
<path d="M181.338 158.309V150.069H173.098V158.309H181.338Z" fill="#DDF8FF"/>
<path d="M189.595 158.309V150.069H181.355V158.309H189.595Z" fill="#DDF8FF"/>
<path d="M197.834 158.309V150.069H189.594V158.309H197.834Z" fill="#DDF8FF"/>
<path d="M206.089 158.309V150.069H197.849V158.309H206.089Z" fill="#DDF8FF"/>
<path d="M214.33 158.309V150.069H206.09V158.309H214.33Z" fill="#DDF8FF"/>
<path d="M222.585 158.309V150.069H214.345V158.309H222.585Z" fill="#DDF8FF"/>
<path d="M221.822 166.482H230.062V158.243H221.822V166.482Z" fill="#DDF8FF"/>
<path d="M115.355 166.465V158.226H107.116V166.465H115.355Z" fill="#DDF8FF"/>
<path d="M123.594 166.483V158.243H115.354V166.483H123.594Z" fill="#DDF8FF"/>
<path d="M131.851 166.465V158.226H123.611V166.465H131.851Z" fill="#DDF8FF"/>
<path d="M140.09 166.483V158.243H131.85V166.483H140.09Z" fill="#DDF8FF"/>
<path d="M148.346 166.465V158.226H140.106V166.465H148.346Z" fill="#DDF8FF"/>
<path d="M156.586 166.465V158.226H148.346V166.465H156.586Z" fill="#DDF8FF"/>
<path d="M164.842 166.465V158.226H156.602V166.465H164.842Z" fill="#DDF8FF"/>
<path d="M173.082 166.465V158.226H164.842V166.465H173.082Z" fill="#DDF8FF"/>
<path d="M181.338 166.465V158.226H173.098V166.465H181.338Z" fill="#DDF8FF"/>
<path d="M189.595 166.465V158.226H181.355V166.465H189.595Z" fill="#DDF8FF"/>
<path d="M197.834 166.465V158.226H189.594V166.465H197.834Z" fill="#DDF8FF"/>
<path d="M206.089 166.465V158.226H197.849V166.465H206.089Z" fill="#DDF8FF"/>
<path d="M214.33 166.465V158.226H206.09V166.465H214.33Z" fill="#DDF8FF"/>
<path d="M222.585 166.465V158.226H214.345V166.465H222.585Z" fill="#DDF8FF"/>
<path d="M230.063 165.322H238.303V157.083H230.063V165.322Z" fill="black"/>
<path d="M238.27 157.083H246.51V148.843H238.27V157.083Z" fill="black"/>
<path d="M246.493 148.826H254.732V140.587H246.493V148.826Z" fill="black"/>
<path d="M74.1071 140.57H82.3467V132.331H74.1071V140.57Z" fill="black"/>
<path d="M74.1071 132.313H82.3467V124.074H74.1071V132.313Z" fill="black"/>
<path d="M74.1071 124.042H82.3467V115.802H74.1071V124.042Z" fill="black"/>
<path d="M74.1071 115.769H82.3467V107.529H74.1071V115.769Z" fill="black"/>
<path d="M74.1071 107.512H82.3467V99.2721H74.1071V107.512Z" fill="black"/>
<path d="M74.1071 99.2402H82.3467V91.0006H74.1071V99.2402Z" fill="black"/>
<path d="M74.1071 90.9834H82.3467V82.7438H74.1071V90.9834Z" fill="black"/>
<path d="M74.1071 82.71H82.3467V74.4704H74.1071V82.71Z" fill="black"/>
<path d="M74.1071 74.4385H82.3467V66.1989H74.1071V74.4385Z" fill="black"/>
<path d="M74.1071 66.1816H82.3467V57.942H74.1071V66.1816Z" fill="black"/>
<path d="M74.1071 57.9092H82.3467V49.6696H74.1071V57.9092Z" fill="black"/>
<path d="M82.3467 140.604V148.844H90.5863V140.604H82.3467Z" fill="black"/>
<path d="M90.6035 148.859V157.099H98.8431V148.859H90.6035Z" fill="black"/>
<path d="M98.8428 157.083V165.322H107.082V157.083H98.8428Z" fill="black"/>
<path d="M230.063 24.751H238.303V16.5114H230.063V24.751Z" fill="black"/>
<path d="M221.824 16.4961H230.063V8.2565L221.824 8.2565V16.4961Z" fill="black"/>
<path d="M238.27 32.9922H246.51V24.7526H238.27V32.9922Z" fill="black"/>
<path d="M246.493 41.2471H254.732V33.0075H246.493V41.2471Z" fill="black"/>
<path d="M82.3467 50.0172V41.2471H74.1071V50.0172H82.3467Z" fill="black"/>
<path d="M90.5869 41.2318V32.9922H82.3473V41.2318H90.5869Z" fill="black"/>
<path d="M98.8428 32.9749V24.7354H90.6032V32.9749H98.8428Z" fill="black"/>
<path d="M107.033 24.6527V16.4131H98.7936V24.6527H107.033Z" fill="black"/>
<path d="M115.355 16.4789V8.23926H107.116V16.4789H115.355Z" fill="black"/>
<path d="M123.594 8.23959V0L115.354 0V8.23959H123.594Z" fill="black"/>
<path d="M131.851 8.23958V0L123.611 0V8.23958H131.851Z" fill="black"/>
<path d="M140.09 8.23959V0L131.85 0V8.23959H140.09Z" fill="black"/>
<path d="M148.347 8.23958V0L140.107 0V8.23958H148.347Z" fill="black"/>
<path d="M156.586 8.23959V0L148.346 0V8.23959H156.586Z" fill="black"/>
<path d="M164.843 8.23959V0L156.603 0V8.23959H164.843Z" fill="black"/>
<path d="M173.082 8.23959V0L164.842 0V8.23959H173.082Z" fill="black"/>
<path d="M181.338 8.23959V0L173.098 0V8.23959H181.338Z" fill="black"/>
<path d="M189.578 8.23959V0L181.339 0V8.23959H189.578Z" fill="black"/>
<path d="M197.834 8.23959V0L189.594 0V8.23959H197.834Z" fill="black"/>
<path d="M206.073 8.23959V0L197.834 0V8.23959H206.073Z" fill="black"/>
<path d="M214.33 8.23959V0L206.09 0V8.23959H214.33Z" fill="black"/>
<path d="M222.585 8.23957V0L214.345 0V8.23957H222.585Z" fill="black"/>
<path d="M139.991 165.156H131.702V173.446H139.991V165.156Z" fill="black"/>
<path d="M115.222 140.289H106.933V148.578H115.222V140.289Z" fill="black"/>
<path d="M115.222 98.792H106.933V107.081H115.222V98.792Z" fill="black"/>
<path d="M123.463 98.792H115.174V107.081H123.463V98.792Z" fill="black"/>
<path d="M131.702 98.792H123.413V107.081H131.702V98.792Z" fill="#4C3510"/>
<path d="M139.942 90.4863H131.652V98.7757H139.942V90.4863Z" fill="black"/>
<path d="M148.18 98.792H139.891V107.081H148.18V98.792Z" fill="black"/>
<path d="M156.421 98.792H148.132V107.081H156.421V98.792Z" fill="#4C3510"/>
<path d="M164.66 90.4863H156.371V98.7757H164.66V90.4863Z" fill="black"/>
<path d="M181.14 90.4863H172.851V98.7757H181.14V90.4863Z" fill="black"/>
<path d="M189.379 90.4863H181.09V98.7757H189.379V90.4863Z" fill="black"/>
<path d="M197.618 98.792H189.329V107.081H197.618V98.792Z" fill="black"/>
<path d="M205.858 90.4863H197.568V98.7757H205.858V90.4863Z" fill="black"/>
<path d="M214.098 140.289H205.809V148.578H214.098V140.289Z" fill="black"/>
<path d="M214.098 98.792H205.809V107.081H214.098V98.792Z" fill="black"/>
<path d="M222.337 131.983H214.048V140.273H222.337V131.983Z" fill="black"/>
<path d="M222.337 107.081H214.048V115.37H222.337V107.081Z" fill="black"/>
<path d="M230.576 131.983H222.287V140.273H230.576V131.983Z" fill="black"/>
<path d="M230.576 98.792H222.287V107.081H230.576V98.792Z" fill="black"/>
<path d="M238.818 131.983H230.528V140.273H238.818V131.983Z" fill="black"/>
<path d="M238.818 90.4863H230.528V98.7757H238.818V90.4863Z" fill="black"/>
<path d="M123.463 148.562H115.174V156.851H123.463V148.562Z" fill="black"/>
<path d="M205.858 148.562H197.568V156.851H205.858V148.562Z" fill="black"/>
<path d="M131.702 156.833H123.413V165.122H131.702V156.833Z" fill="black"/>
<path d="M139.942 156.833H131.652V165.122H139.942V156.833Z" fill="black"/>
<path d="M189.379 156.833H181.09V165.122H189.379V156.833Z" fill="black"/>
<path d="M197.618 156.833H189.329V165.122H197.618V156.833Z" fill="black"/>
<path d="M148.18 165.123H139.891V173.412H148.18V165.123Z" fill="black"/>
<path d="M156.421 165.123H148.132V173.412H156.421V165.123Z" fill="black"/>
<path d="M164.66 165.123H156.371V173.412H164.66V165.123Z" fill="black"/>
<path d="M172.9 165.123H164.61V173.412H172.9V165.123Z" fill="black"/>
<path d="M181.14 165.123H172.851V173.412H181.14V165.123Z" fill="black"/>
<path d="M189.379 165.123H181.09V173.412H189.379V165.123Z" fill="#F6F2EC"/>
<path d="M197.618 165.123H189.329V173.412H197.618V165.123Z" fill="#F6F2EC"/>
<path d="M205.858 165.123H197.568V173.412H205.858V165.123Z" fill="black"/>
<path d="M222.536 165.123H214.247V173.412H222.536V165.123Z" fill="black"/>
<path opacity="0.3" d="M140.041 173.38H131.752V181.669H140.041V173.38Z" fill="black"/>
<path d="M131.801 181.669H123.512V189.958H131.801V181.669Z" fill="#DAD6D0"/>
<path opacity="0.3" d="M140.041 181.669H131.752V189.958H140.041V181.669Z" fill="black"/>
<path d="M123.562 189.942H115.272V198.232H123.562V189.942Z" fill="#F6F2EC"/>
<path d="M131.801 189.942H123.512V198.232H131.801V189.942Z" fill="#DAD6D0"/>
<path d="M140.041 189.942H131.752V198.232H140.041V189.942Z" fill="black"/>
<path d="M115.323 198.231H107.033V206.521H115.323V198.231Z" fill="#F6F2EC"/>
<path d="M123.562 181.735H115.272V190.025H123.562V181.735Z" fill="#F6F2EC"/>
<path d="M131.801 173.43H123.512V181.719H131.801V173.43Z" fill="#DAD6D0"/>
<path d="M123.562 173.513H115.272V181.802H123.562V173.513Z" fill="black"/>
<path d="M115.323 181.785H107.033V189.809H115.323V181.785Z" fill="black"/>
<path d="M123.562 198.231H115.272V206.521H123.562V198.231Z" fill="#DAD6D0"/>
<path d="M131.801 198.231H123.512V206.521H131.801V198.231Z" fill="black"/>
<path d="M115.323 206.503H107.033V214.792H115.323V206.503Z" fill="#DAD6D0"/>
<path d="M107.214 198.231H98.9248V206.521H107.214V198.231Z" fill="#F6F2EC"/>
<path d="M107.214 189.942H98.9248V198.232H107.214V189.942Z" fill="black"/>
<path d="M107.214 206.503H98.9248V214.792H107.214V206.503Z" fill="#F6F2EC"/>
<path d="M99.1243 198.231H90.835V206.521H99.1243V198.231Z" fill="black"/>
<path d="M123.562 206.503H115.272V214.792H123.562V206.503Z" fill="black"/>
<path d="M139.942 173.396H131.652V181.685H139.942V173.396Z" fill="black"/>
<path d="M148.18 173.396H139.891V181.685H148.18V173.396Z" fill="#DAD6D0"/>
<path d="M156.421 173.396H148.132V181.685H156.421V173.396Z" fill="#DAD6D0"/>
<path d="M164.66 173.396H156.371V181.685H164.66V173.396Z" fill="#DAD6D0"/>
<path d="M172.9 173.396H164.61V181.685H172.9V173.396Z" fill="#DAD6D0"/>
<path d="M181.14 173.396H172.851V181.685H181.14V173.396Z" fill="#DAD6D0"/>
<path d="M189.379 173.396H181.09V181.685H189.379V173.396Z" fill="#DAD6D0"/>
<path d="M197.618 173.396H189.329V181.685H197.618V173.396Z" fill="#DAD6D0"/>
<path d="M205.858 173.396H197.568V181.685H205.858V173.396Z" fill="black"/>
<path d="M139.942 181.669H131.652V189.958H139.942V181.669Z" fill="black"/>
<path d="M139.908 181.669H131.619V189.958H139.908V181.669Z" fill="black"/>
<path d="M148.18 181.669H139.891V189.958H148.18V181.669Z" fill="#F6F2EC"/>
<path d="M156.421 181.669H148.132V189.958H156.421V181.669Z" fill="#F6F2EC"/>
<path d="M164.66 181.669H156.371V189.958H164.66V181.669Z" fill="#F6F2EC"/>
<path d="M172.9 181.669H164.61V189.958H172.9V181.669Z" fill="#F6F2EC"/>
<path d="M181.14 181.669H172.851V189.958H181.14V181.669Z" fill="#F6F2EC"/>
<path opacity="0.3" d="M189.379 181.669H181.09V189.958H189.379V181.669Z" fill="black"/>
<path d="M197.618 181.669H189.329V189.958H197.618V181.669Z" fill="#F6F2EC"/>
<path d="M205.858 181.669H197.568V189.958H205.858V181.669Z" fill="#DAD6D0"/>
<path opacity="0.3" d="M139.908 189.958H131.619V198.247H139.908V189.958Z" fill="black"/>
<path d="M148.18 189.942H139.891V198.232H148.18V189.942Z" fill="#DAD6D0"/>
<path d="M156.421 189.942H148.132V198.232H156.421V189.942Z" fill="#DAD6D0"/>
<path d="M164.66 189.942H156.371V198.232H164.66V189.942Z" fill="#DAD6D0"/>
<path d="M172.9 189.942H164.61V198.232H172.9V189.942Z" fill="#DAD6D0"/>
<path d="M181.14 189.942H172.851V198.232H181.14V189.942Z" fill="#DAD6D0"/>
<path d="M189.478 181.635H181.188V189.924H189.478V181.635Z" fill="black"/>
<path d="M214.198 181.635H205.908V189.924H214.198V181.635Z" fill="black"/>
<path opacity="0.3" d="M139.908 198.231H131.619V206.521H139.908V198.231Z" fill="black"/>
<path d="M148.18 198.231H139.891V206.521H148.18V198.231Z" fill="#F6F2EC"/>
<path d="M156.421 198.231H148.132V206.521H156.421V198.231Z" fill="#D6122A"/>
<path d="M164.66 198.231H156.371V206.521H164.66V198.231Z" fill="#D6122A"/>
<path d="M172.9 198.231H164.61V206.521H172.9V198.231Z" fill="#D6122A"/>
<path d="M181.14 198.231H172.851V206.521H181.14V198.231Z" fill="#F6F2EC"/>
<path d="M189.478 189.908H181.188V198.198H189.478V189.908Z" fill="black"/>
<path d="M197.719 189.908H189.43V198.198H197.719V189.908Z" fill="#F6F2EC"/>
<path d="M205.958 189.908H197.669V198.198H205.958V189.908Z" fill="#DAD6D0"/>
<path d="M214.198 189.908H205.908V198.198H214.198V189.908Z" fill="black"/>
<path d="M139.908 206.521H131.619V214.81H139.908V206.521Z" fill="#FDEAE0"/>
<path d="M148.18 206.503H139.891V214.792H148.18V206.503Z" fill="#F6F2EC"/>
<path d="M156.421 206.503H148.132V214.792H156.421V206.503Z" fill="#F6F2EC"/>
<path d="M164.66 206.503H156.371V214.792H164.66V206.503Z" fill="#F6F2EC"/>
<path d="M172.9 206.503H164.61V214.792H172.9V206.503Z" fill="#F6F2EC"/>
<path d="M181.14 206.503H172.851V214.792H181.14V206.503Z" fill="black"/>
<path d="M189.478 198.197H181.188V206.487H189.478V198.197Z" fill="black"/>
<path d="M197.719 198.197H189.43V206.487H197.719V198.197Z" fill="#F6F2EC"/>
<path d="M205.958 198.197H197.669V206.487H205.958V198.197Z" fill="#DAD6D0"/>
<path d="M214.198 198.197H205.908V206.487H214.198V198.197Z" fill="black"/>
<path d="M189.478 206.471H181.188V214.76H189.478V206.471Z" fill="#F6F2EC"/>
<path d="M197.719 206.471H189.43V214.76H197.719V206.471Z" fill="#F6F2EC"/>
<path d="M205.958 206.471H197.669V214.76H205.958V206.471Z" fill="#DAD6D0"/>
<path d="M214.198 206.471H205.908V214.76H214.198V206.471Z" fill="black"/>
<path d="M123.463 123.676H115.174V131.965H123.463V123.676Z" fill="#494442"/>
<path d="M123.463 115.387H115.174V123.676H123.463V115.387Z" fill="#494442"/>
<path d="M123.463 107.081H115.174V115.37H123.463V107.081Z" fill="black"/>
<path d="M131.702 123.676H123.413V131.965H131.702V123.676Z" fill="white"/>
<path d="M131.702 115.387H123.413V123.676H131.702V115.387Z" fill="white"/>
<path d="M131.702 107.081H123.413V115.37H131.702V107.081Z" fill="#D2C8C4"/>
<path d="M148.18 131.983H139.891V140.273H148.18V131.983Z" fill="#E1CCC2"/>
<path d="M148.18 123.676H139.891V131.965H148.18V123.676Z" fill="#E1CCC2"/>
<path d="M156.421 131.983H148.132V140.273H156.421V131.983Z" fill="#E1CCC2"/>
<path d="M181.14 123.676H172.851V131.965H181.14V123.676Z" fill="#494442"/>
<path d="M181.14 115.387H172.851V123.676H181.14V115.387Z" fill="#494442"/>
<path d="M181.14 107.081H172.851V115.37H181.14V107.081Z" fill="#494442"/>
<path d="M181.14 98.792H172.851V107.081H181.14V98.792Z" fill="black"/>
<path d="M189.379 123.676H181.09V131.965H189.379V123.676Z" fill="white"/>
<path d="M189.379 115.387H181.09V123.676H189.379V115.387Z" fill="white"/>
<path d="M189.379 107.081H181.09V115.37H189.379V107.081Z" fill="white"/>
<path d="M189.379 98.792H181.09V107.081H189.379V98.792Z" fill="#D2C8C4"/>
<path d="M197.618 115.387H189.329V123.676H197.618V115.387Z" fill="#FDEAE0"/>
<path d="M197.618 107.081H189.329V115.37H197.618V107.081Z" fill="#FDEAE0"/>
<path d="M230.576 115.387H222.287V123.676H230.576V115.387Z" fill="#E1CCC2"/>
<path d="M230.576 107.081H222.287V115.37H230.576V107.081Z" fill="#E1CCC2"/>
<path d="M156.421 148.562H148.132V156.851H156.421V148.562Z" fill="#494442"/>
<path d="M164.66 148.562H156.371V156.851H164.66V148.562Z" fill="#494442"/>
<path d="M115.222 131.983H106.933V140.273H115.222V131.983Z" fill="#FDEAE0"/>
<path d="M115.222 123.676H106.933V131.965H115.222V123.676Z" fill="#FDEAE0"/>
<path d="M115.222 115.387H106.933V123.676H115.222V115.387Z" fill="#FDEAE0"/>
<path d="M115.222 107.081H106.933V115.37H115.222V107.081Z" fill="#EED6CA"/>
<path d="M123.463 140.289H115.174V148.578H123.463V140.289Z" fill="#FDEAE0"/>
<path d="M123.463 131.983H115.174V140.273H123.463V131.983Z" fill="#FDEAE0"/>
<path d="M131.702 140.289H123.413V148.578H131.702V140.289Z" fill="#FDEAE0"/>
<path d="M131.702 131.983H123.413V140.273H131.702V131.983Z" fill="#FDEAE0"/>
<path d="M139.942 140.289H131.652V148.578H139.942V140.289Z" fill="#FDEAE0"/>
<path d="M139.942 131.983H131.652V140.273H139.942V131.983Z" fill="#FDEAE0"/>
<path d="M139.942 123.676H131.652V131.965H139.942V123.676Z" fill="#FDEAE0"/>
<path d="M139.942 115.387H131.652V123.676H139.942V115.387Z" fill="#FDEAE0"/>
<path d="M139.942 107.081H131.652V115.37H139.942V107.081Z" fill="#FDEAE0"/>
<path d="M139.942 98.792H131.652V107.081H139.942V98.792Z" fill="#EED6CA"/>
<path d="M148.18 140.289H139.891V148.578H148.18V140.289Z" fill="#FDEAE0"/>
<path d="M148.18 115.387H139.891V123.676H148.18V115.387Z" fill="#FDEAE0"/>
<path d="M148.18 107.081H139.891V115.37H148.18V107.081Z" fill="#FDEAE0"/>
<path d="M156.421 140.289H148.132V148.578H156.421V140.289Z" fill="#FDEAE0"/>
<path d="M156.421 123.676H148.132V131.965H156.421V123.676Z" fill="#FDEAE0"/>
<path d="M156.421 115.387H148.132V123.676H156.421V115.387Z" fill="#FDEAE0"/>
<path d="M156.421 107.081H148.132V115.37H156.421V107.081Z" fill="#FDEAE0"/>
<path d="M164.66 140.289H156.371V148.578H164.66V140.289Z" fill="#FDEAE0"/>
<path d="M164.66 131.983H156.371V140.273H164.66V131.983Z" fill="#FDEAE0"/>
<path d="M164.66 123.676H156.371V131.965H164.66V123.676Z" fill="#FDEAE0"/>
<path d="M164.66 115.387H156.371V123.676H164.66V115.387Z" fill="#FDEAE0"/>
<path d="M164.66 107.081H156.371V115.37H164.66V107.081Z" fill="#FDEAE0"/>
<path d="M164.66 98.792H156.371V107.081H164.66V98.792Z" fill="#EED6CA"/>
<path d="M172.9 140.289H164.61V148.578H172.9V140.289Z" fill="#FDEAE0"/>
<path d="M172.9 131.983H164.61V140.273H172.9V131.983Z" fill="#FDEAE0"/>
<path d="M172.9 123.676H164.61V131.965H172.9V123.676Z" fill="#FDEAE0"/>
<path d="M172.9 115.387H164.61V123.676H172.9V115.387Z" fill="#FDEAE0"/>
<path d="M172.9 107.081H164.61V115.37H172.9V107.081Z" fill="#FDEAE0"/>
<path d="M172.9 98.792H164.61V107.081H172.9V98.792Z" fill="#FDEAE0"/>
<path d="M181.14 140.289H172.851V148.578H181.14V140.289Z" fill="#FDEAE0"/>
<path d="M181.14 131.983H172.851V140.273H181.14V131.983Z" fill="#FDEAE0"/>
<path d="M189.379 140.289H181.09V148.578H189.379V140.289Z" fill="#FDEAE0"/>
<path d="M189.379 131.983H181.09V140.273H189.379V131.983Z" fill="#FDEAE0"/>
<path d="M197.618 140.289H189.329V148.578H197.618V140.289Z" fill="#FDEAE0"/>
<path d="M197.618 131.983H189.329V140.273H197.618V131.983Z" fill="#FDEAE0"/>
<path d="M197.618 123.676H189.329V131.965H197.618V123.676Z" fill="#FDEAE0"/>
<path d="M205.858 140.289H197.568V148.578H205.858V140.289Z" fill="#EED6CA"/>
<path d="M205.858 131.983H197.568V140.273H205.858V131.983Z" fill="#FDEAE0"/>
<path d="M205.858 123.676H197.568V131.965H205.858V123.676Z" fill="#FDEAE0"/>
<path d="M205.858 115.387H197.568V123.676H205.858V115.387Z" fill="#FDEAE0"/>
<path d="M205.858 107.081H197.568V115.37H205.858V107.081Z" fill="#FDEAE0"/>
<path d="M205.858 98.792H197.568V107.081H205.858V98.792Z" fill="#EED6CA"/>
<path d="M214.098 131.983H205.809V140.273H214.098V131.983Z" fill="#EED6CA"/>
<path d="M214.098 123.676H205.809V131.965H214.098V123.676Z" fill="#FDEAE0"/>
<path d="M214.098 115.387H205.809V123.676H214.098V115.387Z" fill="#FDEAE0"/>
<path d="M214.098 107.081H205.809V115.37H214.098V107.081Z" fill="#FDEAE0"/>
<path d="M222.337 123.676H214.048V131.965H222.337V123.676Z" fill="#FDEAE0"/>
<path d="M222.337 115.387H214.048V123.676H222.337V115.387Z" fill="#FDEAE0"/>
<path d="M230.576 123.676H222.287V131.965H230.576V123.676Z" fill="#FDEAE0"/>
<path d="M238.818 123.676H230.528V131.965H238.818V123.676Z" fill="#FDEAE0"/>
<path d="M238.818 115.387H230.528V123.676H238.818V115.387Z" fill="#FDEAE0"/>
<path d="M238.818 107.081H230.528V115.37H238.818V107.081Z" fill="#FDEAE0"/>
<path d="M238.818 98.792H230.528V107.081H238.818V98.792Z" fill="black"/>
<path d="M131.702 148.562H123.413V156.851H131.702V148.562Z" fill="#FDEAE0"/>
<path d="M139.942 148.562H131.652V156.851H139.942V148.562Z" fill="#FDEAE0"/>
<path d="M148.18 148.562H139.891V156.851H148.18V148.562Z" fill="#FDEAE0"/>
<path d="M172.9 148.562H164.61V156.851H172.9V148.562Z" fill="#FDEAE0"/>
<path d="M181.14 148.562H172.851V156.851H181.14V148.562Z" fill="#FDEAE0"/>
<path d="M189.379 148.562H181.09V156.851H189.379V148.562Z" fill="#EED6CA"/>
<path d="M197.618 148.562H189.329V156.851H197.618V148.562Z" fill="#EED6CA"/>
<path d="M148.18 156.833H139.891V165.122H148.18V156.833Z" fill="#EED6CA"/>
<path d="M156.421 156.833H148.132V165.122H156.421V156.833Z" fill="#EED6CA"/>
<path d="M164.66 156.833H156.371V165.122H164.66V156.833Z" fill="#EED6CA"/>
<path d="M172.9 156.833H164.61V165.122H172.9V156.833Z" fill="#EED6CA"/>
<path d="M181.14 156.833H172.851V165.122H181.14V156.833Z" fill="#EED6CA"/>
<path d="M106.983 123.676H98.6934V131.965H106.983V123.676Z" fill="black"/>
<path d="M106.983 115.387H98.6934V123.676H106.983V115.387Z" fill="black"/>
<path d="M106.983 107.081H98.6934V115.37H106.983V107.081Z" fill="black"/>
<path d="M106.983 98.792H98.6934V107.081H106.983V98.792Z" fill="#4C3510"/>
<path d="M106.983 90.4863H98.6934V98.7757H106.983V90.4863Z" fill="black"/>
<path d="M98.7444 90.4863H90.4551V98.7757H98.7444V90.4863Z" fill="black"/>
<path d="M172.9 90.4863H164.61V98.7757H172.9V90.4863Z" fill="black"/>
<path d="M115.222 90.4863H106.933V98.7757H115.222V90.4863Z" fill="black"/>
<path d="M115.222 32.3945H106.933V40.6839H115.222V32.3945Z" fill="black"/>
<path d="M123.463 90.4863H115.174V98.7757H123.463V90.4863Z" fill="black"/>
<path d="M123.463 24.1055H115.174V32.3948H123.463V24.1055Z" fill="black"/>
<path d="M131.702 90.4863H123.413V98.7757H131.702V90.4863Z" fill="black"/>
<path d="M131.702 15.7998H123.413V24.0891H131.702V15.7998Z" fill="black"/>
<path d="M139.942 15.7998H131.652V24.0891H139.942V15.7998Z" fill="black"/>
<path d="M148.18 90.4863H139.891V98.7757H148.18V90.4863Z" fill="black"/>
<path d="M148.18 15.7998H139.891V24.0891H148.18V15.7998Z" fill="black"/>
<path d="M156.421 90.4863H148.132V98.7757H156.421V90.4863Z" fill="black"/>
<path d="M156.421 15.7998H148.132V24.0891H156.421V15.7998Z" fill="black"/>
<path d="M164.66 15.7998H156.371V24.0891H164.66V15.7998Z" fill="black"/>
<path d="M172.9 15.7998H164.61V24.0891H172.9V15.7998Z" fill="black"/>
<path d="M181.14 15.7998H172.851V24.0891H181.14V15.7998Z" fill="black"/>
<path d="M189.379 15.7998H181.09V24.0891H189.379V15.7998Z" fill="black"/>
<path d="M197.618 90.4863H189.329V98.7757H197.618V90.4863Z" fill="black"/>
<path d="M197.618 15.7998H189.329V24.0891H197.618V15.7998Z" fill="black"/>
<path d="M205.858 15.7998H197.568V24.0891H205.858V15.7998Z" fill="black"/>
<path d="M214.098 90.4863H205.809V98.7757H214.098V90.4863Z" fill="black"/>
<path d="M214.098 15.7998H205.809V24.0891H214.098V15.7998Z" fill="black"/>
<path d="M222.337 98.792H214.048V107.081H222.337V98.792Z" fill="#4C3510"/>
<path d="M222.337 90.4863H214.048V98.7757H222.337V90.4863Z" fill="black"/>
<path d="M222.337 24.1055H214.048V32.3948H222.337V24.1055Z" fill="black"/>
<path d="M230.576 90.4863H222.287V98.7757H230.576V90.4863Z" fill="black"/>
<path d="M230.576 32.3945H222.287V40.6839H230.576V32.3945Z" fill="black"/>
<path d="M238.818 40.7002H230.528V48.9895H238.818V40.7002Z" fill="black"/>
<path d="M172.9 82.1973H164.61V90.4866H172.9V82.1973Z" fill="#DAD6D0"/>
<path d="M238.816 82.1973H230.526V90.4866H238.816V82.1973Z" fill="#DAD6D0"/>
<path d="M115.222 82.1973H106.933V90.4866H115.222V82.1973Z" fill="#DAD6D0"/>
<path d="M115.222 73.8916H106.933V82.1809H115.222V73.8916Z" fill="#F6F2EC"/>
<path d="M115.222 65.6025H106.933V73.8919H115.222V65.6025Z" fill="#F6F2EC"/>
<path d="M115.222 57.2949H106.933V65.5842H115.222V57.2949Z" fill="#F6F2EC"/>
<path d="M115.222 48.9893H106.933V57.2786H115.222V48.9893Z" fill="#F6F2EC"/>
<path d="M115.222 40.7002H106.933V48.9895H115.222V40.7002Z" fill="#F6F2EC"/>
<path d="M123.463 82.1973H115.174V90.4866H123.463V82.1973Z" fill="#DAD6D0"/>
<path d="M123.463 73.8916H115.174V82.1809H123.463V73.8916Z" fill="#4D0A05"/>
<path d="M123.463 65.6025H115.174V73.8919H123.463V65.6025Z" fill="#4D0A05"/>
<path d="M123.463 57.2949H115.174V65.5842H123.463V57.2949Z" fill="#4D0A05"/>
<path d="M123.463 48.9893H115.174V57.2786H123.463V48.9893Z" fill="#F6F2EC"/>
<path d="M123.463 40.7002H115.174V48.9895H123.463V40.7002Z" fill="#F6F2EC"/>
<path d="M123.463 32.3945H115.174V40.6839H123.463V32.3945Z" fill="#F6F2EC"/>
<path d="M131.702 82.1973H123.413V90.4866H131.702V82.1973Z" fill="#DAD6D0"/>
<path d="M131.702 73.8916H123.413V82.1809H131.702V73.8916Z" fill="#F6F2EC"/>
<path d="M131.702 65.6025H123.413V73.8919H131.702V65.6025Z" fill="#F6F2EC"/>
<path d="M131.702 57.2949H123.413V65.5842H131.702V57.2949Z" fill="#F6F2EC"/>
<path d="M131.702 48.9893H123.413V57.2786H131.702V48.9893Z" fill="#F6F2EC"/>
<path d="M131.702 40.7002H123.413V48.9895H131.702V40.7002Z" fill="#F6F2EC"/>
<path d="M131.702 32.3945H123.413V40.6839H131.702V32.3945Z" fill="#F6F2EC"/>
<path d="M131.702 24.1055H123.413V32.3948H131.702V24.1055Z" fill="#F6F2EC"/>
<path d="M139.942 82.1973H131.652V90.4866H139.942V82.1973Z" fill="#DAD6D0"/>
<path d="M139.942 73.8916H131.652V82.1809H139.942V73.8916Z" fill="#4F0B06"/>
<path d="M139.942 65.6025H131.652V73.8919H139.942V65.6025Z" fill="#4F0B06"/>
<path d="M139.942 57.2949H131.652V65.5842H139.942V57.2949Z" fill="#4F0B06"/>
<path d="M139.942 48.9893H131.652V57.2786H139.942V48.9893Z" fill="#F6F2EC"/>
<path d="M139.942 40.7002H131.652V48.9895H139.942V40.7002Z" fill="#F6F2EC"/>
<path d="M139.942 32.3945H131.652V40.6839H139.942V32.3945Z" fill="#F6F2EC"/>
<path d="M139.942 24.1055H131.652V32.3948H139.942V24.1055Z" fill="#F6F2EC"/>
<path d="M148.18 82.1973H139.891V90.4866H148.18V82.1973Z" fill="#DAD6D0"/>
<path d="M148.18 73.8916H139.891V82.1809H148.18V73.8916Z" fill="#F6F2EC"/>
<path d="M148.18 65.6025H139.891V73.8919H148.18V65.6025Z" fill="#F6F2EC"/>
<path d="M148.18 57.2949H139.891V65.5842H148.18V57.2949Z" fill="#F6F2EC"/>
<path d="M148.18 48.9893H139.891V57.2786H148.18V48.9893Z" fill="#F6F2EC"/>
<path d="M148.18 40.7002H139.891V48.9895H148.18V40.7002Z" fill="#F6F2EC"/>
<path d="M148.18 32.3945H139.891V40.6839H148.18V32.3945Z" fill="#F6F2EC"/>
<path d="M148.18 24.1055H139.891V32.3948H148.18V24.1055Z" fill="#F6F2EC"/>
<path d="M156.421 82.1973H148.132V90.4866H156.421V82.1973Z" fill="#DAD6D0"/>
<path d="M156.421 73.8916H148.132V82.1809H156.421V73.8916Z" fill="#C43F35"/>
<path d="M156.421 65.4033H148.132V73.8916H156.421V65.4033Z" fill="#C43F35"/>
<path d="M156.421 57.2949H148.132V65.5842H156.421V57.2949Z" fill="#C43F35"/>
<path d="M156.421 48.9893H148.132V57.2786H156.421V48.9893Z" fill="#F6F2EC"/>
<path d="M156.421 40.7002H148.132V48.9895H156.421V40.7002Z" fill="#F6F2EC"/>
<path d="M156.421 32.3945H148.132V40.6839H156.421V32.3945Z" fill="#F6F2EC"/>
<path d="M156.421 24.1055H148.132V32.3948H156.421V24.1055Z" fill="#F6F2EC"/>
<path d="M164.66 82.1973H156.371V90.4866H164.66V82.1973Z" fill="#DAD6D0"/>
<path d="M164.66 73.8916H156.371V82.1809H164.66V73.8916Z" fill="#F6F2EC"/>
<path d="M164.66 65.6025H156.371V73.8919H164.66V65.6025Z" fill="#F6F2EC"/>
<path d="M164.66 57.2949H156.371V65.5842H164.66V57.2949Z" fill="#F6F2EC"/>
<path d="M164.66 48.9893H156.371V57.2786H164.66V48.9893Z" fill="#F6F2EC"/>
<path d="M164.66 40.7002H156.371V48.9895H164.66V40.7002Z" fill="#F6F2EC"/>
<path d="M164.66 32.3945H156.371V40.6839H164.66V32.3945Z" fill="#F6F2EC"/>
<path d="M164.66 24.1055H156.371V32.3948H164.66V24.1055Z" fill="#F6F2EC"/>
<path d="M172.9 73.8916H164.61V82.1809H172.9V73.8916Z" fill="#E09C3F"/>
<path d="M172.9 65.6025H164.61V73.8919H172.9V65.6025Z" fill="#E09C3F"/>
<path d="M172.9 57.2949H164.61V65.5842H172.9V57.2949Z" fill="#E09C3F"/>
<path d="M172.9 48.9893H164.61V57.2786H172.9V48.9893Z" fill="#F6F2EC"/>
<path d="M172.9 40.7002H164.61V48.9895H172.9V40.7002Z" fill="#F6F2EC"/>
<path d="M172.9 32.3945H164.61V40.6839H172.9V32.3945Z" fill="#F6F2EC"/>
<path d="M172.9 24.1055H164.61V32.3948H172.9V24.1055Z" fill="#F6F2EC"/>
<path d="M181.14 82.1973H172.851V90.4866H181.14V82.1973Z" fill="#DAD6D0"/>
<path d="M181.14 73.8916H172.851V82.1809H181.14V73.8916Z" fill="#F6F2EC"/>
<path d="M181.14 65.6025H172.851V73.8919H181.14V65.6025Z" fill="#F6F2EC"/>
<path d="M181.14 57.2949H172.851V65.5842H181.14V57.2949Z" fill="#F6F2EC"/>
<path d="M181.14 48.9893H172.851V57.2786H181.14V48.9893Z" fill="#F6F2EC"/>
<path d="M181.14 32.3945H172.851V40.6839H181.14V32.3945Z" fill="#F6F2EC"/>
<path d="M189.379 82.1973H181.09V90.4866H189.379V82.1973Z" fill="#DAD6D0"/>
<path d="M189.379 73.8916H181.09V82.1809H189.379V73.8916Z" fill="#9EB649"/>
<path d="M189.379 65.6025H181.09V73.8919H189.379V65.6025Z" fill="#9EB649"/>
<path d="M189.379 57.2949H181.09V65.5842H189.379V57.2949Z" fill="#9EB649"/>
<path d="M189.379 48.9893H181.09V57.2786H189.379V48.9893Z" fill="#F6F2EC"/>
<path d="M189.379 40.7002H181.09V48.9895H189.379V40.7002Z" fill="#F6F2EC"/>
<path d="M181.14 40.7002H172.851V48.9895H181.14V40.7002Z" fill="#F6F2EC"/>
<path d="M189.379 32.3945H181.09V40.6839H189.379V32.3945Z" fill="#F6F2EC"/>
<path d="M189.379 24.1055H181.09V32.3948H189.379V24.1055Z" fill="#F6F2EC"/>
<path d="M181.14 24.1055H172.851V32.3948H181.14V24.1055Z" fill="#F6F2EC"/>
<path d="M197.618 82.1973H189.329V90.4866H197.618V82.1973Z" fill="#DAD6D0"/>
<path d="M197.618 73.8916H189.329V82.1809H197.618V73.8916Z" fill="#F6F2EC"/>
<path d="M197.618 65.6025H189.329V73.8919H197.618V65.6025Z" fill="#F6F2EC"/>
<path d="M197.618 57.2949H189.329V65.5842H197.618V57.2949Z" fill="#F6F2EC"/>
<path d="M197.618 48.9893H189.329V57.2786H197.618V48.9893Z" fill="#F6F2EC"/>
<path d="M197.618 40.7002H189.329V48.9895H197.618V40.7002Z" fill="#F6F2EC"/>
<path d="M197.618 32.3945H189.329V40.6839H197.618V32.3945Z" fill="#F6F2EC"/>
<path d="M197.618 24.1055H189.329V32.3948H197.618V24.1055Z" fill="#F6F2EC"/>
<path d="M205.858 82.1973H197.568V90.4866H205.858V82.1973Z" fill="#DAD6D0"/>
<path d="M205.858 73.8916H197.568V82.1809H205.858V73.8916Z" fill="#62A2DB"/>
<path d="M205.858 65.6025H197.568V73.8919H205.858V65.6025Z" fill="#62A2DB"/>
<path d="M205.858 57.2949H197.568V65.5842H205.858V57.2949Z" fill="#62A2DB"/>
<path d="M205.858 48.9893H197.568V57.2786H205.858V48.9893Z" fill="#F6F2EC"/>
<path d="M205.858 40.7002H197.568V48.9895H205.858V40.7002Z" fill="#F6F2EC"/>
<path d="M205.858 32.3945H197.568V40.6839H205.858V32.3945Z" fill="#F6F2EC"/>
<path d="M205.858 24.1055H197.568V32.3948H205.858V24.1055Z" fill="#F6F2EC"/>
<path d="M214.098 82.1973H205.809V90.4866H214.098V82.1973Z" fill="#DAD6D0"/>
<path d="M214.098 73.8916H205.809V82.1809H214.098V73.8916Z" fill="#F6F2EC"/>
<path d="M214.098 65.6025H205.809V73.8919H214.098V65.6025Z" fill="#F6F2EC"/>
<path d="M214.098 57.2949H205.809V65.5842H214.098V57.2949Z" fill="#F6F2EC"/>
<path d="M214.098 48.9893H205.809V57.2786H214.098V48.9893Z" fill="#F6F2EC"/>
<path d="M214.098 40.7002H205.809V48.9895H214.098V40.7002Z" fill="#F6F2EC"/>
<path d="M214.098 32.3945H205.809V40.6839H214.098V32.3945Z" fill="#F6F2EC"/>
<path d="M214.098 24.1055H205.809V32.3948H214.098V24.1055Z" fill="#F6F2EC"/>
<path d="M222.337 82.1973H214.048V90.4866H222.337V82.1973Z" fill="#DAD6D0"/>
<path d="M222.337 73.8916H214.048V82.1809H222.337V73.8916Z" fill="#F6F2EC"/>
<path d="M222.337 65.6025H214.048V73.8919H222.337V65.6025Z" fill="#F6F2EC"/>
<path d="M222.337 57.2949H214.048V65.5842H222.337V57.2949Z" fill="#F6F2EC"/>
<path d="M222.337 48.9893H214.048V57.2786H222.337V48.9893Z" fill="#F6F2EC"/>
<path d="M222.337 40.7002H214.048V48.9895H222.337V40.7002Z" fill="#F6F2EC"/>
<path d="M222.337 32.3945H214.048V40.6839H222.337V32.3945Z" fill="#F6F2EC"/>
<path d="M230.576 82.1973H222.287V90.4866H230.576V82.1973Z" fill="#DAD6D0"/>
<path d="M230.576 73.8916H222.287V82.1809H230.576V73.8916Z" fill="#F6F2EC"/>
<path d="M230.576 65.6025H222.287V73.8919H230.576V65.6025Z" fill="#F6F2EC"/>
<path d="M230.576 57.2949H222.287V65.5842H230.576V57.2949Z" fill="#F6F2EC"/>
<path d="M230.576 48.9893H222.287V57.2786H230.576V48.9893Z" fill="#F6F2EC"/>
<path d="M230.576 40.7002H222.287V48.9895H230.576V40.7002Z" fill="#F6F2EC"/>
<path d="M238.816 73.8916H230.526V82.1809H238.816V73.8916Z" fill="#DAD6D0"/>
<path d="M238.816 65.6025H230.526V73.8919H238.816V65.6025Z" fill="#DAD6D0"/>
<path d="M238.816 57.2949H230.526V65.5842H238.816V57.2949Z" fill="#DAD6D0"/>
<path d="M238.816 48.9893H230.526V57.2786H238.816V48.9893Z" fill="#DAD6D0"/>
<path d="M106.983 82.1973H98.6934V90.4866H106.983V82.1973Z" fill="#DAD6D0"/>
<path d="M106.983 73.8916H98.6934V82.1809H106.983V73.8916Z" fill="#F6F2EC"/>
<path d="M106.983 65.6025H98.6934V73.8919H106.983V65.6025Z" fill="#F6F2EC"/>
<path d="M106.983 57.2949H98.6934V65.5842H106.983V57.2949Z" fill="#F6F2EC"/>
<path d="M106.983 48.9893H98.6934V57.2786H106.983V48.9893Z" fill="#F6F2EC"/>
<path d="M106.983 40.7002H98.6934V48.9895H106.983V40.7002Z" fill="black"/>
<path d="M98.7444 82.1973H90.4551V90.4866H98.7444V82.1973Z" fill="black"/>
<path d="M98.7444 73.8916H90.4551V82.1809H98.7444V73.8916Z" fill="black"/>
<path d="M98.7444 65.6025H90.4551V73.8919H98.7444V65.6025Z" fill="black"/>
<path d="M98.7444 57.2949H90.4551V65.5842H98.7444V57.2949Z" fill="black"/>
<path d="M98.7444 48.9893H90.4551V57.2786H98.7444V48.9893Z" fill="black"/>
<path d="M247.073 123.676H238.783V131.965H247.073V123.676Z" fill="black"/>
<path d="M247.073 115.387H238.783V123.676H247.073V115.387Z" fill="black"/>
<path d="M247.073 107.081H238.783V115.37H247.073V107.081Z" fill="black"/>
<path d="M247.073 73.8916H238.783V82.1809H247.073V73.8916Z" fill="black"/>
<path d="M247.073 82.1973H238.783V90.4866H247.073V82.1973Z" fill="black"/>
<path d="M247.073 90.4863H238.783V98.7757H247.073V90.4863Z" fill="black"/>
<path d="M247.073 65.6025H238.783V73.8919H247.073V65.6025Z" fill="black"/>
<path d="M247.073 57.2949H238.783V65.5842H247.073V57.2949Z" fill="black"/>
<path d="M247.073 48.9893H238.783V57.2786H247.073V48.9893Z" fill="black"/>
<path d="M189.097 181.57H197.337V173.331H189.097V181.57Z" fill="white"/>
<path d="M180.907 181.57H189.146V173.331H180.907V181.57Z" fill="white"/>
<path d="M172.7 181.57H180.939V173.331H172.7V181.57Z" fill="white"/>
<path d="M164.51 181.57H172.75V173.331H164.51V181.57Z" fill="white"/>
<path d="M148.114 181.57H156.354V173.331H148.114V181.57Z" fill="white"/>
<path d="M139.909 181.57H148.148V173.331H139.909V181.57Z" fill="white"/>
<path d="M156.304 181.57H164.544V173.331H156.304V181.57Z" fill="white"/>
<path d="M131.717 181.57H139.957V173.331H131.717V181.57Z" fill="white"/>
<path d="M189.097 189.81H197.337V181.57H189.097V189.81Z" fill="black"/>
<path opacity="0.3" d="M180.907 189.81H189.146V181.57H180.907V189.81Z" fill="black"/>
<path opacity="0.3" d="M172.7 189.81H180.939V181.57H172.7V189.81Z" fill="black"/>
<path opacity="0.3" d="M164.51 189.81H172.75V181.57H164.51V189.81Z" fill="black"/>
<path opacity="0.3" d="M156.304 189.81H164.544V181.57H156.304V189.81Z" fill="black"/>
<path opacity="0.3" d="M148.114 189.81H156.354V181.57H148.114V189.81Z" fill="black"/>
<path opacity="0.3" d="M139.909 189.81H148.148V181.57H139.909V189.81Z" fill="black"/>
<path opacity="0.3" d="M131.717 189.81H139.957V181.57H131.717V189.81Z" fill="black"/>
<path d="M123.511 189.81H131.751V181.57H123.511V189.81Z" fill="black"/>
<path d="M197.302 181.57H205.542V173.331H197.302V181.57Z" fill="white"/>
<path d="M205.509 181.57H213.749V173.331H205.509V181.57Z" fill="white"/>
<path d="M123.511 181.57H131.751V173.331H123.511V181.57Z" fill="white"/>
<path d="M189.097 173.329H197.337V165.09H189.097V173.329Z" fill="black"/>
<path d="M180.907 173.329H189.146V165.09H180.907V173.329Z" fill="black"/>
<path d="M172.7 173.329H180.939V165.09H172.7V173.329Z" fill="black"/>
<path d="M164.51 173.329H172.75V165.09H164.51V173.329Z" fill="black"/>
<path d="M148.114 173.329H156.354V165.09H148.114V173.329Z" fill="black"/>
<path d="M139.909 173.329H148.148V165.09H139.909V173.329Z" fill="black"/>
<path d="M156.304 173.329H164.544V165.09H156.304V173.329Z" fill="black"/>
<path d="M131.717 173.329H139.957V165.09H131.717V173.329Z" fill="black"/>
<path d="M197.302 173.329H205.542V165.09H197.302V173.329Z" fill="black"/>
<path d="M205.509 173.329H213.749V165.09H205.509V173.329Z" fill="black"/>
<path d="M123.511 173.329H131.751V165.09H123.511V173.329Z" fill="black"/>
<path d="M189.097 189.81H197.337V181.57H189.097V189.81Z" fill="black"/>
<path d="M180.907 189.81H189.146V181.57H180.907V189.81Z" fill="black"/>
<path d="M172.7 189.81H180.939V181.57H172.7V189.81Z" fill="black"/>
<path d="M164.51 189.81H172.75V181.57H164.51V189.81Z" fill="black"/>
<path d="M148.114 189.81H156.354V181.57H148.114V189.81Z" fill="black"/>
<path d="M139.909 189.81H148.148V181.57H139.909V189.81Z" fill="black"/>
<path d="M156.304 189.81H164.544V181.57H156.304V189.81Z" fill="black"/>
<path d="M131.717 189.81H139.957V181.57H131.717V189.81Z" fill="black"/>
<path d="M123.511 189.81H131.751V181.57H123.511V189.81Z" fill="black"/>
<path d="M197.302 189.81H205.542V181.57H197.302V189.81Z" fill="black"/>
<path d="M205.509 189.81H213.749V181.57H205.509V189.81Z" fill="black"/>
<path d="M213.683 181.57H221.923V173.331H213.683V181.57Z" fill="white"/>
<path d="M213.683 173.329H221.923V165.09H213.683V173.329Z" fill="black"/>
<path d="M213.683 189.81H221.923V181.57H213.683V189.81Z" fill="black"/>
<path d="M221.888 181.57H230.128V173.331H221.888V181.57Z" fill="white"/>
<path d="M221.888 173.329H230.128V165.09H221.888V173.329Z" fill="black"/>
<path d="M221.888 189.81H230.128V181.57H221.888V189.81Z" fill="black"/>
<path d="M230.079 181.57H238.318V173.331H230.079V181.57Z" fill="black"/>
<path d="M123.511 189.81H131.751V181.57H123.511V189.81Z" fill="black"/>
<path d="M115.322 181.57H123.562V173.331H115.322V181.57Z" fill="white"/>
<path d="M115.322 173.329H123.562V165.09H115.322V173.329Z" fill="black"/>
<path d="M115.322 189.81H123.562V181.57H115.322V189.81Z" fill="black"/>
<path d="M107.132 181.57H115.371V173.331H107.132V181.57Z" fill="white"/>
<path d="M107.132 173.329H115.371V165.09H107.132V173.329Z" fill="black"/>
<path d="M107.132 189.81H115.371V181.57H107.132V189.81Z" fill="black"/>
<path d="M98.9245 181.57H107.164V173.331H98.9245V181.57Z" fill="black"/>
<path d="M115.323 198.231H107.033V206.521H115.323V198.231Z" fill="#838383"/>
<path d="M107.214 189.942H98.9248V198.232H107.214V189.942Z" fill="#F6F2EC"/>
<path d="M115.323 206.521H107.033V214.81H115.323V206.521Z" fill="#DAD6D0"/>
<path d="M107.233 206.521H98.9434V214.81H107.233V206.521Z" fill="black"/>
<path d="M107.214 198.248H98.9248V206.537H107.214V198.248Z" fill="#DAD6D0"/>
<path d="M98.9251 189.908H90.6357V198.198H98.9251V189.908Z" fill="black"/>
<path d="M115.323 189.942H107.033V198.232H115.323V189.942Z" fill="#838383"/>
<path d="M106.983 131.983H98.6934V140.273H106.983V131.983Z" fill="black"/>
<path d="M205.825 272.9H214.114V264.611H205.825V272.9Z" fill="#1395A7"/>
<path d="M205.825 264.595H214.114V256.305H205.825V264.595Z" fill="#1395A7"/>
<path d="M197.586 272.9H205.875V264.611H197.586V272.9Z" fill="#20ABC6"/>
<path d="M197.586 264.595H205.875V256.305H197.586V264.595Z" fill="#20ABC6"/>
<path d="M189.345 272.9H197.635V264.611H189.345V272.9Z" fill="#20ABC6"/>
<path d="M189.345 264.595H197.635V256.305H189.345V264.595Z" fill="#20ABC6"/>
<path d="M181.106 272.9H189.396V264.611H181.106V272.9Z" fill="#20ABC6"/>
<path d="M181.106 264.595H189.396V256.305H181.106V264.595Z" fill="#20ABC6"/>
<path d="M172.867 272.9H181.156V264.611H172.867V272.9Z" fill="#20ABC6"/>
<path d="M172.867 264.595H181.156V256.305H172.867V264.595Z" fill="#20ABC6"/>
<path d="M164.628 272.9H172.917V264.611H164.628V272.9Z" fill="#20ABC6"/>
<path d="M164.628 264.595H172.917V256.305H164.628V264.595Z" fill="#20ABC6"/>
<path d="M156.387 272.9H164.677V264.611H156.387V272.9Z" fill="#20ABC6"/>
<path d="M156.387 264.595H164.677V256.305H156.387V264.595Z" fill="#1395A7"/>
<path d="M148.148 272.9H156.438V264.611H148.148V272.9Z" fill="#20ABC6"/>
<path d="M148.148 264.595H156.438V256.305H148.148V264.595Z" fill="#1395A7"/>
<path d="M139.909 272.9H148.198V264.611H139.909V272.9Z" fill="#20ABC6"/>
<path d="M139.909 264.595H148.198V256.305H139.909V264.595Z" fill="#1395A7"/>
<path d="M131.652 272.9H139.941V264.611H131.652V272.9Z" fill="#20ABC6"/>
<path d="M131.652 264.595H139.941V256.305H131.652V264.595Z" fill="#1395A7"/>
<path d="M123.413 272.9H131.702V264.611H123.413V272.9Z" fill="#60D2E1"/>
<path d="M123.413 264.595H131.702V256.305H123.413V264.595Z" fill="#1395A7"/>
<path d="M115.174 272.9H123.463V264.611H115.174V272.9Z" fill="#20ABC6"/>
<path d="M115.174 264.595H123.463V256.305H115.174V264.595Z" fill="#20ABC6"/>
<path d="M106.933 272.9H115.223V264.611H106.933V272.9Z" fill="#20ABC6"/>
<path d="M106.933 264.595H115.223V256.305H106.933V264.595Z" fill="#20ABC6"/>
<path d="M98.6941 272.9H106.983V264.611H98.6941V272.9Z" fill="#60D2E1"/>
<path d="M98.6941 264.595H106.983V256.305H98.6941V264.595Z" fill="#20ABC6"/>
<path d="M90.4548 272.9H98.7441V264.611H90.4548V272.9Z" fill="#60D2E1"/>
<path d="M90.4548 264.595H98.7441V256.305H90.4548V264.595Z" fill="#20ABC6"/>
<path d="M82.2156 272.9H90.5049V264.611H82.2156V272.9Z" fill="#60D2E1"/>
<path d="M82.2156 264.595H90.5049V256.305H82.2156V264.595Z" fill="#20ABC6"/>
<path d="M214.064 272.9H222.354V264.611H214.064V272.9Z" fill="#20ABC6"/>
<path d="M214.064 264.595H222.354V256.305H214.064V264.595Z" fill="#20ABC6"/>
<path d="M222.305 272.9H230.595V264.611H222.305V272.9Z" fill="#20ABC6"/>
<path d="M230.577 272.9H238.866V264.611H230.577V272.9Z" fill="black"/>
<path d="M222.305 264.595H230.595V256.305H222.305V264.595Z" fill="#20ABC6"/>
<path d="M73.9909 272.9H82.2803V264.611H73.9909V272.9Z" fill="#20ABC6"/>
<path d="M73.9909 264.595H82.2803V256.305H73.9909V264.595Z" fill="#20ABC6"/>
<path d="M205.825 289.513H214.114V281.223H205.825V289.513Z" fill="#20ABC6"/>
<path d="M205.825 281.224H214.114V272.934H205.825V281.224Z" fill="#1395A7"/>
<path d="M197.586 289.513H205.875V281.223H197.586V289.513Z" fill="#20ABC6"/>
<path d="M197.586 281.224H205.875V272.934H197.586V281.224Z" fill="#1395A7"/>
<path d="M189.345 289.513H197.635V281.223H189.345V289.513Z" fill="#20ABC6"/>
<path d="M189.345 281.224H197.635V272.934H189.345V281.224Z" fill="#1395A7"/>
<path d="M181.106 289.513H189.396V281.223H181.106V289.513Z" fill="#20ABC6"/>
<path d="M181.106 281.224H189.396V272.934H181.106V281.224Z" fill="#1395A7"/>
<path d="M172.867 289.513H181.156V281.223H172.867V289.513Z" fill="#20ABC6"/>
<path d="M172.867 281.224H181.156V272.934H172.867V281.224Z" fill="#1395A7"/>
<path d="M164.628 289.513H172.917V281.223H164.628V289.513Z" fill="#20ABC6"/>
<path d="M164.628 281.224H172.917V272.934H164.628V281.224Z" fill="#20ABC6"/>
<path d="M156.387 289.513H164.677V281.223H156.387V289.513Z" fill="#20ABC6"/>
<path d="M156.387 281.224H164.677V272.934H156.387V281.224Z" fill="#20ABC6"/>
<path d="M148.148 289.513H156.438V281.223H148.148V289.513Z" fill="#20ABC6"/>
<path d="M148.148 281.224H156.438V272.934H148.148V281.224Z" fill="#20ABC6"/>
<path d="M139.909 289.513H148.198V281.223H139.909V289.513Z" fill="#20ABC6"/>
<path d="M139.909 281.224H148.198V272.934H139.909V281.224Z" fill="#20ABC6"/>
<path d="M131.652 289.513H139.941V281.223H131.652V289.513Z" fill="#20ABC6"/>
<path d="M131.652 281.224H139.941V272.934H131.652V281.224Z" fill="#20ABC6"/>
<path d="M123.413 289.513H131.702V281.223H123.413V289.513Z" fill="#20ABC6"/>
<path d="M123.413 281.224H131.702V272.934H123.413V281.224Z" fill="#20ABC6"/>
<path d="M115.174 289.513H123.463V281.223H115.174V289.513Z" fill="#20ABC6"/>
<path d="M115.174 281.224H123.463V272.934H115.174V281.224Z" fill="#20ABC6"/>
<path d="M106.933 289.513H115.223V281.223H106.933V289.513Z" fill="#20ABC6"/>
<path d="M106.933 281.224H115.223V272.934H106.933V281.224Z" fill="#20ABC6"/>
<path d="M98.6941 289.513H106.983V281.223H98.6941V289.513Z" fill="#20ABC6"/>
<path d="M98.6941 281.224H106.983V272.934H98.6941V281.224Z" fill="#20ABC6"/>
<path d="M90.4548 289.513H98.7441V281.223H90.4548V289.513Z" fill="#20ABC6"/>
<path d="M90.4548 281.224H98.7441V272.934H90.4548V281.224Z" fill="#20ABC6"/>
<path d="M82.2156 289.513H90.5049V281.223H82.2156V289.513Z" fill="#20ABC6"/>
<path d="M82.2156 281.224H90.5049V272.934H82.2156V281.224Z" fill="#20ABC6"/>
<path d="M214.064 289.513H222.354V281.223H214.064V289.513Z" fill="#20ABC6"/>
<path d="M214.064 281.224H222.354V272.934H214.064V281.224Z" fill="#20ABC6"/>
<path d="M222.305 289.513H230.595V281.223H222.305V289.513Z" fill="#20ABC6"/>
<path d="M222.305 281.224H230.595V272.934H222.305V281.224Z" fill="#20ABC6"/>
<path d="M238.866 272.9H247.155V264.611H238.866V272.9Z" fill="#DAD6D0"/>
<path d="M230.594 264.595H238.884V256.305H230.594V264.595Z" fill="black"/>
<path d="M205.825 256.306H214.114V248.016H205.825V256.306Z" fill="#1395A7"/>
<path d="M197.586 256.306H205.875V248.016H197.586V256.306Z" fill="#20ABC6"/>
<path d="M189.345 256.306H197.635V248.016H189.345V256.306Z" fill="#20ABC6"/>
<path d="M123.413 256.306H131.702V248.016H123.413V256.306Z" fill="black"/>
<path d="M115.174 256.306H123.463V248.016H115.174V256.306Z" fill="black"/>
<path d="M106.933 256.306H115.223V248.016H106.933V256.306Z" fill="black"/>
<path d="M98.6941 256.306H106.983V248.016H98.6941V256.306Z" fill="black"/>
<path d="M90.4548 256.306H98.7441V248.016H90.4548V256.306Z" fill="black"/>
<path d="M82.2156 256.306H90.5049V248.016H82.2156V256.306Z" fill="black"/>
<path d="M214.064 256.306H222.354V248.016H214.064V256.306Z" fill="#20ABC6"/>
<path d="M222.305 256.306H230.595V248.016H222.305V256.306Z" fill="#20ABC6"/>
<path d="M73.9909 256.306H82.2803V248.016H73.9909V256.306Z" fill="black"/>
<path d="M65.7195 256.306H74.0088V248.016H65.7195V256.306Z" fill="black"/>
<path d="M230.594 256.306H238.884V248.016H230.594V256.306Z" fill="black"/>
<path d="M205.825 297.818H214.114V289.529H205.825V297.818Z" fill="#20ABC6"/>
<path d="M197.586 297.818H205.875V289.529H197.586V297.818Z" fill="#20ABC6"/>
<path d="M189.345 297.818H197.635V289.529H189.345V297.818Z" fill="#20ABC6"/>
<path d="M181.106 297.818H189.396V289.529H181.106V297.818Z" fill="#20ABC6"/>
<path d="M172.867 297.818H181.156V289.529H172.867V297.818Z" fill="#20ABC6"/>
<path d="M164.628 297.818H172.917V289.529H164.628V297.818Z" fill="#20ABC6"/>
<path d="M156.387 297.818H164.677V289.529H156.387V297.818Z" fill="#20ABC6"/>
<path d="M148.148 297.818H156.438V289.529H148.148V297.818Z" fill="#20ABC6"/>
<path d="M139.909 297.818H148.198V289.529H139.909V297.818Z" fill="#20ABC6"/>
<path d="M131.652 297.818H139.941V289.529H131.652V297.818Z" fill="#20ABC6"/>
<path d="M123.413 297.818H131.702V289.529H123.413V297.818Z" fill="black"/>
<path d="M123.413 306.107H131.702V297.818H123.413V306.107Z" fill="black"/>
<path d="M115.174 297.818H123.463V289.529H115.174V297.818Z" fill="black"/>
<path d="M106.933 297.818H115.223V289.529H106.933V297.818Z" fill="black"/>
<path d="M98.6941 297.818H106.983V289.529H98.6941V297.818Z" fill="black"/>
<path d="M90.4548 297.818H98.7441V289.529H90.4548V297.818Z" fill="black"/>
<path d="M82.2156 297.818H90.5049V289.529H82.2156V297.818Z" fill="black"/>
<path d="M214.064 297.818H222.354V289.529H214.064V297.818Z" fill="#20ABC6"/>
<path d="M222.305 297.818H230.595V289.529H222.305V297.818Z" fill="#20ABC6"/>
<path d="M73.9909 297.818H82.2803V289.529H73.9909V297.818Z" fill="black"/>
<path d="M65.7195 297.818H74.0088V289.529H65.7195V297.818Z" fill="black"/>
<path d="M230.594 297.818H238.884V289.529H230.594V297.818Z" fill="black"/>
<path d="M205.825 306.107H214.114V297.818H205.825V306.107Z" fill="black"/>
<path d="M197.586 306.107H205.875V297.818H197.586V306.107Z" fill="black"/>
<path d="M189.345 306.107H197.635V297.818H189.345V306.107Z" fill="black"/>
<path d="M181.106 306.107H189.396V297.818H181.106V306.107Z" fill="black"/>
<path d="M172.867 306.107H181.156V297.818H172.867V306.107Z" fill="black"/>
<path d="M164.628 306.107H172.917V297.818H164.628V306.107Z" fill="black"/>
<path d="M156.387 306.107H164.677V297.818H156.387V306.107Z" fill="black"/>
<path d="M148.148 306.107H156.438V297.818H148.148V306.107Z" fill="black"/>
<path d="M139.909 306.107H148.198V297.818H139.909V306.107Z" fill="black"/>
<path d="M131.652 306.107H139.941V297.818H131.652V306.107Z" fill="black"/>
<path d="M214.064 306.107H222.354V297.818H214.064V306.107Z" fill="black"/>
<path d="M222.305 306.107H230.595V297.818H222.305V306.107Z" fill="black"/>
<path d="M230.594 306.107H238.884V297.818H230.594V306.107Z" fill="black"/>
<path d="M230.594 289.513H238.884V281.223H230.594V289.513Z" fill="black"/>
<path d="M230.594 281.224H238.884V272.934H230.594V281.224Z" fill="black"/>
<path d="M238.866 264.595H247.155V256.305H238.866V264.595Z" fill="black"/>
<path d="M238.866 281.224H247.155V272.934H238.866V281.224Z" fill="#DAD6D0"/>
<path d="M238.866 289.513H247.155V281.223H238.866V289.513Z" fill="black"/>
<path d="M247.189 272.9H255.479V264.611H247.189V272.9Z" fill="black"/>
<path d="M247.189 264.595H255.479V256.305H247.189V264.595Z" fill="black"/>
<path d="M247.189 281.224H255.479V272.934H247.189V281.224Z" fill="black"/>
<path d="M247.189 289.513H255.479V281.223H247.189V289.513Z" fill="black"/>
<path d="M73.9909 289.513H82.2803V281.223H73.9909V289.513Z" fill="#20ABC6"/>
<path d="M73.9909 281.224H82.2803V272.934H73.9909V281.224Z" fill="#20ABC6"/>
<path d="M65.7195 272.9H74.0088V264.611H65.7195V272.9Z" fill="#22A9B7"/>
<path d="M65.7195 264.595H74.0088V256.305H65.7195V264.595Z" fill="#22A9B7"/>
<path d="M65.7195 289.513H74.0088V281.223H65.7195V289.513Z" fill="#22A9B7"/>
<path d="M65.7195 281.224H74.0088V272.934H65.7195V281.224Z" fill="#22A9B7"/>
<path d="M57.2976 272.9H65.5869V264.611H57.2976V272.9Z" fill="#22A9B7"/>
<path d="M57.2976 264.595H65.5869V256.305H57.2976V264.595Z" fill="black"/>
<path d="M57.2976 289.513H65.5869V281.223H57.2976V289.513Z" fill="black"/>
<path d="M57.2976 281.224H65.5869V272.934H57.2976V281.224Z" fill="#22A9B7"/>
<path d="M49.0906 272.9H57.3799V264.611H49.0906V272.9Z" fill="black"/>
<path d="M49.0906 281.224H57.3799V272.934H49.0906V281.224Z" fill="black"/>
<path d="M131.752 248.032H123.463V256.322H131.752V248.032Z" fill="black"/>
<path d="M131.752 239.711H123.463V248H131.752V239.711Z" fill="black"/>
<path d="M140.008 248.032H131.719V257.714H140.008V248.032Z" fill="#1395A7"/>
<path d="M148.246 248.032H139.957V257.714H148.246V248.032Z" fill="#1395A7"/>
<path d="M156.488 248.032H148.198V257.714H156.488V248.032Z" fill="#1395A7"/>
<path d="M164.676 248.032H156.387V257.714H164.676V248.032Z" fill="#1395A7"/>
<path d="M172.966 248.032H164.677V256.471H172.966V248.032Z" fill="#20ABC6"/>
<path d="M181.206 248.032H172.917V256.471H181.206V248.032Z" fill="#20ABC6"/>
<path d="M189.446 248.032H181.156V256.471H189.446V248.032Z" fill="#20ABC6"/>
<path d="M205.825 248H214.114V239.711H205.825V248Z" fill="black"/>
<path d="M197.586 248H205.875V239.711H197.586V248Z" fill="black"/>
<path d="M189.345 248H197.635V239.711H189.345V248Z" fill="black"/>
<path d="M181.106 248H189.396V239.711H181.106V248Z" fill="black"/>
<path d="M172.867 248H181.156V239.711H172.867V248Z" fill="black"/>
<path d="M164.628 248H172.917V239.711H164.628V248Z" fill="black"/>
<path d="M156.387 248H164.677V239.711H156.387V248Z" fill="black"/>
<path d="M148.148 248H156.438V239.711H148.148V248Z" fill="black"/>
<path d="M139.909 248H148.198V239.711H139.909V248Z" fill="black"/>
<path d="M131.652 248H139.941V239.711H131.652V248Z" fill="black"/>
<path d="M214.064 248H222.354V239.711H214.064V248Z" fill="black"/>
<path d="M222.305 248H230.595V239.711H222.305V248Z" fill="black"/>
<path d="M230.594 248H238.884V239.711H230.594V248Z" fill="black"/>
<path d="M205.825 239.711H214.114V231.422H205.825V239.711Z" fill="#0D6B6D"/>
<path d="M197.586 239.711H205.875V231.422H197.586V239.711Z" fill="#0D6B6D"/>
<path d="M189.345 239.711H197.635V231.422H189.345V239.711Z" fill="black"/>
<path d="M214.064 239.711H222.354V231.422H214.064V239.711Z" fill="#128089"/>
<path d="M222.305 239.711H230.595V231.422H222.305V239.711Z" fill="#128089"/>
<path d="M230.594 239.711H238.884V231.422H230.594V239.711Z" fill="#128089"/>
<path d="M205.825 231.421H214.114V223.132H205.825V231.421Z" fill="#0D6B6D"/>
<path d="M197.586 231.421H205.875V223.132H197.586V231.421Z" fill="black"/>
<path d="M214.064 231.421H222.354V223.132H214.064V231.421Z" fill="#0D6B6D"/>
<path d="M222.305 231.421H230.595V223.132H222.305V231.421Z" fill="#128089"/>
<path d="M230.594 231.421H238.884V223.132H230.594V231.421Z" fill="#128089"/>
<path d="M238.9 231.421H247.189V223.132H238.9V231.421Z" fill="#128089"/>
<path d="M205.825 223.132H214.114V214.843H205.825V223.132Z" fill="black"/>
<path d="M214.064 223.132H222.354V214.843H214.064V223.132Z" fill="black"/>
<path d="M222.305 223.132H230.595V214.843H222.305V223.132Z" fill="black"/>
<path d="M230.594 223.132H238.884V214.843H230.594V223.132Z" fill="black"/>
<path d="M238.9 223.132H247.189V214.843H238.9V223.132Z" fill="black"/>
<path d="M247.189 223.132H255.479V214.843H247.189V223.132Z" fill="black"/>
<path d="M238.866 239.711H247.155V231.422H238.866V239.711Z" fill="black"/>
<path d="M247.174 231.421H255.463V223.132H247.174V231.421Z" fill="black"/>
<path d="M205.825 313.999H214.114V305.71H205.825V313.999Z" fill="#128089"/>
<path d="M197.586 313.999H205.875V305.71H197.586V313.999Z" fill="#128089"/>
<path d="M189.345 313.999H197.635V305.71H189.345V313.999Z" fill="black"/>
<path d="M214.064 313.999H222.354V305.71H214.064V313.999Z" fill="#128089"/>
<path d="M222.305 313.999H230.595V305.71H222.305V313.999Z" fill="#128089"/>
<path d="M230.594 313.999H238.884V305.71H230.594V313.999Z" fill="#128089"/>
<path d="M205.825 322.306H214.114V314.016H205.825V322.306Z" fill="#128089"/>
<path d="M197.586 322.306H205.875V314.016H197.586V322.306Z" fill="black"/>
<path d="M214.064 322.306H222.354V314.016H214.064V322.306Z" fill="#128089"/>
<path d="M222.305 322.306H230.595V314.016H222.305V322.306Z" fill="#128089"/>
<path d="M230.594 322.306H238.884V314.016H230.594V322.306Z" fill="#128089"/>
<path d="M238.9 322.306H247.189V314.016H238.9V322.306Z" fill="#128089"/>
<path d="M205.825 330.611H214.114V322.322H205.825V330.611Z" fill="black"/>
<path d="M214.064 330.611H222.354V322.322H214.064V330.611Z" fill="black"/>
<path d="M222.305 330.611H230.595V322.322H222.305V330.611Z" fill="black"/>
<path d="M230.594 330.611H238.884V322.322H230.594V330.611Z" fill="black"/>
<path d="M238.9 330.611H247.189V322.322H238.9V330.611Z" fill="black"/>
<path d="M247.189 330.611H255.479V322.322H247.189V330.611Z" fill="black"/>
<path d="M238.866 313.999H247.155V305.71H238.866V313.999Z" fill="black"/>
<path d="M247.174 322.306H255.463V314.016H247.174V322.306Z" fill="black"/>
<path d="M140.008 239.711H131.719V248H140.008V239.711Z" fill="black"/>
<path d="M148.246 239.711H139.957V248H148.246V239.711Z" fill="black"/>
<path d="M156.488 239.711H148.198V248H156.488V239.711Z" fill="black"/>
<path d="M164.727 239.711H156.438V248H164.727V239.711Z" fill="black"/>
<path d="M172.966 239.711H164.677V248H172.966V239.711Z" fill="black"/>
<path d="M181.206 239.711H172.917V248H181.206V239.711Z" fill="black"/>
<path d="M189.446 239.711H181.156V248H189.446V239.711Z" fill="black"/>
<path d="M139.908 189.942H131.619V198.232H139.908V189.942Z" fill="black"/>
<path d="M139.908 198.231H131.619V206.521H139.908V198.231Z" fill="black"/>
<path d="M139.908 206.503H131.619V214.792H139.908V206.503Z" fill="black"/>
<path d="M57.8103 206.471H66.0996V198.181H57.8103V206.471Z" fill="black"/>
<path d="M57.8103 198.182H66.0996V189.892H57.8103V198.182Z" fill="#D6122A"/>
<path d="M49.571 206.471H57.8604V198.181H49.571V206.471Z" fill="black"/>
<path d="M49.571 198.182H57.8604V189.892H49.571V198.182Z" fill="#D6122A"/>
<path d="M41.3327 206.471H49.6221V198.181H41.3327V206.471Z" fill="black"/>
<path d="M41.3327 198.182H49.6221V189.892H41.3327V198.182Z" fill="#D6122A"/>
<path d="M33.0915 206.471H41.3809V198.181H33.0915V206.471Z" fill="#D6122A"/>
<path d="M33.0915 198.182H41.3809V189.892H33.0915V198.182Z" fill="#D6122A"/>
<path d="M24.8523 206.471H33.1416V198.181H24.8523V206.471Z" fill="#D6122A"/>
<path d="M24.8523 198.182H33.1416V189.892H24.8523V198.182Z" fill="#D6122A"/>
<path d="M16.5974 206.471H24.8867V198.181H16.5974V206.471Z" fill="#D6122A"/>
<path d="M16.5974 198.182H24.8867V189.892H16.5974V198.182Z" fill="#D6122A"/>
<path d="M8.35618 206.471H16.6455V198.181H8.35618L8.35618 206.471Z" fill="#D6122A"/>
<path d="M8.35618 198.182H16.6455V189.892H8.35618L8.35618 198.182Z" fill="#D6122A"/>
<path d="M0.116923 206.471H8.40625L8.40625 198.181H0.116923L0.116923 206.471Z" fill="black"/>
<path d="M0.116923 198.182H8.40625L8.40625 189.892H0.116923L0.116923 198.182Z" fill="black"/>
<path d="M66.0495 206.471H74.3389V198.181H66.0495V206.471Z" fill="#D6122A"/>
<path d="M66.0495 198.182H74.3389V189.892H66.0495V198.182Z" fill="#D6122A"/>
<path d="M74.2908 206.471H82.5801V198.181H74.2908V206.471Z" fill="#D6122A"/>
<path d="M82.5632 198.182H90.8525V189.892H82.5632V198.182Z" fill="#D6122A"/>
<path d="M74.2908 198.182H82.5801V189.892H74.2908V198.182Z" fill="#D6122A"/>
<path d="M57.8103 214.794H66.0996V206.505H57.8103V214.794Z" fill="#D6122A"/>
<path d="M49.571 214.794H57.8604V206.505H49.571V214.794Z" fill="#D6122A"/>
<path d="M41.3327 214.794H49.6221V206.505H41.3327V214.794Z" fill="#D6122A"/>
<path d="M33.0915 214.794H41.3809V206.505H33.0915V214.794Z" fill="#D6122A"/>
<path d="M24.8523 214.794H33.1416V206.505H24.8523V214.794Z" fill="#D6122A"/>
<path d="M16.5974 214.794H24.8867V206.505H16.5974V214.794Z" fill="#D6122A"/>
<path d="M8.35618 214.794H16.6455V206.505H8.35618L8.35618 214.794Z" fill="#D6122A"/>
<path d="M0.116923 214.794H8.40625L8.40625 206.505H0.116923L0.116923 214.794Z" fill="black"/>
<path d="M66.0495 214.794H74.3389V206.505H66.0495V214.794Z" fill="#D6122A"/>
<path d="M74.2908 214.794H82.5801V206.505H74.2908V214.794Z" fill="#D6122A"/>
<path d="M90.8689 198.182H99.1582V189.892H90.8689V198.182Z" fill="black"/>
<path d="M82.5632 189.876H90.8525V181.587H82.5632V189.876Z" fill="black"/>
<path d="M57.8103 189.908H66.0996V181.619H57.8103V189.908Z" fill="black"/>
<path d="M49.571 189.908H57.8604V181.619H49.571V189.908Z" fill="black"/>
<path d="M41.3327 189.908H49.6221V181.619H41.3327V189.908Z" fill="black"/>
<path d="M33.0915 189.908H41.3809V181.619H33.0915V189.908Z" fill="black"/>
<path d="M24.8523 189.908H33.1416V181.619H24.8523V189.908Z" fill="black"/>
<path d="M16.5974 189.908H24.8867V181.619H16.5974V189.908Z" fill="black"/>
<path d="M8.35618 189.908H16.6455V181.619H8.35618L8.35618 189.908Z" fill="black"/>
<path d="M0.116923 189.908H8.40625L8.40625 181.619H0.116923L0.116923 189.908Z" fill="black"/>
<path d="M66.0495 189.908H74.3389V181.619H66.0495V189.908Z" fill="black"/>
<path d="M74.2908 189.908H82.5801V181.619H74.2908V189.908Z" fill="black"/>
<path d="M82.5632 189.908H90.8525V181.619H82.5632V189.908Z" fill="black"/>
<path d="M57.8103 223.182H66.0996V214.892H57.8103V223.182Z" fill="black"/>
<path d="M49.571 223.182H57.8604V214.892H49.571V223.182Z" fill="black"/>
<path d="M41.3327 223.182H49.6221V214.892H41.3327V223.182Z" fill="black"/>
<path d="M33.0915 223.182H41.3809V214.892H33.0915V223.182Z" fill="black"/>
<path d="M24.8523 223.182H33.1416V214.892H24.8523V223.182Z" fill="black"/>
<path d="M16.5974 223.182H24.8867V214.892H16.5974V223.182Z" fill="black"/>
<path d="M8.35618 223.182H16.6455V214.892H8.35618L8.35618 223.182Z" fill="black"/>
<path d="M0.116923 223.182H8.40625L8.40625 214.892H0.116923L0.116923 223.182Z" fill="black"/>
<path d="M66.0495 223.182H74.3389V214.892H66.0495V223.182Z" fill="black"/>
<path d="M74.2908 223.182H82.5801V214.892H74.2908V223.182Z" fill="black"/>
<path d="M82.5632 223.182H90.8525V214.892H82.5632V223.182Z" fill="black"/>
<path d="M82.5632 214.877H90.8525V205.609H82.5632V214.877Z" fill="black"/>
<path d="M82.5632 206.505H90.8525V198.216H82.5632V206.505Z" fill="black"/>
<path d="M90.8689 189.876H99.1582V181.587H90.8689V189.876Z" fill="black"/>
<path d="M90.8689 206.505H99.1582V198.216H90.8689V206.505Z" fill="black"/>
<path d="M90.8347 198.182H99.124V189.892H90.8347V198.182Z" fill="#D6122A"/>
<path d="M99.1247 198.182H107.414V189.892H99.1247V198.182Z" fill="#D6122A"/>
<path d="M90.8689 189.876H99.1582V181.587H90.8689V189.876Z" fill="black"/>
<path d="M90.8689 189.908H99.1582V181.619H90.8689V189.908Z" fill="black"/>
<path d="M90.8689 206.505H99.1582V198.216H90.8689V206.505Z" fill="black"/>
<path d="M99.1247 189.876H107.414V181.587H99.1247V189.876Z" fill="black"/>
<path d="M99.1247 206.505H107.414V198.216H99.1247V206.505Z" fill="#606060"/>
<path d="M115.323 214.811H107.033V223.1H115.323V214.811Z" fill="black"/>
<path d="M107.233 214.811H98.9434V223.1H107.233V214.811Z" fill="black"/>
<path d="M172.966 256.19H164.677V264.48H172.966V256.19Z" fill="black"/>
<path d="M181.206 256.19H172.917V264.48H181.206V256.19Z" fill="black"/>
<path d="M189.446 256.19H181.156V264.48H189.446V256.19Z" fill="black"/>
<path d="M115.339 214.811H107.05V223.1H115.339V214.811Z" fill="black"/>
<path d="M107.248 214.811H98.959V223.1H107.248V214.811Z" fill="black"/>
<path d="M148.199 214.826H139.909V223.115H148.199V214.826Z" fill="#FDEAE0"/>
<path d="M156.47 214.811H148.181V223.1H156.47V214.811Z" fill="#F6F2EC"/>
<path d="M172.949 214.811H164.66V223.1H172.949V214.811Z" fill="#DAD6D0"/>
<path d="M181.189 214.811H172.899V223.1H181.189V214.811Z" fill="black"/>
<path d="M189.43 214.811H181.141V223.1H189.43V214.811Z" fill="#F6F2EC"/>
<path d="M148.199 223.1H139.909V231.389H148.199V223.1Z" fill="black"/>
<path d="M148.199 214.811H139.909V223.1H148.199V214.811Z" fill="#F6F2EC"/>
<path d="M148.198 223.1H139.428V231.389H148.198V223.1Z" fill="#F6F2EC"/>
<path d="M164.71 223.1H156.421V231.389H164.71V223.1Z" fill="#76A8AC"/>
<path d="M172.949 223.1H164.66V231.389H172.949V223.1Z" fill="#DAD6D0"/>
<path d="M181.189 223.1H172.899V231.389H181.189V223.1Z" fill="#F6F2EC"/>
<path d="M189.43 223.1H181.141V231.389H189.43V223.1Z" fill="black"/>
<path d="M197.751 214.776H189.462V223.066H197.751V214.776Z" fill="#F6F2EC"/>
<path d="M205.99 214.776H197.701V223.066H205.99V214.776Z" fill="#DAD6D0"/>
<path d="M214.231 214.776H205.941V223.066H214.231V214.776Z" fill="black"/>
<path d="M148.199 231.371H139.909V239.66H148.199V231.371Z" fill="#F6F2EC"/>
<path d="M172.9 231.371H164.61V239.66H172.9V231.371Z" fill="black"/>
<path d="M181.189 231.371H172.899V239.66H181.189V231.371Z" fill="#F6F2EC"/>
<path d="M189.43 231.371H181.141V239.66H189.43V231.371Z" fill="#F6F2EC"/>
<path d="M189.496 223.065H181.207V231.355H189.496V223.065Z" fill="black"/>
<path d="M197.751 223.065H189.462V231.355H197.751V223.065Z" fill="black"/>
<path d="M205.99 223.065H197.701V231.355H205.99V223.065Z" fill="black"/>
<path d="M148.199 239.66H139.909V247.949H148.199V239.66Z" fill="#DAD6D0"/>
<path d="M156.47 239.66H148.181V247.949H156.47V239.66Z" fill="black"/>
<path d="M181.189 239.66H172.899V247.949H181.189V239.66Z" fill="#F6F2EC"/>
<path d="M189.43 239.66H181.141V247.949H189.43V239.66Z" fill="#F6F2EC"/>
<path d="M197.668 231.371H189.379V239.66H197.668V231.371Z" fill="black"/>
<path d="M197.668 239.66H189.379V247.949H197.668V239.66Z" fill="black"/>
<path d="M140.041 214.826H131.752V223.115H140.041V214.826Z" fill="#FDEAE0"/>
<path d="M140.041 223.1H131.752V231.389H140.041V223.1Z" fill="#F6F2EC"/>
<path d="M139.925 214.811H131.636V223.1H139.925V214.811Z" fill="black"/>
<path d="M140.041 231.371H131.752V239.66H140.041V231.371Z" fill="#F6F2EC"/>
<path d="M140.041 239.66H131.752V247.949H140.041V239.66Z" fill="#DAD6D0"/>
<path d="M131.769 231.371H123.479V239.66H131.769V231.371Z" fill="black"/>
<path d="M131.769 239.66H123.479V247.949H131.769V239.66Z" fill="#DAD6D0"/>
<path d="M131.769 223.115H123.479V231.405H131.769V223.115Z" fill="black"/>
<path d="M123.512 239.66H115.223V247.949H123.512V239.66Z" fill="black"/>
<path d="M156.47 247.934H148.181V256.223H156.47V247.934Z" fill="black"/>
<path d="M181.189 247.934H172.899V256.223H181.189V247.934Z" fill="black"/>
<path d="M172.9 239.66H164.61V247.949H172.9V239.66Z" fill="black"/>
<path d="M189.43 247.934H181.141V256.223H189.43V247.934Z" fill="#F6F2EC"/>
<path d="M197.668 247.934H189.379V256.223H197.668V247.934Z" fill="#F6F2EC"/>
<path d="M172.949 256.207H164.66V264.496H172.949V256.207Z" fill="black"/>
<path d="M181.189 256.207H172.899V264.496H181.189V256.207Z" fill="#DAD6D0"/>
<path d="M189.43 256.207H181.141V264.496H189.43V256.207Z" fill="#DAD6D0"/>
<path d="M197.668 256.207H189.379V264.496H197.668V256.207Z" fill="#DAD6D0"/>
<path d="M139.991 247.934H131.702V256.223H139.991V247.934Z" fill="black"/>
<path d="M148.231 247.934H139.941V256.223H148.231V247.934Z" fill="black"/>
<path d="M131.735 247.934H123.445V256.223H131.735V247.934Z" fill="black"/>
<path d="M123.479 247.934H115.189V256.223H123.479V247.934Z" fill="black"/>
<path d="M172.949 264.496H164.66V272.785H172.949V264.496Z" fill="black"/>
<path d="M181.189 264.496H172.899V272.785H181.189V264.496Z" fill="black"/>
<path d="M189.43 264.496H181.141V272.785H189.43V264.496Z" fill="black"/>
<path d="M197.668 264.496H189.379V272.785H197.668V264.496Z" fill="black"/>
<path d="M205.958 247.934H197.669V256.223H205.958V247.934Z" fill="black"/>
<path d="M205.958 256.207H197.669V264.496H205.958V256.207Z" fill="black"/>
<path d="M205.958 264.496H197.669V272.785H205.958V264.496Z" fill="black"/>
<path d="M156.47 223.1H148.181V231.389H156.47V223.1Z" fill="black"/>
<path d="M156.47 231.371H148.181V239.66H156.47V231.371Z" fill="black"/>
<path d="M164.66 214.811H156.371V223.1H164.66V214.811Z" fill="black"/>
<path d="M164.66 223.1H156.371V231.389H164.66V223.1Z" fill="black"/>
</svg>
