<svg width="277" height="380" viewBox="0 0 277 380" fill="none" xmlns="http://www.w3.org/2000/svg">
<path d="M209.569 311.957H218.029V303.496H209.569V311.957Z" fill="#FB7844"/>
<path d="M209.569 303.497H218.029V295.037H209.569V303.497Z" fill="#FB7844"/>
<path d="M201.158 311.957H209.618V303.496H201.158V311.957Z" fill="#FB7844"/>
<path d="M201.158 303.497H209.618V295.037H201.158V303.497Z" fill="#FB7844"/>
<path d="M192.765 311.957H201.226V303.496H192.765V311.957Z" fill="#FB7844"/>
<path d="M192.765 303.497H201.226V295.037H192.765V303.497Z" fill="#FB7844"/>
<path d="M184.356 311.957H192.816V303.496H184.356V311.957Z" fill="#FB7844"/>
<path d="M184.356 303.497H192.816V295.037H184.356V303.497Z" fill="#FB7844"/>
<path d="M175.946 311.957H184.406V303.496H175.946V311.957Z" fill="#FB7844"/>
<path d="M175.946 303.497H184.406V295.037H175.946V303.497Z" fill="#FB7844"/>
<path d="M167.537 311.957H175.997V303.496H167.537V311.957Z" fill="#FB7844"/>
<path d="M167.537 303.497H175.997V295.037H167.537V303.497Z" fill="#FB7844"/>
<path d="M159.125 311.957H167.586V303.496H159.125V311.957Z" fill="white"/>
<path d="M159.125 303.497H167.586V295.037H159.125V303.497Z" fill="#FB7844"/>
<path d="M150.716 311.957H159.177V303.496H150.716V311.957Z" fill="white"/>
<path d="M150.716 303.497H159.177V295.037H150.716V303.497Z" fill="white"/>
<path d="M142.307 311.957H150.768V303.496H142.307V311.957Z" fill="white"/>
<path d="M142.307 303.497H150.768V295.037H142.307V303.497Z" fill="white"/>
<path d="M133.879 311.957H142.34V303.496H133.879V311.957Z" fill="white"/>
<path d="M133.879 303.497H142.34V295.037H133.879V303.497Z" fill="white"/>
<path d="M125.47 311.957H133.931V303.496H125.47V311.957Z" fill="white"/>
<path d="M125.47 303.497H133.931V295.037H125.47V303.497Z" fill="#FB7844"/>
<path d="M117.061 311.957H125.521V303.496H117.061V311.957Z" fill="#FB7844"/>
<path d="M117.061 303.497H125.521V295.037H117.061V303.497Z" fill="#FB7844"/>
<path d="M108.65 311.957H117.11V303.496H108.65V311.957Z" fill="#FB7844"/>
<path d="M108.65 303.497H117.11V295.037H108.65V303.497Z" fill="#FB7844"/>
<path d="M100.241 311.957H108.701V303.496H100.241V311.957Z" fill="#FB7844"/>
<path d="M100.241 303.497H108.701V295.037H100.241V303.497Z" fill="#FB7844"/>
<path d="M91.8315 311.957H100.292V303.496H91.8315V311.957Z" fill="#FB7844"/>
<path d="M91.8315 303.497H100.292V295.037H91.8315V303.497Z" fill="#FB7844"/>
<path d="M83.4223 311.957H91.8828V303.496H83.4223V311.957Z" fill="#FB7844"/>
<path d="M83.4223 303.497H91.8828V295.037H83.4223V303.497Z" fill="#FB7844"/>
<path d="M217.995 311.957H226.455V303.496H217.995V311.957Z" fill="#E96739"/>
<path d="M217.995 303.497H226.455V295.037H217.995V303.497Z" fill="#FB7844"/>
<path d="M226.406 311.957H234.866V303.496H226.406V311.957Z" fill="black"/>
<path d="M226.406 303.497H234.866V295.037H226.406V303.497Z" fill="black"/>
<path d="M75.0111 311.957H83.4717V303.496H75.0111V311.957Z" fill="#FB7844"/>
<path d="M75.0111 303.497H83.4717V295.037H75.0111V303.497Z" fill="#FB7844"/>
<path d="M209.569 328.912H218.029V320.452H209.569V328.912Z" fill="#FB7844"/>
<path d="M209.569 320.435H218.029V311.974H209.569V320.435Z" fill="#FB7844"/>
<path d="M201.158 328.912H209.618V320.452H201.158V328.912Z" fill="#FB7844"/>
<path d="M201.158 320.435H209.618V311.974H201.158V320.435Z" fill="#FB7844"/>
<path d="M192.765 328.912H201.226V320.452H192.765V328.912Z" fill="#FB7844"/>
<path d="M192.765 320.435H201.226V311.974H192.765V320.435Z" fill="#FB7844"/>
<path d="M184.356 328.912H192.816V320.452H184.356V328.912Z" fill="#FB7844"/>
<path d="M184.356 320.435H192.816V311.974H184.356V320.435Z" fill="#FB7844"/>
<path d="M175.946 328.912H184.406V320.452H175.946V328.912Z" fill="#FB7844"/>
<path d="M175.946 320.435H184.406V311.974H175.946V320.435Z" fill="#FB7844"/>
<path d="M167.537 328.912H175.997V320.452H167.537V328.912Z" fill="#FB7844"/>
<path d="M167.537 320.435H175.997V311.974H167.537V320.435Z" fill="#FB7844"/>
<path d="M159.125 328.912H167.586V320.452H159.125V328.912Z" fill="white"/>
<path d="M159.125 320.435H167.586V311.974H159.125V320.435Z" fill="white"/>
<path d="M150.716 328.912H159.177V320.452H150.716V328.912Z" fill="white"/>
<path d="M150.716 320.435H159.177V311.974H150.716V320.435Z" fill="white"/>
<path d="M142.307 328.912H150.768V320.452H142.307V328.912Z" fill="white"/>
<path d="M142.307 320.435H150.768V311.974H142.307V320.435Z" fill="white"/>
<path d="M133.879 328.912H142.34V320.452H133.879V328.912Z" fill="white"/>
<path d="M133.879 320.435H142.34V311.974H133.879V320.435Z" fill="white"/>
<path d="M125.47 328.912H133.931V320.452H125.47V328.912Z" fill="white"/>
<path d="M125.47 320.435H133.931V311.974H125.47V320.435Z" fill="white"/>
<path d="M117.061 328.912H125.521V320.452H117.061V328.912Z" fill="#FB7844"/>
<path d="M117.061 320.435H125.521V311.974H117.061V320.435Z" fill="#FB7844"/>
<path d="M108.65 328.912H117.11V320.452H108.65V328.912Z" fill="#FB7844"/>
<path d="M108.65 320.435H117.11V311.974H108.65V320.435Z" fill="#FB7844"/>
<path d="M100.241 328.912H108.701V320.452H100.241V328.912Z" fill="#FB7844"/>
<path d="M100.241 320.435H108.701V311.974H100.241V320.435Z" fill="#FB7844"/>
<path d="M91.8315 328.912H100.292V320.452H91.8315V328.912Z" fill="#FB7844"/>
<path d="M91.8315 320.435H100.292V311.974H91.8315V320.435Z" fill="#FB7844"/>
<path d="M83.4223 328.912H91.8828V320.452H83.4223V328.912Z" fill="#FB7844"/>
<path d="M83.4223 320.435H91.8828V311.974H83.4223V320.435Z" fill="#FB7844"/>
<path d="M217.995 328.912H226.455V320.452H217.995V328.912Z" fill="#E96739"/>
<path d="M217.995 320.435H226.455V311.974H217.995V320.435Z" fill="#FB7844"/>
<path d="M226.406 328.912H234.866V320.452H226.406V328.912Z" fill="black"/>
<path d="M226.406 320.435H234.866V311.974H226.406V320.435Z" fill="black"/>
<path d="M209.569 295.02H218.029V286.559H209.569V295.02Z" fill="#FB7844"/>
<path d="M201.158 295.02H209.618V286.559H201.158V295.02Z" fill="#FB7844"/>
<path d="M192.765 295.02H201.226V286.559H192.765V295.02Z" fill="#FB7844"/>
<path d="M184.356 295.02H192.816V286.559H184.356V295.02Z" fill="#FB7844"/>
<path d="M175.946 295.02H184.406V286.559H175.946V295.02Z" fill="#FB7844"/>
<path d="M167.537 295.02H175.997V286.559H167.537V295.02Z" fill="#FB7844"/>
<path d="M159.125 295.02H167.586V286.559H159.125V295.02Z" fill="#FB7844"/>
<path d="M150.716 295.02H159.177V286.559H150.716V295.02Z" fill="#FB7844"/>
<path d="M142.307 295.02H150.768V286.559H142.307V295.02Z" fill="#FB7844"/>
<path d="M133.879 295.02H142.34V286.559H133.879V295.02Z" fill="#FB7844"/>
<path d="M125.47 295.02H133.931V286.559H125.47V295.02Z" fill="#FB7844"/>
<path d="M117.061 295.02H125.521V286.559H117.061V295.02Z" fill="#FB7844"/>
<path d="M108.65 295.02H117.11V286.559H108.65V295.02Z" fill="#FB7844"/>
<path d="M100.241 295.02H108.701V286.559H100.241V295.02Z" fill="#FB7844"/>
<path d="M91.8315 295.02H100.292V286.559H91.8315V295.02Z" fill="#FB7844"/>
<path d="M83.4223 295.02H91.8828V286.559H83.4223V295.02Z" fill="#FB7844"/>
<path d="M217.995 295.02H226.455V286.559H217.995V295.02Z" fill="#FB7844"/>
<path d="M226.406 295.02H234.866V286.559H226.406V295.02Z" fill="black"/>
<path d="M75.0111 295.02H83.4717V286.559H75.0111V295.02Z" fill="#FFAC8F"/>
<path d="M66.5668 295.02H75.0273V286.559H66.5668V295.02Z" fill="black"/>
<path d="M209.569 337.39H218.029V328.929H209.569V337.39Z" fill="#FB7844"/>
<path d="M201.158 337.39H209.618V328.929H201.158V337.39Z" fill="#FB7844"/>
<path d="M192.765 337.39H201.226V328.929H192.765V337.39Z" fill="#FB7844"/>
<path d="M184.356 337.39H192.816V328.929H184.356V337.39Z" fill="#FB7844"/>
<path d="M175.946 337.39H184.406V328.929H175.946V337.39Z" fill="#FB7844"/>
<path d="M167.537 337.39H175.997V328.929H167.537V337.39Z" fill="#FB7844"/>
<path d="M159.125 337.39H167.586V328.929H159.125V337.39Z" fill="#FB7844"/>
<path d="M150.716 337.39H159.177V328.929H150.716V337.39Z" fill="white"/>
<path d="M142.307 337.39H150.768V328.929H142.307V337.39Z" fill="white"/>
<path d="M133.879 337.39H142.34V328.929H133.879V337.39Z" fill="white"/>
<path d="M125.47 337.39H133.931V328.929H125.47V337.39Z" fill="#FB7844"/>
<path d="M117.061 337.39H125.521V328.929H117.061V337.39Z" fill="#FB7844"/>
<path d="M108.65 337.39H117.11V328.929H108.65V337.39Z" fill="#FB7844"/>
<path d="M100.241 337.39H108.701V328.929H100.241V337.39Z" fill="#FB7844"/>
<path d="M91.8315 337.39H100.292V328.929H91.8315V337.39Z" fill="#FB7844"/>
<path d="M83.4223 337.39H91.8828V328.929H83.4223V337.39Z" fill="#FB7844"/>
<path d="M217.995 337.39H226.455V328.929H217.995V337.39Z" fill="#E96739"/>
<path d="M226.406 337.39H234.866V328.929H226.406V337.39Z" fill="black"/>
<path d="M75.0111 337.39H83.4717V328.929H75.0111V337.39Z" fill="#FB7844"/>
<path d="M209.569 345.8H218.029V337.339H209.569V345.8Z" fill="#E96739"/>
<path d="M201.158 345.8H209.618V337.339H201.158V345.8Z" fill="#FB7844"/>
<path d="M192.765 345.8H201.226V337.339H192.765V345.8Z" fill="#FB7844"/>
<path d="M184.356 345.8H192.816V337.339H184.356V345.8Z" fill="#FB7844"/>
<path d="M175.946 345.8H184.406V337.339H175.946V345.8Z" fill="#FB7844"/>
<path d="M167.537 345.8H175.997V337.339H167.537V345.8Z" fill="#FB7844"/>
<path d="M159.125 345.8H167.586V337.339H159.125V345.8Z" fill="#FB7844"/>
<path d="M150.716 345.8H159.177V337.339H150.716V345.8Z" fill="#FB7844"/>
<path d="M142.307 345.8H150.768V337.339H142.307V345.8Z" fill="#FB7844"/>
<path d="M133.879 345.8H142.34V337.339H133.879V345.8Z" fill="#FB7844"/>
<path d="M125.47 345.8H133.931V337.339H125.47V345.8Z" fill="#FB7844"/>
<path d="M117.061 345.8H125.521V337.339H117.061V345.8Z" fill="#FB7844"/>
<path d="M108.65 345.8H117.11V337.339H108.65V345.8Z" fill="#FB7844"/>
<path d="M100.241 345.8H108.701V337.339H100.241V345.8Z" fill="#FB7844"/>
<path d="M91.8315 345.8H100.292V337.339H91.8315V345.8Z" fill="#FB7844"/>
<path d="M83.4223 345.8H91.8828V337.339H83.4223V345.8Z" fill="#FB7844"/>
<path d="M217.995 345.8H226.455V337.339H217.995V345.8Z" fill="black"/>
<path d="M75.0111 345.8H83.4717V337.339H75.0111V345.8Z" fill="black"/>
<path d="M209.569 354.227H218.029V345.766H209.569V354.227Z" fill="black"/>
<path d="M201.158 354.227H209.618V345.766H201.158V354.227Z" fill="#E96739"/>
<path d="M192.765 354.227H201.226V345.766H192.765V354.227Z" fill="#FB7844"/>
<path d="M184.356 354.227H192.816V345.766H184.356V354.227Z" fill="#FB7844"/>
<path d="M175.946 354.227H184.406V345.766H175.946V354.227Z" fill="#FB7844"/>
<path d="M167.537 354.227H175.997V345.766H167.537V354.227Z" fill="#FB7844"/>
<path d="M159.125 354.227H167.586V345.766H159.125V354.227Z" fill="#FB7844"/>
<path d="M150.716 354.227H159.177V345.766H150.716V354.227Z" fill="#FB7844"/>
<path d="M142.307 354.227H150.768V345.766H142.307V354.227Z" fill="#FB7844"/>
<path d="M133.879 354.227H142.34V345.766H133.879V354.227Z" fill="#FB7844"/>
<path d="M125.47 354.227H133.931V345.766H125.47V354.227Z" fill="#FB7844"/>
<path d="M117.061 354.227H125.521V345.766H117.061V354.227Z" fill="#FB7844"/>
<path d="M108.65 354.227H117.11V345.766H108.65V354.227Z" fill="#FB7844"/>
<path d="M100.241 354.227H108.701V345.766H100.241V354.227Z" fill="#FB7844"/>
<path d="M91.8315 354.227H100.292V345.766H91.8315V354.227Z" fill="black"/>
<path d="M83.4223 354.227H91.8828V345.766H83.4223V354.227Z" fill="black"/>
<path d="M201.158 362.653H209.618V354.193H201.158V362.653Z" fill="black"/>
<path d="M192.765 362.653H201.226V354.193H192.765V362.653Z" fill="black"/>
<path d="M184.356 362.653H192.816V354.193H184.356V362.653Z" fill="#E96739"/>
<path d="M175.946 362.653H184.406V354.193H175.946V362.653Z" fill="#E96739"/>
<path d="M167.537 362.653H175.997V354.193H167.537V362.653Z" fill="#E96739"/>
<path d="M159.125 362.653H167.586V354.193H159.125V362.653Z" fill="#E96739"/>
<path d="M150.716 362.653H159.177V354.193H150.716V362.653Z" fill="#E96739"/>
<path d="M142.307 362.653H150.768V354.193H142.307V362.653Z" fill="#E96739"/>
<path d="M133.879 362.653H142.34V354.193H133.879V362.653Z" fill="#FB7844"/>
<path d="M125.47 362.653H133.931V354.193H125.47V362.653Z" fill="#FB7844"/>
<path d="M117.061 362.653H125.521V354.193H117.061V362.653Z" fill="#FB7844"/>
<path d="M108.65 362.653H117.11V354.193H108.65V362.653Z" fill="black"/>
<path d="M100.241 362.653H108.701V354.193H100.241V362.653Z" fill="black"/>
<path d="M184.356 371.062H192.816V362.602H184.356V371.062Z" fill="black"/>
<path d="M175.946 371.062H184.406V362.602H175.946V371.062Z" fill="black"/>
<path d="M167.537 371.062H175.997V362.602H167.537V371.062Z" fill="black"/>
<path d="M159.125 371.062H167.586V362.602H159.125V371.062Z" fill="#E96739"/>
<path d="M150.716 371.062H159.177V362.602H150.716V371.062Z" fill="#E96739"/>
<path d="M142.307 371.062H150.768V362.602H142.307V371.062Z" fill="#E96739"/>
<path d="M133.879 371.062H142.34V362.602H133.879V371.062Z" fill="#E96739"/>
<path d="M125.47 371.062H133.931V362.602H125.47V371.062Z" fill="black"/>
<path d="M117.061 371.062H125.521V362.602H117.061V371.062Z" fill="black"/>
<path d="M159.125 379.506H167.586V371.045H159.125V379.506Z" fill="black"/>
<path d="M150.716 379.506H159.177V371.045H150.716V379.506Z" fill="black"/>
<path d="M142.307 379.506H150.768V371.045H142.307V379.506Z" fill="black"/>
<path d="M133.879 379.506H142.34V371.045H133.879V379.506Z" fill="black"/>
<path d="M66.5668 337.39H75.0273V328.929H66.5668V337.39Z" fill="black"/>
<path d="M234.712 311.957H243.173V303.496H234.712V311.957Z" fill="#51BB6B"/>
<path d="M234.712 303.497H243.173V295.037H234.712V303.497Z" fill="#51BB6B"/>
<path d="M234.712 295.02H243.173V286.559H234.712V295.02Z" fill="#51BB6B"/>
<path d="M234.712 320.435H243.173V311.974H234.712V320.435Z" fill="#51BB6B"/>
<path d="M234.712 328.912H243.173V320.452H234.712V328.912Z" fill="#51BB6B"/>
<path d="M243.123 311.957H251.584V303.496H243.123V311.957Z" fill="#51BB6B"/>
<path d="M243.123 303.497H251.584V295.037H243.123V303.497Z" fill="#51BB6B"/>
<path d="M243.123 320.435H251.584V311.974H243.123V320.435Z" fill="#36984B"/>
<path d="M251.448 311.957H259.908V303.496H251.448V311.957Z" fill="#51BB6B"/>
<path d="M234.712 286.559H243.173V278.098H234.712V286.559Z" fill="black"/>
<path d="M243.123 295.02H251.584V286.559H243.123V295.02Z" fill="black"/>
<path d="M251.448 303.497H259.908V295.037H251.448V303.497Z" fill="black"/>
<path d="M251.448 320.435H259.908V311.974H251.448V320.435Z" fill="#36984B"/>
<path d="M259.925 311.957H268.386V303.496H259.925V311.957Z" fill="black"/>
<path d="M259.925 320.435H268.386V311.974H259.925V320.435Z" fill="black"/>
<path d="M243.123 328.912H251.584V320.452H243.123V328.912Z" fill="#36984B"/>
<path d="M234.712 337.39H243.173V328.929H234.712V337.39Z" fill="#36984B"/>
<path d="M251.448 328.912H259.908V320.452H251.448V328.912Z" fill="black"/>
<path d="M243.123 337.39H251.584V328.929H243.123V337.39Z" fill="black"/>
<path d="M234.712 345.85H243.173V337.389H234.712V345.85Z" fill="black"/>
<path d="M75.0111 328.912H83.4717V320.452H75.0111V328.912Z" fill="#FB7844"/>
<path d="M75.0111 320.435H83.4717V311.974H75.0111V320.435Z" fill="#FB7844"/>
<path d="M66.5668 311.957H75.0273V303.496H66.5668V311.957Z" fill="#FB7844"/>
<path d="M66.5668 303.497H75.0273V295.037H66.5668V303.497Z" fill="#FFAC8F"/>
<path d="M66.5668 328.912H75.0273V320.452H66.5668V328.912Z" fill="#FB7844"/>
<path d="M66.5668 320.435H75.0273V311.974H66.5668V320.435Z" fill="#FB7844"/>
<path d="M57.9897 311.957H66.4502V303.496H57.9897V311.957Z" fill="#FB7844"/>
<path d="M57.9897 303.497H66.4502V295.037H57.9897V303.497Z" fill="black"/>
<path d="M57.9897 328.912H66.4502V320.452H57.9897V328.912Z" fill="black"/>
<path d="M57.9897 320.435H66.4502V311.974H57.9897V320.435Z" fill="#FB7844"/>
<path d="M49.6127 311.957H58.0732V303.496H49.6127V311.957Z" fill="black"/>
<path d="M49.6127 320.435H58.0732V311.974H49.6127V320.435Z" fill="black"/>
<path d="M133.982 286.576H125.521V295.037H133.982V286.576Z" fill="#FB7844"/>
<path d="M142.391 286.576H133.931V295.037H142.391V286.576Z" fill="#FB7844"/>
<path d="M150.8 286.576H142.34V295.037H150.8V286.576Z" fill="#FB7844"/>
<path d="M159.211 286.576H150.75V295.037H159.211V286.576Z" fill="#FB7844"/>
<path d="M167.621 286.576H159.16V295.037H167.621V286.576Z" fill="#FB7844"/>
<path d="M176.031 286.576H167.57V295.037H176.031V286.576Z" fill="#FB7844"/>
<path d="M184.44 286.576H175.979V295.037H184.44V286.576Z" fill="#FB7844"/>
<path d="M192.85 286.576H184.39V295.037H192.85V286.576Z" fill="#FB7844"/>
<path d="M209.569 286.609H218.029V278.149H209.569V286.609Z" fill="#E96739"/>
<path d="M201.158 286.609H209.618V278.149H201.158V286.609Z" fill="#E96739"/>
<path d="M192.765 286.609H201.226V278.149H192.765V286.609Z" fill="#E96739"/>
<path d="M184.356 286.609H192.816V278.149H184.356V286.609Z" fill="#FB7844"/>
<path d="M175.946 286.609H184.406V278.149H175.946V286.609Z" fill="#FB7844"/>
<path d="M167.537 286.609H175.997V278.149H167.537V286.609Z" fill="#FB7844"/>
<path d="M159.125 286.609H167.586V278.149H159.125V286.609Z" fill="#FB7844"/>
<path d="M150.716 286.609H159.177V278.149H150.716V286.609Z" fill="#FB7844"/>
<path d="M142.307 286.609H150.768V278.149H142.307V286.609Z" fill="#FB7844"/>
<path d="M133.879 286.609H142.34V278.149H133.879V286.609Z" fill="#FB7844"/>
<path d="M125.47 286.609H133.931V278.149H125.47V286.609Z" fill="#FB7844"/>
<path d="M117.061 286.609H125.521V278.149H117.061V286.609Z" fill="#FB7844"/>
<path d="M108.65 286.609H117.11V278.149H108.65V286.609Z" fill="#FB7844"/>
<path d="M100.241 286.609H108.701V278.149H100.241V286.609Z" fill="#FB7844"/>
<path d="M91.8315 286.609H100.292V278.149H91.8315V286.609Z" fill="#FB7844"/>
<path d="M83.4223 286.609H91.8828V278.149H83.4223V286.609Z" fill="#FFAC8F"/>
<path d="M217.995 286.609H226.455V278.149H217.995V286.609Z" fill="black"/>
<path d="M75.0111 286.609H83.4717V278.149H75.0111V286.609Z" fill="black"/>
<path d="M133.982 278.149H125.521V286.61H133.982V278.149Z" fill="#FB7844"/>
<path d="M142.391 278.149H133.931V286.61H142.391V278.149Z" fill="#FB7844"/>
<path d="M150.8 278.149H142.34V286.61H150.8V278.149Z" fill="#FB7844"/>
<path d="M159.211 278.149H150.75V286.61H159.211V278.149Z" fill="#FB7844"/>
<path d="M167.621 278.149H159.16V286.61H167.621V278.149Z" fill="#FB7844"/>
<path d="M176.031 278.149H167.57V286.61H176.031V278.149Z" fill="#FB7844"/>
<path d="M184.44 278.149H175.979V286.61H184.44V278.149Z" fill="#E96739"/>
<path d="M192.85 278.149H184.39V286.61H192.85V278.149Z" fill="#E96739"/>
<path d="M209.569 278.199H218.029V269.739H209.569V278.199Z" fill="black"/>
<path d="M201.158 278.199H209.618V269.739H201.158V278.199Z" fill="#FB7844"/>
<path d="M192.765 278.199H201.226V269.739H192.765V278.199Z" fill="#FB7844"/>
<path d="M184.356 278.199H192.816V269.739H184.356V278.199Z" fill="#FB7844"/>
<path d="M175.946 278.199H184.406V269.739H175.946V278.199Z" fill="#FB7844"/>
<path d="M167.537 278.199H175.997V269.739H167.537V278.199Z" fill="#FB7844"/>
<path d="M159.125 278.199H167.586V269.739H159.125V278.199Z" fill="#FB7844"/>
<path d="M150.716 278.199H159.177V269.739H150.716V278.199Z" fill="#FB7844"/>
<path d="M142.307 278.199H150.768V269.739H142.307V278.199Z" fill="#FB7844"/>
<path d="M133.879 278.199H142.34V269.739H133.879V278.199Z" fill="#FB7844"/>
<path d="M125.47 278.199H133.931V269.739H125.47V278.199Z" fill="#FB7844"/>
<path d="M117.061 278.199H125.521V269.739H117.061V278.199Z" fill="#FB7844"/>
<path d="M108.65 278.199H117.11V269.739H108.65V278.199Z" fill="#FFAC8F"/>
<path d="M100.241 278.199H108.701V269.739H100.241V278.199Z" fill="#FFAC8F"/>
<path d="M91.8315 278.199H100.292V269.739H91.8315V278.199Z" fill="black"/>
<path d="M83.4223 278.199H91.8828V269.739H83.4223V278.199Z" fill="black"/>
<path d="M133.982 269.739H125.521V278.2H133.982V269.739Z" fill="#FB7844"/>
<path d="M142.391 269.739H133.931V278.2H142.391V269.739Z" fill="#FB7844"/>
<path d="M150.8 269.739H142.34V278.2H150.8V269.739Z" fill="#FB7844"/>
<path d="M159.211 269.739H150.75V278.2H159.211V269.739Z" fill="#FB7844"/>
<path d="M167.621 269.739H159.16V278.2H167.621V269.739Z" fill="#FB7844"/>
<path d="M176.031 269.739H167.57V278.2H176.031V269.739Z" fill="#FB7844"/>
<path d="M184.44 269.739H175.979V278.2H184.44V269.739Z" fill="#FB7844"/>
<path d="M192.85 269.739H184.39V278.2H192.85V269.739Z" fill="#FB7844"/>
<path d="M201.158 269.772H209.618V261.312H201.158V269.772Z" fill="black"/>
<path d="M192.765 269.772H201.226V261.312H192.765V269.772Z" fill="black"/>
<path d="M184.356 269.772H192.816V261.312H184.356V269.772Z" fill="#FB7844"/>
<path d="M175.946 269.772H184.406V261.312H175.946V269.772Z" fill="#FB7844"/>
<path d="M167.537 269.772H175.997V261.312H167.537V269.772Z" fill="#FB7844"/>
<path d="M159.125 269.772H167.586V261.312H159.125V269.772Z" fill="#FB7844"/>
<path d="M150.716 269.772H159.177V261.312H150.716V269.772Z" fill="#FB7844"/>
<path d="M142.307 269.772H150.768V261.312H142.307V269.772Z" fill="#FB7844"/>
<path d="M133.879 269.772H142.34V261.312H133.879V269.772Z" fill="#FB7844"/>
<path d="M125.47 269.772H133.931V261.312H125.47V269.772Z" fill="#FB7844"/>
<path d="M117.061 269.772H125.521V261.312H117.061V269.772Z" fill="#FB7844"/>
<path d="M108.65 269.772H117.11V261.312H108.65V269.772Z" fill="black"/>
<path d="M100.241 269.772H108.701V261.312H100.241V269.772Z" fill="black"/>
<path d="M133.982 261.33H125.521V269.791H133.982V261.33Z" fill="#E96739"/>
<path d="M142.391 261.33H133.931V269.791H142.391V261.33Z" fill="#E96739"/>
<path d="M150.8 261.33H142.34V269.791H150.8V261.33Z" fill="#E96739"/>
<path d="M159.211 261.33H150.75V269.791H159.211V261.33Z" fill="#E96739"/>
<path d="M167.621 261.33H159.16V269.791H167.621V261.33Z" fill="#E96739"/>
<path d="M176.031 261.33H167.57V269.791H176.031V261.33Z" fill="#E96739"/>
<path d="M184.44 261.33H175.979V269.791H184.44V261.33Z" fill="#FB7844"/>
<path d="M192.85 261.33H184.39V269.791H192.85V261.33Z" fill="#FB7844"/>
<path d="M184.356 261.363H192.816V252.903H184.356V261.363Z" fill="black"/>
<path d="M175.946 261.363H184.406V252.903H175.946V261.363Z" fill="black"/>
<path d="M167.537 261.363H175.997V252.903H167.537V261.363Z" fill="black"/>
<path d="M159.125 261.363H167.586V252.903H159.125V261.363Z" fill="#FB7844"/>
<path d="M150.716 261.363H159.177V252.903H150.716V261.363Z" fill="#FB7844"/>
<path d="M142.307 261.363H150.768V252.903H142.307V261.363Z" fill="#FB7844"/>
<path d="M133.879 261.363H142.34V252.903H133.879V261.363Z" fill="#FB7844"/>
<path d="M125.47 261.363H133.931V252.903H125.47V261.363Z" fill="black"/>
<path d="M117.061 261.363H125.521V252.903H117.061V261.363Z" fill="black"/>
<path d="M133.982 252.903H125.521V261.364H133.982V252.903Z" fill="black"/>
<path d="M142.391 252.903H133.931V261.364H142.391V252.903Z" fill="#FB7844"/>
<path d="M150.8 252.903H142.34V261.364H150.8V252.903Z" fill="#FB7844"/>
<path d="M159.211 252.903H150.75V261.364H159.211V252.903Z" fill="#FB7844"/>
<path d="M167.621 252.903H159.16V261.364H167.621V252.903Z" fill="#FB7844"/>
<path d="M176.031 252.903H167.57V261.364H176.031V252.903Z" fill="black"/>
<path d="M184.44 252.903H175.979V261.364H184.44V252.903Z" fill="black"/>
<path d="M192.85 252.903H184.39V261.364H192.85V252.903Z" fill="black"/>
<path d="M159.125 252.953H167.586V244.493H159.125V252.953Z" fill="black"/>
<path d="M150.716 252.953H159.177V244.493H150.716V252.953Z" fill="black"/>
<path d="M142.307 252.953H150.768V244.493H142.307V252.953Z" fill="black"/>
<path d="M133.879 252.953H142.34V244.493H133.879V252.953Z" fill="black"/>
<path d="M142.391 244.493H133.931V252.954H142.391V244.493Z" fill="black"/>
<path d="M150.8 244.493H142.34V252.954H150.8V244.493Z" fill="black"/>
<path d="M159.211 244.493H150.75V252.954H159.211V244.493Z" fill="black"/>
<path d="M167.621 244.493H159.16V252.954H167.621V244.493Z" fill="black"/>
<path d="M134.081 20.0524V11.6426H125.671V20.0524H134.081Z" fill="#DDF8FF"/>
<path d="M142.492 20.0523V11.6426H134.082V20.0523H142.492Z" fill="#DDF8FF"/>
<path d="M150.918 20.0524V11.6426H142.508V20.0524H150.918Z" fill="#DDF8FF"/>
<path d="M159.327 20.069V11.6592H150.917V20.069H159.327Z" fill="#DDF8FF"/>
<path d="M167.755 20.0523V11.6426H159.345V20.0523H167.755Z" fill="#DDF8FF"/>
<path d="M176.164 20.069V11.6592H167.754V20.069H176.164Z" fill="#DDF8FF"/>
<path d="M184.592 20.0524V11.6426H176.182V20.0524H184.592Z" fill="#DDF8FF"/>
<path d="M193.018 20.069V11.6592H184.608V20.069H193.018Z" fill="#DDF8FF"/>
<path d="M201.429 20.0524V11.6426H193.019V20.0524H201.429Z" fill="#DDF8FF"/>
<path d="M209.854 20.069V11.6592H201.445V20.069H209.854Z" fill="#DDF8FF"/>
<path d="M218.264 20.0523V11.6426H209.854V20.0523H218.264Z" fill="#DDF8FF"/>
<path d="M226.691 20.0524V11.6426H218.282V20.0524H226.691Z" fill="#DDF8FF"/>
<path d="M235.101 20.0523V11.6426H226.691V20.0523H235.101Z" fill="#DDF8FF"/>
<path d="M234.34 28.3936H242.75V19.9838H234.34V28.3936Z" fill="#DDF8FF"/>
<path d="M117.246 28.3775V19.9678H108.836V28.3775H117.246Z" fill="#DDF8FF"/>
<path d="M125.655 28.3775V19.9678H117.246V28.3775H125.655Z" fill="#DDF8FF"/>
<path d="M125.655 25.2125V16.8027H117.246V25.2125H125.655Z" fill="#DDF8FF"/>
<path d="M134.081 28.3775V19.9678H125.671V28.3775H134.081Z" fill="#DDF8FF"/>
<path d="M142.492 28.3775V19.9678H134.082V28.3775H142.492Z" fill="#DDF8FF"/>
<path d="M150.918 28.3775V19.9678H142.508V28.3775H150.918Z" fill="#DDF8FF"/>
<path d="M159.327 28.3932V19.9834H150.917V28.3932H159.327Z" fill="#DDF8FF"/>
<path d="M167.755 28.3775V19.9678H159.345V28.3775H167.755Z" fill="#DDF8FF"/>
<path d="M176.164 28.3932V19.9834H167.754V28.3932H176.164Z" fill="#DDF8FF"/>
<path d="M184.592 28.3775V19.9678H176.182V28.3775H184.592Z" fill="#DDF8FF"/>
<path d="M193.018 28.3932V19.9834H184.608V28.3932H193.018Z" fill="#DDF8FF"/>
<path d="M201.429 28.3775V19.9678H193.019V28.3775H201.429Z" fill="#DDF8FF"/>
<path d="M209.854 28.3932V19.9834H201.445V28.3932H209.854Z" fill="#DDF8FF"/>
<path d="M218.264 28.3775V19.9678H209.854V28.3775H218.264Z" fill="#DDF8FF"/>
<path d="M226.691 28.3775V19.9678H218.282V28.3775H226.691Z" fill="#DDF8FF"/>
<path d="M235.101 28.3775V19.9678H226.691V28.3775H235.101Z" fill="#DDF8FF"/>
<path d="M242.749 36.7188H251.159V28.309H242.749V36.7188Z" fill="#DDF8FF"/>
<path d="M234.34 36.7188H242.75V28.309H234.34V36.7188Z" fill="#DDF8FF"/>
<path d="M117.246 36.7018V28.292H108.836V36.7018H117.246Z" fill="#DDF8FF"/>
<path d="M125.655 36.7018V28.292H117.245V36.7018H125.655Z" fill="#DDF8FF"/>
<path d="M134.081 36.7018V28.292H125.671V36.7018H134.081Z" fill="#DDF8FF"/>
<path d="M142.492 36.7018V28.292H134.082V36.7018H142.492Z" fill="#DDF8FF"/>
<path d="M150.918 36.7018V28.292H142.508V36.7018H150.918Z" fill="#DDF8FF"/>
<path d="M159.327 36.7184V28.3086H150.917V36.7184H159.327Z" fill="#DDF8FF"/>
<path d="M167.755 36.7018V28.292H159.345V36.7018H167.755Z" fill="#DDF8FF"/>
<path d="M176.164 36.7184V28.3086H167.754V36.7184H176.164Z" fill="#DDF8FF"/>
<path d="M184.592 36.7018V28.292H176.182V36.7018H184.592Z" fill="#DDF8FF"/>
<path d="M193.018 36.7184V28.3086H184.608V36.7184H193.018Z" fill="#DDF8FF"/>
<path d="M201.429 36.7018V28.292H193.019V36.7018H201.429Z" fill="#DDF8FF"/>
<path d="M209.854 36.7018V28.292H201.445V36.7018H209.854Z" fill="#DDF8FF"/>
<path d="M218.264 36.7018V28.292H209.854V36.7018H218.264Z" fill="#DDF8FF"/>
<path d="M226.691 36.7018V28.292H218.282V36.7018H226.691Z" fill="#DDF8FF"/>
<path d="M235.101 36.7017V28.292H226.691V36.7017H235.101Z" fill="#DDF8FF"/>
<path d="M242.749 45.0439H251.159V36.6342H242.749V45.0439Z" fill="#DDF8FF"/>
<path d="M234.34 45.0439H242.75V36.6342H234.34V45.0439Z" fill="#DDF8FF"/>
<path d="M251.107 45.0439H259.517V36.6342H251.107V45.0439Z" fill="#DDF8FF"/>
<path d="M108.818 45.027V36.6172H100.409V45.027H108.818Z" fill="#DDF8FF"/>
<path d="M117.246 45.027V36.6172H108.836V45.027H117.246Z" fill="#DDF8FF"/>
<path d="M125.655 45.027V36.6172H117.245V45.027H125.655Z" fill="#DDF8FF"/>
<path d="M134.081 45.027V36.6172H125.671V45.027H134.081Z" fill="#DDF8FF"/>
<path d="M142.492 45.0269V36.6172H134.082V45.0269H142.492Z" fill="#DDF8FF"/>
<path d="M150.918 45.027V36.6172H142.508V45.027H150.918Z" fill="#DDF8FF"/>
<path d="M159.327 45.0445V36.6348H150.917V45.0445H159.327Z" fill="#DDF8FF"/>
<path d="M167.755 45.0269V36.6172H159.345V45.0269H167.755Z" fill="#DDF8FF"/>
<path d="M176.164 45.0445V36.6348H167.754V45.0445H176.164Z" fill="#DDF8FF"/>
<path d="M184.592 45.027V36.6172H176.182V45.027H184.592Z" fill="#DDF8FF"/>
<path d="M193.018 45.0445V36.6348H184.608V45.0445H193.018Z" fill="#DDF8FF"/>
<path d="M201.429 45.027V36.6172H193.019V45.027H201.429Z" fill="#DDF8FF"/>
<path d="M209.854 45.027V36.6172H201.445V45.027H209.854Z" fill="#DDF8FF"/>
<path d="M218.264 45.0269V36.6172H209.854V45.0269H218.264Z" fill="#DDF8FF"/>
<path d="M226.691 45.027V36.6172H218.282V45.027H226.691Z" fill="#DDF8FF"/>
<path d="M235.101 45.0269V36.6172H226.691V45.0269H235.101Z" fill="#DDF8FF"/>
<path d="M242.749 53.3691H251.159V44.9594H242.749V53.3691Z" fill="#DDF8FF"/>
<path d="M234.34 53.3691H242.75V44.9594H234.34V53.3691Z" fill="#DDF8FF"/>
<path d="M251.107 53.3691H259.517V44.9594H251.107V53.3691Z" fill="#DDF8FF"/>
<path d="M259.501 53.3691H267.911V44.9594H259.501V53.3691Z" fill="#DDF8FF"/>
<path d="M100.393 53.3522V44.9424H91.9828V53.3522H100.393Z" fill="#DDF8FF"/>
<path d="M134.081 16.8199V8.41016H125.671V16.8199H134.081Z" fill="#DDF8FF"/>
<path d="M142.492 16.8199V8.41016H134.082V16.8199H142.492Z" fill="#DDF8FF"/>
<path d="M150.918 16.8199V8.41016H142.508V16.8199H150.918Z" fill="#DDF8FF"/>
<path d="M159.327 16.8365V8.42676H150.917V16.8365H159.327Z" fill="#DDF8FF"/>
<path d="M167.755 16.8199V8.41016H159.345V16.8199H167.755Z" fill="#DDF8FF"/>
<path d="M176.164 16.8199V8.41016H167.754V16.8199H176.164Z" fill="#DDF8FF"/>
<path d="M184.592 16.8199V8.41016H176.182V16.8199H184.592Z" fill="#DDF8FF"/>
<path d="M193.001 16.8199V8.41016H184.591V16.8199H193.001Z" fill="#DDF8FF"/>
<path d="M201.429 16.8199V8.41016H193.019V16.8199H201.429Z" fill="#DDF8FF"/>
<path d="M209.838 16.8199V8.41016H201.428V16.8199H209.838Z" fill="#DDF8FF"/>
<path d="M218.264 16.8199V8.41016H209.854V16.8199H218.264Z" fill="#DDF8FF"/>
<path d="M226.675 16.8199V8.41016H218.265V16.8199H226.675Z" fill="#DDF8FF"/>
<path d="M235.101 16.8199V8.41016H226.691V16.8199H235.101Z" fill="#DDF8FF"/>
<path d="M234.34 25.1621H242.75V16.7523H234.34V25.1621Z" fill="#DDF8FF"/>
<path d="M242.749 33.4873H251.159V25.0775H242.749V33.4873Z" fill="#DDF8FF"/>
<path d="M251.107 41.8125H259.517V33.4027H251.107V41.8125Z" fill="#DDF8FF"/>
<path d="M108.802 41.7945V33.3848H100.392V41.7945H108.802Z" fill="#DDF8FF"/>
<path d="M259.501 50.1377H267.911V41.7279H259.501V50.1377Z" fill="#DDF8FF"/>
<path d="M100.375 50.1207V41.7109H91.9652V50.1207H100.375Z" fill="#DDF8FF"/>
<path d="M108.818 53.3522V44.9424H100.409V53.3522H108.818Z" fill="#DDF8FF"/>
<path d="M117.246 53.3522V44.9424H108.836V53.3522H117.246Z" fill="#DDF8FF"/>
<path d="M125.655 53.3522V44.9424H117.245V53.3522H125.655Z" fill="#DDF8FF"/>
<path d="M134.081 53.3522V44.9424H125.671V53.3522H134.081Z" fill="#DDF8FF"/>
<path d="M142.492 53.3521V44.9424H134.082V53.3521H142.492Z" fill="#DDF8FF"/>
<path d="M150.918 53.3522V44.9424H142.508V53.3522H150.918Z" fill="#DDF8FF"/>
<path d="M159.327 53.3697V44.96H150.917V53.3697H159.327Z" fill="#DDF8FF"/>
<path d="M167.755 53.3521V44.9424H159.345V53.3521H167.755Z" fill="#DDF8FF"/>
<path d="M176.164 53.3697V44.96H167.754V53.3697H176.164Z" fill="#DDF8FF"/>
<path d="M184.592 53.3522V44.9424H176.182V53.3522H184.592Z" fill="#DDF8FF"/>
<path d="M193.018 53.3697V44.96H184.608V53.3697H193.018Z" fill="#DDF8FF"/>
<path d="M201.429 53.3522V44.9424H193.019V53.3522H201.429Z" fill="#DDF8FF"/>
<path d="M209.854 53.3522V44.9424H201.445V53.3522H209.854Z" fill="#DDF8FF"/>
<path d="M218.264 53.3521V44.9424H209.854V53.3521H218.264Z" fill="#DDF8FF"/>
<path d="M226.691 53.3522V44.9424H218.282V53.3522H226.691Z" fill="#DDF8FF"/>
<path d="M235.101 53.3521V44.9424H226.691V53.3521H235.101Z" fill="#DDF8FF"/>
<path d="M242.749 61.6953H251.159V53.2855H242.749V61.6953Z" fill="#DDF8FF"/>
<path d="M234.34 61.6953H242.75V53.2855H234.34V61.6953Z" fill="#DDF8FF"/>
<path d="M251.107 61.6953H259.517V53.2855H251.107V61.6953Z" fill="#DDF8FF"/>
<path d="M259.501 61.6953H267.911V53.2855H259.501V61.6953Z" fill="#DDF8FF"/>
<path d="M100.393 61.6774V53.2676H91.9828V61.6774H100.393Z" fill="#DDF8FF"/>
<path d="M108.818 61.6774V53.2676H100.409V61.6774H108.818Z" fill="#DDF8FF"/>
<path d="M117.246 61.6774V53.2676H108.836V61.6774H117.246Z" fill="#DDF8FF"/>
<path d="M125.655 61.6774V53.2676H117.245V61.6774H125.655Z" fill="#DDF8FF"/>
<path d="M134.081 61.6774V53.2676H125.671V61.6774H134.081Z" fill="#DDF8FF"/>
<path d="M142.492 61.6773V53.2676H134.082V61.6773H142.492Z" fill="#DDF8FF"/>
<path d="M150.918 61.6774V53.2676H142.508V61.6774H150.918Z" fill="#DDF8FF"/>
<path d="M159.327 61.6949V53.2852H150.917V61.6949H159.327Z" fill="#DDF8FF"/>
<path d="M167.755 61.6773V53.2676H159.345V61.6773H167.755Z" fill="#DDF8FF"/>
<path d="M176.164 61.6949V53.2852H167.754V61.6949H176.164Z" fill="#DDF8FF"/>
<path d="M184.592 61.6774V53.2676H176.182V61.6774H184.592Z" fill="#DDF8FF"/>
<path d="M193.018 61.6949V53.2852H184.608V61.6949H193.018Z" fill="#DDF8FF"/>
<path d="M201.429 61.6774V53.2676H193.019V61.6774H201.429Z" fill="#DDF8FF"/>
<path d="M209.854 61.6774V53.2676H201.445V61.6774H209.854Z" fill="#DDF8FF"/>
<path d="M218.264 61.6773V53.2676H209.854V61.6773H218.264Z" fill="#DDF8FF"/>
<path d="M226.691 61.6783V53.2686H218.282V61.6783H226.691Z" fill="#DDF8FF"/>
<path d="M235.101 61.6783V53.2686H226.691V61.6783H235.101Z" fill="#DDF8FF"/>
<path d="M242.749 70.0195H251.159V61.6098H242.749V70.0195Z" fill="#DDF8FF"/>
<path d="M234.34 70.0195H242.75V61.6098H234.34V70.0195Z" fill="#DDF8FF"/>
<path d="M251.107 70.0195H259.517V61.6098H251.107V70.0195Z" fill="#DDF8FF"/>
<path d="M259.501 70.0195H267.911V61.6098H259.501V70.0195Z" fill="#DDF8FF"/>
<path d="M100.393 70.0035V61.5938H91.9828V70.0035H100.393Z" fill="#DDF8FF"/>
<path d="M108.818 70.0035V61.5938H100.409V70.0035H108.818Z" fill="#DDF8FF"/>
<path d="M117.246 70.0035V61.5938H108.836V70.0035H117.246Z" fill="#DDF8FF"/>
<path d="M125.655 70.0035V61.5938H117.246V70.0035H125.655Z" fill="#DDF8FF"/>
<path d="M134.081 70.0035V61.5938H125.671V70.0035H134.081Z" fill="#DDF8FF"/>
<path d="M142.492 70.0035V61.5938H134.082V70.0035H142.492Z" fill="#DDF8FF"/>
<path d="M150.918 70.0035V61.5938H142.508V70.0035H150.918Z" fill="#DDF8FF"/>
<path d="M159.327 70.0201V61.6104H150.917V70.0201H159.327Z" fill="#DDF8FF"/>
<path d="M167.755 70.0035V61.5938H159.345V70.0035H167.755Z" fill="#DDF8FF"/>
<path d="M176.164 70.0201V61.6104H167.754V70.0201H176.164Z" fill="#DDF8FF"/>
<path d="M184.592 70.0035V61.5938H176.182V70.0035H184.592Z" fill="#DDF8FF"/>
<path d="M193.018 70.0201V61.6104H184.608V70.0201H193.018Z" fill="#DDF8FF"/>
<path d="M201.429 70.0035V61.5938H193.019V70.0035H201.429Z" fill="#DDF8FF"/>
<path d="M209.854 70.0035V61.5938H201.445V70.0035H209.854Z" fill="#DDF8FF"/>
<path d="M218.264 70.0035V61.5938H209.854V70.0035H218.264Z" fill="#DDF8FF"/>
<path d="M226.691 70.0035V61.5938H218.282V70.0035H226.691Z" fill="#DDF8FF"/>
<path d="M235.101 70.0035V61.5938H226.691V70.0035H235.101Z" fill="#DDF8FF"/>
<path d="M242.749 78.3447H251.159V69.935H242.749V78.3447Z" fill="#DDF8FF"/>
<path d="M234.34 78.3447H242.75V69.935H234.34V78.3447Z" fill="#DDF8FF"/>
<path d="M251.107 78.3447H259.517V69.935H251.107V78.3447Z" fill="#DDF8FF"/>
<path d="M259.501 78.3447H267.911V69.935H259.501V78.3447Z" fill="#DDF8FF"/>
<path d="M100.393 78.3277V69.918H91.9828V78.3277H100.393Z" fill="#DDF8FF"/>
<path d="M108.818 78.3277V69.918H100.409V78.3277H108.818Z" fill="#DDF8FF"/>
<path d="M117.246 78.3277V69.918H108.836V78.3277H117.246Z" fill="#DDF8FF"/>
<path d="M125.655 78.3277V69.918H117.245V78.3277H125.655Z" fill="#DDF8FF"/>
<path d="M134.081 78.3277V69.918H125.671V78.3277H134.081Z" fill="#DDF8FF"/>
<path d="M142.492 78.3277V69.918H134.082V78.3277H142.492Z" fill="#DDF8FF"/>
<path d="M150.918 78.3277V69.918H142.508V78.3277H150.918Z" fill="#DDF8FF"/>
<path d="M159.327 78.3443V69.9346H150.917V78.3443H159.327Z" fill="#DDF8FF"/>
<path d="M167.755 78.3277V69.918H159.345V78.3277H167.755Z" fill="#DDF8FF"/>
<path d="M176.164 78.3443V69.9346H167.754V78.3443H176.164Z" fill="#DDF8FF"/>
<path d="M184.592 78.3277V69.918H176.182V78.3277H184.592Z" fill="#DDF8FF"/>
<path d="M193.001 78.3443V69.9346H184.591V78.3443H193.001Z" fill="#DDF8FF"/>
<path d="M201.429 78.3277V69.918H193.019V78.3277H201.429Z" fill="#DDF8FF"/>
<path d="M209.854 78.3277V69.918H201.445V78.3277H209.854Z" fill="#DDF8FF"/>
<path d="M218.264 78.3277V69.918H209.854V78.3277H218.264Z" fill="#DDF8FF"/>
<path d="M226.691 78.3277V69.918H218.282V78.3277H226.691Z" fill="#DDF8FF"/>
<path d="M235.101 78.3277V69.918H226.691V78.3277H235.101Z" fill="#DDF8FF"/>
<path d="M242.749 86.6699H251.159V78.2602H242.749V86.6699Z" fill="#DDF8FF"/>
<path d="M234.34 86.6699H242.75V78.2602H234.34V86.6699Z" fill="#DDF8FF"/>
<path d="M251.107 86.6699H259.517V78.2602H251.107V86.6699Z" fill="#DDF8FF"/>
<path d="M259.501 86.6699H267.911V78.2602H259.501V86.6699Z" fill="#DDF8FF"/>
<path d="M100.393 86.6529V78.2432H91.9828V86.6529H100.393Z" fill="#DDF8FF"/>
<path d="M108.818 86.6529V78.2432H100.409V86.6529H108.818Z" fill="#DDF8FF"/>
<path d="M117.246 86.6529V78.2432H108.836V86.6529H117.246Z" fill="#DDF8FF"/>
<path d="M125.655 86.6529V78.2432H117.246V86.6529H125.655Z" fill="#DDF8FF"/>
<path d="M134.081 86.6529V78.2432H125.671V86.6529H134.081Z" fill="#DDF8FF"/>
<path d="M142.492 86.6529V78.2432H134.082V86.6529H142.492Z" fill="#DDF8FF"/>
<path d="M150.918 86.6529V78.2432H142.508V86.6529H150.918Z" fill="#DDF8FF"/>
<path d="M159.327 86.6695V78.2598H150.917V86.6695H159.327Z" fill="#DDF8FF"/>
<path d="M167.755 86.6529V78.2432H159.345V86.6529H167.755Z" fill="#DDF8FF"/>
<path d="M176.164 86.6695V78.2598H167.754V86.6695H176.164Z" fill="#DDF8FF"/>
<path d="M184.592 86.6529V78.2432H176.182V86.6529H184.592Z" fill="#DDF8FF"/>
<path d="M193.001 86.6695V78.2598H184.591V86.6695H193.001Z" fill="#DDF8FF"/>
<path d="M201.429 86.6529V78.2432H193.019V86.6529H201.429Z" fill="#DDF8FF"/>
<path d="M209.854 86.6529V78.2432H201.445V86.6529H209.854Z" fill="#DDF8FF"/>
<path d="M218.264 86.6529V78.2432H209.854V86.6529H218.264Z" fill="#DDF8FF"/>
<path d="M226.691 86.6529V78.2432H218.282V86.6529H226.691Z" fill="#DDF8FF"/>
<path d="M235.101 86.6529V78.2432H226.691V86.6529H235.101Z" fill="#DDF8FF"/>
<path d="M242.749 94.9951H251.159V86.5853H242.749V94.9951Z" fill="#DDF8FF"/>
<path d="M234.34 94.9951H242.75V86.5853H234.34V94.9951Z" fill="#DDF8FF"/>
<path d="M251.107 94.9951H259.517V86.5853H251.107V94.9951Z" fill="#DDF8FF"/>
<path d="M259.501 94.9951H267.911V86.5853H259.501V94.9951Z" fill="#DDF8FF"/>
<path d="M100.393 94.9781V86.5684H91.9828V94.9781H100.393Z" fill="#DDF8FF"/>
<path d="M108.818 94.9781V86.5684H100.409V94.9781H108.818Z" fill="#DDF8FF"/>
<path d="M117.246 94.9781V86.5684H108.836V94.9781H117.246Z" fill="#DDF8FF"/>
<path d="M125.655 94.9781V86.5684H117.245V94.9781H125.655Z" fill="#DDF8FF"/>
<path d="M134.081 94.9781V86.5684H125.671V94.9781H134.081Z" fill="#DDF8FF"/>
<path d="M142.492 94.9781V86.5684H134.082V94.9781H142.492Z" fill="#DDF8FF"/>
<path d="M150.918 94.9781V86.5684H142.508V94.9781H150.918Z" fill="#DDF8FF"/>
<path d="M159.327 94.9957V86.5859H150.917V94.9957H159.327Z" fill="#DDF8FF"/>
<path d="M167.755 94.9781V86.5684H159.345V94.9781H167.755Z" fill="#DDF8FF"/>
<path d="M176.164 94.9957V86.5859H167.754V94.9957H176.164Z" fill="#DDF8FF"/>
<path d="M184.592 94.9781V86.5684H176.182V94.9781H184.592Z" fill="#DDF8FF"/>
<path d="M193.001 94.9957V86.5859H184.591V94.9957H193.001Z" fill="#DDF8FF"/>
<path d="M201.429 94.9781V86.5684H193.019V94.9781H201.429Z" fill="#DDF8FF"/>
<path d="M209.854 94.9781V86.5684H201.445V94.9781H209.854Z" fill="#DDF8FF"/>
<path d="M218.264 94.9781V86.5684H209.854V94.9781H218.264Z" fill="#DDF8FF"/>
<path d="M226.691 94.9781V86.5684H218.282V94.9781H226.691Z" fill="#DDF8FF"/>
<path d="M235.101 94.9781V86.5684H226.691V94.9781H235.101Z" fill="#DDF8FF"/>
<path d="M242.749 103.32H251.159V94.9105H242.749V103.32Z" fill="#DDF8FF"/>
<path d="M234.34 103.32H242.75V94.9105H234.34V103.32Z" fill="#DDF8FF"/>
<path d="M251.107 103.32H259.517V94.9105H251.107V103.32Z" fill="#DDF8FF"/>
<path d="M259.501 103.32H267.911V94.9105H259.501V103.32Z" fill="#DDF8FF"/>
<path d="M100.393 103.303V94.8936H91.9828V103.303H100.393Z" fill="#DDF8FF"/>
<path d="M108.818 103.303V94.8936H100.409V103.303H108.818Z" fill="#DDF8FF"/>
<path d="M117.246 103.303V94.8936H108.836V103.303H117.246Z" fill="#DDF8FF"/>
<path d="M125.655 103.303V94.8936H117.246V103.303H125.655Z" fill="#DDF8FF"/>
<path d="M134.081 103.303V94.8936H125.671V103.303H134.081Z" fill="#DDF8FF"/>
<path d="M142.492 103.303V94.8936H134.082V103.303H142.492Z" fill="#DDF8FF"/>
<path d="M150.918 103.303V94.8936H142.508V103.303H150.918Z" fill="#DDF8FF"/>
<path d="M159.327 103.321V94.9111H150.917V103.321H159.327Z" fill="#DDF8FF"/>
<path d="M167.755 103.303V94.8936H159.345V103.303H167.755Z" fill="#DDF8FF"/>
<path d="M176.164 103.321V94.9111H167.754V103.321H176.164Z" fill="#DDF8FF"/>
<path d="M184.592 103.303V94.8936H176.182V103.303H184.592Z" fill="#DDF8FF"/>
<path d="M193.001 103.321V94.9111H184.591V103.321H193.001Z" fill="#DDF8FF"/>
<path d="M201.429 103.303V94.8936H193.019V103.303H201.429Z" fill="#DDF8FF"/>
<path d="M209.854 103.303V94.8936H201.445V103.303H209.854Z" fill="#DDF8FF"/>
<path d="M218.264 103.303V94.8936H209.854V103.303H218.264Z" fill="#DDF8FF"/>
<path d="M226.691 103.303V94.8936H218.282V103.303H226.691Z" fill="#DDF8FF"/>
<path d="M235.101 103.303V94.8936H226.691V103.303H235.101Z" fill="#DDF8FF"/>
<path d="M242.749 111.646H251.159V103.236H242.749V111.646Z" fill="#DDF8FF"/>
<path d="M234.34 111.646H242.75V103.236H234.34V111.646Z" fill="#DDF8FF"/>
<path d="M251.107 111.646H259.517V103.236H251.107V111.646Z" fill="#DDF8FF"/>
<path d="M259.501 111.646H267.911V103.236H259.501V111.646Z" fill="#DDF8FF"/>
<path d="M100.393 111.629V103.219H91.9828V111.629H100.393Z" fill="#DDF8FF"/>
<path d="M108.818 111.629V103.219H100.409V111.629H108.818Z" fill="#DDF8FF"/>
<path d="M117.246 111.629V103.219H108.836V111.629H117.246Z" fill="#DDF8FF"/>
<path d="M125.655 111.629V103.219H117.245V111.629H125.655Z" fill="#DDF8FF"/>
<path d="M134.081 111.629V103.219H125.671V111.629H134.081Z" fill="#DDF8FF"/>
<path d="M142.492 111.629V103.219H134.082V111.629H142.492Z" fill="#DDF8FF"/>
<path d="M150.918 111.629V103.219H142.508V111.629H150.918Z" fill="#DDF8FF"/>
<path d="M159.327 111.646V103.236H150.917V111.646H159.327Z" fill="#DDF8FF"/>
<path d="M167.755 111.629V103.219H159.345V111.629H167.755Z" fill="#DDF8FF"/>
<path d="M176.164 111.646V103.236H167.754V111.646H176.164Z" fill="#DDF8FF"/>
<path d="M184.592 111.629V103.219H176.182V111.629H184.592Z" fill="#DDF8FF"/>
<path d="M193.001 111.629V103.219H184.591V111.629H193.001Z" fill="#DDF8FF"/>
<path d="M201.429 111.629V103.219H193.019V111.629H201.429Z" fill="#DDF8FF"/>
<path d="M209.854 111.629V103.219H201.445V111.629H209.854Z" fill="#DDF8FF"/>
<path d="M218.264 111.629V103.219H209.854V111.629H218.264Z" fill="#DDF8FF"/>
<path d="M226.691 111.629V103.219H218.282V111.629H226.691Z" fill="#DDF8FF"/>
<path d="M235.101 111.628V103.219H226.691V111.628H235.101Z" fill="#DDF8FF"/>
<path d="M242.749 119.971H251.159V111.561H242.749V119.971Z" fill="#DDF8FF"/>
<path d="M234.34 119.971H242.75V111.561H234.34V119.971Z" fill="#DDF8FF"/>
<path d="M251.107 119.971H259.517V111.561H251.107V119.971Z" fill="#DDF8FF"/>
<path d="M259.501 119.971H267.911V111.561H259.501V119.971Z" fill="#DDF8FF"/>
<path d="M100.393 119.954V111.544H91.9828V119.954H100.393Z" fill="#DDF8FF"/>
<path d="M108.818 119.954V111.544H100.409V119.954H108.818Z" fill="#DDF8FF"/>
<path d="M117.246 119.954V111.544H108.836V119.954H117.246Z" fill="#DDF8FF"/>
<path d="M125.655 119.954V111.544H117.245V119.954H125.655Z" fill="#DDF8FF"/>
<path d="M134.081 119.954V111.544H125.671V119.954H134.081Z" fill="#DDF8FF"/>
<path d="M142.492 119.954V111.544H134.082V119.954H142.492Z" fill="#DDF8FF"/>
<path d="M150.918 119.954V111.544H142.508V119.954H150.918Z" fill="#DDF8FF"/>
<path d="M159.327 119.97V111.561H150.917V119.97H159.327Z" fill="#DDF8FF"/>
<path d="M167.755 119.954V111.544H159.345V119.954H167.755Z" fill="#DDF8FF"/>
<path d="M176.164 119.97V111.561H167.754V119.97H176.164Z" fill="#DDF8FF"/>
<path d="M184.592 119.954V111.544H176.182V119.954H184.592Z" fill="#DDF8FF"/>
<path d="M193.001 119.954V111.544H184.591V119.954H193.001Z" fill="#DDF8FF"/>
<path d="M201.429 119.954V111.544H193.019V119.954H201.429Z" fill="#DDF8FF"/>
<path d="M209.854 119.954V111.544H201.445V119.954H209.854Z" fill="#DDF8FF"/>
<path d="M218.264 119.954V111.544H209.854V119.954H218.264Z" fill="#DDF8FF"/>
<path d="M226.691 119.954V111.544H218.282V119.954H226.691Z" fill="#DDF8FF"/>
<path d="M235.101 119.954V111.544H226.691V119.954H235.101Z" fill="#DDF8FF"/>
<path d="M242.749 128.296H251.159V119.886H242.749V128.296Z" fill="#DDF8FF"/>
<path d="M234.34 128.296H242.75V119.886H234.34V128.296Z" fill="#DDF8FF"/>
<path d="M251.107 128.296H259.517V119.886H251.107V128.296Z" fill="#DDF8FF"/>
<path d="M259.501 128.296H267.911V119.886H259.501V128.296Z" fill="#DDF8FF"/>
<path d="M100.393 128.279V119.869H91.9828V128.279H100.393Z" fill="#DDF8FF"/>
<path d="M108.818 128.279V119.869H100.409V128.279H108.818Z" fill="#DDF8FF"/>
<path d="M117.246 128.279V119.869H108.836V128.279H117.246Z" fill="#DDF8FF"/>
<path d="M125.655 128.279V119.869H117.245V128.279H125.655Z" fill="#DDF8FF"/>
<path d="M134.081 128.279V119.869H125.671V128.279H134.081Z" fill="#DDF8FF"/>
<path d="M142.492 128.279V119.869H134.082V128.279H142.492Z" fill="#DDF8FF"/>
<path d="M150.918 128.279V119.869H142.508V128.279H150.918Z" fill="#DDF8FF"/>
<path d="M159.327 128.296V119.886H150.917V128.296H159.327Z" fill="#DDF8FF"/>
<path d="M167.755 128.279V119.869H159.345V128.279H167.755Z" fill="#DDF8FF"/>
<path d="M176.164 128.296V119.886H167.754V128.296H176.164Z" fill="#DDF8FF"/>
<path d="M184.592 128.279V119.869H176.182V128.279H184.592Z" fill="#DDF8FF"/>
<path d="M193.001 128.279V119.869H184.591V128.279H193.001Z" fill="#DDF8FF"/>
<path d="M201.429 128.279V119.869H193.019V128.279H201.429Z" fill="#DDF8FF"/>
<path d="M209.854 128.279V119.869H201.445V128.279H209.854Z" fill="#DDF8FF"/>
<path d="M218.264 128.279V119.869H209.854V128.279H218.264Z" fill="#DDF8FF"/>
<path d="M226.691 128.279V119.869H218.282V128.279H226.691Z" fill="#DDF8FF"/>
<path d="M235.101 128.279V119.869H226.691V128.279H235.101Z" fill="#DDF8FF"/>
<path d="M242.749 136.621H251.159V128.211H242.749V136.621Z" fill="#DDF8FF"/>
<path d="M234.34 136.621H242.75V128.211H234.34V136.621Z" fill="#DDF8FF"/>
<path d="M251.107 136.621H259.517V128.211H251.107V136.621Z" fill="#DDF8FF"/>
<path d="M259.501 136.621H267.911V128.211H259.501V136.621Z" fill="#DDF8FF"/>
<path d="M100.393 136.604V128.194H91.9828V136.604H100.393Z" fill="#DDF8FF"/>
<path d="M108.818 136.604V128.194H100.409V136.604H108.818Z" fill="#DDF8FF"/>
<path d="M117.246 136.604V128.194H108.836V136.604H117.246Z" fill="#DDF8FF"/>
<path d="M125.655 136.604V128.194H117.245V136.604H125.655Z" fill="#DDF8FF"/>
<path d="M134.081 136.604V128.194H125.671V136.604H134.081Z" fill="#DDF8FF"/>
<path d="M142.492 136.604V128.194H134.082V136.604H142.492Z" fill="#DDF8FF"/>
<path d="M150.918 136.604V128.194H142.508V136.604H150.918Z" fill="#DDF8FF"/>
<path d="M159.327 136.621V128.211H150.917V136.621H159.327Z" fill="#DDF8FF"/>
<path d="M167.755 136.604V128.194H159.345V136.604H167.755Z" fill="#DDF8FF"/>
<path d="M176.164 136.621V128.211H167.754V136.621H176.164Z" fill="#DDF8FF"/>
<path d="M184.592 136.604V128.194H176.182V136.604H184.592Z" fill="#DDF8FF"/>
<path d="M193.001 136.604V128.194H184.591V136.604H193.001Z" fill="#DDF8FF"/>
<path d="M201.429 136.604V128.194H193.019V136.604H201.429Z" fill="#DDF8FF"/>
<path d="M209.854 136.604V128.194H201.445V136.604H209.854Z" fill="#DDF8FF"/>
<path d="M218.264 136.604V128.194H209.854V136.604H218.264Z" fill="#DDF8FF"/>
<path d="M226.691 136.604V128.194H218.282V136.604H226.691Z" fill="#DDF8FF"/>
<path d="M235.101 136.604V128.194H226.691V136.604H235.101Z" fill="#DDF8FF"/>
<path d="M242.749 144.946H251.159V136.537H242.749V144.946Z" fill="#DDF8FF"/>
<path d="M234.34 144.946H242.75V136.537H234.34V144.946Z" fill="#DDF8FF"/>
<path d="M251.107 144.946H259.517V136.537H251.107V144.946Z" fill="#DDF8FF"/>
<path d="M259.501 144.946H267.911V136.537H259.501V144.946Z" fill="#DDF8FF"/>
<path d="M100.393 144.929V136.52H91.9828V144.929H100.393Z" fill="#DDF8FF"/>
<path d="M108.818 144.929V136.52H100.409V144.929H108.818Z" fill="#DDF8FF"/>
<path d="M117.246 144.929V136.52H108.836V144.929H117.246Z" fill="#DDF8FF"/>
<path d="M125.655 144.929V136.52H117.245V144.929H125.655Z" fill="#DDF8FF"/>
<path d="M134.081 144.929V136.52H125.671V144.929H134.081Z" fill="#DDF8FF"/>
<path d="M142.492 144.929V136.52H134.082V144.929H142.492Z" fill="#DDF8FF"/>
<path d="M150.918 144.929V136.52H142.508V144.929H150.918Z" fill="#DDF8FF"/>
<path d="M159.327 144.947V136.537H150.917V144.947H159.327Z" fill="#DDF8FF"/>
<path d="M167.755 144.929V136.52H159.345V144.929H167.755Z" fill="#DDF8FF"/>
<path d="M176.164 144.947V136.537H167.754V144.947H176.164Z" fill="#DDF8FF"/>
<path d="M184.592 144.929V136.52H176.182V144.929H184.592Z" fill="#DDF8FF"/>
<path d="M193.001 144.929V136.52H184.591V144.929H193.001Z" fill="#DDF8FF"/>
<path d="M201.429 144.929V136.52H193.019V144.929H201.429Z" fill="#DDF8FF"/>
<path d="M209.854 144.929V136.52H201.445V144.929H209.854Z" fill="#DDF8FF"/>
<path d="M218.264 144.929V136.52H209.854V144.929H218.264Z" fill="#DDF8FF"/>
<path d="M226.691 144.929V136.52H218.282V144.929H226.691Z" fill="#DDF8FF"/>
<path d="M235.101 144.929V136.52H226.691V144.929H235.101Z" fill="#DDF8FF"/>
<path d="M242.749 153.271H251.159V144.862H242.749V153.271Z" fill="#DDF8FF"/>
<path d="M234.34 153.271H242.75V144.862H234.34V153.271Z" fill="#DDF8FF"/>
<path d="M251.107 153.271H259.517V144.862H251.107V153.271Z" fill="#DDF8FF"/>
<path d="M108.818 153.255V144.845H100.409V153.255H108.818Z" fill="#DDF8FF"/>
<path d="M117.246 153.255V144.845H108.836V153.255H117.246Z" fill="#DDF8FF"/>
<path d="M125.655 153.255V144.845H117.245V153.255H125.655Z" fill="#DDF8FF"/>
<path d="M134.081 153.255V144.845H125.671V153.255H134.081Z" fill="#DDF8FF"/>
<path d="M142.492 153.254V144.845H134.082V153.254H142.492Z" fill="#DDF8FF"/>
<path d="M150.918 153.255V144.845H142.508V153.255H150.918Z" fill="#DDF8FF"/>
<path d="M159.327 153.272V144.862H150.917V153.272H159.327Z" fill="#DDF8FF"/>
<path d="M167.755 153.254V144.845H159.345V153.254H167.755Z" fill="#DDF8FF"/>
<path d="M176.164 153.272V144.862H167.754V153.272H176.164Z" fill="#DDF8FF"/>
<path d="M184.592 153.255V144.845H176.182V153.255H184.592Z" fill="#DDF8FF"/>
<path d="M193.001 153.255V144.845H184.591V153.255H193.001Z" fill="#DDF8FF"/>
<path d="M201.429 153.255V144.845H193.019V153.255H201.429Z" fill="#DDF8FF"/>
<path d="M209.838 153.255V144.845H201.428V153.255H209.838Z" fill="#DDF8FF"/>
<path d="M218.264 153.254V144.845H209.854V153.254H218.264Z" fill="#DDF8FF"/>
<path d="M226.691 153.255V144.845H218.282V153.255H226.691Z" fill="#DDF8FF"/>
<path d="M235.101 153.254V144.845H226.691V153.254H235.101Z" fill="#DDF8FF"/>
<path d="M242.749 161.597H251.159V153.187H242.749V161.597Z" fill="#DDF8FF"/>
<path d="M234.34 161.597H242.75V153.187H234.34V161.597Z" fill="#DDF8FF"/>
<path d="M117.246 161.58V153.17H108.836V161.58H117.246Z" fill="#DDF8FF"/>
<path d="M125.655 161.58V153.17H117.245V161.58H125.655Z" fill="#DDF8FF"/>
<path d="M134.081 161.58V153.17H125.671V161.58H134.081Z" fill="#DDF8FF"/>
<path d="M142.492 161.58V153.17H134.082V161.58H142.492Z" fill="#DDF8FF"/>
<path d="M150.918 161.58V153.17H142.508V161.58H150.918Z" fill="#DDF8FF"/>
<path d="M159.327 161.596V153.187H150.917V161.596H159.327Z" fill="#DDF8FF"/>
<path d="M167.755 161.58V153.17H159.345V161.58H167.755Z" fill="#DDF8FF"/>
<path d="M176.164 161.596V153.187H167.754V161.596H176.164Z" fill="#DDF8FF"/>
<path d="M184.592 161.58V153.17H176.182V161.58H184.592Z" fill="#DDF8FF"/>
<path d="M193.001 161.58V153.17H184.591V161.58H193.001Z" fill="#DDF8FF"/>
<path d="M201.429 161.58V153.17H193.019V161.58H201.429Z" fill="#DDF8FF"/>
<path d="M209.838 161.58V153.17H201.428V161.58H209.838Z" fill="#DDF8FF"/>
<path d="M218.264 161.58V153.17H209.854V161.58H218.264Z" fill="#DDF8FF"/>
<path d="M226.691 161.58V153.17H218.282V161.58H226.691Z" fill="#DDF8FF"/>
<path d="M235.101 161.58V153.17H226.691V161.58H235.101Z" fill="#DDF8FF"/>
<path d="M234.34 169.922H242.75V161.512H234.34V169.922Z" fill="#DDF8FF"/>
<path d="M125.655 169.905V161.495H117.245V169.905H125.655Z" fill="#DDF8FF"/>
<path d="M134.081 169.905V161.495H125.671V169.905H134.081Z" fill="#DDF8FF"/>
<path d="M142.492 169.905V161.495H134.082V169.905H142.492Z" fill="#DDF8FF"/>
<path d="M150.918 169.905V161.495H142.508V169.905H150.918Z" fill="#DDF8FF"/>
<path d="M159.327 169.921V161.512H150.917V169.921H159.327Z" fill="#DDF8FF"/>
<path d="M167.755 169.905V161.495H159.345V169.905H167.755Z" fill="#DDF8FF"/>
<path d="M176.164 169.921V161.512H167.754V169.921H176.164Z" fill="#DDF8FF"/>
<path d="M184.592 169.905V161.495H176.182V169.905H184.592Z" fill="#DDF8FF"/>
<path d="M193.001 169.905V161.495H184.591V169.905H193.001Z" fill="#DDF8FF"/>
<path d="M201.429 169.905V161.495H193.019V169.905H201.429Z" fill="#DDF8FF"/>
<path d="M209.838 169.905V161.495H201.428V169.905H209.838Z" fill="#DDF8FF"/>
<path d="M218.264 169.905V161.495H209.854V169.905H218.264Z" fill="#DDF8FF"/>
<path d="M226.691 169.905V161.495H218.282V169.905H226.691Z" fill="#DDF8FF"/>
<path d="M235.101 169.905V161.495H226.691V169.905H235.101Z" fill="#DDF8FF"/>
<path d="M242.749 168.737H251.159V160.328H242.749V168.737Z" fill="black"/>
<path d="M251.109 160.327H259.519V151.917H251.109V160.327Z" fill="black"/>
<path d="M259.501 151.9H267.911V143.491H259.501V151.9Z" fill="black"/>
<path d="M267.86 143.474H276.27V135.064H267.86V143.474Z" fill="black"/>
<path d="M267.86 135.047H276.27V126.637H267.86V135.047Z" fill="black"/>
<path d="M267.86 126.604H276.27V118.194H267.86V126.604Z" fill="black"/>
<path d="M267.86 118.16H276.27V109.75H267.86V118.16Z" fill="black"/>
<path d="M267.86 109.733H276.27V101.324H267.86V109.733Z" fill="black"/>
<path d="M267.86 101.289H276.27V92.8793H267.86V101.289Z" fill="black"/>
<path d="M267.86 92.8623H276.27V84.4525H267.86V92.8623Z" fill="black"/>
<path d="M267.86 84.4199H276.27V76.0101H267.86V84.4199Z" fill="black"/>
<path d="M267.86 75.9756H276.27V67.5658H267.86V75.9756Z" fill="black"/>
<path d="M267.86 67.5488H276.27V59.1391H267.86V67.5488Z" fill="black"/>
<path d="M267.86 59.1055H276.27V50.6957H267.86V59.1055Z" fill="black"/>
<path d="M83.5561 143.474H91.9658V135.064H83.5561V143.474Z" fill="black"/>
<path d="M83.5561 135.047H91.9658V126.637H83.5561V135.047Z" fill="black"/>
<path d="M83.5561 126.604H91.9658V118.194H83.5561V126.604Z" fill="black"/>
<path d="M83.5561 118.16H91.9658V109.75H83.5561V118.16Z" fill="black"/>
<path d="M83.5561 109.733H91.9658V101.324H83.5561V109.733Z" fill="black"/>
<path d="M83.5561 101.289H91.9658V92.8793H83.5561V101.289Z" fill="black"/>
<path d="M83.5561 92.8623H91.9658V84.4525H83.5561V92.8623Z" fill="black"/>
<path d="M83.5561 84.4199H91.9658V76.0101H83.5561V84.4199Z" fill="black"/>
<path d="M83.5561 75.9756H91.9658V67.5658H83.5561V75.9756Z" fill="black"/>
<path d="M83.5561 67.5488H91.9658V59.1391H83.5561V67.5488Z" fill="black"/>
<path d="M83.5561 59.1055H91.9658V50.6957H83.5561V59.1055Z" fill="black"/>
<path d="M91.9658 143.491V151.9H100.376V143.491H91.9658Z" fill="black"/>
<path d="M100.393 151.917V160.327H108.802V151.917H100.393Z" fill="black"/>
<path d="M108.818 160.344V168.754H117.228V160.344H108.818Z" fill="black"/>
<path d="M242.749 25.2637H251.159V16.8539H242.749V25.2637Z" fill="black"/>
<path d="M234.34 16.8369H242.75V8.42714L234.34 8.42714V16.8369Z" fill="black"/>
<path d="M251.109 33.6729H259.519V25.2631H251.109V33.6729Z" fill="black"/>
<path d="M259.501 42.0996H267.911V33.6898H259.501V42.0996Z" fill="black"/>
<path d="M267.86 50.5264H276.27V42.1166H267.86V50.5264Z" fill="black"/>
<path d="M91.9834 51.0509V42.0996H83.5736V51.0509H91.9834Z" fill="black"/>
<path d="M100.393 42.1002V33.6904H91.9828V42.1002H100.393Z" fill="black"/>
<path d="M108.818 33.6559V25.2461H100.409V33.6559H108.818Z" fill="black"/>
<path d="M117.179 25.1793V16.7695H108.769V25.1793H117.179Z" fill="black"/>
<path d="M125.655 16.8199V8.41016H117.246V16.8199H125.655Z" fill="black"/>
<path d="M134.064 8.40977V0L125.655 0V8.40977H134.064Z" fill="black"/>
<path d="M142.492 8.40976V0L134.082 0V8.40976H142.492Z" fill="black"/>
<path d="M150.918 8.40977V0L142.508 0V8.40977H150.918Z" fill="black"/>
<path d="M159.329 8.40977V0L150.919 0V8.40977H159.329Z" fill="black"/>
<path d="M167.755 8.40976V0L159.345 0V8.40976H167.755Z" fill="black"/>
<path d="M176.166 8.40977V0L167.756 0V8.40977H176.166Z" fill="black"/>
<path d="M184.592 8.40977V0L176.182 0V8.40977H184.592Z" fill="black"/>
<path d="M193.001 8.40977V0L184.591 0V8.40977H193.001Z" fill="black"/>
<path d="M201.429 8.40977V0L193.019 0V8.40977H201.429Z" fill="black"/>
<path d="M209.838 8.40977V0L201.428 0V8.40977H209.838Z" fill="black"/>
<path d="M218.266 8.40976V0L209.856 0V8.40976H218.266Z" fill="black"/>
<path d="M226.675 8.40977V0L218.265 0V8.40977H226.675Z" fill="black"/>
<path d="M235.101 8.40975V0L226.691 0V8.40975H235.101Z" fill="black"/>
<path d="M150.817 168.568H142.356V177.029H150.817V168.568Z" fill="black"/>
<path d="M125.52 143.187H117.06V151.647H125.52V143.187Z" fill="black"/>
<path d="M125.52 100.832H117.06V109.293H125.52V100.832Z" fill="black"/>
<path d="M133.931 100.832H125.471V109.293H133.931V100.832Z" fill="black"/>
<path d="M142.34 100.832H133.88V109.293H142.34V100.832Z" fill="#4C3510"/>
<path d="M150.75 92.3555H142.289V100.816H150.75V92.3555Z" fill="black"/>
<path d="M159.159 100.832H150.698V109.293H159.159V100.832Z" fill="black"/>
<path d="M167.587 100.832H159.126V109.293H167.587V100.832Z" fill="#4C3510"/>
<path d="M175.996 92.3555H167.535V100.816H175.996V92.3555Z" fill="black"/>
<path d="M192.816 92.3555H184.355V100.816H192.816V92.3555Z" fill="black"/>
<path d="M201.225 92.3555H192.765V100.816H201.225V92.3555Z" fill="black"/>
<path d="M209.634 100.832H201.174V109.293H209.634V100.832Z" fill="black"/>
<path d="M218.045 92.3555H209.585V100.816H218.045V92.3555Z" fill="black"/>
<path d="M226.455 143.187H217.994V151.647H226.455V143.187Z" fill="black"/>
<path d="M226.455 100.832H217.994V109.293H226.455V100.832Z" fill="black"/>
<path d="M234.864 134.708H226.403V143.169H234.864V134.708Z" fill="black"/>
<path d="M234.864 109.293H226.403V117.754H234.864V109.293Z" fill="black"/>
<path d="M243.273 134.708H234.812V143.169H243.273V134.708Z" fill="black"/>
<path d="M243.273 100.832H234.812V109.293H243.273V100.832Z" fill="black"/>
<path d="M251.684 134.708H243.224V143.169H251.684V134.708Z" fill="black"/>
<path d="M251.684 92.3555H243.224V100.816H251.684V92.3555Z" fill="black"/>
<path d="M133.931 151.63H125.471V160.09H133.931V151.63Z" fill="black"/>
<path d="M218.045 151.63H209.585V160.09H218.045V151.63Z" fill="black"/>
<path d="M142.34 160.073H133.88V168.534H142.34V160.073Z" fill="black"/>
<path d="M150.75 160.073H142.289V168.534H150.75V160.073Z" fill="black"/>
<path d="M201.225 160.073H192.765V168.534H201.225V160.073Z" fill="black"/>
<path d="M209.634 160.073H201.174V168.534H209.634V160.073Z" fill="black"/>
<path d="M159.159 168.534H150.698V176.995H159.159V168.534Z" fill="black"/>
<path d="M167.587 168.534H159.126V176.995H167.587V168.534Z" fill="black"/>
<path d="M175.996 168.534H167.535V176.995H175.996V168.534Z" fill="black"/>
<path d="M184.407 168.534H175.946V176.995H184.407V168.534Z" fill="black"/>
<path d="M192.816 168.534H184.355V176.995H192.816V168.534Z" fill="black"/>
<path d="M201.225 168.534H192.765V176.995H201.225V168.534Z" fill="#F6F2EC"/>
<path d="M209.634 168.534H201.174V176.995H209.634V168.534Z" fill="#F6F2EC"/>
<path d="M218.045 168.534H209.585V176.995H218.045V168.534Z" fill="black"/>
<path d="M235.05 168.534H226.59V176.995H235.05V168.534Z" fill="black"/>
<path opacity="0.3" d="M150.852 176.961H142.392V185.421H150.852V176.961Z" fill="black"/>
<path d="M142.441 185.421H133.98V193.881H142.441V185.421Z" fill="#DAD6D0"/>
<path opacity="0.3" d="M150.852 185.421H142.392V193.881H150.852V185.421Z" fill="black"/>
<path d="M134.032 193.864H125.571V202.325H134.032V193.864Z" fill="#F6F2EC"/>
<path d="M142.441 193.864H133.98V202.325H142.441V193.864Z" fill="#DAD6D0"/>
<path d="M150.852 193.864H142.392V202.325H150.852V193.864Z" fill="black"/>
<path d="M125.623 202.325H117.162V210.786H125.623V202.325Z" fill="#F6F2EC"/>
<path d="M134.032 185.489H125.571V193.95H134.032V185.489Z" fill="#F6F2EC"/>
<path d="M142.441 177.011H133.98V185.471H142.441V177.011Z" fill="#DAD6D0"/>
<path d="M134.032 177.096H125.571V185.556H134.032V177.096Z" fill="black"/>
<path d="M125.623 185.539H117.162V193.729H125.623V185.539Z" fill="black"/>
<path d="M134.032 202.325H125.571V210.786H134.032V202.325Z" fill="#DAD6D0"/>
<path d="M142.441 202.325H133.98V210.786H142.441V202.325Z" fill="black"/>
<path d="M125.623 210.769H117.162V219.229H125.623V210.769Z" fill="#DAD6D0"/>
<path d="M125.623 219.229H117.162V227.69H125.623V219.229Z" fill="black"/>
<path d="M117.365 202.325H108.904V210.786H117.365V202.325Z" fill="#F6F2EC"/>
<path d="M117.365 193.864H108.904V202.325H117.365V193.864Z" fill="black"/>
<path d="M117.365 210.769H108.904V219.229H117.365V210.769Z" fill="#F6F2EC"/>
<path d="M117.365 219.229H108.904V227.69H117.365V219.229Z" fill="black"/>
<path d="M109.108 202.325H100.647V210.786H109.108V202.325Z" fill="black"/>
<path d="M109.108 210.769H100.647V219.229H109.108V210.769Z" fill="black"/>
<path d="M134.032 210.769H125.571V219.229H134.032V210.769Z" fill="black"/>
<path d="M150.75 176.978H142.289V185.438H150.75V176.978Z" fill="black"/>
<path d="M159.159 176.978H150.698V185.438H159.159V176.978Z" fill="#DAD6D0"/>
<path d="M167.587 176.978H159.126V185.438H167.587V176.978Z" fill="#DAD6D0"/>
<path d="M175.996 176.978H167.535V185.438H175.996V176.978Z" fill="#DAD6D0"/>
<path d="M184.407 176.978H175.946V185.438H184.407V176.978Z" fill="#DAD6D0"/>
<path d="M192.816 176.978H184.355V185.438H192.816V176.978Z" fill="#DAD6D0"/>
<path d="M201.225 176.978H192.765V185.438H201.225V176.978Z" fill="#DAD6D0"/>
<path d="M209.634 176.978H201.174V185.438H209.634V176.978Z" fill="#DAD6D0"/>
<path d="M218.045 176.978H209.585V185.438H218.045V176.978Z" fill="black"/>
<path d="M150.75 185.421H142.289V193.881H150.75V185.421Z" fill="black"/>
<path d="M150.716 185.421H142.256V193.881H150.716V185.421Z" fill="black"/>
<path d="M159.159 185.421H150.698V193.881H159.159V185.421Z" fill="#F6F2EC"/>
<path d="M167.587 185.421H159.126V193.881H167.587V185.421Z" fill="#F6F2EC"/>
<path d="M175.996 185.421H167.535V193.881H175.996V185.421Z" fill="#F6F2EC"/>
<path d="M184.407 185.421H175.946V193.881H184.407V185.421Z" fill="#F6F2EC"/>
<path d="M192.816 185.421H184.355V193.881H192.816V185.421Z" fill="#F6F2EC"/>
<path opacity="0.3" d="M201.225 185.421H192.765V193.881H201.225V185.421Z" fill="black"/>
<path d="M209.634 185.421H201.174V193.881H209.634V185.421Z" fill="#F6F2EC"/>
<path d="M218.045 185.421H209.585V193.881H218.045V185.421Z" fill="#DAD6D0"/>
<path opacity="0.3" d="M150.716 193.882H142.256V202.342H150.716V193.882Z" fill="black"/>
<path d="M159.159 193.864H150.698V202.325H159.159V193.864Z" fill="#DAD6D0"/>
<path d="M167.587 193.864H159.126V202.325H167.587V193.864Z" fill="#DAD6D0"/>
<path d="M175.996 193.864H167.535V202.325H175.996V193.864Z" fill="#DAD6D0"/>
<path d="M184.407 193.864H175.946V202.325H184.407V193.864Z" fill="#DAD6D0"/>
<path d="M192.816 193.864H184.355V202.325H192.816V193.864Z" fill="#DAD6D0"/>
<path d="M201.309 185.388H192.849V193.848H201.309V185.388Z" fill="black"/>
<path d="M226.555 185.388H218.095V193.848H226.555V185.388Z" fill="black"/>
<path opacity="0.3" d="M150.716 202.325H142.256V210.786H150.716V202.325Z" fill="black"/>
<path d="M159.159 202.325H150.698V210.786H159.159V202.325Z" fill="#F6F2EC"/>
<path d="M167.587 202.325H159.126V210.786H167.587V202.325Z" fill="#FB7844"/>
<path d="M175.996 202.325H167.535V210.786H175.996V202.325Z" fill="#FB7844"/>
<path d="M184.407 202.325H175.946V210.786H184.407V202.325Z" fill="#FB7844"/>
<path d="M192.816 202.325H184.355V210.786H192.816V202.325Z" fill="#F6F2EC"/>
<path d="M201.309 193.83H192.849V202.291H201.309V193.83Z" fill="black"/>
<path d="M209.737 193.83H201.276V202.291H209.737V193.83Z" fill="#F6F2EC"/>
<path d="M218.146 193.83H209.686V202.291H218.146V193.83Z" fill="#DAD6D0"/>
<path d="M226.555 193.83H218.095V202.291H226.555V193.83Z" fill="black"/>
<path d="M150.716 210.785H142.256V219.246H150.716V210.785Z" fill="#FDEAE0"/>
<path d="M159.159 210.769H150.698V219.229H159.159V210.769Z" fill="#F6F2EC"/>
<path d="M167.587 210.769H159.126V219.229H167.587V210.769Z" fill="#F6F2EC"/>
<path d="M175.996 210.769H167.535V219.229H175.996V210.769Z" fill="#F6F2EC"/>
<path d="M184.407 210.769H175.946V219.229H184.407V210.769Z" fill="#F6F2EC"/>
<path d="M192.816 210.769H184.355V219.229H192.816V210.769Z" fill="black"/>
<path d="M201.309 202.291H192.849V210.752H201.309V202.291Z" fill="black"/>
<path d="M209.737 202.291H201.276V210.752H209.737V202.291Z" fill="#F6F2EC"/>
<path d="M218.146 202.291H209.686V210.752H218.146V202.291Z" fill="#DAD6D0"/>
<path d="M226.555 202.291H218.095V210.752H226.555V202.291Z" fill="black"/>
<path d="M159.159 219.229H150.698V227.69H159.159V219.229Z" fill="#FDEAE0"/>
<path d="M167.603 219.229H159.143V227.69H167.603V219.229Z" fill="#F6F2EC"/>
<path d="M176.012 219.229H167.552V227.69H176.012V219.229Z" fill="black"/>
<path d="M184.423 219.229H175.963V227.69H184.423V219.229Z" fill="#DAD6D0"/>
<path d="M192.833 219.229H184.372V227.69H192.833V219.229Z" fill="black"/>
<path d="M201.242 219.229H192.781V227.69H201.242V219.229Z" fill="black"/>
<path d="M201.309 210.735H192.849V219.196H201.309V210.735Z" fill="#F6F2EC"/>
<path d="M209.737 210.735H201.276V219.196H209.737V210.735Z" fill="#F6F2EC"/>
<path d="M218.146 210.735H209.686V219.196H218.146V210.735Z" fill="#DAD6D0"/>
<path d="M226.555 210.735H218.095V219.196H226.555V210.735Z" fill="black"/>
<path d="M159.159 227.69H150.698V236.151H159.159V227.69Z" fill="black"/>
<path d="M167.603 227.673H159.143V236.133H167.603V227.673Z" fill="black"/>
<path d="M150.75 193.864H142.289V202.325H150.75V193.864Z" fill="black"/>
<path d="M150.75 202.325H142.289V210.786H150.75V202.325Z" fill="black"/>
<path d="M150.716 210.769H142.256V219.229H150.716V210.769Z" fill="black"/>
<path d="M159.159 219.229H150.698V227.69H159.159V219.229Z" fill="#F6F2EC"/>
<path d="M159.159 227.673H150.698V236.133H159.159V227.673Z" fill="#F6F2EC"/>
<path d="M176.012 227.673H167.552V236.133H176.012V227.673Z" fill="#76A8AC"/>
<path d="M184.423 227.673H175.963V236.133H184.423V227.673Z" fill="#DAD6D0"/>
<path d="M192.833 227.673H184.372V236.133H192.833V227.673Z" fill="#F6F2EC"/>
<path d="M201.242 227.673H192.781V236.133H201.242V227.673Z" fill="black"/>
<path d="M201.309 219.179H192.849V227.639H201.309V219.179Z" fill="#F6F2EC"/>
<path d="M209.737 219.179H201.276V227.639H209.737V219.179Z" fill="#F6F2EC"/>
<path d="M218.146 219.179H209.686V227.639H218.146V219.179Z" fill="#DAD6D0"/>
<path d="M226.555 219.179H218.095V227.639H226.555V219.179Z" fill="black"/>
<path d="M159.159 236.116H150.698V244.577H159.159V236.116Z" fill="#F6F2EC"/>
<path d="M167.603 236.116H159.143V244.577H167.603V236.116Z" fill="black"/>
<path d="M184.423 236.116H175.963V244.577H184.423V236.116Z" fill="black"/>
<path d="M192.833 236.116H184.372V244.577H192.833V236.116Z" fill="#F6F2EC"/>
<path d="M201.242 236.116H192.781V244.577H201.242V236.116Z" fill="#F6F2EC"/>
<path d="M201.309 227.639H192.849V236.099H201.309V227.639Z" fill="black"/>
<path d="M209.737 227.639H201.276V236.099H209.737V227.639Z" fill="black"/>
<path d="M218.146 227.639H209.686V236.099H218.146V227.639Z" fill="black"/>
<path d="M159.159 244.577H150.698V253.038H159.159V244.577Z" fill="#DAD6D0"/>
<path d="M167.603 244.577H159.143V253.038H167.603V244.577Z" fill="black"/>
<path d="M192.833 244.577H184.372V253.038H192.833V244.577Z" fill="#F6F2EC"/>
<path d="M201.242 244.577H192.781V253.038H201.242V244.577Z" fill="#F6F2EC"/>
<path d="M209.653 236.116H201.192V244.577H209.653V236.116Z" fill="black"/>
<path d="M209.653 244.577H201.192V253.038H209.653V244.577Z" fill="black"/>
<path d="M150.834 219.229H142.373V227.69H150.834V219.229Z" fill="#FDEAE0"/>
<path d="M150.834 227.69H142.373V236.151H150.834V227.69Z" fill="black"/>
<path d="M150.834 219.229H142.373V227.69H150.834V219.229Z" fill="#76A8AC"/>
<path d="M150.834 227.673H142.373V236.133H150.834V227.673Z" fill="#F6F2EC"/>
<path d="M150.834 236.116H142.373V244.577H150.834V236.116Z" fill="#F6F2EC"/>
<path d="M150.834 244.577H142.373V253.038H150.834V244.577Z" fill="#DAD6D0"/>
<path d="M142.391 236.116H133.931V244.577H142.391V236.116Z" fill="black"/>
<path d="M142.391 244.577H133.931V253.038H142.391V244.577Z" fill="#DAD6D0"/>
<path d="M150.766 219.246H142.306V227.707H150.766V219.246Z" fill="black"/>
<path d="M142.391 227.69H133.931V236.151H142.391V227.69Z" fill="black"/>
<path d="M133.964 244.577H125.504V253.038H133.964V244.577Z" fill="black"/>
<path d="M167.603 253.021H159.143V261.481H167.603V253.021Z" fill="black"/>
<path d="M192.833 253.021H184.372V261.481H192.833V253.021Z" fill="black"/>
<path d="M175.962 227.673H167.502V236.133H175.962V227.673Z" fill="black"/>
<path d="M184.372 244.577H175.911V253.038H184.372V244.577Z" fill="black"/>
<path d="M201.242 253.021H192.781V261.481H201.242V253.021Z" fill="#F6F2EC"/>
<path d="M209.653 253.021H201.192V261.481H209.653V253.021Z" fill="#F6F2EC"/>
<path d="M184.423 261.48H175.963V269.941H184.423V261.48Z" fill="black"/>
<path d="M192.833 261.48H184.372V269.941H192.833V261.48Z" fill="#DAD6D0"/>
<path d="M201.242 261.48H192.781V269.941H201.242V261.48Z" fill="#DAD6D0"/>
<path d="M209.653 261.48H201.192V269.941H209.653V261.48Z" fill="#DAD6D0"/>
<path d="M150.784 253.021H142.323V261.481H150.784V253.021Z" fill="black"/>
<path d="M159.194 253.021H150.733V261.481H159.194V253.021Z" fill="black"/>
<path d="M142.357 253.021H133.896V261.481H142.357V253.021Z" fill="black"/>
<path d="M133.931 253.021H125.471V261.481H133.931V253.021Z" fill="black"/>
<path d="M184.423 269.925H175.963V278.385H184.423V269.925Z" fill="black"/>
<path d="M192.833 269.925H184.372V278.385H192.833V269.925Z" fill="black"/>
<path d="M201.242 269.925H192.781V278.385H201.242V269.925Z" fill="black"/>
<path d="M209.653 269.925H201.192V278.385H209.653V269.925Z" fill="black"/>
<path d="M218.113 253.021H209.652V261.481H218.113V253.021Z" fill="black"/>
<path d="M218.113 261.48H209.652V269.941H218.113V261.48Z" fill="black"/>
<path d="M218.113 269.925H209.652V278.385H218.113V269.925Z" fill="black"/>
<path d="M133.931 126.231H125.471V134.692H133.931V126.231Z" fill="#494442"/>
<path d="M133.931 117.771H125.471V126.231H133.931V117.771Z" fill="#494442"/>
<path d="M133.931 109.293H125.471V117.754H133.931V109.293Z" fill="black"/>
<path d="M142.34 126.231H133.88V134.692H142.34V126.231Z" fill="white"/>
<path d="M142.34 117.771H133.88V126.231H142.34V117.771Z" fill="white"/>
<path d="M142.34 109.293H133.88V117.754H142.34V109.293Z" fill="#D2C8C4"/>
<path d="M159.159 134.708H150.698V143.169H159.159V134.708Z" fill="#E1CCC2"/>
<path d="M159.159 126.231H150.698V134.692H159.159V126.231Z" fill="#E1CCC2"/>
<path d="M167.587 134.708H159.126V143.169H167.587V134.708Z" fill="#E1CCC2"/>
<path d="M192.816 126.231H184.355V134.692H192.816V126.231Z" fill="#494442"/>
<path d="M192.816 117.771H184.355V126.231H192.816V117.771Z" fill="#494442"/>
<path d="M192.816 109.293H184.355V117.754H192.816V109.293Z" fill="#494442"/>
<path d="M192.816 100.832H184.355V109.293H192.816V100.832Z" fill="black"/>
<path d="M201.225 126.231H192.765V134.692H201.225V126.231Z" fill="white"/>
<path d="M201.225 117.771H192.765V126.231H201.225V117.771Z" fill="white"/>
<path d="M201.225 109.293H192.765V117.754H201.225V109.293Z" fill="white"/>
<path d="M201.225 100.832H192.765V109.293H201.225V100.832Z" fill="#D2C8C4"/>
<path d="M209.634 117.771H201.174V126.231H209.634V117.771Z" fill="#FDEAE0"/>
<path d="M209.634 109.293H201.174V117.754H209.634V109.293Z" fill="#FDEAE0"/>
<path d="M243.273 117.771H234.812V126.231H243.273V117.771Z" fill="#E1CCC2"/>
<path d="M243.273 109.293H234.812V117.754H243.273V109.293Z" fill="#E1CCC2"/>
<path d="M167.587 151.63H159.126V160.09H167.587V151.63Z" fill="#494442"/>
<path d="M175.996 151.63H167.535V160.09H175.996V151.63Z" fill="#494442"/>
<path d="M125.52 134.708H117.06V143.169H125.52V134.708Z" fill="#FDEAE0"/>
<path d="M125.52 126.231H117.06V134.692H125.52V126.231Z" fill="#FDEAE0"/>
<path d="M125.52 117.771H117.06V126.231H125.52V117.771Z" fill="#FDEAE0"/>
<path d="M125.52 109.293H117.06V117.754H125.52V109.293Z" fill="#EED6CA"/>
<path d="M133.931 143.187H125.471V151.647H133.931V143.187Z" fill="#FDEAE0"/>
<path d="M133.931 134.708H125.471V143.169H133.931V134.708Z" fill="#FDEAE0"/>
<path d="M142.34 143.187H133.88V151.647H142.34V143.187Z" fill="#FDEAE0"/>
<path d="M142.34 134.708H133.88V143.169H142.34V134.708Z" fill="#FDEAE0"/>
<path d="M150.75 143.187H142.289V151.647H150.75V143.187Z" fill="#FDEAE0"/>
<path d="M150.75 134.708H142.289V143.169H150.75V134.708Z" fill="#FDEAE0"/>
<path d="M150.75 126.231H142.289V134.692H150.75V126.231Z" fill="#FDEAE0"/>
<path d="M150.75 117.771H142.289V126.231H150.75V117.771Z" fill="#FDEAE0"/>
<path d="M150.75 109.293H142.289V117.754H150.75V109.293Z" fill="#FDEAE0"/>
<path d="M150.75 100.832H142.289V109.293H150.75V100.832Z" fill="#EED6CA"/>
<path d="M159.159 143.187H150.698V151.647H159.159V143.187Z" fill="#FDEAE0"/>
<path d="M159.159 117.771H150.698V126.231H159.159V117.771Z" fill="#FDEAE0"/>
<path d="M159.159 109.293H150.698V117.754H159.159V109.293Z" fill="#FDEAE0"/>
<path d="M167.587 143.187H159.126V151.647H167.587V143.187Z" fill="#FDEAE0"/>
<path d="M167.587 126.231H159.126V134.692H167.587V126.231Z" fill="#FDEAE0"/>
<path d="M167.587 117.771H159.126V126.231H167.587V117.771Z" fill="#FDEAE0"/>
<path d="M167.587 109.293H159.126V117.754H167.587V109.293Z" fill="#FDEAE0"/>
<path d="M175.996 143.187H167.535V151.647H175.996V143.187Z" fill="#FDEAE0"/>
<path d="M175.996 134.708H167.535V143.169H175.996V134.708Z" fill="#FDEAE0"/>
<path d="M175.996 126.231H167.535V134.692H175.996V126.231Z" fill="#FDEAE0"/>
<path d="M175.996 117.771H167.535V126.231H175.996V117.771Z" fill="#FDEAE0"/>
<path d="M175.996 109.293H167.535V117.754H175.996V109.293Z" fill="#FDEAE0"/>
<path d="M175.996 100.832H167.535V109.293H175.996V100.832Z" fill="#EED6CA"/>
<path d="M184.407 143.187H175.946V151.647H184.407V143.187Z" fill="#FDEAE0"/>
<path d="M184.407 134.708H175.946V143.169H184.407V134.708Z" fill="#FDEAE0"/>
<path d="M184.407 126.231H175.946V134.692H184.407V126.231Z" fill="#FDEAE0"/>
<path d="M184.407 117.771H175.946V126.231H184.407V117.771Z" fill="#FDEAE0"/>
<path d="M184.407 109.293H175.946V117.754H184.407V109.293Z" fill="#FDEAE0"/>
<path d="M184.407 100.832H175.946V109.293H184.407V100.832Z" fill="#FDEAE0"/>
<path d="M192.816 143.187H184.355V151.647H192.816V143.187Z" fill="#FDEAE0"/>
<path d="M192.816 134.708H184.355V143.169H192.816V134.708Z" fill="#FDEAE0"/>
<path d="M201.225 143.187H192.765V151.647H201.225V143.187Z" fill="#FDEAE0"/>
<path d="M201.225 134.708H192.765V143.169H201.225V134.708Z" fill="#FDEAE0"/>
<path d="M209.634 143.187H201.174V151.647H209.634V143.187Z" fill="#FDEAE0"/>
<path d="M209.634 134.708H201.174V143.169H209.634V134.708Z" fill="#FDEAE0"/>
<path d="M209.634 126.231H201.174V134.692H209.634V126.231Z" fill="#FDEAE0"/>
<path d="M218.045 143.187H209.585V151.647H218.045V143.187Z" fill="#EED6CA"/>
<path d="M218.045 134.708H209.585V143.169H218.045V134.708Z" fill="#FDEAE0"/>
<path d="M218.045 126.231H209.585V134.692H218.045V126.231Z" fill="#FDEAE0"/>
<path d="M218.045 117.771H209.585V126.231H218.045V117.771Z" fill="#FDEAE0"/>
<path d="M218.045 109.293H209.585V117.754H218.045V109.293Z" fill="#FDEAE0"/>
<path d="M218.045 100.832H209.585V109.293H218.045V100.832Z" fill="#EED6CA"/>
<path d="M226.455 134.708H217.994V143.169H226.455V134.708Z" fill="#EED6CA"/>
<path d="M226.455 126.231H217.994V134.692H226.455V126.231Z" fill="#FDEAE0"/>
<path d="M226.455 117.771H217.994V126.231H226.455V117.771Z" fill="#FDEAE0"/>
<path d="M226.455 109.293H217.994V117.754H226.455V109.293Z" fill="#FDEAE0"/>
<path d="M234.864 126.231H226.403V134.692H234.864V126.231Z" fill="#FDEAE0"/>
<path d="M234.864 117.771H226.403V126.231H234.864V117.771Z" fill="#FDEAE0"/>
<path d="M243.273 126.231H234.812V134.692H243.273V126.231Z" fill="#FDEAE0"/>
<path d="M251.684 126.231H243.224V134.692H251.684V126.231Z" fill="#FDEAE0"/>
<path d="M251.684 117.771H243.224V126.231H251.684V117.771Z" fill="#FDEAE0"/>
<path d="M251.684 109.293H243.224V117.754H251.684V109.293Z" fill="#FDEAE0"/>
<path d="M251.684 100.832H243.224V109.293H251.684V100.832Z" fill="black"/>
<path d="M142.34 151.63H133.88V160.09H142.34V151.63Z" fill="#FDEAE0"/>
<path d="M150.75 151.63H142.289V160.09H150.75V151.63Z" fill="#FDEAE0"/>
<path d="M159.159 151.63H150.698V160.09H159.159V151.63Z" fill="#FDEAE0"/>
<path d="M184.407 151.63H175.946V160.09H184.407V151.63Z" fill="#FDEAE0"/>
<path d="M192.816 151.63H184.355V160.09H192.816V151.63Z" fill="#FDEAE0"/>
<path d="M201.225 151.63H192.765V160.09H201.225V151.63Z" fill="#EED6CA"/>
<path d="M209.634 151.63H201.174V160.09H209.634V151.63Z" fill="#EED6CA"/>
<path d="M159.159 160.073H150.698V168.534H159.159V160.073Z" fill="#EED6CA"/>
<path d="M167.587 160.073H159.126V168.534H167.587V160.073Z" fill="#EED6CA"/>
<path d="M175.996 160.073H167.535V168.534H175.996V160.073Z" fill="#EED6CA"/>
<path d="M184.407 160.073H175.946V168.534H184.407V160.073Z" fill="#EED6CA"/>
<path d="M192.816 160.073H184.355V168.534H192.816V160.073Z" fill="#EED6CA"/>
<path d="M117.111 126.231H108.65V134.692H117.111V126.231Z" fill="black"/>
<path d="M117.111 117.771H108.65V126.231H117.111V117.771Z" fill="black"/>
<path d="M117.111 109.293H108.65V117.754H117.111V109.293Z" fill="black"/>
<path d="M117.111 100.832H108.65V109.293H117.111V100.832Z" fill="#4C3510"/>
<path d="M117.111 92.3555H108.65V100.816H117.111V92.3555Z" fill="black"/>
<path d="M108.718 92.3555H100.258V100.816H108.718V92.3555Z" fill="black"/>
<path d="M184.407 92.3555H175.946V100.816H184.407V92.3555Z" fill="black"/>
<path d="M125.52 92.3555H117.06V100.816H125.52V92.3555Z" fill="black"/>
<path d="M125.52 33.0635H117.06V41.524H125.52V33.0635Z" fill="black"/>
<path d="M133.931 92.3555H125.471V100.816H133.931V92.3555Z" fill="black"/>
<path d="M133.931 24.6035H125.471V33.0641H133.931V24.6035Z" fill="black"/>
<path d="M142.34 92.3555H133.88V100.816H142.34V92.3555Z" fill="black"/>
<path d="M142.34 16.125H133.88V24.5855H142.34V16.125Z" fill="black"/>
<path d="M150.75 16.125H142.289V24.5855H150.75V16.125Z" fill="black"/>
<path d="M159.159 92.3555H150.698V100.816H159.159V92.3555Z" fill="black"/>
<path d="M159.159 16.125H150.698V24.5855H159.159V16.125Z" fill="black"/>
<path d="M167.587 92.3555H159.126V100.816H167.587V92.3555Z" fill="black"/>
<path d="M167.587 16.125H159.126V24.5855H167.587V16.125Z" fill="black"/>
<path d="M175.996 16.125H167.535V24.5855H175.996V16.125Z" fill="black"/>
<path d="M184.407 16.125H175.946V24.5855H184.407V16.125Z" fill="black"/>
<path d="M192.816 16.125H184.355V24.5855H192.816V16.125Z" fill="black"/>
<path d="M201.225 16.125H192.765V24.5855H201.225V16.125Z" fill="black"/>
<path d="M209.634 92.3555H201.174V100.816H209.634V92.3555Z" fill="black"/>
<path d="M209.634 16.125H201.174V24.5855H209.634V16.125Z" fill="black"/>
<path d="M218.045 16.125H209.585V24.5855H218.045V16.125Z" fill="black"/>
<path d="M226.455 92.3555H217.994V100.816H226.455V92.3555Z" fill="black"/>
<path d="M226.455 16.125H217.994V24.5855H226.455V16.125Z" fill="black"/>
<path d="M234.864 100.832H226.403V109.293H234.864V100.832Z" fill="#4C3510"/>
<path d="M234.864 92.3555H226.403V100.816H234.864V92.3555Z" fill="black"/>
<path d="M234.864 24.6035H226.403V33.0641H234.864V24.6035Z" fill="black"/>
<path d="M243.273 92.3555H234.812V100.816H243.273V92.3555Z" fill="black"/>
<path d="M243.273 33.0635H234.812V41.524H243.273V33.0635Z" fill="black"/>
<path d="M251.684 41.541H243.224V50.0016H251.684V41.541Z" fill="black"/>
<path d="M184.405 83.8945H175.944V92.3551H184.405V83.8945Z" fill="#E96739"/>
<path d="M251.684 83.8945H243.224V92.3551H251.684V83.8945Z" fill="#E96739"/>
<path d="M125.52 83.8945H117.06V92.3551H125.52V83.8945Z" fill="#E96739"/>
<path d="M125.52 75.417H117.06V83.8775H125.52V75.417Z" fill="#FB7844"/>
<path d="M125.52 66.9561H117.06V75.4166H125.52V66.9561Z" fill="#FB7844"/>
<path d="M125.52 58.4795H117.06V66.94H125.52V58.4795Z" fill="#FB7844"/>
<path d="M125.52 50.001H117.06V58.4615H125.52V50.001Z" fill="#FB7844"/>
<path d="M125.52 41.541H117.06V50.0016H125.52V41.541Z" fill="#FFAD91"/>
<path d="M133.931 83.8945H125.471V92.3551H133.931V83.8945Z" fill="#E96739"/>
<path d="M133.931 75.417H125.471V83.8775H133.931V75.417Z" fill="#FB7844"/>
<path d="M133.931 66.9561H125.471V75.4166H133.931V66.9561Z" fill="#FB7844"/>
<path d="M133.931 58.4795H125.471V66.94H133.931V58.4795Z" fill="#FB7844"/>
<path d="M133.931 50.001H125.471V58.4615H133.931V50.001Z" fill="#FB7844"/>
<path d="M133.931 41.541H125.471V50.0016H133.931V41.541Z" fill="#FB7844"/>
<path d="M133.931 33.0635H125.471V41.524H133.931V33.0635Z" fill="#FFAD91"/>
<path d="M142.34 83.8945H133.88V92.3551H142.34V83.8945Z" fill="#E96739"/>
<path d="M142.34 75.417H133.88V83.8775H142.34V75.417Z" fill="#FB7844"/>
<path d="M142.34 66.9561H133.88V75.4166H142.34V66.9561Z" fill="#FB7844"/>
<path d="M142.34 58.4795H133.88V66.94H142.34V58.4795Z" fill="#FB7844"/>
<path d="M142.34 50.001H133.88V58.4615H142.34V50.001Z" fill="#FB7844"/>
<path d="M142.34 41.541H133.88V50.0016H142.34V41.541Z" fill="#FB7844"/>
<path d="M142.34 33.0635H133.88V41.524H142.34V33.0635Z" fill="#FB7844"/>
<path d="M142.34 24.6035H133.88V33.0641H142.34V24.6035Z" fill="#FFAD91"/>
<path d="M150.75 83.8945H142.289V92.3551H150.75V83.8945Z" fill="#E96739"/>
<path d="M150.75 75.417H142.289V83.8775H150.75V75.417Z" fill="#FB7844"/>
<path d="M150.75 66.9561H142.289V75.4166H150.75V66.9561Z" fill="#FB7844"/>
<path d="M150.75 58.4795H142.289V66.94H150.75V58.4795Z" fill="#DF5D2F"/>
<path d="M150.75 50.001H142.289V58.4615H150.75V50.001Z" fill="#DF5D2F"/>
<path d="M150.75 41.541H142.289V50.0016H150.75V41.541Z" fill="#FB7844"/>
<path d="M150.75 33.0635H142.289V41.524H150.75V33.0635Z" fill="#FB7844"/>
<path d="M150.75 24.6035H142.289V33.0641H150.75V24.6035Z" fill="#FB7844"/>
<path d="M159.159 83.8945H150.698V92.3551H159.159V83.8945Z" fill="#E96739"/>
<path d="M159.159 75.417H150.698V83.8775H159.159V75.417Z" fill="#FB7844"/>
<path d="M159.159 66.9561H150.698V75.4166H159.159V66.9561Z" fill="#DF5D2F"/>
<path d="M159.159 58.4795H150.698V66.94H159.159V58.4795Z" fill="#DF5D2F"/>
<path d="M159.159 50.001H150.698V58.4615H159.159V50.001Z" fill="#DF5D2F"/>
<path d="M159.159 41.541H150.698V50.0016H159.159V41.541Z" fill="#51BB6B"/>
<path d="M159.159 33.0635H150.698V41.524H159.159V33.0635Z" fill="#FB7844"/>
<path d="M159.159 24.6035H150.698V33.0641H159.159V24.6035Z" fill="#FB7844"/>
<path d="M167.587 83.8945H159.126V92.3551H167.587V83.8945Z" fill="#E96739"/>
<path d="M167.587 75.417H159.126V83.8775H167.587V75.417Z" fill="#DF5D2F"/>
<path d="M167.587 66.9561H159.126V75.4166H167.587V66.9561Z" fill="#DF5D2F"/>
<path d="M167.587 58.4795H159.126V66.94H167.587V58.4795Z" fill="white"/>
<path d="M167.587 50.001H159.126V58.4615H167.587V50.001Z" fill="#DF5D2F"/>
<path d="M167.587 41.541H159.126V50.0016H167.587V41.541Z" fill="#51BB6B"/>
<path d="M167.587 33.0635H159.126V41.524H167.587V33.0635Z" fill="#51BB6B"/>
<path d="M167.587 24.6035H159.126V33.0641H167.587V24.6035Z" fill="#FB7844"/>
<path d="M175.996 83.8945H167.535V92.3551H175.996V83.8945Z" fill="#E96739"/>
<path d="M175.996 75.417H167.535V83.8775H175.996V75.417Z" fill="#FB7844"/>
<path d="M175.996 66.9561H167.535V75.4166H175.996V66.9561Z" fill="#DF5D2F"/>
<path d="M175.996 58.4795H167.535V66.94H175.996V58.4795Z" fill="#DF5D2F"/>
<path d="M175.996 50.001H167.535V58.4615H175.996V50.001Z" fill="#DF5D2F"/>
<path d="M175.996 41.541H167.535V50.0016H175.996V41.541Z" fill="#51BB6B"/>
<path d="M175.996 33.0635H167.535V41.524H175.996V33.0635Z" fill="#FB7844"/>
<path d="M175.996 24.6035H167.535V33.0641H175.996V24.6035Z" fill="#FB7844"/>
<path d="M184.405 75.417H175.944V83.8775H184.405V75.417Z" fill="#FB7844"/>
<path d="M184.405 66.9561H175.944V75.4166H184.405V66.9561Z" fill="#FB7844"/>
<path d="M184.405 58.4795H175.944V66.94H184.405V58.4795Z" fill="#DF5D2F"/>
<path d="M184.405 50.001H175.944V58.4615H184.405V50.001Z" fill="#DF5D2F"/>
<path d="M184.405 41.541H175.944V50.0016H184.405V41.541Z" fill="#FB7844"/>
<path d="M184.405 33.0635H175.944V41.524H184.405V33.0635Z" fill="#FB7844"/>
<path d="M184.405 24.6035H175.944V33.0641H184.405V24.6035Z" fill="#FB7844"/>
<path d="M192.816 83.8945H184.355V92.3551H192.816V83.8945Z" fill="#E96739"/>
<path d="M192.816 75.417H184.355V83.8775H192.816V75.417Z" fill="#FB7844"/>
<path d="M192.816 66.9561H184.355V75.4166H192.816V66.9561Z" fill="#FB7844"/>
<path d="M192.816 58.4795H184.355V66.94H192.816V58.4795Z" fill="#FB7844"/>
<path d="M192.816 50.001H184.355V58.4615H192.816V50.001Z" fill="#FB7844"/>
<path d="M192.816 41.541H184.355V50.0016H192.816V41.541Z" fill="#FB7844"/>
<path d="M192.816 33.0635H184.355V41.524H192.816V33.0635Z" fill="#FB7844"/>
<path d="M201.225 83.8945H192.765V92.3551H201.225V83.8945Z" fill="#E96739"/>
<path d="M201.225 75.417H192.765V83.8775H201.225V75.417Z" fill="#FB7844"/>
<path d="M201.225 66.9561H192.765V75.4166H201.225V66.9561Z" fill="#FB7844"/>
<path d="M201.225 58.4795H192.765V66.94H201.225V58.4795Z" fill="#FB7844"/>
<path d="M201.225 50.001H192.765V58.4615H201.225V50.001Z" fill="#FB7844"/>
<path d="M201.225 41.541H192.765V50.0016H201.225V41.541Z" fill="#FB7844"/>
<path d="M201.225 33.0635H192.765V41.524H201.225V33.0635Z" fill="#FB7844"/>
<path d="M201.225 24.6035H192.765V33.0641H201.225V24.6035Z" fill="#FB7844"/>
<path d="M192.816 24.6035H184.355V33.0641H192.816V24.6035Z" fill="#FB7844"/>
<path d="M209.634 83.8945H201.174V92.3551H209.634V83.8945Z" fill="#E96739"/>
<path d="M209.634 75.417H201.174V83.8775H209.634V75.417Z" fill="#FB7844"/>
<path d="M209.634 66.9561H201.174V75.4166H209.634V66.9561Z" fill="#FB7844"/>
<path d="M209.634 58.4795H201.174V66.94H209.634V58.4795Z" fill="#FB7844"/>
<path d="M209.634 50.001H201.174V58.4615H209.634V50.001Z" fill="#FB7844"/>
<path d="M209.634 41.541H201.174V50.0016H209.634V41.541Z" fill="#FB7844"/>
<path d="M209.634 33.0635H201.174V41.524H209.634V33.0635Z" fill="#FB7844"/>
<path d="M209.634 24.6035H201.174V33.0641H209.634V24.6035Z" fill="#FB7844"/>
<path d="M218.045 83.8945H209.585V92.3551H218.045V83.8945Z" fill="#E96739"/>
<path d="M218.045 75.417H209.585V83.8775H218.045V75.417Z" fill="#FB7844"/>
<path d="M218.045 66.9561H209.585V75.4166H218.045V66.9561Z" fill="#FB7844"/>
<path d="M218.045 58.4795H209.585V66.94H218.045V58.4795Z" fill="#FB7844"/>
<path d="M218.045 50.001H209.585V58.4615H218.045V50.001Z" fill="#FB7844"/>
<path d="M218.045 41.541H209.585V50.0016H218.045V41.541Z" fill="#FB7844"/>
<path d="M218.045 33.0635H209.585V41.524H218.045V33.0635Z" fill="#FB7844"/>
<path d="M218.045 24.6035H209.585V33.0641H218.045V24.6035Z" fill="#FB7844"/>
<path d="M226.455 83.8945H217.994V92.3551H226.455V83.8945Z" fill="#E96739"/>
<path d="M226.455 75.417H217.994V83.8775H226.455V75.417Z" fill="#FB7844"/>
<path d="M226.455 66.9561H217.994V75.4166H226.455V66.9561Z" fill="#FB7844"/>
<path d="M226.455 58.4795H217.994V66.94H226.455V58.4795Z" fill="#FB7844"/>
<path d="M226.455 50.001H217.994V58.4615H226.455V50.001Z" fill="#FB7844"/>
<path d="M226.455 41.541H217.994V50.0016H226.455V41.541Z" fill="#FB7844"/>
<path d="M226.455 33.0635H217.994V41.524H226.455V33.0635Z" fill="#FB7844"/>
<path d="M226.455 24.6035H217.994V33.0641H226.455V24.6035Z" fill="#FB7844"/>
<path d="M234.864 83.8945H226.403V92.3551H234.864V83.8945Z" fill="#E96739"/>
<path d="M234.864 75.417H226.403V83.8775H234.864V75.417Z" fill="#FB7844"/>
<path d="M234.864 66.9561H226.403V75.4166H234.864V66.9561Z" fill="#FB7844"/>
<path d="M234.864 58.4795H226.403V66.94H234.864V58.4795Z" fill="#FB7844"/>
<path d="M234.864 50.001H226.403V58.4615H234.864V50.001Z" fill="#FB7844"/>
<path d="M234.864 41.541H226.403V50.0016H234.864V41.541Z" fill="#FB7844"/>
<path d="M234.864 33.0635H226.403V41.524H234.864V33.0635Z" fill="#FB7844"/>
<path d="M243.273 83.8945H234.812V92.3551H243.273V83.8945Z" fill="#E96739"/>
<path d="M243.273 75.417H234.812V83.8775H243.273V75.417Z" fill="#FB7844"/>
<path d="M243.273 66.9561H234.812V75.4166H243.273V66.9561Z" fill="#FB7844"/>
<path d="M243.273 58.4795H234.812V66.94H243.273V58.4795Z" fill="#FB7844"/>
<path d="M243.273 50.001H234.812V58.4615H243.273V50.001Z" fill="#FB7844"/>
<path d="M243.273 41.541H234.812V50.0016H243.273V41.541Z" fill="#FB7844"/>
<path d="M251.684 75.417H243.224V83.8775H251.684V75.417Z" fill="#E96739"/>
<path d="M251.684 66.9561H243.224V75.4166H251.684V66.9561Z" fill="#E96739"/>
<path d="M251.684 58.4795H243.224V66.94H251.684V58.4795Z" fill="#E96739"/>
<path d="M251.684 50.001H243.224V58.4615H251.684V50.001Z" fill="#E96739"/>
<path d="M117.111 83.8945H108.65V92.3551H117.111V83.8945Z" fill="#E96739"/>
<path d="M117.111 75.417H108.65V83.8775H117.111V75.417Z" fill="#FFAD91"/>
<path d="M117.111 66.9561H108.65V75.4166H117.111V66.9561Z" fill="#FB7844"/>
<path d="M117.111 58.4795H108.65V66.94H117.111V58.4795Z" fill="#FFAD91"/>
<path d="M117.111 50.001H108.65V58.4615H117.111V50.001Z" fill="#FFAD91"/>
<path d="M117.111 41.541H108.65V50.0016H117.111V41.541Z" fill="black"/>
<path d="M108.718 83.8945H100.258V92.3551H108.718V83.8945Z" fill="black"/>
<path d="M108.718 75.417H100.258V83.8775H108.718V75.417Z" fill="black"/>
<path d="M108.718 66.9561H100.258V75.4166H108.718V66.9561Z" fill="black"/>
<path d="M108.718 58.4795H100.258V66.94H108.718V58.4795Z" fill="black"/>
<path d="M108.718 50.001H100.258V58.4615H108.718V50.001Z" fill="black"/>
<path d="M260.093 126.231H251.633V134.692H260.093V126.231Z" fill="black"/>
<path d="M260.093 117.771H251.633V126.231H260.093V117.771Z" fill="black"/>
<path d="M260.093 109.293H251.633V117.754H260.093V109.293Z" fill="black"/>
<path d="M260.093 75.417H251.633V83.8775H260.093V75.417Z" fill="black"/>
<path d="M260.093 83.8945H251.633V92.3551H260.093V83.8945Z" fill="black"/>
<path d="M260.093 92.3555H251.633V100.816H260.093V92.3555Z" fill="black"/>
<path d="M260.093 66.9561H251.633V75.4166H260.093V66.9561Z" fill="black"/>
<path d="M260.093 58.4795H251.633V66.94H260.093V58.4795Z" fill="black"/>
<path d="M260.093 50.001H251.633V58.4615H260.093V50.001Z" fill="black"/>
<path d="M200.937 185.319H209.347V176.91H200.937V185.319Z" fill="white"/>
<path d="M192.561 185.319H200.971V176.91H192.561V185.319Z" fill="white"/>
<path d="M184.203 185.319H192.612V176.91H184.203V185.319Z" fill="white"/>
<path d="M175.827 185.319H184.236V176.91H175.827V185.319Z" fill="white"/>
<path d="M159.09 185.319H167.5V176.91H159.09V185.319Z" fill="white"/>
<path d="M150.733 185.319H159.143V176.91H150.733V185.319Z" fill="white"/>
<path d="M167.467 185.319H175.877V176.91H167.467V185.319Z" fill="white"/>
<path d="M142.356 185.319H150.766V176.91H142.356V185.319Z" fill="white"/>
<path d="M200.937 193.729H209.347V185.32H200.937V193.729Z" fill="black"/>
<path opacity="0.3" d="M192.561 193.729H200.971V185.32H192.561V193.729Z" fill="black"/>
<path opacity="0.3" d="M184.203 193.729H192.612V185.32H184.203V193.729Z" fill="black"/>
<path opacity="0.3" d="M175.827 193.729H184.236V185.32H175.827V193.729Z" fill="black"/>
<path opacity="0.3" d="M167.467 193.729H175.877V185.32H167.467V193.729Z" fill="black"/>
<path opacity="0.3" d="M159.09 193.729H167.5V185.32H159.09V193.729Z" fill="black"/>
<path opacity="0.3" d="M150.733 193.729H159.143V185.32H150.733V193.729Z" fill="black"/>
<path opacity="0.3" d="M142.356 193.729H150.766V185.32H142.356V193.729Z" fill="black"/>
<path d="M133.98 193.729H142.39V185.32H133.98V193.729Z" fill="black"/>
<path d="M209.295 185.319H217.705V176.91H209.295V185.319Z" fill="white"/>
<path d="M217.671 185.319H226.081V176.91H217.671V185.319Z" fill="white"/>
<path d="M133.98 185.319H142.39V176.91H133.98V185.319Z" fill="white"/>
<path d="M200.937 176.91H209.347V168.5H200.937V176.91Z" fill="black"/>
<path d="M192.561 176.91H200.971V168.5H192.561V176.91Z" fill="black"/>
<path d="M184.203 176.91H192.612V168.5H184.203V176.91Z" fill="black"/>
<path d="M175.827 176.91H184.236V168.5H175.827V176.91Z" fill="black"/>
<path d="M159.09 176.91H167.5V168.5H159.09V176.91Z" fill="black"/>
<path d="M150.733 176.91H159.143V168.5H150.733V176.91Z" fill="black"/>
<path d="M167.467 176.91H175.877V168.5H167.467V176.91Z" fill="black"/>
<path d="M142.356 176.91H150.766V168.5H142.356V176.91Z" fill="black"/>
<path d="M209.295 176.91H217.705V168.5H209.295V176.91Z" fill="black"/>
<path d="M217.671 176.91H226.081V168.5H217.671V176.91Z" fill="black"/>
<path d="M133.98 176.91H142.39V168.5H133.98V176.91Z" fill="black"/>
<path d="M200.937 193.729H209.347V185.32H200.937V193.729Z" fill="black"/>
<path d="M192.561 193.729H200.971V185.32H192.561V193.729Z" fill="black"/>
<path d="M184.203 193.729H192.612V185.32H184.203V193.729Z" fill="black"/>
<path d="M175.827 193.729H184.236V185.32H175.827V193.729Z" fill="black"/>
<path d="M159.09 193.729H167.5V185.32H159.09V193.729Z" fill="black"/>
<path d="M150.733 193.729H159.143V185.32H150.733V193.729Z" fill="black"/>
<path d="M167.467 193.729H175.877V185.32H167.467V193.729Z" fill="black"/>
<path d="M142.356 193.729H150.766V185.32H142.356V193.729Z" fill="black"/>
<path d="M133.98 193.729H142.39V185.32H133.98V193.729Z" fill="black"/>
<path d="M209.295 193.729H217.705V185.32H209.295V193.729Z" fill="black"/>
<path d="M217.671 193.729H226.081V185.32H217.671V193.729Z" fill="black"/>
<path d="M226.015 185.319H234.425V176.91H226.015V185.319Z" fill="white"/>
<path d="M226.015 176.91H234.425V168.5H226.015V176.91Z" fill="black"/>
<path d="M226.015 193.729H234.425V185.32H226.015V193.729Z" fill="black"/>
<path d="M234.389 185.319H242.799V176.91H234.389V185.319Z" fill="white"/>
<path d="M234.389 176.91H242.799V168.5H234.389V176.91Z" fill="black"/>
<path d="M234.389 193.729H242.799V185.32H234.389V193.729Z" fill="black"/>
<path d="M242.766 185.319H251.176V176.91H242.766V185.319Z" fill="black"/>
<path d="M133.98 193.729H142.39V185.32H133.98V193.729Z" fill="black"/>
<path d="M125.621 185.319H134.031V176.91H125.621V185.319Z" fill="white"/>
<path d="M125.621 176.91H134.031V168.5H125.621V176.91Z" fill="black"/>
<path d="M125.621 193.729H134.031V185.32H125.621V193.729Z" fill="black"/>
<path d="M117.262 185.319H125.672V176.91H117.262V185.319Z" fill="white"/>
<path d="M117.262 176.91H125.672V168.5H117.262V176.91Z" fill="black"/>
<path d="M117.262 193.729H125.672V185.32H117.262V193.729Z" fill="black"/>
<path d="M108.886 185.319H117.296V176.91H108.886V185.319Z" fill="black"/>
<path d="M125.623 202.325H117.162V210.786H125.623V202.325Z" fill="#51BB6B"/>
<path d="M117.365 193.864H108.904V202.325H117.365V193.864Z" fill="#F6F2EC"/>
<path d="M117.365 185.388H108.904V193.848H117.365V185.388Z" fill="#36984B"/>
<path d="M108.886 185.37H100.426V193.831H108.886V185.37Z" fill="#51BB6B"/>
<path d="M108.886 176.893H100.426V185.353H108.886V176.893Z" fill="#51BB6B"/>
<path d="M117.365 176.893H108.904V185.353H117.365V176.893Z" fill="#36984B"/>
<path d="M125.623 210.785H117.162V219.246H125.623V210.785Z" fill="#DAD6D0"/>
<path d="M117.365 210.785H108.904V219.246H117.365V210.785Z" fill="#DAD6D0"/>
<path d="M92.2203 168.415H83.7598V176.876H92.2203V168.415Z" fill="#FB7844"/>
<path d="M92.2203 159.972H83.7598V168.432H92.2203V159.972Z" fill="#FB7844"/>
<path d="M92.2203 151.478H83.7598V159.938H92.2203V151.478Z" fill="#FB7844"/>
<path d="M83.9625 168.415H75.502V176.876H83.9625V168.415Z" fill="#FB7844"/>
<path d="M75.4859 168.415H67.0254V176.876H75.4859V168.415Z" fill="#FB7844"/>
<path d="M83.9625 159.972H75.502V168.432H83.9625V159.972Z" fill="#FB7844"/>
<path d="M83.9625 151.478H75.502V159.938H83.9625V151.478Z" fill="#FB7844"/>
<path d="M75.4859 159.972H67.0254V168.432H75.4859V159.972Z" fill="#FB7844"/>
<path d="M75.4859 151.478H67.0254V159.938H75.4859V151.478Z" fill="#FB7844"/>
<path d="M75.4859 143.372H67.0254V151.833H75.4859V143.372Z" fill="#FB7844"/>
<path d="M67.025 151.478H58.5645V159.938H67.025V151.478Z" fill="#FB7844"/>
<path d="M100.545 176.893H92.084V185.353H100.545V176.893Z" fill="#FB7844"/>
<path d="M92.2203 176.893H83.7598V185.353H92.2203V176.893Z" fill="#FB7844"/>
<path d="M83.9625 176.893H75.502V185.353H83.9625V176.893Z" fill="#FB7844"/>
<path d="M100.545 168.415H92.084V176.876H100.545V168.415Z" fill="#FB7844"/>
<path d="M100.545 159.972H92.084V168.432H100.545V159.972Z" fill="#FB7844"/>
<path d="M58.7164 134.912H50.2559V143.373H58.7164V134.912Z" fill="#FB7844"/>
<path d="M50.441 126.451H41.9805V134.912H50.441V126.451Z" fill="#FB7844"/>
<path d="M41.9801 117.957H33.5195V126.418H41.9801V117.957Z" fill="#FB7844"/>
<path d="M67.025 143.372H58.5645V151.833H67.025V143.372Z" fill="#FB7844"/>
<path d="M67.025 134.912H58.5645V143.373H67.025V134.912Z" fill="#FB7844"/>
<path d="M58.7164 143.372H50.2559V151.833H58.7164V143.372Z" fill="#FB7844"/>
<path d="M25.1949 101.391H16.7344V109.851H25.1949V101.391Z" fill="#FB7844"/>
<path d="M16.9215 92.9473H8.46094V101.408H16.9215V92.9473Z" fill="#FB7844"/>
<path d="M8.46054 84.4355H0V92.8961H8.46054V84.4355Z" fill="#FB7844"/>
<path d="M33.5201 109.869H25.0596V118.33H33.5201V109.869Z" fill="#FB7844"/>
<path d="M117.365 202.343H108.904V210.803H117.365V202.343Z" fill="#DAD6D0"/>
<path d="M108.886 193.83H100.426V202.291H108.886V193.83Z" fill="#36984B"/>
<path d="M100.545 193.83H92.084V202.291H100.545V193.83Z" fill="#36984B"/>
<path d="M100.545 185.37H92.084V193.831H100.545V185.37Z" fill="#51BB6B"/>
<path d="M125.623 193.864H117.162V202.325H125.623V193.864Z" fill="#F6F2EC"/>
<path d="M117.111 134.708H108.65V143.169H117.111V134.708Z" fill="black"/>
</svg>
