<svg width="auto" height="auto" viewBox="0 0 282 339" fill="none" xmlns="http://www.w3.org/2000/svg">
<path d="M223.248 272.949H231.537V264.66H223.248V272.949Z" fill="#341A1C"/>
<path d="M223.248 264.66H231.537V256.371H223.248V264.66Z" fill="#341A1C"/>
<path d="M215.011 272.949H223.3V264.66H215.011V272.949Z" fill="#341A1C"/>
<path d="M215.011 264.66H223.3V256.371H215.011V264.66Z" fill="#341A1C"/>
<path d="M206.769 272.949H215.059V264.66H206.769V272.949Z" fill="#230C0F"/>
<path d="M206.769 264.66H215.059V256.371H206.769V264.66Z" fill="#230C0F"/>
<path d="M198.532 272.949H206.821V264.66H198.532V272.949Z" fill="#230C0F"/>
<path d="M198.532 264.66H206.821V256.371H198.532V264.66Z" fill="#341A1C"/>
<path d="M190.292 272.949H198.581V264.66H190.292V272.949Z" fill="#341A1C"/>
<path d="M190.292 264.66H198.581V256.371H190.292V264.66Z" fill="#341A1C"/>
<path d="M182.051 272.949H190.34V264.66H182.051V272.949Z" fill="#341A1C"/>
<path d="M182.051 264.66H190.34V256.371H182.051V264.66Z" fill="#341A1C"/>
<path d="M173.83 272.949H182.119V264.66H173.83V272.949Z" fill="#341A1C"/>
<path d="M173.83 264.66H182.119V256.371H173.83V264.66Z" fill="#341A1C"/>
<path d="M165.589 272.949H173.878V264.66H165.589V272.949Z" fill="#341A1C"/>
<path d="M165.589 264.66H173.878V256.371H165.589V264.66Z" fill="#341A1C"/>
<path d="M157.348 272.949H165.638V264.66H157.348V272.949Z" fill="#341A1C"/>
<path d="M157.348 264.66H165.638V256.371H157.348V264.66Z" fill="#230C0F"/>
<path d="M149.11 272.949H157.399V264.66H149.11V272.949Z" fill="#341A1C"/>
<path d="M149.11 264.66H157.399V256.371H149.11V264.66Z" fill="#230C0F"/>
<path d="M140.87 272.949H149.159V264.66H140.87V272.949Z" fill="#341A1C"/>
<path d="M140.87 264.66H149.159V256.371H140.87V264.66Z" fill="#230C0F"/>
<path d="M132.633 272.949H140.922V264.66H132.633V272.949Z" fill="#341A1C"/>
<path d="M132.633 264.66H140.922V256.371H132.633V264.66Z" fill="#230C0F"/>
<path d="M124.376 272.949H132.665V264.66H124.376V272.949Z" fill="#341A1C"/>
<path d="M124.376 264.66H132.665V256.371H124.376V264.66Z" fill="#230C0F"/>
<path d="M116.135 272.949H124.424V264.66H116.135V272.949Z" fill="#341A1C"/>
<path d="M116.135 264.66H124.424V256.371H116.135V264.66Z" fill="#230C0F"/>
<path d="M107.894 272.949H116.184V264.66H107.894V272.949Z" fill="#341A1C"/>
<path d="M107.894 264.66H116.184V256.371H107.894V264.66Z" fill="#341A1C"/>
<path d="M99.656 272.949H107.945V264.66H99.656V272.949Z" fill="#341A1C"/>
<path d="M99.656 264.66H107.945V256.371H99.656V264.66Z" fill="#341A1C"/>
<path d="M231.488 272.949H239.777V264.66H231.488V272.949Z" fill="#341A1C"/>
<path d="M231.488 264.66H239.777V256.371H231.488V264.66Z" fill="#341A1C"/>
<path d="M239.729 272.949H248.019V264.66H239.729V272.949Z" fill="#341A1C"/>
<path d="M248.003 272.949H256.292V264.66H248.003V272.949Z" fill="#341A1C"/>
<path d="M239.729 264.66H248.019V256.371H239.729V264.66Z" fill="#341A1C"/>
<path d="M91.4158 272.949H99.7051V264.66H91.4158V272.949Z" fill="#341A1C"/>
<path d="M91.4158 264.66H99.7051V256.371H91.4158V264.66Z" fill="#341A1C"/>
<path d="M223.248 289.578H231.537V281.289H223.248V289.578Z" fill="#341A1C"/>
<path d="M223.248 281.271H231.537V272.981H223.248V281.271Z" fill="#341A1C"/>
<path d="M215.011 289.578H223.3V281.289H215.011V289.578Z" fill="#341A1C"/>
<path d="M215.011 281.271H223.3V272.981H215.011V281.271Z" fill="#341A1C"/>
<path d="M206.769 289.578H215.059V281.289H206.769V289.578Z" fill="#341A1C"/>
<path d="M206.769 281.271H215.059V272.981H206.769V281.271Z" fill="#230C0F"/>
<path d="M198.532 289.578H206.821V281.289H198.532V289.578Z" fill="#F7D939"/>
<path d="M198.532 281.271H206.821V272.981H198.532V281.271Z" fill="#230C0F"/>
<path d="M190.292 289.578H198.581V281.289H190.292V289.578Z" fill="#F7D939"/>
<path d="M190.292 281.271H198.581V272.981H190.292V281.271Z" fill="#D8B525"/>
<path d="M182.051 289.578H190.34V281.289H182.051V289.578Z" fill="#341A1C"/>
<path d="M182.051 281.271H190.34V272.981H182.051V281.271Z" fill="#230C0F"/>
<path d="M173.83 289.578H182.119V281.289H173.83V289.578Z" fill="#341A1C"/>
<path d="M173.83 281.271H182.119V272.981H173.83V281.271Z" fill="#230C0F"/>
<path d="M165.589 289.578H173.878V281.289H165.589V289.578Z" fill="#F7D939"/>
<path d="M165.589 281.271H173.878V272.981H165.589V281.271Z" fill="#230C0F"/>
<path d="M157.348 289.578H165.638V281.289H157.348V289.578Z" fill="#341A1C"/>
<path d="M157.348 281.271H165.638V272.981H157.348V281.271Z" fill="#F7D939"/>
<path d="M149.11 289.578H157.399V281.289H149.11V289.578Z" fill="#341A1C"/>
<path d="M149.11 281.271H157.399V272.981H149.11V281.271Z" fill="#341A1C"/>
<path d="M140.87 289.578H149.159V281.289H140.87V289.578Z" fill="#341A1C"/>
<path d="M140.87 281.271H149.159V272.981H140.87V281.271Z" fill="#341A1C"/>
<path d="M132.633 289.578H140.922V281.289H132.633V289.578Z" fill="#341A1C"/>
<path d="M132.633 281.271H140.922V272.981H132.633V281.271Z" fill="#F7D939"/>
<path d="M124.376 289.578H132.665V281.289H124.376V289.578Z" fill="#F7D939"/>
<path d="M124.376 281.271H132.665V272.981H124.376V281.271Z" fill="#F7D939"/>
<path d="M116.135 289.578H124.424V281.289H116.135V289.578Z" fill="#341A1C"/>
<path d="M116.135 281.271H124.424V272.981H116.135V281.271Z" fill="#341A1C"/>
<path d="M107.894 289.578H116.184V281.289H107.894V289.578Z" fill="#341A1C"/>
<path d="M107.894 281.271H116.184V272.981H107.894V281.271Z" fill="#341A1C"/>
<path d="M99.656 289.578H107.945V281.289H99.656V289.578Z" fill="#F7D939"/>
<path d="M99.656 281.271H107.945V272.981H99.656V281.271Z" fill="#F7D939"/>
<path d="M231.488 289.578H239.777V281.289H231.488V289.578Z" fill="#341A1C"/>
<path d="M231.488 281.271H239.777V272.981H231.488V281.271Z" fill="#341A1C"/>
<path d="M239.729 289.578H248.019V281.289H239.729V289.578Z" fill="#230C0F"/>
<path d="M239.729 281.271H248.019V272.981H239.729V281.271Z" fill="#230C0F"/>
<path d="M256.292 272.949H264.581V264.66H256.292V272.949Z" fill="#341A1C"/>
<path d="M248.018 264.66H256.308V256.371H248.018V264.66Z" fill="black"/>
<path d="M223.248 256.371H231.537V248.082H223.248V256.371Z" fill="black"/>
<path d="M215.011 256.371H223.3V248.082H215.011V256.371Z" fill="black"/>
<path d="M206.769 256.371H215.059V248.082H206.769V256.371Z" fill="black"/>
<path d="M198.532 256.371H206.821V248.082H198.532V256.371Z" fill="black"/>
<path d="M190.292 256.371H198.581V248.082H190.292V256.371Z" fill="black"/>
<path d="M182.051 256.371H190.34V248.082H182.051V256.371Z" fill="black"/>
<path d="M173.83 256.371H182.119V248.082H173.83V256.371Z" fill="black"/>
<path d="M165.589 256.371H173.878V248.082H165.589V256.371Z" fill="black"/>
<path d="M157.348 256.371H165.638V248.082H157.348V256.371Z" fill="black"/>
<path d="M149.11 256.371H157.399V248.082H149.11V256.371Z" fill="black"/>
<path d="M140.87 256.371H149.159V248.082H140.87V256.371Z" fill="black"/>
<path d="M132.633 256.371H140.922V248.082H132.633V256.371Z" fill="black"/>
<path d="M124.376 256.371H132.665V248.082H124.376V256.371Z" fill="black"/>
<path d="M116.135 256.371H124.424V248.082H116.135V256.371Z" fill="black"/>
<path d="M107.894 256.371H116.184V248.082H107.894V256.371Z" fill="black"/>
<path d="M99.656 256.371H107.945V248.082H99.656V256.371Z" fill="black"/>
<path d="M231.488 256.371H239.777V248.082H231.488V256.371Z" fill="black"/>
<path d="M239.729 256.371H248.019V248.082H239.729V256.371Z" fill="black"/>
<path d="M91.4158 256.371H99.7051V248.082H91.4158V256.371Z" fill="black"/>
<path d="M83.1589 256.371H91.4482V248.082H83.1589V256.371Z" fill="black"/>
<path d="M223.248 297.867H231.537V289.578H223.248V297.867Z" fill="#341A1C"/>
<path d="M215.011 297.867H223.3V289.578H215.011V297.867Z" fill="#341A1C"/>
<path d="M206.769 297.867H215.059V289.578H206.769V297.867Z" fill="#341A1C"/>
<path d="M198.532 297.867H206.821V289.578H198.532V297.867Z" fill="#341A1C"/>
<path d="M190.292 297.867H198.581V289.578H190.292V297.867Z" fill="#341A1C"/>
<path d="M182.051 297.867H190.34V289.578H182.051V297.867Z" fill="#341A1C"/>
<path d="M173.83 297.867H182.119V289.578H173.83V297.867Z" fill="#341A1C"/>
<path d="M165.589 297.867H173.878V289.578H165.589V297.867Z" fill="#341A1C"/>
<path d="M157.348 297.867H165.638V289.578H157.348V297.867Z" fill="#F7D939"/>
<path d="M149.11 297.867H157.399V289.578H149.11V297.867Z" fill="#341A1C"/>
<path d="M140.87 297.867H149.159V289.578H140.87V297.867Z" fill="#341A1C"/>
<path d="M132.633 297.867H140.922V289.578H132.633V297.867Z" fill="#F7D939"/>
<path d="M124.376 297.867H132.665V289.578H124.376V297.867Z" fill="#341A1C"/>
<path d="M116.135 297.867H124.424V289.578H116.135V297.867Z" fill="#341A1C"/>
<path d="M107.894 297.867H116.184V289.578H107.894V297.867Z" fill="#341A1C"/>
<path d="M99.656 297.867H107.945V289.578H99.656V297.867Z" fill="#F7D939"/>
<path d="M231.488 297.867H239.777V289.578H231.488V297.867Z" fill="#341A1C"/>
<path d="M239.729 297.867H248.019V289.578H239.729V297.867Z" fill="#230C0F"/>
<path d="M91.4158 297.867H99.7051V289.578H91.4158V297.867Z" fill="#341A1C"/>
<path d="M83.1589 297.867H91.4482V289.578H83.1589V297.867Z" fill="#341A1C"/>
<path d="M248.018 297.867H256.308V289.578H248.018V297.867Z" fill="black"/>
<path d="M223.248 305.99H231.537V297.701H223.248V305.99Z" fill="#341A1C"/>
<path d="M215.011 305.99H223.3V297.701H215.011V305.99Z" fill="#341A1C"/>
<path d="M206.769 305.99H215.059V297.701H206.769V305.99Z" fill="#341A1C"/>
<path d="M198.532 305.99H206.821V297.701H198.532V305.99Z" fill="#F7D939"/>
<path d="M190.292 305.99H198.581V297.701H190.292V305.99Z" fill="#341A1C"/>
<path d="M182.051 305.99H190.34V297.701H182.051V305.99Z" fill="#341A1C"/>
<path d="M173.83 305.99H182.119V297.701H173.83V305.99Z" fill="#341A1C"/>
<path d="M165.589 305.99H173.878V297.701H165.589V305.99Z" fill="#F7D939"/>
<path d="M157.348 305.99H165.638V297.701H157.348V305.99Z" fill="#341A1C"/>
<path d="M149.11 305.99H157.399V297.701H149.11V305.99Z" fill="#341A1C"/>
<path d="M140.87 305.99H149.159V297.701H140.87V305.99Z" fill="#341A1C"/>
<path d="M132.633 305.99H140.922V297.701H132.633V305.99Z" fill="#F7D939"/>
<path d="M124.376 305.99H132.665V297.701H124.376V305.99Z" fill="#F7D939"/>
<path d="M116.135 305.99H124.424V297.701H116.135V305.99Z" fill="#341A1C"/>
<path d="M107.894 305.99H116.184V297.701H107.894V305.99Z" fill="#341A1C"/>
<path d="M99.656 305.99H107.945V297.701H99.656V305.99Z" fill="#F7D939"/>
<path d="M231.488 305.99H239.777V297.701H231.488V305.99Z" fill="#341A1C"/>
<path d="M239.729 305.99H248.019V297.701H239.729V305.99Z" fill="#230C0F"/>
<path d="M91.4158 305.99H99.7051V297.701H91.4158V305.99Z" fill="#341A1C"/>
<path d="M83.1589 305.99H91.4482V297.701H83.1589V305.99Z" fill="#341A1C"/>
<path d="M248.018 305.99H256.308V297.701H248.018V305.99Z" fill="black"/>
<path d="M223.248 314.098H231.537V305.808H223.248V314.098Z" fill="#341A1C"/>
<path d="M215.011 314.098H223.3V305.808H215.011V314.098Z" fill="#341A1C"/>
<path d="M206.769 314.098H215.059V305.808H206.769V314.098Z" fill="#341A1C"/>
<path d="M198.532 314.098H206.821V305.808H198.532V314.098Z" fill="#341A1C"/>
<path d="M190.292 314.098H198.581V305.808H190.292V314.098Z" fill="#341A1C"/>
<path d="M182.051 314.098H190.34V305.808H182.051V314.098Z" fill="#341A1C"/>
<path d="M173.83 314.098H182.119V305.808H173.83V314.098Z" fill="#341A1C"/>
<path d="M165.589 314.098H173.878V305.808H165.589V314.098Z" fill="#341A1C"/>
<path d="M157.348 314.098H165.638V305.808H157.348V314.098Z" fill="#341A1C"/>
<path d="M149.11 314.098H157.399V305.808H149.11V314.098Z" fill="#341A1C"/>
<path d="M140.87 314.098H149.159V305.808H140.87V314.098Z" fill="#341A1C"/>
<path d="M132.633 314.098H140.922V305.808H132.633V314.098Z" fill="#341A1C"/>
<path d="M124.376 314.098H132.665V305.808H124.376V314.098Z" fill="#341A1C"/>
<path d="M116.135 314.098H124.424V305.808H116.135V314.098Z" fill="#341A1C"/>
<path d="M107.894 314.098H116.184V305.808H107.894V314.098Z" fill="#341A1C"/>
<path d="M99.656 314.098H107.945V305.808H99.656V314.098Z" fill="#341A1C"/>
<path d="M231.488 314.098H239.777V305.808H231.488V314.098Z" fill="#341A1C"/>
<path d="M239.729 314.098H248.019V305.808H239.729V314.098Z" fill="#230C0F"/>
<path d="M91.4158 314.098H99.7051V305.808H91.4158V314.098Z" fill="#341A1C"/>
<path d="M83.1589 314.098H91.4482V305.808H83.1589V314.098Z" fill="#341A1C"/>
<path d="M248.018 314.098H256.308V305.808H248.018V314.098Z" fill="black"/>
<path d="M223.248 322.221H231.537V313.931H223.248V322.221Z" fill="#341A1C"/>
<path d="M215.011 322.221H223.3V313.931H215.011V322.221Z" fill="#341A1C"/>
<path d="M206.769 322.221H215.059V313.931H206.769V322.221Z" fill="#341A1C"/>
<path d="M198.532 322.221H206.821V313.931H198.532V322.221Z" fill="#341A1C"/>
<path d="M190.292 322.221H198.581V313.931H190.292V322.221Z" fill="#341A1C"/>
<path d="M182.051 322.221H190.34V313.931H182.051V322.221Z" fill="#341A1C"/>
<path d="M173.83 322.221H182.119V313.931H173.83V322.221Z" fill="#341A1C"/>
<path d="M165.589 322.221H173.878V313.931H165.589V322.221Z" fill="#341A1C"/>
<path d="M157.348 322.221H165.638V313.931H157.348V322.221Z" fill="#341A1C"/>
<path d="M149.11 322.221H157.399V313.931H149.11V322.221Z" fill="#341A1C"/>
<path d="M140.87 322.221H149.159V313.931H140.87V322.221Z" fill="#341A1C"/>
<path d="M132.633 322.221H140.922V313.931H132.633V322.221Z" fill="#341A1C"/>
<path d="M124.376 322.221H132.665V313.931H124.376V322.221Z" fill="#341A1C"/>
<path d="M116.135 322.221H124.424V313.931H116.135V322.221Z" fill="#341A1C"/>
<path d="M107.894 322.221H116.184V313.931H107.894V322.221Z" fill="#341A1C"/>
<path d="M99.656 322.221H107.945V313.931H99.656V322.221Z" fill="#341A1C"/>
<path d="M231.488 322.221H239.777V313.931H231.488V322.221Z" fill="#341A1C"/>
<path d="M239.729 322.221H248.019V313.931H239.729V322.221Z" fill="#230C0F"/>
<path d="M91.4158 322.221H99.7051V313.931H91.4158V322.221Z" fill="#341A1C"/>
<path d="M83.1589 322.221H91.4482V313.931H83.1589V322.221Z" fill="#341A1C"/>
<path d="M248.018 322.221H256.308V313.931H248.018V322.221Z" fill="black"/>
<path d="M223.248 330.36H231.537V322.071H223.248V330.36Z" fill="#230C0F"/>
<path d="M215.011 330.36H223.3V322.071H215.011V330.36Z" fill="#230C0F"/>
<path d="M206.769 330.36H215.059V322.071H206.769V330.36Z" fill="#230C0F"/>
<path d="M198.532 330.36H206.821V322.071H198.532V330.36Z" fill="#230C0F"/>
<path d="M190.292 330.36H198.581V322.071H190.292V330.36Z" fill="#230C0F"/>
<path d="M182.051 330.36H190.34V322.071H182.051V330.36Z" fill="#230C0F"/>
<path d="M173.83 330.36H182.119V322.071H173.83V330.36Z" fill="#230C0F"/>
<path d="M165.589 330.36H173.878V322.071H165.589V330.36Z" fill="#230C0F"/>
<path d="M157.348 330.36H165.638V322.071H157.348V330.36Z" fill="#230C0F"/>
<path d="M149.11 330.36H157.399V322.071H149.11V330.36Z" fill="#230C0F"/>
<path d="M140.87 330.36H149.159V322.071H140.87V330.36Z" fill="#230C0F"/>
<path d="M132.633 330.36H140.922V322.071H132.633V330.36Z" fill="#230C0F"/>
<path d="M124.376 330.36H132.665V322.071H124.376V330.36Z" fill="#230C0F"/>
<path d="M116.135 330.36H124.424V322.071H116.135V330.36Z" fill="#230C0F"/>
<path d="M107.894 330.36H116.184V322.071H107.894V330.36Z" fill="#230C0F"/>
<path d="M99.656 330.36H107.945V322.071H99.656V330.36Z" fill="#230C0F"/>
<path d="M231.488 330.36H239.777V322.071H231.488V330.36Z" fill="#230C0F"/>
<path d="M239.729 330.36H248.019V322.071H239.729V330.36Z" fill="#230C0F"/>
<path d="M91.4158 330.36H99.7051V322.071H91.4158V330.36Z" fill="#230C0F"/>
<path d="M83.1589 330.36H91.4482V322.071H83.1589V330.36Z" fill="#230C0F"/>
<path d="M248.018 330.36H256.308V322.071H248.018V330.36Z" fill="black"/>
<path d="M223.248 338.485H231.537V330.196H223.248V338.485Z" fill="black"/>
<path d="M215.011 338.485H223.3V330.196H215.011V338.485Z" fill="black"/>
<path d="M206.769 338.485H215.059V330.196H206.769V338.485Z" fill="black"/>
<path d="M198.532 338.485H206.821V330.196H198.532V338.485Z" fill="black"/>
<path d="M190.292 338.485H198.581V330.196H190.292V338.485Z" fill="black"/>
<path d="M182.051 338.485H190.34V330.196H182.051V338.485Z" fill="black"/>
<path d="M173.83 338.485H182.119V330.196H173.83V338.485Z" fill="black"/>
<path d="M165.589 338.485H173.878V330.196H165.589V338.485Z" fill="black"/>
<path d="M157.348 338.485H165.638V330.196H157.348V338.485Z" fill="black"/>
<path d="M149.11 338.485H157.399V330.196H149.11V338.485Z" fill="black"/>
<path d="M140.87 338.485H149.159V330.196H140.87V338.485Z" fill="black"/>
<path d="M132.633 338.485H140.922V330.196H132.633V338.485Z" fill="black"/>
<path d="M124.376 338.485H132.665V330.196H124.376V338.485Z" fill="black"/>
<path d="M116.135 338.485H124.424V330.196H116.135V338.485Z" fill="black"/>
<path d="M107.894 338.485H116.184V330.196H107.894V338.485Z" fill="black"/>
<path d="M99.656 338.485H107.945V330.196H99.656V338.485Z" fill="black"/>
<path d="M231.488 338.485H239.777V330.196H231.488V338.485Z" fill="black"/>
<path d="M239.729 338.485H248.019V330.196H239.729V338.485Z" fill="black"/>
<path d="M91.4158 338.485H99.7051V330.196H91.4158V338.485Z" fill="black"/>
<path d="M83.1589 338.485H91.4482V330.196H83.1589V338.485Z" fill="black"/>
<path d="M248.018 289.578H256.308V281.289H248.018V289.578Z" fill="black"/>
<path d="M248.018 281.271H256.308V272.981H248.018V281.271Z" fill="#230C0F"/>
<path d="M256.292 264.66H264.581V256.371H256.292V264.66Z" fill="black"/>
<path d="M264.529 272.949H272.818V264.66H264.529V272.949Z" fill="#230C0F"/>
<path d="M272.803 272.949H281.092V264.66H272.803V272.949Z" fill="black"/>
<path d="M264.529 264.66H272.818V256.371H264.529V264.66Z" fill="black"/>
<path d="M272.803 264.66H281.092V256.371H272.803V264.66Z" fill="black"/>
<path d="M256.292 281.271H264.581V272.981H256.292V281.271Z" fill="#230C0F"/>
<path d="M264.529 281.271H272.818V272.981H264.529V281.271Z" fill="black"/>
<path d="M256.292 289.578H264.581V281.289H256.292V289.578Z" fill="black"/>
<path d="M264.529 289.578H272.818V281.289H264.529V289.578Z" fill="black"/>
<path d="M91.4158 289.578H99.7051V281.289H91.4158V289.578Z" fill="#341A1C"/>
<path d="M91.4158 281.271H99.7051V272.981H91.4158V281.271Z" fill="#F7D939"/>
<path d="M83.1589 272.949H91.4482V264.66H83.1589V272.949Z" fill="#341A1C"/>
<path d="M83.1589 264.66H91.4482V256.371H83.1589V264.66Z" fill="#341A1C"/>
<path d="M83.1589 289.578H91.4482V281.289H83.1589V289.578Z" fill="#341A1C"/>
<path d="M83.1589 281.271H91.4482V272.981H83.1589V281.271Z" fill="#341A1C"/>
<path d="M75.0213 256.371H83.3105V248.082H75.0213V256.371Z" fill="black"/>
<path d="M75.0213 297.867H83.3105V289.578H75.0213V297.867Z" fill="#341A1C"/>
<path d="M75.0213 305.99H83.3105V297.701H75.0213V305.99Z" fill="#341A1C"/>
<path d="M75.0213 314.098H83.3105V305.808H75.0213V314.098Z" fill="#341A1C"/>
<path d="M75.0213 322.221H83.3105V313.931H75.0213V322.221Z" fill="#341A1C"/>
<path d="M75.0213 330.36H83.3105V322.071H75.0213V330.36Z" fill="#230C0F"/>
<path d="M75.0213 338.485H83.3105V330.196H75.0213V338.485Z" fill="black"/>
<path d="M75.0213 272.949H83.3105V264.66H75.0213V272.949Z" fill="#341A1C"/>
<path d="M75.0213 264.66H83.3105V256.371H75.0213V264.66Z" fill="#341A1C"/>
<path d="M75.0213 289.578H83.3105V281.289H75.0213V289.578Z" fill="#341A1C"/>
<path d="M75.0213 281.271H83.3105V272.981H75.0213V281.271Z" fill="#341A1C"/>
<path d="M66.8972 256.371H75.1865V248.082H66.8972V256.371Z" fill="black"/>
<path d="M66.8972 297.867H75.1865V289.578H66.8972V297.867Z" fill="#341A1C"/>
<path d="M66.8972 305.99H75.1865V297.701H66.8972V305.99Z" fill="#341A1C"/>
<path d="M66.8972 314.098H75.1865V305.808H66.8972V314.098Z" fill="#341A1C"/>
<path d="M66.8972 322.221H75.1865V313.931H66.8972V322.221Z" fill="#341A1C"/>
<path d="M66.8972 330.36H75.1865V322.071H66.8972V330.36Z" fill="#230C0F"/>
<path d="M66.8972 338.485H75.1865V330.196H66.8972V338.485Z" fill="black"/>
<path d="M66.8972 272.949H75.1865V264.66H66.8972V272.949Z" fill="#341A1C"/>
<path d="M66.8972 264.66H75.1865V256.371H66.8972V264.66Z" fill="#341A1C"/>
<path d="M66.8972 289.578H75.1865V281.289H66.8972V289.578Z" fill="#341A1C"/>
<path d="M66.8972 281.271H75.1865V272.981H66.8972V281.271Z" fill="#341A1C"/>
<path d="M58.7576 256.371H67.0469V248.082H58.7576V256.371Z" fill="black"/>
<path d="M58.7576 297.867H67.0469V289.578H58.7576V297.867Z" fill="#341A1C"/>
<path d="M58.7576 305.99H67.0469V297.701H58.7576V305.99Z" fill="#341A1C"/>
<path d="M58.7576 314.098H67.0469V305.808H58.7576V314.098Z" fill="#341A1C"/>
<path d="M58.7576 322.221H67.0469V313.931H58.7576V322.221Z" fill="#341A1C"/>
<path d="M58.7576 330.36H67.0469V322.071H58.7576V330.36Z" fill="#230C0F"/>
<path d="M58.7576 338.485H67.0469V330.196H58.7576V338.485Z" fill="black"/>
<path d="M58.7576 272.949H67.0469V264.66H58.7576V272.949Z" fill="#341A1C"/>
<path d="M58.7576 264.66H67.0469V256.371H58.7576V264.66Z" fill="#341A1C"/>
<path d="M58.7576 289.578H67.0469V281.289H58.7576V289.578Z" fill="#341A1C"/>
<path d="M58.7576 281.271H67.0469V272.981H58.7576V281.271Z" fill="#341A1C"/>
<path d="M50.6326 297.867H58.9219V289.578H50.6326V297.867Z" fill="black"/>
<path d="M50.6326 305.99H58.9219V297.701H50.6326V305.99Z" fill="black"/>
<path d="M50.6326 314.098H58.9219V305.808H50.6326V314.098Z" fill="black"/>
<path d="M50.6326 322.221H58.9219V313.931H50.6326V322.221Z" fill="black"/>
<path d="M50.6326 330.36H58.9219V322.071H50.6326V330.36Z" fill="black"/>
<path d="M50.6326 272.949H58.9219V264.66H50.6326V272.949Z" fill="black"/>
<path d="M50.6326 264.66H58.9219V256.371H50.6326V264.66Z" fill="black"/>
<path d="M50.6326 289.578H58.9219V281.289H50.6326V289.578Z" fill="black"/>
<path d="M50.6326 281.271H58.9219V272.981H50.6326V281.271Z" fill="black"/>
<path d="M107.214 181.552H98.9248V189.841H107.214V181.552Z" fill="black"/>
<path d="M123.599 19.6614V11.4219H115.359V19.6614H123.599Z" fill="#DDF8FF"/>
<path d="M131.852 19.6458V11.4062H123.612V19.6458H131.852Z" fill="#DDF8FF"/>
<path d="M140.093 19.6614V11.4219H131.853V19.6614H140.093Z" fill="#DDF8FF"/>
<path d="M148.35 19.6458V11.4062H140.11V19.6458H148.35Z" fill="#DDF8FF"/>
<path d="M156.604 19.6614V11.4219H148.364V19.6614H156.604Z" fill="#DDF8FF"/>
<path d="M164.844 19.6458V11.4062H156.604V19.6458H164.844Z" fill="#DDF8FF"/>
<path d="M173.101 19.6614V11.4219H164.861V19.6614H173.101Z" fill="#DDF8FF"/>
<path d="M181.342 19.6458V11.4062H173.102V19.6458H181.342Z" fill="#DDF8FF"/>
<path d="M189.596 19.6458V11.4062H181.356V19.6458H189.596Z" fill="#DDF8FF"/>
<path d="M197.836 19.6458V11.4062H189.596V19.6458H197.836Z" fill="#DDF8FF"/>
<path d="M206.093 19.6458V11.4062H197.853V19.6458H206.093Z" fill="#DDF8FF"/>
<path d="M214.33 19.6458V11.4062H206.091V19.6458H214.33Z" fill="#DDF8FF"/>
<path d="M222.587 19.6458V11.4062H214.347V19.6458H222.587Z" fill="#DDF8FF"/>
<path d="M221.824 27.8174H230.063V19.5778H221.824V27.8174Z" fill="#DDF8FF"/>
<path d="M107.101 27.8177V19.5781H98.861V27.8177H107.101Z" fill="#DDF8FF"/>
<path d="M115.357 27.8021V19.5625H107.118V27.8021H115.357Z" fill="#DDF8FF"/>
<path d="M115.357 24.7015V16.4619H107.118V24.7015H115.357Z" fill="#DDF8FF"/>
<path d="M123.599 27.8177V19.5781H115.359V27.8177H123.599Z" fill="#DDF8FF"/>
<path d="M131.852 27.802V19.5625H123.612V27.802H131.852Z" fill="#DDF8FF"/>
<path d="M140.093 27.8177V19.5781H131.853V27.8177H140.093Z" fill="#DDF8FF"/>
<path d="M148.35 27.802V19.5625H140.11V27.802H148.35Z" fill="#DDF8FF"/>
<path d="M156.604 27.8177V19.5781H148.364V27.8177H156.604Z" fill="#DDF8FF"/>
<path d="M164.844 27.8021V19.5625H156.604V27.8021H164.844Z" fill="#DDF8FF"/>
<path d="M173.101 27.8177V19.5781H164.861V27.8177H173.101Z" fill="#DDF8FF"/>
<path d="M181.342 27.8021V19.5625H173.102V27.8021H181.342Z" fill="#DDF8FF"/>
<path d="M189.596 27.8021V19.5625H181.356V27.8021H189.596Z" fill="#DDF8FF"/>
<path d="M197.836 27.8021V19.5625H189.596V27.8021H197.836Z" fill="#DDF8FF"/>
<path d="M206.093 27.8021V19.5625H197.853V27.8021H206.093Z" fill="#DDF8FF"/>
<path d="M214.33 27.8021V19.5625H206.091V27.8021H214.33Z" fill="#DDF8FF"/>
<path d="M222.587 27.802V19.5625H214.347V27.802H222.587Z" fill="#DDF8FF"/>
<path d="M230.065 35.9756H238.305V27.736H230.065V35.9756Z" fill="#DDF8FF"/>
<path d="M221.824 35.9756H230.063V27.736H221.824V35.9756Z" fill="#DDF8FF"/>
<path d="M107.101 35.9749V27.7354H98.861V35.9749H107.101Z" fill="#DDF8FF"/>
<path d="M115.357 35.9583V27.7188H107.118V35.9583H115.357Z" fill="#DDF8FF"/>
<path d="M123.599 35.9749V27.7354H115.359V35.9749H123.599Z" fill="#DDF8FF"/>
<path d="M131.852 35.9583V27.7188H123.612V35.9583H131.852Z" fill="#DDF8FF"/>
<path d="M140.093 35.9749V27.7354H131.853V35.9749H140.093Z" fill="#DDF8FF"/>
<path d="M148.35 35.9583V27.7188H140.11V35.9583H148.35Z" fill="#DDF8FF"/>
<path d="M156.604 35.9749V27.7354H148.364V35.9749H156.604Z" fill="#DDF8FF"/>
<path d="M164.844 35.9583V27.7188H156.604V35.9583H164.844Z" fill="#DDF8FF"/>
<path d="M173.101 35.9749V27.7354H164.861V35.9749H173.101Z" fill="#DDF8FF"/>
<path d="M181.342 35.9583V27.7188H173.102V35.9583H181.342Z" fill="#DDF8FF"/>
<path d="M189.596 35.9583V27.7188H181.356V35.9583H189.596Z" fill="#DDF8FF"/>
<path d="M197.836 35.9583V27.7188H189.596V35.9583H197.836Z" fill="#DDF8FF"/>
<path d="M206.093 35.9583V27.7188H197.853V35.9583H206.093Z" fill="#DDF8FF"/>
<path d="M214.33 35.9583V27.7188H206.091V35.9583H214.33Z" fill="#DDF8FF"/>
<path d="M222.587 35.9583V27.7188H214.347V35.9583H222.587Z" fill="#DDF8FF"/>
<path d="M230.065 44.1328H238.305V35.8933H230.065V44.1328Z" fill="#DDF8FF"/>
<path d="M221.824 44.1328H230.063V35.8933H221.824V44.1328Z" fill="#DDF8FF"/>
<path d="M238.27 44.1328H246.51V35.8933H238.27V44.1328Z" fill="#DDF8FF"/>
<path d="M98.8438 44.1146V35.875H90.6042V44.1146H98.8438Z" fill="#DDF8FF"/>
<path d="M107.101 44.1312V35.8916H98.861V44.1312H107.101Z" fill="#DDF8FF"/>
<path d="M115.357 44.1146V35.875H107.118V44.1146H115.357Z" fill="#DDF8FF"/>
<path d="M123.599 44.1312V35.8916H115.359V44.1312H123.599Z" fill="#DDF8FF"/>
<path d="M131.852 44.1145V35.875H123.612V44.1145H131.852Z" fill="#DDF8FF"/>
<path d="M140.093 44.1312V35.8916H131.853V44.1312H140.093Z" fill="#DDF8FF"/>
<path d="M148.35 44.1145V35.875H140.11V44.1145H148.35Z" fill="#DDF8FF"/>
<path d="M156.587 44.1312V35.8916H148.347V44.1312H156.587Z" fill="#DDF8FF"/>
<path d="M164.844 44.1146V35.875H156.604V44.1146H164.844Z" fill="#DDF8FF"/>
<path d="M173.101 44.1312V35.8916H164.861V44.1312H173.101Z" fill="#DDF8FF"/>
<path d="M181.342 44.1146V35.875H173.102V44.1146H181.342Z" fill="#DDF8FF"/>
<path d="M189.596 44.1146V35.875H181.356V44.1146H189.596Z" fill="#DDF8FF"/>
<path d="M197.836 44.1146V35.875H189.596V44.1146H197.836Z" fill="#DDF8FF"/>
<path d="M206.093 44.1146V35.875H197.853V44.1146H206.093Z" fill="#DDF8FF"/>
<path d="M214.33 44.1146V35.875H206.091V44.1146H214.33Z" fill="#DDF8FF"/>
<path d="M222.587 44.1145V35.875H214.347V44.1145H222.587Z" fill="#DDF8FF"/>
<path d="M230.065 52.2891H238.305V44.0495H230.065V52.2891Z" fill="#DDF8FF"/>
<path d="M221.824 52.2891H230.063V44.0495H221.824V52.2891Z" fill="#DDF8FF"/>
<path d="M238.27 52.2891H246.51V44.0495H238.27V52.2891Z" fill="#DDF8FF"/>
<path d="M246.495 52.2891H254.734V44.0495H246.495V52.2891Z" fill="#DDF8FF"/>
<path d="M90.5898 52.2718V44.0322H82.3503V52.2718H90.5898Z" fill="#DDF8FF"/>
<path d="M123.599 16.4944V8.25488H115.359V16.4944H123.599Z" fill="#DDF8FF"/>
<path d="M131.852 16.4788V8.23926H123.612V16.4788H131.852Z" fill="#DDF8FF"/>
<path d="M140.093 16.4788V8.23926H131.853V16.4788H140.093Z" fill="#DDF8FF"/>
<path d="M148.35 16.4788V8.23926H140.11V16.4788H148.35Z" fill="#DDF8FF"/>
<path d="M156.587 16.4788V8.23926H148.347V16.4788H156.587Z" fill="#DDF8FF"/>
<path d="M164.844 16.4788V8.23926H156.604V16.4788H164.844Z" fill="#DDF8FF"/>
<path d="M173.085 16.4788V8.23926H164.845V16.4788H173.085Z" fill="#DDF8FF"/>
<path d="M181.342 16.4788V8.23926H173.102V16.4788H181.342Z" fill="#DDF8FF"/>
<path d="M189.579 16.4788V8.23926H181.34V16.4788H189.579Z" fill="#DDF8FF"/>
<path d="M197.836 16.4788V8.23926H189.596V16.4788H197.836Z" fill="#DDF8FF"/>
<path d="M206.093 16.4788V8.23926H197.853V16.4788H206.093Z" fill="#DDF8FF"/>
<path d="M214.33 16.4788V8.23926H206.091V16.4788H214.33Z" fill="#DDF8FF"/>
<path d="M222.587 16.4788V8.23926H214.347V16.4788H222.587Z" fill="#DDF8FF"/>
<path d="M221.824 24.6523H230.063V16.4128H221.824V24.6523Z" fill="#DDF8FF"/>
<path d="M230.065 32.8096H238.305V24.57H230.065V32.8096Z" fill="#DDF8FF"/>
<path d="M238.27 40.9658H246.51V32.7263H238.27V40.9658Z" fill="#DDF8FF"/>
<path d="M98.8438 40.9485V32.709H90.6042V40.9485H98.8438Z" fill="#DDF8FF"/>
<path d="M246.495 49.1221H254.734V40.8825H246.495V49.1221Z" fill="#DDF8FF"/>
<path d="M90.5898 49.1048V40.8652H82.3503V49.1048H90.5898Z" fill="#DDF8FF"/>
<path d="M98.8438 52.2718V44.0322H90.6042V52.2718H98.8438Z" fill="#DDF8FF"/>
<path d="M107.101 52.2874V44.0479H98.861V52.2874H107.101Z" fill="#DDF8FF"/>
<path d="M115.357 52.2718V44.0322H107.118V52.2718H115.357Z" fill="#DDF8FF"/>
<path d="M123.599 52.2874V44.0479H115.359V52.2874H123.599Z" fill="#DDF8FF"/>
<path d="M131.852 52.2718V44.0322H123.612V52.2718H131.852Z" fill="#DDF8FF"/>
<path d="M140.093 52.2874V44.0479H131.853V52.2874H140.093Z" fill="#DDF8FF"/>
<path d="M148.35 52.2718V44.0322H140.11V52.2718H148.35Z" fill="#DDF8FF"/>
<path d="M156.587 52.2874V44.0479H148.347V52.2874H156.587Z" fill="#DDF8FF"/>
<path d="M164.844 52.2718V44.0322H156.604V52.2718H164.844Z" fill="#DDF8FF"/>
<path d="M173.101 52.2874V44.0479H164.861V52.2874H173.101Z" fill="#DDF8FF"/>
<path d="M181.342 52.2718V44.0322H173.102V52.2718H181.342Z" fill="#DDF8FF"/>
<path d="M189.596 52.2718V44.0322H181.356V52.2718H189.596Z" fill="#DDF8FF"/>
<path d="M197.836 52.2718V44.0322H189.596V52.2718H197.836Z" fill="#DDF8FF"/>
<path d="M206.093 52.2718V44.0322H197.853V52.2718H206.093Z" fill="#DDF8FF"/>
<path d="M214.33 52.2718V44.0322H206.091V52.2718H214.33Z" fill="#DDF8FF"/>
<path d="M222.587 52.2718V44.0322H214.347V52.2718H222.587Z" fill="#DDF8FF"/>
<path d="M230.065 60.4453H238.305V52.2058H230.065V60.4453Z" fill="#DDF8FF"/>
<path d="M221.824 60.4453H230.063V52.2058H221.824V60.4453Z" fill="#DDF8FF"/>
<path d="M238.27 60.4453H246.51V52.2058H238.27V60.4453Z" fill="#DDF8FF"/>
<path d="M246.495 60.4453H254.734V52.2058H246.495V60.4453Z" fill="#DDF8FF"/>
<path d="M90.5898 60.428V52.1885H82.3503V60.428H90.5898Z" fill="#DDF8FF"/>
<path d="M98.8438 60.428V52.1885H90.6042V60.428H98.8438Z" fill="#DDF8FF"/>
<path d="M107.101 60.4446V52.2051H98.861V60.4446H107.101Z" fill="#DDF8FF"/>
<path d="M115.357 60.428V52.1885H107.118V60.428H115.357Z" fill="#DDF8FF"/>
<path d="M123.599 60.4446V52.2051H115.359V60.4446H123.599Z" fill="#DDF8FF"/>
<path d="M131.852 60.428V52.1885H123.612V60.428H131.852Z" fill="#DDF8FF"/>
<path d="M140.093 60.4446V52.2051H131.853V60.4446H140.093Z" fill="#DDF8FF"/>
<path d="M148.35 60.428V52.1885H140.11V60.428H148.35Z" fill="#DDF8FF"/>
<path d="M156.587 60.4446V52.2051H148.347V60.4446H156.587Z" fill="#DDF8FF"/>
<path d="M164.844 60.428V52.1885H156.604V60.428H164.844Z" fill="#DDF8FF"/>
<path d="M173.101 60.4446V52.2051H164.861V60.4446H173.101Z" fill="#DDF8FF"/>
<path d="M181.342 60.428V52.1885H173.102V60.428H181.342Z" fill="#DDF8FF"/>
<path d="M189.596 60.428V52.1885H181.356V60.428H189.596Z" fill="#DDF8FF"/>
<path d="M197.836 60.428V52.1885H189.596V60.428H197.836Z" fill="#DDF8FF"/>
<path d="M206.093 60.428V52.1885H197.853V60.428H206.093Z" fill="#DDF8FF"/>
<path d="M214.33 60.428V52.1885H206.091V60.428H214.33Z" fill="#DDF8FF"/>
<path d="M222.587 60.428V52.1885H214.347V60.428H222.587Z" fill="#DDF8FF"/>
<path d="M230.065 68.6016H238.305V60.362H230.065V68.6016Z" fill="#DDF8FF"/>
<path d="M221.824 68.6016H230.063V60.362H221.824V68.6016Z" fill="#DDF8FF"/>
<path d="M238.27 68.6016H246.51V60.362H238.27V68.6016Z" fill="#DDF8FF"/>
<path d="M246.495 68.6016H254.734V60.362H246.495V68.6016Z" fill="#DDF8FF"/>
<path d="M90.5898 68.5843V60.3447H82.3503V68.5843H90.5898Z" fill="#DDF8FF"/>
<path d="M98.8438 68.5843V60.3447H90.6042V68.5843H98.8438Z" fill="#DDF8FF"/>
<path d="M107.101 68.6028V60.3633H98.861V68.6028H107.101Z" fill="#DDF8FF"/>
<path d="M115.357 68.5843V60.3447H107.118V68.5843H115.357Z" fill="#DDF8FF"/>
<path d="M123.599 68.6028V60.3633H115.359V68.6028H123.599Z" fill="#DDF8FF"/>
<path d="M131.852 68.5843V60.3447H123.612V68.5843H131.852Z" fill="#DDF8FF"/>
<path d="M140.093 68.6028V60.3633H131.853V68.6028H140.093Z" fill="#DDF8FF"/>
<path d="M148.35 68.5843V60.3447H140.11V68.5843H148.35Z" fill="#DDF8FF"/>
<path d="M156.587 68.6028V60.3633H148.347V68.6028H156.587Z" fill="#DDF8FF"/>
<path d="M164.844 68.5843V60.3447H156.604V68.5843H164.844Z" fill="#DDF8FF"/>
<path d="M173.101 68.6028V60.3633H164.861V68.6028H173.101Z" fill="#DDF8FF"/>
<path d="M181.342 68.5843V60.3447H173.102V68.5843H181.342Z" fill="#DDF8FF"/>
<path d="M189.596 68.5843V60.3447H181.356V68.5843H189.596Z" fill="#DDF8FF"/>
<path d="M197.836 68.5843V60.3447H189.596V68.5843H197.836Z" fill="#DDF8FF"/>
<path d="M206.093 68.5843V60.3447H197.853V68.5843H206.093Z" fill="#DDF8FF"/>
<path d="M214.33 68.5843V60.3447H206.091V68.5843H214.33Z" fill="#DDF8FF"/>
<path d="M222.587 68.5843V60.3447H214.347V68.5843H222.587Z" fill="#DDF8FF"/>
<path d="M230.065 76.7588H238.305V68.5192H230.065V76.7588Z" fill="#DDF8FF"/>
<path d="M221.824 76.7588H230.063V68.5192H221.824V76.7588Z" fill="#DDF8FF"/>
<path d="M238.27 76.7588H246.51V68.5192H238.27V76.7588Z" fill="#DDF8FF"/>
<path d="M246.495 76.7588H254.734V68.5192H246.495V76.7588Z" fill="#DDF8FF"/>
<path d="M90.5898 76.7415V68.502H82.3503V76.7415H90.5898Z" fill="#DDF8FF"/>
<path d="M98.8438 76.7415V68.502H90.6042V76.7415H98.8438Z" fill="#DDF8FF"/>
<path d="M107.101 76.7591V68.5195H98.861V76.7591H107.101Z" fill="#DDF8FF"/>
<path d="M115.357 76.7415V68.502H107.118V76.7415H115.357Z" fill="#DDF8FF"/>
<path d="M123.599 76.7591V68.5195H115.359V76.7591H123.599Z" fill="#DDF8FF"/>
<path d="M131.852 76.7415V68.502H123.612V76.7415H131.852Z" fill="#DDF8FF"/>
<path d="M140.093 76.7591V68.5195H131.853V76.7591H140.093Z" fill="#DDF8FF"/>
<path d="M148.35 76.7415V68.502H140.11V76.7415H148.35Z" fill="#DDF8FF"/>
<path d="M156.587 76.7591V68.5195H148.347V76.7591H156.587Z" fill="#DDF8FF"/>
<path d="M164.844 76.7415V68.502H156.604V76.7415H164.844Z" fill="#DDF8FF"/>
<path d="M173.101 76.7415V68.502H164.861V76.7415H173.101Z" fill="#DDF8FF"/>
<path d="M181.342 76.7415V68.502H173.102V76.7415H181.342Z" fill="#DDF8FF"/>
<path d="M189.596 76.7415V68.502H181.356V76.7415H189.596Z" fill="#DDF8FF"/>
<path d="M197.836 76.7415V68.502H189.596V76.7415H197.836Z" fill="#DDF8FF"/>
<path d="M206.093 76.7415V68.502H197.853V76.7415H206.093Z" fill="#DDF8FF"/>
<path d="M214.33 76.7415V68.502H206.091V76.7415H214.33Z" fill="#DDF8FF"/>
<path d="M222.587 76.7415V68.502H214.347V76.7415H222.587Z" fill="#DDF8FF"/>
<path d="M230.065 84.915H238.305V76.6755H230.065V84.915Z" fill="#DDF8FF"/>
<path d="M221.824 84.915H230.063V76.6755H221.824V84.915Z" fill="#DDF8FF"/>
<path d="M238.27 84.915H246.51V76.6755H238.27V84.915Z" fill="#DDF8FF"/>
<path d="M246.495 84.915H254.734V76.6755H246.495V84.915Z" fill="#DDF8FF"/>
<path d="M90.5898 84.8978V76.6582H82.3503V84.8978H90.5898Z" fill="#DDF8FF"/>
<path d="M98.8438 84.8978V76.6582H90.6042V84.8978H98.8438Z" fill="#DDF8FF"/>
<path d="M107.101 84.9153V76.6758H98.861V84.9153H107.101Z" fill="#DDF8FF"/>
<path d="M115.357 84.8978V76.6582H107.118V84.8978H115.357Z" fill="#DDF8FF"/>
<path d="M123.599 84.9153V76.6758H115.359V84.9153H123.599Z" fill="#DDF8FF"/>
<path d="M131.852 84.8978V76.6582H123.612V84.8978H131.852Z" fill="#DDF8FF"/>
<path d="M140.093 84.9153V76.6758H131.853V84.9153H140.093Z" fill="#DDF8FF"/>
<path d="M148.35 84.8978V76.6582H140.11V84.8978H148.35Z" fill="#DDF8FF"/>
<path d="M156.587 84.9153V76.6758H148.347V84.9153H156.587Z" fill="#DDF8FF"/>
<path d="M164.844 84.8978V76.6582H156.604V84.8978H164.844Z" fill="#DDF8FF"/>
<path d="M173.101 84.8978V76.6582H164.861V84.8978H173.101Z" fill="#DDF8FF"/>
<path d="M181.342 84.8978V76.6582H173.102V84.8978H181.342Z" fill="#DDF8FF"/>
<path d="M189.596 84.8978V76.6582H181.356V84.8978H189.596Z" fill="#DDF8FF"/>
<path d="M197.836 84.8978V76.6582H189.596V84.8978H197.836Z" fill="#DDF8FF"/>
<path d="M206.093 84.8978V76.6582H197.853V84.8978H206.093Z" fill="#DDF8FF"/>
<path d="M214.33 84.8978V76.6582H206.091V84.8978H214.33Z" fill="#DDF8FF"/>
<path d="M222.587 84.8977V76.6582H214.347V84.8977H222.587Z" fill="#DDF8FF"/>
<path d="M230.065 93.0713H238.305V84.8317H230.065V93.0713Z" fill="#DDF8FF"/>
<path d="M221.824 93.0713H230.063V84.8317H221.824V93.0713Z" fill="#DDF8FF"/>
<path d="M238.27 93.0713H246.51V84.8317H238.27V93.0713Z" fill="#DDF8FF"/>
<path d="M246.495 93.0713H254.734V84.8317H246.495V93.0713Z" fill="#DDF8FF"/>
<path d="M90.5898 93.056V84.8164H82.3503V93.056H90.5898Z" fill="#DDF8FF"/>
<path d="M98.8438 93.056V84.8164H90.6042V93.056H98.8438Z" fill="#DDF8FF"/>
<path d="M107.101 93.0716V84.832H98.861V93.0716H107.101Z" fill="#DDF8FF"/>
<path d="M115.357 93.056V84.8164H107.118V93.056H115.357Z" fill="#DDF8FF"/>
<path d="M123.599 93.0716V84.832H115.359V93.0716H123.599Z" fill="#DDF8FF"/>
<path d="M131.852 93.056V84.8164H123.612V93.056H131.852Z" fill="#DDF8FF"/>
<path d="M140.093 93.0716V84.832H131.853V93.0716H140.093Z" fill="#DDF8FF"/>
<path d="M148.35 93.056V84.8164H140.11V93.056H148.35Z" fill="#DDF8FF"/>
<path d="M156.587 93.0716V84.832H148.347V93.0716H156.587Z" fill="#DDF8FF"/>
<path d="M164.844 93.056V84.8164H156.604V93.056H164.844Z" fill="#DDF8FF"/>
<path d="M173.101 93.056V84.8164H164.861V93.056H173.101Z" fill="#DDF8FF"/>
<path d="M181.342 93.056V84.8164H173.102V93.056H181.342Z" fill="#DDF8FF"/>
<path d="M189.596 93.056V84.8164H181.356V93.056H189.596Z" fill="#DDF8FF"/>
<path d="M197.836 93.056V84.8164H189.596V93.056H197.836Z" fill="#DDF8FF"/>
<path d="M206.093 93.056V84.8164H197.853V93.056H206.093Z" fill="#DDF8FF"/>
<path d="M214.33 93.056V84.8164H206.091V93.056H214.33Z" fill="#DDF8FF"/>
<path d="M222.587 93.0559V84.8164H214.347V93.0559H222.587Z" fill="#DDF8FF"/>
<path d="M230.065 101.229H238.305V92.989H230.065V101.229Z" fill="#DDF8FF"/>
<path d="M221.824 101.229H230.063V92.989H221.824V101.229Z" fill="#DDF8FF"/>
<path d="M238.27 101.229H246.51V92.989H238.27V101.229Z" fill="#DDF8FF"/>
<path d="M246.495 101.229H254.734V92.989H246.495V101.229Z" fill="#DDF8FF"/>
<path d="M90.5898 101.212V92.9727H82.3503V101.212H90.5898Z" fill="#DDF8FF"/>
<path d="M98.8438 101.212V92.9727H90.6042V101.212H98.8438Z" fill="#DDF8FF"/>
<path d="M107.101 101.229V92.9893H98.861V101.229H107.101Z" fill="#DDF8FF"/>
<path d="M115.357 101.212V92.9727H107.118V101.212H115.357Z" fill="#DDF8FF"/>
<path d="M123.599 101.229V92.9893H115.359V101.229H123.599Z" fill="#DDF8FF"/>
<path d="M131.852 101.212V92.9727H123.612V101.212H131.852Z" fill="#DDF8FF"/>
<path d="M140.093 101.229V92.9893H131.853V101.229H140.093Z" fill="#DDF8FF"/>
<path d="M148.35 101.212V92.9727H140.11V101.212H148.35Z" fill="#DDF8FF"/>
<path d="M156.587 101.229V92.9893H148.347V101.229H156.587Z" fill="#DDF8FF"/>
<path d="M164.844 101.212V92.9727H156.604V101.212H164.844Z" fill="#DDF8FF"/>
<path d="M173.101 101.212V92.9727H164.861V101.212H173.101Z" fill="#DDF8FF"/>
<path d="M181.342 101.212V92.9727H173.102V101.212H181.342Z" fill="#DDF8FF"/>
<path d="M189.596 101.212V92.9727H181.356V101.212H189.596Z" fill="#DDF8FF"/>
<path d="M197.836 101.212V92.9727H189.596V101.212H197.836Z" fill="#DDF8FF"/>
<path d="M206.093 101.212V92.9727H197.853V101.212H206.093Z" fill="#DDF8FF"/>
<path d="M214.33 101.212V92.9727H206.091V101.212H214.33Z" fill="#DDF8FF"/>
<path d="M222.587 101.212V92.9727H214.347V101.212H222.587Z" fill="#DDF8FF"/>
<path d="M230.065 109.385H238.305V101.145H230.065V109.385Z" fill="#DDF8FF"/>
<path d="M221.824 109.385H230.063V101.145H221.824V109.385Z" fill="#DDF8FF"/>
<path d="M238.27 109.385H246.51V101.145H238.27V109.385Z" fill="#DDF8FF"/>
<path d="M246.495 109.385H254.734V101.145H246.495V109.385Z" fill="#DDF8FF"/>
<path d="M90.5898 109.368V101.129H82.3503V109.368H90.5898Z" fill="#DDF8FF"/>
<path d="M98.8438 109.368V101.129H90.6042V109.368H98.8438Z" fill="#DDF8FF"/>
<path d="M107.101 109.385V101.146H98.861V109.385H107.101Z" fill="#DDF8FF"/>
<path d="M115.357 109.368V101.129H107.118V109.368H115.357Z" fill="#DDF8FF"/>
<path d="M123.599 109.385V101.146H115.359V109.385H123.599Z" fill="#DDF8FF"/>
<path d="M131.852 109.368V101.129H123.612V109.368H131.852Z" fill="#DDF8FF"/>
<path d="M140.093 109.385V101.146H131.853V109.385H140.093Z" fill="#DDF8FF"/>
<path d="M148.35 109.368V101.129H140.11V109.368H148.35Z" fill="#DDF8FF"/>
<path d="M156.587 109.385V101.146H148.347V109.385H156.587Z" fill="#DDF8FF"/>
<path d="M164.844 109.368V101.129H156.604V109.368H164.844Z" fill="#DDF8FF"/>
<path d="M173.085 109.368V101.129H164.845V109.368H173.085Z" fill="#DDF8FF"/>
<path d="M181.342 109.368V101.129H173.102V109.368H181.342Z" fill="#DDF8FF"/>
<path d="M189.596 109.368V101.129H181.356V109.368H189.596Z" fill="#DDF8FF"/>
<path d="M197.836 109.368V101.129H189.596V109.368H197.836Z" fill="#DDF8FF"/>
<path d="M206.093 109.368V101.129H197.853V109.368H206.093Z" fill="#DDF8FF"/>
<path d="M214.33 109.368V101.129H206.091V109.368H214.33Z" fill="#DDF8FF"/>
<path d="M222.587 109.368V101.129H214.347V109.368H222.587Z" fill="#DDF8FF"/>
<path d="M230.065 117.541H238.305V109.301H230.065V117.541Z" fill="#DDF8FF"/>
<path d="M221.824 117.541H230.063V109.301H221.824V117.541Z" fill="#DDF8FF"/>
<path d="M238.27 117.541H246.51V109.301H238.27V117.541Z" fill="#DDF8FF"/>
<path d="M246.495 117.541H254.734V109.301H246.495V117.541Z" fill="#DDF8FF"/>
<path d="M90.5898 117.526V109.286H82.3503V117.526H90.5898Z" fill="#DDF8FF"/>
<path d="M98.8438 117.526V109.286H90.6042V117.526H98.8438Z" fill="#DDF8FF"/>
<path d="M107.101 117.541V109.302H98.861V117.541H107.101Z" fill="#DDF8FF"/>
<path d="M115.357 117.526V109.286H107.118V117.526H115.357Z" fill="#DDF8FF"/>
<path d="M123.599 117.541V109.302H115.359V117.541H123.599Z" fill="#DDF8FF"/>
<path d="M131.852 117.526V109.286H123.612V117.526H131.852Z" fill="#DDF8FF"/>
<path d="M140.093 117.541V109.302H131.853V117.541H140.093Z" fill="#DDF8FF"/>
<path d="M148.35 117.526V109.286H140.11V117.526H148.35Z" fill="#DDF8FF"/>
<path d="M156.587 117.541V109.302H148.347V117.541H156.587Z" fill="#DDF8FF"/>
<path d="M164.844 117.526V109.286H156.604V117.526H164.844Z" fill="#DDF8FF"/>
<path d="M173.085 117.526V109.286H164.845V117.526H173.085Z" fill="#DDF8FF"/>
<path d="M181.342 117.526V109.286H173.102V117.526H181.342Z" fill="#DDF8FF"/>
<path d="M189.596 117.526V109.286H181.356V117.526H189.596Z" fill="#DDF8FF"/>
<path d="M197.836 117.526V109.286H189.596V117.526H197.836Z" fill="#DDF8FF"/>
<path d="M206.093 117.526V109.286H197.853V117.526H206.093Z" fill="#DDF8FF"/>
<path d="M214.33 117.526V109.286H206.091V117.526H214.33Z" fill="#DDF8FF"/>
<path d="M222.587 117.526V109.286H214.347V117.526H222.587Z" fill="#DDF8FF"/>
<path d="M230.065 125.697H238.305V117.458H230.065V125.697Z" fill="#DDF8FF"/>
<path d="M221.824 125.697H230.063V117.458H221.824V125.697Z" fill="#DDF8FF"/>
<path d="M238.27 125.697H246.51V117.458H238.27V125.697Z" fill="#DDF8FF"/>
<path d="M246.495 125.697H254.734V117.458H246.495V125.697Z" fill="#DDF8FF"/>
<path d="M90.5898 125.682V117.442H82.3503V125.682H90.5898Z" fill="#DDF8FF"/>
<path d="M98.8438 125.682V117.442H90.6042V125.682H98.8438Z" fill="#DDF8FF"/>
<path d="M107.101 125.699V117.459H98.861V125.699H107.101Z" fill="#DDF8FF"/>
<path d="M115.357 125.682V117.442H107.118V125.682H115.357Z" fill="#DDF8FF"/>
<path d="M123.599 125.699V117.459H115.359V125.699H123.599Z" fill="#DDF8FF"/>
<path d="M131.852 125.682V117.442H123.612V125.682H131.852Z" fill="#DDF8FF"/>
<path d="M140.093 125.699V117.459H131.853V125.699H140.093Z" fill="#DDF8FF"/>
<path d="M148.35 125.682V117.442H140.11V125.682H148.35Z" fill="#DDF8FF"/>
<path d="M156.587 125.699V117.459H148.347V125.699H156.587Z" fill="#DDF8FF"/>
<path d="M164.844 125.682V117.442H156.604V125.682H164.844Z" fill="#DDF8FF"/>
<path d="M173.085 125.682V117.442H164.845V125.682H173.085Z" fill="#DDF8FF"/>
<path d="M181.342 125.682V117.442H173.102V125.682H181.342Z" fill="#DDF8FF"/>
<path d="M189.596 125.682V117.442H181.356V125.682H189.596Z" fill="#DDF8FF"/>
<path d="M197.836 125.682V117.442H189.596V125.682H197.836Z" fill="#DDF8FF"/>
<path d="M206.093 125.682V117.442H197.853V125.682H206.093Z" fill="#DDF8FF"/>
<path d="M214.33 125.682V117.442H206.091V125.682H214.33Z" fill="#DDF8FF"/>
<path d="M222.587 125.682V117.442H214.347V125.682H222.587Z" fill="#DDF8FF"/>
<path d="M230.065 133.854H238.305V125.615H230.065V133.854Z" fill="#DDF8FF"/>
<path d="M221.824 133.854H230.063V125.615H221.824V133.854Z" fill="#DDF8FF"/>
<path d="M238.27 133.854H246.51V125.615H238.27V133.854Z" fill="#DDF8FF"/>
<path d="M246.495 133.854H254.734V125.615H246.495V133.854Z" fill="#DDF8FF"/>
<path d="M90.5898 133.838V125.599H82.3503V133.838H90.5898Z" fill="#DDF8FF"/>
<path d="M98.8438 133.838V125.599H90.6042V133.838H98.8438Z" fill="#DDF8FF"/>
<path d="M107.101 133.855V125.615H98.861V133.855H107.101Z" fill="#DDF8FF"/>
<path d="M115.357 133.838V125.599H107.118V133.838H115.357Z" fill="#DDF8FF"/>
<path d="M123.599 133.855V125.615H115.359V133.855H123.599Z" fill="#DDF8FF"/>
<path d="M131.852 133.838V125.599H123.612V133.838H131.852Z" fill="#DDF8FF"/>
<path d="M140.093 133.855V125.615H131.853V133.855H140.093Z" fill="#DDF8FF"/>
<path d="M148.35 133.838V125.599H140.11V133.838H148.35Z" fill="#DDF8FF"/>
<path d="M156.587 133.855V125.615H148.347V133.855H156.587Z" fill="#DDF8FF"/>
<path d="M164.844 133.838V125.599H156.604V133.838H164.844Z" fill="#DDF8FF"/>
<path d="M173.085 133.838V125.599H164.845V133.838H173.085Z" fill="#DDF8FF"/>
<path d="M181.342 133.838V125.599H173.102V133.838H181.342Z" fill="#DDF8FF"/>
<path d="M189.596 133.838V125.599H181.356V133.838H189.596Z" fill="#DDF8FF"/>
<path d="M197.836 133.838V125.599H189.596V133.838H197.836Z" fill="#DDF8FF"/>
<path d="M206.093 133.838V125.599H197.853V133.838H206.093Z" fill="#DDF8FF"/>
<path d="M214.33 133.838V125.599H206.091V133.838H214.33Z" fill="#DDF8FF"/>
<path d="M222.587 133.838V125.599H214.347V133.838H222.587Z" fill="#DDF8FF"/>
<path d="M230.065 142.013H238.305V133.773H230.065V142.013Z" fill="#DDF8FF"/>
<path d="M221.824 142.013H230.063V133.773H221.824V142.013Z" fill="#DDF8FF"/>
<path d="M238.27 142.013H246.51V133.773H238.27V142.013Z" fill="#DDF8FF"/>
<path d="M246.495 142.013H254.734V133.773H246.495V142.013Z" fill="#DDF8FF"/>
<path d="M90.5898 141.995V133.756H82.3503V141.995H90.5898Z" fill="#DDF8FF"/>
<path d="M98.8438 141.995V133.756H90.6042V141.995H98.8438Z" fill="#DDF8FF"/>
<path d="M107.101 142.011V133.771H98.861V142.011H107.101Z" fill="#DDF8FF"/>
<path d="M115.357 141.995V133.756H107.118V141.995H115.357Z" fill="#DDF8FF"/>
<path d="M123.599 142.011V133.771H115.359V142.011H123.599Z" fill="#DDF8FF"/>
<path d="M131.852 141.995V133.756H123.612V141.995H131.852Z" fill="#DDF8FF"/>
<path d="M140.093 142.011V133.771H131.853V142.011H140.093Z" fill="#DDF8FF"/>
<path d="M148.35 141.995V133.756H140.11V141.995H148.35Z" fill="#DDF8FF"/>
<path d="M156.587 141.995V133.756H148.347V141.995H156.587Z" fill="#DDF8FF"/>
<path d="M164.844 141.995V133.756H156.604V141.995H164.844Z" fill="#DDF8FF"/>
<path d="M173.085 141.995V133.756H164.845V141.995H173.085Z" fill="#DDF8FF"/>
<path d="M181.342 141.995V133.756H173.102V141.995H181.342Z" fill="#DDF8FF"/>
<path d="M189.596 141.995V133.756H181.356V141.995H189.596Z" fill="#DDF8FF"/>
<path d="M197.836 141.995V133.756H189.596V141.995H197.836Z" fill="#DDF8FF"/>
<path d="M206.093 141.995V133.756H197.853V141.995H206.093Z" fill="#DDF8FF"/>
<path d="M214.33 141.995V133.756H206.091V141.995H214.33Z" fill="#DDF8FF"/>
<path d="M222.587 141.995V133.756H214.347V141.995H222.587Z" fill="#DDF8FF"/>
<path d="M230.065 150.169H238.305V141.929H230.065V150.169Z" fill="#DDF8FF"/>
<path d="M221.824 150.169H230.063V141.929H221.824V150.169Z" fill="#DDF8FF"/>
<path d="M238.27 150.169H246.51V141.929H238.27V150.169Z" fill="#DDF8FF"/>
<path d="M98.8438 150.152V141.912H90.6042V150.152H98.8438Z" fill="#DDF8FF"/>
<path d="M107.101 150.168V141.929H98.861V150.168H107.101Z" fill="#DDF8FF"/>
<path d="M115.357 150.152V141.912H107.118V150.152H115.357Z" fill="#DDF8FF"/>
<path d="M123.599 150.168V141.929H115.359V150.168H123.599Z" fill="#DDF8FF"/>
<path d="M131.852 150.152V141.912H123.612V150.152H131.852Z" fill="#DDF8FF"/>
<path d="M140.093 150.168V141.929H131.853V150.168H140.093Z" fill="#DDF8FF"/>
<path d="M148.35 150.152V141.912H140.11V150.152H148.35Z" fill="#DDF8FF"/>
<path d="M156.587 150.152V141.912H148.347V150.152H156.587Z" fill="#DDF8FF"/>
<path d="M164.844 150.152V141.912H156.604V150.152H164.844Z" fill="#DDF8FF"/>
<path d="M173.085 150.152V141.912H164.845V150.152H173.085Z" fill="#DDF8FF"/>
<path d="M181.342 150.152V141.912H173.102V150.152H181.342Z" fill="#DDF8FF"/>
<path d="M189.596 150.152V141.912H181.356V150.152H189.596Z" fill="#DDF8FF"/>
<path d="M197.836 150.152V141.912H189.596V150.152H197.836Z" fill="#DDF8FF"/>
<path d="M206.093 150.152V141.912H197.853V150.152H206.093Z" fill="#DDF8FF"/>
<path d="M214.33 150.152V141.912H206.091V150.152H214.33Z" fill="#DDF8FF"/>
<path d="M222.587 150.152V141.912H214.347V150.152H222.587Z" fill="#DDF8FF"/>
<path d="M230.065 158.325H238.305V150.086H230.065V158.325Z" fill="#DDF8FF"/>
<path d="M221.824 158.325H230.063V150.086H221.824V158.325Z" fill="#DDF8FF"/>
<path d="M107.101 158.325V150.085H98.861V158.325H107.101Z" fill="#DDF8FF"/>
<path d="M115.357 158.308V150.068H107.118V158.308H115.357Z" fill="#DDF8FF"/>
<path d="M123.599 158.325V150.085H115.359V158.325H123.599Z" fill="#DDF8FF"/>
<path d="M131.852 158.308V150.068H123.612V158.308H131.852Z" fill="#DDF8FF"/>
<path d="M140.093 158.325V150.085H131.853V158.325H140.093Z" fill="#DDF8FF"/>
<path d="M148.35 158.308V150.068H140.11V158.308H148.35Z" fill="#DDF8FF"/>
<path d="M156.587 158.308V150.068H148.347V158.308H156.587Z" fill="#DDF8FF"/>
<path d="M164.844 158.308V150.068H156.604V158.308H164.844Z" fill="#DDF8FF"/>
<path d="M173.085 158.308V150.068H164.845V158.308H173.085Z" fill="#DDF8FF"/>
<path d="M181.342 158.308V150.068H173.102V158.308H181.342Z" fill="#DDF8FF"/>
<path d="M189.596 158.308V150.068H181.356V158.308H189.596Z" fill="#DDF8FF"/>
<path d="M197.836 158.308V150.068H189.596V158.308H197.836Z" fill="#DDF8FF"/>
<path d="M206.093 158.308V150.068H197.853V158.308H206.093Z" fill="#DDF8FF"/>
<path d="M214.33 158.308V150.068H206.091V158.308H214.33Z" fill="#DDF8FF"/>
<path d="M222.587 158.308V150.068H214.347V158.308H222.587Z" fill="#DDF8FF"/>
<path d="M221.824 166.482H230.063V158.243H221.824V166.482Z" fill="#DDF8FF"/>
<path d="M115.357 166.465V158.226H107.118V166.465H115.357Z" fill="#DDF8FF"/>
<path d="M123.599 166.483V158.243H115.359V166.483H123.599Z" fill="#DDF8FF"/>
<path d="M131.852 166.465V158.226H123.612V166.465H131.852Z" fill="#DDF8FF"/>
<path d="M140.093 166.483V158.243H131.853V166.483H140.093Z" fill="#DDF8FF"/>
<path d="M148.35 166.465V158.226H140.11V166.465H148.35Z" fill="#DDF8FF"/>
<path d="M156.587 166.465V158.226H148.347V166.465H156.587Z" fill="#DDF8FF"/>
<path d="M164.844 166.465V158.226H156.604V166.465H164.844Z" fill="#DDF8FF"/>
<path d="M173.085 166.465V158.226H164.845V166.465H173.085Z" fill="#DDF8FF"/>
<path d="M181.342 166.465V158.226H173.102V166.465H181.342Z" fill="#DDF8FF"/>
<path d="M189.596 166.465V158.226H181.356V166.465H189.596Z" fill="#DDF8FF"/>
<path d="M197.836 166.465V158.226H189.596V166.465H197.836Z" fill="#DDF8FF"/>
<path d="M206.093 166.465V158.226H197.853V166.465H206.093Z" fill="#DDF8FF"/>
<path d="M214.33 166.465V158.226H206.091V166.465H214.33Z" fill="#DDF8FF"/>
<path d="M222.587 166.465V158.226H214.347V166.465H222.587Z" fill="#DDF8FF"/>
<path d="M230.062 165.321H238.302V157.082H230.062V165.321Z" fill="black"/>
<path d="M238.27 157.082H246.51V148.842H238.27V157.082Z" fill="black"/>
<path d="M246.491 148.825H254.73V140.586H246.491V148.825Z" fill="black"/>
<path d="M254.683 140.57H262.923V132.331H254.683V140.57Z" fill="black"/>
<path d="M254.683 132.312H262.923V124.073H254.683V132.312Z" fill="black"/>
<path d="M254.683 124.042H262.923V115.802H254.683V124.042Z" fill="black"/>
<path d="M254.683 115.769H262.923V107.529H254.683V115.769Z" fill="black"/>
<path d="M254.683 107.512H262.923V99.2722H254.683V107.512Z" fill="black"/>
<path d="M254.683 99.2402H262.923V91.0007H254.683V99.2402Z" fill="black"/>
<path d="M254.683 90.9834H262.923V82.7438H254.683V90.9834Z" fill="black"/>
<path d="M254.683 82.71H262.923V74.4704H254.683V82.71Z" fill="black"/>
<path d="M254.683 74.4385H262.923V66.1989H254.683V74.4385Z" fill="black"/>
<path d="M254.683 66.1816H262.923V57.9421H254.683V66.1816Z" fill="black"/>
<path d="M254.683 57.9082H262.923V49.6686H254.683V57.9082Z" fill="black"/>
<path d="M74.11 140.57H82.3496V132.331H74.11V140.57Z" fill="black"/>
<path d="M74.11 132.312H82.3496V124.073H74.11V132.312Z" fill="black"/>
<path d="M74.11 124.042H82.3496V115.802H74.11V124.042Z" fill="black"/>
<path d="M74.11 115.769H82.3496V107.529H74.11V115.769Z" fill="black"/>
<path d="M74.11 107.512H82.3496V99.2722H74.11V107.512Z" fill="black"/>
<path d="M74.11 99.2402H82.3496V91.0007H74.11V99.2402Z" fill="black"/>
<path d="M74.11 90.9834H82.3496V82.7438H74.11V90.9834Z" fill="black"/>
<path d="M74.11 82.71H82.3496V74.4704H74.11V82.71Z" fill="black"/>
<path d="M74.11 74.4385H82.3496V66.1989H74.11V74.4385Z" fill="black"/>
<path d="M74.11 66.1816H82.3496V57.9421H74.11V66.1816Z" fill="black"/>
<path d="M74.11 57.9082H82.3496V49.6686H74.11V57.9082Z" fill="black"/>
<path d="M82.3496 140.603V148.843H90.5892V140.603H82.3496Z" fill="black"/>
<path d="M90.6025 148.859V157.099H98.8421V148.859H90.6025Z" fill="black"/>
<path d="M98.8438 157.082V165.321H107.083V157.082H98.8438Z" fill="black"/>
<path d="M230.062 24.751H238.302V16.5114H230.062V24.751Z" fill="black"/>
<path d="M221.824 16.4961H230.063V8.25654L221.824 8.25654V16.4961Z" fill="black"/>
<path d="M238.27 32.9922H246.51V24.7526H238.27V32.9922Z" fill="black"/>
<path d="M246.491 41.2471H254.73V33.0075H246.491V41.2471Z" fill="black"/>
<path d="M254.683 49.5039H262.923V41.2643H254.683V49.5039Z" fill="black"/>
<path d="M82.3496 50.0171V41.2471H74.1101V50.0171H82.3496Z" fill="black"/>
<path d="M90.5869 41.2317V32.9922H82.3474V41.2317H90.5869Z" fill="black"/>
<path d="M98.8438 32.9749V24.7354H90.6042V32.9749H98.8438Z" fill="black"/>
<path d="M107.032 24.6526V16.4131H98.7927V24.6526H107.032Z" fill="black"/>
<path d="M115.357 16.4788V8.23926H107.118V16.4788H115.357Z" fill="black"/>
<path d="M123.595 8.23956V0L115.355 0V8.23956H123.595Z" fill="black"/>
<path d="M131.852 8.23955V0L123.612 0V8.23955H131.852Z" fill="black"/>
<path d="M140.093 8.23956V0L131.853 0V8.23956H140.093Z" fill="black"/>
<path d="M148.347 8.23955V0L140.107 0V8.23955H148.347Z" fill="black"/>
<path d="M156.587 8.23956V0L148.347 0V8.23956H156.587Z" fill="black"/>
<path d="M164.844 8.23956V0L156.604 0V8.23956H164.844Z" fill="black"/>
<path d="M173.081 8.23956V0L164.841 0V8.23956H173.081Z" fill="black"/>
<path d="M181.338 8.23956V0L173.098 0V8.23956H181.338Z" fill="black"/>
<path d="M189.579 8.23956V0L181.34 0V8.23956H189.579Z" fill="black"/>
<path d="M197.836 8.23956V0L189.596 0V8.23956H197.836Z" fill="black"/>
<path d="M206.073 8.23956V0L197.834 0V8.23956H206.073Z" fill="black"/>
<path d="M214.33 8.23956V0L206.091 0V8.23956H214.33Z" fill="black"/>
<path d="M222.587 8.23953V0L214.347 0V8.23953H222.587Z" fill="black"/>
<path d="M139.989 165.156H131.699V173.446H139.989V165.156Z" fill="black"/>
<path d="M115.222 140.288H106.933V148.577H115.222V140.288Z" fill="black"/>
<path d="M115.222 98.792H106.933V107.081H115.222V98.792Z" fill="black"/>
<path d="M123.462 98.792H115.173V107.081H123.462V98.792Z" fill="black"/>
<path d="M131.699 98.792H123.41V107.081H131.699V98.792Z" fill="#4C3510"/>
<path d="M139.941 90.4863H131.651V98.7756H139.941V90.4863Z" fill="black"/>
<path d="M148.181 98.792H139.892V107.081H148.181V98.792Z" fill="black"/>
<path d="M156.418 98.792H148.129V107.081H156.418V98.792Z" fill="#4C3510"/>
<path d="M164.659 90.4863H156.37V98.7756H164.659V90.4863Z" fill="black"/>
<path d="M181.138 90.4863H172.849V98.7756H181.138V90.4863Z" fill="black"/>
<path d="M189.378 90.4863H181.089V98.7756H189.378V90.4863Z" fill="black"/>
<path d="M197.619 98.792H189.33V107.081H197.619V98.792Z" fill="black"/>
<path d="M205.857 90.4863H197.567V98.7756H205.857V90.4863Z" fill="black"/>
<path d="M214.097 140.288H205.808V148.577H214.097V140.288Z" fill="black"/>
<path d="M214.097 98.792H205.808V107.081H214.097V98.792Z" fill="black"/>
<path d="M222.334 131.982H214.045V140.272H222.334V131.982Z" fill="black"/>
<path d="M222.334 107.081H214.045V115.37H222.334V107.081Z" fill="black"/>
<path d="M230.575 131.982H222.286V140.272H230.575V131.982Z" fill="black"/>
<path d="M230.575 98.792H222.286V107.081H230.575V98.792Z" fill="black"/>
<path d="M238.817 131.982H230.527V140.272H238.817V131.982Z" fill="black"/>
<path d="M238.817 90.4863H230.527V98.7756H238.817V90.4863Z" fill="black"/>
<path d="M123.462 148.562H115.173V156.851H123.462V148.562Z" fill="black"/>
<path d="M205.857 148.562H197.567V156.851H205.857V148.562Z" fill="black"/>
<path d="M131.699 156.833H123.41V165.122H131.699V156.833Z" fill="black"/>
<path d="M139.941 156.833H131.651V165.122H139.941V156.833Z" fill="black"/>
<path d="M189.378 156.833H181.089V165.122H189.378V156.833Z" fill="black"/>
<path d="M197.619 156.833H189.33V165.122H197.619V156.833Z" fill="black"/>
<path d="M148.181 165.122H139.892V173.411H148.181V165.122Z" fill="black"/>
<path d="M156.418 165.122H148.129V173.411H156.418V165.122Z" fill="black"/>
<path d="M164.659 165.122H156.37V173.411H164.659V165.122Z" fill="black"/>
<path d="M172.9 165.122H164.61V173.411H172.9V165.122Z" fill="black"/>
<path d="M181.138 165.122H172.849V173.411H181.138V165.122Z" fill="black"/>
<path d="M189.378 165.122H181.089V173.411H189.378V165.122Z" fill="#F6F2EC"/>
<path d="M197.619 165.122H189.33V173.411H197.619V165.122Z" fill="#F6F2EC"/>
<path d="M205.857 165.122H197.567V173.411H205.857V165.122Z" fill="black"/>
<path d="M222.535 165.122H214.246V173.411H222.535V165.122Z" fill="black"/>
<path opacity="0.3" d="M140.041 173.379H131.752V181.668H140.041V173.379Z" fill="black"/>
<path d="M131.8 181.668H123.511V189.957H131.8V181.668Z" fill="#DAD6D0"/>
<path opacity="0.3" d="M140.041 181.668H131.752V189.957H140.041V181.668Z" fill="black"/>
<path d="M123.563 189.941H115.273V198.231H123.563V189.941Z" fill="#F6F2EC"/>
<path d="M131.8 189.941H123.511V198.231H131.8V189.941Z" fill="#DAD6D0"/>
<path d="M140.041 189.941H131.752V198.231H140.041V189.941Z" fill="black"/>
<path d="M115.322 198.23H107.032V206.52H115.322V198.23Z" fill="#F6F2EC"/>
<path d="M123.563 181.734H115.273V190.024H123.563V181.734Z" fill="#F6F2EC"/>
<path d="M131.8 173.429H123.511V181.718H131.8V173.429Z" fill="#DAD6D0"/>
<path d="M123.563 173.512H115.273V181.801H123.563V173.512Z" fill="black"/>
<path d="M115.322 181.785H107.032V189.809H115.322V181.785Z" fill="black"/>
<path d="M123.563 198.23H115.273V206.52H123.563V198.23Z" fill="#DAD6D0"/>
<path d="M131.8 198.23H123.511V206.52H131.8V198.23Z" fill="black"/>
<path d="M115.322 206.502H107.032V214.791H115.322V206.502Z" fill="#DAD6D0"/>
<path d="M115.322 214.791H107.032V223.08H115.322V214.791Z" fill="black"/>
<path d="M107.214 198.23H98.9248V206.52H107.214V198.23Z" fill="#F6F2EC"/>
<path d="M107.214 189.941H98.9248V198.231H107.214V189.941Z" fill="black"/>
<path d="M107.214 206.502H98.9248V214.791H107.214V206.502Z" fill="#F6F2EC"/>
<path d="M107.23 214.791H98.9404V223.08H107.23V214.791Z" fill="black"/>
<path d="M99.1252 198.23H90.8359V206.52H99.1252V198.23Z" fill="black"/>
<path d="M123.563 206.502H115.273V214.791H123.563V206.502Z" fill="black"/>
<path d="M139.941 173.396H131.651V181.685H139.941V173.396Z" fill="black"/>
<path d="M148.181 173.396H139.892V181.685H148.181V173.396Z" fill="#DAD6D0"/>
<path d="M156.418 173.396H148.129V181.685H156.418V173.396Z" fill="#DAD6D0"/>
<path d="M164.659 173.396H156.37V181.685H164.659V173.396Z" fill="#DAD6D0"/>
<path d="M172.9 173.396H164.61V181.685H172.9V173.396Z" fill="#DAD6D0"/>
<path d="M181.138 173.396H172.849V181.685H181.138V173.396Z" fill="#DAD6D0"/>
<path d="M189.378 173.396H181.089V181.685H189.378V173.396Z" fill="#DAD6D0"/>
<path d="M197.619 173.396H189.33V181.685H197.619V173.396Z" fill="#DAD6D0"/>
<path d="M205.857 173.396H197.567V181.685H205.857V173.396Z" fill="black"/>
<path d="M139.941 181.668H131.651V189.957H139.941V181.668Z" fill="black"/>
<path d="M139.908 181.668H131.619V189.957H139.908V181.668Z" fill="black"/>
<path d="M148.181 181.668H139.892V189.957H148.181V181.668Z" fill="#F6F2EC"/>
<path d="M156.418 181.668H148.129V189.957H156.418V181.668Z" fill="#F6F2EC"/>
<path d="M164.659 181.668H156.37V189.957H164.659V181.668Z" fill="#F6F2EC"/>
<path d="M172.9 181.668H164.61V189.957H172.9V181.668Z" fill="#F6F2EC"/>
<path d="M181.138 181.668H172.849V189.957H181.138V181.668Z" fill="#F6F2EC"/>
<path opacity="0.3" d="M189.378 181.668H181.089V189.957H189.378V181.668Z" fill="black"/>
<path d="M197.619 181.668H189.33V189.957H197.619V181.668Z" fill="#F6F2EC"/>
<path d="M205.857 181.668H197.567V189.957H205.857V181.668Z" fill="#DAD6D0"/>
<path opacity="0.3" d="M139.908 189.958H131.619V198.247H139.908V189.958Z" fill="black"/>
<path d="M148.181 189.941H139.892V198.231H148.181V189.941Z" fill="#DAD6D0"/>
<path d="M156.418 189.941H148.129V198.231H156.418V189.941Z" fill="#DAD6D0"/>
<path d="M164.659 189.941H156.37V198.231H164.659V189.941Z" fill="#DAD6D0"/>
<path d="M172.9 189.941H164.61V198.231H172.9V189.941Z" fill="#DAD6D0"/>
<path d="M181.138 189.941H172.849V198.231H181.138V189.941Z" fill="#DAD6D0"/>
<path d="M189.479 181.635H181.189V189.924H189.479V181.635Z" fill="black"/>
<path d="M214.197 181.635H205.908V189.924H214.197V181.635Z" fill="black"/>
<path opacity="0.3" d="M139.908 198.23H131.619V206.52H139.908V198.23Z" fill="black"/>
<path d="M148.181 198.23H139.892V206.52H148.181V198.23Z" fill="#F6F2EC"/>
<path d="M156.418 198.23H148.129V206.52H156.418V198.23Z" fill="#F7D939"/>
<path d="M164.659 198.23H156.37V206.52H164.659V198.23Z" fill="#F7D939"/>
<path d="M172.9 198.23H164.61V206.52H172.9V198.23Z" fill="#F7D939"/>
<path d="M181.138 198.23H172.849V206.52H181.138V198.23Z" fill="#F6F2EC"/>
<path d="M189.479 189.907H181.189V198.197H189.479V189.907Z" fill="black"/>
<path d="M197.716 189.907H189.427V198.197H197.716V189.907Z" fill="#F6F2EC"/>
<path d="M205.957 189.907H197.668V198.197H205.957V189.907Z" fill="#DAD6D0"/>
<path d="M214.197 189.907H205.908V198.197H214.197V189.907Z" fill="black"/>
<path d="M139.908 206.52H131.619V214.809H139.908V206.52Z" fill="#FDEAE0"/>
<path d="M148.181 206.502H139.892V214.791H148.181V206.502Z" fill="#F6F2EC"/>
<path d="M156.418 206.502H148.129V214.791H156.418V206.502Z" fill="#F6F2EC"/>
<path d="M164.659 206.502H156.37V214.791H164.659V206.502Z" fill="#F6F2EC"/>
<path d="M172.9 206.502H164.61V214.791H172.9V206.502Z" fill="#F6F2EC"/>
<path d="M181.138 206.502H172.849V214.791H181.138V206.502Z" fill="black"/>
<path d="M189.479 198.196H181.189V206.486H189.479V198.196Z" fill="black"/>
<path d="M197.716 198.196H189.427V206.486H197.716V198.196Z" fill="#F6F2EC"/>
<path d="M205.957 198.196H197.668V206.486H205.957V198.196Z" fill="#DAD6D0"/>
<path d="M214.197 198.196H205.908V206.486H214.197V198.196Z" fill="black"/>
<path d="M189.479 206.47H181.189V214.759H189.479V206.47Z" fill="#F6F2EC"/>
<path d="M197.716 206.47H189.427V214.759H197.716V206.47Z" fill="#F6F2EC"/>
<path d="M205.957 206.47H197.668V214.759H205.957V206.47Z" fill="#DAD6D0"/>
<path d="M214.197 206.47H205.908V214.759H214.197V206.47Z" fill="black"/>
<path d="M123.462 123.676H115.173V131.965H123.462V123.676Z" fill="#494442"/>
<path d="M123.462 115.387H115.173V123.676H123.462V115.387Z" fill="#494442"/>
<path d="M123.462 107.081H115.173V115.37H123.462V107.081Z" fill="black"/>
<path d="M131.699 123.676H123.41V131.965H131.699V123.676Z" fill="white"/>
<path d="M131.699 115.387H123.41V123.676H131.699V115.387Z" fill="white"/>
<path d="M131.699 107.081H123.41V115.37H131.699V107.081Z" fill="#D2C8C4"/>
<path d="M148.181 131.982H139.892V140.272H148.181V131.982Z" fill="#E1CCC2"/>
<path d="M148.181 123.676H139.892V131.965H148.181V123.676Z" fill="#E1CCC2"/>
<path d="M156.418 131.982H148.129V140.272H156.418V131.982Z" fill="#E1CCC2"/>
<path d="M181.138 123.676H172.849V131.965H181.138V123.676Z" fill="#494442"/>
<path d="M181.138 115.387H172.849V123.676H181.138V115.387Z" fill="#494442"/>
<path d="M181.138 107.081H172.849V115.37H181.138V107.081Z" fill="#494442"/>
<path d="M181.138 98.792H172.849V107.081H181.138V98.792Z" fill="black"/>
<path d="M189.378 123.676H181.089V131.965H189.378V123.676Z" fill="white"/>
<path d="M189.378 115.387H181.089V123.676H189.378V115.387Z" fill="white"/>
<path d="M189.378 107.081H181.089V115.37H189.378V107.081Z" fill="white"/>
<path d="M189.378 98.792H181.089V107.081H189.378V98.792Z" fill="#D2C8C4"/>
<path d="M197.619 115.387H189.33V123.676H197.619V115.387Z" fill="#FDEAE0"/>
<path d="M197.619 107.081H189.33V115.37H197.619V107.081Z" fill="#FDEAE0"/>
<path d="M230.575 115.387H222.286V123.676H230.575V115.387Z" fill="#E1CCC2"/>
<path d="M230.575 107.081H222.286V115.37H230.575V107.081Z" fill="#E1CCC2"/>
<path d="M156.418 148.562H148.129V156.851H156.418V148.562Z" fill="#494442"/>
<path d="M164.659 148.562H156.37V156.851H164.659V148.562Z" fill="#494442"/>
<path d="M115.222 131.982H106.933V140.272H115.222V131.982Z" fill="#FDEAE0"/>
<path d="M115.222 123.676H106.933V131.965H115.222V123.676Z" fill="#FDEAE0"/>
<path d="M115.222 115.387H106.933V123.676H115.222V115.387Z" fill="#FDEAE0"/>
<path d="M115.222 107.081H106.933V115.37H115.222V107.081Z" fill="#EED6CA"/>
<path d="M123.462 140.288H115.173V148.577H123.462V140.288Z" fill="#FDEAE0"/>
<path d="M123.462 131.982H115.173V140.272H123.462V131.982Z" fill="#FDEAE0"/>
<path d="M131.699 140.288H123.41V148.577H131.699V140.288Z" fill="#FDEAE0"/>
<path d="M131.699 131.982H123.41V140.272H131.699V131.982Z" fill="#FDEAE0"/>
<path d="M139.941 140.288H131.651V148.577H139.941V140.288Z" fill="#FDEAE0"/>
<path d="M139.941 131.982H131.651V140.272H139.941V131.982Z" fill="#FDEAE0"/>
<path d="M139.941 123.676H131.651V131.965H139.941V123.676Z" fill="#FDEAE0"/>
<path d="M139.941 115.387H131.651V123.676H139.941V115.387Z" fill="#FDEAE0"/>
<path d="M139.941 107.081H131.651V115.37H139.941V107.081Z" fill="#FDEAE0"/>
<path d="M139.941 98.792H131.651V107.081H139.941V98.792Z" fill="#EED6CA"/>
<path d="M148.181 140.288H139.892V148.577H148.181V140.288Z" fill="#FDEAE0"/>
<path d="M148.181 115.387H139.892V123.676H148.181V115.387Z" fill="#FDEAE0"/>
<path d="M148.181 107.081H139.892V115.37H148.181V107.081Z" fill="#FDEAE0"/>
<path d="M156.418 140.288H148.129V148.577H156.418V140.288Z" fill="#FDEAE0"/>
<path d="M156.418 123.676H148.129V131.965H156.418V123.676Z" fill="#FDEAE0"/>
<path d="M156.418 115.387H148.129V123.676H156.418V115.387Z" fill="#FDEAE0"/>
<path d="M156.418 107.081H148.129V115.37H156.418V107.081Z" fill="#FDEAE0"/>
<path d="M164.659 140.288H156.37V148.577H164.659V140.288Z" fill="#FDEAE0"/>
<path d="M164.659 131.982H156.37V140.272H164.659V131.982Z" fill="#FDEAE0"/>
<path d="M164.659 123.676H156.37V131.965H164.659V123.676Z" fill="#FDEAE0"/>
<path d="M164.659 115.387H156.37V123.676H164.659V115.387Z" fill="#FDEAE0"/>
<path d="M164.659 107.081H156.37V115.37H164.659V107.081Z" fill="#FDEAE0"/>
<path d="M164.659 98.792H156.37V107.081H164.659V98.792Z" fill="#EED6CA"/>
<path d="M172.9 140.288H164.61V148.577H172.9V140.288Z" fill="#FDEAE0"/>
<path d="M172.9 131.982H164.61V140.272H172.9V131.982Z" fill="#FDEAE0"/>
<path d="M172.9 123.676H164.61V131.965H172.9V123.676Z" fill="#FDEAE0"/>
<path d="M172.9 115.387H164.61V123.676H172.9V115.387Z" fill="#FDEAE0"/>
<path d="M172.9 107.081H164.61V115.37H172.9V107.081Z" fill="#FDEAE0"/>
<path d="M172.9 98.792H164.61V107.081H172.9V98.792Z" fill="#FDEAE0"/>
<path d="M181.138 140.288H172.849V148.577H181.138V140.288Z" fill="#FDEAE0"/>
<path d="M181.138 131.982H172.849V140.272H181.138V131.982Z" fill="#FDEAE0"/>
<path d="M189.378 140.288H181.089V148.577H189.378V140.288Z" fill="#FDEAE0"/>
<path d="M189.378 131.982H181.089V140.272H189.378V131.982Z" fill="#FDEAE0"/>
<path d="M197.619 140.288H189.33V148.577H197.619V140.288Z" fill="#FDEAE0"/>
<path d="M197.619 131.982H189.33V140.272H197.619V131.982Z" fill="#FDEAE0"/>
<path d="M197.619 123.676H189.33V131.965H197.619V123.676Z" fill="#FDEAE0"/>
<path d="M205.857 140.288H197.567V148.577H205.857V140.288Z" fill="#EED6CA"/>
<path d="M205.857 131.982H197.567V140.272H205.857V131.982Z" fill="#FDEAE0"/>
<path d="M205.857 123.676H197.567V131.965H205.857V123.676Z" fill="#FDEAE0"/>
<path d="M205.857 115.387H197.567V123.676H205.857V115.387Z" fill="#FDEAE0"/>
<path d="M205.857 107.081H197.567V115.37H205.857V107.081Z" fill="#FDEAE0"/>
<path d="M205.857 98.792H197.567V107.081H205.857V98.792Z" fill="#EED6CA"/>
<path d="M214.097 131.982H205.808V140.272H214.097V131.982Z" fill="#EED6CA"/>
<path d="M214.097 123.676H205.808V131.965H214.097V123.676Z" fill="#FDEAE0"/>
<path d="M214.097 115.387H205.808V123.676H214.097V115.387Z" fill="#FDEAE0"/>
<path d="M214.097 107.081H205.808V115.37H214.097V107.081Z" fill="#FDEAE0"/>
<path d="M222.334 123.676H214.045V131.965H222.334V123.676Z" fill="#FDEAE0"/>
<path d="M222.334 115.387H214.045V123.676H222.334V115.387Z" fill="#FDEAE0"/>
<path d="M230.575 123.676H222.286V131.965H230.575V123.676Z" fill="#FDEAE0"/>
<path d="M238.817 123.676H230.527V131.965H238.817V123.676Z" fill="#FDEAE0"/>
<path d="M238.817 115.387H230.527V123.676H238.817V115.387Z" fill="#FDEAE0"/>
<path d="M238.817 107.081H230.527V115.37H238.817V107.081Z" fill="#FDEAE0"/>
<path d="M238.817 98.792H230.527V107.081H238.817V98.792Z" fill="black"/>
<path d="M131.699 148.562H123.41V156.851H131.699V148.562Z" fill="#FDEAE0"/>
<path d="M139.941 148.562H131.651V156.851H139.941V148.562Z" fill="#FDEAE0"/>
<path d="M148.181 148.562H139.892V156.851H148.181V148.562Z" fill="#FDEAE0"/>
<path d="M172.9 148.562H164.61V156.851H172.9V148.562Z" fill="#FDEAE0"/>
<path d="M181.138 148.562H172.849V156.851H181.138V148.562Z" fill="#FDEAE0"/>
<path d="M189.378 148.562H181.089V156.851H189.378V148.562Z" fill="#EED6CA"/>
<path d="M197.619 148.562H189.33V156.851H197.619V148.562Z" fill="#EED6CA"/>
<path d="M148.181 156.833H139.892V165.122H148.181V156.833Z" fill="#EED6CA"/>
<path d="M156.418 156.833H148.129V165.122H156.418V156.833Z" fill="#EED6CA"/>
<path d="M164.659 156.833H156.37V165.122H164.659V156.833Z" fill="#EED6CA"/>
<path d="M172.9 156.833H164.61V165.122H172.9V156.833Z" fill="#EED6CA"/>
<path d="M181.138 156.833H172.849V165.122H181.138V156.833Z" fill="#EED6CA"/>
<path d="M106.984 123.676H98.6943V131.965H106.984V123.676Z" fill="black"/>
<path d="M106.984 115.387H98.6943V123.676H106.984V115.387Z" fill="black"/>
<path d="M106.984 107.081H98.6943V115.37H106.984V107.081Z" fill="black"/>
<path d="M106.984 98.792H98.6943V107.081H106.984V98.792Z" fill="#4C3510"/>
<path d="M106.984 90.4863H98.6943V98.7756H106.984V90.4863Z" fill="black"/>
<path d="M98.7434 90.4863H90.4541V98.7756H98.7434V90.4863Z" fill="black"/>
<path d="M172.9 90.4863H164.61V98.7756H172.9V90.4863Z" fill="black"/>
<path d="M115.222 90.4863H106.933V98.7756H115.222V90.4863Z" fill="black"/>
<path d="M115.222 32.3945H106.933V40.6838H115.222V32.3945Z" fill="black"/>
<path d="M123.462 90.4863H115.173V98.7756H123.462V90.4863Z" fill="black"/>
<path d="M123.462 24.1055H115.173V32.3948H123.462V24.1055Z" fill="black"/>
<path d="M131.699 90.4863H123.41V98.7756H131.699V90.4863Z" fill="black"/>
<path d="M131.699 15.7998H123.41V24.0891H131.699V15.7998Z" fill="black"/>
<path d="M139.941 15.7998H131.651V24.0891H139.941V15.7998Z" fill="black"/>
<path d="M148.181 90.4863H139.892V98.7756H148.181V90.4863Z" fill="black"/>
<path d="M148.181 15.7998H139.892V24.0891H148.181V15.7998Z" fill="black"/>
<path d="M156.418 90.4863H148.129V98.7756H156.418V90.4863Z" fill="black"/>
<path d="M156.418 15.7998H148.129V24.0891H156.418V15.7998Z" fill="black"/>
<path d="M164.659 15.7998H156.37V24.0891H164.659V15.7998Z" fill="black"/>
<path d="M172.9 15.7998H164.61V24.0891H172.9V15.7998Z" fill="black"/>
<path d="M181.138 15.7998H172.849V24.0891H181.138V15.7998Z" fill="black"/>
<path d="M189.378 15.7998H181.089V24.0891H189.378V15.7998Z" fill="black"/>
<path d="M197.619 90.4863H189.33V98.7756H197.619V90.4863Z" fill="black"/>
<path d="M197.619 15.7998H189.33V24.0891H197.619V15.7998Z" fill="black"/>
<path d="M205.857 15.7998H197.567V24.0891H205.857V15.7998Z" fill="black"/>
<path d="M214.097 90.4863H205.808V98.7756H214.097V90.4863Z" fill="black"/>
<path d="M214.097 15.7998H205.808V24.0891H214.097V15.7998Z" fill="black"/>
<path d="M222.334 98.792H214.045V107.081H222.334V98.792Z" fill="#4C3510"/>
<path d="M222.334 90.4863H214.045V98.7756H222.334V90.4863Z" fill="black"/>
<path d="M222.334 24.1055H214.045V32.3948H222.334V24.1055Z" fill="black"/>
<path d="M230.575 90.4863H222.286V98.7756H230.575V90.4863Z" fill="black"/>
<path d="M230.575 32.3945H222.286V40.6838H230.575V32.3945Z" fill="black"/>
<path d="M238.817 40.7002H230.527V48.9895H238.817V40.7002Z" fill="black"/>
<path d="M172.9 82.1963H164.61V90.4856H172.9V82.1963Z" fill="#E1BE2B"/>
<path d="M238.817 82.1963H230.527V90.4856H238.817V82.1963Z" fill="#E1BE2B"/>
<path d="M115.225 82.1963H106.936V90.4856H115.225V82.1963Z" fill="#E1BE2B"/>
<path d="M115.225 73.8916H106.936V82.1809H115.225V73.8916Z" fill="#F7D939"/>
<path d="M115.225 65.6016H106.936V73.8909H115.225V65.6016Z" fill="#F7D939"/>
<path d="M115.225 57.2949H106.936V65.5842H115.225V57.2949Z" fill="#F7D939"/>
<path d="M115.225 48.9893H106.936V57.2786H115.225V48.9893Z" fill="#F7D939"/>
<path d="M115.225 40.7002H106.936V48.9895H115.225V40.7002Z" fill="#FFE787"/>
<path d="M123.462 82.1963H115.173V90.4856H123.462V82.1963Z" fill="#E1BE2B"/>
<path d="M123.462 73.8916H115.173V82.1809H123.462V73.8916Z" fill="#F7D939"/>
<path d="M123.462 65.6016H115.173V73.8909H123.462V65.6016Z" fill="#F7D939"/>
<path d="M123.462 57.2949H115.173V65.5842H123.462V57.2949Z" fill="#F7D939"/>
<path d="M123.462 48.9893H115.173V57.2786H123.462V48.9893Z" fill="#F7D939"/>
<path d="M123.462 40.7002H115.173V48.9895H123.462V40.7002Z" fill="#F7D939"/>
<path d="M123.462 32.3945H115.173V40.6838H123.462V32.3945Z" fill="#FFE787"/>
<path d="M131.703 82.1963H123.414V90.4856H131.703V82.1963Z" fill="#E1BE2B"/>
<path d="M131.703 73.8916H123.414V82.1809H131.703V73.8916Z" fill="#F7D939"/>
<path d="M131.703 65.6016H123.414V73.8909H131.703V65.6016Z" fill="#F7D939"/>
<path d="M131.703 57.2949H123.414V65.5842H131.703V57.2949Z" fill="#F7D939"/>
<path d="M131.703 48.9893H123.414V57.2786H131.703V48.9893Z" fill="#341A1C"/>
<path d="M131.703 40.7002H123.414V48.9895H131.703V40.7002Z" fill="#341A1C"/>
<path d="M131.703 32.3945H123.414V40.6838H131.703V32.3945Z" fill="#F7D939"/>
<path d="M131.703 24.1055H123.414V32.3948H131.703V24.1055Z" fill="#FFE787"/>
<path d="M139.944 82.1963H131.654V90.4856H139.944V82.1963Z" fill="#E1BE2B"/>
<path d="M139.944 73.8916H131.654V82.1809H139.944V73.8916Z" fill="#F7D939"/>
<path d="M139.944 65.6016H131.654V73.8909H139.944V65.6016Z" fill="#F7D939"/>
<path d="M139.944 57.2949H131.654V65.5842H139.944V57.2949Z" fill="#341A1C"/>
<path d="M139.944 48.9893H131.654V57.2786H139.944V48.9893Z" fill="#341A1C"/>
<path d="M139.944 40.7002H131.654V48.9895H139.944V40.7002Z" fill="#341A1C"/>
<path d="M139.944 32.3945H131.654V40.6838H139.944V32.3945Z" fill="#341A1C"/>
<path d="M139.944 24.1055H131.654V32.3948H139.944V24.1055Z" fill="#F7D939"/>
<path d="M148.181 82.1963H139.892V90.4856H148.181V82.1963Z" fill="#E1BE2B"/>
<path d="M148.181 73.8916H139.892V82.1809H148.181V73.8916Z" fill="#F7D939"/>
<path d="M148.181 65.6016H139.892V73.8909H148.181V65.6016Z" fill="#341A1C"/>
<path d="M148.181 57.2949H139.892V65.5842H148.181V57.2949Z" fill="#341A1C"/>
<path d="M148.181 48.9893H139.892V57.2786H148.181V48.9893Z" fill="#341A1C"/>
<path d="M148.182 40.7002H139.893V48.9895H148.182V40.7002Z" fill="#341A1C"/>
<path d="M148.182 46H139.893V54.2893H148.182V46Z" fill="#F7D939"/>
<path d="M148.181 32.3945H139.892V40.6838H148.181V32.3945Z" fill="#341A1C"/>
<path d="M148.181 24.1055H139.892V32.3948H148.181V24.1055Z" fill="#F7D939"/>
<path d="M156.422 82.1963H148.133V90.4856H156.422V82.1963Z" fill="#E1BE2B"/>
<path d="M156.422 73.8916H148.133V82.1809H156.422V73.8916Z" fill="#F7D939"/>
<path d="M156.422 65.6016H148.133V73.8909H156.422V65.6016Z" fill="#F7D939"/>
<path d="M156.422 57.2949H148.133V65.5842H156.422V57.2949Z" fill="#341A1C"/>
<path d="M156.422 48.9893H148.133V57.2786H156.422V48.9893Z" fill="#341A1C"/>
<path d="M156.422 40.7002H148.133V48.9895H156.422V40.7002Z" fill="#341A1C"/>
<path d="M156.422 46H148.133V54.2893H156.422V46Z" fill="#F7D939"/>
<path d="M156.422 32.3945H148.133V40.6838H156.422V32.3945Z" fill="#341A1C"/>
<path d="M156.422 24.1055H148.133V32.3948H156.422V24.1055Z" fill="#F7D939"/>
<path d="M164.659 82.1963H156.37V90.4856H164.659V82.1963Z" fill="#E1BE2B"/>
<path d="M164.659 73.8916H156.37V82.1809H164.659V73.8916Z" fill="#F7D939"/>
<path d="M164.659 65.6016H156.37V73.8909H164.659V65.6016Z" fill="#F7D939"/>
<path d="M164.659 57.2949H156.37V65.5842H164.659V57.2949Z" fill="#341A1C"/>
<path d="M164.659 48.9893H156.37V57.2786H164.659V48.9893Z" fill="#341A1C"/>
<path d="M164.658 40.7002H156.369V48.9895H164.658V40.7002Z" fill="#341A1C"/>
<path d="M164.658 46H156.369V54.2893H164.658V46Z" fill="#F7D939"/>
<path d="M164.659 32.3945H156.37V40.6838H164.659V32.3945Z" fill="#341A1C"/>
<path d="M164.659 24.1055H156.37V32.3948H164.659V24.1055Z" fill="#F7D939"/>
<path d="M172.9 73.8916H164.61V82.1809H172.9V73.8916Z" fill="#F7D939"/>
<path d="M172.9 65.6016H164.61V73.8909H172.9V65.6016Z" fill="#F7D939"/>
<path d="M172.9 57.2949H164.61V65.5842H172.9V57.2949Z" fill="#341A1C"/>
<path d="M172.9 48.9893H164.61V57.2786H172.9V48.9893Z" fill="#341A1C"/>
<path d="M172.9 40.7002H164.61V48.9895H172.9V40.7002Z" fill="#341A1C"/>
<path d="M172.9 32.3945H164.61V40.6838H172.9V32.3945Z" fill="#341A1C"/>
<path d="M172.9 24.1055H164.61V32.3948H172.9V24.1055Z" fill="#F7D939"/>
<path d="M181.141 82.1963H172.852V90.4856H181.141V82.1963Z" fill="#E1BE2B"/>
<path d="M181.141 73.8916H172.852V82.1809H181.141V73.8916Z" fill="#F7D939"/>
<path d="M181.141 65.6016H172.852V73.8909H181.141V65.6016Z" fill="#F7D939"/>
<path d="M181.141 57.2949H172.852V65.5842H181.141V57.2949Z" fill="#F7D939"/>
<path d="M181.141 48.9893H172.852V57.2786H181.141V48.9893Z" fill="#341A1C"/>
<path d="M181.141 40.7002H172.852V48.9895H181.141V40.7002Z" fill="#341A1C"/>
<path d="M181.141 32.3945H172.852V40.6838H181.141V32.3945Z" fill="#F7D939"/>
<path d="M189.378 82.1963H181.089V90.4856H189.378V82.1963Z" fill="#E1BE2B"/>
<path d="M189.378 73.8916H181.089V82.1809H189.378V73.8916Z" fill="#F7D939"/>
<path d="M189.378 65.6016H181.089V73.8909H189.378V65.6016Z" fill="#F7D939"/>
<path d="M189.378 57.2949H181.089V65.5842H189.378V57.2949Z" fill="#F7D939"/>
<path d="M189.378 48.9893H181.089V57.2786H189.378V48.9893Z" fill="#F7D939"/>
<path d="M189.378 40.7002H181.089V48.9895H189.378V40.7002Z" fill="#F7D939"/>
<path d="M189.378 32.3945H181.089V40.6838H189.378V32.3945Z" fill="#F7D939"/>
<path d="M189.378 24.1055H181.089V32.3948H189.378V24.1055Z" fill="#F7D939"/>
<path d="M181.141 24.1055H172.852V32.3948H181.141V24.1055Z" fill="#F7D939"/>
<path d="M197.619 82.1963H189.33V90.4856H197.619V82.1963Z" fill="#E1BE2B"/>
<path d="M197.619 73.8916H189.33V82.1809H197.619V73.8916Z" fill="#F7D939"/>
<path d="M197.619 65.6016H189.33V73.8909H197.619V65.6016Z" fill="#F7D939"/>
<path d="M197.619 57.2949H189.33V65.5842H197.619V57.2949Z" fill="#F7D939"/>
<path d="M197.619 48.9893H189.33V57.2786H197.619V48.9893Z" fill="#F7D939"/>
<path d="M197.619 40.7002H189.33V48.9895H197.619V40.7002Z" fill="#F7D939"/>
<path d="M197.619 32.3945H189.33V40.6838H197.619V32.3945Z" fill="#F7D939"/>
<path d="M197.619 24.1055H189.33V32.3948H197.619V24.1055Z" fill="#F7D939"/>
<path d="M205.86 82.1963H197.57V90.4856H205.86V82.1963Z" fill="#E1BE2B"/>
<path d="M205.86 73.8916H197.57V82.1809H205.86V73.8916Z" fill="#F7D939"/>
<path d="M205.86 65.6016H197.57V73.8909H205.86V65.6016Z" fill="#F7D939"/>
<path d="M205.86 57.2949H197.57V65.5842H205.86V57.2949Z" fill="#F7D939"/>
<path d="M205.86 48.9893H197.57V57.2786H205.86V48.9893Z" fill="#F7D939"/>
<path d="M205.86 40.7002H197.57V48.9895H205.86V40.7002Z" fill="#F7D939"/>
<path d="M205.86 32.3945H197.57V40.6838H205.86V32.3945Z" fill="#F7D939"/>
<path d="M205.86 24.1055H197.57V32.3948H205.86V24.1055Z" fill="#F7D939"/>
<path d="M214.097 82.1963H205.808V90.4856H214.097V82.1963Z" fill="#E1BE2B"/>
<path d="M214.097 73.8916H205.808V82.1809H214.097V73.8916Z" fill="#F7D939"/>
<path d="M214.097 65.6016H205.808V73.8909H214.097V65.6016Z" fill="#F7D939"/>
<path d="M214.097 57.2949H205.808V65.5842H214.097V57.2949Z" fill="#F7D939"/>
<path d="M214.097 48.9893H205.808V57.2786H214.097V48.9893Z" fill="#F7D939"/>
<path d="M214.097 40.7002H205.808V48.9895H214.097V40.7002Z" fill="#F7D939"/>
<path d="M214.097 32.3945H205.808V40.6838H214.097V32.3945Z" fill="#F7D939"/>
<path d="M214.097 24.1055H205.808V32.3948H214.097V24.1055Z" fill="#F7D939"/>
<path d="M222.338 82.1963H214.049V90.4856H222.338V82.1963Z" fill="#E1BE2B"/>
<path d="M222.338 73.8916H214.049V82.1809H222.338V73.8916Z" fill="#F7D939"/>
<path d="M222.338 65.6016H214.049V73.8909H222.338V65.6016Z" fill="#F7D939"/>
<path d="M222.338 57.2949H214.049V65.5842H222.338V57.2949Z" fill="#F7D939"/>
<path d="M222.338 48.9893H214.049V57.2786H222.338V48.9893Z" fill="#F7D939"/>
<path d="M222.338 40.7002H214.049V48.9895H222.338V40.7002Z" fill="#F7D939"/>
<path d="M222.338 32.3945H214.049V40.6838H222.338V32.3945Z" fill="#F7D939"/>
<path d="M230.578 82.1963H222.289V90.4856H230.578V82.1963Z" fill="#E1BE2B"/>
<path d="M230.578 73.8916H222.289V82.1809H230.578V73.8916Z" fill="#F7D939"/>
<path d="M230.578 65.6016H222.289V73.8909H230.578V65.6016Z" fill="#F7D939"/>
<path d="M230.578 57.2949H222.289V65.5842H230.578V57.2949Z" fill="#F7D939"/>
<path d="M230.578 48.9893H222.289V57.2786H230.578V48.9893Z" fill="#F7D939"/>
<path d="M230.578 40.7002H222.289V48.9895H230.578V40.7002Z" fill="#F7D939"/>
<path d="M238.817 73.8916H230.527V82.1809H238.817V73.8916Z" fill="#E1BE2B"/>
<path d="M238.817 65.6016H230.527V73.8909H238.817V65.6016Z" fill="#E1BE2B"/>
<path d="M238.817 57.2949H230.527V65.5842H238.817V57.2949Z" fill="#E1BE2B"/>
<path d="M238.817 48.9893H230.527V57.2786H238.817V48.9893Z" fill="#E1BE2B"/>
<path d="M106.984 82.1963H98.6943V90.4856H106.984V82.1963Z" fill="#E1BE2B"/>
<path d="M106.984 73.8916H98.6943V82.1809H106.984V73.8916Z" fill="#FFE787"/>
<path d="M106.984 65.6016H98.6943V73.8909H106.984V65.6016Z" fill="#F7D939"/>
<path d="M106.984 57.2949H98.6943V65.5842H106.984V57.2949Z" fill="#FFE787"/>
<path d="M106.984 48.9893H98.6943V57.2786H106.984V48.9893Z" fill="#FFE787"/>
<path d="M106.984 40.7002H98.6943V48.9895H106.984V40.7002Z" fill="black"/>
<path d="M98.7434 82.1963H90.4541V90.4856H98.7434V82.1963Z" fill="black"/>
<path d="M98.7434 73.8916H90.4541V82.1809H98.7434V73.8916Z" fill="black"/>
<path d="M98.7434 65.6016H90.4541V73.8909H98.7434V65.6016Z" fill="black"/>
<path d="M98.7434 57.2949H90.4541V65.5842H98.7434V57.2949Z" fill="black"/>
<path d="M98.7434 48.9893H90.4541V57.2786H98.7434V48.9893Z" fill="black"/>
<path d="M247.073 123.676H238.784V131.965H247.073V123.676Z" fill="black"/>
<path d="M247.073 115.387H238.784V123.676H247.073V115.387Z" fill="black"/>
<path d="M247.073 107.081H238.784V115.37H247.073V107.081Z" fill="black"/>
<path d="M247.073 73.8916H238.784V82.1809H247.073V73.8916Z" fill="black"/>
<path d="M247.073 82.1963H238.784V90.4856H247.073V82.1963Z" fill="black"/>
<path d="M247.073 90.4863H238.784V98.7756H247.073V90.4863Z" fill="black"/>
<path d="M247.073 65.6016H238.784V73.8909H247.073V65.6016Z" fill="black"/>
<path d="M247.073 57.2949H238.784V65.5842H247.073V57.2949Z" fill="black"/>
<path d="M247.073 48.9893H238.784V57.2786H247.073V48.9893Z" fill="black"/>
<path d="M189.094 181.569H197.334V173.33H189.094V181.569Z" fill="white"/>
<path d="M180.906 181.569H189.146V173.33H180.906V181.569Z" fill="white"/>
<path d="M172.701 181.569H180.94V173.33H172.701V181.569Z" fill="white"/>
<path d="M164.508 181.569H172.748V173.33H164.508V181.569Z" fill="white"/>
<path d="M148.114 181.569H156.354V173.33H148.114V181.569Z" fill="white"/>
<path d="M139.906 181.569H148.146V173.33H139.906V181.569Z" fill="white"/>
<path d="M156.303 181.569H164.543V173.33H156.303V181.569Z" fill="white"/>
<path d="M131.717 181.569H139.957V173.33H131.717V181.569Z" fill="white"/>
<path d="M189.094 189.809H197.334V181.569H189.094V189.809Z" fill="black"/>
<path opacity="0.3" d="M180.906 189.809H189.146V181.569H180.906V189.809Z" fill="black"/>
<path opacity="0.3" d="M172.701 189.809H180.94V181.569H172.701V189.809Z" fill="black"/>
<path opacity="0.3" d="M164.508 189.809H172.748V181.569H164.508V189.809Z" fill="black"/>
<path opacity="0.3" d="M156.303 189.809H164.543V181.569H156.303V189.809Z" fill="black"/>
<path opacity="0.3" d="M148.114 189.809H156.354V181.569H148.114V189.809Z" fill="black"/>
<path opacity="0.3" d="M139.906 189.809H148.146V181.569H139.906V189.809Z" fill="black"/>
<path opacity="0.3" d="M131.717 189.809H139.957V181.569H131.717V189.809Z" fill="black"/>
<path d="M123.512 189.809H131.752V181.569H123.512V189.809Z" fill="black"/>
<path d="M197.302 181.569H205.542V173.33H197.302V181.569Z" fill="white"/>
<path d="M205.508 181.569H213.747V173.33H205.508V181.569Z" fill="white"/>
<path d="M123.512 181.569H131.752V173.33H123.512V181.569Z" fill="white"/>
<path d="M189.094 173.329H197.334V165.09H189.094V173.329Z" fill="black"/>
<path d="M180.906 173.329H189.146V165.09H180.906V173.329Z" fill="black"/>
<path d="M172.701 173.329H180.94V165.09H172.701V173.329Z" fill="black"/>
<path d="M164.508 173.329H172.748V165.09H164.508V173.329Z" fill="black"/>
<path d="M148.114 173.329H156.354V165.09H148.114V173.329Z" fill="black"/>
<path d="M139.906 173.329H148.146V165.09H139.906V173.329Z" fill="black"/>
<path d="M156.303 173.329H164.543V165.09H156.303V173.329Z" fill="black"/>
<path d="M131.717 173.329H139.957V165.09H131.717V173.329Z" fill="black"/>
<path d="M197.302 173.329H205.542V165.09H197.302V173.329Z" fill="black"/>
<path d="M205.508 173.329H213.747V165.09H205.508V173.329Z" fill="black"/>
<path d="M123.512 173.329H131.752V165.09H123.512V173.329Z" fill="black"/>
<path d="M189.094 189.809H197.334V181.569H189.094V189.809Z" fill="black"/>
<path d="M180.906 189.809H189.146V181.569H180.906V189.809Z" fill="black"/>
<path d="M172.701 189.809H180.94V181.569H172.701V189.809Z" fill="black"/>
<path d="M164.508 189.809H172.748V181.569H164.508V189.809Z" fill="black"/>
<path d="M148.114 189.809H156.354V181.569H148.114V189.809Z" fill="black"/>
<path d="M139.906 189.809H148.146V181.569H139.906V189.809Z" fill="black"/>
<path d="M156.303 189.809H164.543V181.569H156.303V189.809Z" fill="black"/>
<path d="M131.717 189.809H139.957V181.569H131.717V189.809Z" fill="black"/>
<path d="M123.512 189.809H131.752V181.569H123.512V189.809Z" fill="black"/>
<path d="M197.302 189.809H205.542V181.569H197.302V189.809Z" fill="black"/>
<path d="M205.508 189.809H213.747V181.569H205.508V189.809Z" fill="black"/>
<path d="M213.68 181.569H221.92V173.33H213.68V181.569Z" fill="white"/>
<path d="M213.68 173.329H221.92V165.09H213.68V173.329Z" fill="black"/>
<path d="M213.68 189.809H221.92V181.569H213.68V189.809Z" fill="black"/>
<path d="M221.889 181.569H230.129V173.33H221.889V181.569Z" fill="white"/>
<path d="M221.889 173.329H230.129V165.09H221.889V173.329Z" fill="black"/>
<path d="M221.889 189.809H230.129V181.569H221.889V189.809Z" fill="black"/>
<path d="M230.078 181.569H238.317V173.33H230.078V181.569Z" fill="black"/>
<path d="M123.512 189.809H131.752V181.569H123.512V189.809Z" fill="black"/>
<path d="M115.32 181.569H123.56V173.33H115.32V181.569Z" fill="white"/>
<path d="M115.32 173.329H123.56V165.09H115.32V173.329Z" fill="black"/>
<path d="M115.32 189.809H123.56V181.569H115.32V189.809Z" fill="black"/>
<path d="M107.131 181.569H115.37V173.33H107.131V181.569Z" fill="white"/>
<path d="M107.131 173.329H115.37V165.09H107.131V173.329Z" fill="black"/>
<path d="M107.131 189.809H115.37V181.569H107.131V189.809Z" fill="black"/>
<path d="M98.9255 181.569H107.165V173.33H98.9255V181.569Z" fill="black"/>
<path d="M115.322 198.23H107.032V206.52H115.322V198.23Z" fill="#838383"/>
<path d="M107.214 189.941H98.9248V198.231H107.214V189.941Z" fill="#F6F2EC"/>
<path d="M115.322 206.52H107.032V214.809H115.322V206.52Z" fill="#DAD6D0"/>
<path d="M107.23 206.52H98.9404V214.809H107.23V206.52Z" fill="black"/>
<path d="M107.214 198.247H98.9248V206.536H107.214V198.247Z" fill="#DAD6D0"/>
<path d="M98.925 189.907H90.6357V198.197H98.925V189.907Z" fill="black"/>
<path d="M115.322 189.941H107.032V198.231H115.322V189.941Z" fill="#838383"/>
<path d="M106.984 131.982H98.6943V140.272H106.984V131.982Z" fill="black"/>
<path d="M172.965 256.155H164.676V264.445H172.965V256.155Z" fill="black"/>
<path d="M181.205 256.155H172.916V264.445H181.205V256.155Z" fill="black"/>
<path d="M189.443 256.155H181.153V264.445H189.443V256.155Z" fill="black"/>
<path d="M139.908 189.941H131.619V198.231H139.908V189.941Z" fill="black"/>
<path d="M139.908 198.23H131.619V206.52H139.908V198.23Z" fill="black"/>
<path d="M139.908 206.502H131.619V214.791H139.908V206.502Z" fill="black"/>
<path d="M57.8113 206.47H66.1006V198.18H57.8113V206.47Z" fill="black"/>
<path d="M57.8113 198.181H66.1006V189.891H57.8113V198.181Z" fill="#F7D939"/>
<path d="M49.5711 206.47H57.8604V198.18H49.5711V206.47Z" fill="black"/>
<path d="M49.5711 198.181H57.8604V189.891H49.5711V198.181Z" fill="#F7D939"/>
<path d="M41.3298 206.47H49.6191V198.18H41.3298V206.47Z" fill="black"/>
<path d="M41.3298 198.181H49.6191V189.891H41.3298V198.181Z" fill="#F7D939"/>
<path d="M33.0925 206.47H41.3818V198.18H33.0925V206.47Z" fill="#F7D939"/>
<path d="M33.0925 198.181H41.3818V189.891H33.0925V198.181Z" fill="#F7D939"/>
<path d="M24.8523 206.47H33.1416V198.18H24.8523V206.47Z" fill="black"/>
<path d="M24.8523 198.181H33.1416V189.891H24.8523V198.181Z" fill="#F7D939"/>
<path d="M16.5955 206.47H24.8848V198.18H16.5955V206.47Z" fill="#F7D939"/>
<path d="M16.5955 198.181H24.8848V189.891H16.5955V198.181Z" fill="#F7D939"/>
<path d="M8.35719 206.47H16.6465V198.18H8.35719L8.35719 206.47Z" fill="black"/>
<path d="M8.35719 198.181H16.6465V189.891H8.35719L8.35719 198.181Z" fill="#F7D939"/>
<path d="M0.116956 206.47H8.40625L8.40625 198.18H0.116956L0.116956 206.47Z" fill="black"/>
<path d="M0.116956 198.181H8.40625L8.40625 189.891H0.116956L0.116956 198.181Z" fill="black"/>
<path d="M66.0496 206.47H74.3389V198.18H66.0496V206.47Z" fill="#F7D939"/>
<path d="M66.0496 198.181H74.3389V189.891H66.0496V198.181Z" fill="#F7D939"/>
<path d="M74.2898 206.47H82.5791V198.18H74.2898V206.47Z" fill="#F7D939"/>
<path d="M82.5632 198.181H90.8525V189.891H82.5632V198.181Z" fill="#F7D939"/>
<path d="M74.2898 198.181H82.5791V189.891H74.2898V198.181Z" fill="#F7D939"/>
<path d="M57.8113 214.793H66.1006V206.504H57.8113V214.793Z" fill="#F7D939"/>
<path d="M49.5711 214.793H57.8604V206.504H49.5711V214.793Z" fill="#F7D939"/>
<path d="M41.3298 214.793H49.6191V206.504H41.3298V214.793Z" fill="#F7D939"/>
<path d="M33.0925 214.793H41.3818V206.504H33.0925V214.793Z" fill="#F7D939"/>
<path d="M24.8523 214.793H33.1416V206.504H24.8523V214.793Z" fill="#F7D939"/>
<path d="M16.5955 214.793H24.8848V206.504H16.5955V214.793Z" fill="#F7D939"/>
<path d="M8.35719 214.793H16.6465V206.504H8.35719L8.35719 214.793Z" fill="#F7D939"/>
<path d="M0.116956 214.793H8.40625L8.40625 206.504H0.116956L0.116956 214.793Z" fill="black"/>
<path d="M66.0496 214.793H74.3389V206.504H66.0496V214.793Z" fill="#F7D939"/>
<path d="M74.2898 214.793H82.5791V206.504H74.2898V214.793Z" fill="#F7D939"/>
<path d="M90.8689 198.181H99.1582V189.891H90.8689V198.181Z" fill="black"/>
<path d="M82.5632 189.875H90.8525V181.586H82.5632V189.875Z" fill="black"/>
<path d="M57.8113 189.907H66.1006V181.618H57.8113V189.907Z" fill="black"/>
<path d="M49.5711 189.907H57.8604V181.618H49.5711V189.907Z" fill="black"/>
<path d="M41.3298 189.907H49.6191V181.618H41.3298V189.907Z" fill="black"/>
<path d="M33.0925 189.907H41.3818V181.618H33.0925V189.907Z" fill="black"/>
<path d="M24.8523 189.907H33.1416V181.618H24.8523V189.907Z" fill="black"/>
<path d="M16.5955 189.907H24.8848V181.618H16.5955V189.907Z" fill="black"/>
<path d="M8.35719 189.907H16.6465V181.618H8.35719L8.35719 189.907Z" fill="black"/>
<path d="M0.116956 189.907H8.40625L8.40625 181.618H0.116956L0.116956 189.907Z" fill="black"/>
<path d="M66.0496 189.907H74.3389V181.618H66.0496V189.907Z" fill="black"/>
<path d="M74.2898 189.907H82.5791V181.618H74.2898V189.907Z" fill="black"/>
<path d="M82.5632 189.907H90.8525V181.618H82.5632V189.907Z" fill="black"/>
<path d="M57.8113 223.181H66.1006V214.891H57.8113V223.181Z" fill="black"/>
<path d="M49.5711 223.181H57.8604V214.891H49.5711V223.181Z" fill="black"/>
<path d="M41.3298 223.181H49.6191V214.891H41.3298V223.181Z" fill="black"/>
<path d="M33.0925 223.181H41.3818V214.891H33.0925V223.181Z" fill="black"/>
<path d="M24.8523 223.181H33.1416V214.891H24.8523V223.181Z" fill="black"/>
<path d="M16.5955 223.181H24.8848V214.891H16.5955V223.181Z" fill="black"/>
<path d="M8.35719 223.181H16.6465V214.891H8.35719L8.35719 223.181Z" fill="black"/>
<path d="M0.116956 223.181H8.40625L8.40625 214.891H0.116956L0.116956 223.181Z" fill="black"/>
<path d="M66.0496 223.181H74.3389V214.891H66.0496V223.181Z" fill="black"/>
<path d="M74.2898 223.181H82.5791V214.891H74.2898V223.181Z" fill="black"/>
<path d="M82.5632 223.181H90.8525V214.891H82.5632V223.181Z" fill="black"/>
<path d="M82.5632 214.876H90.8525V205.609H82.5632V214.876Z" fill="black"/>
<path d="M82.5632 206.504H90.8525V198.215H82.5632V206.504Z" fill="black"/>
<path d="M90.8689 189.875H99.1582V181.586H90.8689V189.875Z" fill="black"/>
<path d="M90.8689 206.504H99.1582V198.215H90.8689V206.504Z" fill="black"/>
<path d="M90.8357 198.181H99.125V189.891H90.8357V198.181Z" fill="#F7D939"/>
<path d="M99.1257 198.181H107.415V189.891H99.1257V198.181Z" fill="#F7D939"/>
<path d="M90.8689 189.875H99.1582V181.586H90.8689V189.875Z" fill="black"/>
<path d="M90.8689 189.907H99.1582V181.618H90.8689V189.907Z" fill="black"/>
<path d="M90.8689 206.504H99.1582V198.215H90.8689V206.504Z" fill="black"/>
<path d="M99.1257 189.875H107.415V181.586H99.1257V189.875Z" fill="black"/>
<path d="M99.1257 206.504H107.415V198.215H99.1257V206.504Z" fill="#606060"/>
<path d="M115.338 214.791H107.049V223.08H115.338V214.791Z" fill="black"/>
<path d="M107.246 214.791H98.957V223.08H107.246V214.791Z" fill="black"/>
<path d="M148.181 214.791H139.892V223.08H148.181V214.791Z" fill="#FDEAE0"/>
<path d="M156.47 214.791H148.181V223.08H156.47V214.791Z" fill="#F6F2EC"/>
<path d="M172.948 214.791H164.659V223.08H172.948V214.791Z" fill="#DAD6D0"/>
<path d="M181.19 214.791H172.9V223.08H181.19V214.791Z" fill="black"/>
<path d="M189.427 214.791H181.138V223.08H189.427V214.791Z" fill="black"/>
<path d="M148.181 223.081H139.892V231.37H148.181V223.081Z" fill="black"/>
<path d="M148.181 214.791H139.892V223.08H148.181V214.791Z" fill="#F6F2EC"/>
<path d="M148.179 223.064H139.409V231.354H148.179V223.064Z" fill="#F6F2EC"/>
<path d="M164.708 223.064H156.419V231.354H164.708V223.064Z" fill="#76A8AC"/>
<path d="M172.948 223.064H164.659V231.354H172.948V223.064Z" fill="#DAD6D0"/>
<path d="M181.19 223.064H172.9V231.354H181.19V223.064Z" fill="#F6F2EC"/>
<path d="M189.427 223.064H181.138V231.354H189.427V223.064Z" fill="black"/>
<path d="M189.494 214.743H181.205V223.032H189.494V214.743Z" fill="#F6F2EC"/>
<path d="M197.733 214.743H189.443V223.032H197.733V214.743Z" fill="#F6F2EC"/>
<path d="M205.973 214.743H197.684V223.032H205.973V214.743Z" fill="#DAD6D0"/>
<path d="M214.214 214.743H205.925V223.032H214.214V214.743Z" fill="black"/>
<path d="M148.181 231.338H139.892V239.627H148.181V231.338Z" fill="#F6F2EC"/>
<path d="M172.9 231.338H164.61V239.627H172.9V231.338Z" fill="black"/>
<path d="M181.19 231.338H172.9V239.627H181.19V231.338Z" fill="#F6F2EC"/>
<path d="M189.427 231.338H181.138V239.627H189.427V231.338Z" fill="#F6F2EC"/>
<path d="M189.494 223.032H181.205V231.322H189.494V223.032Z" fill="black"/>
<path d="M197.733 223.032H189.443V231.322H197.733V223.032Z" fill="black"/>
<path d="M205.973 223.032H197.684V231.322H205.973V223.032Z" fill="black"/>
<path d="M148.181 239.627H139.892V247.916H148.181V239.627Z" fill="#DAD6D0"/>
<path d="M156.47 239.627H148.181V247.916H156.47V239.627Z" fill="black"/>
<path d="M181.19 239.627H172.9V247.916H181.19V239.627Z" fill="#F6F2EC"/>
<path d="M189.427 239.627H181.138V247.916H189.427V239.627Z" fill="#F6F2EC"/>
<path d="M197.667 231.338H189.378V239.627H197.667V231.338Z" fill="black"/>
<path d="M197.667 239.627H189.378V247.916H197.667V239.627Z" fill="black"/>
<path d="M140.041 214.791H131.752V223.08H140.041V214.791Z" fill="#FDEAE0"/>
<path d="M140.041 223.081H131.752V231.37H140.041V223.081Z" fill="#F6F2EC"/>
<path d="M139.908 214.791H131.619V223.08H139.908V214.791Z" fill="black"/>
<path d="M140.041 231.338H131.752V239.627H140.041V231.338Z" fill="#F6F2EC"/>
<path d="M140.041 239.627H131.752V247.916H140.041V239.627Z" fill="#DAD6D0"/>
<path d="M131.768 231.338H123.479V239.627H131.768V231.338Z" fill="black"/>
<path d="M131.768 239.627H123.479V247.916H131.768V239.627Z" fill="#DAD6D0"/>
<path d="M131.768 223.081H123.479V231.37H131.768V223.081Z" fill="black"/>
<path d="M123.494 239.627H115.205V247.916H123.494V239.627Z" fill="black"/>
<path d="M156.47 247.9H148.181V256.19H156.47V247.9Z" fill="black"/>
<path d="M181.19 247.9H172.9V256.19H181.19V247.9Z" fill="black"/>
<path d="M172.9 239.627H164.61V247.916H172.9V239.627Z" fill="black"/>
<path d="M189.427 247.9H181.138V256.19H189.427V247.9Z" fill="#F6F2EC"/>
<path d="M197.667 247.9H189.378V256.19H197.667V247.9Z" fill="#F6F2EC"/>
<path d="M172.948 256.189H164.659V264.479H172.948V256.189Z" fill="black"/>
<path d="M181.19 256.189H172.9V264.479H181.19V256.189Z" fill="#DAD6D0"/>
<path d="M189.427 256.189H181.138V264.479H189.427V256.189Z" fill="#DAD6D0"/>
<path d="M197.667 256.189H189.378V264.479H197.667V256.189Z" fill="#DAD6D0"/>
<path d="M139.989 247.9H131.699V256.19H139.989V247.9Z" fill="black"/>
<path d="M148.23 247.9H139.94V256.19H148.23V247.9Z" fill="black"/>
<path d="M131.736 247.9H123.446V256.19H131.736V247.9Z" fill="black"/>
<path d="M123.479 247.9H115.189V256.19H123.479V247.9Z" fill="black"/>
<path d="M172.948 264.461H164.659V272.75H172.948V264.461Z" fill="black"/>
<path d="M181.19 264.461H172.9V272.75H181.19V264.461Z" fill="black"/>
<path d="M189.427 264.461H181.138V272.75H189.427V264.461Z" fill="black"/>
<path d="M197.667 264.461H189.378V272.75H197.667V264.461Z" fill="black"/>
<path d="M205.941 247.9H197.651V256.19H205.941V247.9Z" fill="black"/>
<path d="M205.941 256.189H197.651V264.479H205.941V256.189Z" fill="black"/>
<path d="M205.941 264.461H197.651V272.75H205.941V264.461Z" fill="black"/>
<path d="M156.47 223.064H148.181V231.354H156.47V223.064Z" fill="black"/>
<path d="M156.47 231.338H148.181V239.627H156.47V231.338Z" fill="black"/>
<path d="M164.659 214.791H156.37V223.08H164.659V214.791Z" fill="black"/>
<path d="M164.659 223.064H156.37V231.354H164.659V223.064Z" fill="black"/>
</svg>
