<svg width="auto" height="auto" viewBox="0 0 194 304" fill="none" xmlns="http://www.w3.org/2000/svg">
<path d="M161.025 211.553V203.132H152.604V211.553H161.025Z" fill="black"/>
<path d="M169.464 211.553V203.132H161.042V211.553H169.464Z" fill="black"/>
<path d="M177.883 211.553V203.132H169.461V211.553H177.883Z" fill="black"/>
<path d="M186.322 211.553V203.132H177.901V211.553H186.322Z" fill="black"/>
<path d="M152.603 219.889V211.468H148.383V219.889H152.603Z" fill="black"/>
<path d="M161.025 219.889V211.468H152.604V219.889H161.025Z" fill="#29B9AE"/>
<path d="M169.464 219.889V211.468H161.042V219.889H169.464Z" fill="#29B9AE"/>
<path d="M177.883 219.889V211.468H169.461V219.889H177.883Z" fill="#29B9AE"/>
<path d="M186.322 219.889V211.468H177.901V219.889H186.322Z" fill="black"/>
<path d="M152.603 228.227V219.806H148.383V228.227H152.603Z" fill="black"/>
<path d="M161.025 228.227V219.806H152.604V228.227H161.025Z" fill="#29B9AE"/>
<path d="M169.464 228.227V219.806H161.042V228.227H169.464Z" fill="white"/>
<path d="M177.883 228.227V219.806H169.461V228.227H177.883Z" fill="#29B9AE"/>
<path d="M186.322 228.227V219.806H177.901V228.227H186.322Z" fill="black"/>
<path d="M152.603 236.564V228.143H148.383V236.564H152.603Z" fill="black"/>
<path d="M161.025 236.564V228.143H152.604V236.564H161.025Z" fill="#29B9AE"/>
<path d="M169.464 236.564V228.143H161.042V236.564H169.464Z" fill="#29B9AE"/>
<path d="M177.883 236.564V228.143H169.461V236.564H177.883Z" fill="#29B9AE"/>
<path d="M186.322 236.564V228.143H177.901V236.564H186.322Z" fill="black"/>
<path d="M152.603 244.9V236.479H144.181V244.9H152.603Z" fill="black"/>
<path d="M161.025 244.9V236.479H152.604V244.9H161.025Z" fill="black"/>
<path d="M169.464 244.9V236.479H161.042V244.9H169.464Z" fill="black"/>
<path d="M177.883 244.9V236.479H169.461V244.9H177.883Z" fill="black"/>
<path d="M186.322 244.9V236.479H177.901V244.9H186.322Z" fill="black"/>
<path d="M152.857 278.857V270.436H144.436V278.857H152.857Z" fill="black"/>
<path d="M161.279 278.874V270.452H152.858V278.874H161.279Z" fill="black"/>
<path d="M144.418 287.211V278.789H135.997V287.211H144.418Z" fill="black"/>
<path d="M152.857 287.194V278.772H144.436V287.194H152.857Z" fill="#DDF8FF"/>
<path d="M161.279 287.211V278.789H152.858V287.211H161.279Z" fill="#DDF8FF"/>
<path d="M169.719 287.194V278.772H161.297V287.194H169.719Z" fill="black"/>
<path d="M51.5303 20.0787V11.6572H43.1088V20.0787H51.5303Z" fill="#DDF8FF"/>
<path d="M59.9502 20.0963V11.6748H51.5287V20.0963H59.9502Z" fill="#DDF8FF"/>
<path d="M68.3887 20.0787V11.6572H59.9672V20.0787H68.3887Z" fill="#DDF8FF"/>
<path d="M76.8115 20.0963V11.6748H68.3901V20.0963H76.8115Z" fill="#DDF8FF"/>
<path d="M85.248 20.0787V11.6572H76.8266V20.0787H85.248Z" fill="#DDF8FF"/>
<path d="M93.6865 20.0963V11.6748H85.2651V20.0963H93.6865Z" fill="#DDF8FF"/>
<path d="M102.109 20.0787V11.6572H93.6879V20.0787H102.109Z" fill="#DDF8FF"/>
<path d="M110.545 20.0963V11.6748H102.123V20.0963H110.545Z" fill="#DDF8FF"/>
<path d="M118.968 20.0787V11.6572H110.546V20.0787H118.968Z" fill="#DDF8FF"/>
<path d="M127.407 20.0787V11.6572H118.986V20.0787H127.407Z" fill="#DDF8FF"/>
<path d="M135.83 20.0787V11.6572H127.409V20.0787H135.83Z" fill="#DDF8FF"/>
<path d="M144.266 20.0787V11.6572H135.844V20.0787H144.266Z" fill="#DDF8FF"/>
<path d="M152.688 20.0787V11.6572H144.267V20.0787H152.688Z" fill="#DDF8FF"/>
<path d="M151.925 28.4326H160.347V20.0112H151.925V28.4326Z" fill="#DDF8FF"/>
<path d="M34.6689 28.4156V19.9941H26.2475V28.4156H34.6689Z" fill="#DDF8FF"/>
<path d="M43.0908 28.4156V19.9941H34.6694V28.4156H43.0908Z" fill="#DDF8FF"/>
<path d="M43.0908 25.2476V16.8262H34.6694V25.2476H43.0908Z" fill="#DDF8FF"/>
<path d="M51.5303 28.4156V19.9941H43.1088V28.4156H51.5303Z" fill="#DDF8FF"/>
<path d="M59.9502 28.4332V20.0117H51.5287V28.4332H59.9502Z" fill="#DDF8FF"/>
<path d="M68.3887 28.4156V19.9941H59.9672V28.4156H68.3887Z" fill="#DDF8FF"/>
<path d="M76.8115 28.4332V20.0117H68.3901V28.4332H76.8115Z" fill="#DDF8FF"/>
<path d="M85.248 28.4156V19.9941H76.8266V28.4156H85.248Z" fill="#DDF8FF"/>
<path d="M93.6699 28.4332V20.0117H85.2485V28.4332H93.6699Z" fill="#DDF8FF"/>
<path d="M102.109 28.4156V19.9941H93.6879V28.4156H102.109Z" fill="#DDF8FF"/>
<path d="M110.545 28.4332V20.0117H102.123V28.4332H110.545Z" fill="#DDF8FF"/>
<path d="M118.968 28.4156V19.9941H110.546V28.4156H118.968Z" fill="#DDF8FF"/>
<path d="M127.407 28.4156V19.9941H118.986V28.4156H127.407Z" fill="#DDF8FF"/>
<path d="M135.83 28.4156V19.9941H127.409V28.4156H135.83Z" fill="#DDF8FF"/>
<path d="M144.266 28.4156V19.9941H135.844V28.4156H144.266Z" fill="#DDF8FF"/>
<path d="M152.688 28.4156V19.9941H144.267V28.4156H152.688Z" fill="#DDF8FF"/>
<path d="M160.348 36.7705H168.77V28.349H160.348V36.7705Z" fill="#DDF8FF"/>
<path d="M151.925 36.7705H160.347V28.349H151.925V36.7705Z" fill="#DDF8FF"/>
<path d="M34.6689 36.7535V28.332H26.2475V36.7535H34.6689Z" fill="#DDF8FF"/>
<path d="M43.0908 36.7535V28.332H34.6694V36.7535H43.0908Z" fill="#DDF8FF"/>
<path d="M51.5303 36.7535V28.332H43.1088V36.7535H51.5303Z" fill="#DDF8FF"/>
<path d="M59.9502 36.7701V28.3486H51.5287V36.7701H59.9502Z" fill="#DDF8FF"/>
<path d="M68.3887 36.7535V28.332H59.9672V36.7535H68.3887Z" fill="#DDF8FF"/>
<path d="M76.8115 36.7701V28.3486H68.3901V36.7701H76.8115Z" fill="#DDF8FF"/>
<path d="M85.248 36.7535V28.332H76.8266V36.7535H85.248Z" fill="#DDF8FF"/>
<path d="M93.6699 36.7701V28.3486H85.2485V36.7701H93.6699Z" fill="#DDF8FF"/>
<path d="M102.109 36.7535V28.332H93.6879V36.7535H102.109Z" fill="#DDF8FF"/>
<path d="M110.545 36.7701V28.3486H102.123V36.7701H110.545Z" fill="#DDF8FF"/>
<path d="M118.968 36.7535V28.332H110.546V36.7535H118.968Z" fill="#DDF8FF"/>
<path d="M127.407 36.7535V28.332H118.986V36.7535H127.407Z" fill="#DDF8FF"/>
<path d="M135.83 36.7535V28.332H127.409V36.7535H135.83Z" fill="#DDF8FF"/>
<path d="M144.266 36.7535V28.332H135.844V36.7535H144.266Z" fill="#DDF8FF"/>
<path d="M152.688 36.7535V28.332H144.267V36.7535H152.688Z" fill="#DDF8FF"/>
<path d="M160.348 45.1064H168.77V36.685H160.348V45.1064Z" fill="#DDF8FF"/>
<path d="M151.925 45.1064H160.347V36.685H151.925V45.1064Z" fill="#DDF8FF"/>
<path d="M168.717 45.1064H177.139V36.685H168.717V45.1064Z" fill="#DDF8FF"/>
<path d="M26.2295 45.0894V36.668H17.808V45.0894H26.2295Z" fill="#DDF8FF"/>
<path d="M34.6689 45.0894V36.668H26.2475V45.0894H34.6689Z" fill="#DDF8FF"/>
<path d="M43.0908 45.0894V36.668H34.6694V45.0894H43.0908Z" fill="#DDF8FF"/>
<path d="M51.5303 45.0894V36.668H43.1088V45.0894H51.5303Z" fill="#DDF8FF"/>
<path d="M59.9502 45.106V36.6846H51.5287V45.106H59.9502Z" fill="#DDF8FF"/>
<path d="M68.3887 45.0894V36.668H59.9672V45.0894H68.3887Z" fill="#DDF8FF"/>
<path d="M76.8115 45.106V36.6846H68.3901V45.106H76.8115Z" fill="#DDF8FF"/>
<path d="M85.248 45.0894V36.668H76.8266V45.0894H85.248Z" fill="#DDF8FF"/>
<path d="M93.6699 45.106V36.6846H85.2485V45.106H93.6699Z" fill="#DDF8FF"/>
<path d="M102.109 45.0894V36.668H93.6879V45.0894H102.109Z" fill="#DDF8FF"/>
<path d="M110.545 45.106V36.6846H102.123V45.106H110.545Z" fill="#DDF8FF"/>
<path d="M118.968 45.0894V36.668H110.546V45.0894H118.968Z" fill="#DDF8FF"/>
<path d="M127.407 45.0894V36.668H118.986V45.0894H127.407Z" fill="#DDF8FF"/>
<path d="M135.83 45.0894V36.668H127.409V45.0894H135.83Z" fill="#DDF8FF"/>
<path d="M144.266 45.0894V36.668H135.844V45.0894H144.266Z" fill="#DDF8FF"/>
<path d="M152.688 45.0894V36.668H144.267V45.0894H152.688Z" fill="#DDF8FF"/>
<path d="M160.348 53.4434H168.77V45.0219H160.348V53.4434Z" fill="#DDF8FF"/>
<path d="M151.925 53.4434H160.347V45.0219H151.925V53.4434Z" fill="#DDF8FF"/>
<path d="M168.717 53.4434H177.139V45.0219H168.717V53.4434Z" fill="#DDF8FF"/>
<path d="M177.123 53.4434H185.545V45.0219H177.123V53.4434Z" fill="#DDF8FF"/>
<path d="M17.7939 53.4263V45.0049H9.37248V53.4263H17.7939Z" fill="#DDF8FF"/>
<path d="M51.5303 16.8433V8.42188H43.1088V16.8433H51.5303Z" fill="#DDF8FF"/>
<path d="M59.9502 16.8599V8.43848H51.5287V16.8599H59.9502Z" fill="#DDF8FF"/>
<path d="M68.3887 16.8433V8.42188H59.9672V16.8433H68.3887Z" fill="#DDF8FF"/>
<path d="M76.8115 16.8433V8.42188H68.3901V16.8433H76.8115Z" fill="#DDF8FF"/>
<path d="M85.248 16.8433V8.42188H76.8266V16.8433H85.248Z" fill="#DDF8FF"/>
<path d="M93.6699 16.8433V8.42188H85.2485V16.8433H93.6699Z" fill="#DDF8FF"/>
<path d="M102.109 16.8433V8.42188H93.6879V16.8433H102.109Z" fill="#DDF8FF"/>
<path d="M110.528 16.8433V8.42188H102.107V16.8433H110.528Z" fill="#DDF8FF"/>
<path d="M118.968 16.8433V8.42188H110.546V16.8433H118.968Z" fill="#DDF8FF"/>
<path d="M127.391 16.8433V8.42188H118.969V16.8433H127.391Z" fill="#DDF8FF"/>
<path d="M135.83 16.8433V8.42188H127.409V16.8433H135.83Z" fill="#DDF8FF"/>
<path d="M144.266 16.8433V8.42188H135.844V16.8433H144.266Z" fill="#DDF8FF"/>
<path d="M152.688 16.8433V8.42188H144.267V16.8433H152.688Z" fill="#DDF8FF"/>
<path d="M151.925 25.1973H160.347V16.7758H151.925V25.1973Z" fill="#DDF8FF"/>
<path d="M160.348 33.5332H168.77V25.1117H160.348V33.5332Z" fill="#DDF8FF"/>
<path d="M168.717 41.8701H177.139V33.4487H168.717V41.8701Z" fill="#DDF8FF"/>
<path d="M26.2129 41.8531V33.4316H17.7914V41.8531H26.2129Z" fill="#DDF8FF"/>
<path d="M177.123 50.207H185.545V41.7856H177.123V50.207Z" fill="#DDF8FF"/>
<path d="M17.7734 50.19V41.7686H9.35197V50.19H17.7734Z" fill="#DDF8FF"/>
<path d="M26.2295 53.4263V45.0049H17.808V53.4263H26.2295Z" fill="#DDF8FF"/>
<path d="M34.6689 53.4263V45.0049H26.2475V53.4263H34.6689Z" fill="#DDF8FF"/>
<path d="M43.0908 53.4263V45.0049H34.6694V53.4263H43.0908Z" fill="#DDF8FF"/>
<path d="M51.5303 53.4263V45.0049H43.1088V53.4263H51.5303Z" fill="#DDF8FF"/>
<path d="M59.9502 53.4429V45.0215H51.5287V53.4429H59.9502Z" fill="#DDF8FF"/>
<path d="M68.3887 53.4263V45.0049H59.9672V53.4263H68.3887Z" fill="#DDF8FF"/>
<path d="M76.8115 53.4429V45.0215H68.3901V53.4429H76.8115Z" fill="#DDF8FF"/>
<path d="M85.248 53.4263V45.0049H76.8266V53.4263H85.248Z" fill="#DDF8FF"/>
<path d="M93.6699 53.4429V45.0215H85.2485V53.4429H93.6699Z" fill="#DDF8FF"/>
<path d="M102.109 53.4263V45.0049H93.6879V53.4263H102.109Z" fill="#DDF8FF"/>
<path d="M110.545 53.4429V45.0215H102.123V53.4429H110.545Z" fill="#DDF8FF"/>
<path d="M118.968 53.4263V45.0049H110.546V53.4263H118.968Z" fill="#DDF8FF"/>
<path d="M127.407 53.4263V45.0049H118.986V53.4263H127.407Z" fill="#DDF8FF"/>
<path d="M135.83 53.4263V45.0049H127.409V53.4263H135.83Z" fill="#DDF8FF"/>
<path d="M144.266 53.4263V45.0049H135.844V53.4263H144.266Z" fill="#DDF8FF"/>
<path d="M152.688 53.4263V45.0049H144.267V53.4263H152.688Z" fill="#DDF8FF"/>
<path d="M160.348 61.7803H168.77V53.3588H160.348V61.7803Z" fill="#DDF8FF"/>
<path d="M151.925 61.7803H160.347V53.3588H151.925V61.7803Z" fill="#DDF8FF"/>
<path d="M168.717 61.7803H177.139V53.3588H168.717V61.7803Z" fill="#DDF8FF"/>
<path d="M177.123 61.7803H185.545V53.3588H177.123V61.7803Z" fill="#DDF8FF"/>
<path d="M17.7939 61.7633V53.3418H9.37248V61.7633H17.7939Z" fill="#DDF8FF"/>
<path d="M26.2295 61.7633V53.3418H17.808V61.7633H26.2295Z" fill="#DDF8FF"/>
<path d="M34.6689 61.7633V53.3418H26.2475V61.7633H34.6689Z" fill="#DDF8FF"/>
<path d="M43.0908 61.7633V53.3418H34.6694V61.7633H43.0908Z" fill="#DDF8FF"/>
<path d="M51.5303 61.7633V53.3418H43.1088V61.7633H51.5303Z" fill="#DDF8FF"/>
<path d="M59.9502 61.7808V53.3594H51.5287V61.7808H59.9502Z" fill="#DDF8FF"/>
<path d="M68.3887 61.7633V53.3418H59.9672V61.7633H68.3887Z" fill="#DDF8FF"/>
<path d="M76.8115 61.7808V53.3594H68.3901V61.7808H76.8115Z" fill="#DDF8FF"/>
<path d="M85.248 61.7633V53.3418H76.8266V61.7633H85.248Z" fill="#DDF8FF"/>
<path d="M93.6699 61.7808V53.3594H85.2485V61.7808H93.6699Z" fill="#DDF8FF"/>
<path d="M102.109 61.7633V53.3418H93.6879V61.7633H102.109Z" fill="#DDF8FF"/>
<path d="M110.545 61.7808V53.3594H102.123V61.7808H110.545Z" fill="#DDF8FF"/>
<path d="M118.968 61.7633V53.3418H110.546V61.7633H118.968Z" fill="#DDF8FF"/>
<path d="M127.407 61.7632V53.3418H118.986V61.7632H127.407Z" fill="#DDF8FF"/>
<path d="M135.83 61.7633V53.3418H127.409V61.7633H135.83Z" fill="#DDF8FF"/>
<path d="M144.266 61.7633V53.3418H135.844V61.7633H144.266Z" fill="#DDF8FF"/>
<path d="M152.688 61.7633V53.3418H144.267V61.7633H152.688Z" fill="#DDF8FF"/>
<path d="M160.348 70.1162H168.77V61.6948H160.348V70.1162Z" fill="#DDF8FF"/>
<path d="M151.925 70.1162H160.347V61.6948H151.925V70.1162Z" fill="#DDF8FF"/>
<path d="M168.717 70.1162H177.139V61.6948H168.717V70.1162Z" fill="#DDF8FF"/>
<path d="M177.123 70.1162H185.545V61.6948H177.123V70.1162Z" fill="#DDF8FF"/>
<path d="M17.7939 70.0992V61.6777H9.37249V70.0992H17.7939Z" fill="#DDF8FF"/>
<path d="M26.2295 70.0992V61.6777H17.808V70.0992H26.2295Z" fill="#DDF8FF"/>
<path d="M34.6689 70.0992V61.6777H26.2475V70.0992H34.6689Z" fill="#DDF8FF"/>
<path d="M43.0908 70.0992V61.6777H34.6694V70.0992H43.0908Z" fill="#DDF8FF"/>
<path d="M51.5303 70.0992V61.6777H43.1088V70.0992H51.5303Z" fill="#DDF8FF"/>
<path d="M59.9502 70.1168V61.6953H51.5287V70.1168H59.9502Z" fill="#DDF8FF"/>
<path d="M68.3887 70.0992V61.6777H59.9672V70.0992H68.3887Z" fill="#DDF8FF"/>
<path d="M76.8115 70.1168V61.6953H68.3901V70.1168H76.8115Z" fill="#DDF8FF"/>
<path d="M85.248 70.0992V61.6777H76.8266V70.0992H85.248Z" fill="#DDF8FF"/>
<path d="M93.6699 70.1168V61.6953H85.2485V70.1168H93.6699Z" fill="#DDF8FF"/>
<path d="M102.109 70.0992V61.6777H93.6879V70.0992H102.109Z" fill="#DDF8FF"/>
<path d="M110.545 70.1168V61.6953H102.123V70.1168H110.545Z" fill="#DDF8FF"/>
<path d="M118.968 70.0992V61.6777H110.546V70.0992H118.968Z" fill="#DDF8FF"/>
<path d="M127.407 70.0992V61.6777H118.986V70.0992H127.407Z" fill="#DDF8FF"/>
<path d="M135.83 70.0992V61.6777H127.409V70.0992H135.83Z" fill="#DDF8FF"/>
<path d="M144.266 70.0992V61.6777H135.844V70.0992H144.266Z" fill="#DDF8FF"/>
<path d="M152.688 70.0992V61.6777H144.267V70.0992H152.688Z" fill="#DDF8FF"/>
<path d="M160.348 78.4531H168.77V70.0317H160.348V78.4531Z" fill="#DDF8FF"/>
<path d="M151.925 78.4531H160.347V70.0317H151.925V78.4531Z" fill="#DDF8FF"/>
<path d="M168.717 78.4531H177.139V70.0317H168.717V78.4531Z" fill="#DDF8FF"/>
<path d="M177.123 78.4531H185.545V70.0317H177.123V78.4531Z" fill="#DDF8FF"/>
<path d="M17.7939 78.4361V70.0146H9.37248V78.4361H17.7939Z" fill="#DDF8FF"/>
<path d="M26.2295 78.4361V70.0146H17.808V78.4361H26.2295Z" fill="#DDF8FF"/>
<path d="M34.6689 78.4361V70.0146H26.2475V78.4361H34.6689Z" fill="#DDF8FF"/>
<path d="M43.0908 78.4361V70.0146H34.6694V78.4361H43.0908Z" fill="#DDF8FF"/>
<path d="M51.5303 78.4361V70.0146H43.1088V78.4361H51.5303Z" fill="#DDF8FF"/>
<path d="M59.9502 78.4537V70.0322H51.5287V78.4537H59.9502Z" fill="#DDF8FF"/>
<path d="M68.3887 78.4361V70.0146H59.9672V78.4361H68.3887Z" fill="#DDF8FF"/>
<path d="M76.8115 78.4537V70.0322H68.3901V78.4537H76.8115Z" fill="#DDF8FF"/>
<path d="M85.248 78.4361V70.0146H76.8266V78.4361H85.248Z" fill="#DDF8FF"/>
<path d="M93.6699 78.4537V70.0322H85.2485V78.4537H93.6699Z" fill="#DDF8FF"/>
<path d="M102.109 78.4361V70.0146H93.6879V78.4361H102.109Z" fill="#DDF8FF"/>
<path d="M110.545 78.4537V70.0322H102.123V78.4537H110.545Z" fill="#DDF8FF"/>
<path d="M118.968 78.4361V70.0146H110.546V78.4361H118.968Z" fill="#DDF8FF"/>
<path d="M127.407 78.4361V70.0146H118.986V78.4361H127.407Z" fill="#DDF8FF"/>
<path d="M135.83 78.4361V70.0146H127.409V78.4361H135.83Z" fill="#DDF8FF"/>
<path d="M144.266 78.4361V70.0146H135.844V78.4361H144.266Z" fill="#DDF8FF"/>
<path d="M152.688 78.4361V70.0146H144.267V78.4361H152.688Z" fill="#DDF8FF"/>
<path d="M160.348 86.791H168.77V78.3696H160.348V86.791Z" fill="#DDF8FF"/>
<path d="M151.925 86.791H160.347V78.3696H151.925V86.791Z" fill="#DDF8FF"/>
<path d="M168.717 86.791H177.139V78.3696H168.717V86.791Z" fill="#DDF8FF"/>
<path d="M177.123 86.791H185.545V78.3696H177.123V86.791Z" fill="#DDF8FF"/>
<path d="M17.7939 86.774V78.3525H9.37249V86.774H17.7939Z" fill="#DDF8FF"/>
<path d="M26.2295 86.774V78.3525H17.808V86.774H26.2295Z" fill="#DDF8FF"/>
<path d="M34.6689 86.774V78.3525H26.2475V86.774H34.6689Z" fill="#DDF8FF"/>
<path d="M43.0908 86.774V78.3525H34.6694V86.774H43.0908Z" fill="#DDF8FF"/>
<path d="M51.5303 86.774V78.3525H43.1088V86.774H51.5303Z" fill="#DDF8FF"/>
<path d="M59.9502 86.7906V78.3691H51.5287V86.7906H59.9502Z" fill="#DDF8FF"/>
<path d="M68.3887 86.774V78.3525H59.9672V86.774H68.3887Z" fill="#DDF8FF"/>
<path d="M76.8115 86.7906V78.3691H68.3901V86.7906H76.8115Z" fill="#DDF8FF"/>
<path d="M85.248 86.774V78.3525H76.8266V86.774H85.248Z" fill="#DDF8FF"/>
<path d="M93.6699 86.7906V78.3691H85.2485V86.7906H93.6699Z" fill="#DDF8FF"/>
<path d="M102.109 86.774V78.3525H93.6879V86.774H102.109Z" fill="#DDF8FF"/>
<path d="M110.545 86.774V78.3525H102.123V86.774H110.545Z" fill="#DDF8FF"/>
<path d="M118.968 86.774V78.3525H110.546V86.774H118.968Z" fill="#DDF8FF"/>
<path d="M127.407 86.774V78.3525H118.986V86.774H127.407Z" fill="#DDF8FF"/>
<path d="M135.83 86.774V78.3525H127.409V86.774H135.83Z" fill="#DDF8FF"/>
<path d="M144.266 86.774V78.3525H135.844V86.774H144.266Z" fill="#DDF8FF"/>
<path d="M152.688 86.774V78.3525H144.267V86.774H152.688Z" fill="#DDF8FF"/>
<path d="M160.348 95.127H168.77V86.7055H160.348V95.127Z" fill="#DDF8FF"/>
<path d="M151.925 95.127H160.347V86.7055H151.925V95.127Z" fill="#DDF8FF"/>
<path d="M168.717 95.127H177.139V86.7055H168.717V95.127Z" fill="#DDF8FF"/>
<path d="M177.123 95.127H185.545V86.7055H177.123V95.127Z" fill="#DDF8FF"/>
<path d="M17.7939 95.1099V86.6885H9.37248V95.1099H17.7939Z" fill="#DDF8FF"/>
<path d="M26.2295 95.1099V86.6885H17.808V95.1099H26.2295Z" fill="#DDF8FF"/>
<path d="M34.6689 95.1099V86.6885H26.2475V95.1099H34.6689Z" fill="#DDF8FF"/>
<path d="M43.0908 95.1099V86.6885H34.6694V95.1099H43.0908Z" fill="#DDF8FF"/>
<path d="M51.5303 95.1099V86.6885H43.1088V95.1099H51.5303Z" fill="#DDF8FF"/>
<path d="M59.9502 95.1265V86.7051H51.5287V95.1265H59.9502Z" fill="#DDF8FF"/>
<path d="M68.3887 95.1099V86.6885H59.9672V95.1099H68.3887Z" fill="#DDF8FF"/>
<path d="M76.8115 95.1265V86.7051H68.3901V95.1265H76.8115Z" fill="#DDF8FF"/>
<path d="M85.248 95.1099V86.6885H76.8266V95.1099H85.248Z" fill="#DDF8FF"/>
<path d="M93.6699 95.1265V86.7051H85.2485V95.1265H93.6699Z" fill="#DDF8FF"/>
<path d="M102.109 95.1099V86.6885H93.6879V95.1099H102.109Z" fill="#DDF8FF"/>
<path d="M110.545 95.1099V86.6885H102.123V95.1099H110.545Z" fill="#DDF8FF"/>
<path d="M118.968 95.1099V86.6885H110.546V95.1099H118.968Z" fill="#DDF8FF"/>
<path d="M127.407 95.1099V86.6885H118.986V95.1099H127.407Z" fill="#DDF8FF"/>
<path d="M135.83 95.1099V86.6885H127.409V95.1099H135.83Z" fill="#DDF8FF"/>
<path d="M144.266 95.1099V86.6885H135.844V95.1099H144.266Z" fill="#DDF8FF"/>
<path d="M152.688 95.1099V86.6885H144.267V95.1099H152.688Z" fill="#DDF8FF"/>
<path d="M160.348 103.464H168.77V95.0424H160.348V103.464Z" fill="#DDF8FF"/>
<path d="M151.925 103.464H160.347V95.0424H151.925V103.464Z" fill="#DDF8FF"/>
<path d="M168.717 103.464H177.139V95.0424H168.717V103.464Z" fill="#DDF8FF"/>
<path d="M177.123 103.464H185.545V95.0424H177.123V103.464Z" fill="#DDF8FF"/>
<path d="M17.7939 103.447V95.0254H9.37249V103.447H17.7939Z" fill="#DDF8FF"/>
<path d="M26.2295 103.447V95.0254H17.808V103.447H26.2295Z" fill="#DDF8FF"/>
<path d="M34.6689 103.447V95.0254H26.2475V103.447H34.6689Z" fill="#DDF8FF"/>
<path d="M43.0908 103.447V95.0254H34.6694V103.447H43.0908Z" fill="#DDF8FF"/>
<path d="M51.5303 103.447V95.0254H43.1088V103.447H51.5303Z" fill="#DDF8FF"/>
<path d="M59.9502 103.463V95.042H51.5287V103.463H59.9502Z" fill="#DDF8FF"/>
<path d="M68.3887 103.447V95.0254H59.9672V103.447H68.3887Z" fill="#DDF8FF"/>
<path d="M76.8115 103.463V95.042H68.3901V103.463H76.8115Z" fill="#DDF8FF"/>
<path d="M85.248 103.447V95.0254H76.8266V103.447H85.248Z" fill="#DDF8FF"/>
<path d="M93.6699 103.463V95.042H85.2485V103.463H93.6699Z" fill="#DDF8FF"/>
<path d="M102.109 103.447V95.0254H93.6879V103.447H102.109Z" fill="#DDF8FF"/>
<path d="M110.528 103.447V95.0254H102.107V103.447H110.528Z" fill="#DDF8FF"/>
<path d="M118.968 103.447V95.0254H110.546V103.447H118.968Z" fill="#DDF8FF"/>
<path d="M127.407 103.447V95.0254H118.986V103.447H127.407Z" fill="#DDF8FF"/>
<path d="M135.83 103.447V95.0254H127.409V103.447H135.83Z" fill="#DDF8FF"/>
<path d="M144.266 103.447V95.0254H135.844V103.447H144.266Z" fill="#DDF8FF"/>
<path d="M152.688 103.447V95.0254H144.267V103.447H152.688Z" fill="#DDF8FF"/>
<path d="M160.348 111.801H168.77V103.379H160.348V111.801Z" fill="#DDF8FF"/>
<path d="M151.925 111.801H160.347V103.379H151.925V111.801Z" fill="#DDF8FF"/>
<path d="M168.717 111.801H177.139V103.379H168.717V111.801Z" fill="#DDF8FF"/>
<path d="M177.123 111.801H185.545V103.379H177.123V111.801Z" fill="#DDF8FF"/>
<path d="M17.7939 111.784V103.362H9.37248V111.784H17.7939Z" fill="#DDF8FF"/>
<path d="M26.2295 111.784V103.362H17.808V111.784H26.2295Z" fill="#DDF8FF"/>
<path d="M34.6689 111.784V103.362H26.2475V111.784H34.6689Z" fill="#DDF8FF"/>
<path d="M43.0908 111.784V103.362H34.6694V111.784H43.0908Z" fill="#DDF8FF"/>
<path d="M51.5303 111.784V103.362H43.1088V111.784H51.5303Z" fill="#DDF8FF"/>
<path d="M59.9502 111.8V103.379H51.5287V111.8H59.9502Z" fill="#DDF8FF"/>
<path d="M68.3887 111.784V103.362H59.9672V111.784H68.3887Z" fill="#DDF8FF"/>
<path d="M76.8115 111.8V103.379H68.3901V111.8H76.8115Z" fill="#DDF8FF"/>
<path d="M85.248 111.784V103.362H76.8266V111.784H85.248Z" fill="#DDF8FF"/>
<path d="M93.6699 111.8V103.379H85.2485V111.8H93.6699Z" fill="#DDF8FF"/>
<path d="M102.109 111.784V103.362H93.6879V111.784H102.109Z" fill="#DDF8FF"/>
<path d="M110.528 111.784V103.362H102.107V111.784H110.528Z" fill="#DDF8FF"/>
<path d="M118.968 111.784V103.362H110.546V111.784H118.968Z" fill="#DDF8FF"/>
<path d="M127.407 111.784V103.362H118.986V111.784H127.407Z" fill="#DDF8FF"/>
<path d="M135.83 111.784V103.362H127.409V111.784H135.83Z" fill="#DDF8FF"/>
<path d="M144.266 111.784V103.362H135.844V111.784H144.266Z" fill="#DDF8FF"/>
<path d="M152.688 111.784V103.362H144.267V111.784H152.688Z" fill="#DDF8FF"/>
<path d="M160.348 120.137H168.77V111.715H160.348V120.137Z" fill="#DDF8FF"/>
<path d="M151.925 120.137H160.347V111.715H151.925V120.137Z" fill="#DDF8FF"/>
<path d="M168.717 120.137H177.139V111.715H168.717V120.137Z" fill="#DDF8FF"/>
<path d="M177.123 120.137H185.545V111.715H177.123V120.137Z" fill="#DDF8FF"/>
<path d="M17.7939 120.12V111.698H9.37248V120.12H17.7939Z" fill="#DDF8FF"/>
<path d="M26.2295 120.12V111.698H17.808V120.12H26.2295Z" fill="#DDF8FF"/>
<path d="M34.6689 120.12V111.698H26.2475V120.12H34.6689Z" fill="#DDF8FF"/>
<path d="M43.0908 120.12V111.698H34.6694V120.12H43.0908Z" fill="#DDF8FF"/>
<path d="M51.5303 120.12V111.698H43.1088V120.12H51.5303Z" fill="#DDF8FF"/>
<path d="M59.9502 120.137V111.716H51.5287V120.137H59.9502Z" fill="#DDF8FF"/>
<path d="M68.3887 120.12V111.698H59.9672V120.12H68.3887Z" fill="#DDF8FF"/>
<path d="M76.8115 120.137V111.716H68.3901V120.137H76.8115Z" fill="#DDF8FF"/>
<path d="M85.248 120.12V111.698H76.8266V120.12H85.248Z" fill="#DDF8FF"/>
<path d="M93.6699 120.137V111.716H85.2485V120.137H93.6699Z" fill="#DDF8FF"/>
<path d="M102.109 120.12V111.698H93.6879V120.12H102.109Z" fill="#DDF8FF"/>
<path d="M110.528 120.12V111.698H102.107V120.12H110.528Z" fill="#DDF8FF"/>
<path d="M118.968 120.12V111.698H110.546V120.12H118.968Z" fill="#DDF8FF"/>
<path d="M127.407 120.12V111.698H118.986V120.12H127.407Z" fill="#DDF8FF"/>
<path d="M135.83 120.12V111.698H127.409V120.12H135.83Z" fill="#DDF8FF"/>
<path d="M144.266 120.12V111.698H135.844V120.12H144.266Z" fill="#DDF8FF"/>
<path d="M152.688 120.12V111.698H144.267V120.12H152.688Z" fill="#DDF8FF"/>
<path d="M160.348 128.474H168.77V120.052H160.348V128.474Z" fill="#DDF8FF"/>
<path d="M151.925 128.474H160.347V120.052H151.925V128.474Z" fill="#DDF8FF"/>
<path d="M168.717 128.474H177.139V120.052H168.717V128.474Z" fill="#DDF8FF"/>
<path d="M177.123 128.474H185.545V120.052H177.123V128.474Z" fill="#DDF8FF"/>
<path d="M17.7939 128.457V120.035H9.37248V128.457H17.7939Z" fill="#DDF8FF"/>
<path d="M26.2295 128.457V120.035H17.808V128.457H26.2295Z" fill="#DDF8FF"/>
<path d="M34.6689 128.457V120.035H26.2475V128.457H34.6689Z" fill="#DDF8FF"/>
<path d="M43.0908 128.457V120.035H34.6694V128.457H43.0908Z" fill="#DDF8FF"/>
<path d="M51.5303 128.457V120.035H43.1088V128.457H51.5303Z" fill="#DDF8FF"/>
<path d="M59.9502 128.474V120.053H51.5287V128.474H59.9502Z" fill="#DDF8FF"/>
<path d="M68.3887 128.457V120.035H59.9672V128.457H68.3887Z" fill="#DDF8FF"/>
<path d="M76.8115 128.474V120.053H68.3901V128.474H76.8115Z" fill="#DDF8FF"/>
<path d="M85.248 128.457V120.035H76.8266V128.457H85.248Z" fill="#DDF8FF"/>
<path d="M93.6699 128.474V120.053H85.2485V128.474H93.6699Z" fill="#DDF8FF"/>
<path d="M102.109 128.457V120.035H93.6879V128.457H102.109Z" fill="#DDF8FF"/>
<path d="M110.528 128.457V120.035H102.107V128.457H110.528Z" fill="#DDF8FF"/>
<path d="M118.968 128.457V120.035H110.546V128.457H118.968Z" fill="#DDF8FF"/>
<path d="M127.407 128.457V120.035H118.986V128.457H127.407Z" fill="#DDF8FF"/>
<path d="M135.83 128.457V120.035H127.409V128.457H135.83Z" fill="#DDF8FF"/>
<path d="M144.266 128.457V120.035H135.844V128.457H144.266Z" fill="#DDF8FF"/>
<path d="M152.688 128.457V120.035H144.267V128.457H152.688Z" fill="#DDF8FF"/>
<path d="M160.348 136.811H168.77V128.389H160.348V136.811Z" fill="#DDF8FF"/>
<path d="M151.925 136.811H160.347V128.389H151.925V136.811Z" fill="#DDF8FF"/>
<path d="M168.717 136.811H177.139V128.389H168.717V136.811Z" fill="#DDF8FF"/>
<path d="M177.123 136.811H185.545V128.389H177.123V136.811Z" fill="#DDF8FF"/>
<path d="M17.7939 136.794V128.372H9.37248V136.794H17.7939Z" fill="#DDF8FF"/>
<path d="M26.2295 136.794V128.372H17.808V136.794H26.2295Z" fill="#DDF8FF"/>
<path d="M34.6689 136.794V128.372H26.2475V136.794H34.6689Z" fill="#DDF8FF"/>
<path d="M43.0908 136.794V128.372H34.6694V136.794H43.0908Z" fill="#DDF8FF"/>
<path d="M51.5303 136.794V128.372H43.1088V136.794H51.5303Z" fill="#DDF8FF"/>
<path d="M59.9502 136.811V128.39H51.5287V136.811H59.9502Z" fill="#DDF8FF"/>
<path d="M68.3887 136.794V128.372H59.9672V136.794H68.3887Z" fill="#DDF8FF"/>
<path d="M76.8115 136.811V128.39H68.3901V136.811H76.8115Z" fill="#DDF8FF"/>
<path d="M85.248 136.794V128.372H76.8266V136.794H85.248Z" fill="#DDF8FF"/>
<path d="M93.6699 136.811V128.39H85.2485V136.811H93.6699Z" fill="#DDF8FF"/>
<path d="M102.109 136.794V128.372H93.6879V136.794H102.109Z" fill="#DDF8FF"/>
<path d="M110.528 136.794V128.372H102.107V136.794H110.528Z" fill="#DDF8FF"/>
<path d="M118.968 136.794V128.372H110.546V136.794H118.968Z" fill="#DDF8FF"/>
<path d="M127.407 136.794V128.372H118.986V136.794H127.407Z" fill="#DDF8FF"/>
<path d="M135.83 136.794V128.372H127.409V136.794H135.83Z" fill="#DDF8FF"/>
<path d="M144.266 136.794V128.372H135.844V136.794H144.266Z" fill="#DDF8FF"/>
<path d="M152.688 136.794V128.372H144.267V136.794H152.688Z" fill="#DDF8FF"/>
<path d="M160.348 145.147H168.77V136.726H160.348V145.147Z" fill="#DDF8FF"/>
<path d="M151.925 145.147H160.347V136.726H151.925V145.147Z" fill="#DDF8FF"/>
<path d="M168.717 145.147H177.139V136.726H168.717V145.147Z" fill="#DDF8FF"/>
<path d="M177.123 145.147H185.545V136.726H177.123V145.147Z" fill="#DDF8FF"/>
<path d="M17.7939 145.13V136.709H9.37248V145.13H17.7939Z" fill="#DDF8FF"/>
<path d="M26.2295 145.13V136.709H17.808V145.13H26.2295Z" fill="#DDF8FF"/>
<path d="M34.6689 145.13V136.709H26.2475V145.13H34.6689Z" fill="#DDF8FF"/>
<path d="M43.0908 145.13V136.709H34.6694V145.13H43.0908Z" fill="#DDF8FF"/>
<path d="M51.5303 145.13V136.709H43.1088V145.13H51.5303Z" fill="#DDF8FF"/>
<path d="M59.9502 145.147V136.726H51.5287V145.147H59.9502Z" fill="#DDF8FF"/>
<path d="M68.3887 145.13V136.709H59.9672V145.13H68.3887Z" fill="#DDF8FF"/>
<path d="M76.8115 145.147V136.726H68.3901V145.147H76.8115Z" fill="#DDF8FF"/>
<path d="M85.248 145.13V136.709H76.8266V145.13H85.248Z" fill="#DDF8FF"/>
<path d="M93.6699 145.147V136.726H85.2485V145.147H93.6699Z" fill="#DDF8FF"/>
<path d="M102.109 145.13V136.709H93.6879V145.13H102.109Z" fill="#DDF8FF"/>
<path d="M110.528 145.13V136.709H102.107V145.13H110.528Z" fill="#DDF8FF"/>
<path d="M118.968 145.13V136.709H110.546V145.13H118.968Z" fill="#DDF8FF"/>
<path d="M127.407 145.13V136.709H118.986V145.13H127.407Z" fill="#DDF8FF"/>
<path d="M135.83 145.13V136.709H127.409V145.13H135.83Z" fill="#DDF8FF"/>
<path d="M144.266 145.13V136.709H135.844V145.13H144.266Z" fill="#DDF8FF"/>
<path d="M152.688 145.13V136.709H144.267V145.13H152.688Z" fill="#DDF8FF"/>
<path d="M160.348 153.484H168.77V145.063H160.348V153.484Z" fill="#DDF8FF"/>
<path d="M151.925 153.484H160.347V145.063H151.925V153.484Z" fill="#DDF8FF"/>
<path d="M168.717 153.484H177.139V145.063H168.717V153.484Z" fill="#DDF8FF"/>
<path d="M26.2295 153.467V145.046H17.808V153.467H26.2295Z" fill="#DDF8FF"/>
<path d="M34.6689 153.467V145.046H26.2475V153.467H34.6689Z" fill="#DDF8FF"/>
<path d="M43.0908 153.467V145.046H34.6694V153.467H43.0908Z" fill="#DDF8FF"/>
<path d="M51.5303 153.467V145.046H43.1088V153.467H51.5303Z" fill="#DDF8FF"/>
<path d="M59.9502 153.484V145.062H51.5287V153.484H59.9502Z" fill="#DDF8FF"/>
<path d="M68.3887 153.467V145.046H59.9672V153.467H68.3887Z" fill="#DDF8FF"/>
<path d="M76.8115 153.484V145.062H68.3901V153.484H76.8115Z" fill="#DDF8FF"/>
<path d="M85.248 153.467V145.046H76.8266V153.467H85.248Z" fill="#DDF8FF"/>
<path d="M93.6699 153.484V145.062H85.2485V153.484H93.6699Z" fill="#DDF8FF"/>
<path d="M102.109 153.467V145.046H93.6879V153.467H102.109Z" fill="#DDF8FF"/>
<path d="M110.528 153.467V145.046H102.107V153.467H110.528Z" fill="#DDF8FF"/>
<path d="M118.968 153.467V145.046H110.546V153.467H118.968Z" fill="#DDF8FF"/>
<path d="M127.407 153.467V145.046H118.986V153.467H127.407Z" fill="#DDF8FF"/>
<path d="M135.83 153.467V145.046H127.409V153.467H135.83Z" fill="#DDF8FF"/>
<path d="M144.266 153.467V145.046H135.844V153.467H144.266Z" fill="#DDF8FF"/>
<path d="M152.688 153.467V145.046H144.267V153.467H152.688Z" fill="#DDF8FF"/>
<path d="M160.348 161.821H168.77V153.4H160.348V161.821Z" fill="#DDF8FF"/>
<path d="M151.925 161.821H160.347V153.4H151.925V161.821Z" fill="#DDF8FF"/>
<path d="M34.6689 161.804V153.383H26.2475V161.804H34.6689Z" fill="#DDF8FF"/>
<path d="M43.0908 161.804V153.383H34.6694V161.804H43.0908Z" fill="#DDF8FF"/>
<path d="M51.5303 161.804V153.383H43.1088V161.804H51.5303Z" fill="#DDF8FF"/>
<path d="M59.9502 161.821V153.399H51.5287V161.821H59.9502Z" fill="#DDF8FF"/>
<path d="M68.3887 161.804V153.383H59.9672V161.804H68.3887Z" fill="#DDF8FF"/>
<path d="M76.8115 161.821V153.399H68.3901V161.821H76.8115Z" fill="#DDF8FF"/>
<path d="M85.248 161.804V153.383H76.8266V161.804H85.248Z" fill="#DDF8FF"/>
<path d="M93.6699 161.804V153.383H85.2485V161.804H93.6699Z" fill="#DDF8FF"/>
<path d="M102.109 161.804V153.383H93.6879V161.804H102.109Z" fill="#DDF8FF"/>
<path d="M110.528 161.804V153.383H102.107V161.804H110.528Z" fill="#DDF8FF"/>
<path d="M118.968 161.804V153.383H110.546V161.804H118.968Z" fill="#DDF8FF"/>
<path d="M127.407 161.804V153.383H118.986V161.804H127.407Z" fill="#DDF8FF"/>
<path d="M135.83 161.804V153.383H127.409V161.804H135.83Z" fill="#DDF8FF"/>
<path d="M144.266 161.804V153.383H135.844V161.804H144.266Z" fill="#DDF8FF"/>
<path d="M152.688 161.804V153.383H144.267V161.804H152.688Z" fill="#DDF8FF"/>
<path d="M151.925 170.157H160.347V161.736H151.925V170.157Z" fill="#DDF8FF"/>
<path d="M43.0908 170.14V161.719H34.6694V170.14H43.0908Z" fill="#DDF8FF"/>
<path d="M51.5303 170.14V161.719H43.1088V170.14H51.5303Z" fill="#DDF8FF"/>
<path d="M59.9502 170.158V161.736H51.5287V170.158H59.9502Z" fill="#DDF8FF"/>
<path d="M68.3887 170.14V161.719H59.9672V170.14H68.3887Z" fill="#DDF8FF"/>
<path d="M76.8115 170.158V161.736H68.3901V170.158H76.8115Z" fill="#DDF8FF"/>
<path d="M85.248 170.14V161.719H76.8266V170.14H85.248Z" fill="#DDF8FF"/>
<path d="M93.6699 170.14V161.719H85.2485V170.14H93.6699Z" fill="#DDF8FF"/>
<path d="M102.109 170.14V161.719H93.6879V170.14H102.109Z" fill="#DDF8FF"/>
<path d="M110.528 170.14V161.719H102.107V170.14H110.528Z" fill="#DDF8FF"/>
<path d="M118.968 170.14V161.719H110.546V170.14H118.968Z" fill="#DDF8FF"/>
<path d="M127.391 170.14V161.719H118.969V170.14H127.391Z" fill="#DDF8FF"/>
<path d="M135.83 170.14V161.719H127.409V170.14H135.83Z" fill="#DDF8FF"/>
<path d="M144.266 170.14V161.719H135.844V170.14H144.266Z" fill="#DDF8FF"/>
<path d="M152.688 170.14V161.719H144.267V170.14H152.688Z" fill="#DDF8FF"/>
<path d="M160.348 168.972H168.77V160.55H160.348V168.972Z" fill="black"/>
<path d="M168.717 160.55H177.139V152.128H168.717V160.55Z" fill="black"/>
<path d="M177.123 152.111H185.545V143.69H177.123V152.111Z" fill="black"/>
<path d="M185.509 143.673H193.931V135.251H185.509V143.673Z" fill="black"/>
<path d="M185.509 135.234H193.931V126.813H185.509V135.234Z" fill="black"/>
<path d="M185.509 126.779H193.931V118.358H185.509V126.779Z" fill="black"/>
<path d="M185.509 118.324H193.931V109.903H185.509V118.324Z" fill="black"/>
<path d="M185.509 109.886H193.931V101.464H185.509V109.886Z" fill="black"/>
<path d="M185.509 101.43H193.931V93.0082H185.509V101.43Z" fill="black"/>
<path d="M185.509 92.9922H193.931V84.5707H185.509V92.9922Z" fill="black"/>
<path d="M185.509 84.5371H193.931V76.1156H185.509V84.5371Z" fill="black"/>
<path d="M185.509 76.0811H193.931V67.6596H185.509V76.0811Z" fill="black"/>
<path d="M185.509 67.6426H193.931V59.2211H185.509V67.6426Z" fill="black"/>
<path d="M185.509 59.1875H193.931V50.766H185.509V59.1875Z" fill="black"/>
<path d="M0.933032 143.673H9.35449L9.35449 135.251H0.933032L0.933032 143.673Z" fill="black"/>
<path d="M0.933032 135.234H9.35449L9.35449 126.813H0.933032L0.933032 135.234Z" fill="black"/>
<path d="M0.933032 126.779H9.35449L9.35449 118.358H0.933032L0.933032 126.779Z" fill="black"/>
<path d="M0.933032 118.324H9.35449L9.35449 109.903H0.933032L0.933032 118.324Z" fill="black"/>
<path d="M0.933032 109.886H9.35449L9.35449 101.464H0.933032L0.933032 109.886Z" fill="black"/>
<path d="M0.933032 101.43H9.35449L9.35449 93.0082H0.933032L0.933032 101.43Z" fill="black"/>
<path d="M0.933032 92.9922H9.35449L9.35449 84.5707H0.933032L0.933032 92.9922Z" fill="black"/>
<path d="M0.933032 84.5371H9.35449L9.35449 76.1156H0.933032L0.933032 84.5371Z" fill="black"/>
<path d="M0.933032 76.0811H9.35449L9.35449 67.6596H0.933032L0.933032 76.0811Z" fill="black"/>
<path d="M0.933032 67.6426H9.35449L9.35449 59.2211H0.933032L0.933032 67.6426Z" fill="black"/>
<path d="M0.933032 59.1875H9.35449L9.35449 50.766H0.933032L0.933032 59.1875Z" fill="black"/>
<path d="M9.35449 143.69V152.111H17.7759V143.69H9.35449Z" fill="black"/>
<path d="M17.7939 152.128V160.55H26.2154V152.128H17.7939Z" fill="black"/>
<path d="M26.2295 160.567V168.988H34.651V160.567H26.2295Z" fill="black"/>
<path d="M160.348 25.2988H168.77V16.8774H160.348V25.2988Z" fill="black"/>
<path d="M151.925 16.8604H160.347V8.43889L151.925 8.43889V16.8604Z" fill="black"/>
<path d="M168.717 33.7197H177.139V25.2983H168.717V33.7197Z" fill="black"/>
<path d="M177.123 42.1582H185.545V33.7367H177.123V42.1582Z" fill="black"/>
<path d="M185.509 50.5967H193.931V42.1752H185.509V50.5967Z" fill="black"/>
<path d="M9.37109 51.1219V42.1582H0.949634V51.1219H9.37109Z" fill="black"/>
<path d="M17.7939 42.1588V33.7373H9.37248V42.1588H17.7939Z" fill="black"/>
<path d="M26.2295 33.7027V25.2812H17.808V33.7027H26.2295Z" fill="black"/>
<path d="M34.6025 25.2135V16.792H26.1811V25.2135H34.6025Z" fill="black"/>
<path d="M43.0908 16.8433V8.42188H34.6694V16.8433H43.0908Z" fill="black"/>
<path d="M51.5107 8.42146V0L43.0893 0V8.42146H51.5107Z" fill="black"/>
<path d="M59.9502 8.42146V0L51.5287 0V8.42146H59.9502Z" fill="black"/>
<path d="M68.3887 8.42146V0L59.9672 0V8.42146H68.3887Z" fill="black"/>
<path d="M76.8115 8.42146V0L68.3901 0V8.42146H76.8115Z" fill="black"/>
<path d="M85.248 8.42146V0L76.8266 0V8.42146H85.248Z" fill="black"/>
<path d="M93.6699 8.42146V0L85.2485 0V8.42146H93.6699Z" fill="black"/>
<path d="M102.109 8.42146V0L93.6879 0V8.42146H102.109Z" fill="black"/>
<path d="M110.528 8.42146V0L102.107 0V8.42146H110.528Z" fill="black"/>
<path d="M118.968 8.42146V0L110.546 0V8.42146H118.968Z" fill="black"/>
<path d="M127.391 8.42145V0L118.969 0V8.42145H127.391Z" fill="black"/>
<path d="M135.83 8.42146V0L127.409 0V8.42146H135.83Z" fill="black"/>
<path d="M144.249 8.42146V0L135.828 0V8.42146H144.249Z" fill="black"/>
<path d="M152.688 8.42146V0L144.267 0V8.42146H152.688Z" fill="black"/>
<path d="M68.2867 168.802H59.8145V177.274H68.2867V168.802Z" fill="black"/>
<path d="M42.9557 143.386H34.4834V151.858H42.9557V143.386Z" fill="black"/>
<path d="M42.9557 100.973H34.4834V109.445H42.9557V100.973Z" fill="black"/>
<path d="M51.3746 100.973H42.9023V109.445H51.3746V100.973Z" fill="black"/>
<path d="M59.7975 100.973H51.3252V109.445H59.7975V100.973Z" fill="#4C3510"/>
<path d="M68.2203 92.4834H59.748V100.956H68.2203V92.4834Z" fill="black"/>
<path d="M76.6598 100.973H68.1875V109.445H76.6598V100.973Z" fill="black"/>
<path d="M85.0787 100.973H76.6064V109.445H85.0787V100.973Z" fill="#4C3510"/>
<path d="M93.5016 92.4834H85.0293V100.956H93.5016V92.4834Z" fill="black"/>
<path d="M110.343 92.4834H101.871V100.956H110.343V92.4834Z" fill="black"/>
<path d="M118.766 92.4834H110.294V100.956H118.766V92.4834Z" fill="black"/>
<path d="M135.608 92.4834H127.136V100.956H135.608V92.4834Z" fill="#239686"/>
<path d="M144.031 143.386H135.559V151.858H144.031V143.386Z" fill="black"/>
<path d="M152.45 134.896H143.978V143.368H152.45V134.896Z" fill="black"/>
<path d="M152.45 109.445H143.978V117.918H152.45V109.445Z" fill="#29B9AE"/>
<path d="M160.873 134.896H152.4V143.368H160.873V134.896Z" fill="black"/>
<path d="M160.873 100.973H152.4V109.445H160.873V100.973Z" fill="#29B9AE"/>
<path d="M169.296 134.896H160.823V143.368H169.296V134.896Z" fill="black"/>
<path d="M169.296 92.4834H160.823V100.956H169.296V92.4834Z" fill="#239686"/>
<path d="M51.3746 151.84H42.9023V160.312H51.3746V151.84Z" fill="black"/>
<path d="M135.608 151.84H127.136V160.312H135.608V151.84Z" fill="black"/>
<path d="M59.7975 160.296H51.3252V168.768H59.7975V160.296Z" fill="black"/>
<path d="M68.2203 160.296H59.748V168.768H68.2203V160.296Z" fill="black"/>
<path d="M118.766 160.296H110.294V168.768H118.766V160.296Z" fill="black"/>
<path d="M127.185 160.296H118.713V168.768H127.185V160.296Z" fill="black"/>
<path d="M76.6598 168.769H68.1875V177.241H76.6598V168.769Z" fill="black"/>
<path d="M85.0787 168.769H76.6064V177.241H85.0787V168.769Z" fill="black"/>
<path d="M93.5016 168.769H85.0293V177.241H93.5016V168.769Z" fill="black"/>
<path d="M101.921 168.769H93.4482V177.241H101.921V168.769Z" fill="black"/>
<path d="M110.343 168.769H101.871V177.241H110.343V168.769Z" fill="black"/>
<path d="M118.766 168.769H110.294V177.241H118.766V168.769Z" fill="#F6F2EC"/>
<path d="M127.185 168.769H118.713V177.241H127.185V168.769Z" fill="#F6F2EC"/>
<path d="M135.608 168.769H127.136V177.241H135.608V168.769Z" fill="black"/>
<path d="M152.638 168.769H144.166V177.241H152.638V168.769Z" fill="black"/>
<path opacity="0.3" d="M68.32 177.207H59.8477V185.679H68.32V177.207Z" fill="black"/>
<path d="M59.9 185.679H51.4277V194.151H59.9V185.679Z" fill="#DAD6D0"/>
<path opacity="0.3" d="M68.32 185.679H59.8477V194.151H68.32V185.679Z" fill="black"/>
<path d="M51.4772 194.134H43.0049V202.606H51.4772V194.134Z" fill="#F6F2EC"/>
<path d="M59.9 194.134H51.4277V202.606H59.9V194.134Z" fill="#DAD6D0"/>
<path d="M68.32 194.134H59.8477V202.606H68.32V194.134Z" fill="black"/>
<path d="M43.0582 202.606H34.5859V211.079H43.0582V202.606Z" fill="#F6F2EC"/>
<path d="M51.4772 185.747H43.0049V194.219H51.4772V185.747Z" fill="#F6F2EC"/>
<path d="M59.9 177.257H51.4277V185.729H59.9V177.257Z" fill="#DAD6D0"/>
<path d="M51.4772 177.343H43.0049V185.815H51.4772V177.343Z" fill="black"/>
<path d="M43.0582 185.797H34.5859V193.998H43.0582V185.797Z" fill="black"/>
<path d="M51.4772 202.606H43.0049V211.079H51.4772V202.606Z" fill="#DAD6D0"/>
<path d="M59.9 202.606H51.4277V211.079H59.9V202.606Z" fill="black"/>
<path d="M43.0582 211.062H34.5859V219.534H43.0582V211.062Z" fill="#DAD6D0"/>
<path d="M43.0582 219.534H34.5859V228.006H43.0582V219.534Z" fill="black"/>
<path d="M34.7877 202.606H26.3154V211.079H34.7877V202.606Z" fill="#F6F2EC"/>
<path d="M34.7877 194.134H26.3154V202.606H34.7877V194.134Z" fill="black"/>
<path d="M34.7877 211.062H26.3154V219.534H34.7877V211.062Z" fill="#F6F2EC"/>
<path d="M34.7877 219.534H26.3154V228.006H34.7877V219.534Z" fill="black"/>
<path d="M26.5172 202.606H18.0449V211.079H26.5172V202.606Z" fill="black"/>
<path d="M26.5172 211.062H18.0449V219.534H26.5172V211.062Z" fill="black"/>
<path d="M51.4772 211.062H43.0049V219.534H51.4772V211.062Z" fill="black"/>
<path d="M68.2203 177.224H59.748V185.696H68.2203V177.224Z" fill="black"/>
<path d="M76.6598 177.224H68.1875V185.696H76.6598V177.224Z" fill="#DAD6D0"/>
<path d="M85.0787 177.224H76.6064V185.696H85.0787V177.224Z" fill="#DAD6D0"/>
<path d="M93.5016 177.224H85.0293V185.696H93.5016V177.224Z" fill="#DAD6D0"/>
<path d="M101.921 177.224H93.4482V185.696H101.921V177.224Z" fill="#DAD6D0"/>
<path d="M110.343 177.224H101.871V185.696H110.343V177.224Z" fill="#DAD6D0"/>
<path d="M118.766 177.224H110.294V185.696H118.766V177.224Z" fill="#DAD6D0"/>
<path d="M127.185 177.224H118.713V185.696H127.185V177.224Z" fill="#DAD6D0"/>
<path d="M135.608 177.224H127.136V185.696H135.608V177.224Z" fill="black"/>
<path d="M68.2203 185.679H59.748V194.151H68.2203V185.679Z" fill="black"/>
<path d="M68.1871 185.679H59.7148V194.151H68.1871V185.679Z" fill="black"/>
<path d="M76.6598 185.679H68.1875V194.151H76.6598V185.679Z" fill="#F6F2EC"/>
<path d="M85.0787 185.679H76.6064V194.151H85.0787V185.679Z" fill="#F6F2EC"/>
<path d="M93.5016 185.679H85.0293V194.151H93.5016V185.679Z" fill="#F6F2EC"/>
<path d="M101.921 185.679H93.4482V194.151H101.921V185.679Z" fill="#F6F2EC"/>
<path d="M110.343 185.679H101.871V194.151H110.343V185.679Z" fill="#F6F2EC"/>
<path opacity="0.3" d="M118.766 185.679H110.294V194.151H118.766V185.679Z" fill="black"/>
<path d="M127.185 185.679H118.713V194.151H127.185V185.679Z" fill="#F6F2EC"/>
<path d="M135.608 185.679H127.136V194.151H135.608V185.679Z" fill="#DAD6D0"/>
<path opacity="0.3" d="M68.1871 194.151H59.7148V202.624H68.1871V194.151Z" fill="black"/>
<path d="M76.6598 194.134H68.1875V202.606H76.6598V194.134Z" fill="#DAD6D0"/>
<path d="M85.0787 194.134H76.6064V202.606H85.0787V194.134Z" fill="#DAD6D0"/>
<path d="M93.5016 194.134H85.0293V202.606H93.5016V194.134Z" fill="#DAD6D0"/>
<path d="M101.921 194.134H93.4482V202.606H101.921V194.134Z" fill="#DAD6D0"/>
<path d="M110.343 194.134H101.871V202.606H110.343V194.134Z" fill="#DAD6D0"/>
<path d="M118.865 185.645H110.393V194.117H118.865V185.645Z" fill="black"/>
<path d="M144.13 185.645H135.658V194.117H144.13V185.645Z" fill="black"/>
<path opacity="0.3" d="M68.1871 202.606H59.7148V211.079H68.1871V202.606Z" fill="black"/>
<path d="M76.6598 202.606H68.1875V211.079H76.6598V202.606Z" fill="#F6F2EC"/>
<path d="M85.0787 202.606H76.6064V211.079H85.0787V202.606Z" fill="#FB7844"/>
<path d="M93.5016 202.606H85.0293V211.079H93.5016V202.606Z" fill="#FB7844"/>
<path d="M101.921 202.606H93.4482V211.079H101.921V202.606Z" fill="#FB7844"/>
<path d="M110.343 202.606H101.871V211.079H110.343V202.606Z" fill="#F6F2EC"/>
<path d="M118.865 194.1H110.393V202.572H118.865V194.1Z" fill="black"/>
<path d="M127.288 194.1H118.815V202.572H127.288V194.1Z" fill="#F6F2EC"/>
<path d="M135.711 194.1H127.238V202.572H135.711V194.1Z" fill="#DAD6D0"/>
<path d="M144.13 194.1H135.658V202.572H144.13V194.1Z" fill="black"/>
<path d="M68.1871 211.078H59.7148V219.55H68.1871V211.078Z" fill="#FDEAE0"/>
<path d="M76.6598 211.062H68.1875V219.534H76.6598V211.062Z" fill="#F6F2EC"/>
<path d="M85.0787 211.062H76.6064V219.534H85.0787V211.062Z" fill="#F6F2EC"/>
<path d="M93.5016 211.062H85.0293V219.534H93.5016V211.062Z" fill="#F6F2EC"/>
<path d="M101.921 211.062H93.4482V219.534H101.921V211.062Z" fill="#F6F2EC"/>
<path d="M110.343 211.062H101.871V219.534H110.343V211.062Z" fill="black"/>
<path d="M118.865 202.572H110.393V211.045H118.865V202.572Z" fill="black"/>
<path d="M127.288 202.572H118.815V211.045H127.288V202.572Z" fill="#F6F2EC"/>
<path d="M135.711 202.572H127.238V211.045H135.711V202.572Z" fill="#DAD6D0"/>
<path d="M144.13 202.572H135.658V211.045H144.13V202.572Z" fill="black"/>
<path d="M76.6393 219.534H68.167V228.006H76.6393V219.534Z" fill="#FDEAE0"/>
<path d="M85.0953 219.534H76.623V228.006H85.0953V219.534Z" fill="#F6F2EC"/>
<path d="M93.5182 219.534H85.0459V228.006H93.5182V219.534Z" fill="#F6F2EC"/>
<path d="M93.5182 227.989H85.0459V236.462H93.5182V227.989Z" fill="black"/>
<path d="M101.941 219.534H93.4688V228.006H101.941V219.534Z" fill="#DAD6D0"/>
<path d="M110.36 219.534H101.888V228.006H110.36V219.534Z" fill="black"/>
<path d="M118.783 219.534H110.311V228.006H118.783V219.534Z" fill="black"/>
<path d="M118.865 211.028H110.393V219.501H118.865V211.028Z" fill="#F6F2EC"/>
<path d="M127.288 211.028H118.815V219.501H127.288V211.028Z" fill="#F6F2EC"/>
<path d="M135.711 211.028H127.238V219.501H135.711V211.028Z" fill="#DAD6D0"/>
<path d="M144.13 211.028H135.658V219.501H144.13V211.028Z" fill="black"/>
<path d="M76.6393 228.007H68.167V236.479H76.6393V228.007Z" fill="black"/>
<path d="M85.0953 227.989H76.623V236.462H85.0953V227.989Z" fill="black"/>
<path d="M68.2203 194.134H59.748V202.606H68.2203V194.134Z" fill="black"/>
<path d="M68.2203 202.606H59.748V211.079H68.2203V202.606Z" fill="black"/>
<path d="M68.1871 211.062H59.7148V219.534H68.1871V211.062Z" fill="black"/>
<path d="M76.6393 219.534H68.167V228.006H76.6393V219.534Z" fill="#F6F2EC"/>
<path d="M76.6393 227.989H68.167V236.462H76.6393V227.989Z" fill="#F6F2EC"/>
<path d="M101.941 227.989H93.4688V236.462H101.941V227.989Z" fill="#DAD6D0"/>
<path d="M110.36 227.989H101.888V236.462H110.36V227.989Z" fill="#F6F2EC"/>
<path d="M118.783 227.989H110.311V236.462H118.783V227.989Z" fill="black"/>
<path d="M118.865 219.482H110.393V227.955H118.865V219.482Z" fill="#F6F2EC"/>
<path d="M127.288 219.482H118.815V227.955H127.288V219.482Z" fill="#F6F2EC"/>
<path d="M135.711 219.482H127.238V227.955H135.711V219.482Z" fill="#DAD6D0"/>
<path d="M144.13 219.482H135.658V227.955H144.13V219.482Z" fill="black"/>
<path d="M76.6393 236.445H68.167V244.918H76.6393V236.445Z" fill="#F6F2EC"/>
<path d="M85.0953 236.445H76.623V244.918H85.0953V236.445Z" fill="black"/>
<path d="M118.865 227.955H110.393V236.427H118.865V227.955Z" fill="black"/>
<path d="M127.288 227.955H118.815V236.427H127.288V227.955Z" fill="black"/>
<path d="M135.711 227.955H127.238V236.427H135.711V227.955Z" fill="black"/>
<path d="M76.6393 244.917H68.167V253.389H76.6393V244.917Z" fill="#DAD6D0"/>
<path d="M85.0953 244.917H76.623V253.389H85.0953V244.917Z" fill="black"/>
<path d="M68.3033 219.534H59.8311V228.006H68.3033V219.534Z" fill="#FDEAE0"/>
<path d="M68.3033 228.007H59.8311V236.479H68.3033V228.007Z" fill="black"/>
<path d="M68.3033 219.534H59.8311V228.006H68.3033V219.534Z" fill="#76A8AC"/>
<path d="M68.3033 227.989H59.8311V236.462H68.3033V227.989Z" fill="#F6F2EC"/>
<path d="M68.3033 236.445H59.8311V244.918H68.3033V236.445Z" fill="#F6F2EC"/>
<path d="M68.3033 244.917H59.8311V253.389H68.3033V244.917Z" fill="#DAD6D0"/>
<path d="M59.8473 236.445H51.375V244.918H59.8473V236.445Z" fill="black"/>
<path d="M59.8473 244.917H51.375V253.389H59.8473V244.917Z" fill="#DAD6D0"/>
<path d="M68.2369 219.551H59.7646V228.023H68.2369V219.551Z" fill="black"/>
<path d="M59.8473 228.007H51.375V236.479H59.8473V228.007Z" fill="black"/>
<path d="M51.4117 244.917H42.9395V253.389H51.4117V244.917Z" fill="black"/>
<path d="M85.0953 253.372H76.623V261.844H85.0953V253.372Z" fill="black"/>
<path d="M68.2535 253.372H59.7812V261.844H68.2535V253.372Z" fill="black"/>
<path d="M76.6764 253.372H68.2041V261.844H76.6764V253.372Z" fill="black"/>
<path d="M59.8141 253.372H51.3418V261.844H59.8141V253.372Z" fill="black"/>
<path d="M51.3746 253.372H42.9023V261.844H51.3746V253.372Z" fill="black"/>
<path d="M51.3746 126.407H42.9023V134.88H51.3746V126.407Z" fill="#494442"/>
<path d="M51.3746 117.935H42.9023V126.407H51.3746V117.935Z" fill="#494442"/>
<path d="M51.3746 109.445H42.9023V117.918H51.3746V109.445Z" fill="black"/>
<path d="M59.7975 126.407H51.3252V134.88H59.7975V126.407Z" fill="white"/>
<path d="M59.7975 117.935H51.3252V126.407H59.7975V117.935Z" fill="white"/>
<path d="M59.7975 109.445H51.3252V117.918H59.7975V109.445Z" fill="#D2C8C4"/>
<path d="M76.6598 134.896H68.1875V143.368H76.6598V134.896Z" fill="#E1CCC2"/>
<path d="M76.6598 126.407H68.1875V134.88H76.6598V126.407Z" fill="#E1CCC2"/>
<path d="M85.0787 134.896H76.6064V143.368H85.0787V134.896Z" fill="#E1CCC2"/>
<path d="M110.343 126.407H101.871V134.88H110.343V126.407Z" fill="#494442"/>
<path d="M110.343 117.935H101.871V126.407H110.343V117.935Z" fill="#494442"/>
<path d="M110.343 109.445H101.871V117.918H110.343V109.445Z" fill="#494442"/>
<path d="M110.343 100.973H101.871V109.445H110.343V100.973Z" fill="black"/>
<path d="M118.766 126.407H110.294V134.88H118.766V126.407Z" fill="white"/>
<path d="M118.766 117.935H110.294V126.407H118.766V117.935Z" fill="white"/>
<path d="M118.766 109.445H110.294V117.918H118.766V109.445Z" fill="white"/>
<path d="M118.766 100.973H110.294V109.445H118.766V100.973Z" fill="#D2C8C4"/>
<path d="M127.185 117.935H118.713V126.407H127.185V117.935Z" fill="#FDEAE0"/>
<path d="M127.185 109.445H118.713V117.918H127.185V109.445Z" fill="#FDEAE0"/>
<path d="M160.873 109.445H152.4V117.918H160.873V109.445Z" fill="#29B9AE"/>
<path d="M85.0787 151.84H76.6064V160.312H85.0787V151.84Z" fill="#494442"/>
<path d="M93.5016 151.84H85.0293V160.312H93.5016V151.84Z" fill="#494442"/>
<path d="M42.9557 134.896H34.4834V143.368H42.9557V134.896Z" fill="#FDEAE0"/>
<path d="M42.9557 126.407H34.4834V134.88H42.9557V126.407Z" fill="#FDEAE0"/>
<path d="M42.9557 117.935H34.4834V126.407H42.9557V117.935Z" fill="#FDEAE0"/>
<path d="M42.9557 109.445H34.4834V117.918H42.9557V109.445Z" fill="#EED6CA"/>
<path d="M51.3746 143.386H42.9023V151.858H51.3746V143.386Z" fill="#FDEAE0"/>
<path d="M51.3746 134.896H42.9023V143.368H51.3746V134.896Z" fill="#FDEAE0"/>
<path d="M59.7975 143.386H51.3252V151.858H59.7975V143.386Z" fill="#FDEAE0"/>
<path d="M59.7975 134.896H51.3252V143.368H59.7975V134.896Z" fill="#FDEAE0"/>
<path d="M68.2203 143.386H59.748V151.858H68.2203V143.386Z" fill="#FDEAE0"/>
<path d="M68.2203 134.896H59.748V143.368H68.2203V134.896Z" fill="#FDEAE0"/>
<path d="M68.2203 126.407H59.748V134.88H68.2203V126.407Z" fill="#FDEAE0"/>
<path d="M68.2203 117.935H59.748V126.407H68.2203V117.935Z" fill="#FDEAE0"/>
<path d="M68.2203 109.445H59.748V117.918H68.2203V109.445Z" fill="#FDEAE0"/>
<path d="M68.2203 100.973H59.748V109.445H68.2203V100.973Z" fill="#EED6CA"/>
<path d="M76.6598 143.386H68.1875V151.858H76.6598V143.386Z" fill="#FDEAE0"/>
<path d="M76.6598 117.935H68.1875V126.407H76.6598V117.935Z" fill="black"/>
<path d="M76.6598 109.445H68.1875V117.918H76.6598V109.445Z" fill="#FDEAE0"/>
<path d="M85.0787 143.386H76.6064V151.858H85.0787V143.386Z" fill="#FDEAE0"/>
<path d="M85.0787 126.407H76.6064V134.88H85.0787V126.407Z" fill="#FDEAE0"/>
<path d="M85.0787 117.935H76.6064V126.407H85.0787V117.935Z" fill="black"/>
<path d="M85.0787 109.445H76.6064V117.918H85.0787V109.445Z" fill="#FDEAE0"/>
<path d="M93.5016 143.386H85.0293V151.858H93.5016V143.386Z" fill="#FDEAE0"/>
<path d="M93.5016 134.896H85.0293V143.368H93.5016V134.896Z" fill="#FDEAE0"/>
<path d="M93.5016 126.407H85.0293V134.88H93.5016V126.407Z" fill="#FDEAE0"/>
<path d="M93.5016 117.935H85.0293V126.407H93.5016V117.935Z" fill="#FDEAE0"/>
<path d="M93.5016 109.445H85.0293V117.918H93.5016V109.445Z" fill="#FDEAE0"/>
<path d="M93.5016 100.973H85.0293V109.445H93.5016V100.973Z" fill="#EED6CA"/>
<path d="M101.921 143.386H93.4482V151.858H101.921V143.386Z" fill="#FDEAE0"/>
<path d="M101.921 134.896H93.4482V143.368H101.921V134.896Z" fill="#FDEAE0"/>
<path d="M101.921 126.407H93.4482V134.88H101.921V126.407Z" fill="#FDEAE0"/>
<path d="M101.921 117.935H93.4482V126.407H101.921V117.935Z" fill="#FDEAE0"/>
<path d="M101.921 109.445H93.4482V117.918H101.921V109.445Z" fill="#FDEAE0"/>
<path d="M101.921 100.973H93.4482V109.445H101.921V100.973Z" fill="#FDEAE0"/>
<path d="M110.343 143.386H101.871V151.858H110.343V143.386Z" fill="#FDEAE0"/>
<path d="M110.343 134.896H101.871V143.368H110.343V134.896Z" fill="#FDEAE0"/>
<path d="M118.766 143.386H110.294V151.858H118.766V143.386Z" fill="#FDEAE0"/>
<path d="M118.766 134.896H110.294V143.368H118.766V134.896Z" fill="#FDEAE0"/>
<path d="M127.185 143.386H118.713V151.858H127.185V143.386Z" fill="#FDEAE0"/>
<path d="M127.185 134.896H118.713V143.368H127.185V134.896Z" fill="#FDEAE0"/>
<path d="M127.185 126.407H118.713V134.88H127.185V126.407Z" fill="#FDEAE0"/>
<path d="M135.608 143.386H127.136V151.858H135.608V143.386Z" fill="#EED6CA"/>
<path d="M135.608 134.896H127.136V143.368H135.608V134.896Z" fill="#FDEAE0"/>
<path d="M135.608 126.407H127.136V134.88H135.608V126.407Z" fill="#FDEAE0"/>
<path d="M135.608 117.935H127.136V126.407H135.608V117.935Z" fill="black"/>
<path d="M135.608 109.445H127.136V117.918H135.608V109.445Z" fill="black"/>
<path d="M135.608 100.973H127.136V109.445H135.608V100.973Z" fill="black"/>
<path d="M144.031 134.896H135.559V143.368H144.031V134.896Z" fill="#EED6CA"/>
<path d="M144.031 126.407H135.559V134.88H144.031V126.407Z" fill="#FDEAE0"/>
<path d="M144.031 117.935H135.559V126.407H144.031V117.935Z" fill="black"/>
<path d="M144.031 109.445H135.559V117.918H144.031V109.445Z" fill="#29B9AE"/>
<path d="M152.45 126.407H143.978V134.88H152.45V126.407Z" fill="black"/>
<path d="M152.45 117.935H143.978V126.407H152.45V117.935Z" fill="#239686"/>
<path d="M160.873 126.407H152.4V134.88H160.873V126.407Z" fill="black"/>
<path d="M169.296 126.407H160.823V134.88H169.296V126.407Z" fill="#FDEAE0"/>
<path d="M169.296 117.935H160.823V126.407H169.296V117.935Z" fill="black"/>
<path d="M169.296 109.445H160.823V117.918H169.296V109.445Z" fill="#239686"/>
<path d="M169.296 100.973H160.823V109.445H169.296V100.973Z" fill="#239686"/>
<path d="M59.7975 151.84H51.3252V160.312H59.7975V151.84Z" fill="#FDEAE0"/>
<path d="M68.2203 151.84H59.748V160.312H68.2203V151.84Z" fill="#FDEAE0"/>
<path d="M76.6598 151.84H68.1875V160.312H76.6598V151.84Z" fill="#FDEAE0"/>
<path d="M101.921 151.84H93.4482V160.312H101.921V151.84Z" fill="#FDEAE0"/>
<path d="M110.343 151.84H101.871V160.312H110.343V151.84Z" fill="#FDEAE0"/>
<path d="M118.766 151.84H110.294V160.312H118.766V151.84Z" fill="#EED6CA"/>
<path d="M127.185 151.84H118.713V160.312H127.185V151.84Z" fill="#EED6CA"/>
<path d="M76.6598 160.296H68.1875V168.768H76.6598V160.296Z" fill="#EED6CA"/>
<path d="M85.0787 160.296H76.6064V168.768H85.0787V160.296Z" fill="#EED6CA"/>
<path d="M93.5016 160.296H85.0293V168.768H93.5016V160.296Z" fill="#EED6CA"/>
<path d="M101.921 160.296H93.4482V168.768H101.921V160.296Z" fill="#EED6CA"/>
<path d="M110.343 160.296H101.871V168.768H110.343V160.296Z" fill="#EED6CA"/>
<path d="M34.5328 126.407H26.0605V134.88H34.5328V126.407Z" fill="black"/>
<path d="M34.5328 117.935H26.0605V126.407H34.5328V117.935Z" fill="black"/>
<path d="M34.5328 109.445H26.0605V117.918H34.5328V109.445Z" fill="black"/>
<path d="M34.5328 100.973H26.0605V109.445H34.5328V100.973Z" fill="#4C3510"/>
<path d="M34.5328 92.4834H26.0605V100.956H34.5328V92.4834Z" fill="black"/>
<path d="M26.1305 92.4834H17.6582V100.956H26.1305V92.4834Z" fill="black"/>
<path d="M101.921 92.4834H93.4482V100.956H101.921V92.4834Z" fill="black"/>
<path d="M42.9557 92.4834H34.4834V100.956H42.9557V92.4834Z" fill="black"/>
<path d="M42.9557 33.1094H34.4834V41.5817H42.9557V33.1094Z" fill="black"/>
<path d="M51.3746 92.4834H42.9023V100.956H51.3746V92.4834Z" fill="black"/>
<path d="M51.3746 24.6377H42.9023V33.11H51.3746V24.6377Z" fill="black"/>
<path d="M59.7975 92.4834H51.3252V100.956H59.7975V92.4834Z" fill="black"/>
<path d="M59.7975 16.1475H51.3252V24.6198H59.7975V16.1475Z" fill="black"/>
<path d="M68.2203 16.1475H59.748V24.6198H68.2203V16.1475Z" fill="black"/>
<path d="M76.6598 92.4834H68.1875V100.956H76.6598V92.4834Z" fill="black"/>
<path d="M76.6598 16.1475H68.1875V24.6198H76.6598V16.1475Z" fill="black"/>
<path d="M85.0787 92.4834H76.6064V100.956H85.0787V92.4834Z" fill="black"/>
<path d="M85.0787 16.1475H76.6064V24.6198H85.0787V16.1475Z" fill="black"/>
<path d="M93.5016 16.1475H85.0293V24.6198H93.5016V16.1475Z" fill="black"/>
<path d="M101.921 16.1475H93.4482V24.6198H101.921V16.1475Z" fill="black"/>
<path d="M110.343 16.1475H101.871V24.6198H110.343V16.1475Z" fill="black"/>
<path d="M118.766 16.1475H110.294V24.6198H118.766V16.1475Z" fill="black"/>
<path d="M127.185 92.4834H118.713V100.956H127.185V92.4834Z" fill="black"/>
<path d="M127.185 16.1475H118.713V24.6198H127.185V16.1475Z" fill="black"/>
<path d="M135.608 16.1475H127.136V24.6198H135.608V16.1475Z" fill="black"/>
<path d="M144.031 92.4834H135.559V100.956H144.031V92.4834Z" fill="#29B9AE"/>
<path d="M144.031 16.1475H135.559V24.6198H144.031V16.1475Z" fill="black"/>
<path d="M152.45 100.973H143.978V109.445H152.45V100.973Z" fill="#29B9AE"/>
<path d="M152.45 92.4834H143.978V100.956H152.45V92.4834Z" fill="#29B9AE"/>
<path d="M152.45 24.6377H143.978V33.11H152.45V24.6377Z" fill="black"/>
<path d="M160.873 92.4834H152.4V100.956H160.873V92.4834Z" fill="#29B9AE"/>
<path d="M160.873 33.1094H152.4V41.5817H160.873V33.1094Z" fill="black"/>
<path d="M169.296 41.5986H160.823V50.0709H169.296V41.5986Z" fill="black"/>
<path d="M101.921 84.0117H93.4482V92.484H101.921V84.0117Z" fill="#239686"/>
<path d="M169.296 84.0117H160.823V92.484H169.296V84.0117Z" fill="#239686"/>
<path d="M42.9557 84.0117H34.4834V92.484H42.9557V84.0117Z" fill="#239686"/>
<path d="M42.9557 75.5215H34.4834V83.9938H42.9557V75.5215Z" fill="#29B9AE"/>
<path d="M42.9557 67.0498H34.4834V75.5221H42.9557V67.0498Z" fill="#29B9AE"/>
<path d="M42.9557 58.5605H34.4834V67.0328H42.9557V58.5605Z" fill="#29B9AE"/>
<path d="M42.9557 50.0713H34.4834V58.5436H42.9557V50.0713Z" fill="#29B9AE"/>
<path d="M42.9557 41.5986H34.4834V50.0709H42.9557V41.5986Z" fill="#29B9AE"/>
<path d="M51.3746 84.0117H42.9023V92.484H51.3746V84.0117Z" fill="#239686"/>
<path d="M51.3746 75.5215H42.9023V83.9938H51.3746V75.5215Z" fill="#29B9AE"/>
<path d="M51.3746 67.0498H42.9023V75.5221H51.3746V67.0498Z" fill="#29B9AE"/>
<path d="M51.3746 58.5605H42.9023V67.0328H51.3746V58.5605Z" fill="#29B9AE"/>
<path d="M51.3746 50.0713H42.9023V58.5436H51.3746V50.0713Z" fill="#29B9AE"/>
<path d="M51.3746 41.5986H42.9023V50.0709H51.3746V41.5986Z" fill="#29B9AE"/>
<path d="M51.3746 33.1094H42.9023V41.5817H51.3746V33.1094Z" fill="#5CD6CA"/>
<path d="M59.7975 84.0117H51.3252V92.484H59.7975V84.0117Z" fill="#239686"/>
<path d="M59.7975 75.5215H51.3252V83.9938H59.7975V75.5215Z" fill="#29B9AE"/>
<path d="M59.7975 67.0498H51.3252V75.5221H59.7975V67.0498Z" fill="white"/>
<path d="M59.7975 58.5605H51.3252V67.0328H59.7975V58.5605Z" fill="white"/>
<path d="M59.7975 50.0713H51.3252V58.5436H59.7975V50.0713Z" fill="white"/>
<path d="M59.7975 41.5986H51.3252V50.0709H59.7975V41.5986Z" fill="#29B9AE"/>
<path d="M59.7975 33.1094H51.3252V41.5817H59.7975V33.1094Z" fill="#29B9AE"/>
<path d="M59.7975 24.6377H51.3252V33.11H59.7975V24.6377Z" fill="#29B9AE"/>
<path d="M68.2203 84.0117H59.748V92.484H68.2203V84.0117Z" fill="#239686"/>
<path d="M68.2203 75.5215H59.748V83.9938H68.2203V75.5215Z" fill="white"/>
<path d="M68.2203 67.0498H59.748V75.5221H68.2203V67.0498Z" fill="white"/>
<path d="M68.2203 58.5605H59.748V67.0328H68.2203V58.5605Z" fill="white"/>
<path d="M68.2203 50.0713H59.748V58.5436H68.2203V50.0713Z" fill="white"/>
<path d="M68.2203 41.5986H59.748V50.0709H68.2203V41.5986Z" fill="white"/>
<path d="M68.2203 33.1094H59.748V41.5817H68.2203V33.1094Z" fill="#29B9AE"/>
<path d="M68.2203 24.6377H59.748V33.11H68.2203V24.6377Z" fill="#29B9AE"/>
<path d="M76.6598 84.0117H68.1875V92.484H76.6598V84.0117Z" fill="#239686"/>
<path d="M76.6598 75.5215H68.1875V83.9938H76.6598V75.5215Z" fill="white"/>
<path d="M76.6598 67.0498H68.1875V75.5221H76.6598V67.0498Z" fill="white"/>
<path d="M76.6598 58.5605H68.1875V67.0328H76.6598V58.5605Z" fill="#29B9AE"/>
<path d="M76.6598 50.0713H68.1875V58.5436H76.6598V50.0713Z" fill="white"/>
<path d="M76.6598 41.5986H68.1875V50.0709H76.6598V41.5986Z" fill="white"/>
<path d="M76.6598 33.1094H68.1875V41.5817H76.6598V33.1094Z" fill="#29B9AE"/>
<path d="M76.6598 24.6377H68.1875V33.11H76.6598V24.6377Z" fill="#29B9AE"/>
<path d="M85.0787 84.0117H76.6064V92.484H85.0787V84.0117Z" fill="#239686"/>
<path d="M85.0787 75.5215H76.6064V83.9938H85.0787V75.5215Z" fill="white"/>
<path d="M85.0787 67.0498H76.6064V75.5221H85.0787V67.0498Z" fill="white"/>
<path d="M85.0787 58.5605H76.6064V67.0328H85.0787V58.5605Z" fill="white"/>
<path d="M85.0787 50.0713H76.6064V58.5436H85.0787V50.0713Z" fill="white"/>
<path d="M85.0787 41.5986H76.6064V50.0709H85.0787V41.5986Z" fill="white"/>
<path d="M85.0787 33.1094H76.6064V41.5817H85.0787V33.1094Z" fill="#29B9AE"/>
<path d="M85.0787 24.6377H76.6064V33.11H85.0787V24.6377Z" fill="#29B9AE"/>
<path d="M93.5016 84.0117H85.0293V92.484H93.5016V84.0117Z" fill="#239686"/>
<path d="M93.5016 75.5215H85.0293V83.9938H93.5016V75.5215Z" fill="#29B9AE"/>
<path d="M93.5016 67.0498H85.0293V75.5221H93.5016V67.0498Z" fill="white"/>
<path d="M93.5016 58.5605H85.0293V67.0328H93.5016V58.5605Z" fill="white"/>
<path d="M93.5016 50.0713H85.0293V58.5436H93.5016V50.0713Z" fill="white"/>
<path d="M93.5016 41.5986H85.0293V50.0709H93.5016V41.5986Z" fill="#29B9AE"/>
<path d="M93.5016 33.1094H85.0293V41.5817H93.5016V33.1094Z" fill="#29B9AE"/>
<path d="M93.5016 24.6377H85.0293V33.11H93.5016V24.6377Z" fill="#29B9AE"/>
<path d="M101.921 75.5215H93.4482V83.9938H101.921V75.5215Z" fill="#29B9AE"/>
<path d="M101.921 67.0498H93.4482V75.5221H101.921V67.0498Z" fill="#29B9AE"/>
<path d="M101.921 58.5605H93.4482V67.0328H101.921V58.5605Z" fill="#29B9AE"/>
<path d="M101.921 50.0713H93.4482V58.5436H101.921V50.0713Z" fill="#29B9AE"/>
<path d="M101.921 41.5986H93.4482V50.0709H101.921V41.5986Z" fill="#29B9AE"/>
<path d="M101.921 33.1094H93.4482V41.5817H101.921V33.1094Z" fill="#29B9AE"/>
<path d="M101.921 24.6377H93.4482V33.11H101.921V24.6377Z" fill="#29B9AE"/>
<path d="M110.343 84.0117H101.871V92.484H110.343V84.0117Z" fill="#239686"/>
<path d="M110.343 75.5215H101.871V83.9938H110.343V75.5215Z" fill="#29B9AE"/>
<path d="M110.343 67.0498H101.871V75.5221H110.343V67.0498Z" fill="#29B9AE"/>
<path d="M110.343 58.5605H101.871V67.0328H110.343V58.5605Z" fill="#29B9AE"/>
<path d="M110.343 50.0713H101.871V58.5436H110.343V50.0713Z" fill="#29B9AE"/>
<path d="M110.343 41.5986H101.871V50.0709H110.343V41.5986Z" fill="#29B9AE"/>
<path d="M110.343 33.1094H101.871V41.5817H110.343V33.1094Z" fill="#29B9AE"/>
<path d="M118.766 84.0117H110.294V92.484H118.766V84.0117Z" fill="#239686"/>
<path d="M118.766 75.5215H110.294V83.9938H118.766V75.5215Z" fill="#29B9AE"/>
<path d="M118.766 67.0498H110.294V75.5221H118.766V67.0498Z" fill="#29B9AE"/>
<path d="M118.766 58.5605H110.294V67.0328H118.766V58.5605Z" fill="#29B9AE"/>
<path d="M118.766 50.0713H110.294V58.5436H118.766V50.0713Z" fill="#29B9AE"/>
<path d="M118.766 41.5986H110.294V50.0709H118.766V41.5986Z" fill="#29B9AE"/>
<path d="M118.766 33.1094H110.294V41.5817H118.766V33.1094Z" fill="#29B9AE"/>
<path d="M118.766 24.6377H110.294V33.11H118.766V24.6377Z" fill="#29B9AE"/>
<path d="M110.343 24.6377H101.871V33.11H110.343V24.6377Z" fill="#29B9AE"/>
<path d="M127.185 84.0117H118.713V92.484H127.185V84.0117Z" fill="#239686"/>
<path d="M127.185 75.5215H118.713V83.9938H127.185V75.5215Z" fill="#29B9AE"/>
<path d="M127.185 67.0498H118.713V75.5221H127.185V67.0498Z" fill="#29B9AE"/>
<path d="M127.185 58.5605H118.713V67.0328H127.185V58.5605Z" fill="#29B9AE"/>
<path d="M127.185 50.0713H118.713V58.5436H127.185V50.0713Z" fill="#29B9AE"/>
<path d="M127.185 41.5986H118.713V50.0709H127.185V41.5986Z" fill="#29B9AE"/>
<path d="M127.185 33.1094H118.713V41.5817H127.185V33.1094Z" fill="#29B9AE"/>
<path d="M127.185 24.6377H118.713V33.11H127.185V24.6377Z" fill="#29B9AE"/>
<path d="M135.608 84.0117H127.136V92.484H135.608V84.0117Z" fill="#29B9AE"/>
<path d="M135.608 75.5215H127.136V83.9938H135.608V75.5215Z" fill="#29B9AE"/>
<path d="M135.608 67.0498H127.136V75.5221H135.608V67.0498Z" fill="#29B9AE"/>
<path d="M135.608 58.5605H127.136V67.0328H135.608V58.5605Z" fill="#29B9AE"/>
<path d="M135.608 50.0713H127.136V58.5436H135.608V50.0713Z" fill="#29B9AE"/>
<path d="M135.608 41.5986H127.136V50.0709H135.608V41.5986Z" fill="#29B9AE"/>
<path d="M135.608 33.1094H127.136V41.5817H135.608V33.1094Z" fill="#29B9AE"/>
<path d="M135.608 24.6377H127.136V33.11H135.608V24.6377Z" fill="#29B9AE"/>
<path d="M144.031 84.0117H135.559V92.484H144.031V84.0117Z" fill="#29B9AE"/>
<path d="M144.031 75.5215H135.559V83.9938H144.031V75.5215Z" fill="#29B9AE"/>
<path d="M144.031 67.0498H135.559V75.5221H144.031V67.0498Z" fill="#29B9AE"/>
<path d="M144.031 58.5605H135.559V67.0328H144.031V58.5605Z" fill="#29B9AE"/>
<path d="M144.031 50.0713H135.559V58.5436H144.031V50.0713Z" fill="#29B9AE"/>
<path d="M144.031 41.5986H135.559V50.0709H144.031V41.5986Z" fill="#29B9AE"/>
<path d="M144.031 33.1094H135.559V41.5817H144.031V33.1094Z" fill="#29B9AE"/>
<path d="M144.031 24.6377H135.559V33.11H144.031V24.6377Z" fill="#29B9AE"/>
<path d="M152.45 84.0117H143.978V92.484H152.45V84.0117Z" fill="#29B9AE"/>
<path d="M152.45 75.5215H143.978V83.9938H152.45V75.5215Z" fill="#29B9AE"/>
<path d="M152.45 67.0498H143.978V75.5221H152.45V67.0498Z" fill="#29B9AE"/>
<path d="M152.45 58.5605H143.978V67.0328H152.45V58.5605Z" fill="#29B9AE"/>
<path d="M152.45 50.0713H143.978V58.5436H152.45V50.0713Z" fill="#29B9AE"/>
<path d="M152.45 41.5986H143.978V50.0709H152.45V41.5986Z" fill="#29B9AE"/>
<path d="M152.45 33.1094H143.978V41.5817H152.45V33.1094Z" fill="#29B9AE"/>
<path d="M160.873 84.0117H152.4V92.484H160.873V84.0117Z" fill="#29B9AE"/>
<path d="M160.873 75.5215H152.4V83.9938H160.873V75.5215Z" fill="#29B9AE"/>
<path d="M160.873 67.0498H152.4V75.5221H160.873V67.0498Z" fill="#29B9AE"/>
<path d="M160.873 58.5605H152.4V67.0328H160.873V58.5605Z" fill="#29B9AE"/>
<path d="M160.873 50.0713H152.4V58.5436H160.873V50.0713Z" fill="#29B9AE"/>
<path d="M160.873 41.5986H152.4V50.0709H160.873V41.5986Z" fill="#29B9AE"/>
<path d="M169.296 75.5215H160.823V83.9938H169.296V75.5215Z" fill="#239686"/>
<path d="M169.296 67.0498H160.823V75.5221H169.296V67.0498Z" fill="#239686"/>
<path d="M169.296 58.5605H160.823V67.0328H169.296V58.5605Z" fill="#239686"/>
<path d="M169.296 50.0713H160.823V58.5436H169.296V50.0713Z" fill="#239686"/>
<path d="M34.5328 84.0117H26.0605V92.484H34.5328V84.0117Z" fill="#239686"/>
<path d="M34.5328 75.5215H26.0605V83.9938H34.5328V75.5215Z" fill="#5CD6CA"/>
<path d="M34.5328 67.0498H26.0605V75.5221H34.5328V67.0498Z" fill="#29B9AE"/>
<path d="M34.5328 58.5605H26.0605V67.0328H34.5328V58.5605Z" fill="#5CD6CA"/>
<path d="M34.5328 50.0713H26.0605V58.5436H34.5328V50.0713Z" fill="#5CD6CA"/>
<path d="M34.5328 41.5986H26.0605V50.0709H34.5328V41.5986Z" fill="black"/>
<path d="M26.1305 84.0117H17.6582V92.484H26.1305V84.0117Z" fill="black"/>
<path d="M26.1305 75.5215H17.6582V83.9938H26.1305V75.5215Z" fill="black"/>
<path d="M26.1305 67.0498H17.6582V75.5221H26.1305V67.0498Z" fill="black"/>
<path d="M26.1305 58.5605H17.6582V67.0328H26.1305V58.5605Z" fill="black"/>
<path d="M26.1305 50.0713H17.6582V58.5436H26.1305V50.0713Z" fill="black"/>
<path d="M177.714 126.407H169.242V134.88H177.714V126.407Z" fill="black"/>
<path d="M177.714 117.935H169.242V126.407H177.714V117.935Z" fill="black"/>
<path d="M177.714 109.445H169.242V117.918H177.714V109.445Z" fill="black"/>
<path d="M177.714 100.736H169.242V110.429H177.714V100.736Z" fill="black"/>
<path d="M177.714 75.5215H169.242V83.9938H177.714V75.5215Z" fill="black"/>
<path d="M177.714 84.0117H169.242V92.484H177.714V84.0117Z" fill="black"/>
<path d="M177.714 92.4834H169.242V100.956H177.714V92.4834Z" fill="black"/>
<path d="M177.714 67.0498H169.242V75.5221H177.714V67.0498Z" fill="black"/>
<path d="M177.714 58.5605H169.242V67.0328H177.714V58.5605Z" fill="black"/>
<path d="M177.714 50.0713H169.242V58.5436H177.714V50.0713Z" fill="black"/>
<path d="M118.476 185.577H126.897V177.156H118.476V185.577Z" fill="white"/>
<path d="M110.09 185.577H118.512V177.156H110.09V185.577Z" fill="white"/>
<path d="M101.72 185.577H110.142V177.156H101.72V185.577Z" fill="white"/>
<path d="M93.3305 185.577H101.752V177.156H93.3305V185.577Z" fill="white"/>
<path d="M76.5746 185.577H84.9961V177.156H76.5746V185.577Z" fill="white"/>
<path d="M68.2016 185.577H76.623V177.156H68.2016V185.577Z" fill="white"/>
<path d="M84.9604 185.577H93.3818V177.156H84.9604V185.577Z" fill="white"/>
<path d="M59.8149 185.577H68.2363V177.156H59.8149V185.577Z" fill="white"/>
<path d="M118.476 193.999H126.897V185.578H118.476V193.999Z" fill="black"/>
<path opacity="0.3" d="M110.09 193.999H118.512V185.578H110.09V193.999Z" fill="black"/>
<path opacity="0.3" d="M101.72 193.999H110.142V185.578H101.72V193.999Z" fill="black"/>
<path opacity="0.3" d="M93.3305 193.999H101.752V185.578H93.3305V193.999Z" fill="black"/>
<path opacity="0.3" d="M84.9604 193.999H93.3818V185.578H84.9604V193.999Z" fill="black"/>
<path opacity="0.3" d="M76.5746 193.999H84.9961V185.578H76.5746V193.999Z" fill="black"/>
<path opacity="0.3" d="M68.2016 193.999H76.623V185.578H68.2016V193.999Z" fill="black"/>
<path opacity="0.3" d="M59.8149 193.999H68.2363V185.578H59.8149V193.999Z" fill="black"/>
<path d="M51.4262 193.999H59.8477V185.578H51.4262V193.999Z" fill="black"/>
<path d="M126.849 185.577H135.271V177.156H126.849V185.577Z" fill="white"/>
<path d="M135.235 185.577H143.656V177.156H135.235V185.577Z" fill="white"/>
<path d="M51.4262 185.577H59.8477V177.156H51.4262V185.577Z" fill="white"/>
<path d="M118.476 177.155H126.897V168.734H118.476V177.155Z" fill="black"/>
<path d="M110.09 177.155H118.512V168.734H110.09V177.155Z" fill="black"/>
<path d="M101.72 177.155H110.142V168.734H101.72V177.155Z" fill="black"/>
<path d="M93.3305 177.155H101.752V168.734H93.3305V177.155Z" fill="black"/>
<path d="M76.5746 177.155H84.9961V168.734H76.5746V177.155Z" fill="black"/>
<path d="M68.2016 177.155H76.623V168.734H68.2016V177.155Z" fill="black"/>
<path d="M84.9604 177.155H93.3818V168.734H84.9604V177.155Z" fill="black"/>
<path d="M59.8149 177.155H68.2363V168.734H59.8149V177.155Z" fill="black"/>
<path d="M126.849 177.155H135.271V168.734H126.849V177.155Z" fill="black"/>
<path d="M135.235 177.155H143.656V168.734H135.235V177.155Z" fill="black"/>
<path d="M51.4262 177.155H59.8477V168.734H51.4262V177.155Z" fill="black"/>
<path d="M118.476 193.999H126.897V185.578H118.476V193.999Z" fill="black"/>
<path d="M110.09 193.999H118.512V185.578H110.09V193.999Z" fill="black"/>
<path d="M101.72 193.999H110.142V185.578H101.72V193.999Z" fill="black"/>
<path d="M93.3305 193.999H101.752V185.578H93.3305V193.999Z" fill="black"/>
<path d="M76.5746 193.999H84.9961V185.578H76.5746V193.999Z" fill="black"/>
<path d="M68.2016 193.999H76.623V185.578H68.2016V193.999Z" fill="black"/>
<path d="M84.9604 193.999H93.3818V185.578H84.9604V193.999Z" fill="black"/>
<path d="M59.8149 193.999H68.2363V185.578H59.8149V193.999Z" fill="black"/>
<path d="M51.4262 193.999H59.8477V185.578H51.4262V193.999Z" fill="black"/>
<path d="M126.849 193.999H135.271V185.578H126.849V193.999Z" fill="black"/>
<path d="M135.235 193.999H143.656V185.578H135.235V193.999Z" fill="black"/>
<path d="M143.588 185.577H152.01V177.156H143.588V185.577Z" fill="white"/>
<path d="M143.588 177.155H152.01V168.734H143.588V177.155Z" fill="black"/>
<path d="M143.588 193.999H152.01V185.578H143.588V193.999Z" fill="black"/>
<path d="M151.958 185.577H160.38V177.156H151.958V185.577Z" fill="white"/>
<path d="M151.958 177.155H160.38V168.734H151.958V177.155Z" fill="black"/>
<path d="M151.958 193.999H160.38V185.578H151.958V193.999Z" fill="black"/>
<path d="M160.365 185.577H168.786V177.156H160.365V185.577Z" fill="black"/>
<path d="M51.4262 193.999H59.8477V185.578H51.4262V193.999Z" fill="black"/>
<path d="M43.0561 185.577H51.4775V177.156H43.0561V185.577Z" fill="white"/>
<path d="M43.0561 177.155H51.4775V168.734H43.0561V177.155Z" fill="black"/>
<path d="M43.0561 193.999H51.4775V185.578H43.0561V193.999Z" fill="black"/>
<path d="M34.686 185.577H43.1074V177.156H34.686V185.577Z" fill="white"/>
<path d="M34.686 177.155H43.1074V168.734H34.686V177.155Z" fill="black"/>
<path d="M34.686 193.999H43.1074V185.578H34.686V193.999Z" fill="black"/>
<path d="M26.2973 185.577H34.7188V177.156H26.2973V185.577Z" fill="black"/>
<path d="M43.0582 202.606H34.5859V211.079H43.0582V202.606Z" fill="#DAD6D0"/>
<path d="M34.7877 194.134H26.3154V202.606H34.7877V194.134Z" fill="black"/>
<path d="M43.0582 211.078H34.5859V219.55H43.0582V211.078Z" fill="#DAD6D0"/>
<path d="M34.7877 211.078H26.3154V219.55H34.7877V211.078Z" fill="#DAD6D0"/>
<path d="M34.7877 202.623H26.3154V211.095H34.7877V202.623Z" fill="#DAD6D0"/>
<path d="M43.0582 194.134H34.5859V202.606H43.0582V194.134Z" fill="#F6F2EC"/>
<path d="M34.5328 134.896H26.0605V143.368H34.5328V134.896Z" fill="black"/>
<path d="M42.9023 109.496V101.074H34.4809V109.496H42.9023Z" fill="black"/>
<path d="M51.3252 109.496V101.074H42.9037V109.496H51.3252Z" fill="black"/>
<path d="M59.7646 109.496V101.074H51.3432V109.496H59.7646Z" fill="black"/>
<path d="M34.4668 117.833V109.411H26.0453V117.833H34.4668Z" fill="black"/>
<path d="M42.9023 117.833V109.411H34.4809V117.833H42.9023Z" fill="#DDF8FF"/>
<path d="M51.3252 117.833V109.411H42.9037V117.833H51.3252Z" fill="#DDF8FF"/>
<path d="M59.7646 117.833V109.411H51.3432V117.833H59.7646Z" fill="#DDF8FF"/>
<path d="M68.1875 117.816V109.395H59.766V117.816H68.1875Z" fill="black"/>
<path d="M34.4668 126.17V117.748H26.0453V126.17H34.4668Z" fill="black"/>
<path d="M42.9023 126.17V117.748H34.4809V126.17H42.9023Z" fill="#DDF8FF"/>
<path d="M51.3252 126.17V117.748H42.9037V126.17H51.3252Z" fill="#DDF8FF"/>
<path d="M59.7646 126.17V117.748H51.3432V126.17H59.7646Z" fill="#DDF8FF"/>
<path d="M68.1875 126.153V117.731H59.766V126.153H68.1875Z" fill="black"/>
<path d="M34.4668 134.506V126.085H26.0453V134.506H34.4668Z" fill="black"/>
<path d="M42.9023 134.506V126.085H34.4809V134.506H42.9023Z" fill="#DDF8FF"/>
<path d="M51.3252 134.506V126.085H42.9037V134.506H51.3252Z" fill="#DDF8FF"/>
<path d="M59.7646 134.506V126.085H51.3432V134.506H59.7646Z" fill="#DDF8FF"/>
<path d="M68.1875 134.489V126.067H59.7661V134.489H68.1875Z" fill="black"/>
<path d="M42.9023 143.402V134.489H34.4809V143.402H42.9023Z" fill="black"/>
<path d="M51.3252 143.402V134.489H42.9037V143.402H51.3252Z" fill="black"/>
<path d="M59.7646 143.402V134.489H51.3432V143.402H59.7646Z" fill="black"/>
<path d="M97.1084 109.309V100.888H88.6869V109.309H97.1084Z" fill="black"/>
<path d="M105.531 109.309V100.888H97.1098V109.309H105.531Z" fill="black"/>
<path d="M113.971 109.309V100.888H105.549V109.309H113.971Z" fill="black"/>
<path d="M88.6729 117.764V109.343H80.2514V117.764H88.6729Z" fill="black"/>
<path d="M97.1084 117.764V109.343H88.6869V117.764H97.1084Z" fill="#DDF8FF"/>
<path d="M105.531 117.764V109.343H97.1098V117.764H105.531Z" fill="#DDF8FF"/>
<path d="M113.971 117.764V109.343H105.549V117.764H113.971Z" fill="#DDF8FF"/>
<path d="M122.39 117.782V109.36H113.968V117.782H122.39Z" fill="black"/>
<path d="M88.6729 126.102V117.681H80.2514V126.102H88.6729Z" fill="black"/>
<path d="M97.1084 126.102V117.681H88.6869V126.102H97.1084Z" fill="#DDF8FF"/>
<path d="M105.531 126.102V117.681H97.1098V126.102H105.531Z" fill="#DDF8FF"/>
<path d="M113.971 126.102V117.681H105.549V126.102H113.971Z" fill="#DDF8FF"/>
<path d="M122.39 126.119V117.697H113.968V126.119H122.39Z" fill="black"/>
<path d="M88.6533 134.829V126.018H80.2319V134.829H88.6533Z" fill="black"/>
<path d="M97.0918 134.778V126.018H88.6703V134.778H97.0918Z" fill="#DDF8FF"/>
<path d="M105.531 134.778V126.018H97.1098V134.778H105.531Z" fill="#DDF8FF"/>
<path d="M113.954 134.778V126.018H105.533V134.778H113.954Z" fill="#DDF8FF"/>
<path d="M122.39 134.829V126.018H113.968V134.829H122.39Z" fill="black"/>
<path d="M97.0918 143.69V134.777H88.6703V143.69H97.0918Z" fill="black"/>
<path d="M105.531 143.673V134.76H97.1098V143.673H105.531Z" fill="black"/>
<path d="M113.954 143.69V134.777H105.533V143.69H113.954Z" fill="black"/>
<path d="M127.185 100.973H118.713V109.445H127.185V100.973Z" fill="#4C3510"/>
<path d="M143.995 261.828H152.467V253.356H143.995V261.828Z" fill="#29B9AE"/>
<path d="M143.995 253.338H152.467V244.866H143.995V253.338Z" fill="#617175"/>
<path d="M135.575 261.828H144.047V253.356H135.575V261.828Z" fill="#1D998D"/>
<path d="M135.575 253.338H144.047V244.866H135.575V253.338Z" fill="#617175"/>
<path d="M127.153 261.828H135.625V253.356H127.153V261.828Z" fill="#29B9AE"/>
<path d="M127.153 253.338H135.625V244.866H127.153V253.338Z" fill="#47575B"/>
<path d="M118.73 261.828H127.202V253.356H118.73V261.828Z" fill="#29B9AE"/>
<path d="M118.73 253.338H127.202V244.866H118.73V253.338Z" fill="#617175"/>
<path d="M110.293 261.828H118.766V253.356H110.293V261.828Z" fill="#29B9AE"/>
<path d="M110.293 253.338H118.766V244.866H110.293V253.338Z" fill="#617175"/>
<path d="M101.871 261.828H110.344V253.356H101.871V261.828Z" fill="#29B9AE"/>
<path d="M101.871 253.338H110.344V244.866H101.871V253.338Z" fill="#617175"/>
<path d="M93.4486 261.828H101.921V253.356H93.4486V261.828Z" fill="#29B9AE"/>
<path d="M93.4486 253.338H101.921V244.866H93.4486V253.338Z" fill="#617175"/>
<path d="M85.0287 261.828H93.501V253.356H85.0287V261.828Z" fill="#29B9AE"/>
<path d="M85.0287 253.338H93.501V244.866H85.0287V253.338Z" fill="#617175"/>
<path d="M76.6068 261.828H85.0791V253.356H76.6068V261.828Z" fill="#29B9AE"/>
<path d="M76.6068 253.338H85.0791V244.866H76.6068V253.338Z" fill="#617175"/>
<path d="M68.1869 261.828H76.6592V253.356H68.1869V261.828Z" fill="black"/>
<path d="M68.1869 253.338H76.6592V244.866H68.1869V253.338Z" fill="black"/>
<path d="M76.6068 244.866H85.0791V236.394H76.6068V244.866Z" fill="black"/>
<path d="M68.1869 244.866H76.6592V236.394H68.1869V244.866Z" fill="black"/>
<path d="M59.764 261.828H68.2363V253.356H59.764V261.828Z" fill="black"/>
<path d="M51.3422 261.828H59.8145V253.356H51.3422V261.828Z" fill="black"/>
<path d="M42.9222 261.828H51.3945V253.356H42.9222V261.828Z" fill="black"/>
<path d="M34.4994 261.828H42.9717V253.356H34.4994V261.828Z" fill="black"/>
<path d="M26.0775 261.828H34.5498V253.356H26.0775V261.828Z" fill="black"/>
<path d="M152.417 261.828H160.89V253.356H152.417V261.828Z" fill="#29B9AE"/>
<path d="M152.417 253.338H160.89V244.866H152.417V253.338Z" fill="#617175"/>
<path d="M160.823 261.828H169.295V253.356H160.823V261.828Z" fill="#29B9AE"/>
<path d="M169.295 261.828H177.768V253.356H169.295V261.828Z" fill="black"/>
<path d="M160.823 253.338H169.295V244.866H160.823V253.338Z" fill="#617175"/>
<path d="M143.995 278.807H152.467V270.334H143.995V278.807Z" fill="#2FAD9D"/>
<path d="M143.995 270.3H152.467V261.828H143.995V270.3Z" fill="#29B9AE"/>
<path d="M135.575 278.807H144.047V270.334H135.575V278.807Z" fill="#1D998D"/>
<path d="M135.575 270.3H144.047V261.828H135.575V270.3Z" fill="#1D998D"/>
<path d="M127.153 278.807H135.625V270.334H127.153V278.807Z" fill="#29B9AE"/>
<path d="M127.153 270.3H135.625V261.828H127.153V270.3Z" fill="#29B9AE"/>
<path d="M118.73 278.807H127.202V270.334H118.73V278.807Z" fill="#29B9AE"/>
<path d="M118.73 270.3H127.202V261.828H118.73V270.3Z" fill="#29B9AE"/>
<path d="M110.293 278.807H118.766V270.334H110.293V278.807Z" fill="#2FAD9D"/>
<path d="M110.293 270.3H118.766V261.828H110.293V270.3Z" fill="#29B9AE"/>
<path d="M101.871 278.807H110.344V270.334H101.871V278.807Z" fill="#2FAD9D"/>
<path d="M101.871 270.3H110.344V261.828H101.871V270.3Z" fill="#29B9AE"/>
<path d="M93.4486 278.807H101.921V270.334H93.4486V278.807Z" fill="#2FAD9D"/>
<path d="M93.4486 270.3H101.921V261.828H93.4486V270.3Z" fill="#29B9AE"/>
<path d="M85.0287 278.807H93.501V270.334H85.0287V278.807Z" fill="#2FAD9D"/>
<path d="M85.0287 270.3H93.501V261.828H85.0287V270.3Z" fill="#29B9AE"/>
<path d="M76.6068 278.807H85.0791V270.334H76.6068V278.807Z" fill="#2FAD9D"/>
<path d="M76.6068 270.3H85.0791V261.828H76.6068V270.3Z" fill="#29B9AE"/>
<path d="M68.1869 278.807H76.6592V270.334H68.1869V278.807Z" fill="#29B9AE"/>
<path d="M68.1869 270.3H76.6592V261.828H68.1869V270.3Z" fill="#29B9AE"/>
<path d="M59.764 278.807H68.2363V270.334H59.764V278.807Z" fill="#29B9AE"/>
<path d="M59.764 270.3H68.2363V261.828H59.764V270.3Z" fill="#29B9AE"/>
<path d="M51.3422 278.807H59.8145V270.334H51.3422V278.807Z" fill="#29B9AE"/>
<path d="M51.3422 270.3H59.8145V261.828H51.3422V270.3Z" fill="#29B9AE"/>
<path d="M42.9222 278.807H51.3945V270.334H42.9222V278.807Z" fill="#29B9AE"/>
<path d="M42.9222 270.3H51.3945V261.828H42.9222V270.3Z" fill="#29B9AE"/>
<path d="M34.4994 278.807H42.9717V270.334H34.4994V278.807Z" fill="#29B9AE"/>
<path d="M34.4994 270.3H42.9717V261.828H34.4994V270.3Z" fill="#29B9AE"/>
<path d="M26.0775 278.807H34.5498V270.334H26.0775V278.807Z" fill="#2FAD9D"/>
<path d="M26.0775 270.3H34.5498V261.828H26.0775V270.3Z" fill="#5EDBCF"/>
<path d="M17.6576 278.807H26.1299V270.334H17.6576V278.807Z" fill="#5EDBCF"/>
<path d="M17.6576 270.3H26.1299V261.828H17.6576V270.3Z" fill="black"/>
<path d="M152.417 278.807H160.89V270.334H152.417V278.807Z" fill="#2FAD9D"/>
<path d="M152.417 270.3H160.89V261.828H152.417V270.3Z" fill="#29B9AE"/>
<path d="M160.823 278.807H169.295V270.334H160.823V278.807Z" fill="#2FAD9D"/>
<path d="M160.823 270.3H169.295V261.828H160.823V270.3Z" fill="#2FAD9D"/>
<path d="M169.295 253.338H177.768V244.866H169.295V253.338Z" fill="black"/>
<path d="M143.995 244.866H152.467V236.394H143.995V244.866Z" fill="black"/>
<path d="M135.575 244.866H144.047V236.394H135.575V244.866Z" fill="black"/>
<path d="M127.153 244.866H135.625V236.394H127.153V244.866Z" fill="black"/>
<path d="M118.73 244.866H127.202V236.394H118.73V244.866Z" fill="black"/>
<path d="M110.293 244.866H118.766V236.394H110.293V244.866Z" fill="black"/>
<path d="M101.871 244.866H110.344V236.394H101.871V244.866Z" fill="black"/>
<path d="M93.4486 244.866H101.921V236.394H93.4486V244.866Z" fill="black"/>
<path d="M152.417 244.866H160.89V236.394H152.417V244.866Z" fill="#29B9AE"/>
<path d="M160.823 244.866H169.295V236.394H160.823V244.866Z" fill="#29B9AE"/>
<path d="M169.295 244.866H177.768V236.394H169.295V244.866Z" fill="black"/>
<path d="M143.995 287.278H152.467V278.806H143.995V287.278Z" fill="black"/>
<path d="M135.575 287.278H144.047V278.806H135.575V287.278Z" fill="black"/>
<path d="M127.153 287.278H135.625V278.806H127.153V287.278Z" fill="black"/>
<path d="M118.73 287.278H127.202V278.806H118.73V287.278Z" fill="black"/>
<path d="M110.293 287.278H118.766V278.806H110.293V287.278Z" fill="black"/>
<path d="M101.871 287.278H110.344V278.806H101.871V287.278Z" fill="black"/>
<path d="M93.4486 287.278H101.921V278.806H93.4486V287.278Z" fill="black"/>
<path d="M85.0287 287.278H93.501V278.806H85.0287V287.278Z" fill="black"/>
<path d="M76.6068 287.278H85.0791V278.806H76.6068V287.278Z" fill="black"/>
<path d="M68.1869 287.278H76.6592V278.806H68.1869V287.278Z" fill="black"/>
<path d="M59.764 287.278H68.2363V278.806H59.764V287.278Z" fill="black"/>
<path d="M51.3422 287.278H59.8145V278.806H51.3422V287.278Z" fill="black"/>
<path d="M42.9222 287.278H51.3945V278.806H42.9222V287.278Z" fill="black"/>
<path d="M34.4994 287.278H42.9717V278.806H34.4994V287.278Z" fill="black"/>
<path d="M26.0775 287.278H34.5498V278.806H26.0775V287.278Z" fill="black"/>
<path d="M17.6576 287.278H26.1299V278.806H17.6576V287.278Z" fill="black"/>
<path d="M152.417 287.278H160.89V278.806H152.417V287.278Z" fill="black"/>
<path d="M160.823 287.278H169.295V278.806H160.823V287.278Z" fill="black"/>
<path d="M9.23474 287.278H17.707V278.806H9.23474L9.23474 287.278Z" fill="black"/>
<path d="M169.295 287.278H177.768V278.806H169.295V287.278Z" fill="black"/>
<path d="M169.295 278.807H177.768V270.334H169.295V278.807Z" fill="black"/>
<path d="M169.295 270.3H177.768V261.828H169.295V270.3Z" fill="black"/>
<path d="M9.23474 278.807H17.707V270.334H9.23474L9.23474 278.807Z" fill="black"/>
<path d="M101.973 236.394H93.501V244.866H101.973V236.394Z" fill="black"/>
<path d="M110.393 236.394H101.921V244.866H110.393V236.394Z" fill="black"/>
<path d="M118.816 236.394H110.344V244.866H118.816V236.394Z" fill="black"/>
<path d="M127.238 236.394H118.766V244.866H127.238V236.394Z" fill="black"/>
<path d="M110.36 236.343H101.888V244.815H110.36V236.343Z" fill="#F6F2EC"/>
<path d="M118.783 236.343H110.311V244.815H118.783V236.343Z" fill="#F6F2EC"/>
<path d="M110.36 244.799H101.888V253.271H110.36V244.799Z" fill="#F6F2EC"/>
<path d="M118.783 244.799H110.311V253.271H118.783V244.799Z" fill="#F6F2EC"/>
<path d="M127.202 236.343H118.729V244.815H127.202V236.343Z" fill="black"/>
<path d="M127.202 244.799H118.729V253.271H127.202V244.799Z" fill="black"/>
<path d="M110.36 253.271H101.888V261.744H110.36V253.271Z" fill="black"/>
<path d="M101.887 244.799H93.415V253.271H101.887V244.799Z" fill="black"/>
<path d="M118.783 253.271H110.311V261.744H118.783V253.271Z" fill="#F6F2EC"/>
<path d="M127.202 253.271H118.729V261.744H127.202V253.271Z" fill="#F6F2EC"/>
<path d="M101.941 261.727H93.4688V270.199H101.941V261.727Z" fill="black"/>
<path d="M110.36 261.727H101.888V270.199H110.36V261.727Z" fill="#DAD6D0"/>
<path d="M118.783 261.727H110.311V270.199H118.783V261.727Z" fill="#DAD6D0"/>
<path d="M127.202 261.727H118.729V270.199H127.202V261.727Z" fill="#DAD6D0"/>
<path d="M101.941 270.182H93.4688V278.654H101.941V270.182Z" fill="black"/>
<path d="M110.36 270.182H101.888V278.654H110.36V270.182Z" fill="black"/>
<path d="M118.783 270.182H110.311V278.654H118.783V270.182Z" fill="black"/>
<path d="M127.202 270.182H118.729V278.654H127.202V270.182Z" fill="black"/>
<path d="M135.674 253.271H127.202V261.744H135.674V253.271Z" fill="black"/>
<path d="M135.674 261.727H127.202V270.199H135.674V261.727Z" fill="black"/>
<path d="M135.674 270.182H127.202V278.654H135.674V270.182Z" fill="black"/>
<path d="M51.6992 210.841V202.42H43.2778V210.841H51.6992Z" fill="black"/>
<path d="M60.1387 210.841V202.42H51.7172V210.841H60.1387Z" fill="black"/>
<path d="M68.5576 210.841V202.42H60.1362V210.841H68.5576Z" fill="black"/>
<path d="M76.9971 210.841V202.42H68.5756V210.841H76.9971Z" fill="black"/>
<path d="M43.2764 219.178V210.757H34.8549V219.178H43.2764Z" fill="black"/>
<path d="M51.6992 219.178V210.757H43.2777V219.178H51.6992Z" fill="#5EDBCF"/>
<path d="M60.1387 219.178V210.757H51.7172V219.178H60.1387Z" fill="#29B9AE"/>
<path d="M68.5576 219.178V210.757H60.1361V219.178H68.5576Z" fill="#1FA093"/>
<path d="M76.9971 219.178V210.757H68.5756V219.178H76.9971Z" fill="black"/>
<path d="M85.4863 219.466V211.045H77.0649V219.466H85.4863Z" fill="black"/>
<path d="M93.9746 219.483V211.062H85.5531V219.483H93.9746Z" fill="black"/>
<path d="M102.464 219.483V211.062H94.0424V219.483H102.464Z" fill="black"/>
<path d="M43.2764 227.514V219.093H34.8549V227.514H43.2764Z" fill="black"/>
<path d="M51.6992 227.514V219.093H43.2778V227.514H51.6992Z" fill="#5EDBCF"/>
<path d="M60.1387 227.514V219.093H51.7172V227.514H60.1387Z" fill="#29B9AE"/>
<path d="M68.5576 227.514V219.093H60.1362V227.514H68.5576Z" fill="#1FA093"/>
<path d="M76.9971 227.514V219.093H68.5756V227.514H76.9971Z" fill="black"/>
<path d="M43.2764 235.852V227.431H34.8549V235.852H43.2764Z" fill="black"/>
<path d="M51.6992 235.852V227.431H43.2778V235.852H51.6992Z" fill="#29B9AE"/>
<path d="M60.1387 235.852V227.431H51.7172V235.852H60.1387Z" fill="#29B9AE"/>
<path d="M68.5576 235.852V227.431H60.1362V235.852H68.5576Z" fill="#1FA093"/>
<path d="M76.9971 235.852V227.431H68.5756V235.852H76.9971Z" fill="black"/>
<path d="M43.2764 244.189V235.768H34.8549V244.189H43.2764Z" fill="black"/>
<path d="M51.6992 244.189V235.768H43.2778V244.189H51.6992Z" fill="#F2F71C"/>
<path d="M60.1387 244.189V235.768H51.7172V244.189H60.1387Z" fill="#29B9AE"/>
<path d="M68.5576 244.189V235.768H60.1362V244.189H68.5576Z" fill="#1FA093"/>
<path d="M76.9971 244.189V235.768H68.5756V244.189H76.9971Z" fill="black"/>
<path d="M43.2764 252.644V244.223H34.8549V252.644H43.2764Z" fill="black"/>
<path d="M51.6992 252.661V244.239H43.2778V252.661H51.6992Z" fill="#29B9AE"/>
<path d="M60.1387 252.644V244.223H51.7172V252.644H60.1387Z" fill="#29B9AE"/>
<path d="M68.5576 252.644V244.223H60.1362V252.644H68.5576Z" fill="#1FA093"/>
<path d="M76.9971 252.644V244.223H68.5756V252.644H76.9971Z" fill="black"/>
<path d="M43.2764 261.099V252.678H34.8549V261.099H43.2764Z" fill="black"/>
<path d="M51.6992 261.116V252.694H43.2778V261.116H51.6992Z" fill="#29B9AE"/>
<path d="M60.1387 261.099V252.678H51.7172V261.099H60.1387Z" fill="#29B9AE"/>
<path d="M68.5742 261.116V252.694H60.1528V261.116H68.5742Z" fill="#1FA093"/>
<path d="M76.9971 261.099V252.678H68.5756V261.099H76.9971Z" fill="black"/>
<path d="M51.3418 270.283V261.861H42.9203V270.283H51.3418Z" fill="black"/>
<path d="M59.7812 270.283V261.861H51.3598V270.283H59.7812Z" fill="black"/>
<path d="M68.2041 270.283V261.861H59.7826V270.283H68.2041Z" fill="black"/>
<path d="M42.9229 278.62V270.198H34.5014V278.62H42.9229Z" fill="black"/>
<path d="M51.3418 278.62V270.198H42.9204V278.62H51.3418Z" fill="#DDF8FF"/>
<path d="M59.7812 278.62V270.198H51.3598V278.62H59.7812Z" fill="#DDF8FF"/>
<path d="M68.2041 278.62V270.198H59.7827V278.62H68.2041Z" fill="#DDF8FF"/>
<path d="M76.6396 278.62V270.198H68.2182V278.62H76.6396Z" fill="black"/>
<path d="M42.9229 286.957V278.535H34.5014V286.957H42.9229Z" fill="black"/>
<path d="M51.3418 286.957V278.535H42.9203V286.957H51.3418Z" fill="#DDF8FF"/>
<path d="M59.7812 286.957V278.535H51.3598V286.957H59.7812Z" fill="#38A096"/>
<path d="M68.2041 286.957V278.535H59.7826V286.957H68.2041Z" fill="#DDF8FF"/>
<path d="M76.6396 286.957V278.535H68.2182V286.957H76.6396Z" fill="black"/>
<path d="M42.9229 295.293V286.871H34.5014V295.293H42.9229Z" fill="black"/>
<path d="M51.3418 295.293V286.871H42.9203V295.293H51.3418Z" fill="#DDF8FF"/>
<path d="M59.7812 295.293V286.871H51.3598V295.293H59.7812Z" fill="#DDF8FF"/>
<path d="M68.2041 295.293V286.871H59.7826V295.293H68.2041Z" fill="#DDF8FF"/>
<path d="M76.6396 295.293V286.871H68.2182V295.293H76.6396Z" fill="black"/>
<path d="M51.3418 303.629V295.208H42.9203V303.629H51.3418Z" fill="black"/>
<path d="M59.7812 303.629V295.208H51.3598V303.629H59.7812Z" fill="black"/>
<path d="M68.2041 303.629V295.208H59.7826V303.629H68.2041Z" fill="black"/>
<path d="M101.887 236.343H93.415V244.815H101.887V236.343Z" fill="black"/>
<path d="M144.031 100.973H135.559V109.445H144.031V100.973Z" fill="#29B9AE"/>
<path d="M160.873 117.935H152.4V126.407H160.873V117.935Z" fill="#239686"/>
<path d="M160.618 270.283V261.861H152.197V270.283H160.618Z" fill="black"/>
<path d="M169.041 270.283V261.861H160.62V270.283H169.041Z" fill="black"/>
<path d="M177.479 270.283V261.861H169.058V270.283H177.479Z" fill="black"/>
<path d="M152.179 278.603V270.182H143.757V278.603H152.179Z" fill="black"/>
<path d="M160.602 278.62V270.198H152.18V278.62H160.602Z" fill="#DDF8FF"/>
<path d="M169.041 278.62V270.198H160.62V278.62H169.041Z" fill="#DDF8FF"/>
<path d="M177.479 278.62V270.198H169.058V278.62H177.479Z" fill="#DDF8FF"/>
<path d="M185.898 278.62V270.198H177.477V278.62H185.898Z" fill="black"/>
<path d="M152.179 286.94V278.519H143.757V286.94H152.179Z" fill="black"/>
<path d="M160.602 286.957V278.535H152.18V286.957H160.602Z" fill="#DDF8FF"/>
<path d="M169.041 286.957V278.535H160.62V286.957H169.041Z" fill="#38A096"/>
<path d="M177.479 286.957V278.535H169.058V286.957H177.479Z" fill="#DDF8FF"/>
<path d="M185.898 286.957V278.535H177.477V286.957H185.898Z" fill="black"/>
<path d="M152.179 295.277V286.855H143.757V295.277H152.179Z" fill="black"/>
<path d="M160.602 295.293V286.871H152.18V295.293H160.602Z" fill="#DDF8FF"/>
<path d="M169.041 295.293V286.871H160.62V295.293H169.041Z" fill="#DDF8FF"/>
<path d="M177.479 295.293V286.871H169.058V295.293H177.479Z" fill="#DDF8FF"/>
<path d="M185.898 295.293V286.871H177.477V295.293H185.898Z" fill="black"/>
<path d="M160.602 303.629V295.208H152.18V303.629H160.602Z" fill="black"/>
<path d="M169.041 303.629V295.208H160.62V303.629H169.041Z" fill="black"/>
<path d="M177.479 303.629V295.208H169.058V303.629H177.479Z" fill="black"/>
</svg>
