<svg width="193" height="304" viewBox="0 0 193 304" fill="none" xmlns="http://www.w3.org/2000/svg">
<path d="M160.092 211.553V203.132H151.67V211.553H160.092Z" fill="black"/>
<path d="M168.531 211.553V203.132H160.11V211.553H168.531Z" fill="black"/>
<path d="M176.95 211.553V203.132H168.529V211.553H176.95Z" fill="black"/>
<path d="M185.39 211.553V203.132H176.968V211.553H185.39Z" fill="black"/>
<path d="M151.67 219.889V211.468H147.451V219.889H151.67Z" fill="black"/>
<path d="M160.092 219.889V211.468H151.67V219.889H160.092Z" fill="#29B9AE"/>
<path d="M168.531 219.889V211.468H160.11V219.889H168.531Z" fill="#29B9AE"/>
<path d="M176.95 219.889V211.468H168.529V219.889H176.95Z" fill="#29B9AE"/>
<path d="M185.39 219.889V211.468H176.968V219.889H185.39Z" fill="black"/>
<path d="M151.67 228.227V219.806H147.451V228.227H151.67Z" fill="black"/>
<path d="M160.092 228.227V219.806H151.67V228.227H160.092Z" fill="#29B9AE"/>
<path d="M168.531 228.227V219.806H160.11V228.227H168.531Z" fill="white"/>
<path d="M176.95 228.227V219.806H168.529V228.227H176.95Z" fill="#29B9AE"/>
<path d="M185.39 228.227V219.806H176.968V228.227H185.39Z" fill="black"/>
<path d="M151.67 236.564V228.143H147.451V236.564H151.67Z" fill="black"/>
<path d="M160.092 236.564V228.143H151.67V236.564H160.092Z" fill="#29B9AE"/>
<path d="M168.531 236.564V228.143H160.11V236.564H168.531Z" fill="#29B9AE"/>
<path d="M176.95 236.564V228.143H168.529V236.564H176.95Z" fill="#29B9AE"/>
<path d="M185.39 236.564V228.143H176.968V236.564H185.39Z" fill="black"/>
<path d="M151.67 244.9V236.479H143.248V244.9H151.67Z" fill="black"/>
<path d="M160.092 244.9V236.479H151.67V244.9H160.092Z" fill="black"/>
<path d="M168.531 244.9V236.479H160.11V244.9H168.531Z" fill="black"/>
<path d="M176.95 244.9V236.479H168.529V244.9H176.95Z" fill="black"/>
<path d="M185.39 244.9V236.479H176.968V244.9H185.39Z" fill="black"/>
<path d="M151.924 278.857V270.436H143.502V278.857H151.924Z" fill="black"/>
<path d="M160.347 278.874V270.452H151.925V278.874H160.347Z" fill="black"/>
<path d="M143.485 287.211V278.789H135.064V287.211H143.485Z" fill="black"/>
<path d="M151.924 287.194V278.772H143.502V287.194H151.924Z" fill="#DDF8FF"/>
<path d="M160.347 287.211V278.789H151.925V287.211H160.347Z" fill="#DDF8FF"/>
<path d="M168.786 287.194V278.772H160.365V287.194H168.786Z" fill="black"/>
<path d="M50.5977 20.0787V11.6572H42.1762V20.0787H50.5977Z" fill="#DDF8FF"/>
<path d="M59.0166 20.0963V11.6748H50.5951V20.0963H59.0166Z" fill="#DDF8FF"/>
<path d="M67.4561 20.0787V11.6572H59.0346V20.0787H67.4561Z" fill="#DDF8FF"/>
<path d="M75.8789 20.0963V11.6748H67.4574V20.0963H75.8789Z" fill="#DDF8FF"/>
<path d="M84.3145 20.0787V11.6572H75.893V20.0787H84.3145Z" fill="#DDF8FF"/>
<path d="M92.7539 20.0963V11.6748H84.3324V20.0963H92.7539Z" fill="#DDF8FF"/>
<path d="M101.177 20.0787V11.6572H92.7553V20.0787H101.177Z" fill="#DDF8FF"/>
<path d="M109.612 20.0963V11.6748H101.191V20.0963H109.612Z" fill="#DDF8FF"/>
<path d="M118.035 20.0787V11.6572H109.614V20.0787H118.035Z" fill="#DDF8FF"/>
<path d="M126.475 20.0787V11.6572H118.053V20.0787H126.475Z" fill="#DDF8FF"/>
<path d="M134.897 20.0787V11.6572H126.476V20.0787H134.897Z" fill="#DDF8FF"/>
<path d="M143.333 20.0787V11.6572H134.912V20.0787H143.333Z" fill="#DDF8FF"/>
<path d="M151.756 20.0787V11.6572H143.334V20.0787H151.756Z" fill="#DDF8FF"/>
<path d="M150.993 28.4326H159.414V20.0112H150.993V28.4326Z" fill="#DDF8FF"/>
<path d="M33.7354 28.4156V19.9941H25.3139V28.4156H33.7354Z" fill="#DDF8FF"/>
<path d="M42.1582 28.4156V19.9941H33.7367V28.4156H42.1582Z" fill="#DDF8FF"/>
<path d="M42.1582 25.2476V16.8262H33.7367V25.2476H42.1582Z" fill="#DDF8FF"/>
<path d="M50.5977 28.4156V19.9941H42.1762V28.4156H50.5977Z" fill="#DDF8FF"/>
<path d="M59.0166 28.4332V20.0117H50.5951V28.4332H59.0166Z" fill="#DDF8FF"/>
<path d="M67.4561 28.4156V19.9941H59.0346V28.4156H67.4561Z" fill="#DDF8FF"/>
<path d="M75.8789 28.4332V20.0117H67.4574V28.4332H75.8789Z" fill="#DDF8FF"/>
<path d="M84.3145 28.4156V19.9941H75.893V28.4156H84.3145Z" fill="#DDF8FF"/>
<path d="M92.7373 28.4332V20.0117H84.3158V28.4332H92.7373Z" fill="#DDF8FF"/>
<path d="M101.177 28.4156V19.9941H92.7553V28.4156H101.177Z" fill="#DDF8FF"/>
<path d="M109.612 28.4332V20.0117H101.191V28.4332H109.612Z" fill="#DDF8FF"/>
<path d="M118.035 28.4156V19.9941H109.614V28.4156H118.035Z" fill="#DDF8FF"/>
<path d="M126.475 28.4156V19.9941H118.053V28.4156H126.475Z" fill="#DDF8FF"/>
<path d="M134.897 28.4156V19.9941H126.476V28.4156H134.897Z" fill="#DDF8FF"/>
<path d="M143.333 28.4156V19.9941H134.912V28.4156H143.333Z" fill="#DDF8FF"/>
<path d="M151.756 28.4156V19.9941H143.334V28.4156H151.756Z" fill="#DDF8FF"/>
<path d="M159.414 36.7705H167.836V28.349H159.414V36.7705Z" fill="#DDF8FF"/>
<path d="M150.993 36.7705H159.414V28.349H150.993V36.7705Z" fill="#DDF8FF"/>
<path d="M33.7354 36.7535V28.332H25.3139V36.7535H33.7354Z" fill="#DDF8FF"/>
<path d="M42.1582 36.7535V28.332H33.7367V36.7535H42.1582Z" fill="#DDF8FF"/>
<path d="M50.5977 36.7535V28.332H42.1762V36.7535H50.5977Z" fill="#DDF8FF"/>
<path d="M59.0166 36.7701V28.3486H50.5951V36.7701H59.0166Z" fill="#DDF8FF"/>
<path d="M67.4561 36.7535V28.332H59.0346V36.7535H67.4561Z" fill="#DDF8FF"/>
<path d="M75.8789 36.7701V28.3486H67.4574V36.7701H75.8789Z" fill="#DDF8FF"/>
<path d="M84.3145 36.7535V28.332H75.893V36.7535H84.3145Z" fill="#DDF8FF"/>
<path d="M92.7373 36.7701V28.3486H84.3158V36.7701H92.7373Z" fill="#DDF8FF"/>
<path d="M101.177 36.7535V28.332H92.7553V36.7535H101.177Z" fill="#DDF8FF"/>
<path d="M109.612 36.7701V28.3486H101.191V36.7701H109.612Z" fill="#DDF8FF"/>
<path d="M118.035 36.7535V28.332H109.614V36.7535H118.035Z" fill="#DDF8FF"/>
<path d="M126.475 36.7535V28.332H118.053V36.7535H126.475Z" fill="#DDF8FF"/>
<path d="M134.897 36.7535V28.332H126.476V36.7535H134.897Z" fill="#DDF8FF"/>
<path d="M143.333 36.7535V28.332H134.912V36.7535H143.333Z" fill="#DDF8FF"/>
<path d="M151.756 36.7535V28.332H143.334V36.7535H151.756Z" fill="#DDF8FF"/>
<path d="M159.414 45.1064H167.836V36.685H159.414V45.1064Z" fill="#DDF8FF"/>
<path d="M150.993 45.1064H159.414V36.685H150.993V45.1064Z" fill="#DDF8FF"/>
<path d="M167.785 45.1064H176.206V36.685H167.785V45.1064Z" fill="#DDF8FF"/>
<path d="M25.2969 45.0894V36.668H16.8754V45.0894H25.2969Z" fill="#DDF8FF"/>
<path d="M33.7354 45.0894V36.668H25.3139V45.0894H33.7354Z" fill="#DDF8FF"/>
<path d="M42.1582 45.0894V36.668H33.7367V45.0894H42.1582Z" fill="#DDF8FF"/>
<path d="M50.5977 45.0894V36.668H42.1762V45.0894H50.5977Z" fill="#DDF8FF"/>
<path d="M59.0166 45.106V36.6846H50.5951V45.106H59.0166Z" fill="#DDF8FF"/>
<path d="M67.4561 45.0894V36.668H59.0346V45.0894H67.4561Z" fill="#DDF8FF"/>
<path d="M75.8789 45.106V36.6846H67.4574V45.106H75.8789Z" fill="#DDF8FF"/>
<path d="M84.3145 45.0894V36.668H75.893V45.0894H84.3145Z" fill="#DDF8FF"/>
<path d="M92.7373 45.106V36.6846H84.3158V45.106H92.7373Z" fill="#DDF8FF"/>
<path d="M101.177 45.0894V36.668H92.7553V45.0894H101.177Z" fill="#DDF8FF"/>
<path d="M109.612 45.106V36.6846H101.191V45.106H109.612Z" fill="#DDF8FF"/>
<path d="M118.035 45.0894V36.668H109.614V45.0894H118.035Z" fill="#DDF8FF"/>
<path d="M126.475 45.0894V36.668H118.053V45.0894H126.475Z" fill="#DDF8FF"/>
<path d="M134.897 45.0894V36.668H126.476V45.0894H134.897Z" fill="#DDF8FF"/>
<path d="M143.333 45.0894V36.668H134.912V45.0894H143.333Z" fill="#DDF8FF"/>
<path d="M151.756 45.0894V36.668H143.334V45.0894H151.756Z" fill="#DDF8FF"/>
<path d="M159.414 53.4434H167.836V45.0219H159.414V53.4434Z" fill="#DDF8FF"/>
<path d="M150.993 53.4434H159.414V45.0219H150.993V53.4434Z" fill="#DDF8FF"/>
<path d="M167.785 53.4434H176.206V45.0219H167.785V53.4434Z" fill="#DDF8FF"/>
<path d="M176.191 53.4434H184.612V45.0219H176.191V53.4434Z" fill="#DDF8FF"/>
<path d="M16.8604 53.4263V45.0049H8.43889V53.4263H16.8604Z" fill="#DDF8FF"/>
<path d="M50.5977 16.8433V8.42188H42.1762V16.8433H50.5977Z" fill="#DDF8FF"/>
<path d="M59.0166 16.8599V8.43848H50.5951V16.8599H59.0166Z" fill="#DDF8FF"/>
<path d="M67.4561 16.8433V8.42188H59.0346V16.8433H67.4561Z" fill="#DDF8FF"/>
<path d="M75.8789 16.8433V8.42188H67.4574V16.8433H75.8789Z" fill="#DDF8FF"/>
<path d="M84.3145 16.8433V8.42188H75.893V16.8433H84.3145Z" fill="#DDF8FF"/>
<path d="M92.7373 16.8433V8.42188H84.3158V16.8433H92.7373Z" fill="#DDF8FF"/>
<path d="M101.177 16.8433V8.42188H92.7553V16.8433H101.177Z" fill="#DDF8FF"/>
<path d="M109.596 16.8433V8.42188H101.174V16.8433H109.596Z" fill="#DDF8FF"/>
<path d="M118.035 16.8433V8.42188H109.614V16.8433H118.035Z" fill="#DDF8FF"/>
<path d="M126.458 16.8433V8.42188H118.037V16.8433H126.458Z" fill="#DDF8FF"/>
<path d="M134.897 16.8433V8.42188H126.476V16.8433H134.897Z" fill="#DDF8FF"/>
<path d="M143.333 16.8433V8.42188H134.912V16.8433H143.333Z" fill="#DDF8FF"/>
<path d="M151.756 16.8433V8.42188H143.334V16.8433H151.756Z" fill="#DDF8FF"/>
<path d="M150.993 25.1973H159.414V16.7758H150.993V25.1973Z" fill="#DDF8FF"/>
<path d="M159.414 33.5332H167.836V25.1117H159.414V33.5332Z" fill="#DDF8FF"/>
<path d="M167.785 41.8701H176.206V33.4487H167.785V41.8701Z" fill="#DDF8FF"/>
<path d="M25.2803 41.8531V33.4316H16.8588V41.8531H25.2803Z" fill="#DDF8FF"/>
<path d="M176.191 50.207H184.612V41.7856H176.191V50.207Z" fill="#DDF8FF"/>
<path d="M16.8408 50.19V41.7686H8.41936V50.19H16.8408Z" fill="#DDF8FF"/>
<path d="M25.2969 53.4263V45.0049H16.8754V53.4263H25.2969Z" fill="#DDF8FF"/>
<path d="M33.7354 53.4263V45.0049H25.3139V53.4263H33.7354Z" fill="#DDF8FF"/>
<path d="M42.1582 53.4263V45.0049H33.7367V53.4263H42.1582Z" fill="#DDF8FF"/>
<path d="M50.5977 53.4263V45.0049H42.1762V53.4263H50.5977Z" fill="#DDF8FF"/>
<path d="M59.0166 53.4429V45.0215H50.5951V53.4429H59.0166Z" fill="#DDF8FF"/>
<path d="M67.4561 53.4263V45.0049H59.0346V53.4263H67.4561Z" fill="#DDF8FF"/>
<path d="M75.8789 53.4429V45.0215H67.4574V53.4429H75.8789Z" fill="#DDF8FF"/>
<path d="M84.3145 53.4263V45.0049H75.893V53.4263H84.3145Z" fill="#DDF8FF"/>
<path d="M92.7373 53.4429V45.0215H84.3158V53.4429H92.7373Z" fill="#DDF8FF"/>
<path d="M101.177 53.4263V45.0049H92.7553V53.4263H101.177Z" fill="#DDF8FF"/>
<path d="M109.612 53.4429V45.0215H101.191V53.4429H109.612Z" fill="#DDF8FF"/>
<path d="M118.035 53.4263V45.0049H109.614V53.4263H118.035Z" fill="#DDF8FF"/>
<path d="M126.475 53.4263V45.0049H118.053V53.4263H126.475Z" fill="#DDF8FF"/>
<path d="M134.897 53.4263V45.0049H126.476V53.4263H134.897Z" fill="#DDF8FF"/>
<path d="M143.333 53.4263V45.0049H134.912V53.4263H143.333Z" fill="#DDF8FF"/>
<path d="M151.756 53.4263V45.0049H143.334V53.4263H151.756Z" fill="#DDF8FF"/>
<path d="M159.414 61.7803H167.836V53.3588H159.414V61.7803Z" fill="#DDF8FF"/>
<path d="M150.993 61.7803H159.414V53.3588H150.993V61.7803Z" fill="#DDF8FF"/>
<path d="M167.785 61.7803H176.206V53.3588H167.785V61.7803Z" fill="#DDF8FF"/>
<path d="M176.191 61.7803H184.612V53.3588H176.191V61.7803Z" fill="#DDF8FF"/>
<path d="M16.8604 61.7633V53.3418H8.43889V61.7633H16.8604Z" fill="#DDF8FF"/>
<path d="M25.2969 61.7633V53.3418H16.8754V61.7633H25.2969Z" fill="#DDF8FF"/>
<path d="M33.7354 61.7633V53.3418H25.3139V61.7633H33.7354Z" fill="#DDF8FF"/>
<path d="M42.1582 61.7633V53.3418H33.7367V61.7633H42.1582Z" fill="#DDF8FF"/>
<path d="M50.5977 61.7633V53.3418H42.1762V61.7633H50.5977Z" fill="#DDF8FF"/>
<path d="M59.0166 61.7808V53.3594H50.5951V61.7808H59.0166Z" fill="#DDF8FF"/>
<path d="M67.4561 61.7633V53.3418H59.0346V61.7633H67.4561Z" fill="#DDF8FF"/>
<path d="M75.8789 61.7808V53.3594H67.4574V61.7808H75.8789Z" fill="#DDF8FF"/>
<path d="M84.3145 61.7633V53.3418H75.893V61.7633H84.3145Z" fill="#DDF8FF"/>
<path d="M92.7373 61.7808V53.3594H84.3158V61.7808H92.7373Z" fill="#DDF8FF"/>
<path d="M101.177 61.7633V53.3418H92.7553V61.7633H101.177Z" fill="#DDF8FF"/>
<path d="M109.612 61.7808V53.3594H101.191V61.7808H109.612Z" fill="#DDF8FF"/>
<path d="M118.035 61.7633V53.3418H109.614V61.7633H118.035Z" fill="#DDF8FF"/>
<path d="M126.475 61.7632V53.3418H118.053V61.7632H126.475Z" fill="#DDF8FF"/>
<path d="M134.897 61.7633V53.3418H126.476V61.7633H134.897Z" fill="#DDF8FF"/>
<path d="M143.333 61.7633V53.3418H134.912V61.7633H143.333Z" fill="#DDF8FF"/>
<path d="M151.756 61.7633V53.3418H143.334V61.7633H151.756Z" fill="#DDF8FF"/>
<path d="M159.414 70.1162H167.836V61.6948H159.414V70.1162Z" fill="#DDF8FF"/>
<path d="M150.993 70.1162H159.414V61.6948H150.993V70.1162Z" fill="#DDF8FF"/>
<path d="M167.785 70.1162H176.206V61.6948H167.785V70.1162Z" fill="#DDF8FF"/>
<path d="M176.191 70.1162H184.612V61.6948H176.191V70.1162Z" fill="#DDF8FF"/>
<path d="M16.8604 70.0992V61.6777H8.4389V70.0992H16.8604Z" fill="#DDF8FF"/>
<path d="M25.2969 70.0992V61.6777H16.8754V70.0992H25.2969Z" fill="#DDF8FF"/>
<path d="M33.7354 70.0992V61.6777H25.3139V70.0992H33.7354Z" fill="#DDF8FF"/>
<path d="M42.1582 70.0992V61.6777H33.7367V70.0992H42.1582Z" fill="#DDF8FF"/>
<path d="M50.5977 70.0992V61.6777H42.1762V70.0992H50.5977Z" fill="#DDF8FF"/>
<path d="M59.0166 70.1168V61.6953H50.5951V70.1168H59.0166Z" fill="#DDF8FF"/>
<path d="M67.4561 70.0992V61.6777H59.0346V70.0992H67.4561Z" fill="#DDF8FF"/>
<path d="M75.8789 70.1168V61.6953H67.4574V70.1168H75.8789Z" fill="#DDF8FF"/>
<path d="M84.3145 70.0992V61.6777H75.893V70.0992H84.3145Z" fill="#DDF8FF"/>
<path d="M92.7373 70.1168V61.6953H84.3158V70.1168H92.7373Z" fill="#DDF8FF"/>
<path d="M101.177 70.0992V61.6777H92.7553V70.0992H101.177Z" fill="#DDF8FF"/>
<path d="M109.612 70.1168V61.6953H101.191V70.1168H109.612Z" fill="#DDF8FF"/>
<path d="M118.035 70.0992V61.6777H109.614V70.0992H118.035Z" fill="#DDF8FF"/>
<path d="M126.475 70.0992V61.6777H118.053V70.0992H126.475Z" fill="#DDF8FF"/>
<path d="M134.897 70.0992V61.6777H126.476V70.0992H134.897Z" fill="#DDF8FF"/>
<path d="M143.333 70.0992V61.6777H134.912V70.0992H143.333Z" fill="#DDF8FF"/>
<path d="M151.756 70.0992V61.6777H143.334V70.0992H151.756Z" fill="#DDF8FF"/>
<path d="M159.414 78.4531H167.836V70.0317H159.414V78.4531Z" fill="#DDF8FF"/>
<path d="M150.993 78.4531H159.414V70.0317H150.993V78.4531Z" fill="#DDF8FF"/>
<path d="M167.785 78.4531H176.206V70.0317H167.785V78.4531Z" fill="#DDF8FF"/>
<path d="M176.191 78.4531H184.612V70.0317H176.191V78.4531Z" fill="#DDF8FF"/>
<path d="M16.8604 78.4361V70.0146H8.43889V78.4361H16.8604Z" fill="#DDF8FF"/>
<path d="M25.2969 78.4361V70.0146H16.8754V78.4361H25.2969Z" fill="#DDF8FF"/>
<path d="M33.7354 78.4361V70.0146H25.3139V78.4361H33.7354Z" fill="#DDF8FF"/>
<path d="M42.1582 78.4361V70.0146H33.7367V78.4361H42.1582Z" fill="#DDF8FF"/>
<path d="M50.5977 78.4361V70.0146H42.1762V78.4361H50.5977Z" fill="#DDF8FF"/>
<path d="M59.0166 78.4537V70.0322H50.5951V78.4537H59.0166Z" fill="#DDF8FF"/>
<path d="M67.4561 78.4361V70.0146H59.0346V78.4361H67.4561Z" fill="#DDF8FF"/>
<path d="M75.8789 78.4537V70.0322H67.4574V78.4537H75.8789Z" fill="#DDF8FF"/>
<path d="M84.3145 78.4361V70.0146H75.893V78.4361H84.3145Z" fill="#DDF8FF"/>
<path d="M92.7373 78.4537V70.0322H84.3158V78.4537H92.7373Z" fill="#DDF8FF"/>
<path d="M101.177 78.4361V70.0146H92.7553V78.4361H101.177Z" fill="#DDF8FF"/>
<path d="M109.612 78.4537V70.0322H101.191V78.4537H109.612Z" fill="#DDF8FF"/>
<path d="M118.035 78.4361V70.0146H109.614V78.4361H118.035Z" fill="#DDF8FF"/>
<path d="M126.475 78.4361V70.0146H118.053V78.4361H126.475Z" fill="#DDF8FF"/>
<path d="M134.897 78.4361V70.0146H126.476V78.4361H134.897Z" fill="#DDF8FF"/>
<path d="M143.333 78.4361V70.0146H134.912V78.4361H143.333Z" fill="#DDF8FF"/>
<path d="M151.756 78.4361V70.0146H143.334V78.4361H151.756Z" fill="#DDF8FF"/>
<path d="M159.414 86.791H167.836V78.3696H159.414V86.791Z" fill="#DDF8FF"/>
<path d="M150.993 86.791H159.414V78.3696H150.993V86.791Z" fill="#DDF8FF"/>
<path d="M167.785 86.791H176.206V78.3696H167.785V86.791Z" fill="#DDF8FF"/>
<path d="M176.191 86.791H184.612V78.3696H176.191V86.791Z" fill="#DDF8FF"/>
<path d="M16.8604 86.774V78.3525H8.4389V86.774H16.8604Z" fill="#DDF8FF"/>
<path d="M25.2969 86.774V78.3525H16.8754V86.774H25.2969Z" fill="#DDF8FF"/>
<path d="M33.7354 86.774V78.3525H25.3139V86.774H33.7354Z" fill="#DDF8FF"/>
<path d="M42.1582 86.774V78.3525H33.7367V86.774H42.1582Z" fill="#DDF8FF"/>
<path d="M50.5977 86.774V78.3525H42.1762V86.774H50.5977Z" fill="#DDF8FF"/>
<path d="M59.0166 86.7906V78.3691H50.5951V86.7906H59.0166Z" fill="#DDF8FF"/>
<path d="M67.4561 86.774V78.3525H59.0346V86.774H67.4561Z" fill="#DDF8FF"/>
<path d="M75.8789 86.7906V78.3691H67.4574V86.7906H75.8789Z" fill="#DDF8FF"/>
<path d="M84.3145 86.774V78.3525H75.893V86.774H84.3145Z" fill="#DDF8FF"/>
<path d="M92.7373 86.7906V78.3691H84.3158V86.7906H92.7373Z" fill="#DDF8FF"/>
<path d="M101.177 86.774V78.3525H92.7553V86.774H101.177Z" fill="#DDF8FF"/>
<path d="M109.612 86.774V78.3525H101.191V86.774H109.612Z" fill="#DDF8FF"/>
<path d="M118.035 86.774V78.3525H109.614V86.774H118.035Z" fill="#DDF8FF"/>
<path d="M126.475 86.774V78.3525H118.053V86.774H126.475Z" fill="#DDF8FF"/>
<path d="M134.897 86.774V78.3525H126.476V86.774H134.897Z" fill="#DDF8FF"/>
<path d="M143.333 86.774V78.3525H134.912V86.774H143.333Z" fill="#DDF8FF"/>
<path d="M151.756 86.774V78.3525H143.334V86.774H151.756Z" fill="#DDF8FF"/>
<path d="M159.414 95.127H167.836V86.7055H159.414V95.127Z" fill="#DDF8FF"/>
<path d="M150.993 95.127H159.414V86.7055H150.993V95.127Z" fill="#DDF8FF"/>
<path d="M167.785 95.127H176.206V86.7055H167.785V95.127Z" fill="#DDF8FF"/>
<path d="M176.191 95.127H184.612V86.7055H176.191V95.127Z" fill="#DDF8FF"/>
<path d="M16.8604 95.1099V86.6885H8.43889V95.1099H16.8604Z" fill="#DDF8FF"/>
<path d="M25.2969 95.1099V86.6885H16.8754V95.1099H25.2969Z" fill="#DDF8FF"/>
<path d="M33.7354 95.1099V86.6885H25.3139V95.1099H33.7354Z" fill="#DDF8FF"/>
<path d="M42.1582 95.1099V86.6885H33.7367V95.1099H42.1582Z" fill="#DDF8FF"/>
<path d="M50.5977 95.1099V86.6885H42.1762V95.1099H50.5977Z" fill="#DDF8FF"/>
<path d="M59.0166 95.1265V86.7051H50.5951V95.1265H59.0166Z" fill="#DDF8FF"/>
<path d="M67.4561 95.1099V86.6885H59.0346V95.1099H67.4561Z" fill="#DDF8FF"/>
<path d="M75.8789 95.1265V86.7051H67.4574V95.1265H75.8789Z" fill="#DDF8FF"/>
<path d="M84.3145 95.1099V86.6885H75.893V95.1099H84.3145Z" fill="#DDF8FF"/>
<path d="M92.7373 95.1265V86.7051H84.3158V95.1265H92.7373Z" fill="#DDF8FF"/>
<path d="M101.177 95.1099V86.6885H92.7553V95.1099H101.177Z" fill="#DDF8FF"/>
<path d="M109.612 95.1099V86.6885H101.191V95.1099H109.612Z" fill="#DDF8FF"/>
<path d="M118.035 95.1099V86.6885H109.614V95.1099H118.035Z" fill="#DDF8FF"/>
<path d="M126.475 95.1099V86.6885H118.053V95.1099H126.475Z" fill="#DDF8FF"/>
<path d="M134.897 95.1099V86.6885H126.476V95.1099H134.897Z" fill="#DDF8FF"/>
<path d="M143.333 95.1099V86.6885H134.912V95.1099H143.333Z" fill="#DDF8FF"/>
<path d="M151.756 95.1099V86.6885H143.334V95.1099H151.756Z" fill="#DDF8FF"/>
<path d="M159.414 103.464H167.836V95.0424H159.414V103.464Z" fill="#DDF8FF"/>
<path d="M150.993 103.464H159.414V95.0424H150.993V103.464Z" fill="#DDF8FF"/>
<path d="M167.785 103.464H176.206V95.0424H167.785V103.464Z" fill="#DDF8FF"/>
<path d="M176.191 103.464H184.612V95.0424H176.191V103.464Z" fill="#DDF8FF"/>
<path d="M16.8604 103.447V95.0254H8.4389V103.447H16.8604Z" fill="#DDF8FF"/>
<path d="M25.2969 103.447V95.0254H16.8754V103.447H25.2969Z" fill="#DDF8FF"/>
<path d="M33.7354 103.447V95.0254H25.3139V103.447H33.7354Z" fill="#DDF8FF"/>
<path d="M42.1582 103.447V95.0254H33.7367V103.447H42.1582Z" fill="#DDF8FF"/>
<path d="M50.5977 103.447V95.0254H42.1762V103.447H50.5977Z" fill="#DDF8FF"/>
<path d="M59.0166 103.463V95.042H50.5951V103.463H59.0166Z" fill="#DDF8FF"/>
<path d="M67.4561 103.447V95.0254H59.0346V103.447H67.4561Z" fill="#DDF8FF"/>
<path d="M75.8789 103.463V95.042H67.4574V103.463H75.8789Z" fill="#DDF8FF"/>
<path d="M84.3145 103.447V95.0254H75.893V103.447H84.3145Z" fill="#DDF8FF"/>
<path d="M92.7373 103.463V95.042H84.3158V103.463H92.7373Z" fill="#DDF8FF"/>
<path d="M101.177 103.447V95.0254H92.7553V103.447H101.177Z" fill="#DDF8FF"/>
<path d="M109.596 103.447V95.0254H101.174V103.447H109.596Z" fill="#DDF8FF"/>
<path d="M118.035 103.447V95.0254H109.614V103.447H118.035Z" fill="#DDF8FF"/>
<path d="M126.475 103.447V95.0254H118.053V103.447H126.475Z" fill="#DDF8FF"/>
<path d="M134.897 103.447V95.0254H126.476V103.447H134.897Z" fill="#DDF8FF"/>
<path d="M143.333 103.447V95.0254H134.912V103.447H143.333Z" fill="#DDF8FF"/>
<path d="M151.756 103.447V95.0254H143.334V103.447H151.756Z" fill="#DDF8FF"/>
<path d="M159.414 111.801H167.836V103.379H159.414V111.801Z" fill="#DDF8FF"/>
<path d="M150.993 111.801H159.414V103.379H150.993V111.801Z" fill="#DDF8FF"/>
<path d="M167.785 111.801H176.206V103.379H167.785V111.801Z" fill="#DDF8FF"/>
<path d="M176.191 111.801H184.612V103.379H176.191V111.801Z" fill="#DDF8FF"/>
<path d="M16.8604 111.784V103.362H8.43889V111.784H16.8604Z" fill="#DDF8FF"/>
<path d="M25.2969 111.784V103.362H16.8754V111.784H25.2969Z" fill="#DDF8FF"/>
<path d="M33.7354 111.784V103.362H25.3139V111.784H33.7354Z" fill="#DDF8FF"/>
<path d="M42.1582 111.784V103.362H33.7367V111.784H42.1582Z" fill="#DDF8FF"/>
<path d="M50.5977 111.784V103.362H42.1762V111.784H50.5977Z" fill="#DDF8FF"/>
<path d="M59.0166 111.8V103.379H50.5951V111.8H59.0166Z" fill="#DDF8FF"/>
<path d="M67.4561 111.784V103.362H59.0346V111.784H67.4561Z" fill="#DDF8FF"/>
<path d="M75.8789 111.8V103.379H67.4574V111.8H75.8789Z" fill="#DDF8FF"/>
<path d="M84.3145 111.784V103.362H75.893V111.784H84.3145Z" fill="#DDF8FF"/>
<path d="M92.7373 111.8V103.379H84.3158V111.8H92.7373Z" fill="#DDF8FF"/>
<path d="M101.177 111.784V103.362H92.7553V111.784H101.177Z" fill="#DDF8FF"/>
<path d="M109.596 111.784V103.362H101.174V111.784H109.596Z" fill="#DDF8FF"/>
<path d="M118.035 111.784V103.362H109.614V111.784H118.035Z" fill="#DDF8FF"/>
<path d="M126.475 111.784V103.362H118.053V111.784H126.475Z" fill="#DDF8FF"/>
<path d="M134.897 111.784V103.362H126.476V111.784H134.897Z" fill="#DDF8FF"/>
<path d="M143.333 111.784V103.362H134.912V111.784H143.333Z" fill="#DDF8FF"/>
<path d="M151.756 111.784V103.362H143.334V111.784H151.756Z" fill="#DDF8FF"/>
<path d="M159.414 120.137H167.836V111.715H159.414V120.137Z" fill="#DDF8FF"/>
<path d="M150.993 120.137H159.414V111.715H150.993V120.137Z" fill="#DDF8FF"/>
<path d="M167.785 120.137H176.206V111.715H167.785V120.137Z" fill="#DDF8FF"/>
<path d="M176.191 120.137H184.612V111.715H176.191V120.137Z" fill="#DDF8FF"/>
<path d="M16.8604 120.12V111.698H8.43889V120.12H16.8604Z" fill="#DDF8FF"/>
<path d="M25.2969 120.12V111.698H16.8754V120.12H25.2969Z" fill="#DDF8FF"/>
<path d="M33.7354 120.12V111.698H25.3139V120.12H33.7354Z" fill="#DDF8FF"/>
<path d="M42.1582 120.12V111.698H33.7367V120.12H42.1582Z" fill="#DDF8FF"/>
<path d="M50.5977 120.12V111.698H42.1762V120.12H50.5977Z" fill="#DDF8FF"/>
<path d="M59.0166 120.137V111.716H50.5951V120.137H59.0166Z" fill="#DDF8FF"/>
<path d="M67.4561 120.12V111.698H59.0346V120.12H67.4561Z" fill="#DDF8FF"/>
<path d="M75.8789 120.137V111.716H67.4574V120.137H75.8789Z" fill="#DDF8FF"/>
<path d="M84.3145 120.12V111.698H75.893V120.12H84.3145Z" fill="#DDF8FF"/>
<path d="M92.7373 120.137V111.716H84.3158V120.137H92.7373Z" fill="#DDF8FF"/>
<path d="M101.177 120.12V111.698H92.7553V120.12H101.177Z" fill="#DDF8FF"/>
<path d="M109.596 120.12V111.698H101.174V120.12H109.596Z" fill="#DDF8FF"/>
<path d="M118.035 120.12V111.698H109.614V120.12H118.035Z" fill="#DDF8FF"/>
<path d="M126.475 120.12V111.698H118.053V120.12H126.475Z" fill="#DDF8FF"/>
<path d="M134.897 120.12V111.698H126.476V120.12H134.897Z" fill="#DDF8FF"/>
<path d="M143.333 120.12V111.698H134.912V120.12H143.333Z" fill="#DDF8FF"/>
<path d="M151.756 120.12V111.698H143.334V120.12H151.756Z" fill="#DDF8FF"/>
<path d="M159.414 128.474H167.836V120.052H159.414V128.474Z" fill="#DDF8FF"/>
<path d="M150.993 128.474H159.414V120.052H150.993V128.474Z" fill="#DDF8FF"/>
<path d="M167.785 128.474H176.206V120.052H167.785V128.474Z" fill="#DDF8FF"/>
<path d="M176.191 128.474H184.612V120.052H176.191V128.474Z" fill="#DDF8FF"/>
<path d="M16.8604 128.457V120.035H8.43889V128.457H16.8604Z" fill="#DDF8FF"/>
<path d="M25.2969 128.457V120.035H16.8754V128.457H25.2969Z" fill="#DDF8FF"/>
<path d="M33.7354 128.457V120.035H25.3139V128.457H33.7354Z" fill="#DDF8FF"/>
<path d="M42.1582 128.457V120.035H33.7367V128.457H42.1582Z" fill="#DDF8FF"/>
<path d="M50.5977 128.457V120.035H42.1762V128.457H50.5977Z" fill="#DDF8FF"/>
<path d="M59.0166 128.474V120.053H50.5951V128.474H59.0166Z" fill="#DDF8FF"/>
<path d="M67.4561 128.457V120.035H59.0346V128.457H67.4561Z" fill="#DDF8FF"/>
<path d="M75.8789 128.474V120.053H67.4574V128.474H75.8789Z" fill="#DDF8FF"/>
<path d="M84.3145 128.457V120.035H75.893V128.457H84.3145Z" fill="#DDF8FF"/>
<path d="M92.7373 128.474V120.053H84.3158V128.474H92.7373Z" fill="#DDF8FF"/>
<path d="M101.177 128.457V120.035H92.7553V128.457H101.177Z" fill="#DDF8FF"/>
<path d="M109.596 128.457V120.035H101.174V128.457H109.596Z" fill="#DDF8FF"/>
<path d="M118.035 128.457V120.035H109.614V128.457H118.035Z" fill="#DDF8FF"/>
<path d="M126.475 128.457V120.035H118.053V128.457H126.475Z" fill="#DDF8FF"/>
<path d="M134.897 128.457V120.035H126.476V128.457H134.897Z" fill="#DDF8FF"/>
<path d="M143.333 128.457V120.035H134.912V128.457H143.333Z" fill="#DDF8FF"/>
<path d="M151.756 128.457V120.035H143.334V128.457H151.756Z" fill="#DDF8FF"/>
<path d="M159.414 136.811H167.836V128.389H159.414V136.811Z" fill="#DDF8FF"/>
<path d="M150.993 136.811H159.414V128.389H150.993V136.811Z" fill="#DDF8FF"/>
<path d="M167.785 136.811H176.206V128.389H167.785V136.811Z" fill="#DDF8FF"/>
<path d="M176.191 136.811H184.612V128.389H176.191V136.811Z" fill="#DDF8FF"/>
<path d="M16.8604 136.794V128.372H8.43889V136.794H16.8604Z" fill="#DDF8FF"/>
<path d="M25.2969 136.794V128.372H16.8754V136.794H25.2969Z" fill="#DDF8FF"/>
<path d="M33.7354 136.794V128.372H25.3139V136.794H33.7354Z" fill="#DDF8FF"/>
<path d="M42.1582 136.794V128.372H33.7367V136.794H42.1582Z" fill="#DDF8FF"/>
<path d="M50.5977 136.794V128.372H42.1762V136.794H50.5977Z" fill="#DDF8FF"/>
<path d="M59.0166 136.811V128.39H50.5951V136.811H59.0166Z" fill="#DDF8FF"/>
<path d="M67.4561 136.794V128.372H59.0346V136.794H67.4561Z" fill="#DDF8FF"/>
<path d="M75.8789 136.811V128.39H67.4574V136.811H75.8789Z" fill="#DDF8FF"/>
<path d="M84.3145 136.794V128.372H75.893V136.794H84.3145Z" fill="#DDF8FF"/>
<path d="M92.7373 136.811V128.39H84.3158V136.811H92.7373Z" fill="#DDF8FF"/>
<path d="M101.177 136.794V128.372H92.7553V136.794H101.177Z" fill="#DDF8FF"/>
<path d="M109.596 136.794V128.372H101.174V136.794H109.596Z" fill="#DDF8FF"/>
<path d="M118.035 136.794V128.372H109.614V136.794H118.035Z" fill="#DDF8FF"/>
<path d="M126.475 136.794V128.372H118.053V136.794H126.475Z" fill="#DDF8FF"/>
<path d="M134.897 136.794V128.372H126.476V136.794H134.897Z" fill="#DDF8FF"/>
<path d="M143.333 136.794V128.372H134.912V136.794H143.333Z" fill="#DDF8FF"/>
<path d="M151.756 136.794V128.372H143.334V136.794H151.756Z" fill="#DDF8FF"/>
<path d="M159.414 145.147H167.836V136.726H159.414V145.147Z" fill="#DDF8FF"/>
<path d="M150.993 145.147H159.414V136.726H150.993V145.147Z" fill="#DDF8FF"/>
<path d="M167.785 145.147H176.206V136.726H167.785V145.147Z" fill="#DDF8FF"/>
<path d="M176.191 145.147H184.612V136.726H176.191V145.147Z" fill="#DDF8FF"/>
<path d="M16.8604 145.13V136.709H8.43889V145.13H16.8604Z" fill="#DDF8FF"/>
<path d="M25.2969 145.13V136.709H16.8754V145.13H25.2969Z" fill="#DDF8FF"/>
<path d="M33.7354 145.13V136.709H25.3139V145.13H33.7354Z" fill="#DDF8FF"/>
<path d="M42.1582 145.13V136.709H33.7367V145.13H42.1582Z" fill="#DDF8FF"/>
<path d="M50.5977 145.13V136.709H42.1762V145.13H50.5977Z" fill="#DDF8FF"/>
<path d="M59.0166 145.147V136.726H50.5951V145.147H59.0166Z" fill="#DDF8FF"/>
<path d="M67.4561 145.13V136.709H59.0346V145.13H67.4561Z" fill="#DDF8FF"/>
<path d="M75.8789 145.147V136.726H67.4574V145.147H75.8789Z" fill="#DDF8FF"/>
<path d="M84.3145 145.13V136.709H75.893V145.13H84.3145Z" fill="#DDF8FF"/>
<path d="M92.7373 145.147V136.726H84.3158V145.147H92.7373Z" fill="#DDF8FF"/>
<path d="M101.177 145.13V136.709H92.7553V145.13H101.177Z" fill="#DDF8FF"/>
<path d="M109.596 145.13V136.709H101.174V145.13H109.596Z" fill="#DDF8FF"/>
<path d="M118.035 145.13V136.709H109.614V145.13H118.035Z" fill="#DDF8FF"/>
<path d="M126.475 145.13V136.709H118.053V145.13H126.475Z" fill="#DDF8FF"/>
<path d="M134.897 145.13V136.709H126.476V145.13H134.897Z" fill="#DDF8FF"/>
<path d="M143.333 145.13V136.709H134.912V145.13H143.333Z" fill="#DDF8FF"/>
<path d="M151.756 145.13V136.709H143.334V145.13H151.756Z" fill="#DDF8FF"/>
<path d="M159.414 153.484H167.836V145.063H159.414V153.484Z" fill="#DDF8FF"/>
<path d="M150.993 153.484H159.414V145.063H150.993V153.484Z" fill="#DDF8FF"/>
<path d="M167.785 153.484H176.206V145.063H167.785V153.484Z" fill="#DDF8FF"/>
<path d="M25.2969 153.467V145.046H16.8754V153.467H25.2969Z" fill="#DDF8FF"/>
<path d="M33.7354 153.467V145.046H25.3139V153.467H33.7354Z" fill="#DDF8FF"/>
<path d="M42.1582 153.467V145.046H33.7367V153.467H42.1582Z" fill="#DDF8FF"/>
<path d="M50.5977 153.467V145.046H42.1762V153.467H50.5977Z" fill="#DDF8FF"/>
<path d="M59.0166 153.484V145.062H50.5951V153.484H59.0166Z" fill="#DDF8FF"/>
<path d="M67.4561 153.467V145.046H59.0346V153.467H67.4561Z" fill="#DDF8FF"/>
<path d="M75.8789 153.484V145.062H67.4574V153.484H75.8789Z" fill="#DDF8FF"/>
<path d="M84.3145 153.467V145.046H75.893V153.467H84.3145Z" fill="#DDF8FF"/>
<path d="M92.7373 153.484V145.062H84.3158V153.484H92.7373Z" fill="#DDF8FF"/>
<path d="M101.177 153.467V145.046H92.7553V153.467H101.177Z" fill="#DDF8FF"/>
<path d="M109.596 153.467V145.046H101.174V153.467H109.596Z" fill="#DDF8FF"/>
<path d="M118.035 153.467V145.046H109.614V153.467H118.035Z" fill="#DDF8FF"/>
<path d="M126.475 153.467V145.046H118.053V153.467H126.475Z" fill="#DDF8FF"/>
<path d="M134.897 153.467V145.046H126.476V153.467H134.897Z" fill="#DDF8FF"/>
<path d="M143.333 153.467V145.046H134.912V153.467H143.333Z" fill="#DDF8FF"/>
<path d="M151.756 153.467V145.046H143.334V153.467H151.756Z" fill="#DDF8FF"/>
<path d="M159.414 161.821H167.836V153.4H159.414V161.821Z" fill="#DDF8FF"/>
<path d="M150.993 161.821H159.414V153.4H150.993V161.821Z" fill="#DDF8FF"/>
<path d="M33.7354 161.804V153.383H25.3139V161.804H33.7354Z" fill="#DDF8FF"/>
<path d="M42.1582 161.804V153.383H33.7367V161.804H42.1582Z" fill="#DDF8FF"/>
<path d="M50.5977 161.804V153.383H42.1762V161.804H50.5977Z" fill="#DDF8FF"/>
<path d="M59.0166 161.821V153.399H50.5951V161.821H59.0166Z" fill="#DDF8FF"/>
<path d="M67.4561 161.804V153.383H59.0346V161.804H67.4561Z" fill="#DDF8FF"/>
<path d="M75.8789 161.821V153.399H67.4574V161.821H75.8789Z" fill="#DDF8FF"/>
<path d="M84.3145 161.804V153.383H75.893V161.804H84.3145Z" fill="#DDF8FF"/>
<path d="M92.7373 161.804V153.383H84.3158V161.804H92.7373Z" fill="#DDF8FF"/>
<path d="M101.177 161.804V153.383H92.7553V161.804H101.177Z" fill="#DDF8FF"/>
<path d="M109.596 161.804V153.383H101.174V161.804H109.596Z" fill="#DDF8FF"/>
<path d="M118.035 161.804V153.383H109.614V161.804H118.035Z" fill="#DDF8FF"/>
<path d="M126.475 161.804V153.383H118.053V161.804H126.475Z" fill="#DDF8FF"/>
<path d="M134.897 161.804V153.383H126.476V161.804H134.897Z" fill="#DDF8FF"/>
<path d="M143.333 161.804V153.383H134.912V161.804H143.333Z" fill="#DDF8FF"/>
<path d="M151.756 161.804V153.383H143.334V161.804H151.756Z" fill="#DDF8FF"/>
<path d="M150.993 170.157H159.414V161.736H150.993V170.157Z" fill="#DDF8FF"/>
<path d="M42.1582 170.14V161.719H33.7367V170.14H42.1582Z" fill="#DDF8FF"/>
<path d="M50.5977 170.14V161.719H42.1762V170.14H50.5977Z" fill="#DDF8FF"/>
<path d="M59.0166 170.158V161.736H50.5951V170.158H59.0166Z" fill="#DDF8FF"/>
<path d="M67.4561 170.14V161.719H59.0346V170.14H67.4561Z" fill="#DDF8FF"/>
<path d="M75.8789 170.158V161.736H67.4574V170.158H75.8789Z" fill="#DDF8FF"/>
<path d="M84.3145 170.14V161.719H75.893V170.14H84.3145Z" fill="#DDF8FF"/>
<path d="M92.7373 170.14V161.719H84.3158V170.14H92.7373Z" fill="#DDF8FF"/>
<path d="M101.177 170.14V161.719H92.7553V170.14H101.177Z" fill="#DDF8FF"/>
<path d="M109.596 170.14V161.719H101.174V170.14H109.596Z" fill="#DDF8FF"/>
<path d="M118.035 170.14V161.719H109.614V170.14H118.035Z" fill="#DDF8FF"/>
<path d="M126.458 170.14V161.719H118.037V170.14H126.458Z" fill="#DDF8FF"/>
<path d="M134.897 170.14V161.719H126.476V170.14H134.897Z" fill="#DDF8FF"/>
<path d="M143.333 170.14V161.719H134.912V170.14H143.333Z" fill="#DDF8FF"/>
<path d="M151.756 170.14V161.719H143.334V170.14H151.756Z" fill="#DDF8FF"/>
<path d="M159.414 168.972H167.836V160.55H159.414V168.972Z" fill="black"/>
<path d="M167.785 160.55H176.206V152.128H167.785V160.55Z" fill="black"/>
<path d="M176.191 152.111H184.612V143.69H176.191V152.111Z" fill="black"/>
<path d="M184.577 143.673H192.998V135.251H184.577V143.673Z" fill="black"/>
<path d="M184.577 135.234H192.998V126.813H184.577V135.234Z" fill="black"/>
<path d="M184.577 126.779H192.998V118.358H184.577V126.779Z" fill="black"/>
<path d="M184.577 118.324H192.998V109.903H184.577V118.324Z" fill="black"/>
<path d="M184.577 109.886H192.998V101.464H184.577V109.886Z" fill="black"/>
<path d="M184.577 101.43H192.998V93.0082H184.577V101.43Z" fill="black"/>
<path d="M184.577 92.9922H192.998V84.5707H184.577V92.9922Z" fill="black"/>
<path d="M184.577 84.5371H192.998V76.1156H184.577V84.5371Z" fill="black"/>
<path d="M184.577 76.0811H192.998V67.6596H184.577V76.0811Z" fill="black"/>
<path d="M184.577 67.6426H192.998V59.2211H184.577V67.6426Z" fill="black"/>
<path d="M184.577 59.1875H192.998V50.766H184.577V59.1875Z" fill="black"/>
<path d="M0.000414848 143.673H8.42188L8.42188 135.251H0.000414848L0.000414848 143.673Z" fill="black"/>
<path d="M0.000414848 135.234H8.42188L8.42188 126.813H0.000414848L0.000414848 135.234Z" fill="black"/>
<path d="M0.000414848 126.779H8.42188L8.42188 118.358H0.000414848L0.000414848 126.779Z" fill="black"/>
<path d="M0.000414848 118.324H8.42188L8.42188 109.903H0.000414848L0.000414848 118.324Z" fill="black"/>
<path d="M0.000414848 109.886H8.42188L8.42188 101.464H0.000414848L0.000414848 109.886Z" fill="black"/>
<path d="M0.000414848 101.43H8.42188L8.42188 93.0082H0.000414848L0.000414848 101.43Z" fill="black"/>
<path d="M0.000414848 92.9922H8.42188L8.42188 84.5707H0.000414848L0.000414848 92.9922Z" fill="black"/>
<path d="M0.000414848 84.5371H8.42188L8.42188 76.1156H0.000414848L0.000414848 84.5371Z" fill="black"/>
<path d="M0.000414848 76.0811H8.42188L8.42188 67.6596H0.000414848L0.000414848 76.0811Z" fill="black"/>
<path d="M0.000414848 67.6426H8.42188L8.42188 59.2211H0.000414848L0.000414848 67.6426Z" fill="black"/>
<path d="M0.000414848 59.1875H8.42188L8.42188 50.766H0.000414848L0.000414848 59.1875Z" fill="black"/>
<path d="M8.42188 143.69V152.111H16.8433V143.69H8.42188Z" fill="black"/>
<path d="M16.8604 152.128V160.55H25.2818V152.128H16.8604Z" fill="black"/>
<path d="M25.2969 160.567V168.988H33.7183V160.567H25.2969Z" fill="black"/>
<path d="M159.414 25.2988H167.836V16.8774H159.414V25.2988Z" fill="black"/>
<path d="M150.993 16.8604H159.414V8.43889L150.993 8.43889V16.8604Z" fill="black"/>
<path d="M167.785 33.7197H176.206V25.2983H167.785V33.7197Z" fill="black"/>
<path d="M176.191 42.1582H184.612V33.7367H176.191V42.1582Z" fill="black"/>
<path d="M184.577 50.5967H192.998V42.1752H184.577V50.5967Z" fill="black"/>
<path d="M8.43848 51.1219V42.1582H0.0170164V51.1219H8.43848Z" fill="black"/>
<path d="M16.8604 42.1588V33.7373H8.43889V42.1588H16.8604Z" fill="black"/>
<path d="M25.2969 33.7027V25.2812H16.8754V33.7027H25.2969Z" fill="black"/>
<path d="M33.6699 25.2135V16.792H25.2485V25.2135H33.6699Z" fill="black"/>
<path d="M42.1582 16.8433V8.42188H33.7367V16.8433H42.1582Z" fill="black"/>
<path d="M50.5781 8.42146V0L42.1567 0V8.42146H50.5781Z" fill="black"/>
<path d="M59.0166 8.42146V0L50.5951 0V8.42146H59.0166Z" fill="black"/>
<path d="M67.4561 8.42146V0L59.0346 0V8.42146H67.4561Z" fill="black"/>
<path d="M75.8789 8.42146V0L67.4574 0V8.42146H75.8789Z" fill="black"/>
<path d="M84.3145 8.42146V0L75.893 0V8.42146H84.3145Z" fill="black"/>
<path d="M92.7373 8.42146V0L84.3158 0V8.42146H92.7373Z" fill="black"/>
<path d="M101.177 8.42146V0L92.7553 0V8.42146H101.177Z" fill="black"/>
<path d="M109.596 8.42146V0L101.174 0V8.42146H109.596Z" fill="black"/>
<path d="M118.035 8.42146V0L109.614 0V8.42146H118.035Z" fill="black"/>
<path d="M126.458 8.42145V0L118.037 0V8.42145H126.458Z" fill="black"/>
<path d="M134.897 8.42146V0L126.476 0V8.42146H134.897Z" fill="black"/>
<path d="M143.316 8.42146V0L134.895 0V8.42146H143.316Z" fill="black"/>
<path d="M151.756 8.42146V0L143.334 0V8.42146H151.756Z" fill="black"/>
<path d="M67.3532 168.802H58.8809V177.274H67.3532V168.802Z" fill="black"/>
<path d="M42.0231 143.386H33.5508V151.858H42.0231V143.386Z" fill="black"/>
<path d="M42.0231 100.973H33.5508V109.445H42.0231V100.973Z" fill="black"/>
<path d="M50.442 100.973H41.9697V109.445H50.442V100.973Z" fill="black"/>
<path d="M58.8649 100.973H50.3926V109.445H58.8649V100.973Z" fill="#4C3510"/>
<path d="M67.2877 92.4834H58.8154V100.956H67.2877V92.4834Z" fill="black"/>
<path d="M75.7262 100.973H67.2539V109.445H75.7262V100.973Z" fill="black"/>
<path d="M84.1461 100.973H75.6738V109.445H84.1461V100.973Z" fill="#4C3510"/>
<path d="M92.569 92.4834H84.0967V100.956H92.569V92.4834Z" fill="black"/>
<path d="M109.411 92.4834H100.938V100.956H109.411V92.4834Z" fill="black"/>
<path d="M117.834 92.4834H109.361V100.956H117.834V92.4834Z" fill="black"/>
<path d="M134.675 92.4834H126.203V100.956H134.675V92.4834Z" fill="#239686"/>
<path d="M143.098 143.386H134.626V151.858H143.098V143.386Z" fill="black"/>
<path d="M151.517 134.896H143.045V143.368H151.517V134.896Z" fill="black"/>
<path d="M151.517 109.445H143.045V117.918H151.517V109.445Z" fill="#29B9AE"/>
<path d="M159.94 134.896H151.468V143.368H159.94V134.896Z" fill="black"/>
<path d="M159.94 100.973H151.468V109.445H159.94V100.973Z" fill="#29B9AE"/>
<path d="M168.363 134.896H159.891V143.368H168.363V134.896Z" fill="black"/>
<path d="M168.363 92.4834H159.891V100.956H168.363V92.4834Z" fill="#239686"/>
<path d="M50.442 151.84H41.9697V160.312H50.442V151.84Z" fill="black"/>
<path d="M134.675 151.84H126.203V160.312H134.675V151.84Z" fill="black"/>
<path d="M58.8649 160.296H50.3926V168.768H58.8649V160.296Z" fill="black"/>
<path d="M67.2877 160.296H58.8154V168.768H67.2877V160.296Z" fill="black"/>
<path d="M117.834 160.296H109.361V168.768H117.834V160.296Z" fill="black"/>
<path d="M126.253 160.296H117.78V168.768H126.253V160.296Z" fill="black"/>
<path d="M75.7262 168.769H67.2539V177.241H75.7262V168.769Z" fill="black"/>
<path d="M84.1461 168.769H75.6738V177.241H84.1461V168.769Z" fill="black"/>
<path d="M92.569 168.769H84.0967V177.241H92.569V168.769Z" fill="black"/>
<path d="M100.988 168.769H92.5156V177.241H100.988V168.769Z" fill="black"/>
<path d="M109.411 168.769H100.938V177.241H109.411V168.769Z" fill="black"/>
<path d="M117.834 168.769H109.361V177.241H117.834V168.769Z" fill="#F6F2EC"/>
<path d="M126.253 168.769H117.78V177.241H126.253V168.769Z" fill="#F6F2EC"/>
<path d="M134.675 168.769H126.203V177.241H134.675V168.769Z" fill="black"/>
<path d="M151.706 168.769H143.233V177.241H151.706V168.769Z" fill="black"/>
<path opacity="0.3" d="M67.3864 177.207H58.9141V185.679H67.3864V177.207Z" fill="black"/>
<path d="M58.9674 185.679H50.4951V194.151H58.9674V185.679Z" fill="#DAD6D0"/>
<path opacity="0.3" d="M67.3864 185.679H58.9141V194.151H67.3864V185.679Z" fill="black"/>
<path d="M50.5446 194.134H42.0723V202.606H50.5446V194.134Z" fill="#F6F2EC"/>
<path d="M58.9674 194.134H50.4951V202.606H58.9674V194.134Z" fill="#DAD6D0"/>
<path d="M67.3864 194.134H58.9141V202.606H67.3864V194.134Z" fill="black"/>
<path d="M42.1256 202.606H33.6533V211.079H42.1256V202.606Z" fill="#F6F2EC"/>
<path d="M50.5446 185.747H42.0723V194.219H50.5446V185.747Z" fill="#F6F2EC"/>
<path d="M58.9674 177.257H50.4951V185.729H58.9674V177.257Z" fill="#DAD6D0"/>
<path d="M50.5446 177.343H42.0723V185.815H50.5446V177.343Z" fill="black"/>
<path d="M42.1256 185.797H33.6533V193.998H42.1256V185.797Z" fill="black"/>
<path d="M50.5446 202.606H42.0723V211.079H50.5446V202.606Z" fill="#DAD6D0"/>
<path d="M58.9674 202.606H50.4951V211.079H58.9674V202.606Z" fill="black"/>
<path d="M42.1256 211.062H33.6533V219.534H42.1256V211.062Z" fill="#DAD6D0"/>
<path d="M42.1256 219.534H33.6533V228.006H42.1256V219.534Z" fill="black"/>
<path d="M33.8551 202.606H25.3828V211.079H33.8551V202.606Z" fill="#F6F2EC"/>
<path d="M33.8551 194.134H25.3828V202.606H33.8551V194.134Z" fill="black"/>
<path d="M33.8551 211.062H25.3828V219.534H33.8551V211.062Z" fill="#F6F2EC"/>
<path d="M33.8551 219.534H25.3828V228.006H33.8551V219.534Z" fill="black"/>
<path d="M25.5846 202.606H17.1123V211.079H25.5846V202.606Z" fill="black"/>
<path d="M25.5846 211.062H17.1123V219.534H25.5846V211.062Z" fill="black"/>
<path d="M50.5446 211.062H42.0723V219.534H50.5446V211.062Z" fill="black"/>
<path d="M67.2877 177.224H58.8154V185.696H67.2877V177.224Z" fill="black"/>
<path d="M75.7262 177.224H67.2539V185.696H75.7262V177.224Z" fill="#DAD6D0"/>
<path d="M84.1461 177.224H75.6738V185.696H84.1461V177.224Z" fill="#DAD6D0"/>
<path d="M92.569 177.224H84.0967V185.696H92.569V177.224Z" fill="#DAD6D0"/>
<path d="M100.988 177.224H92.5156V185.696H100.988V177.224Z" fill="#DAD6D0"/>
<path d="M109.411 177.224H100.938V185.696H109.411V177.224Z" fill="#DAD6D0"/>
<path d="M117.834 177.224H109.361V185.696H117.834V177.224Z" fill="#DAD6D0"/>
<path d="M126.253 177.224H117.78V185.696H126.253V177.224Z" fill="#DAD6D0"/>
<path d="M134.675 177.224H126.203V185.696H134.675V177.224Z" fill="black"/>
<path d="M67.2877 185.679H58.8154V194.151H67.2877V185.679Z" fill="black"/>
<path d="M67.2545 185.679H58.7822V194.151H67.2545V185.679Z" fill="black"/>
<path d="M75.7262 185.679H67.2539V194.151H75.7262V185.679Z" fill="#F6F2EC"/>
<path d="M84.1461 185.679H75.6738V194.151H84.1461V185.679Z" fill="#F6F2EC"/>
<path d="M92.569 185.679H84.0967V194.151H92.569V185.679Z" fill="#F6F2EC"/>
<path d="M100.988 185.679H92.5156V194.151H100.988V185.679Z" fill="#F6F2EC"/>
<path d="M109.411 185.679H100.938V194.151H109.411V185.679Z" fill="#F6F2EC"/>
<path opacity="0.3" d="M117.834 185.679H109.361V194.151H117.834V185.679Z" fill="black"/>
<path d="M126.253 185.679H117.78V194.151H126.253V185.679Z" fill="#F6F2EC"/>
<path d="M134.675 185.679H126.203V194.151H134.675V185.679Z" fill="#DAD6D0"/>
<path opacity="0.3" d="M67.2545 194.151H58.7822V202.624H67.2545V194.151Z" fill="black"/>
<path d="M75.7262 194.134H67.2539V202.606H75.7262V194.134Z" fill="#DAD6D0"/>
<path d="M84.1461 194.134H75.6738V202.606H84.1461V194.134Z" fill="#DAD6D0"/>
<path d="M92.569 194.134H84.0967V202.606H92.569V194.134Z" fill="#DAD6D0"/>
<path d="M100.988 194.134H92.5156V202.606H100.988V194.134Z" fill="#DAD6D0"/>
<path d="M109.411 194.134H100.938V202.606H109.411V194.134Z" fill="#DAD6D0"/>
<path d="M117.932 185.645H109.46V194.117H117.932V185.645Z" fill="black"/>
<path d="M143.197 185.645H134.725V194.117H143.197V185.645Z" fill="black"/>
<path opacity="0.3" d="M67.2545 202.606H58.7822V211.079H67.2545V202.606Z" fill="black"/>
<path d="M75.7262 202.606H67.2539V211.079H75.7262V202.606Z" fill="#F6F2EC"/>
<path d="M84.1461 202.606H75.6738V211.079H84.1461V202.606Z" fill="#FB7844"/>
<path d="M92.569 202.606H84.0967V211.079H92.569V202.606Z" fill="#FB7844"/>
<path d="M100.988 202.606H92.5156V211.079H100.988V202.606Z" fill="#FB7844"/>
<path d="M109.411 202.606H100.938V211.079H109.411V202.606Z" fill="#F6F2EC"/>
<path d="M117.932 194.1H109.46V202.572H117.932V194.1Z" fill="black"/>
<path d="M126.355 194.1H117.883V202.572H126.355V194.1Z" fill="#F6F2EC"/>
<path d="M134.778 194.1H126.306V202.572H134.778V194.1Z" fill="#DAD6D0"/>
<path d="M143.197 194.1H134.725V202.572H143.197V194.1Z" fill="black"/>
<path d="M67.2545 211.078H58.7822V219.55H67.2545V211.078Z" fill="#FDEAE0"/>
<path d="M75.7262 211.062H67.2539V219.534H75.7262V211.062Z" fill="#F6F2EC"/>
<path d="M84.1461 211.062H75.6738V219.534H84.1461V211.062Z" fill="#F6F2EC"/>
<path d="M92.569 211.062H84.0967V219.534H92.569V211.062Z" fill="#F6F2EC"/>
<path d="M100.988 211.062H92.5156V219.534H100.988V211.062Z" fill="#F6F2EC"/>
<path d="M109.411 211.062H100.938V219.534H109.411V211.062Z" fill="black"/>
<path d="M117.932 202.572H109.46V211.045H117.932V202.572Z" fill="black"/>
<path d="M126.355 202.572H117.883V211.045H126.355V202.572Z" fill="#F6F2EC"/>
<path d="M134.778 202.572H126.306V211.045H134.778V202.572Z" fill="#DAD6D0"/>
<path d="M143.197 202.572H134.725V211.045H143.197V202.572Z" fill="black"/>
<path d="M75.7067 219.534H67.2344V228.006H75.7067V219.534Z" fill="#FDEAE0"/>
<path d="M84.1627 219.534H75.6904V228.006H84.1627V219.534Z" fill="#F6F2EC"/>
<path d="M92.5856 219.534H84.1133V228.006H92.5856V219.534Z" fill="#F6F2EC"/>
<path d="M92.5856 227.989H84.1133V236.462H92.5856V227.989Z" fill="black"/>
<path d="M101.007 219.534H92.5352V228.006H101.007V219.534Z" fill="#DAD6D0"/>
<path d="M109.427 219.534H100.955V228.006H109.427V219.534Z" fill="black"/>
<path d="M117.85 219.534H109.378V228.006H117.85V219.534Z" fill="black"/>
<path d="M117.932 211.028H109.46V219.501H117.932V211.028Z" fill="#F6F2EC"/>
<path d="M126.355 211.028H117.883V219.501H126.355V211.028Z" fill="#F6F2EC"/>
<path d="M134.778 211.028H126.306V219.501H134.778V211.028Z" fill="#DAD6D0"/>
<path d="M143.197 211.028H134.725V219.501H143.197V211.028Z" fill="black"/>
<path d="M75.7067 228.007H67.2344V236.479H75.7067V228.007Z" fill="black"/>
<path d="M84.1627 227.989H75.6904V236.462H84.1627V227.989Z" fill="black"/>
<path d="M67.2877 194.134H58.8154V202.606H67.2877V194.134Z" fill="black"/>
<path d="M67.2877 202.606H58.8154V211.079H67.2877V202.606Z" fill="black"/>
<path d="M67.2545 211.062H58.7822V219.534H67.2545V211.062Z" fill="black"/>
<path d="M75.7067 219.534H67.2344V228.006H75.7067V219.534Z" fill="#F6F2EC"/>
<path d="M75.7067 227.989H67.2344V236.462H75.7067V227.989Z" fill="#F6F2EC"/>
<path d="M101.007 227.989H92.5352V236.462H101.007V227.989Z" fill="#DAD6D0"/>
<path d="M109.427 227.989H100.955V236.462H109.427V227.989Z" fill="#F6F2EC"/>
<path d="M117.85 227.989H109.378V236.462H117.85V227.989Z" fill="black"/>
<path d="M117.932 219.482H109.46V227.955H117.932V219.482Z" fill="#F6F2EC"/>
<path d="M126.355 219.482H117.883V227.955H126.355V219.482Z" fill="#F6F2EC"/>
<path d="M134.778 219.482H126.306V227.955H134.778V219.482Z" fill="#DAD6D0"/>
<path d="M143.197 219.482H134.725V227.955H143.197V219.482Z" fill="black"/>
<path d="M75.7067 236.445H67.2344V244.918H75.7067V236.445Z" fill="#F6F2EC"/>
<path d="M84.1627 236.445H75.6904V244.918H84.1627V236.445Z" fill="black"/>
<path d="M117.932 227.955H109.46V236.427H117.932V227.955Z" fill="black"/>
<path d="M126.355 227.955H117.883V236.427H126.355V227.955Z" fill="black"/>
<path d="M134.778 227.955H126.306V236.427H134.778V227.955Z" fill="black"/>
<path d="M75.7067 244.917H67.2344V253.389H75.7067V244.917Z" fill="#DAD6D0"/>
<path d="M84.1627 244.917H75.6904V253.389H84.1627V244.917Z" fill="black"/>
<path d="M67.3698 219.534H58.8975V228.006H67.3698V219.534Z" fill="#FDEAE0"/>
<path d="M67.3698 228.007H58.8975V236.479H67.3698V228.007Z" fill="black"/>
<path d="M67.3698 219.534H58.8975V228.006H67.3698V219.534Z" fill="#76A8AC"/>
<path d="M67.3698 227.989H58.8975V236.462H67.3698V227.989Z" fill="#F6F2EC"/>
<path d="M67.3698 236.445H58.8975V244.918H67.3698V236.445Z" fill="#F6F2EC"/>
<path d="M67.3698 244.917H58.8975V253.389H67.3698V244.917Z" fill="#DAD6D0"/>
<path d="M58.9147 236.445H50.4424V244.918H58.9147V236.445Z" fill="black"/>
<path d="M58.9147 244.917H50.4424V253.389H58.9147V244.917Z" fill="#DAD6D0"/>
<path d="M67.3043 219.551H58.832V228.023H67.3043V219.551Z" fill="black"/>
<path d="M58.9147 228.007H50.4424V236.479H58.9147V228.007Z" fill="black"/>
<path d="M50.4782 244.917H42.0059V253.389H50.4782V244.917Z" fill="black"/>
<path d="M84.1627 253.372H75.6904V261.844H84.1627V253.372Z" fill="black"/>
<path d="M67.3209 253.372H58.8486V261.844H67.3209V253.372Z" fill="black"/>
<path d="M75.7428 253.372H67.2705V261.844H75.7428V253.372Z" fill="black"/>
<path d="M58.8815 253.372H50.4092V261.844H58.8815V253.372Z" fill="black"/>
<path d="M50.442 253.372H41.9697V261.844H50.442V253.372Z" fill="black"/>
<path d="M50.442 126.407H41.9697V134.88H50.442V126.407Z" fill="#494442"/>
<path d="M50.442 117.935H41.9697V126.407H50.442V117.935Z" fill="#494442"/>
<path d="M50.442 109.445H41.9697V117.918H50.442V109.445Z" fill="black"/>
<path d="M58.8649 126.407H50.3926V134.88H58.8649V126.407Z" fill="white"/>
<path d="M58.8649 117.935H50.3926V126.407H58.8649V117.935Z" fill="white"/>
<path d="M58.8649 109.445H50.3926V117.918H58.8649V109.445Z" fill="#D2C8C4"/>
<path d="M75.7262 134.896H67.2539V143.368H75.7262V134.896Z" fill="#E1CCC2"/>
<path d="M75.7262 126.407H67.2539V134.88H75.7262V126.407Z" fill="#E1CCC2"/>
<path d="M84.1461 134.896H75.6738V143.368H84.1461V134.896Z" fill="#E1CCC2"/>
<path d="M109.411 126.407H100.938V134.88H109.411V126.407Z" fill="#494442"/>
<path d="M109.411 117.935H100.938V126.407H109.411V117.935Z" fill="#494442"/>
<path d="M109.411 109.445H100.938V117.918H109.411V109.445Z" fill="#494442"/>
<path d="M109.411 100.973H100.938V109.445H109.411V100.973Z" fill="black"/>
<path d="M117.834 126.407H109.361V134.88H117.834V126.407Z" fill="white"/>
<path d="M117.834 117.935H109.361V126.407H117.834V117.935Z" fill="white"/>
<path d="M117.834 109.445H109.361V117.918H117.834V109.445Z" fill="white"/>
<path d="M117.834 100.973H109.361V109.445H117.834V100.973Z" fill="#D2C8C4"/>
<path d="M126.253 117.935H117.78V126.407H126.253V117.935Z" fill="#FDEAE0"/>
<path d="M126.253 109.445H117.78V117.918H126.253V109.445Z" fill="#FDEAE0"/>
<path d="M159.94 109.445H151.468V117.918H159.94V109.445Z" fill="#29B9AE"/>
<path d="M84.1461 151.84H75.6738V160.312H84.1461V151.84Z" fill="#494442"/>
<path d="M92.569 151.84H84.0967V160.312H92.569V151.84Z" fill="#494442"/>
<path d="M42.0231 134.896H33.5508V143.368H42.0231V134.896Z" fill="#FDEAE0"/>
<path d="M42.0231 126.407H33.5508V134.88H42.0231V126.407Z" fill="#FDEAE0"/>
<path d="M42.0231 117.935H33.5508V126.407H42.0231V117.935Z" fill="#FDEAE0"/>
<path d="M42.0231 109.445H33.5508V117.918H42.0231V109.445Z" fill="#EED6CA"/>
<path d="M50.442 143.386H41.9697V151.858H50.442V143.386Z" fill="#FDEAE0"/>
<path d="M50.442 134.896H41.9697V143.368H50.442V134.896Z" fill="#FDEAE0"/>
<path d="M58.8649 143.386H50.3926V151.858H58.8649V143.386Z" fill="#FDEAE0"/>
<path d="M58.8649 134.896H50.3926V143.368H58.8649V134.896Z" fill="#FDEAE0"/>
<path d="M67.2877 143.386H58.8154V151.858H67.2877V143.386Z" fill="#FDEAE0"/>
<path d="M67.2877 134.896H58.8154V143.368H67.2877V134.896Z" fill="#FDEAE0"/>
<path d="M67.2877 126.407H58.8154V134.88H67.2877V126.407Z" fill="#FDEAE0"/>
<path d="M67.2877 117.935H58.8154V126.407H67.2877V117.935Z" fill="#FDEAE0"/>
<path d="M67.2877 109.445H58.8154V117.918H67.2877V109.445Z" fill="#FDEAE0"/>
<path d="M67.2877 100.973H58.8154V109.445H67.2877V100.973Z" fill="#EED6CA"/>
<path d="M75.7262 143.386H67.2539V151.858H75.7262V143.386Z" fill="#FDEAE0"/>
<path d="M75.7262 117.935H67.2539V126.407H75.7262V117.935Z" fill="black"/>
<path d="M75.7262 109.445H67.2539V117.918H75.7262V109.445Z" fill="#FDEAE0"/>
<path d="M84.1461 143.386H75.6738V151.858H84.1461V143.386Z" fill="#FDEAE0"/>
<path d="M84.1461 126.407H75.6738V134.88H84.1461V126.407Z" fill="#FDEAE0"/>
<path d="M84.1461 117.935H75.6738V126.407H84.1461V117.935Z" fill="black"/>
<path d="M84.1461 109.445H75.6738V117.918H84.1461V109.445Z" fill="#FDEAE0"/>
<path d="M92.569 143.386H84.0967V151.858H92.569V143.386Z" fill="#FDEAE0"/>
<path d="M92.569 134.896H84.0967V143.368H92.569V134.896Z" fill="#FDEAE0"/>
<path d="M92.569 126.407H84.0967V134.88H92.569V126.407Z" fill="#FDEAE0"/>
<path d="M92.569 117.935H84.0967V126.407H92.569V117.935Z" fill="#FDEAE0"/>
<path d="M92.569 109.445H84.0967V117.918H92.569V109.445Z" fill="#FDEAE0"/>
<path d="M92.569 100.973H84.0967V109.445H92.569V100.973Z" fill="#EED6CA"/>
<path d="M100.988 143.386H92.5156V151.858H100.988V143.386Z" fill="#FDEAE0"/>
<path d="M100.988 134.896H92.5156V143.368H100.988V134.896Z" fill="#FDEAE0"/>
<path d="M100.988 126.407H92.5156V134.88H100.988V126.407Z" fill="#FDEAE0"/>
<path d="M100.988 117.935H92.5156V126.407H100.988V117.935Z" fill="#FDEAE0"/>
<path d="M100.988 109.445H92.5156V117.918H100.988V109.445Z" fill="#FDEAE0"/>
<path d="M100.988 100.973H92.5156V109.445H100.988V100.973Z" fill="#FDEAE0"/>
<path d="M109.411 143.386H100.938V151.858H109.411V143.386Z" fill="#FDEAE0"/>
<path d="M109.411 134.896H100.938V143.368H109.411V134.896Z" fill="#FDEAE0"/>
<path d="M117.834 143.386H109.361V151.858H117.834V143.386Z" fill="#FDEAE0"/>
<path d="M117.834 134.896H109.361V143.368H117.834V134.896Z" fill="#FDEAE0"/>
<path d="M126.253 143.386H117.78V151.858H126.253V143.386Z" fill="#FDEAE0"/>
<path d="M126.253 134.896H117.78V143.368H126.253V134.896Z" fill="#FDEAE0"/>
<path d="M126.253 126.407H117.78V134.88H126.253V126.407Z" fill="#FDEAE0"/>
<path d="M134.675 143.386H126.203V151.858H134.675V143.386Z" fill="#EED6CA"/>
<path d="M134.675 134.896H126.203V143.368H134.675V134.896Z" fill="#FDEAE0"/>
<path d="M134.675 126.407H126.203V134.88H134.675V126.407Z" fill="#FDEAE0"/>
<path d="M134.675 117.935H126.203V126.407H134.675V117.935Z" fill="black"/>
<path d="M134.675 109.445H126.203V117.918H134.675V109.445Z" fill="black"/>
<path d="M134.675 100.973H126.203V109.445H134.675V100.973Z" fill="black"/>
<path d="M143.098 134.896H134.626V143.368H143.098V134.896Z" fill="#EED6CA"/>
<path d="M143.098 126.407H134.626V134.88H143.098V126.407Z" fill="#FDEAE0"/>
<path d="M143.098 117.935H134.626V126.407H143.098V117.935Z" fill="black"/>
<path d="M143.098 109.445H134.626V117.918H143.098V109.445Z" fill="#29B9AE"/>
<path d="M151.517 126.407H143.045V134.88H151.517V126.407Z" fill="black"/>
<path d="M151.517 117.935H143.045V126.407H151.517V117.935Z" fill="#239686"/>
<path d="M159.94 126.407H151.468V134.88H159.94V126.407Z" fill="black"/>
<path d="M168.363 126.407H159.891V134.88H168.363V126.407Z" fill="#FDEAE0"/>
<path d="M168.363 117.935H159.891V126.407H168.363V117.935Z" fill="black"/>
<path d="M168.363 109.445H159.891V117.918H168.363V109.445Z" fill="#239686"/>
<path d="M168.363 100.973H159.891V109.445H168.363V100.973Z" fill="#239686"/>
<path d="M58.8649 151.84H50.3926V160.312H58.8649V151.84Z" fill="#FDEAE0"/>
<path d="M67.2877 151.84H58.8154V160.312H67.2877V151.84Z" fill="#FDEAE0"/>
<path d="M75.7262 151.84H67.2539V160.312H75.7262V151.84Z" fill="#FDEAE0"/>
<path d="M100.988 151.84H92.5156V160.312H100.988V151.84Z" fill="#FDEAE0"/>
<path d="M109.411 151.84H100.938V160.312H109.411V151.84Z" fill="#FDEAE0"/>
<path d="M117.834 151.84H109.361V160.312H117.834V151.84Z" fill="#EED6CA"/>
<path d="M126.253 151.84H117.78V160.312H126.253V151.84Z" fill="#EED6CA"/>
<path d="M75.7262 160.296H67.2539V168.768H75.7262V160.296Z" fill="#EED6CA"/>
<path d="M84.1461 160.296H75.6738V168.768H84.1461V160.296Z" fill="#EED6CA"/>
<path d="M92.569 160.296H84.0967V168.768H92.569V160.296Z" fill="#EED6CA"/>
<path d="M100.988 160.296H92.5156V168.768H100.988V160.296Z" fill="#EED6CA"/>
<path d="M109.411 160.296H100.938V168.768H109.411V160.296Z" fill="#EED6CA"/>
<path d="M33.6002 126.407H25.1279V134.88H33.6002V126.407Z" fill="black"/>
<path d="M33.6002 117.935H25.1279V126.407H33.6002V117.935Z" fill="black"/>
<path d="M33.6002 109.445H25.1279V117.918H33.6002V109.445Z" fill="black"/>
<path d="M33.6002 100.973H25.1279V109.445H33.6002V100.973Z" fill="#4C3510"/>
<path d="M33.6002 92.4834H25.1279V100.956H33.6002V92.4834Z" fill="black"/>
<path d="M25.1969 92.4834H16.7246V100.956H25.1969V92.4834Z" fill="black"/>
<path d="M100.988 92.4834H92.5156V100.956H100.988V92.4834Z" fill="black"/>
<path d="M42.0231 92.4834H33.5508V100.956H42.0231V92.4834Z" fill="black"/>
<path d="M42.0231 33.1094H33.5508V41.5817H42.0231V33.1094Z" fill="black"/>
<path d="M50.442 92.4834H41.9697V100.956H50.442V92.4834Z" fill="black"/>
<path d="M50.442 24.6377H41.9697V33.11H50.442V24.6377Z" fill="black"/>
<path d="M58.8649 92.4834H50.3926V100.956H58.8649V92.4834Z" fill="black"/>
<path d="M58.8649 16.1475H50.3926V24.6198H58.8649V16.1475Z" fill="black"/>
<path d="M67.2877 16.1475H58.8154V24.6198H67.2877V16.1475Z" fill="black"/>
<path d="M75.7262 92.4834H67.2539V100.956H75.7262V92.4834Z" fill="black"/>
<path d="M75.7262 16.1475H67.2539V24.6198H75.7262V16.1475Z" fill="black"/>
<path d="M84.1461 92.4834H75.6738V100.956H84.1461V92.4834Z" fill="black"/>
<path d="M84.1461 16.1475H75.6738V24.6198H84.1461V16.1475Z" fill="black"/>
<path d="M92.569 16.1475H84.0967V24.6198H92.569V16.1475Z" fill="black"/>
<path d="M100.988 16.1475H92.5156V24.6198H100.988V16.1475Z" fill="black"/>
<path d="M109.411 16.1475H100.938V24.6198H109.411V16.1475Z" fill="black"/>
<path d="M117.834 16.1475H109.361V24.6198H117.834V16.1475Z" fill="black"/>
<path d="M126.253 92.4834H117.78V100.956H126.253V92.4834Z" fill="black"/>
<path d="M126.253 16.1475H117.78V24.6198H126.253V16.1475Z" fill="black"/>
<path d="M134.675 16.1475H126.203V24.6198H134.675V16.1475Z" fill="black"/>
<path d="M143.098 92.4834H134.626V100.956H143.098V92.4834Z" fill="#29B9AE"/>
<path d="M143.098 16.1475H134.626V24.6198H143.098V16.1475Z" fill="black"/>
<path d="M151.517 100.973H143.045V109.445H151.517V100.973Z" fill="#29B9AE"/>
<path d="M151.517 92.4834H143.045V100.956H151.517V92.4834Z" fill="#29B9AE"/>
<path d="M151.517 24.6377H143.045V33.11H151.517V24.6377Z" fill="black"/>
<path d="M159.94 92.4834H151.468V100.956H159.94V92.4834Z" fill="#29B9AE"/>
<path d="M159.94 33.1094H151.468V41.5817H159.94V33.1094Z" fill="black"/>
<path d="M168.363 41.5986H159.891V50.0709H168.363V41.5986Z" fill="black"/>
<path d="M100.988 84.0117H92.5156V92.484H100.988V84.0117Z" fill="#239686"/>
<path d="M168.363 84.0117H159.891V92.484H168.363V84.0117Z" fill="#239686"/>
<path d="M42.0231 84.0117H33.5508V92.484H42.0231V84.0117Z" fill="#239686"/>
<path d="M42.0231 75.5215H33.5508V83.9938H42.0231V75.5215Z" fill="#29B9AE"/>
<path d="M42.0231 67.0498H33.5508V75.5221H42.0231V67.0498Z" fill="#29B9AE"/>
<path d="M42.0231 58.5605H33.5508V67.0328H42.0231V58.5605Z" fill="#29B9AE"/>
<path d="M42.0231 50.0713H33.5508V58.5436H42.0231V50.0713Z" fill="#29B9AE"/>
<path d="M42.0231 41.5986H33.5508V50.0709H42.0231V41.5986Z" fill="#29B9AE"/>
<path d="M50.442 84.0117H41.9697V92.484H50.442V84.0117Z" fill="#239686"/>
<path d="M50.442 75.5215H41.9697V83.9938H50.442V75.5215Z" fill="#29B9AE"/>
<path d="M50.442 67.0498H41.9697V75.5221H50.442V67.0498Z" fill="#29B9AE"/>
<path d="M50.442 58.5605H41.9697V67.0328H50.442V58.5605Z" fill="#29B9AE"/>
<path d="M50.442 50.0713H41.9697V58.5436H50.442V50.0713Z" fill="#29B9AE"/>
<path d="M50.442 41.5986H41.9697V50.0709H50.442V41.5986Z" fill="#29B9AE"/>
<path d="M50.442 33.1094H41.9697V41.5817H50.442V33.1094Z" fill="#5CD6CA"/>
<path d="M58.8649 84.0117H50.3926V92.484H58.8649V84.0117Z" fill="#239686"/>
<path d="M58.8649 75.5215H50.3926V83.9938H58.8649V75.5215Z" fill="#29B9AE"/>
<path d="M58.8649 67.0498H50.3926V75.5221H58.8649V67.0498Z" fill="white"/>
<path d="M58.8649 58.5605H50.3926V67.0328H58.8649V58.5605Z" fill="white"/>
<path d="M58.8649 50.0713H50.3926V58.5436H58.8649V50.0713Z" fill="white"/>
<path d="M58.8649 41.5986H50.3926V50.0709H58.8649V41.5986Z" fill="#29B9AE"/>
<path d="M58.8649 33.1094H50.3926V41.5817H58.8649V33.1094Z" fill="#29B9AE"/>
<path d="M58.8649 24.6377H50.3926V33.11H58.8649V24.6377Z" fill="#29B9AE"/>
<path d="M67.2877 84.0117H58.8154V92.484H67.2877V84.0117Z" fill="#239686"/>
<path d="M67.2877 75.5215H58.8154V83.9938H67.2877V75.5215Z" fill="white"/>
<path d="M67.2877 67.0498H58.8154V75.5221H67.2877V67.0498Z" fill="white"/>
<path d="M67.2877 58.5605H58.8154V67.0328H67.2877V58.5605Z" fill="white"/>
<path d="M67.2877 50.0713H58.8154V58.5436H67.2877V50.0713Z" fill="white"/>
<path d="M67.2877 41.5986H58.8154V50.0709H67.2877V41.5986Z" fill="white"/>
<path d="M67.2877 33.1094H58.8154V41.5817H67.2877V33.1094Z" fill="#29B9AE"/>
<path d="M67.2877 24.6377H58.8154V33.11H67.2877V24.6377Z" fill="#29B9AE"/>
<path d="M75.7262 84.0117H67.2539V92.484H75.7262V84.0117Z" fill="#239686"/>
<path d="M75.7262 75.5215H67.2539V83.9938H75.7262V75.5215Z" fill="white"/>
<path d="M75.7262 67.0498H67.2539V75.5221H75.7262V67.0498Z" fill="white"/>
<path d="M75.7262 58.5605H67.2539V67.0328H75.7262V58.5605Z" fill="#29B9AE"/>
<path d="M75.7262 50.0713H67.2539V58.5436H75.7262V50.0713Z" fill="white"/>
<path d="M75.7262 41.5986H67.2539V50.0709H75.7262V41.5986Z" fill="white"/>
<path d="M75.7262 33.1094H67.2539V41.5817H75.7262V33.1094Z" fill="#29B9AE"/>
<path d="M75.7262 24.6377H67.2539V33.11H75.7262V24.6377Z" fill="#29B9AE"/>
<path d="M84.1461 84.0117H75.6738V92.484H84.1461V84.0117Z" fill="#239686"/>
<path d="M84.1461 75.5215H75.6738V83.9938H84.1461V75.5215Z" fill="white"/>
<path d="M84.1461 67.0498H75.6738V75.5221H84.1461V67.0498Z" fill="white"/>
<path d="M84.1461 58.5605H75.6738V67.0328H84.1461V58.5605Z" fill="white"/>
<path d="M84.1461 50.0713H75.6738V58.5436H84.1461V50.0713Z" fill="white"/>
<path d="M84.1461 41.5986H75.6738V50.0709H84.1461V41.5986Z" fill="white"/>
<path d="M84.1461 33.1094H75.6738V41.5817H84.1461V33.1094Z" fill="#29B9AE"/>
<path d="M84.1461 24.6377H75.6738V33.11H84.1461V24.6377Z" fill="#29B9AE"/>
<path d="M92.569 84.0117H84.0967V92.484H92.569V84.0117Z" fill="#239686"/>
<path d="M92.569 75.5215H84.0967V83.9938H92.569V75.5215Z" fill="#29B9AE"/>
<path d="M92.569 67.0498H84.0967V75.5221H92.569V67.0498Z" fill="white"/>
<path d="M92.569 58.5605H84.0967V67.0328H92.569V58.5605Z" fill="white"/>
<path d="M92.569 50.0713H84.0967V58.5436H92.569V50.0713Z" fill="white"/>
<path d="M92.569 41.5986H84.0967V50.0709H92.569V41.5986Z" fill="#29B9AE"/>
<path d="M92.569 33.1094H84.0967V41.5817H92.569V33.1094Z" fill="#29B9AE"/>
<path d="M92.569 24.6377H84.0967V33.11H92.569V24.6377Z" fill="#29B9AE"/>
<path d="M100.988 75.5215H92.5156V83.9938H100.988V75.5215Z" fill="#29B9AE"/>
<path d="M100.988 67.0498H92.5156V75.5221H100.988V67.0498Z" fill="#29B9AE"/>
<path d="M100.988 58.5605H92.5156V67.0328H100.988V58.5605Z" fill="#29B9AE"/>
<path d="M100.988 50.0713H92.5156V58.5436H100.988V50.0713Z" fill="#29B9AE"/>
<path d="M100.988 41.5986H92.5156V50.0709H100.988V41.5986Z" fill="#29B9AE"/>
<path d="M100.988 33.1094H92.5156V41.5817H100.988V33.1094Z" fill="#29B9AE"/>
<path d="M100.988 24.6377H92.5156V33.11H100.988V24.6377Z" fill="#29B9AE"/>
<path d="M109.411 84.0117H100.938V92.484H109.411V84.0117Z" fill="#239686"/>
<path d="M109.411 75.5215H100.938V83.9938H109.411V75.5215Z" fill="#29B9AE"/>
<path d="M109.411 67.0498H100.938V75.5221H109.411V67.0498Z" fill="#29B9AE"/>
<path d="M109.411 58.5605H100.938V67.0328H109.411V58.5605Z" fill="#29B9AE"/>
<path d="M109.411 50.0713H100.938V58.5436H109.411V50.0713Z" fill="#29B9AE"/>
<path d="M109.411 41.5986H100.938V50.0709H109.411V41.5986Z" fill="#29B9AE"/>
<path d="M109.411 33.1094H100.938V41.5817H109.411V33.1094Z" fill="#29B9AE"/>
<path d="M117.834 84.0117H109.361V92.484H117.834V84.0117Z" fill="#239686"/>
<path d="M117.834 75.5215H109.361V83.9938H117.834V75.5215Z" fill="#29B9AE"/>
<path d="M117.834 67.0498H109.361V75.5221H117.834V67.0498Z" fill="#29B9AE"/>
<path d="M117.834 58.5605H109.361V67.0328H117.834V58.5605Z" fill="#29B9AE"/>
<path d="M117.834 50.0713H109.361V58.5436H117.834V50.0713Z" fill="#29B9AE"/>
<path d="M117.834 41.5986H109.361V50.0709H117.834V41.5986Z" fill="#29B9AE"/>
<path d="M117.834 33.1094H109.361V41.5817H117.834V33.1094Z" fill="#29B9AE"/>
<path d="M117.834 24.6377H109.361V33.11H117.834V24.6377Z" fill="#29B9AE"/>
<path d="M109.411 24.6377H100.938V33.11H109.411V24.6377Z" fill="#29B9AE"/>
<path d="M126.253 84.0117H117.78V92.484H126.253V84.0117Z" fill="#239686"/>
<path d="M126.253 75.5215H117.78V83.9938H126.253V75.5215Z" fill="#29B9AE"/>
<path d="M126.253 67.0498H117.78V75.5221H126.253V67.0498Z" fill="#29B9AE"/>
<path d="M126.253 58.5605H117.78V67.0328H126.253V58.5605Z" fill="#29B9AE"/>
<path d="M126.253 50.0713H117.78V58.5436H126.253V50.0713Z" fill="#29B9AE"/>
<path d="M126.253 41.5986H117.78V50.0709H126.253V41.5986Z" fill="#29B9AE"/>
<path d="M126.253 33.1094H117.78V41.5817H126.253V33.1094Z" fill="#29B9AE"/>
<path d="M126.253 24.6377H117.78V33.11H126.253V24.6377Z" fill="#29B9AE"/>
<path d="M134.675 84.0117H126.203V92.484H134.675V84.0117Z" fill="#29B9AE"/>
<path d="M134.675 75.5215H126.203V83.9938H134.675V75.5215Z" fill="#29B9AE"/>
<path d="M134.675 67.0498H126.203V75.5221H134.675V67.0498Z" fill="#29B9AE"/>
<path d="M134.675 58.5605H126.203V67.0328H134.675V58.5605Z" fill="#29B9AE"/>
<path d="M134.675 50.0713H126.203V58.5436H134.675V50.0713Z" fill="#29B9AE"/>
<path d="M134.675 41.5986H126.203V50.0709H134.675V41.5986Z" fill="#29B9AE"/>
<path d="M134.675 33.1094H126.203V41.5817H134.675V33.1094Z" fill="#29B9AE"/>
<path d="M134.675 24.6377H126.203V33.11H134.675V24.6377Z" fill="#29B9AE"/>
<path d="M143.098 84.0117H134.626V92.484H143.098V84.0117Z" fill="#29B9AE"/>
<path d="M143.098 75.5215H134.626V83.9938H143.098V75.5215Z" fill="#29B9AE"/>
<path d="M143.098 67.0498H134.626V75.5221H143.098V67.0498Z" fill="#29B9AE"/>
<path d="M143.098 58.5605H134.626V67.0328H143.098V58.5605Z" fill="#29B9AE"/>
<path d="M143.098 50.0713H134.626V58.5436H143.098V50.0713Z" fill="#29B9AE"/>
<path d="M143.098 41.5986H134.626V50.0709H143.098V41.5986Z" fill="#29B9AE"/>
<path d="M143.098 33.1094H134.626V41.5817H143.098V33.1094Z" fill="#29B9AE"/>
<path d="M143.098 24.6377H134.626V33.11H143.098V24.6377Z" fill="#29B9AE"/>
<path d="M151.517 84.0117H143.045V92.484H151.517V84.0117Z" fill="#29B9AE"/>
<path d="M151.517 75.5215H143.045V83.9938H151.517V75.5215Z" fill="#29B9AE"/>
<path d="M151.517 67.0498H143.045V75.5221H151.517V67.0498Z" fill="#29B9AE"/>
<path d="M151.517 58.5605H143.045V67.0328H151.517V58.5605Z" fill="#29B9AE"/>
<path d="M151.517 50.0713H143.045V58.5436H151.517V50.0713Z" fill="#29B9AE"/>
<path d="M151.517 41.5986H143.045V50.0709H151.517V41.5986Z" fill="#29B9AE"/>
<path d="M151.517 33.1094H143.045V41.5817H151.517V33.1094Z" fill="#29B9AE"/>
<path d="M159.94 84.0117H151.468V92.484H159.94V84.0117Z" fill="#29B9AE"/>
<path d="M159.94 75.5215H151.468V83.9938H159.94V75.5215Z" fill="#29B9AE"/>
<path d="M159.94 67.0498H151.468V75.5221H159.94V67.0498Z" fill="#29B9AE"/>
<path d="M159.94 58.5605H151.468V67.0328H159.94V58.5605Z" fill="#29B9AE"/>
<path d="M159.94 50.0713H151.468V58.5436H159.94V50.0713Z" fill="#29B9AE"/>
<path d="M159.94 41.5986H151.468V50.0709H159.94V41.5986Z" fill="#29B9AE"/>
<path d="M168.363 75.5215H159.891V83.9938H168.363V75.5215Z" fill="#239686"/>
<path d="M168.363 67.0498H159.891V75.5221H168.363V67.0498Z" fill="#239686"/>
<path d="M168.363 58.5605H159.891V67.0328H168.363V58.5605Z" fill="#239686"/>
<path d="M168.363 50.0713H159.891V58.5436H168.363V50.0713Z" fill="#239686"/>
<path d="M33.6002 84.0117H25.1279V92.484H33.6002V84.0117Z" fill="#239686"/>
<path d="M33.6002 75.5215H25.1279V83.9938H33.6002V75.5215Z" fill="#5CD6CA"/>
<path d="M33.6002 67.0498H25.1279V75.5221H33.6002V67.0498Z" fill="#29B9AE"/>
<path d="M33.6002 58.5605H25.1279V67.0328H33.6002V58.5605Z" fill="#5CD6CA"/>
<path d="M33.6002 50.0713H25.1279V58.5436H33.6002V50.0713Z" fill="#5CD6CA"/>
<path d="M33.6002 41.5986H25.1279V50.0709H33.6002V41.5986Z" fill="black"/>
<path d="M25.1969 84.0117H16.7246V92.484H25.1969V84.0117Z" fill="black"/>
<path d="M25.1969 75.5215H16.7246V83.9938H25.1969V75.5215Z" fill="black"/>
<path d="M25.1969 67.0498H16.7246V75.5221H25.1969V67.0498Z" fill="black"/>
<path d="M25.1969 58.5605H16.7246V67.0328H25.1969V58.5605Z" fill="black"/>
<path d="M25.1969 50.0713H16.7246V58.5436H25.1969V50.0713Z" fill="black"/>
<path d="M176.782 126.407H168.31V134.88H176.782V126.407Z" fill="black"/>
<path d="M176.782 117.935H168.31V126.407H176.782V117.935Z" fill="black"/>
<path d="M176.782 109.445H168.31V117.918H176.782V109.445Z" fill="black"/>
<path d="M176.782 100.736H168.31V110.429H176.782V100.736Z" fill="black"/>
<path d="M176.782 75.5215H168.31V83.9938H176.782V75.5215Z" fill="black"/>
<path d="M176.782 84.0117H168.31V92.484H176.782V84.0117Z" fill="black"/>
<path d="M176.782 92.4834H168.31V100.956H176.782V92.4834Z" fill="black"/>
<path d="M176.782 67.0498H168.31V75.5221H176.782V67.0498Z" fill="black"/>
<path d="M176.782 58.5605H168.31V67.0328H176.782V58.5605Z" fill="black"/>
<path d="M176.782 50.0713H168.31V58.5436H176.782V50.0713Z" fill="black"/>
<path d="M117.543 185.577H125.965V177.156H117.543V185.577Z" fill="white"/>
<path d="M109.157 185.577H117.578V177.156H109.157V185.577Z" fill="white"/>
<path d="M100.788 185.577H109.209V177.156H100.788V185.577Z" fill="white"/>
<path d="M92.3979 185.577H100.819V177.156H92.3979V185.577Z" fill="white"/>
<path d="M75.642 185.577H84.0635V177.156H75.642V185.577Z" fill="white"/>
<path d="M67.269 185.577H75.6904V177.156H67.269V185.577Z" fill="white"/>
<path d="M84.0278 185.577H92.4492V177.156H84.0278V185.577Z" fill="white"/>
<path d="M58.8822 185.577H67.3037V177.156H58.8822V185.577Z" fill="white"/>
<path d="M117.543 193.999H125.965V185.578H117.543V193.999Z" fill="black"/>
<path opacity="0.3" d="M109.157 193.999H117.578V185.578H109.157V193.999Z" fill="black"/>
<path opacity="0.3" d="M100.788 193.999H109.209V185.578H100.788V193.999Z" fill="black"/>
<path opacity="0.3" d="M92.3979 193.999H100.819V185.578H92.3979V193.999Z" fill="black"/>
<path opacity="0.3" d="M84.0278 193.999H92.4492V185.578H84.0278V193.999Z" fill="black"/>
<path opacity="0.3" d="M75.642 193.999H84.0635V185.578H75.642V193.999Z" fill="black"/>
<path opacity="0.3" d="M67.269 193.999H75.6904V185.578H67.269V193.999Z" fill="black"/>
<path opacity="0.3" d="M58.8822 193.999H67.3037V185.578H58.8822V193.999Z" fill="black"/>
<path d="M50.4926 193.999H58.9141V185.578H50.4926V193.999Z" fill="black"/>
<path d="M125.916 185.577H134.338V177.156H125.916V185.577Z" fill="white"/>
<path d="M134.302 185.577H142.724V177.156H134.302V185.577Z" fill="white"/>
<path d="M50.4926 185.577H58.9141V177.156H50.4926V185.577Z" fill="white"/>
<path d="M117.543 177.155H125.965V168.734H117.543V177.155Z" fill="black"/>
<path d="M109.157 177.155H117.578V168.734H109.157V177.155Z" fill="black"/>
<path d="M100.788 177.155H109.209V168.734H100.788V177.155Z" fill="black"/>
<path d="M92.3979 177.155H100.819V168.734H92.3979V177.155Z" fill="black"/>
<path d="M75.642 177.155H84.0635V168.734H75.642V177.155Z" fill="black"/>
<path d="M67.269 177.155H75.6904V168.734H67.269V177.155Z" fill="black"/>
<path d="M84.0278 177.155H92.4492V168.734H84.0278V177.155Z" fill="black"/>
<path d="M58.8822 177.155H67.3037V168.734H58.8822V177.155Z" fill="black"/>
<path d="M125.916 177.155H134.338V168.734H125.916V177.155Z" fill="black"/>
<path d="M134.302 177.155H142.724V168.734H134.302V177.155Z" fill="black"/>
<path d="M50.4926 177.155H58.9141V168.734H50.4926V177.155Z" fill="black"/>
<path d="M117.543 193.999H125.965V185.578H117.543V193.999Z" fill="black"/>
<path d="M109.157 193.999H117.578V185.578H109.157V193.999Z" fill="black"/>
<path d="M100.788 193.999H109.209V185.578H100.788V193.999Z" fill="black"/>
<path d="M92.3979 193.999H100.819V185.578H92.3979V193.999Z" fill="black"/>
<path d="M75.642 193.999H84.0635V185.578H75.642V193.999Z" fill="black"/>
<path d="M67.269 193.999H75.6904V185.578H67.269V193.999Z" fill="black"/>
<path d="M84.0278 193.999H92.4492V185.578H84.0278V193.999Z" fill="black"/>
<path d="M58.8822 193.999H67.3037V185.578H58.8822V193.999Z" fill="black"/>
<path d="M50.4926 193.999H58.9141V185.578H50.4926V193.999Z" fill="black"/>
<path d="M125.916 193.999H134.338V185.578H125.916V193.999Z" fill="black"/>
<path d="M134.302 193.999H142.724V185.578H134.302V193.999Z" fill="black"/>
<path d="M142.656 185.577H151.077V177.156H142.656V185.577Z" fill="white"/>
<path d="M142.656 177.155H151.077V168.734H142.656V177.155Z" fill="black"/>
<path d="M142.656 193.999H151.077V185.578H142.656V193.999Z" fill="black"/>
<path d="M151.025 185.577H159.446V177.156H151.025V185.577Z" fill="white"/>
<path d="M151.025 177.155H159.446V168.734H151.025V177.155Z" fill="black"/>
<path d="M151.025 193.999H159.446V185.578H151.025V193.999Z" fill="black"/>
<path d="M159.431 185.577H167.853V177.156H159.431V185.577Z" fill="black"/>
<path d="M50.4926 193.999H58.9141V185.578H50.4926V193.999Z" fill="black"/>
<path d="M42.1235 185.577H50.5449V177.156H42.1235V185.577Z" fill="white"/>
<path d="M42.1235 177.155H50.5449V168.734H42.1235V177.155Z" fill="black"/>
<path d="M42.1235 193.999H50.5449V185.578H42.1235V193.999Z" fill="black"/>
<path d="M33.7533 185.577H42.1748V177.156H33.7533V185.577Z" fill="white"/>
<path d="M33.7533 177.155H42.1748V168.734H33.7533V177.155Z" fill="black"/>
<path d="M33.7533 193.999H42.1748V185.578H33.7533V193.999Z" fill="black"/>
<path d="M25.3637 185.577H33.7852V177.156H25.3637V185.577Z" fill="black"/>
<path d="M42.1256 202.606H33.6533V211.079H42.1256V202.606Z" fill="#DAD6D0"/>
<path d="M33.8551 194.134H25.3828V202.606H33.8551V194.134Z" fill="black"/>
<path d="M42.1256 211.078H33.6533V219.55H42.1256V211.078Z" fill="#DAD6D0"/>
<path d="M33.8551 211.078H25.3828V219.55H33.8551V211.078Z" fill="#DAD6D0"/>
<path d="M33.8551 202.623H25.3828V211.095H33.8551V202.623Z" fill="#DAD6D0"/>
<path d="M42.1256 194.134H33.6533V202.606H42.1256V194.134Z" fill="#F6F2EC"/>
<path d="M33.6002 134.896H25.1279V143.368H33.6002V134.896Z" fill="black"/>
<path d="M41.9697 109.496V101.074H33.5483V109.496H41.9697Z" fill="black"/>
<path d="M50.3926 109.496V101.074H41.9711V109.496H50.3926Z" fill="black"/>
<path d="M58.832 109.496V101.074H50.4106V109.496H58.832Z" fill="black"/>
<path d="M33.5342 117.833V109.411H25.1127V117.833H33.5342Z" fill="black"/>
<path d="M41.9697 117.833V109.411H33.5483V117.833H41.9697Z" fill="#DDF8FF"/>
<path d="M50.3926 117.833V109.411H41.9711V117.833H50.3926Z" fill="#DDF8FF"/>
<path d="M58.832 117.833V109.411H50.4106V117.833H58.832Z" fill="#DDF8FF"/>
<path d="M67.2539 117.816V109.395H58.8324V117.816H67.2539Z" fill="black"/>
<path d="M33.5342 126.17V117.748H25.1127V126.17H33.5342Z" fill="black"/>
<path d="M41.9697 126.17V117.748H33.5483V126.17H41.9697Z" fill="#DDF8FF"/>
<path d="M50.3926 126.17V117.748H41.9711V126.17H50.3926Z" fill="#DDF8FF"/>
<path d="M58.832 126.17V117.748H50.4106V126.17H58.832Z" fill="#DDF8FF"/>
<path d="M67.2539 126.153V117.731H58.8324V126.153H67.2539Z" fill="black"/>
<path d="M33.5342 134.506V126.085H25.1127V134.506H33.5342Z" fill="black"/>
<path d="M41.9697 134.506V126.085H33.5483V134.506H41.9697Z" fill="#DDF8FF"/>
<path d="M50.3926 134.506V126.085H41.9711V134.506H50.3926Z" fill="#DDF8FF"/>
<path d="M58.832 134.506V126.085H50.4106V134.506H58.832Z" fill="#DDF8FF"/>
<path d="M67.2539 134.489V126.067H58.8325V134.489H67.2539Z" fill="black"/>
<path d="M41.9697 143.402V134.489H33.5483V143.402H41.9697Z" fill="black"/>
<path d="M50.3926 143.402V134.489H41.9711V143.402H50.3926Z" fill="black"/>
<path d="M58.832 143.402V134.489H50.4106V143.402H58.832Z" fill="black"/>
<path d="M96.1758 109.309V100.888H87.7543V109.309H96.1758Z" fill="black"/>
<path d="M104.599 109.309V100.888H96.1772V109.309H104.599Z" fill="black"/>
<path d="M113.038 109.309V100.888H104.617V109.309H113.038Z" fill="black"/>
<path d="M87.7402 117.764V109.343H79.3188V117.764H87.7402Z" fill="black"/>
<path d="M96.1758 117.764V109.343H87.7543V117.764H96.1758Z" fill="#DDF8FF"/>
<path d="M104.599 117.764V109.343H96.1772V117.764H104.599Z" fill="#DDF8FF"/>
<path d="M113.038 117.764V109.343H104.617V117.764H113.038Z" fill="#DDF8FF"/>
<path d="M121.457 117.782V109.36H113.036V117.782H121.457Z" fill="black"/>
<path d="M87.7402 126.102V117.681H79.3188V126.102H87.7402Z" fill="black"/>
<path d="M96.1758 126.102V117.681H87.7543V126.102H96.1758Z" fill="#DDF8FF"/>
<path d="M104.599 126.102V117.681H96.1772V126.102H104.599Z" fill="#DDF8FF"/>
<path d="M113.038 126.102V117.681H104.617V126.102H113.038Z" fill="#DDF8FF"/>
<path d="M121.457 126.119V117.697H113.036V126.119H121.457Z" fill="black"/>
<path d="M87.7197 134.829V126.018H79.2983V134.829H87.7197Z" fill="black"/>
<path d="M96.1592 134.778V126.018H87.7377V134.778H96.1592Z" fill="#DDF8FF"/>
<path d="M104.599 134.778V126.018H96.1772V134.778H104.599Z" fill="#DDF8FF"/>
<path d="M113.021 134.778V126.018H104.6V134.778H113.021Z" fill="#DDF8FF"/>
<path d="M121.457 134.829V126.018H113.036V134.829H121.457Z" fill="black"/>
<path d="M96.1592 143.69V134.777H87.7377V143.69H96.1592Z" fill="black"/>
<path d="M104.599 143.673V134.76H96.1772V143.673H104.599Z" fill="black"/>
<path d="M113.021 143.69V134.777H104.6V143.69H113.021Z" fill="black"/>
<path d="M126.253 100.973H117.78V109.445H126.253V100.973Z" fill="#4C3510"/>
<path d="M143.062 261.828H151.534V253.356H143.062V261.828Z" fill="#29B9AE"/>
<path d="M143.062 253.338H151.534V244.866H143.062V253.338Z" fill="#617175"/>
<path d="M134.642 261.828H143.114V253.356H134.642V261.828Z" fill="#1D998D"/>
<path d="M134.642 253.338H143.114V244.866H134.642V253.338Z" fill="#617175"/>
<path d="M126.219 261.828H134.691V253.356H126.219V261.828Z" fill="#29B9AE"/>
<path d="M126.219 253.338H134.691V244.866H126.219V253.338Z" fill="#47575B"/>
<path d="M117.797 261.828H126.27V253.356H117.797V261.828Z" fill="#29B9AE"/>
<path d="M117.797 253.338H126.27V244.866H117.797V253.338Z" fill="#617175"/>
<path d="M109.361 261.828H117.833V253.356H109.361V261.828Z" fill="#29B9AE"/>
<path d="M109.361 253.338H117.833V244.866H109.361V253.338Z" fill="#617175"/>
<path d="M100.938 261.828H109.41V253.356H100.938V261.828Z" fill="#29B9AE"/>
<path d="M100.938 253.338H109.41V244.866H100.938V253.338Z" fill="#617175"/>
<path d="M92.516 261.828H100.988V253.356H92.516V261.828Z" fill="#29B9AE"/>
<path d="M92.516 253.338H100.988V244.866H92.516V253.338Z" fill="#617175"/>
<path d="M84.0961 261.828H92.5684V253.356H84.0961V261.828Z" fill="#29B9AE"/>
<path d="M84.0961 253.338H92.5684V244.866H84.0961V253.338Z" fill="#617175"/>
<path d="M75.6732 261.828H84.1455V253.356H75.6732V261.828Z" fill="#29B9AE"/>
<path d="M75.6732 253.338H84.1455V244.866H75.6732V253.338Z" fill="#617175"/>
<path d="M67.2543 261.828H75.7266V253.356H67.2543V261.828Z" fill="black"/>
<path d="M67.2543 253.338H75.7266V244.866H67.2543V253.338Z" fill="black"/>
<path d="M75.6732 244.866H84.1455V236.394H75.6732V244.866Z" fill="black"/>
<path d="M67.2543 244.866H75.7266V236.394H67.2543V244.866Z" fill="black"/>
<path d="M58.8314 261.828H67.3037V253.356H58.8314V261.828Z" fill="black"/>
<path d="M50.4086 261.828H58.8809V253.356H50.4086V261.828Z" fill="black"/>
<path d="M41.9896 261.828H50.4619V253.356H41.9896V261.828Z" fill="black"/>
<path d="M33.5668 261.828H42.0391V253.356H33.5668V261.828Z" fill="black"/>
<path d="M25.1439 261.828H33.6162V253.356H25.1439V261.828Z" fill="black"/>
<path d="M151.484 261.828H159.956V253.356H151.484V261.828Z" fill="#29B9AE"/>
<path d="M151.484 253.338H159.956V244.866H151.484V253.338Z" fill="#617175"/>
<path d="M159.89 261.828H168.362V253.356H159.89V261.828Z" fill="#29B9AE"/>
<path d="M168.363 261.828H176.835V253.356H168.363V261.828Z" fill="black"/>
<path d="M159.89 253.338H168.362V244.866H159.89V253.338Z" fill="#617175"/>
<path d="M143.062 278.807H151.534V270.334H143.062V278.807Z" fill="#2FAD9D"/>
<path d="M143.062 270.3H151.534V261.828H143.062V270.3Z" fill="#29B9AE"/>
<path d="M134.642 278.807H143.114V270.334H134.642V278.807Z" fill="#1D998D"/>
<path d="M134.642 270.3H143.114V261.828H134.642V270.3Z" fill="#1D998D"/>
<path d="M126.219 278.807H134.691V270.334H126.219V278.807Z" fill="#29B9AE"/>
<path d="M126.219 270.3H134.691V261.828H126.219V270.3Z" fill="#29B9AE"/>
<path d="M117.797 278.807H126.27V270.334H117.797V278.807Z" fill="#29B9AE"/>
<path d="M117.797 270.3H126.27V261.828H117.797V270.3Z" fill="#29B9AE"/>
<path d="M109.361 278.807H117.833V270.334H109.361V278.807Z" fill="#2FAD9D"/>
<path d="M109.361 270.3H117.833V261.828H109.361V270.3Z" fill="#29B9AE"/>
<path d="M100.938 278.807H109.41V270.334H100.938V278.807Z" fill="#2FAD9D"/>
<path d="M100.938 270.3H109.41V261.828H100.938V270.3Z" fill="#29B9AE"/>
<path d="M92.516 278.807H100.988V270.334H92.516V278.807Z" fill="#2FAD9D"/>
<path d="M92.516 270.3H100.988V261.828H92.516V270.3Z" fill="#29B9AE"/>
<path d="M84.0961 278.807H92.5684V270.334H84.0961V278.807Z" fill="#2FAD9D"/>
<path d="M84.0961 270.3H92.5684V261.828H84.0961V270.3Z" fill="#29B9AE"/>
<path d="M75.6732 278.807H84.1455V270.334H75.6732V278.807Z" fill="#2FAD9D"/>
<path d="M75.6732 270.3H84.1455V261.828H75.6732V270.3Z" fill="#29B9AE"/>
<path d="M67.2543 278.807H75.7266V270.334H67.2543V278.807Z" fill="#29B9AE"/>
<path d="M67.2543 270.3H75.7266V261.828H67.2543V270.3Z" fill="#29B9AE"/>
<path d="M58.8314 278.807H67.3037V270.334H58.8314V278.807Z" fill="#29B9AE"/>
<path d="M58.8314 270.3H67.3037V261.828H58.8314V270.3Z" fill="#29B9AE"/>
<path d="M50.4086 278.807H58.8809V270.334H50.4086V278.807Z" fill="#29B9AE"/>
<path d="M50.4086 270.3H58.8809V261.828H50.4086V270.3Z" fill="#29B9AE"/>
<path d="M41.9896 278.807H50.4619V270.334H41.9896V278.807Z" fill="#29B9AE"/>
<path d="M41.9896 270.3H50.4619V261.828H41.9896V270.3Z" fill="#29B9AE"/>
<path d="M33.5668 278.807H42.0391V270.334H33.5668V278.807Z" fill="#29B9AE"/>
<path d="M33.5668 270.3H42.0391V261.828H33.5668V270.3Z" fill="#29B9AE"/>
<path d="M25.1439 278.807H33.6162V270.334H25.1439V278.807Z" fill="#2FAD9D"/>
<path d="M25.1439 270.3H33.6162V261.828H25.1439V270.3Z" fill="#5EDBCF"/>
<path d="M16.725 278.807H25.1973V270.334H16.725V278.807Z" fill="#5EDBCF"/>
<path d="M16.725 270.3H25.1973V261.828H16.725V270.3Z" fill="black"/>
<path d="M151.484 278.807H159.956V270.334H151.484V278.807Z" fill="#2FAD9D"/>
<path d="M151.484 270.3H159.956V261.828H151.484V270.3Z" fill="#29B9AE"/>
<path d="M159.89 278.807H168.362V270.334H159.89V278.807Z" fill="#2FAD9D"/>
<path d="M159.89 270.3H168.362V261.828H159.89V270.3Z" fill="#2FAD9D"/>
<path d="M168.363 253.338H176.835V244.866H168.363V253.338Z" fill="black"/>
<path d="M143.062 244.866H151.534V236.394H143.062V244.866Z" fill="black"/>
<path d="M134.642 244.866H143.114V236.394H134.642V244.866Z" fill="black"/>
<path d="M126.219 244.866H134.691V236.394H126.219V244.866Z" fill="black"/>
<path d="M117.797 244.866H126.27V236.394H117.797V244.866Z" fill="black"/>
<path d="M109.361 244.866H117.833V236.394H109.361V244.866Z" fill="black"/>
<path d="M100.938 244.866H109.41V236.394H100.938V244.866Z" fill="black"/>
<path d="M92.516 244.866H100.988V236.394H92.516V244.866Z" fill="black"/>
<path d="M151.484 244.866H159.956V236.394H151.484V244.866Z" fill="#29B9AE"/>
<path d="M159.89 244.866H168.362V236.394H159.89V244.866Z" fill="#29B9AE"/>
<path d="M168.363 244.866H176.835V236.394H168.363V244.866Z" fill="black"/>
<path d="M143.062 287.278H151.534V278.806H143.062V287.278Z" fill="black"/>
<path d="M134.642 287.278H143.114V278.806H134.642V287.278Z" fill="black"/>
<path d="M126.219 287.278H134.691V278.806H126.219V287.278Z" fill="black"/>
<path d="M117.797 287.278H126.27V278.806H117.797V287.278Z" fill="black"/>
<path d="M109.361 287.278H117.833V278.806H109.361V287.278Z" fill="black"/>
<path d="M100.938 287.278H109.41V278.806H100.938V287.278Z" fill="black"/>
<path d="M92.516 287.278H100.988V278.806H92.516V287.278Z" fill="black"/>
<path d="M84.0961 287.278H92.5684V278.806H84.0961V287.278Z" fill="black"/>
<path d="M75.6732 287.278H84.1455V278.806H75.6732V287.278Z" fill="black"/>
<path d="M67.2543 287.278H75.7266V278.806H67.2543V287.278Z" fill="black"/>
<path d="M58.8314 287.278H67.3037V278.806H58.8314V287.278Z" fill="black"/>
<path d="M50.4086 287.278H58.8809V278.806H50.4086V287.278Z" fill="black"/>
<path d="M41.9896 287.278H50.4619V278.806H41.9896V287.278Z" fill="black"/>
<path d="M33.5668 287.278H42.0391V278.806H33.5668V287.278Z" fill="black"/>
<path d="M25.1439 287.278H33.6162V278.806H25.1439V287.278Z" fill="black"/>
<path d="M16.725 287.278H25.1973V278.806H16.725V287.278Z" fill="black"/>
<path d="M151.484 287.278H159.956V278.806H151.484V287.278Z" fill="black"/>
<path d="M159.89 287.278H168.362V278.806H159.89V287.278Z" fill="black"/>
<path d="M8.30212 287.278H16.7744V278.806H8.30212L8.30212 287.278Z" fill="black"/>
<path d="M168.363 287.278H176.835V278.806H168.363V287.278Z" fill="black"/>
<path d="M168.363 278.807H176.835V270.334H168.363V278.807Z" fill="black"/>
<path d="M168.363 270.3H176.835V261.828H168.363V270.3Z" fill="black"/>
<path d="M8.30212 278.807H16.7744V270.334H8.30212L8.30212 278.807Z" fill="black"/>
<path d="M101.041 236.394H92.5684V244.866H101.041V236.394Z" fill="black"/>
<path d="M109.461 236.394H100.988V244.866H109.461V236.394Z" fill="black"/>
<path d="M117.882 236.394H109.41V244.866H117.882V236.394Z" fill="black"/>
<path d="M126.305 236.394H117.833V244.866H126.305V236.394Z" fill="black"/>
<path d="M109.427 236.343H100.955V244.815H109.427V236.343Z" fill="#F6F2EC"/>
<path d="M117.85 236.343H109.378V244.815H117.85V236.343Z" fill="#F6F2EC"/>
<path d="M109.427 244.799H100.955V253.271H109.427V244.799Z" fill="#F6F2EC"/>
<path d="M117.85 244.799H109.378V253.271H117.85V244.799Z" fill="#F6F2EC"/>
<path d="M126.269 236.343H117.797V244.815H126.269V236.343Z" fill="black"/>
<path d="M126.269 244.799H117.797V253.271H126.269V244.799Z" fill="black"/>
<path d="M109.427 253.271H100.955V261.744H109.427V253.271Z" fill="black"/>
<path d="M100.955 244.799H92.4824V253.271H100.955V244.799Z" fill="black"/>
<path d="M117.85 253.271H109.378V261.744H117.85V253.271Z" fill="#F6F2EC"/>
<path d="M126.269 253.271H117.797V261.744H126.269V253.271Z" fill="#F6F2EC"/>
<path d="M101.007 261.727H92.5352V270.199H101.007V261.727Z" fill="black"/>
<path d="M109.427 261.727H100.955V270.199H109.427V261.727Z" fill="#DAD6D0"/>
<path d="M117.85 261.727H109.378V270.199H117.85V261.727Z" fill="#DAD6D0"/>
<path d="M126.269 261.727H117.797V270.199H126.269V261.727Z" fill="#DAD6D0"/>
<path d="M101.007 270.182H92.5352V278.654H101.007V270.182Z" fill="black"/>
<path d="M109.427 270.182H100.955V278.654H109.427V270.182Z" fill="black"/>
<path d="M117.85 270.182H109.378V278.654H117.85V270.182Z" fill="black"/>
<path d="M126.269 270.182H117.797V278.654H126.269V270.182Z" fill="black"/>
<path d="M134.742 253.271H126.27V261.744H134.742V253.271Z" fill="black"/>
<path d="M134.742 261.727H126.27V270.199H134.742V261.727Z" fill="black"/>
<path d="M134.742 270.182H126.27V278.654H134.742V270.182Z" fill="black"/>
<path d="M50.7666 210.841V202.42H42.3451V210.841H50.7666Z" fill="black"/>
<path d="M59.2061 210.841V202.42H50.7846V210.841H59.2061Z" fill="black"/>
<path d="M67.625 210.841V202.42H59.2035V210.841H67.625Z" fill="black"/>
<path d="M76.0645 210.841V202.42H67.643V210.841H76.0645Z" fill="black"/>
<path d="M42.3438 219.178V210.757H33.9223V219.178H42.3438Z" fill="black"/>
<path d="M50.7666 219.178V210.757H42.3451V219.178H50.7666Z" fill="#5EDBCF"/>
<path d="M59.2061 219.178V210.757H50.7846V219.178H59.2061Z" fill="#29B9AE"/>
<path d="M67.625 219.178V210.757H59.2035V219.178H67.625Z" fill="#1FA093"/>
<path d="M76.0645 219.178V210.757H67.643V219.178H76.0645Z" fill="black"/>
<path d="M84.5527 219.466V211.045H76.1313V219.466H84.5527Z" fill="black"/>
<path d="M93.042 219.483V211.062H84.6205V219.483H93.042Z" fill="black"/>
<path d="M101.53 219.483V211.062H93.1088V219.483H101.53Z" fill="black"/>
<path d="M42.3438 227.514V219.093H33.9223V227.514H42.3438Z" fill="black"/>
<path d="M50.7666 227.514V219.093H42.3451V227.514H50.7666Z" fill="#5EDBCF"/>
<path d="M59.2061 227.514V219.093H50.7846V227.514H59.2061Z" fill="#29B9AE"/>
<path d="M67.625 227.514V219.093H59.2035V227.514H67.625Z" fill="#1FA093"/>
<path d="M76.0645 227.514V219.093H67.643V227.514H76.0645Z" fill="black"/>
<path d="M42.3438 235.852V227.431H33.9223V235.852H42.3438Z" fill="black"/>
<path d="M50.7666 235.852V227.431H42.3451V235.852H50.7666Z" fill="#29B9AE"/>
<path d="M59.2061 235.852V227.431H50.7846V235.852H59.2061Z" fill="#29B9AE"/>
<path d="M67.625 235.852V227.431H59.2035V235.852H67.625Z" fill="#1FA093"/>
<path d="M76.0645 235.852V227.431H67.643V235.852H76.0645Z" fill="black"/>
<path d="M42.3438 244.189V235.768H33.9223V244.189H42.3438Z" fill="black"/>
<path d="M50.7666 244.189V235.768H42.3451V244.189H50.7666Z" fill="#F2F71C"/>
<path d="M59.2061 244.189V235.768H50.7846V244.189H59.2061Z" fill="#29B9AE"/>
<path d="M67.625 244.189V235.768H59.2035V244.189H67.625Z" fill="#1FA093"/>
<path d="M76.0645 244.189V235.768H67.643V244.189H76.0645Z" fill="black"/>
<path d="M42.3438 252.644V244.223H33.9223V252.644H42.3438Z" fill="black"/>
<path d="M50.7666 252.661V244.239H42.3451V252.661H50.7666Z" fill="#29B9AE"/>
<path d="M59.2061 252.644V244.223H50.7846V252.644H59.2061Z" fill="#29B9AE"/>
<path d="M67.625 252.644V244.223H59.2035V252.644H67.625Z" fill="#1FA093"/>
<path d="M76.0645 252.644V244.223H67.643V252.644H76.0645Z" fill="black"/>
<path d="M42.3438 261.099V252.678H33.9223V261.099H42.3438Z" fill="black"/>
<path d="M50.7666 261.116V252.694H42.3451V261.116H50.7666Z" fill="#29B9AE"/>
<path d="M59.2061 261.099V252.678H50.7846V261.099H59.2061Z" fill="#29B9AE"/>
<path d="M67.6416 261.116V252.694H59.2201V261.116H67.6416Z" fill="#1FA093"/>
<path d="M76.0645 261.099V252.678H67.643V261.099H76.0645Z" fill="black"/>
<path d="M50.4092 270.283V261.861H41.9877V270.283H50.4092Z" fill="black"/>
<path d="M58.8486 270.283V261.861H50.4272V270.283H58.8486Z" fill="black"/>
<path d="M67.2705 270.283V261.861H58.849V270.283H67.2705Z" fill="black"/>
<path d="M41.9893 278.62V270.198H33.5678V278.62H41.9893Z" fill="black"/>
<path d="M50.4092 278.62V270.198H41.9877V278.62H50.4092Z" fill="#DDF8FF"/>
<path d="M58.8486 278.62V270.198H50.4272V278.62H58.8486Z" fill="#DDF8FF"/>
<path d="M67.2705 278.62V270.198H58.8491V278.62H67.2705Z" fill="#DDF8FF"/>
<path d="M75.707 278.62V270.198H67.2856V278.62H75.707Z" fill="black"/>
<path d="M41.9893 286.957V278.535H33.5678V286.957H41.9893Z" fill="black"/>
<path d="M50.4092 286.957V278.535H41.9877V286.957H50.4092Z" fill="#DDF8FF"/>
<path d="M58.8486 286.957V278.535H50.4272V286.957H58.8486Z" fill="#38A096"/>
<path d="M67.2705 286.957V278.535H58.849V286.957H67.2705Z" fill="#DDF8FF"/>
<path d="M75.707 286.957V278.535H67.2856V286.957H75.707Z" fill="black"/>
<path d="M41.9893 295.293V286.871H33.5678V295.293H41.9893Z" fill="black"/>
<path d="M50.4092 295.293V286.871H41.9877V295.293H50.4092Z" fill="#DDF8FF"/>
<path d="M58.8486 295.293V286.871H50.4272V295.293H58.8486Z" fill="#DDF8FF"/>
<path d="M67.2705 295.293V286.871H58.849V295.293H67.2705Z" fill="#DDF8FF"/>
<path d="M75.707 295.293V286.871H67.2856V295.293H75.707Z" fill="black"/>
<path d="M50.4092 303.629V295.208H41.9877V303.629H50.4092Z" fill="black"/>
<path d="M58.8486 303.629V295.208H50.4272V303.629H58.8486Z" fill="black"/>
<path d="M67.2705 303.629V295.208H58.849V303.629H67.2705Z" fill="black"/>
<path d="M100.955 236.343H92.4824V244.815H100.955V236.343Z" fill="black"/>
<path d="M143.098 100.973H134.626V109.445H143.098V100.973Z" fill="#29B9AE"/>
<path d="M159.94 117.935H151.468V126.407H159.94V117.935Z" fill="#239686"/>
<path d="M159.685 270.283V261.861H151.263V270.283H159.685Z" fill="black"/>
<path d="M168.107 270.283V261.861H159.686V270.283H168.107Z" fill="black"/>
<path d="M176.547 270.283V261.861H168.125V270.283H176.547Z" fill="black"/>
<path d="M151.246 278.603V270.182H142.825V278.603H151.246Z" fill="black"/>
<path d="M159.669 278.62V270.198H151.248V278.62H159.669Z" fill="#DDF8FF"/>
<path d="M168.107 278.62V270.198H159.686V278.62H168.107Z" fill="#DDF8FF"/>
<path d="M176.547 278.62V270.198H168.125V278.62H176.547Z" fill="#DDF8FF"/>
<path d="M184.966 278.62V270.198H176.544V278.62H184.966Z" fill="black"/>
<path d="M151.246 286.94V278.519H142.825V286.94H151.246Z" fill="black"/>
<path d="M159.669 286.957V278.535H151.247V286.957H159.669Z" fill="#DDF8FF"/>
<path d="M168.107 286.957V278.535H159.686V286.957H168.107Z" fill="#38A096"/>
<path d="M176.547 286.957V278.535H168.125V286.957H176.547Z" fill="#DDF8FF"/>
<path d="M184.966 286.957V278.535H176.544V286.957H184.966Z" fill="black"/>
<path d="M151.246 295.277V286.855H142.825V295.277H151.246Z" fill="black"/>
<path d="M159.669 295.293V286.871H151.247V295.293H159.669Z" fill="#DDF8FF"/>
<path d="M168.107 295.293V286.871H159.686V295.293H168.107Z" fill="#DDF8FF"/>
<path d="M176.547 295.293V286.871H168.125V295.293H176.547Z" fill="#DDF8FF"/>
<path d="M184.966 295.293V286.871H176.544V295.293H184.966Z" fill="black"/>
<path d="M159.669 303.629V295.208H151.247V303.629H159.669Z" fill="black"/>
<path d="M168.107 303.629V295.208H159.686V303.629H168.107Z" fill="black"/>
<path d="M176.547 303.629V295.208H168.125V303.629H176.547Z" fill="black"/>
</svg>
