<svg width="405" height="331" viewBox="0 0 405 331" fill="none" xmlns="http://www.w3.org/2000/svg">
<path d="M179.215 181.553H170.926V189.842H179.215V181.553Z" fill="black"/>
<path d="M195.594 19.6624V11.4229H187.354V19.6624H195.594Z" fill="#DDF8FF"/>
<path d="M203.852 19.6458V11.4062H195.612V19.6458H203.852Z" fill="#DDF8FF"/>
<path d="M212.09 19.6624V11.4229H203.85V19.6624H212.09Z" fill="#DDF8FF"/>
<path d="M220.346 19.6458V11.4062H212.106V19.6458H220.346Z" fill="#DDF8FF"/>
<path d="M228.602 19.6624V11.4229H220.362V19.6624H228.602Z" fill="#DDF8FF"/>
<path d="M236.842 19.6458V11.4062H228.602V19.6458H236.842Z" fill="#DDF8FF"/>
<path d="M245.098 19.6624V11.4229H236.858V19.6624H245.098Z" fill="#DDF8FF"/>
<path d="M253.338 19.6458V11.4062H245.098V19.6458H253.338Z" fill="#DDF8FF"/>
<path d="M261.594 19.6458V11.4062H253.354V19.6458H261.594Z" fill="#DDF8FF"/>
<path d="M269.834 19.6458V11.4062H261.594V19.6458H269.834Z" fill="#DDF8FF"/>
<path d="M278.09 19.6458V11.4062H269.85V19.6458H278.09Z" fill="#DDF8FF"/>
<path d="M286.33 19.6458V11.4062H278.09V19.6458H286.33Z" fill="#DDF8FF"/>
<path d="M294.586 19.6458V11.4062H286.346V19.6458H294.586Z" fill="#DDF8FF"/>
<path d="M293.823 27.8193H302.062V19.5797H293.823V27.8193Z" fill="#DDF8FF"/>
<path d="M179.098 27.8187V19.5791H170.858V27.8187H179.098Z" fill="#DDF8FF"/>
<path d="M187.355 27.8031V19.5635H179.116V27.8031H187.355Z" fill="#DDF8FF"/>
<path d="M187.355 24.7025V16.4629H179.116V24.7025H187.355Z" fill="#DDF8FF"/>
<path d="M195.594 27.8187V19.5791H187.354V27.8187H195.594Z" fill="#DDF8FF"/>
<path d="M203.852 27.8031V19.5635H195.612V27.8031H203.852Z" fill="#DDF8FF"/>
<path d="M212.09 27.8187V19.5791H203.85V27.8187H212.09Z" fill="#DDF8FF"/>
<path d="M220.346 27.8031V19.5635H212.106V27.8031H220.346Z" fill="#DDF8FF"/>
<path d="M228.602 27.8187V19.5791H220.362V27.8187H228.602Z" fill="#DDF8FF"/>
<path d="M236.842 27.8031V19.5635H228.602V27.8031H236.842Z" fill="#DDF8FF"/>
<path d="M245.098 27.8187V19.5791H236.858V27.8187H245.098Z" fill="#DDF8FF"/>
<path d="M253.338 27.8031V19.5635H245.098V27.8031H253.338Z" fill="#DDF8FF"/>
<path d="M261.594 27.8031V19.5635H253.354V27.8031H261.594Z" fill="#DDF8FF"/>
<path d="M269.834 27.8031V19.5635H261.594V27.8031H269.834Z" fill="#DDF8FF"/>
<path d="M278.09 27.8031V19.5635H269.85V27.8031H278.09Z" fill="#DDF8FF"/>
<path d="M286.33 27.8031V19.5635H278.09V27.8031H286.33Z" fill="#DDF8FF"/>
<path d="M294.586 27.803V19.5635H286.346V27.803H294.586Z" fill="#DDF8FF"/>
<path d="M302.063 35.9756H310.303V27.736H302.063V35.9756Z" fill="#DDF8FF"/>
<path d="M293.823 35.9756H302.062V27.736H293.823V35.9756Z" fill="#DDF8FF"/>
<path d="M179.098 35.9759V27.7363H170.858V35.9759H179.098Z" fill="#DDF8FF"/>
<path d="M187.355 35.9593V27.7197H179.116V35.9593H187.355Z" fill="#DDF8FF"/>
<path d="M195.594 35.9759V27.7363H187.354V35.9759H195.594Z" fill="#DDF8FF"/>
<path d="M203.852 35.9593V27.7197H195.612V35.9593H203.852Z" fill="#DDF8FF"/>
<path d="M212.09 35.9759V27.7363H203.85V35.9759H212.09Z" fill="#DDF8FF"/>
<path d="M220.346 35.9593V27.7197H212.106V35.9593H220.346Z" fill="#DDF8FF"/>
<path d="M228.602 35.9759V27.7363H220.362V35.9759H228.602Z" fill="#DDF8FF"/>
<path d="M236.842 35.9593V27.7197H228.602V35.9593H236.842Z" fill="#DDF8FF"/>
<path d="M245.098 35.9759V27.7363H236.858V35.9759H245.098Z" fill="#DDF8FF"/>
<path d="M253.338 35.9593V27.7197H245.098V35.9593H253.338Z" fill="#DDF8FF"/>
<path d="M261.594 35.9593V27.7197H253.354V35.9593H261.594Z" fill="#DDF8FF"/>
<path d="M269.834 35.9593V27.7197H261.594V35.9593H269.834Z" fill="#DDF8FF"/>
<path d="M278.09 35.9593V27.7197H269.85V35.9593H278.09Z" fill="#DDF8FF"/>
<path d="M286.33 35.9593V27.7197H278.09V35.9593H286.33Z" fill="#DDF8FF"/>
<path d="M294.586 35.9593V27.7197H286.346V35.9593H294.586Z" fill="#DDF8FF"/>
<path d="M302.063 44.1328H310.303V35.8932H302.063V44.1328Z" fill="#DDF8FF"/>
<path d="M293.823 44.1328H302.062V35.8932H293.823V44.1328Z" fill="#DDF8FF"/>
<path d="M310.268 44.1328H318.508V35.8932H310.268V44.1328Z" fill="#DDF8FF"/>
<path d="M170.842 44.1156V35.876H162.602V44.1156H170.842Z" fill="#DDF8FF"/>
<path d="M179.098 44.1331V35.8936H170.858V44.1331H179.098Z" fill="#DDF8FF"/>
<path d="M187.355 44.1156V35.876H179.116V44.1156H187.355Z" fill="#DDF8FF"/>
<path d="M195.594 44.1331V35.8936H187.354V44.1331H195.594Z" fill="#DDF8FF"/>
<path d="M203.852 44.1156V35.876H195.612V44.1156H203.852Z" fill="#DDF8FF"/>
<path d="M212.09 44.1331V35.8936H203.85V44.1331H212.09Z" fill="#DDF8FF"/>
<path d="M220.346 44.1156V35.876H212.106V44.1156H220.346Z" fill="#DDF8FF"/>
<path d="M228.586 44.1331V35.8936H220.346V44.1331H228.586Z" fill="#DDF8FF"/>
<path d="M236.842 44.1156V35.876H228.602V44.1156H236.842Z" fill="#DDF8FF"/>
<path d="M245.098 44.1331V35.8936H236.858V44.1331H245.098Z" fill="#DDF8FF"/>
<path d="M253.338 44.1156V35.876H245.098V44.1156H253.338Z" fill="#DDF8FF"/>
<path d="M261.594 44.1156V35.876H253.354V44.1156H261.594Z" fill="#DDF8FF"/>
<path d="M269.834 44.1156V35.876H261.594V44.1156H269.834Z" fill="#DDF8FF"/>
<path d="M278.09 44.1156V35.876H269.85V44.1156H278.09Z" fill="#DDF8FF"/>
<path d="M286.33 44.1156V35.876H278.09V44.1156H286.33Z" fill="#DDF8FF"/>
<path d="M294.586 44.1155V35.876H286.346V44.1155H294.586Z" fill="#DDF8FF"/>
<path d="M302.063 52.2891H310.303V44.0495H302.063V52.2891Z" fill="#DDF8FF"/>
<path d="M293.823 52.2891H302.062V44.0495H293.823V52.2891Z" fill="#DDF8FF"/>
<path d="M310.268 52.2891H318.508V44.0495H310.268V52.2891Z" fill="#DDF8FF"/>
<path d="M318.493 52.2891H326.732V44.0495H318.493V52.2891Z" fill="#DDF8FF"/>
<path d="M162.586 52.2728V44.0332H154.346V52.2728H162.586Z" fill="#DDF8FF"/>
<path d="M195.594 16.4955V8.25586H187.354V16.4955H195.594Z" fill="#DDF8FF"/>
<path d="M203.852 16.4798V8.24023H195.612V16.4798H203.852Z" fill="#DDF8FF"/>
<path d="M212.09 16.4798V8.24023H203.85V16.4798H212.09Z" fill="#DDF8FF"/>
<path d="M220.346 16.4798V8.24023H212.106V16.4798H220.346Z" fill="#DDF8FF"/>
<path d="M228.586 16.4798V8.24023H220.346V16.4798H228.586Z" fill="#DDF8FF"/>
<path d="M236.842 16.4798V8.24023H228.602V16.4798H236.842Z" fill="#DDF8FF"/>
<path d="M245.082 16.4798V8.24023H236.842V16.4798H245.082Z" fill="#DDF8FF"/>
<path d="M253.338 16.4798V8.24023H245.098V16.4798H253.338Z" fill="#DDF8FF"/>
<path d="M261.576 16.4798V8.24023H253.337V16.4798H261.576Z" fill="#DDF8FF"/>
<path d="M269.834 16.4798V8.24023H261.594V16.4798H269.834Z" fill="#DDF8FF"/>
<path d="M278.09 16.4798V8.24023H269.85V16.4798H278.09Z" fill="#DDF8FF"/>
<path d="M286.33 16.4798V8.24023H278.09V16.4798H286.33Z" fill="#DDF8FF"/>
<path d="M294.586 16.4798V8.24023H286.346V16.4798H294.586Z" fill="#DDF8FF"/>
<path d="M293.823 24.6523H302.062V16.4128H293.823V24.6523Z" fill="#DDF8FF"/>
<path d="M302.063 32.8096H310.303V24.57H302.063V32.8096Z" fill="#DDF8FF"/>
<path d="M310.268 40.9668H318.508V32.7272H310.268V40.9668Z" fill="#DDF8FF"/>
<path d="M170.842 40.9496V32.71H162.602V40.9496H170.842Z" fill="#DDF8FF"/>
<path d="M318.493 49.123H326.732V40.8835H318.493V49.123Z" fill="#DDF8FF"/>
<path d="M162.586 49.1068V40.8672H154.346V49.1068H162.586Z" fill="#DDF8FF"/>
<path d="M170.842 52.2728V44.0332H162.602V52.2728H170.842Z" fill="#DDF8FF"/>
<path d="M179.098 52.2894V44.0498H170.858V52.2894H179.098Z" fill="#DDF8FF"/>
<path d="M187.355 52.2728V44.0332H179.116V52.2728H187.355Z" fill="#DDF8FF"/>
<path d="M195.594 52.2894V44.0498H187.354V52.2894H195.594Z" fill="#DDF8FF"/>
<path d="M203.852 52.2728V44.0332H195.612V52.2728H203.852Z" fill="#DDF8FF"/>
<path d="M212.09 52.2894V44.0498H203.85V52.2894H212.09Z" fill="#DDF8FF"/>
<path d="M220.346 52.2728V44.0332H212.106V52.2728H220.346Z" fill="#DDF8FF"/>
<path d="M228.586 52.2894V44.0498H220.346V52.2894H228.586Z" fill="#DDF8FF"/>
<path d="M236.842 52.2728V44.0332H228.602V52.2728H236.842Z" fill="#DDF8FF"/>
<path d="M245.098 52.2894V44.0498H236.858V52.2894H245.098Z" fill="#DDF8FF"/>
<path d="M253.338 52.2728V44.0332H245.098V52.2728H253.338Z" fill="#DDF8FF"/>
<path d="M261.594 52.2728V44.0332H253.354V52.2728H261.594Z" fill="#DDF8FF"/>
<path d="M269.834 52.2728V44.0332H261.594V52.2728H269.834Z" fill="#DDF8FF"/>
<path d="M278.09 52.2728V44.0332H269.85V52.2728H278.09Z" fill="#DDF8FF"/>
<path d="M286.33 52.2728V44.0332H278.09V52.2728H286.33Z" fill="#DDF8FF"/>
<path d="M294.586 52.2728V44.0332H286.346V52.2728H294.586Z" fill="#DDF8FF"/>
<path d="M302.063 60.4463H310.303V52.2067H302.063V60.4463Z" fill="#DDF8FF"/>
<path d="M293.823 60.4463H302.062V52.2067H293.823V60.4463Z" fill="#DDF8FF"/>
<path d="M310.268 60.4463H318.508V52.2067H310.268V60.4463Z" fill="#DDF8FF"/>
<path d="M318.493 60.4463H326.732V52.2067H318.493V60.4463Z" fill="#DDF8FF"/>
<path d="M162.586 60.429V52.1895H154.346V60.429H162.586Z" fill="#DDF8FF"/>
<path d="M170.842 60.429V52.1895H162.602V60.429H170.842Z" fill="#DDF8FF"/>
<path d="M179.098 60.4466V52.207H170.858V60.4466H179.098Z" fill="#DDF8FF"/>
<path d="M187.355 60.429V52.1895H179.116V60.429H187.355Z" fill="#DDF8FF"/>
<path d="M195.594 60.4466V52.207H187.354V60.4466H195.594Z" fill="#DDF8FF"/>
<path d="M203.852 60.43V52.1904H195.612V60.43H203.852Z" fill="#DDF8FF"/>
<path d="M212.09 60.4466V52.207H203.85V60.4466H212.09Z" fill="#DDF8FF"/>
<path d="M220.346 60.429V52.1895H212.106V60.429H220.346Z" fill="#DDF8FF"/>
<path d="M228.586 60.4466V52.207H220.346V60.4466H228.586Z" fill="#DDF8FF"/>
<path d="M236.842 60.43V52.1904H228.602V60.43H236.842Z" fill="#DDF8FF"/>
<path d="M245.098 60.4466V52.207H236.858V60.4466H245.098Z" fill="#DDF8FF"/>
<path d="M253.338 60.429V52.1895H245.098V60.429H253.338Z" fill="#DDF8FF"/>
<path d="M261.594 60.429V52.1895H253.354V60.429H261.594Z" fill="#DDF8FF"/>
<path d="M269.834 60.429V52.1895H261.594V60.429H269.834Z" fill="#DDF8FF"/>
<path d="M278.09 60.429V52.1895H269.85V60.429H278.09Z" fill="#DDF8FF"/>
<path d="M286.33 60.429V52.1895H278.09V60.429H286.33Z" fill="#DDF8FF"/>
<path d="M294.586 60.43V52.1904H286.346V60.43H294.586Z" fill="#DDF8FF"/>
<path d="M302.063 68.6035H310.303V60.3639H302.063V68.6035Z" fill="#DDF8FF"/>
<path d="M293.823 68.6035H302.062V60.3639H293.823V68.6035Z" fill="#DDF8FF"/>
<path d="M310.268 68.6035H318.508V60.3639H310.268V68.6035Z" fill="#DDF8FF"/>
<path d="M318.493 68.6035H326.732V60.3639H318.493V68.6035Z" fill="#DDF8FF"/>
<path d="M162.586 68.5863V60.3467H154.346V68.5863H162.586Z" fill="#DDF8FF"/>
<path d="M170.842 68.5863V60.3467H162.602V68.5863H170.842Z" fill="#DDF8FF"/>
<path d="M179.098 68.6029V60.3633H170.858V68.6029H179.098Z" fill="#DDF8FF"/>
<path d="M187.355 68.5863V60.3467H179.116V68.5863H187.355Z" fill="#DDF8FF"/>
<path d="M195.594 68.6029V60.3633H187.354V68.6029H195.594Z" fill="#DDF8FF"/>
<path d="M203.852 68.5863V60.3467H195.612V68.5863H203.852Z" fill="#DDF8FF"/>
<path d="M212.09 68.6029V60.3633H203.85V68.6029H212.09Z" fill="#DDF8FF"/>
<path d="M220.346 68.5863V60.3467H212.106V68.5863H220.346Z" fill="#DDF8FF"/>
<path d="M228.586 68.6029V60.3633H220.346V68.6029H228.586Z" fill="#DDF8FF"/>
<path d="M236.842 68.5863V60.3467H228.602V68.5863H236.842Z" fill="#DDF8FF"/>
<path d="M245.098 68.6029V60.3633H236.858V68.6029H245.098Z" fill="#DDF8FF"/>
<path d="M253.338 68.5863V60.3467H245.098V68.5863H253.338Z" fill="#DDF8FF"/>
<path d="M261.594 68.5863V60.3467H253.354V68.5863H261.594Z" fill="#DDF8FF"/>
<path d="M269.834 68.5863V60.3467H261.594V68.5863H269.834Z" fill="#DDF8FF"/>
<path d="M278.09 68.5863V60.3467H269.85V68.5863H278.09Z" fill="#DDF8FF"/>
<path d="M286.33 68.5863V60.3467H278.09V68.5863H286.33Z" fill="#DDF8FF"/>
<path d="M294.586 68.5862V60.3467H286.346V68.5862H294.586Z" fill="#DDF8FF"/>
<path d="M302.063 76.7598H310.303V68.5202H302.063V76.7598Z" fill="#DDF8FF"/>
<path d="M293.823 76.7598H302.062V68.5202H293.823V76.7598Z" fill="#DDF8FF"/>
<path d="M310.268 76.7598H318.508V68.5202H310.268V76.7598Z" fill="#DDF8FF"/>
<path d="M318.493 76.7598H326.732V68.5202H318.493V76.7598Z" fill="#DDF8FF"/>
<path d="M162.586 76.7435V68.5039H154.346V76.7435H162.586Z" fill="#DDF8FF"/>
<path d="M170.842 76.7435V68.5039H162.602V76.7435H170.842Z" fill="#DDF8FF"/>
<path d="M179.098 76.7591V68.5195H170.858V76.7591H179.098Z" fill="#DDF8FF"/>
<path d="M187.355 76.7435V68.5039H179.116V76.7435H187.355Z" fill="#DDF8FF"/>
<path d="M195.594 76.7591V68.5195H187.354V76.7591H195.594Z" fill="#DDF8FF"/>
<path d="M203.852 76.7435V68.5039H195.612V76.7435H203.852Z" fill="#DDF8FF"/>
<path d="M212.09 76.7591V68.5195H203.85V76.7591H212.09Z" fill="#DDF8FF"/>
<path d="M220.346 76.7435V68.5039H212.106V76.7435H220.346Z" fill="#DDF8FF"/>
<path d="M228.586 76.7591V68.5195H220.346V76.7591H228.586Z" fill="#DDF8FF"/>
<path d="M236.842 76.7435V68.5039H228.602V76.7435H236.842Z" fill="#DDF8FF"/>
<path d="M245.098 76.7435V68.5039H236.858V76.7435H245.098Z" fill="#DDF8FF"/>
<path d="M253.338 76.7435V68.5039H245.098V76.7435H253.338Z" fill="#DDF8FF"/>
<path d="M261.594 76.7435V68.5039H253.354V76.7435H261.594Z" fill="#DDF8FF"/>
<path d="M269.834 76.7435V68.5039H261.594V76.7435H269.834Z" fill="#DDF8FF"/>
<path d="M278.09 76.7435V68.5039H269.85V76.7435H278.09Z" fill="#DDF8FF"/>
<path d="M286.33 76.7435V68.5039H278.09V76.7435H286.33Z" fill="#DDF8FF"/>
<path d="M294.586 76.7435V68.5039H286.346V76.7435H294.586Z" fill="#DDF8FF"/>
<path d="M302.063 84.916H310.303V76.6764H302.063V84.916Z" fill="#DDF8FF"/>
<path d="M293.823 84.916H302.062V76.6764H293.823V84.916Z" fill="#DDF8FF"/>
<path d="M310.268 84.916H318.508V76.6764H310.268V84.916Z" fill="#DDF8FF"/>
<path d="M318.493 84.916H326.732V76.6764H318.493V84.916Z" fill="#DDF8FF"/>
<path d="M162.586 84.8997V76.6602H154.346V84.8997H162.586Z" fill="#DDF8FF"/>
<path d="M170.842 84.8997V76.6602H162.602V84.8997H170.842Z" fill="#DDF8FF"/>
<path d="M179.098 84.9164V76.6768H170.858V84.9164H179.098Z" fill="#DDF8FF"/>
<path d="M187.355 84.8997V76.6602H179.116V84.8997H187.355Z" fill="#DDF8FF"/>
<path d="M195.594 84.9164V76.6768H187.354V84.9164H195.594Z" fill="#DDF8FF"/>
<path d="M203.852 84.8997V76.6602H195.612V84.8997H203.852Z" fill="#DDF8FF"/>
<path d="M212.09 84.9164V76.6768H203.85V84.9164H212.09Z" fill="#DDF8FF"/>
<path d="M220.346 84.8997V76.6602H212.106V84.8997H220.346Z" fill="#DDF8FF"/>
<path d="M228.586 84.9164V76.6768H220.346V84.9164H228.586Z" fill="#DDF8FF"/>
<path d="M236.842 84.8997V76.6602H228.602V84.8997H236.842Z" fill="#DDF8FF"/>
<path d="M245.098 84.8997V76.6602H236.858V84.8997H245.098Z" fill="#DDF8FF"/>
<path d="M253.338 84.8997V76.6602H245.098V84.8997H253.338Z" fill="#DDF8FF"/>
<path d="M261.594 84.8997V76.6602H253.354V84.8997H261.594Z" fill="#DDF8FF"/>
<path d="M269.834 84.8997V76.6602H261.594V84.8997H269.834Z" fill="#DDF8FF"/>
<path d="M278.09 84.8997V76.6602H269.85V84.8997H278.09Z" fill="#DDF8FF"/>
<path d="M286.33 84.8997V76.6602H278.09V84.8997H286.33Z" fill="#DDF8FF"/>
<path d="M294.586 84.8997V76.6602H286.346V84.8997H294.586Z" fill="#DDF8FF"/>
<path d="M302.063 93.0732H310.303V84.8336H302.063V93.0732Z" fill="#DDF8FF"/>
<path d="M293.823 93.0732H302.062V84.8336H293.823V93.0732Z" fill="#DDF8FF"/>
<path d="M310.268 93.0732H318.508V84.8336H310.268V93.0732Z" fill="#DDF8FF"/>
<path d="M318.493 93.0732H326.732V84.8336H318.493V93.0732Z" fill="#DDF8FF"/>
<path d="M162.586 93.056V84.8164H154.346V93.056H162.586Z" fill="#DDF8FF"/>
<path d="M170.842 93.056V84.8164H162.602V93.056H170.842Z" fill="#DDF8FF"/>
<path d="M179.098 93.0736V84.834H170.858V93.0736H179.098Z" fill="#DDF8FF"/>
<path d="M187.355 93.056V84.8164H179.116V93.056H187.355Z" fill="#DDF8FF"/>
<path d="M195.594 93.0736V84.834H187.354V93.0736H195.594Z" fill="#DDF8FF"/>
<path d="M203.852 93.056V84.8164H195.612V93.056H203.852Z" fill="#DDF8FF"/>
<path d="M212.09 93.0736V84.834H203.85V93.0736H212.09Z" fill="#DDF8FF"/>
<path d="M220.346 93.056V84.8164H212.106V93.056H220.346Z" fill="#DDF8FF"/>
<path d="M228.586 93.0736V84.834H220.346V93.0736H228.586Z" fill="#DDF8FF"/>
<path d="M236.842 93.056V84.8164H228.602V93.056H236.842Z" fill="#DDF8FF"/>
<path d="M245.098 93.056V84.8164H236.858V93.056H245.098Z" fill="#DDF8FF"/>
<path d="M253.338 93.056V84.8164H245.098V93.056H253.338Z" fill="#DDF8FF"/>
<path d="M261.594 93.056V84.8164H253.354V93.056H261.594Z" fill="#DDF8FF"/>
<path d="M269.834 93.056V84.8164H261.594V93.056H269.834Z" fill="#DDF8FF"/>
<path d="M278.09 93.056V84.8164H269.85V93.056H278.09Z" fill="#DDF8FF"/>
<path d="M286.33 93.056V84.8164H278.09V93.056H286.33Z" fill="#DDF8FF"/>
<path d="M294.586 93.056V84.8164H286.346V93.056H294.586Z" fill="#DDF8FF"/>
<path d="M302.063 101.229H310.303V92.9899H302.063V101.229Z" fill="#DDF8FF"/>
<path d="M293.823 101.229H302.062V92.9899H293.823V101.229Z" fill="#DDF8FF"/>
<path d="M310.268 101.229H318.508V92.9899H310.268V101.229Z" fill="#DDF8FF"/>
<path d="M318.493 101.229H326.732V92.9899H318.493V101.229Z" fill="#DDF8FF"/>
<path d="M162.586 101.213V92.9736H154.346V101.213H162.586Z" fill="#DDF8FF"/>
<path d="M170.842 101.213V92.9736H162.602V101.213H170.842Z" fill="#DDF8FF"/>
<path d="M179.098 101.23V92.9902H170.858V101.23H179.098Z" fill="#DDF8FF"/>
<path d="M187.355 101.213V92.9736H179.116V101.213H187.355Z" fill="#DDF8FF"/>
<path d="M195.594 101.23V92.9902H187.354V101.23H195.594Z" fill="#DDF8FF"/>
<path d="M203.852 101.213V92.9736H195.612V101.213H203.852Z" fill="#DDF8FF"/>
<path d="M212.09 101.23V92.9902H203.85V101.23H212.09Z" fill="#DDF8FF"/>
<path d="M220.346 101.213V92.9736H212.106V101.213H220.346Z" fill="#DDF8FF"/>
<path d="M228.586 101.23V92.9902H220.346V101.23H228.586Z" fill="#DDF8FF"/>
<path d="M236.842 101.213V92.9736H228.602V101.213H236.842Z" fill="#DDF8FF"/>
<path d="M245.098 101.213V92.9736H236.858V101.213H245.098Z" fill="#DDF8FF"/>
<path d="M253.338 101.213V92.9736H245.098V101.213H253.338Z" fill="#DDF8FF"/>
<path d="M261.594 101.213V92.9736H253.354V101.213H261.594Z" fill="#DDF8FF"/>
<path d="M269.834 101.213V92.9736H261.594V101.213H269.834Z" fill="#DDF8FF"/>
<path d="M278.09 101.213V92.9736H269.85V101.213H278.09Z" fill="#DDF8FF"/>
<path d="M286.33 101.213V92.9736H278.09V101.213H286.33Z" fill="#DDF8FF"/>
<path d="M294.586 101.213V92.9736H286.346V101.213H294.586Z" fill="#DDF8FF"/>
<path d="M302.063 109.387H310.303V101.147H302.063V109.387Z" fill="#DDF8FF"/>
<path d="M293.823 109.387H302.062V101.147H293.823V109.387Z" fill="#DDF8FF"/>
<path d="M310.268 109.387H318.508V101.147H310.268V109.387Z" fill="#DDF8FF"/>
<path d="M318.493 109.387H326.732V101.147H318.493V109.387Z" fill="#DDF8FF"/>
<path d="M162.586 109.369V101.13H154.346V109.369H162.586Z" fill="#DDF8FF"/>
<path d="M170.842 109.369V101.13H162.602V109.369H170.842Z" fill="#DDF8FF"/>
<path d="M179.098 109.386V101.146H170.858V109.386H179.098Z" fill="#DDF8FF"/>
<path d="M187.355 109.369V101.13H179.116V109.369H187.355Z" fill="#DDF8FF"/>
<path d="M195.594 109.386V101.146H187.354V109.386H195.594Z" fill="#DDF8FF"/>
<path d="M203.852 109.369V101.13H195.612V109.369H203.852Z" fill="#DDF8FF"/>
<path d="M212.09 109.386V101.146H203.85V109.386H212.09Z" fill="#DDF8FF"/>
<path d="M220.346 109.369V101.13H212.106V109.369H220.346Z" fill="#DDF8FF"/>
<path d="M228.586 109.386V101.146H220.346V109.386H228.586Z" fill="#DDF8FF"/>
<path d="M236.842 109.369V101.13H228.602V109.369H236.842Z" fill="#DDF8FF"/>
<path d="M245.082 109.369V101.13H236.842V109.369H245.082Z" fill="#DDF8FF"/>
<path d="M253.338 109.369V101.13H245.098V109.369H253.338Z" fill="#DDF8FF"/>
<path d="M261.594 109.369V101.13H253.354V109.369H261.594Z" fill="#DDF8FF"/>
<path d="M269.834 109.369V101.13H261.594V109.369H269.834Z" fill="#DDF8FF"/>
<path d="M278.09 109.369V101.13H269.85V109.369H278.09Z" fill="#DDF8FF"/>
<path d="M286.33 109.369V101.13H278.09V109.369H286.33Z" fill="#DDF8FF"/>
<path d="M294.586 109.369V101.13H286.346V109.369H294.586Z" fill="#DDF8FF"/>
<path d="M302.063 117.543H310.303V109.303H302.063V117.543Z" fill="#DDF8FF"/>
<path d="M293.823 117.543H302.062V109.303H293.823V117.543Z" fill="#DDF8FF"/>
<path d="M310.268 117.543H318.508V109.303H310.268V117.543Z" fill="#DDF8FF"/>
<path d="M318.493 117.543H326.732V109.303H318.493V117.543Z" fill="#DDF8FF"/>
<path d="M162.586 117.527V109.287H154.346V117.527H162.586Z" fill="#DDF8FF"/>
<path d="M170.842 117.527V109.287H162.602V117.527H170.842Z" fill="#DDF8FF"/>
<path d="M179.098 117.543V109.304H170.858V117.543H179.098Z" fill="#DDF8FF"/>
<path d="M187.355 117.527V109.287H179.116V117.527H187.355Z" fill="#DDF8FF"/>
<path d="M195.594 117.543V109.304H187.354V117.543H195.594Z" fill="#DDF8FF"/>
<path d="M203.852 117.527V109.287H195.612V117.527H203.852Z" fill="#DDF8FF"/>
<path d="M212.09 117.543V109.304H203.85V117.543H212.09Z" fill="#DDF8FF"/>
<path d="M220.346 117.527V109.287H212.106V117.527H220.346Z" fill="#DDF8FF"/>
<path d="M228.586 117.543V109.304H220.346V117.543H228.586Z" fill="#DDF8FF"/>
<path d="M236.842 117.527V109.287H228.602V117.527H236.842Z" fill="#DDF8FF"/>
<path d="M245.082 117.527V109.287H236.842V117.527H245.082Z" fill="#DDF8FF"/>
<path d="M253.338 117.527V109.287H245.098V117.527H253.338Z" fill="#DDF8FF"/>
<path d="M261.594 117.527V109.287H253.354V117.527H261.594Z" fill="#DDF8FF"/>
<path d="M269.834 117.527V109.287H261.594V117.527H269.834Z" fill="#DDF8FF"/>
<path d="M278.09 117.527V109.287H269.85V117.527H278.09Z" fill="#DDF8FF"/>
<path d="M286.33 117.527V109.287H278.09V117.527H286.33Z" fill="#DDF8FF"/>
<path d="M294.586 117.527V109.287H286.346V117.527H294.586Z" fill="#DDF8FF"/>
<path d="M302.063 125.7H310.303V117.461H302.063V125.7Z" fill="#DDF8FF"/>
<path d="M293.823 125.7H302.062V117.461H293.823V125.7Z" fill="#DDF8FF"/>
<path d="M310.268 125.7H318.508V117.461H310.268V125.7Z" fill="#DDF8FF"/>
<path d="M318.493 125.7H326.732V117.461H318.493V125.7Z" fill="#DDF8FF"/>
<path d="M162.586 125.683V117.443H154.346V125.683H162.586Z" fill="#DDF8FF"/>
<path d="M170.842 125.683V117.443H162.602V125.683H170.842Z" fill="#DDF8FF"/>
<path d="M179.098 125.7V117.46H170.858V125.7H179.098Z" fill="#DDF8FF"/>
<path d="M187.355 125.683V117.443H179.116V125.683H187.355Z" fill="#DDF8FF"/>
<path d="M195.594 125.7V117.46H187.354V125.7H195.594Z" fill="#DDF8FF"/>
<path d="M203.852 125.683V117.443H195.612V125.683H203.852Z" fill="#DDF8FF"/>
<path d="M212.09 125.7V117.46H203.85V125.7H212.09Z" fill="#DDF8FF"/>
<path d="M220.346 125.683V117.443H212.106V125.683H220.346Z" fill="#DDF8FF"/>
<path d="M228.586 125.7V117.46H220.346V125.7H228.586Z" fill="#DDF8FF"/>
<path d="M236.842 125.683V117.443H228.602V125.683H236.842Z" fill="#DDF8FF"/>
<path d="M245.082 125.683V117.443H236.842V125.683H245.082Z" fill="#DDF8FF"/>
<path d="M253.338 125.683V117.443H245.098V125.683H253.338Z" fill="#DDF8FF"/>
<path d="M261.594 125.683V117.443H253.354V125.683H261.594Z" fill="#DDF8FF"/>
<path d="M269.834 125.683V117.443H261.594V125.683H269.834Z" fill="#DDF8FF"/>
<path d="M278.09 125.683V117.443H269.85V125.683H278.09Z" fill="#DDF8FF"/>
<path d="M286.33 125.683V117.443H278.09V125.683H286.33Z" fill="#DDF8FF"/>
<path d="M294.586 125.683V117.443H286.346V125.683H294.586Z" fill="#DDF8FF"/>
<path d="M302.063 133.856H310.303V125.617H302.063V133.856Z" fill="#DDF8FF"/>
<path d="M293.823 133.856H302.062V125.617H293.823V133.856Z" fill="#DDF8FF"/>
<path d="M310.268 133.856H318.508V125.617H310.268V133.856Z" fill="#DDF8FF"/>
<path d="M318.493 133.856H326.732V125.617H318.493V133.856Z" fill="#DDF8FF"/>
<path d="M162.586 133.84V125.601H154.346V133.84H162.586Z" fill="#DDF8FF"/>
<path d="M170.842 133.84V125.601H162.602V133.84H170.842Z" fill="#DDF8FF"/>
<path d="M179.098 133.856V125.616H170.858V133.856H179.098Z" fill="#DDF8FF"/>
<path d="M187.355 133.84V125.601H179.116V133.84H187.355Z" fill="#DDF8FF"/>
<path d="M195.594 133.856V125.616H187.354V133.856H195.594Z" fill="#DDF8FF"/>
<path d="M203.852 133.84V125.601H195.612V133.84H203.852Z" fill="#DDF8FF"/>
<path d="M212.09 133.856V125.616H203.85V133.856H212.09Z" fill="#DDF8FF"/>
<path d="M220.346 133.84V125.601H212.106V133.84H220.346Z" fill="#DDF8FF"/>
<path d="M228.586 133.856V125.616H220.346V133.856H228.586Z" fill="#DDF8FF"/>
<path d="M236.842 133.84V125.601H228.602V133.84H236.842Z" fill="#DDF8FF"/>
<path d="M245.082 133.84V125.601H236.842V133.84H245.082Z" fill="#DDF8FF"/>
<path d="M253.338 133.84V125.601H245.098V133.84H253.338Z" fill="#DDF8FF"/>
<path d="M261.594 133.84V125.601H253.354V133.84H261.594Z" fill="#DDF8FF"/>
<path d="M269.834 133.84V125.601H261.594V133.84H269.834Z" fill="#DDF8FF"/>
<path d="M278.09 133.84V125.601H269.85V133.84H278.09Z" fill="#DDF8FF"/>
<path d="M286.33 133.84V125.601H278.09V133.84H286.33Z" fill="#DDF8FF"/>
<path d="M294.586 133.84V125.601H286.346V133.84H294.586Z" fill="#DDF8FF"/>
<path d="M302.063 142.013H310.303V133.773H302.063V142.013Z" fill="#DDF8FF"/>
<path d="M293.823 142.013H302.062V133.773H293.823V142.013Z" fill="#DDF8FF"/>
<path d="M310.268 142.013H318.508V133.773H310.268V142.013Z" fill="#DDF8FF"/>
<path d="M318.493 142.013H326.732V133.773H318.493V142.013Z" fill="#DDF8FF"/>
<path d="M162.586 141.996V133.757H154.346V141.996H162.586Z" fill="#DDF8FF"/>
<path d="M170.842 141.996V133.757H162.602V141.996H170.842Z" fill="#DDF8FF"/>
<path d="M179.098 142.013V133.773H170.858V142.013H179.098Z" fill="#DDF8FF"/>
<path d="M187.355 141.996V133.757H179.116V141.996H187.355Z" fill="#DDF8FF"/>
<path d="M195.594 142.013V133.773H187.354V142.013H195.594Z" fill="#DDF8FF"/>
<path d="M203.852 141.996V133.757H195.612V141.996H203.852Z" fill="#DDF8FF"/>
<path d="M212.09 142.013V133.773H203.85V142.013H212.09Z" fill="#DDF8FF"/>
<path d="M220.346 141.996V133.757H212.106V141.996H220.346Z" fill="#DDF8FF"/>
<path d="M228.586 141.996V133.757H220.346V141.996H228.586Z" fill="#DDF8FF"/>
<path d="M236.842 141.996V133.757H228.602V141.996H236.842Z" fill="#DDF8FF"/>
<path d="M245.082 141.996V133.757H236.842V141.996H245.082Z" fill="#DDF8FF"/>
<path d="M253.338 141.996V133.757H245.098V141.996H253.338Z" fill="#DDF8FF"/>
<path d="M261.594 141.996V133.757H253.354V141.996H261.594Z" fill="#DDF8FF"/>
<path d="M269.834 141.996V133.757H261.594V141.996H269.834Z" fill="#DDF8FF"/>
<path d="M278.09 141.996V133.757H269.85V141.996H278.09Z" fill="#DDF8FF"/>
<path d="M286.33 141.996V133.757H278.09V141.996H286.33Z" fill="#DDF8FF"/>
<path d="M294.586 141.996V133.757H286.346V141.996H294.586Z" fill="#DDF8FF"/>
<path d="M302.063 150.17H310.303V141.93H302.063V150.17Z" fill="#DDF8FF"/>
<path d="M293.823 150.17H302.062V141.93H293.823V150.17Z" fill="#DDF8FF"/>
<path d="M310.268 150.17H318.508V141.93H310.268V150.17Z" fill="#DDF8FF"/>
<path d="M170.842 150.153V141.913H162.602V150.153H170.842Z" fill="#DDF8FF"/>
<path d="M179.098 150.17V141.931H170.858V150.17H179.098Z" fill="#DDF8FF"/>
<path d="M187.355 150.153V141.913H179.116V150.153H187.355Z" fill="#DDF8FF"/>
<path d="M195.594 150.17V141.931H187.354V150.17H195.594Z" fill="#DDF8FF"/>
<path d="M203.852 150.153V141.913H195.612V150.153H203.852Z" fill="#DDF8FF"/>
<path d="M212.09 150.17V141.931H203.85V150.17H212.09Z" fill="#DDF8FF"/>
<path d="M220.346 150.153V141.913H212.106V150.153H220.346Z" fill="#DDF8FF"/>
<path d="M228.586 150.153V141.913H220.346V150.153H228.586Z" fill="#DDF8FF"/>
<path d="M236.842 150.153V141.913H228.602V150.153H236.842Z" fill="#DDF8FF"/>
<path d="M245.082 150.153V141.913H236.842V150.153H245.082Z" fill="#DDF8FF"/>
<path d="M253.338 150.153V141.913H245.098V150.153H253.338Z" fill="#DDF8FF"/>
<path d="M261.594 150.153V141.913H253.354V150.153H261.594Z" fill="#DDF8FF"/>
<path d="M269.834 150.153V141.913H261.594V150.153H269.834Z" fill="#DDF8FF"/>
<path d="M278.09 150.153V141.913H269.85V150.153H278.09Z" fill="#DDF8FF"/>
<path d="M286.33 150.153V141.913H278.09V150.153H286.33Z" fill="#DDF8FF"/>
<path d="M294.586 150.153V141.913H286.346V150.153H294.586Z" fill="#DDF8FF"/>
<path d="M302.063 158.326H310.303V150.087H302.063V158.326Z" fill="#DDF8FF"/>
<path d="M293.823 158.326H302.062V150.087H293.823V158.326Z" fill="#DDF8FF"/>
<path d="M179.098 158.327V150.087H170.858V158.327H179.098Z" fill="#DDF8FF"/>
<path d="M187.355 158.31V150.07H179.116V158.31H187.355Z" fill="#DDF8FF"/>
<path d="M195.594 158.327V150.087H187.354V158.327H195.594Z" fill="#DDF8FF"/>
<path d="M203.852 158.31V150.07H195.612V158.31H203.852Z" fill="#DDF8FF"/>
<path d="M212.09 158.327V150.087H203.85V158.327H212.09Z" fill="#DDF8FF"/>
<path d="M220.346 158.31V150.07H212.106V158.31H220.346Z" fill="#DDF8FF"/>
<path d="M228.586 158.31V150.07H220.346V158.31H228.586Z" fill="#DDF8FF"/>
<path d="M236.842 158.31V150.07H228.602V158.31H236.842Z" fill="#DDF8FF"/>
<path d="M245.082 158.31V150.07H236.842V158.31H245.082Z" fill="#DDF8FF"/>
<path d="M253.338 158.31V150.07H245.098V158.31H253.338Z" fill="#DDF8FF"/>
<path d="M261.594 158.31V150.07H253.354V158.31H261.594Z" fill="#DDF8FF"/>
<path d="M269.834 158.31V150.07H261.594V158.31H269.834Z" fill="#DDF8FF"/>
<path d="M278.09 158.31V150.07H269.85V158.31H278.09Z" fill="#DDF8FF"/>
<path d="M286.33 158.31V150.07H278.09V158.31H286.33Z" fill="#DDF8FF"/>
<path d="M294.586 158.31V150.07H286.346V158.31H294.586Z" fill="#DDF8FF"/>
<path d="M293.823 166.483H302.062V158.244H293.823V166.483Z" fill="#DDF8FF"/>
<path d="M187.355 166.467V158.228H179.116V166.467H187.355Z" fill="#DDF8FF"/>
<path d="M195.594 166.483V158.243H187.354V166.483H195.594Z" fill="#DDF8FF"/>
<path d="M203.852 166.467V158.228H195.612V166.467H203.852Z" fill="#DDF8FF"/>
<path d="M212.09 166.483V158.243H203.85V166.483H212.09Z" fill="#DDF8FF"/>
<path d="M220.346 166.467V158.228H212.106V166.467H220.346Z" fill="#DDF8FF"/>
<path d="M228.586 166.467V158.228H220.346V166.467H228.586Z" fill="#DDF8FF"/>
<path d="M236.842 166.467V158.228H228.602V166.467H236.842Z" fill="#DDF8FF"/>
<path d="M245.082 166.467V158.228H236.842V166.467H245.082Z" fill="#DDF8FF"/>
<path d="M253.338 166.467V158.228H245.098V166.467H253.338Z" fill="#DDF8FF"/>
<path d="M261.594 166.467V158.228H253.354V166.467H261.594Z" fill="#DDF8FF"/>
<path d="M269.834 166.467V158.228H261.594V166.467H269.834Z" fill="#DDF8FF"/>
<path d="M278.09 166.467V158.228H269.85V166.467H278.09Z" fill="#DDF8FF"/>
<path d="M286.33 166.467V158.228H278.09V166.467H286.33Z" fill="#DDF8FF"/>
<path d="M294.586 166.467V158.228H286.346V166.467H294.586Z" fill="#DDF8FF"/>
<path d="M302.063 165.322H310.303V157.083H302.063V165.322Z" fill="black"/>
<path d="M310.27 157.083H318.51V148.843H310.27V157.083Z" fill="black"/>
<path d="M318.493 148.826H326.732V140.587H318.493V148.826Z" fill="black"/>
<path d="M326.682 140.57H334.922V132.331H326.682V140.57Z" fill="black"/>
<path d="M326.682 132.314H334.922V124.075H326.682V132.314Z" fill="black"/>
<path d="M326.682 124.041H334.922V115.801H326.682V124.041Z" fill="black"/>
<path d="M326.682 115.769H334.922V107.529H326.682V115.769Z" fill="black"/>
<path d="M326.682 107.513H334.922V99.2731H326.682V107.513Z" fill="black"/>
<path d="M326.682 99.2393H334.922V90.9997H326.682V99.2393Z" fill="black"/>
<path d="M326.682 90.9834H334.922V82.7438H326.682V90.9834Z" fill="black"/>
<path d="M326.682 82.7109H334.922V74.4713H326.682V82.7109Z" fill="black"/>
<path d="M326.682 74.4385H334.922V66.1989H326.682V74.4385Z" fill="black"/>
<path d="M326.682 66.1816H334.922V57.942H326.682V66.1816Z" fill="black"/>
<path d="M326.682 57.9092H334.922V49.6696H326.682V57.9092Z" fill="black"/>
<path d="M146.106 140.57H154.346V132.331H146.106V140.57Z" fill="black"/>
<path d="M146.106 132.314H154.346V124.075H146.106V132.314Z" fill="black"/>
<path d="M146.106 124.041H154.346V115.801H146.106V124.041Z" fill="black"/>
<path d="M146.106 115.769H154.346V107.529H146.106V115.769Z" fill="black"/>
<path d="M146.106 107.513H154.346V99.2731H146.106V107.513Z" fill="black"/>
<path d="M146.106 99.2393H154.346V90.9997H146.106V99.2393Z" fill="black"/>
<path d="M146.106 90.9834H154.346V82.7438H146.106V90.9834Z" fill="black"/>
<path d="M146.106 82.7109H154.346V74.4713H146.106V82.7109Z" fill="black"/>
<path d="M146.106 74.4385H154.346V66.1989H146.106V74.4385Z" fill="black"/>
<path d="M146.106 66.1816H154.346V57.942H146.106V66.1816Z" fill="black"/>
<path d="M146.106 57.9092H154.346V49.6696H146.106V57.9092Z" fill="black"/>
<path d="M154.346 140.603V148.843H162.585V140.603H154.346Z" fill="black"/>
<path d="M162.604 148.859V157.099H170.843V148.859H162.604Z" fill="black"/>
<path d="M170.842 157.083V165.322H179.081V157.083H170.842Z" fill="black"/>
<path d="M302.063 24.752H310.303V16.5124H302.063V24.752Z" fill="black"/>
<path d="M293.823 16.4961H302.062V8.2565L293.823 8.2565V16.4961Z" fill="black"/>
<path d="M310.27 32.9912H318.51V24.7516H310.27V32.9912Z" fill="black"/>
<path d="M318.493 41.2471H326.732V33.0075H318.493V41.2471Z" fill="black"/>
<path d="M326.682 49.5039H334.922V41.2643H326.682V49.5039Z" fill="black"/>
<path d="M154.346 50.0172V41.2471H146.106V50.0172H154.346Z" fill="black"/>
<path d="M162.588 41.2308V32.9912H154.348V41.2308H162.588Z" fill="black"/>
<path d="M170.842 32.9749V24.7354H162.602V32.9749H170.842Z" fill="black"/>
<path d="M179.033 24.6527V16.4131H170.794V24.6527H179.033Z" fill="black"/>
<path d="M187.355 16.4798V8.24023H179.116V16.4798H187.355Z" fill="black"/>
<path d="M195.594 8.23959V0L187.354 0V8.23959H195.594Z" fill="black"/>
<path d="M203.852 8.23958V0L195.612 0V8.23958H203.852Z" fill="black"/>
<path d="M212.09 8.23959V0L203.85 0V8.23959H212.09Z" fill="black"/>
<path d="M220.348 8.23958V0L212.108 0V8.23958H220.348Z" fill="black"/>
<path d="M228.586 8.23959V0L220.346 0V8.23959H228.586Z" fill="black"/>
<path d="M236.844 8.23959V0L228.604 0V8.23959H236.844Z" fill="black"/>
<path d="M245.082 8.23959V0L236.842 0V8.23959H245.082Z" fill="black"/>
<path d="M253.338 8.23959V0L245.098 0V8.23959H253.338Z" fill="black"/>
<path d="M261.578 8.23959V0L253.339 0V8.23959H261.578Z" fill="black"/>
<path d="M269.834 8.23959V0L261.594 0V8.23959H269.834Z" fill="black"/>
<path d="M278.072 8.23959V0L269.833 0V8.23959H278.072Z" fill="black"/>
<path d="M286.33 8.23959V0L278.09 0V8.23959H286.33Z" fill="black"/>
<path d="M294.586 8.23957V0L286.346 0V8.23957H294.586Z" fill="black"/>
<path d="M211.99 165.156H203.701V173.446H211.99V165.156Z" fill="black"/>
<path d="M187.223 140.289H178.934V148.578H187.223V140.289Z" fill="black"/>
<path d="M187.223 98.792H178.934V107.081H187.223V98.792Z" fill="black"/>
<path d="M195.463 98.792H187.174V107.081H195.463V98.792Z" fill="black"/>
<path d="M203.701 98.792H195.412V107.081H203.701V98.792Z" fill="#4C3510"/>
<path d="M211.942 90.4863H203.652V98.7757H211.942V90.4863Z" fill="black"/>
<path d="M220.18 98.792H211.891V107.081H220.18V98.792Z" fill="black"/>
<path d="M228.42 98.792H220.131V107.081H228.42V98.792Z" fill="#4C3510"/>
<path d="M236.66 90.4863H228.371V98.7757H236.66V90.4863Z" fill="black"/>
<path d="M253.141 90.4863H244.852V98.7757H253.141V90.4863Z" fill="black"/>
<path d="M261.379 90.4863H253.09V98.7757H261.379V90.4863Z" fill="black"/>
<path d="M269.619 98.792H261.33V107.081H269.619V98.792Z" fill="black"/>
<path d="M277.858 90.4863H269.568V98.7757H277.858V90.4863Z" fill="black"/>
<path d="M286.098 140.289H277.809V148.578H286.098V140.289Z" fill="black"/>
<path d="M286.098 98.792H277.809V107.081H286.098V98.792Z" fill="black"/>
<path d="M294.338 131.982H286.049V140.272H294.338V131.982Z" fill="black"/>
<path d="M294.338 107.081H286.049V115.37H294.338V107.081Z" fill="black"/>
<path d="M302.576 131.982H294.287V140.272H302.576V131.982Z" fill="black"/>
<path d="M302.576 98.792H294.287V107.081H302.576V98.792Z" fill="black"/>
<path d="M310.817 131.982H302.527V140.272H310.817V131.982Z" fill="black"/>
<path d="M310.817 90.4863H302.527V98.7757H310.817V90.4863Z" fill="black"/>
<path d="M195.463 148.562H187.174V156.851H195.463V148.562Z" fill="black"/>
<path d="M277.858 148.562H269.568V156.851H277.858V148.562Z" fill="black"/>
<path d="M203.701 156.834H195.412V165.123H203.701V156.834Z" fill="black"/>
<path d="M211.942 156.834H203.652V165.123H211.942V156.834Z" fill="black"/>
<path d="M261.379 156.834H253.09V165.123H261.379V156.834Z" fill="black"/>
<path d="M269.619 156.834H261.33V165.123H269.619V156.834Z" fill="black"/>
<path d="M220.18 165.124H211.891V173.413H220.18V165.124Z" fill="black"/>
<path d="M228.42 165.124H220.131V173.413H228.42V165.124Z" fill="black"/>
<path d="M236.66 165.124H228.371V173.413H236.66V165.124Z" fill="black"/>
<path d="M244.899 165.124H236.609V173.413H244.899V165.124Z" fill="black"/>
<path d="M253.141 165.124H244.852V173.413H253.141V165.124Z" fill="black"/>
<path d="M261.379 165.124H253.09V173.413H261.379V165.124Z" fill="#F6F2EC"/>
<path d="M269.619 165.124H261.33V173.413H269.619V165.124Z" fill="#F6F2EC"/>
<path d="M277.858 165.124H269.568V173.413H277.858V165.124Z" fill="black"/>
<path d="M294.537 165.124H286.248V173.413H294.537V165.124Z" fill="black"/>
<path opacity="0.3" d="M212.041 173.38H203.752V181.669H212.041V173.38Z" fill="black"/>
<path d="M203.801 181.669H195.512V189.958H203.801V181.669Z" fill="#DAD6D0"/>
<path opacity="0.3" d="M212.041 181.669H203.752V189.958H212.041V181.669Z" fill="black"/>
<path d="M195.561 189.941H187.271V198.231H195.561V189.941Z" fill="#F6F2EC"/>
<path d="M203.801 189.941H195.512V198.231H203.801V189.941Z" fill="#DAD6D0"/>
<path d="M212.041 189.941H203.752V198.231H212.041V189.941Z" fill="black"/>
<path d="M187.323 198.23H179.033V206.52H187.323V198.23Z" fill="#F6F2EC"/>
<path d="M195.561 181.735H187.271V190.025H195.561V181.735Z" fill="#F6F2EC"/>
<path d="M203.801 173.429H195.512V181.718H203.801V173.429Z" fill="#DAD6D0"/>
<path d="M195.561 173.513H187.271V181.802H195.561V173.513Z" fill="black"/>
<path d="M187.323 181.785H179.033V189.809H187.323V181.785Z" fill="black"/>
<path d="M195.561 198.23H187.271V206.52H195.561V198.23Z" fill="#DAD6D0"/>
<path d="M203.801 198.23H195.512V206.52H203.801V198.23Z" fill="black"/>
<path d="M187.323 206.504H179.033V214.793H187.323V206.504Z" fill="#DAD6D0"/>
<path d="M179.215 198.23H170.926V206.52H179.215V198.23Z" fill="#F6F2EC"/>
<path d="M179.215 189.941H170.926V198.231H179.215V189.941Z" fill="black"/>
<path d="M179.215 206.504H170.926V214.793H179.215V206.504Z" fill="#F6F2EC"/>
<path d="M171.125 198.23H162.836V206.52H171.125V198.23Z" fill="black"/>
<path d="M195.561 206.504H187.271V214.793H195.561V206.504Z" fill="black"/>
<path d="M211.942 173.396H203.652V181.685H211.942V173.396Z" fill="black"/>
<path d="M220.18 173.396H211.891V181.685H220.18V173.396Z" fill="#DAD6D0"/>
<path d="M228.42 173.396H220.131V181.685H228.42V173.396Z" fill="#DAD6D0"/>
<path d="M236.66 173.396H228.371V181.685H236.66V173.396Z" fill="#DAD6D0"/>
<path d="M244.899 173.396H236.609V181.685H244.899V173.396Z" fill="#DAD6D0"/>
<path d="M253.141 173.396H244.852V181.685H253.141V173.396Z" fill="#DAD6D0"/>
<path d="M261.379 173.396H253.09V181.685H261.379V173.396Z" fill="#DAD6D0"/>
<path d="M269.619 173.396H261.33V181.685H269.619V173.396Z" fill="#DAD6D0"/>
<path d="M277.858 173.396H269.568V181.685H277.858V173.396Z" fill="black"/>
<path d="M211.942 181.669H203.652V189.958H211.942V181.669Z" fill="black"/>
<path d="M211.908 181.669H203.619V189.958H211.908V181.669Z" fill="black"/>
<path d="M220.18 181.669H211.891V189.958H220.18V181.669Z" fill="#F6F2EC"/>
<path d="M228.42 181.669H220.131V189.958H228.42V181.669Z" fill="#F6F2EC"/>
<path d="M236.66 181.669H228.371V189.958H236.66V181.669Z" fill="#F6F2EC"/>
<path d="M244.899 181.669H236.609V189.958H244.899V181.669Z" fill="#F6F2EC"/>
<path d="M253.141 181.669H244.852V189.958H253.141V181.669Z" fill="#F6F2EC"/>
<path opacity="0.3" d="M261.379 181.669H253.09V189.958H261.379V181.669Z" fill="black"/>
<path d="M269.619 181.669H261.33V189.958H269.619V181.669Z" fill="#F6F2EC"/>
<path d="M277.858 181.669H269.568V189.958H277.858V181.669Z" fill="#DAD6D0"/>
<path opacity="0.3" d="M211.908 189.958H203.619V198.247H211.908V189.958Z" fill="black"/>
<path d="M220.18 189.941H211.891V198.231H220.18V189.941Z" fill="#DAD6D0"/>
<path d="M228.42 189.941H220.131V198.231H228.42V189.941Z" fill="#DAD6D0"/>
<path d="M236.66 189.941H228.371V198.231H236.66V189.941Z" fill="#DAD6D0"/>
<path d="M244.899 189.941H236.609V198.231H244.899V189.941Z" fill="#DAD6D0"/>
<path d="M253.141 189.941H244.852V198.231H253.141V189.941Z" fill="#DAD6D0"/>
<path d="M261.479 181.636H253.189V189.925H261.479V181.636Z" fill="black"/>
<path d="M286.198 181.636H277.908V189.925H286.198V181.636Z" fill="black"/>
<path opacity="0.3" d="M211.908 198.23H203.619V206.52H211.908V198.23Z" fill="black"/>
<path d="M220.18 198.23H211.891V206.52H220.18V198.23Z" fill="#F6F2EC"/>
<path d="M228.42 198.23H220.131V206.52H228.42V198.23Z" fill="#D6122A"/>
<path d="M236.66 198.23H228.371V206.52H236.66V198.23Z" fill="#D6122A"/>
<path d="M244.899 198.23H236.609V206.52H244.899V198.23Z" fill="#D6122A"/>
<path d="M253.141 198.23H244.852V206.52H253.141V198.23Z" fill="#F6F2EC"/>
<path d="M261.479 189.908H253.189V198.198H261.479V189.908Z" fill="black"/>
<path d="M269.719 189.908H261.43V198.198H269.719V189.908Z" fill="#F6F2EC"/>
<path d="M277.957 189.908H269.668V198.198H277.957V189.908Z" fill="#DAD6D0"/>
<path d="M286.198 189.908H277.908V198.198H286.198V189.908Z" fill="black"/>
<path d="M211.908 206.52H203.619V214.809H211.908V206.52Z" fill="#FDEAE0"/>
<path d="M220.18 206.504H211.891V214.793H220.18V206.504Z" fill="#F6F2EC"/>
<path d="M228.42 206.504H220.131V214.793H228.42V206.504Z" fill="#F6F2EC"/>
<path d="M236.66 206.504H228.371V214.793H236.66V206.504Z" fill="#F6F2EC"/>
<path d="M244.899 206.504H236.609V214.793H244.899V206.504Z" fill="#F6F2EC"/>
<path d="M253.141 206.504H244.852V214.793H253.141V206.504Z" fill="black"/>
<path d="M261.479 198.197H253.189V206.487H261.479V198.197Z" fill="black"/>
<path d="M269.719 198.197H261.43V206.487H269.719V198.197Z" fill="#F6F2EC"/>
<path d="M277.957 198.197H269.668V206.487H277.957V198.197Z" fill="#DAD6D0"/>
<path d="M286.198 198.197H277.908V206.487H286.198V198.197Z" fill="black"/>
<path d="M261.479 206.471H253.189V214.76H261.479V206.471Z" fill="#F6F2EC"/>
<path d="M269.719 206.471H261.43V214.76H269.719V206.471Z" fill="#F6F2EC"/>
<path d="M277.957 206.471H269.668V214.76H277.957V206.471Z" fill="#DAD6D0"/>
<path d="M286.198 206.471H277.908V214.76H286.198V206.471Z" fill="black"/>
<path d="M195.463 123.677H187.174V131.966H195.463V123.677Z" fill="#494442"/>
<path d="M195.463 115.388H187.174V123.677H195.463V115.388Z" fill="#494442"/>
<path d="M195.463 107.081H187.174V115.37H195.463V107.081Z" fill="black"/>
<path d="M203.701 123.677H195.412V131.966H203.701V123.677Z" fill="white"/>
<path d="M203.701 115.388H195.412V123.677H203.701V115.388Z" fill="white"/>
<path d="M203.701 107.081H195.412V115.37H203.701V107.081Z" fill="#D2C8C4"/>
<path d="M220.18 131.982H211.891V140.272H220.18V131.982Z" fill="#E1CCC2"/>
<path d="M220.18 123.677H211.891V131.966H220.18V123.677Z" fill="#E1CCC2"/>
<path d="M228.42 131.982H220.131V140.272H228.42V131.982Z" fill="#E1CCC2"/>
<path d="M253.141 123.677H244.852V131.966H253.141V123.677Z" fill="#494442"/>
<path d="M253.141 115.388H244.852V123.677H253.141V115.388Z" fill="#494442"/>
<path d="M253.141 107.081H244.852V115.37H253.141V107.081Z" fill="#494442"/>
<path d="M253.141 98.792H244.852V107.081H253.141V98.792Z" fill="black"/>
<path d="M261.379 123.677H253.09V131.966H261.379V123.677Z" fill="white"/>
<path d="M261.379 115.388H253.09V123.677H261.379V115.388Z" fill="white"/>
<path d="M261.379 107.081H253.09V115.37H261.379V107.081Z" fill="white"/>
<path d="M261.379 98.792H253.09V107.081H261.379V98.792Z" fill="#D2C8C4"/>
<path d="M269.619 115.388H261.33V123.677H269.619V115.388Z" fill="#FDEAE0"/>
<path d="M269.619 107.081H261.33V115.37H269.619V107.081Z" fill="#FDEAE0"/>
<path d="M302.576 115.388H294.287V123.677H302.576V115.388Z" fill="#E1CCC2"/>
<path d="M302.576 107.081H294.287V115.37H302.576V107.081Z" fill="#E1CCC2"/>
<path d="M228.42 148.562H220.131V156.851H228.42V148.562Z" fill="#494442"/>
<path d="M236.66 148.562H228.371V156.851H236.66V148.562Z" fill="#494442"/>
<path d="M187.223 131.982H178.934V140.272H187.223V131.982Z" fill="#FDEAE0"/>
<path d="M187.223 123.677H178.934V131.966H187.223V123.677Z" fill="#FDEAE0"/>
<path d="M187.223 115.388H178.934V123.677H187.223V115.388Z" fill="#FDEAE0"/>
<path d="M187.223 107.081H178.934V115.37H187.223V107.081Z" fill="#EED6CA"/>
<path d="M195.463 140.289H187.174V148.578H195.463V140.289Z" fill="#FDEAE0"/>
<path d="M195.463 131.982H187.174V140.272H195.463V131.982Z" fill="#FDEAE0"/>
<path d="M203.701 140.289H195.412V148.578H203.701V140.289Z" fill="#FDEAE0"/>
<path d="M203.701 131.982H195.412V140.272H203.701V131.982Z" fill="#FDEAE0"/>
<path d="M211.942 140.289H203.652V148.578H211.942V140.289Z" fill="#FDEAE0"/>
<path d="M211.942 131.982H203.652V140.272H211.942V131.982Z" fill="#FDEAE0"/>
<path d="M211.942 123.677H203.652V131.966H211.942V123.677Z" fill="#FDEAE0"/>
<path d="M211.942 115.388H203.652V123.677H211.942V115.388Z" fill="#FDEAE0"/>
<path d="M211.942 107.081H203.652V115.37H211.942V107.081Z" fill="#FDEAE0"/>
<path d="M211.942 98.792H203.652V107.081H211.942V98.792Z" fill="#EED6CA"/>
<path d="M220.18 140.289H211.891V148.578H220.18V140.289Z" fill="#FDEAE0"/>
<path d="M220.18 115.388H211.891V123.677H220.18V115.388Z" fill="#FDEAE0"/>
<path d="M220.18 107.081H211.891V115.37H220.18V107.081Z" fill="#FDEAE0"/>
<path d="M228.42 140.289H220.131V148.578H228.42V140.289Z" fill="#FDEAE0"/>
<path d="M228.42 123.677H220.131V131.966H228.42V123.677Z" fill="#FDEAE0"/>
<path d="M228.42 115.388H220.131V123.677H228.42V115.388Z" fill="#FDEAE0"/>
<path d="M228.42 107.081H220.131V115.37H228.42V107.081Z" fill="#FDEAE0"/>
<path d="M236.66 140.289H228.371V148.578H236.66V140.289Z" fill="#FDEAE0"/>
<path d="M236.66 131.982H228.371V140.272H236.66V131.982Z" fill="#FDEAE0"/>
<path d="M236.66 123.677H228.371V131.966H236.66V123.677Z" fill="#FDEAE0"/>
<path d="M236.66 115.388H228.371V123.677H236.66V115.388Z" fill="#FDEAE0"/>
<path d="M236.66 107.081H228.371V115.37H236.66V107.081Z" fill="#FDEAE0"/>
<path d="M236.66 98.792H228.371V107.081H236.66V98.792Z" fill="#EED6CA"/>
<path d="M244.899 140.289H236.609V148.578H244.899V140.289Z" fill="#FDEAE0"/>
<path d="M244.899 131.982H236.609V140.272H244.899V131.982Z" fill="#FDEAE0"/>
<path d="M244.899 123.677H236.609V131.966H244.899V123.677Z" fill="#FDEAE0"/>
<path d="M244.899 115.388H236.609V123.677H244.899V115.388Z" fill="#FDEAE0"/>
<path d="M244.899 107.081H236.609V115.37H244.899V107.081Z" fill="#FDEAE0"/>
<path d="M244.899 98.792H236.609V107.081H244.899V98.792Z" fill="#FDEAE0"/>
<path d="M253.141 140.289H244.852V148.578H253.141V140.289Z" fill="#FDEAE0"/>
<path d="M253.141 131.982H244.852V140.272H253.141V131.982Z" fill="#FDEAE0"/>
<path d="M261.379 140.289H253.09V148.578H261.379V140.289Z" fill="#FDEAE0"/>
<path d="M261.379 131.982H253.09V140.272H261.379V131.982Z" fill="#FDEAE0"/>
<path d="M269.619 140.289H261.33V148.578H269.619V140.289Z" fill="#FDEAE0"/>
<path d="M269.619 131.982H261.33V140.272H269.619V131.982Z" fill="#FDEAE0"/>
<path d="M269.619 123.677H261.33V131.966H269.619V123.677Z" fill="#FDEAE0"/>
<path d="M277.858 140.289H269.568V148.578H277.858V140.289Z" fill="#EED6CA"/>
<path d="M277.858 131.982H269.568V140.272H277.858V131.982Z" fill="#FDEAE0"/>
<path d="M277.858 123.677H269.568V131.966H277.858V123.677Z" fill="#FDEAE0"/>
<path d="M277.858 115.388H269.568V123.677H277.858V115.388Z" fill="#FDEAE0"/>
<path d="M277.858 107.081H269.568V115.37H277.858V107.081Z" fill="#FDEAE0"/>
<path d="M277.858 98.792H269.568V107.081H277.858V98.792Z" fill="#EED6CA"/>
<path d="M286.098 131.982H277.809V140.272H286.098V131.982Z" fill="#EED6CA"/>
<path d="M286.098 123.677H277.809V131.966H286.098V123.677Z" fill="#FDEAE0"/>
<path d="M286.098 115.388H277.809V123.677H286.098V115.388Z" fill="#FDEAE0"/>
<path d="M286.098 107.081H277.809V115.37H286.098V107.081Z" fill="#FDEAE0"/>
<path d="M294.338 123.677H286.049V131.966H294.338V123.677Z" fill="#FDEAE0"/>
<path d="M294.338 115.388H286.049V123.677H294.338V115.388Z" fill="#FDEAE0"/>
<path d="M302.576 123.677H294.287V131.966H302.576V123.677Z" fill="#FDEAE0"/>
<path d="M310.817 123.677H302.527V131.966H310.817V123.677Z" fill="#FDEAE0"/>
<path d="M310.817 115.388H302.527V123.677H310.817V115.388Z" fill="#FDEAE0"/>
<path d="M310.817 107.081H302.527V115.37H310.817V107.081Z" fill="#FDEAE0"/>
<path d="M310.817 98.792H302.527V107.081H310.817V98.792Z" fill="black"/>
<path d="M203.701 148.562H195.412V156.851H203.701V148.562Z" fill="#FDEAE0"/>
<path d="M211.942 148.562H203.652V156.851H211.942V148.562Z" fill="#FDEAE0"/>
<path d="M220.18 148.562H211.891V156.851H220.18V148.562Z" fill="#FDEAE0"/>
<path d="M244.899 148.562H236.609V156.851H244.899V148.562Z" fill="#FDEAE0"/>
<path d="M253.141 148.562H244.852V156.851H253.141V148.562Z" fill="#FDEAE0"/>
<path d="M261.379 148.562H253.09V156.851H261.379V148.562Z" fill="#EED6CA"/>
<path d="M269.619 148.562H261.33V156.851H269.619V148.562Z" fill="#EED6CA"/>
<path d="M220.18 156.834H211.891V165.123H220.18V156.834Z" fill="#EED6CA"/>
<path d="M228.42 156.834H220.131V165.123H228.42V156.834Z" fill="#EED6CA"/>
<path d="M236.66 156.834H228.371V165.123H236.66V156.834Z" fill="#EED6CA"/>
<path d="M244.899 156.834H236.609V165.123H244.899V156.834Z" fill="#EED6CA"/>
<path d="M253.141 156.834H244.852V165.123H253.141V156.834Z" fill="#EED6CA"/>
<path d="M178.983 123.677H170.693V131.966H178.983V123.677Z" fill="black"/>
<path d="M178.983 115.388H170.693V123.677H178.983V115.388Z" fill="black"/>
<path d="M178.983 107.081H170.693V115.37H178.983V107.081Z" fill="black"/>
<path d="M178.983 98.792H170.693V107.081H178.983V98.792Z" fill="#4C3510"/>
<path d="M178.983 90.4863H170.693V98.7757H178.983V90.4863Z" fill="black"/>
<path d="M170.744 90.4863H162.455V98.7757H170.744V90.4863Z" fill="black"/>
<path d="M244.899 90.4863H236.609V98.7757H244.899V90.4863Z" fill="black"/>
<path d="M187.223 90.4863H178.934V98.7757H187.223V90.4863Z" fill="black"/>
<path d="M187.223 32.3945H178.934V40.6839H187.223V32.3945Z" fill="black"/>
<path d="M195.463 90.4863H187.174V98.7757H195.463V90.4863Z" fill="black"/>
<path d="M195.463 24.1055H187.174V32.3948H195.463V24.1055Z" fill="black"/>
<path d="M203.701 90.4863H195.412V98.7757H203.701V90.4863Z" fill="black"/>
<path d="M203.701 15.7988H195.412V24.0882H203.701V15.7988Z" fill="black"/>
<path d="M211.942 15.7988H203.652V24.0882H211.942V15.7988Z" fill="black"/>
<path d="M220.18 90.4863H211.891V98.7757H220.18V90.4863Z" fill="black"/>
<path d="M220.18 15.7988H211.891V24.0882H220.18V15.7988Z" fill="black"/>
<path d="M228.42 90.4863H220.131V98.7757H228.42V90.4863Z" fill="black"/>
<path d="M228.42 15.7988H220.131V24.0882H228.42V15.7988Z" fill="black"/>
<path d="M236.66 15.7988H228.371V24.0882H236.66V15.7988Z" fill="black"/>
<path d="M244.899 15.7988H236.609V24.0882H244.899V15.7988Z" fill="black"/>
<path d="M253.141 15.7988H244.852V24.0882H253.141V15.7988Z" fill="black"/>
<path d="M261.379 15.7988H253.09V24.0882H261.379V15.7988Z" fill="black"/>
<path d="M269.619 90.4863H261.33V98.7757H269.619V90.4863Z" fill="black"/>
<path d="M269.619 15.7988H261.33V24.0882H269.619V15.7988Z" fill="black"/>
<path d="M277.858 15.7988H269.568V24.0882H277.858V15.7988Z" fill="black"/>
<path d="M286.098 90.4863H277.809V98.7757H286.098V90.4863Z" fill="black"/>
<path d="M286.098 15.7988H277.809V24.0882H286.098V15.7988Z" fill="black"/>
<path d="M294.338 98.792H286.049V107.081H294.338V98.792Z" fill="#4C3510"/>
<path d="M294.338 90.4863H286.049V98.7757H294.338V90.4863Z" fill="black"/>
<path d="M294.338 24.1055H286.049V32.3948H294.338V24.1055Z" fill="black"/>
<path d="M302.576 90.4863H294.287V98.7757H302.576V90.4863Z" fill="black"/>
<path d="M302.576 32.3945H294.287V40.6839H302.576V32.3945Z" fill="black"/>
<path d="M310.817 40.7002H302.527V48.9895H310.817V40.7002Z" fill="black"/>
<path d="M244.899 82.1973H236.609V90.4866H244.899V82.1973Z" fill="#DAD6D0"/>
<path d="M310.817 82.1973H302.527V90.4866H310.817V82.1973Z" fill="#DAD6D0"/>
<path d="M187.223 82.1973H178.934V90.4866H187.223V82.1973Z" fill="#DAD6D0"/>
<path d="M187.223 73.8906H178.934V82.18H187.223V73.8906Z" fill="#F6F2EC"/>
<path d="M187.223 65.6016H178.934V73.8909H187.223V65.6016Z" fill="#F6F2EC"/>
<path d="M187.223 57.2959H178.934V65.5852H187.223V57.2959Z" fill="#F6F2EC"/>
<path d="M187.223 48.9893H178.934V57.2786H187.223V48.9893Z" fill="#F6F2EC"/>
<path d="M187.223 40.7002H178.934V48.9895H187.223V40.7002Z" fill="#F6F2EC"/>
<path d="M195.463 82.1973H187.174V90.4866H195.463V82.1973Z" fill="#DAD6D0"/>
<path d="M195.463 73.8906H187.174V82.18H195.463V73.8906Z" fill="#F6F2EC"/>
<path d="M195.463 65.6016H187.174V73.8909H195.463V65.6016Z" fill="#F6F2EC"/>
<path d="M195.463 57.2959H187.174V65.5852H195.463V57.2959Z" fill="#F6F2EC"/>
<path d="M195.463 48.9893H187.174V57.2786H195.463V48.9893Z" fill="#F6F2EC"/>
<path d="M195.463 40.7002H187.174V48.9895H195.463V40.7002Z" fill="#F6F2EC"/>
<path d="M195.463 32.3945H187.174V40.6839H195.463V32.3945Z" fill="#F6F2EC"/>
<path d="M203.701 82.1973H195.412V90.4866H203.701V82.1973Z" fill="#DAD6D0"/>
<path d="M203.701 73.8906H195.412V82.18H203.701V73.8906Z" fill="#F6F2EC"/>
<path d="M203.701 65.6016H195.412V73.8909H203.701V65.6016Z" fill="#F6F2EC"/>
<path d="M203.701 57.2959H195.412V65.5852H203.701V57.2959Z" fill="#D6122A"/>
<path d="M203.701 48.9893H195.412V57.2786H203.701V48.9893Z" fill="#D6122A"/>
<path d="M203.701 40.7002H195.412V48.9895H203.701V40.7002Z" fill="#F6F2EC"/>
<path d="M203.701 32.3945H195.412V40.6839H203.701V32.3945Z" fill="#F6F2EC"/>
<path d="M203.701 24.1055H195.412V32.3948H203.701V24.1055Z" fill="#F6F2EC"/>
<path d="M211.942 82.1973H203.652V90.4866H211.942V82.1973Z" fill="#DAD6D0"/>
<path d="M211.942 73.8906H203.652V82.18H211.942V73.8906Z" fill="#F6F2EC"/>
<path d="M211.942 65.6016H203.652V73.8909H211.942V65.6016Z" fill="#D6122A"/>
<path d="M211.942 57.2959H203.652V65.5852H211.942V57.2959Z" fill="#D6122A"/>
<path d="M211.942 48.9893H203.652V57.2786H211.942V48.9893Z" fill="#D6122A"/>
<path d="M211.942 40.7002H203.652V48.9895H211.942V40.7002Z" fill="#D6122A"/>
<path d="M211.942 32.3945H203.652V40.6839H211.942V32.3945Z" fill="#F6F2EC"/>
<path d="M211.942 24.1055H203.652V32.3948H211.942V24.1055Z" fill="#F6F2EC"/>
<path d="M220.18 82.1973H211.891V90.4866H220.18V82.1973Z" fill="#DAD6D0"/>
<path d="M220.18 73.8906H211.891V82.18H220.18V73.8906Z" fill="#D6122A"/>
<path d="M220.18 65.6016H211.891V73.8909H220.18V65.6016Z" fill="#D6122A"/>
<path d="M220.18 57.2959H211.891V65.5852H220.18V57.2959Z" fill="#D6122A"/>
<path d="M220.18 48.9893H211.891V57.2786H220.18V48.9893Z" fill="#D6122A"/>
<path d="M220.18 40.7002H211.891V48.9895H220.18V40.7002Z" fill="#D6122A"/>
<path d="M220.18 32.3945H211.891V40.6839H220.18V32.3945Z" fill="#D6122A"/>
<path d="M220.18 24.1055H211.891V32.3948H220.18V24.1055Z" fill="#F6F2EC"/>
<path d="M228.42 82.1973H220.131V90.4866H228.42V82.1973Z" fill="#DAD6D0"/>
<path d="M228.42 73.8906H220.131V82.18H228.42V73.8906Z" fill="#D6122A"/>
<path d="M228.42 65.6016H220.131V73.8909H228.42V65.6016Z" fill="#D6122A"/>
<path d="M228.42 57.2959H220.131V65.5852H228.42V57.2959Z" fill="#D6122A"/>
<path d="M228.42 48.9893H220.131V57.2786H228.42V48.9893Z" fill="#D6122A"/>
<path d="M228.42 40.7002H220.131V48.9895H228.42V40.7002Z" fill="#D6122A"/>
<path d="M228.42 32.3945H220.131V40.6839H228.42V32.3945Z" fill="#D6122A"/>
<path d="M228.42 24.1055H220.131V32.3948H228.42V24.1055Z" fill="#F6F2EC"/>
<path d="M236.66 82.1973H228.371V90.4866H236.66V82.1973Z" fill="#DAD6D0"/>
<path d="M236.66 73.8906H228.371V82.18H236.66V73.8906Z" fill="#F6F2EC"/>
<path d="M236.66 65.6016H228.371V73.8909H236.66V65.6016Z" fill="#D6122A"/>
<path d="M236.66 57.2959H228.371V65.5852H236.66V57.2959Z" fill="#D6122A"/>
<path d="M215.754 53.6152H207.465V61.9046H215.754V53.6152Z" fill="#D6122A"/>
<path d="M232.235 53.6152H223.945V61.9046H232.235V53.6152Z" fill="#D6122A"/>
<path d="M236.66 48.9893H228.371V57.2786H236.66V48.9893Z" fill="#D6122A"/>
<path d="M236.66 40.7002H228.371V48.9895H236.66V40.7002Z" fill="#D6122A"/>
<path d="M236.66 32.3945H228.371V40.6839H236.66V32.3945Z" fill="#F6F2EC"/>
<path d="M236.66 24.1055H228.371V32.3948H236.66V24.1055Z" fill="#F6F2EC"/>
<path d="M244.899 73.8906H236.609V82.18H244.899V73.8906Z" fill="#F6F2EC"/>
<path d="M244.899 65.6016H236.609V73.8909H244.899V65.6016Z" fill="#F6F2EC"/>
<path d="M244.899 57.2959H236.609V65.5852H244.899V57.2959Z" fill="#D6122A"/>
<path d="M244.899 48.9893H236.609V57.2786H244.899V48.9893Z" fill="#D6122A"/>
<path d="M244.899 40.7002H236.609V48.9895H244.899V40.7002Z" fill="#F6F2EC"/>
<path d="M244.899 32.3945H236.609V40.6839H244.899V32.3945Z" fill="#F6F2EC"/>
<path d="M244.899 24.1055H236.609V32.3948H244.899V24.1055Z" fill="#F6F2EC"/>
<path d="M253.141 82.1973H244.852V90.4866H253.141V82.1973Z" fill="#DAD6D0"/>
<path d="M253.141 73.8906H244.852V82.18H253.141V73.8906Z" fill="#F6F2EC"/>
<path d="M253.141 65.6016H244.852V73.8909H253.141V65.6016Z" fill="#F6F2EC"/>
<path d="M253.141 57.2959H244.852V65.5852H253.141V57.2959Z" fill="#F6F2EC"/>
<path d="M253.141 48.9893H244.852V57.2786H253.141V48.9893Z" fill="#F6F2EC"/>
<path d="M253.141 40.7002H244.852V48.9895H253.141V40.7002Z" fill="#F6F2EC"/>
<path d="M253.141 32.3945H244.852V40.6839H253.141V32.3945Z" fill="#F6F2EC"/>
<path d="M261.379 82.1973H253.09V90.4866H261.379V82.1973Z" fill="#DAD6D0"/>
<path d="M261.379 73.8906H253.09V82.18H261.379V73.8906Z" fill="#F6F2EC"/>
<path d="M261.379 65.6016H253.09V73.8909H261.379V65.6016Z" fill="#F6F2EC"/>
<path d="M261.379 57.2959H253.09V65.5852H261.379V57.2959Z" fill="#F6F2EC"/>
<path d="M261.379 48.9893H253.09V57.2786H261.379V48.9893Z" fill="#F6F2EC"/>
<path d="M261.379 40.7002H253.09V48.9895H261.379V40.7002Z" fill="#F6F2EC"/>
<path d="M261.379 32.3945H253.09V40.6839H261.379V32.3945Z" fill="#F6F2EC"/>
<path d="M261.379 24.1055H253.09V32.3948H261.379V24.1055Z" fill="#F6F2EC"/>
<path d="M253.141 24.1055H244.852V32.3948H253.141V24.1055Z" fill="#F6F2EC"/>
<path d="M269.619 82.1973H261.33V90.4866H269.619V82.1973Z" fill="#DAD6D0"/>
<path d="M269.619 73.8906H261.33V82.18H269.619V73.8906Z" fill="#F6F2EC"/>
<path d="M269.619 65.6016H261.33V73.8909H269.619V65.6016Z" fill="#F6F2EC"/>
<path d="M269.619 57.2959H261.33V65.5852H269.619V57.2959Z" fill="#F6F2EC"/>
<path d="M269.619 48.9893H261.33V57.2786H269.619V48.9893Z" fill="#F6F2EC"/>
<path d="M269.619 40.7002H261.33V48.9895H269.619V40.7002Z" fill="#F6F2EC"/>
<path d="M269.619 32.3945H261.33V40.6839H269.619V32.3945Z" fill="#F6F2EC"/>
<path d="M269.619 24.1055H261.33V32.3948H269.619V24.1055Z" fill="#F6F2EC"/>
<path d="M277.858 82.1973H269.568V90.4866H277.858V82.1973Z" fill="#DAD6D0"/>
<path d="M277.858 73.8906H269.568V82.18H277.858V73.8906Z" fill="#F6F2EC"/>
<path d="M277.858 65.6016H269.568V73.8909H277.858V65.6016Z" fill="#F6F2EC"/>
<path d="M277.858 57.2959H269.568V65.5852H277.858V57.2959Z" fill="#F6F2EC"/>
<path d="M277.858 48.9893H269.568V57.2786H277.858V48.9893Z" fill="#F6F2EC"/>
<path d="M277.858 40.7002H269.568V48.9895H277.858V40.7002Z" fill="#F6F2EC"/>
<path d="M277.858 32.3945H269.568V40.6839H277.858V32.3945Z" fill="#F6F2EC"/>
<path d="M277.858 24.1055H269.568V32.3948H277.858V24.1055Z" fill="#F6F2EC"/>
<path d="M286.098 82.1973H277.809V90.4866H286.098V82.1973Z" fill="#DAD6D0"/>
<path d="M286.098 73.8906H277.809V82.18H286.098V73.8906Z" fill="#F6F2EC"/>
<path d="M286.098 65.6016H277.809V73.8909H286.098V65.6016Z" fill="#F6F2EC"/>
<path d="M286.098 57.2959H277.809V65.5852H286.098V57.2959Z" fill="#F6F2EC"/>
<path d="M286.098 48.9893H277.809V57.2786H286.098V48.9893Z" fill="#F6F2EC"/>
<path d="M286.098 40.7002H277.809V48.9895H286.098V40.7002Z" fill="#F6F2EC"/>
<path d="M286.098 32.3945H277.809V40.6839H286.098V32.3945Z" fill="#F6F2EC"/>
<path d="M286.098 24.1055H277.809V32.3948H286.098V24.1055Z" fill="#F6F2EC"/>
<path d="M294.338 82.1973H286.049V90.4866H294.338V82.1973Z" fill="#DAD6D0"/>
<path d="M294.338 73.8906H286.049V82.18H294.338V73.8906Z" fill="#F6F2EC"/>
<path d="M294.338 65.6016H286.049V73.8909H294.338V65.6016Z" fill="#F6F2EC"/>
<path d="M294.338 57.2959H286.049V65.5852H294.338V57.2959Z" fill="#F6F2EC"/>
<path d="M294.338 48.9893H286.049V57.2786H294.338V48.9893Z" fill="#F6F2EC"/>
<path d="M294.338 40.7002H286.049V48.9895H294.338V40.7002Z" fill="#F6F2EC"/>
<path d="M294.338 32.3945H286.049V40.6839H294.338V32.3945Z" fill="#F6F2EC"/>
<path d="M302.576 82.1973H294.287V90.4866H302.576V82.1973Z" fill="#DAD6D0"/>
<path d="M302.576 73.8906H294.287V82.18H302.576V73.8906Z" fill="#F6F2EC"/>
<path d="M302.576 65.6016H294.287V73.8909H302.576V65.6016Z" fill="#F6F2EC"/>
<path d="M302.576 57.2959H294.287V65.5852H302.576V57.2959Z" fill="#F6F2EC"/>
<path d="M302.576 48.9893H294.287V57.2786H302.576V48.9893Z" fill="#F6F2EC"/>
<path d="M302.576 40.7002H294.287V48.9895H302.576V40.7002Z" fill="#F6F2EC"/>
<path d="M310.817 73.8906H302.527V82.18H310.817V73.8906Z" fill="#DAD6D0"/>
<path d="M310.817 65.6016H302.527V73.8909H310.817V65.6016Z" fill="#DAD6D0"/>
<path d="M310.817 57.2959H302.527V65.5852H310.817V57.2959Z" fill="#DAD6D0"/>
<path d="M310.817 48.9893H302.527V57.2786H310.817V48.9893Z" fill="#DAD6D0"/>
<path d="M178.983 82.1973H170.693V90.4866H178.983V82.1973Z" fill="#DAD6D0"/>
<path d="M178.983 73.8906H170.693V82.18H178.983V73.8906Z" fill="#F6F2EC"/>
<path d="M178.983 65.6016H170.693V73.8909H178.983V65.6016Z" fill="#F6F2EC"/>
<path d="M178.983 57.2959H170.693V65.5852H178.983V57.2959Z" fill="#F6F2EC"/>
<path d="M178.983 48.9893H170.693V57.2786H178.983V48.9893Z" fill="#F6F2EC"/>
<path d="M206.703 54.3779H200.9V60.1805H206.703V54.3779Z" fill="#F6F2EC"/>
<path d="M218.24 54.3779H212.438V60.1805H218.24V54.3779Z" fill="#F6F2EC"/>
<path d="M228.554 54.3779H222.752V60.1805H228.554V54.3779Z" fill="#F6F2EC"/>
<path d="M238.814 54.3779H233.012V60.1805H238.814V54.3779Z" fill="#F6F2EC"/>
<path d="M178.983 40.7002H170.693V48.9895H178.983V40.7002Z" fill="black"/>
<path d="M170.744 82.1973H162.455V90.4866H170.744V82.1973Z" fill="black"/>
<path d="M170.744 73.8906H162.455V82.18H170.744V73.8906Z" fill="black"/>
<path d="M170.744 65.6016H162.455V73.8909H170.744V65.6016Z" fill="black"/>
<path d="M170.744 57.2959H162.455V65.5852H170.744V57.2959Z" fill="black"/>
<path d="M170.744 48.9893H162.455V57.2786H170.744V48.9893Z" fill="black"/>
<path d="M319.073 123.677H310.783V131.966H319.073V123.677Z" fill="black"/>
<path d="M319.073 115.388H310.783V123.677H319.073V115.388Z" fill="black"/>
<path d="M319.073 107.081H310.783V115.37H319.073V107.081Z" fill="black"/>
<path d="M319.073 73.8906H310.783V82.18H319.073V73.8906Z" fill="black"/>
<path d="M319.073 82.1973H310.783V90.4866H319.073V82.1973Z" fill="black"/>
<path d="M319.073 90.4863H310.783V98.7757H319.073V90.4863Z" fill="black"/>
<path d="M319.073 65.6016H310.783V73.8909H319.073V65.6016Z" fill="black"/>
<path d="M319.073 57.2959H310.783V65.5852H319.073V57.2959Z" fill="black"/>
<path d="M319.073 48.9893H310.783V57.2786H319.073V48.9893Z" fill="black"/>
<path d="M261.096 181.569H269.336V173.33H261.096V181.569Z" fill="white"/>
<path d="M252.907 181.569H261.146V173.33H252.907V181.569Z" fill="white"/>
<path d="M244.7 181.569H252.939V173.33H244.7V181.569Z" fill="white"/>
<path d="M236.51 181.569H244.75V173.33H236.51V181.569Z" fill="white"/>
<path d="M220.114 181.569H228.354V173.33H220.114V181.569Z" fill="white"/>
<path d="M211.909 181.569H220.148V173.33H211.909V181.569Z" fill="white"/>
<path d="M228.303 181.569H236.543V173.33H228.303V181.569Z" fill="white"/>
<path d="M203.717 181.569H211.957V173.33H203.717V181.569Z" fill="white"/>
<path d="M261.096 189.81H269.336V181.57H261.096V189.81Z" fill="black"/>
<path opacity="0.3" d="M252.907 189.81H261.146V181.57H252.907V189.81Z" fill="black"/>
<path opacity="0.3" d="M244.7 189.81H252.939V181.57H244.7V189.81Z" fill="black"/>
<path opacity="0.3" d="M236.51 189.81H244.75V181.57H236.51V189.81Z" fill="black"/>
<path opacity="0.3" d="M228.303 189.81H236.543V181.57H228.303V189.81Z" fill="black"/>
<path opacity="0.3" d="M220.114 189.81H228.354V181.57H220.114V189.81Z" fill="black"/>
<path opacity="0.3" d="M211.909 189.81H220.148V181.57H211.909V189.81Z" fill="black"/>
<path opacity="0.3" d="M203.717 189.81H211.957V181.57H203.717V189.81Z" fill="black"/>
<path d="M195.51 189.81H203.75V181.57H195.51V189.81Z" fill="black"/>
<path d="M269.301 181.569H277.541V173.33H269.301V181.569Z" fill="white"/>
<path d="M277.508 181.569H285.748V173.33H277.508V181.569Z" fill="white"/>
<path d="M195.51 181.569H203.75V173.33H195.51V181.569Z" fill="white"/>
<path d="M261.096 173.33H269.336V165.09H261.096V173.33Z" fill="black"/>
<path d="M252.907 173.33H261.146V165.09H252.907V173.33Z" fill="black"/>
<path d="M244.7 173.33H252.939V165.09H244.7V173.33Z" fill="black"/>
<path d="M236.51 173.33H244.75V165.09H236.51V173.33Z" fill="black"/>
<path d="M220.114 173.33H228.354V165.09H220.114V173.33Z" fill="black"/>
<path d="M211.909 173.33H220.148V165.09H211.909V173.33Z" fill="black"/>
<path d="M228.303 173.33H236.543V165.09H228.303V173.33Z" fill="black"/>
<path d="M203.717 173.33H211.957V165.09H203.717V173.33Z" fill="black"/>
<path d="M269.301 173.33H277.541V165.09H269.301V173.33Z" fill="black"/>
<path d="M277.508 173.33H285.748V165.09H277.508V173.33Z" fill="black"/>
<path d="M195.51 173.33H203.75V165.09H195.51V173.33Z" fill="black"/>
<path d="M261.096 189.81H269.336V181.57H261.096V189.81Z" fill="black"/>
<path d="M252.907 189.81H261.146V181.57H252.907V189.81Z" fill="black"/>
<path d="M244.7 189.81H252.939V181.57H244.7V189.81Z" fill="black"/>
<path d="M236.51 189.81H244.75V181.57H236.51V189.81Z" fill="black"/>
<path d="M220.114 189.81H228.354V181.57H220.114V189.81Z" fill="black"/>
<path d="M211.909 189.81H220.148V181.57H211.909V189.81Z" fill="black"/>
<path d="M228.303 189.81H236.543V181.57H228.303V189.81Z" fill="black"/>
<path d="M203.717 189.81H211.957V181.57H203.717V189.81Z" fill="black"/>
<path d="M195.51 189.81H203.75V181.57H195.51V189.81Z" fill="black"/>
<path d="M269.301 189.81H277.541V181.57H269.301V189.81Z" fill="black"/>
<path d="M277.508 189.81H285.748V181.57H277.508V189.81Z" fill="black"/>
<path d="M285.684 181.569H293.924V173.33H285.684V181.569Z" fill="white"/>
<path d="M285.684 173.33H293.924V165.09H285.684V173.33Z" fill="black"/>
<path d="M285.684 189.81H293.924V181.57H285.684V189.81Z" fill="black"/>
<path d="M293.889 181.569H302.129V173.33H293.889V181.569Z" fill="white"/>
<path d="M293.889 173.33H302.129V165.09H293.889V173.33Z" fill="black"/>
<path d="M293.889 189.81H302.129V181.57H293.889V189.81Z" fill="black"/>
<path d="M302.079 181.569H310.318V173.33H302.079V181.569Z" fill="black"/>
<path d="M195.51 189.81H203.75V181.57H195.51V189.81Z" fill="black"/>
<path d="M187.323 181.569H195.562V173.33H187.323V181.569Z" fill="white"/>
<path d="M187.323 173.33H195.562V165.09H187.323V173.33Z" fill="black"/>
<path d="M187.323 189.81H195.562V181.57H187.323V189.81Z" fill="black"/>
<path d="M179.132 181.569H187.371V173.33H179.132V181.569Z" fill="white"/>
<path d="M179.132 173.33H187.371V165.09H179.132V173.33Z" fill="black"/>
<path d="M179.132 189.81H187.371V181.57H179.132V189.81Z" fill="black"/>
<path d="M170.924 181.569H179.164V173.33H170.924V181.569Z" fill="black"/>
<path d="M187.323 198.23H179.033V206.52H187.323V198.23Z" fill="#838383"/>
<path d="M179.215 189.941H170.926V198.231H179.215V189.941Z" fill="#F6F2EC"/>
<path d="M187.323 206.52H179.033V214.809H187.323V206.52Z" fill="#DAD6D0"/>
<path d="M179.233 206.52H170.943V214.809H179.233V206.52Z" fill="black"/>
<path d="M179.215 198.248H170.926V206.537H179.215V198.248Z" fill="#DAD6D0"/>
<path d="M170.926 189.908H162.637V198.198H170.926V189.908Z" fill="black"/>
<path d="M187.323 189.941H179.033V198.231H187.323V189.941Z" fill="#838383"/>
<path d="M178.983 131.982H170.693V140.272H178.983V131.982Z" fill="black"/>
<path d="M277.826 272.901H286.115V264.612H277.826V272.901Z" fill="#1395A7"/>
<path d="M277.826 264.595H286.115V256.305H277.826V264.595Z" fill="#1395A7"/>
<path d="M269.586 272.901H277.875V264.612H269.586V272.901Z" fill="#20ABC6"/>
<path d="M269.586 264.595H277.875V256.305H269.586V264.595Z" fill="#20ABC6"/>
<path d="M261.345 272.901H269.635V264.612H261.345V272.901Z" fill="#20ABC6"/>
<path d="M261.345 264.595H269.635V256.305H261.345V264.595Z" fill="#20ABC6"/>
<path d="M253.105 272.901H261.395V264.612H253.105V272.901Z" fill="#20ABC6"/>
<path d="M253.105 264.595H261.395V256.305H253.105V264.595Z" fill="#20ABC6"/>
<path d="M244.867 272.901H253.156V264.612H244.867V272.901Z" fill="#20ABC6"/>
<path d="M244.867 264.595H253.156V256.305H244.867V264.595Z" fill="#20ABC6"/>
<path d="M236.629 272.901H244.918V264.612H236.629V272.901Z" fill="#20ABC6"/>
<path d="M236.629 264.595H244.918V256.305H236.629V264.595Z" fill="#20ABC6"/>
<path d="M228.386 272.901H236.676V264.612H228.386V272.901Z" fill="#20ABC6"/>
<path d="M228.386 264.595H236.676V256.305H228.386V264.595Z" fill="#1395A7"/>
<path d="M220.148 272.901H228.438V264.612H220.148V272.901Z" fill="#20ABC6"/>
<path d="M220.148 264.595H228.438V256.305H220.148V264.595Z" fill="#1395A7"/>
<path d="M211.908 272.901H220.197V264.612H211.908V272.901Z" fill="#20ABC6"/>
<path d="M211.908 264.595H220.197V256.305H211.908V264.595Z" fill="#1395A7"/>
<path d="M203.652 272.901H211.941V264.612H203.652V272.901Z" fill="#20ABC6"/>
<path d="M203.652 264.595H211.941V256.305H203.652V264.595Z" fill="#1395A7"/>
<path d="M195.412 272.901H203.701V264.612H195.412V272.901Z" fill="#60D2E1"/>
<path d="M195.412 264.595H203.701V256.305H195.412V264.595Z" fill="#1395A7"/>
<path d="M187.174 272.901H195.463V264.612H187.174V272.901Z" fill="#20ABC6"/>
<path d="M187.174 264.595H195.463V256.305H187.174V264.595Z" fill="#20ABC6"/>
<path d="M178.933 272.901H187.223V264.612H178.933V272.901Z" fill="#20ABC6"/>
<path d="M178.933 264.595H187.223V256.305H178.933V264.595Z" fill="#20ABC6"/>
<path d="M170.693 272.901H178.982V264.612H170.693V272.901Z" fill="#60D2E1"/>
<path d="M170.693 264.595H178.982V256.305H170.693V264.595Z" fill="#20ABC6"/>
<path d="M162.455 272.901H170.744V264.612H162.455V272.901Z" fill="#60D2E1"/>
<path d="M162.455 264.595H170.744V256.305H162.455V264.595Z" fill="#20ABC6"/>
<path d="M154.215 272.901H162.504V264.612H154.215V272.901Z" fill="#60D2E1"/>
<path d="M154.215 264.595H162.504V256.305H154.215V264.595Z" fill="#20ABC6"/>
<path d="M286.064 272.901H294.354V264.612H286.064V272.901Z" fill="#20ABC6"/>
<path d="M286.064 264.595H294.354V256.305H286.064V264.595Z" fill="#20ABC6"/>
<path d="M294.304 272.901H302.594V264.612H294.304V272.901Z" fill="#20ABC6"/>
<path d="M302.576 272.901H310.865V264.612H302.576V272.901Z" fill="black"/>
<path d="M294.304 264.595H302.594V256.305H294.304V264.595Z" fill="#20ABC6"/>
<path d="M145.99 272.901H154.279V264.612H145.99V272.901Z" fill="#20ABC6"/>
<path d="M145.99 264.595H154.279V256.305H145.99V264.595Z" fill="#20ABC6"/>
<path d="M277.826 289.513H286.115V281.223H277.826V289.513Z" fill="#20ABC6"/>
<path d="M277.826 281.224H286.115V272.934H277.826V281.224Z" fill="#1395A7"/>
<path d="M269.586 289.513H277.875V281.223H269.586V289.513Z" fill="#20ABC6"/>
<path d="M269.586 281.224H277.875V272.934H269.586V281.224Z" fill="#1395A7"/>
<path d="M261.345 289.513H269.635V281.223H261.345V289.513Z" fill="#20ABC6"/>
<path d="M261.345 281.224H269.635V272.934H261.345V281.224Z" fill="#1395A7"/>
<path d="M253.105 289.513H261.395V281.223H253.105V289.513Z" fill="#20ABC6"/>
<path d="M253.105 281.224H261.395V272.934H253.105V281.224Z" fill="#1395A7"/>
<path d="M244.867 289.513H253.156V281.223H244.867V289.513Z" fill="#20ABC6"/>
<path d="M244.867 281.224H253.156V272.934H244.867V281.224Z" fill="#1395A7"/>
<path d="M236.629 289.513H244.918V281.223H236.629V289.513Z" fill="#20ABC6"/>
<path d="M236.629 281.224H244.918V272.934H236.629V281.224Z" fill="#20ABC6"/>
<path d="M228.386 289.513H236.676V281.223H228.386V289.513Z" fill="#20ABC6"/>
<path d="M228.386 281.224H236.676V272.934H228.386V281.224Z" fill="#20ABC6"/>
<path d="M220.148 289.513H228.438V281.223H220.148V289.513Z" fill="#20ABC6"/>
<path d="M220.148 281.224H228.438V272.934H220.148V281.224Z" fill="#20ABC6"/>
<path d="M211.908 289.513H220.197V281.223H211.908V289.513Z" fill="#20ABC6"/>
<path d="M211.908 281.224H220.197V272.934H211.908V281.224Z" fill="#20ABC6"/>
<path d="M203.652 289.513H211.941V281.223H203.652V289.513Z" fill="#20ABC6"/>
<path d="M203.652 281.224H211.941V272.934H203.652V281.224Z" fill="#20ABC6"/>
<path d="M195.412 289.513H203.701V281.223H195.412V289.513Z" fill="#20ABC6"/>
<path d="M195.412 281.224H203.701V272.934H195.412V281.224Z" fill="#20ABC6"/>
<path d="M187.174 289.513H195.463V281.223H187.174V289.513Z" fill="#20ABC6"/>
<path d="M187.174 281.224H195.463V272.934H187.174V281.224Z" fill="#20ABC6"/>
<path d="M178.933 289.513H187.223V281.223H178.933V289.513Z" fill="#20ABC6"/>
<path d="M178.933 281.224H187.223V272.934H178.933V281.224Z" fill="#20ABC6"/>
<path d="M170.693 289.513H178.982V281.223H170.693V289.513Z" fill="#20ABC6"/>
<path d="M170.693 281.224H178.982V272.934H170.693V281.224Z" fill="#20ABC6"/>
<path d="M162.455 289.513H170.744V281.223H162.455V289.513Z" fill="#20ABC6"/>
<path d="M162.455 281.224H170.744V272.934H162.455V281.224Z" fill="#20ABC6"/>
<path d="M154.215 289.513H162.504V281.223H154.215V289.513Z" fill="#20ABC6"/>
<path d="M154.215 281.224H162.504V272.934H154.215V281.224Z" fill="#20ABC6"/>
<path d="M286.064 289.513H294.354V281.223H286.064V289.513Z" fill="#20ABC6"/>
<path d="M286.064 281.224H294.354V272.934H286.064V281.224Z" fill="#20ABC6"/>
<path d="M294.304 289.513H302.594V281.223H294.304V289.513Z" fill="#20ABC6"/>
<path d="M294.304 281.224H302.594V272.934H294.304V281.224Z" fill="#20ABC6"/>
<path d="M310.867 272.901H319.156V264.612H310.867V272.901Z" fill="#DAD6D0"/>
<path d="M302.593 264.595H310.883V256.305H302.593V264.595Z" fill="black"/>
<path d="M277.826 256.306H286.115V248.016H277.826V256.306Z" fill="#1395A7"/>
<path d="M269.586 256.306H277.875V248.016H269.586V256.306Z" fill="#20ABC6"/>
<path d="M261.345 256.306H269.635V248.016H261.345V256.306Z" fill="#20ABC6"/>
<path d="M195.412 256.306H203.701V248.016H195.412V256.306Z" fill="black"/>
<path d="M187.174 256.306H195.463V248.016H187.174V256.306Z" fill="black"/>
<path d="M178.933 256.306H187.223V248.016H178.933V256.306Z" fill="black"/>
<path d="M170.693 256.306H178.982V248.016H170.693V256.306Z" fill="black"/>
<path d="M162.455 256.306H170.744V248.016H162.455V256.306Z" fill="black"/>
<path d="M154.215 256.306H162.504V248.016H154.215V256.306Z" fill="black"/>
<path d="M286.064 256.306H294.354V248.016H286.064V256.306Z" fill="#20ABC6"/>
<path d="M294.304 256.306H302.594V248.016H294.304V256.306Z" fill="#20ABC6"/>
<path d="M145.99 256.306H154.279V248.016H145.99V256.306Z" fill="black"/>
<path d="M137.718 256.306H146.008V248.016H137.718V256.306Z" fill="black"/>
<path d="M302.593 256.306H310.883V248.016H302.593V256.306Z" fill="black"/>
<path d="M277.826 297.818H286.115V289.529H277.826V297.818Z" fill="#20ABC6"/>
<path d="M269.586 297.818H277.875V289.529H269.586V297.818Z" fill="#20ABC6"/>
<path d="M261.345 297.818H269.635V289.529H261.345V297.818Z" fill="#20ABC6"/>
<path d="M253.105 297.818H261.395V289.529H253.105V297.818Z" fill="#20ABC6"/>
<path d="M244.867 297.818H253.156V289.529H244.867V297.818Z" fill="#20ABC6"/>
<path d="M236.629 297.818H244.918V289.529H236.629V297.818Z" fill="#20ABC6"/>
<path d="M228.386 297.818H236.676V289.529H228.386V297.818Z" fill="#20ABC6"/>
<path d="M220.148 297.818H228.438V289.529H220.148V297.818Z" fill="#20ABC6"/>
<path d="M211.908 297.818H220.197V289.529H211.908V297.818Z" fill="#20ABC6"/>
<path d="M203.652 297.818H211.941V289.529H203.652V297.818Z" fill="#20ABC6"/>
<path d="M195.412 297.818H203.701V289.529H195.412V297.818Z" fill="black"/>
<path d="M195.412 306.107H203.701V297.818H195.412V306.107Z" fill="black"/>
<path d="M187.174 297.818H195.463V289.529H187.174V297.818Z" fill="black"/>
<path d="M178.933 297.818H187.223V289.529H178.933V297.818Z" fill="black"/>
<path d="M170.693 297.818H178.982V289.529H170.693V297.818Z" fill="black"/>
<path d="M162.455 297.818H170.744V289.529H162.455V297.818Z" fill="black"/>
<path d="M154.215 297.818H162.504V289.529H154.215V297.818Z" fill="black"/>
<path d="M286.064 297.818H294.354V289.529H286.064V297.818Z" fill="#20ABC6"/>
<path d="M294.304 297.818H302.594V289.529H294.304V297.818Z" fill="#20ABC6"/>
<path d="M145.99 297.818H154.279V289.529H145.99V297.818Z" fill="black"/>
<path d="M137.718 297.818H146.008V289.529H137.718V297.818Z" fill="black"/>
<path d="M302.593 297.818H310.883V289.529H302.593V297.818Z" fill="black"/>
<path d="M277.826 306.107H286.115V297.818H277.826V306.107Z" fill="black"/>
<path d="M269.586 306.107H277.875V297.818H269.586V306.107Z" fill="black"/>
<path d="M261.345 306.107H269.635V297.818H261.345V306.107Z" fill="black"/>
<path d="M253.105 306.107H261.395V297.818H253.105V306.107Z" fill="black"/>
<path d="M244.867 306.107H253.156V297.818H244.867V306.107Z" fill="black"/>
<path d="M236.629 306.107H244.918V297.818H236.629V306.107Z" fill="black"/>
<path d="M228.386 306.107H236.676V297.818H228.386V306.107Z" fill="black"/>
<path d="M220.148 306.107H228.438V297.818H220.148V306.107Z" fill="black"/>
<path d="M211.908 306.107H220.197V297.818H211.908V306.107Z" fill="black"/>
<path d="M203.652 306.107H211.941V297.818H203.652V306.107Z" fill="black"/>
<path d="M286.064 306.107H294.354V297.818H286.064V306.107Z" fill="black"/>
<path d="M294.304 306.107H302.594V297.818H294.304V306.107Z" fill="black"/>
<path d="M302.593 306.107H310.883V297.818H302.593V306.107Z" fill="black"/>
<path d="M302.593 289.513H310.883V281.223H302.593V289.513Z" fill="black"/>
<path d="M302.593 281.224H310.883V272.934H302.593V281.224Z" fill="black"/>
<path d="M310.867 264.595H319.156V256.305H310.867V264.595Z" fill="black"/>
<path d="M310.867 281.224H319.156V272.934H310.867V281.224Z" fill="#DAD6D0"/>
<path d="M310.867 289.513H319.156V281.223H310.867V289.513Z" fill="black"/>
<path d="M319.189 272.901H327.479V264.612H319.189V272.901Z" fill="black"/>
<path d="M319.189 264.595H327.479V256.305H319.189V264.595Z" fill="black"/>
<path d="M319.189 281.224H327.479V272.934H319.189V281.224Z" fill="black"/>
<path d="M319.189 289.513H327.479V281.223H319.189V289.513Z" fill="black"/>
<path d="M328.855 272.901H337.145V264.612H328.855V272.901Z" fill="#FFDF2C"/>
<path d="M328.855 264.595H337.145V256.305H328.855V264.595Z" fill="#D6122A"/>
<path d="M328.855 281.224H337.145V272.934H328.855V281.224Z" fill="#FFDF2C"/>
<path d="M328.855 289.513H337.145V281.223H328.855V289.513Z" fill="#D6122A"/>
<path d="M337.127 272.901H345.416V264.612H337.127V272.901Z" fill="#FFDF2C"/>
<path d="M337.127 264.595H345.416V256.305H337.127V264.595Z" fill="#D6122A"/>
<path d="M337.127 281.224H345.416V272.934H337.127V281.224Z" fill="#FFA229"/>
<path d="M337.127 289.513H345.416V281.223H337.127V289.513Z" fill="#D6122A"/>
<path d="M345.384 272.901H353.673V264.612H345.384V272.901Z" fill="#FFA229"/>
<path d="M345.384 264.595H353.673V256.305H345.384V264.595Z" fill="#D6122A"/>
<path d="M345.384 281.224H353.673V272.934H345.384V281.224Z" fill="#FFA229"/>
<path d="M345.384 289.513H353.673V281.223H345.384V289.513Z" fill="#D6122A"/>
<path d="M353.638 272.901H361.928V264.612H353.638V272.901Z" fill="#D6122A"/>
<path d="M370.169 264.43H378.458V256.14H370.169V264.43Z" fill="#D6122A"/>
<path d="M383.166 272.901H391.455V264.612H383.166V272.901Z" fill="#D6122A"/>
<path d="M353.638 264.595H361.928V256.305H353.638V264.595Z" fill="#D6122A"/>
<path d="M353.638 281.224H361.928V272.934H353.638V281.224Z" fill="#FFA229"/>
<path d="M353.638 289.513H361.928V281.223H353.638V289.513Z" fill="#D6122A"/>
<path d="M361.912 281.224H370.201V272.934H361.912V281.224Z" fill="#D6122A"/>
<path d="M396.711 281.87H405V273.581H396.711V281.87Z" fill="#D6122A"/>
<path d="M145.99 289.513H154.279V281.223H145.99V289.513Z" fill="#20ABC6"/>
<path d="M145.99 281.224H154.279V272.934H145.99V281.224Z" fill="#20ABC6"/>
<path d="M137.718 272.901H146.008V264.612H137.718V272.901Z" fill="#22A9B7"/>
<path d="M137.718 264.595H146.008V256.305H137.718V264.595Z" fill="#22A9B7"/>
<path d="M137.718 289.513H146.008V281.223H137.718V289.513Z" fill="#22A9B7"/>
<path d="M137.718 281.224H146.008V272.934H137.718V281.224Z" fill="#22A9B7"/>
<path d="M129.297 272.901H137.586V264.612H129.297V272.901Z" fill="#22A9B7"/>
<path d="M129.297 264.595H137.586V256.305H129.297V264.595Z" fill="black"/>
<path d="M129.297 289.513H137.586V281.223H129.297V289.513Z" fill="black"/>
<path d="M129.297 281.224H137.586V272.934H129.297V281.224Z" fill="#22A9B7"/>
<path d="M121.09 272.901H129.379V264.612H121.09V272.901Z" fill="black"/>
<path d="M121.09 281.224H129.379V272.934H121.09V281.224Z" fill="black"/>
<path d="M203.752 248.033H195.463V256.323H203.752V248.033Z" fill="black"/>
<path d="M203.752 239.711H195.463V248H203.752V239.711Z" fill="black"/>
<path d="M212.008 248.033H203.719V257.715H212.008V248.033Z" fill="#1395A7"/>
<path d="M220.246 248.033H211.957V257.715H220.246V248.033Z" fill="#1395A7"/>
<path d="M228.487 248.033H220.197V257.715H228.487V248.033Z" fill="#1395A7"/>
<path d="M236.676 248.033H228.387V257.715H236.676V248.033Z" fill="#1395A7"/>
<path d="M244.965 248.033H236.676V256.472H244.965V248.033Z" fill="#20ABC6"/>
<path d="M253.207 248.033H244.918V256.472H253.207V248.033Z" fill="#20ABC6"/>
<path d="M261.446 248.033H253.156V256.472H261.446V248.033Z" fill="#20ABC6"/>
<path d="M277.826 248H286.115V239.711H277.826V248Z" fill="black"/>
<path d="M269.586 248H277.875V239.711H269.586V248Z" fill="black"/>
<path d="M261.345 248H269.635V239.711H261.345V248Z" fill="black"/>
<path d="M253.105 248H261.395V239.711H253.105V248Z" fill="black"/>
<path d="M244.867 248H253.156V239.711H244.867V248Z" fill="black"/>
<path d="M236.629 248H244.918V239.711H236.629V248Z" fill="black"/>
<path d="M228.386 248H236.676V239.711H228.386V248Z" fill="black"/>
<path d="M220.148 248H228.438V239.711H220.148V248Z" fill="black"/>
<path d="M211.908 248H220.197V239.711H211.908V248Z" fill="black"/>
<path d="M203.652 248H211.941V239.711H203.652V248Z" fill="black"/>
<path d="M286.064 248H294.354V239.711H286.064V248Z" fill="black"/>
<path d="M294.304 248H302.594V239.711H294.304V248Z" fill="black"/>
<path d="M302.593 248H310.883V239.711H302.593V248Z" fill="black"/>
<path d="M277.826 239.711H286.115V231.422H277.826V239.711Z" fill="#0D6B6D"/>
<path d="M269.586 239.711H277.875V231.422H269.586V239.711Z" fill="#0D6B6D"/>
<path d="M261.345 239.711H269.635V231.422H261.345V239.711Z" fill="black"/>
<path d="M286.064 239.711H294.354V231.422H286.064V239.711Z" fill="#128089"/>
<path d="M294.304 239.711H302.594V231.422H294.304V239.711Z" fill="#128089"/>
<path d="M302.593 239.711H310.883V231.422H302.593V239.711Z" fill="#128089"/>
<path d="M277.826 231.421H286.115V223.132H277.826V231.421Z" fill="#0D6B6D"/>
<path d="M269.586 231.421H277.875V223.132H269.586V231.421Z" fill="black"/>
<path d="M286.064 231.421H294.354V223.132H286.064V231.421Z" fill="#0D6B6D"/>
<path d="M294.304 231.421H302.594V223.132H294.304V231.421Z" fill="#128089"/>
<path d="M302.593 231.421H310.883V223.132H302.593V231.421Z" fill="#128089"/>
<path d="M310.9 231.421H319.189V223.132H310.9V231.421Z" fill="#128089"/>
<path d="M277.826 223.132H286.115V214.843H277.826V223.132Z" fill="black"/>
<path d="M286.064 223.132H294.354V214.843H286.064V223.132Z" fill="black"/>
<path d="M294.304 223.132H302.594V214.843H294.304V223.132Z" fill="black"/>
<path d="M302.593 223.132H310.883V214.843H302.593V223.132Z" fill="black"/>
<path d="M310.9 223.132H319.189V214.843H310.9V223.132Z" fill="black"/>
<path d="M319.189 223.132H327.479V214.843H319.189V223.132Z" fill="black"/>
<path d="M310.867 239.711H319.156V231.422H310.867V239.711Z" fill="black"/>
<path d="M319.174 231.421H327.463V223.132H319.174V231.421Z" fill="black"/>
<path d="M327.478 223.132H335.768V214.843H327.478V223.132Z" fill="black"/>
<path d="M277.826 314H286.115V305.711H277.826V314Z" fill="#128089"/>
<path d="M269.586 314H277.875V305.711H269.586V314Z" fill="#128089"/>
<path d="M261.345 314H269.635V305.711H261.345V314Z" fill="black"/>
<path d="M286.064 314H294.354V305.711H286.064V314Z" fill="#128089"/>
<path d="M294.304 314H302.594V305.711H294.304V314Z" fill="#128089"/>
<path d="M302.593 314H310.883V305.711H302.593V314Z" fill="#128089"/>
<path d="M277.826 322.305H286.115V314.015H277.826V322.305Z" fill="#128089"/>
<path d="M269.586 322.305H277.875V314.015H269.586V322.305Z" fill="black"/>
<path d="M286.064 322.305H294.354V314.015H286.064V322.305Z" fill="#128089"/>
<path d="M294.304 322.305H302.594V314.015H294.304V322.305Z" fill="#128089"/>
<path d="M302.593 322.305H310.883V314.015H302.593V322.305Z" fill="#128089"/>
<path d="M310.9 322.305H319.189V314.015H310.9V322.305Z" fill="#128089"/>
<path d="M277.826 330.611H286.115V322.322H277.826V330.611Z" fill="black"/>
<path d="M286.064 330.611H294.354V322.322H286.064V330.611Z" fill="black"/>
<path d="M294.304 330.611H302.594V322.322H294.304V330.611Z" fill="black"/>
<path d="M302.593 330.611H310.883V322.322H302.593V330.611Z" fill="black"/>
<path d="M310.9 330.611H319.189V322.322H310.9V330.611Z" fill="black"/>
<path d="M319.189 330.611H327.479V322.322H319.189V330.611Z" fill="black"/>
<path d="M310.867 314H319.156V305.711H310.867V314Z" fill="black"/>
<path d="M319.174 322.305H327.463V314.015H319.174V322.305Z" fill="black"/>
<path d="M327.478 330.611H335.768V322.322H327.478V330.611Z" fill="black"/>
<path d="M212.008 239.711H203.719V248H212.008V239.711Z" fill="black"/>
<path d="M220.246 239.711H211.957V248H220.246V239.711Z" fill="black"/>
<path d="M228.487 239.711H220.197V248H228.487V239.711Z" fill="black"/>
<path d="M236.727 239.711H228.438V248H236.727V239.711Z" fill="black"/>
<path d="M244.965 239.711H236.676V248H244.965V239.711Z" fill="black"/>
<path d="M253.207 239.711H244.918V248H253.207V239.711Z" fill="black"/>
<path d="M261.446 239.711H253.156V248H261.446V239.711Z" fill="black"/>
<path d="M211.908 189.941H203.619V198.231H211.908V189.941Z" fill="black"/>
<path d="M211.908 198.23H203.619V206.52H211.908V198.23Z" fill="black"/>
<path d="M211.908 206.504H203.619V214.793H211.908V206.504Z" fill="black"/>
<path d="M129.81 206.47H138.1V198.18H129.81V206.47Z" fill="black"/>
<path d="M129.81 198.181H138.1V189.891H129.81V198.181Z" fill="#D6122A"/>
<path d="M121.572 206.47H129.861V198.18H121.572V206.47Z" fill="black"/>
<path d="M121.572 198.181H129.861V189.891H121.572V198.181Z" fill="#D6122A"/>
<path d="M113.332 206.47H121.621V198.18H113.332V206.47Z" fill="black"/>
<path d="M113.332 198.181H121.621V189.891H113.332V198.181Z" fill="#D6122A"/>
<path d="M105.092 206.47H113.381V198.18H105.092V206.47Z" fill="#D6122A"/>
<path d="M105.092 198.181H113.381V189.891H105.092V198.181Z" fill="#D6122A"/>
<path d="M96.8533 206.47H105.143V198.18H96.8533V206.47Z" fill="#D6122A"/>
<path d="M96.8533 198.181H105.143V189.891H96.8533V198.181Z" fill="#D6122A"/>
<path d="M88.5974 206.47H96.8867V198.18H88.5974V206.47Z" fill="#D6122A"/>
<path d="M88.5974 198.181H96.8867V189.891H88.5974V198.181Z" fill="#D6122A"/>
<path d="M80.3572 206.47H88.6465V198.18H80.3572V206.47Z" fill="#D6122A"/>
<path d="M8.28933 198.197H0V206.487H8.28933V198.197Z" fill="#A9A9A9"/>
<path d="M16.5276 198.197H8.23828V206.487H16.5276V198.197Z" fill="#A9A9A9"/>
<path d="M24.7698 198.197H16.4805V206.487H24.7698V198.197Z" fill="#A9A9A9"/>
<path d="M41.2483 198.197H32.959V206.487H41.2483V198.197Z" fill="#A9A9A9"/>
<path d="M57.7268 198.197H49.4375V206.487H57.7268V198.197Z" fill="#A9A9A9"/>
<path d="M80.3572 198.181H88.6465V189.891H80.3572V198.181Z" fill="#D6122A"/>
<path d="M72.1169 206.47H80.4062V198.18H72.1169V206.47Z" fill="black"/>
<path d="M72.1169 198.181H80.4062V189.891H72.1169V198.181Z" fill="black"/>
<path d="M138.051 206.47H146.34V198.18H138.051V206.47Z" fill="#D6122A"/>
<path d="M138.051 198.181H146.34V189.891H138.051V198.181Z" fill="#D6122A"/>
<path d="M146.291 206.47H154.58V198.18H146.291V206.47Z" fill="#D6122A"/>
<path d="M154.564 198.181H162.854V189.891H154.564V198.181Z" fill="#D6122A"/>
<path d="M146.291 198.181H154.58V189.891H146.291V198.181Z" fill="#D6122A"/>
<path d="M129.81 214.792H138.1V206.503H129.81V214.792Z" fill="#D6122A"/>
<path d="M121.572 214.792H129.861V206.503H121.572V214.792Z" fill="#D6122A"/>
<path d="M113.332 214.792H121.621V206.503H113.332V214.792Z" fill="#D6122A"/>
<path d="M105.092 214.792H113.381V206.503H105.092V214.792Z" fill="#D6122A"/>
<path d="M96.8533 214.792H105.143V206.503H96.8533V214.792Z" fill="#D6122A"/>
<path d="M88.5974 214.792H96.8867V206.503H88.5974V214.792Z" fill="#D6122A"/>
<path d="M80.3572 214.792H88.6465V206.503H80.3572V214.792Z" fill="#D6122A"/>
<path d="M72.1169 214.792H80.4062V206.503H72.1169V214.792Z" fill="black"/>
<path d="M138.051 214.792H146.34V206.503H138.051V214.792Z" fill="#D6122A"/>
<path d="M146.291 214.792H154.58V206.503H146.291V214.792Z" fill="#D6122A"/>
<path d="M162.869 198.181H171.158V189.891H162.869V198.181Z" fill="black"/>
<path d="M154.564 189.875H162.854V181.586H154.564V189.875Z" fill="black"/>
<path d="M129.81 189.908H138.1V181.619H129.81V189.908Z" fill="black"/>
<path d="M121.572 189.908H129.861V181.619H121.572V189.908Z" fill="black"/>
<path d="M113.332 189.908H121.621V181.619H113.332V189.908Z" fill="black"/>
<path d="M105.092 189.908H113.381V181.619H105.092V189.908Z" fill="black"/>
<path d="M96.8533 189.908H105.143V181.619H96.8533V189.908Z" fill="black"/>
<path d="M88.5974 189.908H96.8867V181.619H88.5974V189.908Z" fill="black"/>
<path d="M80.3572 189.908H88.6465V181.619H80.3572V189.908Z" fill="black"/>
<path d="M72.1169 189.908H80.4062V181.619H72.1169V189.908Z" fill="black"/>
<path d="M138.051 189.908H146.34V181.619H138.051V189.908Z" fill="black"/>
<path d="M146.291 189.908H154.58V181.619H146.291V189.908Z" fill="black"/>
<path d="M154.564 189.908H162.854V181.619H154.564V189.908Z" fill="black"/>
<path d="M129.81 223.182H138.1V214.892H129.81V223.182Z" fill="black"/>
<path d="M121.572 223.182H129.861V214.892H121.572V223.182Z" fill="black"/>
<path d="M113.332 223.182H121.621V214.892H113.332V223.182Z" fill="black"/>
<path d="M105.092 223.182H113.381V214.892H105.092V223.182Z" fill="black"/>
<path d="M96.8533 223.182H105.143V214.892H96.8533V223.182Z" fill="black"/>
<path d="M88.5974 223.182H96.8867V214.892H88.5974V223.182Z" fill="black"/>
<path d="M80.3572 223.182H88.6465V214.892H80.3572V223.182Z" fill="black"/>
<path d="M72.1169 223.182H80.4062V214.892H72.1169V223.182Z" fill="black"/>
<path d="M138.051 223.182H146.34V214.892H138.051V223.182Z" fill="black"/>
<path d="M146.291 223.182H154.58V214.892H146.291V223.182Z" fill="black"/>
<path d="M154.564 223.182H162.854V214.892H154.564V223.182Z" fill="black"/>
<path d="M154.564 214.876H162.854V205.609H154.564V214.876Z" fill="black"/>
<path d="M154.564 206.503H162.854V198.214H154.564V206.503Z" fill="black"/>
<path d="M162.869 189.875H171.158V181.586H162.869V189.875Z" fill="black"/>
<path d="M162.869 206.503H171.158V198.214H162.869V206.503Z" fill="black"/>
<path d="M162.836 198.181H171.125V189.891H162.836V198.181Z" fill="#D6122A"/>
<path d="M171.125 198.181H179.414V189.891H171.125V198.181Z" fill="#D6122A"/>
<path d="M162.869 189.875H171.158V181.586H162.869V189.875Z" fill="black"/>
<path d="M162.869 189.908H171.158V181.619H162.869V189.908Z" fill="black"/>
<path d="M162.869 206.503H171.158V198.214H162.869V206.503Z" fill="black"/>
<path d="M171.125 189.875H179.414V181.586H171.125V189.875Z" fill="black"/>
<path d="M171.125 206.503H179.414V198.214H171.125V206.503Z" fill="#606060"/>
<path d="M187.323 214.81H179.033V223.099H187.323V214.81Z" fill="black"/>
<path d="M179.233 214.81H170.943V223.099H179.233V214.81Z" fill="black"/>
<path d="M244.965 256.189H236.676V264.479H244.965V256.189Z" fill="black"/>
<path d="M253.207 256.189H244.918V264.479H253.207V256.189Z" fill="black"/>
<path d="M261.446 256.189H253.156V264.479H261.446V256.189Z" fill="black"/>
<path d="M187.338 214.81H179.049V223.099H187.338V214.81Z" fill="black"/>
<path d="M179.248 214.81H170.959V223.099H179.248V214.81Z" fill="black"/>
<path d="M220.198 214.826H211.908V223.115H220.198V214.826Z" fill="#FDEAE0"/>
<path d="M228.469 214.81H220.18V223.099H228.469V214.81Z" fill="#F6F2EC"/>
<path d="M244.949 214.81H236.66V223.099H244.949V214.81Z" fill="#DAD6D0"/>
<path d="M253.188 214.81H244.898V223.099H253.188V214.81Z" fill="black"/>
<path d="M261.43 214.81H253.141V223.099H261.43V214.81Z" fill="#F6F2EC"/>
<path d="M220.198 223.099H211.908V231.388H220.198V223.099Z" fill="black"/>
<path d="M220.198 214.81H211.908V223.099H220.198V214.81Z" fill="#F6F2EC"/>
<path d="M220.198 223.099H211.428V231.388H220.198V223.099Z" fill="#F6F2EC"/>
<path d="M236.711 223.099H228.422V231.388H236.711V223.099Z" fill="#76A8AC"/>
<path d="M244.949 223.099H236.66V231.388H244.949V223.099Z" fill="#DAD6D0"/>
<path d="M253.188 223.099H244.898V231.388H253.188V223.099Z" fill="#F6F2EC"/>
<path d="M261.43 223.099H253.141V231.388H261.43V223.099Z" fill="black"/>
<path d="M269.75 214.776H261.461V223.066H269.75V214.776Z" fill="#F6F2EC"/>
<path d="M277.99 214.776H269.701V223.066H277.99V214.776Z" fill="#DAD6D0"/>
<path d="M286.231 214.776H277.941V223.066H286.231V214.776Z" fill="black"/>
<path d="M220.198 231.372H211.908V239.661H220.198V231.372Z" fill="#F6F2EC"/>
<path d="M244.899 231.372H236.609V239.661H244.899V231.372Z" fill="black"/>
<path d="M253.188 231.372H244.898V239.661H253.188V231.372Z" fill="#F6F2EC"/>
<path d="M261.43 231.372H253.141V239.661H261.43V231.372Z" fill="#F6F2EC"/>
<path d="M261.496 223.065H253.207V231.355H261.496V223.065Z" fill="black"/>
<path d="M269.75 223.065H261.461V231.355H269.75V223.065Z" fill="black"/>
<path d="M277.99 223.065H269.701V231.355H277.99V223.065Z" fill="black"/>
<path d="M220.198 239.661H211.908V247.95H220.198V239.661Z" fill="#DAD6D0"/>
<path d="M228.469 239.661H220.18V247.95H228.469V239.661Z" fill="black"/>
<path d="M253.188 239.661H244.898V247.95H253.188V239.661Z" fill="#F6F2EC"/>
<path d="M261.43 239.661H253.141V247.95H261.43V239.661Z" fill="#F6F2EC"/>
<path d="M269.668 231.372H261.379V239.661H269.668V231.372Z" fill="black"/>
<path d="M269.668 239.661H261.379V247.95H269.668V239.661Z" fill="black"/>
<path d="M212.041 214.826H203.752V223.115H212.041V214.826Z" fill="#FDEAE0"/>
<path d="M212.041 223.099H203.752V231.388H212.041V223.099Z" fill="#F6F2EC"/>
<path d="M211.926 214.81H203.637V223.099H211.926V214.81Z" fill="black"/>
<path d="M212.041 231.372H203.752V239.661H212.041V231.372Z" fill="#F6F2EC"/>
<path d="M212.041 239.661H203.752V247.95H212.041V239.661Z" fill="#DAD6D0"/>
<path d="M203.768 231.372H195.479V239.661H203.768V231.372Z" fill="black"/>
<path d="M203.768 239.661H195.479V247.95H203.768V239.661Z" fill="#DAD6D0"/>
<path d="M203.768 223.115H195.479V231.405H203.768V223.115Z" fill="black"/>
<path d="M195.512 239.661H187.223V247.95H195.512V239.661Z" fill="black"/>
<path d="M228.469 247.934H220.18V256.223H228.469V247.934Z" fill="black"/>
<path d="M253.188 247.934H244.898V256.223H253.188V247.934Z" fill="black"/>
<path d="M244.899 239.661H236.609V247.95H244.899V239.661Z" fill="black"/>
<path d="M261.43 247.934H253.141V256.223H261.43V247.934Z" fill="#F6F2EC"/>
<path d="M269.668 247.934H261.379V256.223H269.668V247.934Z" fill="#F6F2EC"/>
<path d="M244.949 256.207H236.66V264.496H244.949V256.207Z" fill="black"/>
<path d="M253.188 256.207H244.898V264.496H253.188V256.207Z" fill="#DAD6D0"/>
<path d="M261.43 256.207H253.141V264.496H261.43V256.207Z" fill="#DAD6D0"/>
<path d="M269.668 256.207H261.379V264.496H269.668V256.207Z" fill="#DAD6D0"/>
<path d="M211.99 247.934H203.701V256.223H211.99V247.934Z" fill="black"/>
<path d="M220.231 247.934H211.941V256.223H220.231V247.934Z" fill="black"/>
<path d="M203.735 247.934H195.445V256.223H203.735V247.934Z" fill="black"/>
<path d="M195.479 247.934H187.189V256.223H195.479V247.934Z" fill="black"/>
<path d="M244.949 264.496H236.66V272.785H244.949V264.496Z" fill="black"/>
<path d="M253.188 264.496H244.898V272.785H253.188V264.496Z" fill="black"/>
<path d="M261.43 264.496H253.141V272.785H261.43V264.496Z" fill="black"/>
<path d="M269.668 264.496H261.379V272.785H269.668V264.496Z" fill="black"/>
<path d="M277.957 247.934H269.668V256.223H277.957V247.934Z" fill="black"/>
<path d="M277.957 256.207H269.668V264.496H277.957V256.207Z" fill="black"/>
<path d="M277.957 264.496H269.668V272.785H277.957V264.496Z" fill="black"/>
<path d="M228.469 223.099H220.18V231.388H228.469V223.099Z" fill="black"/>
<path d="M228.469 231.372H220.18V239.661H228.469V231.372Z" fill="black"/>
<path d="M236.66 214.81H228.371V223.099H236.66V214.81Z" fill="black"/>
<path d="M236.66 223.099H228.371V231.388H236.66V223.099Z" fill="black"/>
</svg>
