<svg width="auto" height="auto" viewBox="0 0 270 372" fill="none" xmlns="http://www.w3.org/2000/svg">
<path d="M50.0684 328.569V337.06H58.5524V328.569H50.0684Z" fill="#FA0C0E"/>
<path d="M50.0684 336.907V345.398H58.5524V336.907H50.0684Z" fill="#FA0C0E"/>
<path d="M50.0684 320.044V328.535H58.5524V320.044H50.0684Z" fill="#FFFFEF"/>
<path d="M50.0684 311.604V320.095H58.5524V311.604H50.0684Z" fill="#FFFFEF"/>
<path d="M50.0684 303.164V311.655H58.5524V303.164H50.0684Z" fill="#FFFFEF"/>
<path d="M50.0684 294.742V303.232H58.5524V294.742H50.0684Z" fill="#F5080D"/>
<path d="M50.0684 286.302V294.792H58.5524V286.302H50.0684Z" fill="#F5080D"/>
<path d="M50.0156 328.976V337.467H58.4997V328.976H50.0156Z" fill="black"/>
<path d="M50 320.469V328.959H58.4841V320.469H50Z" fill="black"/>
<path d="M50.0156 311.978V320.469H58.4997V311.978H50.0156Z" fill="black"/>
<path d="M50.0156 303.487V311.978H58.4997V303.487H50.0156Z" fill="black"/>
<path d="M50 294.979V303.47H58.4841V294.979H50Z" fill="black"/>
<path d="M50.0156 286.489V294.979H58.4997V286.489H50.0156Z" fill="black"/>
<path d="M50 337.484V345.975H58.4841V337.484H50Z" fill="black"/>
<path d="M58.5176 337.484V345.975H67.0017V337.484H58.5176Z" fill="black"/>
<path d="M67.0352 337.484V345.975H75.5192V337.484H67.0352Z" fill="black"/>
<path d="M75.5547 337.484V345.975H84.0388V337.484H75.5547Z" fill="black"/>
<path d="M84.0723 337.484V345.975H92.5564V337.484H84.0723Z" fill="black"/>
<path d="M58.5352 277.981V286.472H67.0192V277.981H58.5352Z" fill="black"/>
<path d="M67.0527 277.981V286.472H75.5368V277.981H67.0527Z" fill="black"/>
<path d="M75.5703 277.981V286.472H84.0544V277.981H75.5703Z" fill="black"/>
<path d="M84.0879 277.981V286.472H92.572V277.981H84.0879Z" fill="black"/>
<path d="M92.5723 337.298V345.789H101.056V337.298H92.5723Z" fill="black"/>
<path d="M101.057 345.805V354.296H109.541V345.805H101.057Z" fill="black"/>
<path d="M92.5723 345.822V354.313H101.056V345.822H92.5723Z" fill="black"/>
<path d="M101.057 354.33V362.821H109.541V354.33H101.057Z" fill="black"/>
<path d="M101.057 269.508V277.999H109.541V269.508H101.057Z" fill="black"/>
<path d="M92.5566 269.508V277.999H101.041V269.508H92.5566Z" fill="black"/>
<path d="M101.057 261.017V269.507H109.541V261.017H101.057Z" fill="black"/>
<path d="M109.541 261V269.491H118.025V261H109.541Z" fill="black"/>
<path d="M117.939 303.47V311.961H126.424V303.47H117.939Z" fill="black"/>
<path d="M117.924 294.979V303.47H126.408V294.979H117.924Z" fill="black"/>
<path d="M117.939 286.489V294.979H126.424V286.489H117.939Z" fill="black"/>
<path d="M126.424 311.978V320.469H134.908V311.978H126.424Z" fill="black"/>
<path d="M134.908 311.978V320.469H143.392V311.978H134.908Z" fill="black"/>
<path d="M143.41 354.296V362.787H151.894V354.296H143.41Z" fill="#0080E1"/>
<path d="M143.41 328.976V337.467H151.894V328.976H143.41Z" fill="#0080E1"/>
<path d="M143.393 345.805V354.296H151.877V345.805H143.393Z" fill="#0080E1"/>
<path d="M143.393 320.486V328.977H151.877V320.486H143.393Z" fill="#0080E1"/>
<path d="M143.41 303.487V311.978H151.894V303.487H143.41Z" fill="#0080E1"/>
<path d="M143.393 294.997V303.487H151.877V294.997H143.393Z" fill="#0080E1"/>
<path d="M143.393 286.506V294.997H151.877V286.506H143.393Z" fill="black"/>
<path d="M143.41 277.998V286.489H151.894V277.998H143.41Z" fill="#0080E1"/>
<path d="M143.393 269.508V277.999H151.877V269.508H143.393Z" fill="#0080E1"/>
<path d="M143.393 261.017V269.507H151.877V261.017H143.393Z" fill="#0080E1"/>
<path d="M143.393 269.508V277.999H151.877V269.508H143.393Z" fill="black"/>
<path d="M143.41 277.998V286.489H151.894V277.998H143.41Z" fill="black"/>
<path d="M143.393 294.997V303.487H151.877V294.997H143.393Z" fill="black"/>
<path d="M143.41 303.487V311.978H151.894V303.487H143.41Z" fill="black"/>
<path d="M143.393 320.486V328.977H151.877V320.486H143.393Z" fill="black"/>
<path d="M143.393 328.976V337.467H151.877V328.976H143.393Z" fill="black"/>
<path d="M143.393 345.975V354.466H151.877V345.975H143.393Z" fill="black"/>
<path d="M143.393 354.466V362.957H151.877V354.466H143.393Z" fill="black"/>
<path d="M151.893 337.298V345.789H160.377V337.298H151.893Z" fill="#0080E1"/>
<path d="M151.893 311.978V320.469H160.377V311.978H151.893Z" fill="#0080E1"/>
<path d="M151.893 286.489V294.979H160.377V286.489H151.893Z" fill="#0080E1"/>
<path d="M151.895 261V269.491H160.379V261H151.895Z" fill="black"/>
<path d="M143.393 261.017V269.507H151.877V261.017H143.393Z" fill="black"/>
<path d="M160.377 337.298V345.789H168.861V337.298H160.377Z" fill="#0080E1"/>
<path d="M160.377 311.978V320.469H168.861V311.978H160.377Z" fill="#0080E1"/>
<path d="M160.377 286.489V294.979H168.861V286.489H160.377Z" fill="#0080E1"/>
<path d="M160.377 261V269.491H168.861V261H160.377Z" fill="black"/>
<path d="M168.861 337.314V345.805H177.345V337.314H168.861Z" fill="#0080E1"/>
<path d="M168.861 311.995V320.486H177.345V311.995H168.861Z" fill="#0080E1"/>
<path d="M168.861 286.506V294.997H177.345V286.506H168.861Z" fill="#0080E1"/>
<path d="M168.861 261.017V269.507H177.345V261.017H168.861Z" fill="black"/>
<path d="M109.559 362.821V371.312H118.043V362.821H109.559Z" fill="black"/>
<path d="M117.939 362.821V371.312H126.424V362.821H117.939Z" fill="black"/>
<path d="M126.424 362.838V371.329H134.908V362.838H126.424Z" fill="black"/>
<path d="M134.926 362.838V371.329H143.41V362.838H134.926Z" fill="black"/>
<path d="M143.41 362.838V371.329H151.894V362.838H143.41Z" fill="black"/>
<path d="M151.895 362.838V371.329H160.379V362.838H151.895Z" fill="black"/>
<path d="M160.377 362.838V371.329H168.861V362.838H160.377Z" fill="black"/>
<path d="M168.879 362.838V371.329H177.363V362.838H168.879Z" fill="black"/>
<path d="M177.363 362.821V371.312H185.847V362.821H177.363Z" fill="black"/>
<path d="M177.346 337.298V345.789H185.83V337.298H177.346Z" fill="#0080E1"/>
<path d="M177.363 311.978V320.469H185.847V311.978H177.363Z" fill="#0080E1"/>
<path d="M177.363 286.489V294.979H185.847V286.489H177.363Z" fill="#0080E1"/>
<path d="M177.346 261V269.491H185.83V261H177.346Z" fill="black"/>
<path d="M185.848 337.298V345.789H194.332V337.298H185.848Z" fill="black"/>
<path d="M185.83 345.805V354.296H194.314V345.805H185.83Z" fill="black"/>
<path d="M185.83 354.33V362.821H194.314V354.33H185.83Z" fill="black"/>
<path d="M185.848 311.978V320.469H194.332V311.978H185.848Z" fill="black"/>
<path d="M185.848 286.489V294.979H194.332V286.489H185.848Z" fill="black"/>
<path d="M177.328 286.489V294.979H185.812V286.489H177.328Z" fill="black"/>
<path d="M168.811 286.489V294.979H177.295V286.489H168.811Z" fill="black"/>
<path d="M160.293 286.489V294.979H168.777V286.489H160.293Z" fill="black"/>
<path d="M151.775 286.489V294.979H160.259V286.489H151.775Z" fill="black"/>
<path d="M177.328 311.978V320.469H185.812V311.978H177.328Z" fill="black"/>
<path d="M168.811 311.978V320.469H177.295V311.978H168.811Z" fill="black"/>
<path d="M160.293 311.978V320.469H168.777V311.978H160.293Z" fill="black"/>
<path d="M151.775 311.978V320.469H160.259V311.978H151.775Z" fill="black"/>
<path d="M177.328 337.298V345.789H185.812V337.298H177.328Z" fill="black"/>
<path d="M168.811 337.298V345.789H177.295V337.298H168.811Z" fill="black"/>
<path d="M160.293 337.298V345.789H168.777V337.298H160.293Z" fill="black"/>
<path d="M151.775 337.298V345.789H160.259V337.298H151.775Z" fill="black"/>
<path d="M58.5352 328.976V337.467H67.0192V328.976H58.5352Z" fill="#AFAFAF"/>
<path d="M58.5176 320.469V328.959H67.0017V320.469H58.5176Z" fill="#C5C5C5"/>
<path d="M58.5352 311.978V320.469H67.0192V311.978H58.5352Z" fill="#C5C5C5"/>
<path d="M58.5352 303.487V311.978H67.0192V303.487H58.5352Z" fill="#C5C5C5"/>
<path d="M58.5176 294.979V303.47H67.0017V294.979H58.5176Z" fill="#C5C5C5"/>
<path d="M58.5352 286.489V294.979H67.0192V286.489H58.5352Z" fill="#A1A1A1"/>
<path d="M67.0527 328.976V337.467H75.5368V328.976H67.0527Z" fill="#AFAFAF"/>
<path d="M67.0352 320.469V328.959H75.5192V320.469H67.0352Z" fill="#C5C5C5"/>
<path d="M67.0527 311.978V320.469H75.5368V311.978H67.0527Z" fill="#C5C5C5"/>
<path d="M67.0527 303.487V311.978H75.5368V303.487H67.0527Z" fill="#C5C5C5"/>
<path d="M67.0352 294.979V303.47H75.5192V294.979H67.0352Z" fill="#C5C5C5"/>
<path d="M67.0527 286.489V294.979H75.5368V286.489H67.0527Z" fill="#A1A1A1"/>
<path d="M75.5703 328.976V337.467H84.0544V328.976H75.5703Z" fill="#AFAFAF"/>
<path d="M75.5547 320.469V328.959H84.0388V320.469H75.5547Z" fill="#C5C5C5"/>
<path d="M75.5703 311.978V320.469H84.0544V311.978H75.5703Z" fill="#C5C5C5"/>
<path d="M75.5703 303.487V311.978H84.0544V303.487H75.5703Z" fill="#C5C5C5"/>
<path d="M75.5547 294.979V303.47H84.0388V294.979H75.5547Z" fill="#C5C5C5"/>
<path d="M75.5703 286.489V294.979H84.0544V286.489H75.5703Z" fill="#A1A1A1"/>
<path d="M84.0879 328.976V337.467H92.572V328.976H84.0879Z" fill="#AFAFAF"/>
<path d="M84.0723 320.469V328.959H92.5564V320.469H84.0723Z" fill="#C5C5C5"/>
<path d="M84.0879 311.978V320.469H92.572V311.978H84.0879Z" fill="#C5C5C5"/>
<path d="M84.0879 303.487V311.978H92.572V303.487H84.0879Z" fill="#C5C5C5"/>
<path d="M84.0723 294.979V303.47H92.5564V294.979H84.0723Z" fill="#C5C5C5"/>
<path d="M84.0879 286.489V294.979H92.572V286.489H84.0879Z" fill="#A1A1A1"/>
<path d="M92.5723 328.976V337.467H101.056V328.976H92.5723Z" fill="#C5C5C5"/>
<path d="M92.5723 320.486V328.977H101.056V320.486H92.5723Z" fill="#C5C5C5"/>
<path d="M92.5723 311.978V320.469H101.056V311.978H92.5723Z" fill="#C5C5C5"/>
<path d="M92.5723 303.487V311.978H101.056V303.487H92.5723Z" fill="#C5C5C5"/>
<path d="M92.5723 294.997V303.487H101.056V294.997H92.5723Z" fill="#C5C5C5"/>
<path d="M92.5723 286.489V294.979H101.056V286.489H92.5723Z" fill="#C5C5C5"/>
<path d="M92.5723 277.998V286.489H101.056V277.998H92.5723Z" fill="#A1A1A1"/>
<path d="M101.074 328.976V337.467H109.558V328.976H101.074Z" fill="#C5C5C5"/>
<path d="M101.057 337.314V345.805H109.541V337.314H101.057Z" fill="#AFAFAF"/>
<path d="M101.057 320.486V328.977H109.541V320.486H101.057Z" fill="#C5C5C5"/>
<path d="M101.057 311.978V320.469H109.541V311.978H101.057Z" fill="#C5C5C5"/>
<path d="M101.074 303.487V311.978H109.558V303.487H101.074Z" fill="#C5C5C5"/>
<path d="M101.057 294.997V303.487H109.541V294.997H101.057Z" fill="#C5C5C5"/>
<path d="M101.057 286.506V294.997H109.541V286.506H101.057Z" fill="#C5C5C5"/>
<path d="M101.074 277.998V286.489H109.558V277.998H101.074Z" fill="#868686"/>
<path d="M109.559 328.959V337.45H118.043V328.959H109.559Z" fill="#C5C5C5"/>
<path d="M109.541 337.298V345.789H118.025V337.298H109.541Z" fill="#C5C5C5"/>
<path d="M109.541 345.789V354.279H118.025V345.789H109.541Z" fill="#AFAFAF"/>
<path d="M109.559 354.279V362.77H118.043V354.279H109.559Z" fill="#AFAFAF"/>
<path d="M117.939 354.296V362.787H126.424V354.296H117.939Z" fill="#AFAFAF"/>
<path d="M109.541 320.469V328.959H118.025V320.469H109.541Z" fill="#C5C5C5"/>
<path d="M109.559 311.978V320.469H118.043V311.978H109.559Z" fill="#C5C5C5"/>
<path d="M109.559 303.47V311.961H118.043V303.47H109.559Z" fill="#868686"/>
<path d="M109.541 294.979V303.47H118.025V294.979H109.541Z" fill="#868686"/>
<path d="M109.559 286.489V294.979H118.043V286.489H109.559Z" fill="#868686"/>
<path d="M109.559 277.998V286.489H118.043V277.998H109.559Z" fill="#C5C5C5"/>
<path d="M109.541 269.49V277.981H118.025V269.49H109.541Z" fill="#A1A1A1"/>
<path d="M117.939 328.959V337.45H126.424V328.959H117.939Z" fill="#C5C5C5"/>
<path d="M117.924 337.298V345.789H126.408V337.298H117.924Z" fill="#C5C5C5"/>
<path d="M117.924 345.789V354.279H126.408V345.789H117.924Z" fill="#C5C5C5"/>
<path d="M117.924 320.469V328.959H126.408V320.469H117.924Z" fill="#C5C5C5"/>
<path d="M117.939 311.978V320.469H126.424V311.978H117.939Z" fill="#A1A1A1"/>
<path d="M117.939 277.998V286.489H126.424V277.998H117.939Z" fill="#C5C5C5"/>
<path d="M117.924 269.49V277.981H126.408V269.49H117.924Z" fill="#C5C5C5"/>
<path d="M117.924 261V269.491H126.408V261H117.924Z" fill="#A1A1A1"/>
<path d="M126.424 354.296V362.787H134.908V354.296H126.424Z" fill="#C5C5C5"/>
<path d="M126.424 328.976V337.467H134.908V328.976H126.424Z" fill="#C5C5C5"/>
<path d="M126.424 337.298V345.789H134.908V337.298H126.424Z" fill="#C5C5C5"/>
<path d="M126.408 345.805V354.296H134.892V345.805H126.408Z" fill="#C5C5C5"/>
<path d="M126.424 320.469V328.959H134.908V320.469H126.424Z" fill="#C5C5C5"/>
<path d="M126.424 303.487V311.978H134.908V303.487H126.424Z" fill="#C5C5C5"/>
<path d="M126.424 294.979V303.47H134.908V294.979H126.424Z" fill="#C5C5C5"/>
<path d="M126.424 286.489V294.979H134.908V286.489H126.424Z" fill="#C5C5C5"/>
<path d="M126.424 277.998V286.489H134.908V277.998H126.424Z" fill="#C5C5C5"/>
<path d="M126.408 269.508V277.999H134.892V269.508H126.408Z" fill="#C5C5C5"/>
<path d="M126.424 261V269.491H134.908V261H126.424Z" fill="#A1A1A1"/>
<path d="M134.908 354.296V362.787H143.392V354.296H134.908Z" fill="#868686"/>
<path d="M134.926 328.976V337.467H143.41V328.976H134.926Z" fill="#868686"/>
<path d="M134.908 337.314V345.805H143.392V337.314H134.908Z" fill="#C5C5C5"/>
<path d="M134.908 345.805V354.296H143.392V345.805H134.908Z" fill="#868686"/>
<path d="M134.908 320.486V328.977H143.392V320.486H134.908Z" fill="#868686"/>
<path d="M134.908 303.487V311.978H143.392V303.487H134.908Z" fill="#AFAFAF"/>
<path d="M134.908 294.997V303.487H143.392V294.997H134.908Z" fill="#AFAFAF"/>
<path d="M134.908 286.489V294.979H143.392V286.489H134.908Z" fill="#AFAFAF"/>
<path d="M134.908 277.998V286.489H143.392V277.998H134.908Z" fill="#AFAFAF"/>
<path d="M134.908 269.508V277.999H143.392V269.508H134.908Z" fill="#AFAFAF"/>
<path d="M134.908 261.017V269.507H143.392V261.017H134.908Z" fill="#AFAFAF"/>
<path d="M143.393 337.314V345.805H151.877V337.314H143.393Z" fill="#868686"/>
<path d="M143.393 311.995V320.486H151.877V311.995H143.393Z" fill="#868686"/>
<path d="M151.893 354.296V362.787H160.377V354.296H151.893Z" fill="#C5C5C5"/>
<path d="M151.893 328.976V337.467H160.377V328.976H151.893Z" fill="#C5C5C5"/>
<path d="M151.877 345.789V354.279H160.361V345.789H151.877Z" fill="#A1A1A1"/>
<path d="M151.877 320.469V328.959H160.361V320.469H151.877Z" fill="#A1A1A1"/>
<path d="M151.893 303.487V311.978H160.377V303.487H151.893Z" fill="#C5C5C5"/>
<path d="M151.877 294.979V303.47H160.361V294.979H151.877Z" fill="#A1A1A1"/>
<path d="M151.893 277.998V286.489H160.377V277.998H151.893Z" fill="#C5C5C5"/>
<path d="M151.877 269.49V277.981H160.361V269.49H151.877Z" fill="#A1A1A1"/>
<path d="M160.377 354.296V362.787H168.861V354.296H160.377Z" fill="#C5C5C5"/>
<path d="M160.377 328.976V337.467H168.861V328.976H160.377Z" fill="#C5C5C5"/>
<path d="M160.377 345.805V354.296H168.861V345.805H160.377Z" fill="#A1A1A1"/>
<path d="M160.377 320.486V328.977H168.861V320.486H160.377Z" fill="#A1A1A1"/>
<path d="M160.377 303.487V311.978H168.861V303.487H160.377Z" fill="#C5C5C5"/>
<path d="M160.377 294.997V303.487H168.861V294.997H160.377Z" fill="#A1A1A1"/>
<path d="M160.377 277.998V286.489H168.861V277.998H160.377Z" fill="#C5C5C5"/>
<path d="M160.377 269.508V277.999H168.861V269.508H160.377Z" fill="#A1A1A1"/>
<path d="M168.879 354.296V362.787H177.363V354.296H168.879Z" fill="#C5C5C5"/>
<path d="M168.879 328.976V337.467H177.363V328.976H168.879Z" fill="#C5C5C5"/>
<path d="M168.861 345.805V354.296H177.345V345.805H168.861Z" fill="#A1A1A1"/>
<path d="M168.861 320.486V328.977H177.345V320.486H168.861Z" fill="#A1A1A1"/>
<path d="M168.879 303.487V311.978H177.363V303.487H168.879Z" fill="#C5C5C5"/>
<path d="M168.861 294.997V303.487H177.345V294.997H168.861Z" fill="#A1A1A1"/>
<path d="M168.879 277.998V286.489H177.363V277.998H168.879Z" fill="#C5C5C5"/>
<path d="M168.861 269.508V277.999H177.345V269.508H168.861Z" fill="#A1A1A1"/>
<path d="M177.363 354.296V362.787H185.847V354.296H177.363Z" fill="#AFAFAF"/>
<path d="M177.363 328.959V337.45H185.847V328.959H177.363Z" fill="#C5C5C5"/>
<path d="M177.346 345.789V354.279H185.83V345.789H177.346Z" fill="#AFAFAF"/>
<path d="M177.346 320.469V328.959H185.83V320.469H177.346Z" fill="#A1A1A1"/>
<path d="M177.363 303.487V311.978H185.847V303.487H177.363Z" fill="#C5C5C5"/>
<path d="M177.346 294.979V303.47H185.83V294.979H177.346Z" fill="#A1A1A1"/>
<path d="M177.363 277.998V286.489H185.847V277.998H177.363Z" fill="#C5C5C5"/>
<path d="M177.346 269.49V277.981H185.83V269.49H177.346Z" fill="#A1A1A1"/>
<path d="M185.848 328.976V337.467H194.332V328.976H185.848Z" fill="#AFAFAF"/>
<path d="M185.848 320.469V328.959H194.332V320.469H185.848Z" fill="#AFAFAF"/>
<path d="M185.848 303.487V311.978H194.332V303.487H185.848Z" fill="#AFAFAF"/>
<path d="M185.848 294.979V303.47H194.332V294.979H185.848Z" fill="#AFAFAF"/>
<path d="M185.848 277.998V286.489H194.332V277.998H185.848Z" fill="#AFAFAF"/>
<path d="M185.83 269.508V277.999H194.314V269.508H185.83Z" fill="#AFAFAF"/>
<path d="M185.848 261V269.491H194.332V261H185.848Z" fill="black"/>
<path d="M194.33 320.486V328.977H202.814V320.486H194.33Z" fill="black"/>
<path d="M194.348 328.976V337.467H202.832V328.976H194.348Z" fill="black"/>
<path d="M194.348 303.487V311.978H202.832V303.487H194.348Z" fill="black"/>
<path d="M194.33 294.997V303.487H202.814V294.997H194.33Z" fill="black"/>
<path d="M194.33 277.998V286.489H202.814V277.998H194.33Z" fill="black"/>
<path d="M194.33 269.508V277.999H202.814V269.508H194.33Z" fill="black"/>
<path d="M50.0156 277.947V286.438H58.4997V277.947H50.0156Z" fill="black"/>
<path d="M101.141 269.745H109.625V261.254H101.141V269.745Z" fill="black"/>
<path d="M84.2757 278.219H92.7598V269.728H84.2757V278.219Z" fill="black"/>
<path d="M118.008 269.745H126.492V261.254H118.008V269.745Z" fill="black"/>
<path d="M109.575 269.745H118.059V261.254H109.575V269.745Z" fill="black"/>
<path d="M126.457 269.745H134.941V261.254H126.457V269.745Z" fill="black"/>
<path d="M134.891 269.745H143.375V261.254H134.891V269.745Z" fill="black"/>
<path d="M84.2757 286.709H92.7598V278.219H84.2757V286.709Z" fill="black"/>
<path d="M75.8421 286.709H84.3262V278.219H75.8421V286.709Z" fill="black"/>
<path d="M67.4085 286.709H75.8926V278.219H67.4085V286.709Z" fill="black"/>
<path d="M58.9749 286.709H67.459V278.219H58.9749V286.709Z" fill="black"/>
<path d="M50.4925 286.709H58.9766V278.219H50.4925V286.709Z" fill="black"/>
<path d="M66.3809 270.652V279.143H74.8649V270.652H66.3809Z" fill="black"/>
<path d="M74.8984 270.652V279.143H83.3825V270.652H74.8984Z" fill="black"/>
<path d="M83.416 270.652V279.143H91.9001V270.652H83.416Z" fill="black"/>
<path d="M91.9336 270.652V279.143H100.418V270.652H91.9336Z" fill="black"/>
<path d="M108.902 253.688V262.179H117.386V253.688H108.902Z" fill="black"/>
<path d="M117.387 253.671V262.162H125.871V253.671H117.387Z" fill="black"/>
<path d="M125.785 245.18V253.671H134.269V245.18H125.785Z" fill="black"/>
<path d="M134.27 245.18V253.671H142.754V245.18H134.27Z" fill="black"/>
<path d="M142.754 245.18V253.671H151.238V245.18H142.754Z" fill="black"/>
<path d="M125.77 253.671V262.162H134.254V253.671H125.77Z" fill="#A1A1A1"/>
<path d="M134.27 253.671V262.162H142.754V253.671H134.27Z" fill="#A1A1A1"/>
<path d="M142.754 253.688V262.179H151.238V253.688H142.754Z" fill="#AFAFAF"/>
<path d="M57.8613 270.618V279.109H66.3454V270.618H57.8613Z" fill="black"/>
<path d="M151.051 20.1234V11.6836H142.618V20.1234H151.051Z" fill="#DDF8FF"/>
<path d="M142.619 20.1234V11.6836H134.186V20.1234H142.619Z" fill="#DDF8FF"/>
<path d="M134.168 20.1234V11.6836H125.735V20.1234H134.168Z" fill="#DDF8FF"/>
<path d="M125.734 20.1234V11.6836H117.301V20.1234H125.734Z" fill="#DDF8FF"/>
<path d="M117.285 20.1234V11.6836H108.852V20.1234H117.285Z" fill="#DDF8FF"/>
<path d="M108.852 20.14V11.7002H100.418V20.14H108.852Z" fill="#DDF8FF"/>
<path d="M100.402 20.1234V11.6836H91.9692V20.1234H100.402Z" fill="#DDF8FF"/>
<path d="M91.9688 20.14V11.7002H83.5356V20.14H91.9688Z" fill="#DDF8FF"/>
<path d="M83.5176 20.1234V11.6836H75.0844V20.1234H83.5176Z" fill="#DDF8FF"/>
<path d="M75.0684 20.14V11.7002H66.6352V20.14H75.0684Z" fill="#DDF8FF"/>
<path d="M66.6348 20.1234V11.6836H58.2016V20.1234H66.6348Z" fill="#DDF8FF"/>
<path d="M58.1855 20.14V11.7002H49.7524V20.14H58.1855Z" fill="#DDF8FF"/>
<path d="M49.752 20.1234V11.6836H41.3188V20.1234H49.752Z" fill="#DDF8FF"/>
<path d="M42.064 20.0381H33.6309V28.4779H42.064V20.0381Z" fill="#DDF8FF"/>
<path d="M167.936 28.4779V20.0381H159.502V28.4779H167.936Z" fill="#DDF8FF"/>
<path d="M159.502 28.4779V20.0381H151.069V28.4779H159.502Z" fill="#DDF8FF"/>
<path d="M159.502 25.3031V16.8633H151.069V25.3031H159.502Z" fill="#DDF8FF"/>
<path d="M151.051 28.4779V20.0381H142.618V28.4779H151.051Z" fill="#DDF8FF"/>
<path d="M142.619 28.4779V20.0381H134.186V28.4779H142.619Z" fill="#DDF8FF"/>
<path d="M134.168 28.4779V20.0381H125.735V28.4779H134.168Z" fill="#DDF8FF"/>
<path d="M125.734 28.4779V20.0381H117.301V28.4779H125.734Z" fill="#DDF8FF"/>
<path d="M117.285 28.4779V20.0381H108.852V28.4779H117.285Z" fill="#DDF8FF"/>
<path d="M108.852 28.4945V20.0547H100.418V28.4945H108.852Z" fill="#DDF8FF"/>
<path d="M100.402 28.4779V20.0381H91.9692V28.4779H100.402Z" fill="#DDF8FF"/>
<path d="M91.9688 28.4945V20.0547H83.5356V28.4945H91.9688Z" fill="#DDF8FF"/>
<path d="M83.5176 28.4779V20.0381H75.0844V28.4779H83.5176Z" fill="#DDF8FF"/>
<path d="M75.0684 28.4945V20.0547H66.6352V28.4945H75.0684Z" fill="#DDF8FF"/>
<path d="M66.6348 28.4779V20.0381H58.2016V28.4779H66.6348Z" fill="#DDF8FF"/>
<path d="M58.1855 28.4945V20.0547H49.7524V28.4945H58.1855Z" fill="#DDF8FF"/>
<path d="M49.752 28.4779V20.0381H41.3188V28.4779H49.752Z" fill="#DDF8FF"/>
<path d="M33.6324 28.3926H25.1992V36.8324H33.6324V28.3926Z" fill="#DDF8FF"/>
<path d="M42.064 28.3926H33.6309V36.8324H42.064V28.3926Z" fill="#DDF8FF"/>
<path d="M167.936 36.8324V28.3926H159.502V36.8324H167.936Z" fill="#DDF8FF"/>
<path d="M159.502 36.8324V28.3926H151.069V36.8324H159.502Z" fill="#DDF8FF"/>
<path d="M151.051 36.8324V28.3926H142.618V36.8324H151.051Z" fill="#DDF8FF"/>
<path d="M142.619 36.8324V28.3926H134.186V36.8324H142.619Z" fill="#DDF8FF"/>
<path d="M134.168 36.8324V28.3926H125.735V36.8324H134.168Z" fill="#DDF8FF"/>
<path d="M125.734 36.8324V28.3926H117.301V36.8324H125.734Z" fill="#DDF8FF"/>
<path d="M117.285 36.8324V28.3926H108.852V36.8324H117.285Z" fill="#DDF8FF"/>
<path d="M108.852 36.85V28.4102H100.418V36.85H108.852Z" fill="#DDF8FF"/>
<path d="M100.402 36.8324V28.3926H91.9692V36.8324H100.402Z" fill="#DDF8FF"/>
<path d="M91.9688 36.85V28.4102H83.5356V36.85H91.9688Z" fill="#DDF8FF"/>
<path d="M83.5176 36.8324V28.3926H75.0844V36.8324H83.5176Z" fill="#DDF8FF"/>
<path d="M75.0684 36.85V28.4102H66.6352V36.85H75.0684Z" fill="#DDF8FF"/>
<path d="M66.6348 36.8324V28.3926H58.2016V36.8324H66.6348Z" fill="#DDF8FF"/>
<path d="M58.1855 36.85V28.4102H49.7524V36.85H58.1855Z" fill="#DDF8FF"/>
<path d="M49.752 36.8324V28.3926H41.3188V36.8324H49.752Z" fill="#DDF8FF"/>
<path d="M33.6324 36.748H25.1992V45.1879H33.6324V36.748Z" fill="#DDF8FF"/>
<path d="M42.064 36.748H33.6309V45.1879H42.064V36.748Z" fill="#DDF8FF"/>
<path d="M25.2496 36.748H16.8164V45.1879H25.2496V36.748Z" fill="#DDF8FF"/>
<path d="M176.385 45.2055V36.7656H167.952V45.2055H176.385Z" fill="#DDF8FF"/>
<path d="M167.936 45.1879V36.748H159.502V45.1879H167.936Z" fill="#DDF8FF"/>
<path d="M159.502 45.1879V36.748H151.069V45.1879H159.502Z" fill="#DDF8FF"/>
<path d="M151.051 45.1879V36.748H142.618V45.1879H151.051Z" fill="#DDF8FF"/>
<path d="M142.619 45.1879V36.748H134.186V45.1879H142.619Z" fill="#DDF8FF"/>
<path d="M134.168 45.1879V36.748H125.735V45.1879H134.168Z" fill="#DDF8FF"/>
<path d="M125.734 45.1879V36.748H117.301V45.1879H125.734Z" fill="#DDF8FF"/>
<path d="M117.285 45.1879V36.748H108.852V45.1879H117.285Z" fill="#DDF8FF"/>
<path d="M108.852 45.2055V36.7656H100.418V45.2055H108.852Z" fill="#DDF8FF"/>
<path d="M100.402 45.1879V36.748H91.9692V45.1879H100.402Z" fill="#DDF8FF"/>
<path d="M91.9512 45.2055V36.7656H83.518V45.2055H91.9512Z" fill="#DDF8FF"/>
<path d="M83.5176 45.1879V36.748H75.0844V45.1879H83.5176Z" fill="#DDF8FF"/>
<path d="M75.0684 45.2055V36.7656H66.6352V45.2055H75.0684Z" fill="#DDF8FF"/>
<path d="M66.6348 45.1879V36.748H58.2016V45.1879H66.6348Z" fill="#DDF8FF"/>
<path d="M58.1855 45.2055V36.7656H49.7524V45.2055H58.1855Z" fill="#DDF8FF"/>
<path d="M49.752 45.1879V36.748H41.3188V45.1879H49.752Z" fill="#DDF8FF"/>
<path d="M33.6324 45.1035H25.1992V53.5434H33.6324V45.1035Z" fill="#DDF8FF"/>
<path d="M42.064 45.1035H33.6309V53.5434H42.064V45.1035Z" fill="#DDF8FF"/>
<path d="M25.2496 45.1035H16.8164V53.5434H25.2496V45.1035Z" fill="#DDF8FF"/>
<path d="M16.8336 45.1035H8.40039V53.5434H16.8336V45.1035Z" fill="#DDF8FF"/>
<path d="M184.836 53.56V45.1201H176.403V53.56H184.836Z" fill="#DDF8FF"/>
<path d="M151.051 16.8793V8.43945H142.618V16.8793H151.051Z" fill="#DDF8FF"/>
<path d="M142.619 16.8793V8.43945H134.186V16.8793H142.619Z" fill="#DDF8FF"/>
<path d="M134.168 16.8793V8.43945H125.735V16.8793H134.168Z" fill="#DDF8FF"/>
<path d="M125.719 16.8793V8.43945H117.286V16.8793H125.719Z" fill="#DDF8FF"/>
<path d="M117.285 16.8793V8.43945H108.852V16.8793H117.285Z" fill="#DDF8FF"/>
<path d="M108.834 16.8793V8.43945H100.401V16.8793H108.834Z" fill="#DDF8FF"/>
<path d="M100.402 16.8793V8.43945H91.9692V16.8793H100.402Z" fill="#DDF8FF"/>
<path d="M91.9512 16.8793V8.43945H83.518V16.8793H91.9512Z" fill="#DDF8FF"/>
<path d="M83.5176 16.8793V8.43945H75.0844V16.8793H83.5176Z" fill="#DDF8FF"/>
<path d="M75.0684 16.8793V8.43945H66.6352V16.8793H75.0684Z" fill="#DDF8FF"/>
<path d="M66.6348 16.8793V8.43945H58.2016V16.8793H66.6348Z" fill="#DDF8FF"/>
<path d="M58.1855 16.8969V8.45703H49.7524V16.8969H58.1855Z" fill="#DDF8FF"/>
<path d="M49.752 16.8793V8.43945H41.3188V16.8793H49.752Z" fill="#DDF8FF"/>
<path d="M42.064 16.7949H33.6309V25.2348H42.064V16.7949Z" fill="#DDF8FF"/>
<path d="M33.6324 25.1504H25.1992V33.5902H33.6324V25.1504Z" fill="#DDF8FF"/>
<path d="M25.2496 33.5049H16.8164V41.9447H25.2496V33.5049Z" fill="#DDF8FF"/>
<path d="M176.385 41.9613V33.5215H167.952V41.9613H176.385Z" fill="#DDF8FF"/>
<path d="M16.8336 41.8594H8.40039V50.2992H16.8336V41.8594Z" fill="#DDF8FF"/>
<path d="M184.836 50.2992V41.8594H176.403V50.2992H184.836Z" fill="#DDF8FF"/>
<path d="M176.385 53.5599V45.1201H167.952V53.5599H176.385Z" fill="#DDF8FF"/>
<path d="M167.936 53.5434V45.1035H159.502V53.5434H167.936Z" fill="#DDF8FF"/>
<path d="M159.502 53.5433V45.1035H151.069V53.5433H159.502Z" fill="#DDF8FF"/>
<path d="M151.051 53.5434V45.1035H142.618V53.5434H151.051Z" fill="#DDF8FF"/>
<path d="M142.619 53.5434V45.1035H134.186V53.5434H142.619Z" fill="#DDF8FF"/>
<path d="M134.168 53.5433V45.1035H125.735V53.5433H134.168Z" fill="#DDF8FF"/>
<path d="M125.734 53.5434V45.1035H117.301V53.5434H125.734Z" fill="#DDF8FF"/>
<path d="M117.285 53.5434V45.1035H108.852V53.5434H117.285Z" fill="#DDF8FF"/>
<path d="M108.852 53.56V45.1201H100.418V53.56H108.852Z" fill="#DDF8FF"/>
<path d="M100.402 53.5434V45.1035H91.9692V53.5434H100.402Z" fill="#DDF8FF"/>
<path d="M91.9512 53.56V45.1201H83.518V53.56H91.9512Z" fill="#DDF8FF"/>
<path d="M83.5176 53.5434V45.1035H75.0844V53.5434H83.5176Z" fill="#DDF8FF"/>
<path d="M75.0684 53.56V45.1201H66.6352V53.56H75.0684Z" fill="#DDF8FF"/>
<path d="M66.6348 53.5434V45.1035H58.2016V53.5434H66.6348Z" fill="#DDF8FF"/>
<path d="M58.1855 53.56V45.1201H49.7524V53.56H58.1855Z" fill="#DDF8FF"/>
<path d="M49.752 53.5434V45.1035H41.3188V53.5434H49.752Z" fill="#DDF8FF"/>
<path d="M33.6324 53.458H25.1992V61.8979H33.6324V53.458Z" fill="#DDF8FF"/>
<path d="M42.064 53.458H33.6309V61.8979H42.064V53.458Z" fill="#DDF8FF"/>
<path d="M25.2496 53.458H16.8164V61.8979H25.2496V53.458Z" fill="#DDF8FF"/>
<path d="M16.8336 53.458H8.40039V61.8979H16.8336V53.458Z" fill="#DDF8FF"/>
<path d="M184.836 61.9145V53.4746H176.403V61.9145H184.836Z" fill="#DDF8FF"/>
<path d="M176.385 61.9144V53.4746H167.952V61.9144H176.385Z" fill="#DDF8FF"/>
<path d="M167.936 61.8979V53.458H159.502V61.8979H167.936Z" fill="#DDF8FF"/>
<path d="M159.502 61.8978V53.458H151.069V61.8978H159.502Z" fill="#DDF8FF"/>
<path d="M151.051 61.8979V53.458H142.618V61.8979H151.051Z" fill="#DDF8FF"/>
<path d="M142.619 61.8979V53.458H134.186V61.8979H142.619Z" fill="#DDF8FF"/>
<path d="M134.168 61.8978V53.458H125.735V61.8978H134.168Z" fill="#DDF8FF"/>
<path d="M125.734 61.8979V53.458H117.301V61.8979H125.734Z" fill="#DDF8FF"/>
<path d="M117.285 61.8979V53.458H108.852V61.8979H117.285Z" fill="#DDF8FF"/>
<path d="M108.852 61.9145V53.4746H100.418V61.9145H108.852Z" fill="#DDF8FF"/>
<path d="M100.402 61.8979V53.458H91.9692V61.8979H100.402Z" fill="#DDF8FF"/>
<path d="M91.9512 61.9145V53.4746H83.518V61.9145H91.9512Z" fill="#DDF8FF"/>
<path d="M83.5176 61.8979V53.458H75.0844V61.8979H83.5176Z" fill="#DDF8FF"/>
<path d="M75.0684 61.9144V53.4746H66.6352V61.9144H75.0684Z" fill="#DDF8FF"/>
<path d="M66.6348 61.8979V53.458H58.2016V61.8979H66.6348Z" fill="#DDF8FF"/>
<path d="M58.1855 61.9145V53.4746H49.7524V61.9145H58.1855Z" fill="#DDF8FF"/>
<path d="M49.752 61.8979V53.458H41.3188V61.8979H49.752Z" fill="#DDF8FF"/>
<path d="M33.6324 61.8125H25.1992V70.2523H33.6324V61.8125Z" fill="#DDF8FF"/>
<path d="M42.064 61.8125H33.6309V70.2523H42.064V61.8125Z" fill="#DDF8FF"/>
<path d="M25.2496 61.8125H16.8164V70.2523H25.2496V61.8125Z" fill="#DDF8FF"/>
<path d="M16.8336 61.8125H8.40039V70.2523H16.8336V61.8125Z" fill="#DDF8FF"/>
<path d="M184.836 70.2699V61.8301H176.403V70.2699H184.836Z" fill="#DDF8FF"/>
<path d="M176.385 70.2699V61.8301H167.952V70.2699H176.385Z" fill="#DDF8FF"/>
<path d="M167.936 70.2523V61.8125H159.502V70.2523H167.936Z" fill="#DDF8FF"/>
<path d="M159.502 70.2523V61.8125H151.069V70.2523H159.502Z" fill="#DDF8FF"/>
<path d="M151.051 70.2523V61.8125H142.618V70.2523H151.051Z" fill="#DDF8FF"/>
<path d="M142.619 70.2523V61.8125H134.186V70.2523H142.619Z" fill="#DDF8FF"/>
<path d="M134.168 70.2523V61.8125H125.735V70.2523H134.168Z" fill="#DDF8FF"/>
<path d="M125.734 70.2523V61.8125H117.301V70.2523H125.734Z" fill="#DDF8FF"/>
<path d="M117.285 70.2523V61.8125H108.852V70.2523H117.285Z" fill="#DDF8FF"/>
<path d="M108.852 70.2523V61.8125H100.418V70.2523H108.852Z" fill="#DDF8FF"/>
<path d="M100.402 70.2523V61.8125H91.9692V70.2523H100.402Z" fill="#DDF8FF"/>
<path d="M91.9512 70.2699V61.8301H83.518V70.2699H91.9512Z" fill="#DDF8FF"/>
<path d="M83.5176 70.2523V61.8125H75.0844V70.2523H83.5176Z" fill="#DDF8FF"/>
<path d="M75.0684 70.2699V61.8301H66.6352V70.2699H75.0684Z" fill="#DDF8FF"/>
<path d="M66.6348 70.2523V61.8125H58.2016V70.2523H66.6348Z" fill="#DDF8FF"/>
<path d="M58.1855 70.2699V61.8301H49.7524V70.2699H58.1855Z" fill="#DDF8FF"/>
<path d="M49.752 70.2523V61.8125H41.3188V70.2523H49.752Z" fill="#DDF8FF"/>
<path d="M33.6324 70.168H25.1992V78.6078H33.6324V70.168Z" fill="#DDF8FF"/>
<path d="M42.064 70.168H33.6309V78.6078H42.064V70.168Z" fill="#DDF8FF"/>
<path d="M25.2496 70.168H16.8164V78.6078H25.2496V70.168Z" fill="#DDF8FF"/>
<path d="M16.8336 70.168H8.40039V78.6078H16.8336V70.168Z" fill="#DDF8FF"/>
<path d="M184.836 78.6244V70.1846H176.403V78.6244H184.836Z" fill="#DDF8FF"/>
<path d="M176.385 78.6254V70.1855H167.952V78.6254H176.385Z" fill="#DDF8FF"/>
<path d="M167.936 78.6078V70.168H159.502V78.6078H167.936Z" fill="#DDF8FF"/>
<path d="M159.502 78.6078V70.168H151.069V78.6078H159.502Z" fill="#DDF8FF"/>
<path d="M151.051 78.6078V70.168H142.618V78.6078H151.051Z" fill="#DDF8FF"/>
<path d="M142.619 78.6078V70.168H134.186V78.6078H142.619Z" fill="#DDF8FF"/>
<path d="M134.168 78.6078V70.168H125.735V78.6078H134.168Z" fill="#DDF8FF"/>
<path d="M125.734 78.6078V70.168H117.301V78.6078H125.734Z" fill="#DDF8FF"/>
<path d="M117.285 78.6078V70.168H108.852V78.6078H117.285Z" fill="#DDF8FF"/>
<path d="M108.852 78.6078V70.168H100.418V78.6078H108.852Z" fill="#DDF8FF"/>
<path d="M100.402 78.6078V70.168H91.9692V78.6078H100.402Z" fill="#DDF8FF"/>
<path d="M91.9512 78.6254V70.1855H83.518V78.6254H91.9512Z" fill="#DDF8FF"/>
<path d="M83.5176 78.6078V70.168H75.0844V78.6078H83.5176Z" fill="#DDF8FF"/>
<path d="M75.0684 78.6244V70.1846H66.6352V78.6244H75.0684Z" fill="#DDF8FF"/>
<path d="M66.6348 78.6078V70.168H58.2016V78.6078H66.6348Z" fill="#DDF8FF"/>
<path d="M58.1855 78.6244V70.1846H49.7524V78.6244H58.1855Z" fill="#DDF8FF"/>
<path d="M49.752 78.6078V70.168H41.3188V78.6078H49.752Z" fill="#DDF8FF"/>
<path d="M33.6324 78.5234H25.1992V86.9633H33.6324V78.5234Z" fill="#DDF8FF"/>
<path d="M42.064 78.5234H33.6309V86.9633H42.064V78.5234Z" fill="#DDF8FF"/>
<path d="M25.2496 78.5234H16.8164V86.9633H25.2496V78.5234Z" fill="#DDF8FF"/>
<path d="M16.8336 78.5234H8.40039V86.9633H16.8336V78.5234Z" fill="#DDF8FF"/>
<path d="M184.836 86.9789V78.5391H176.403V86.9789H184.836Z" fill="#DDF8FF"/>
<path d="M176.385 86.9789V78.5391H167.952V86.9789H176.385Z" fill="#DDF8FF"/>
<path d="M167.936 86.9633V78.5234H159.502V86.9633H167.936Z" fill="#DDF8FF"/>
<path d="M159.502 86.9633V78.5234H151.069V86.9633H159.502Z" fill="#DDF8FF"/>
<path d="M151.051 86.9633V78.5234H142.618V86.9633H151.051Z" fill="#DDF8FF"/>
<path d="M142.619 86.9633V78.5234H134.186V86.9633H142.619Z" fill="#DDF8FF"/>
<path d="M134.168 86.9633V78.5234H125.735V86.9633H134.168Z" fill="#DDF8FF"/>
<path d="M125.734 86.9633V78.5234H117.301V86.9633H125.734Z" fill="#DDF8FF"/>
<path d="M117.285 86.9633V78.5234H108.852V86.9633H117.285Z" fill="#DDF8FF"/>
<path d="M108.852 86.9633V78.5234H100.418V86.9633H108.852Z" fill="#DDF8FF"/>
<path d="M100.402 86.9633V78.5234H91.9692V86.9633H100.402Z" fill="#DDF8FF"/>
<path d="M91.9512 86.9789V78.5391H83.518V86.9789H91.9512Z" fill="#DDF8FF"/>
<path d="M83.5176 86.9633V78.5234H75.0844V86.9633H83.5176Z" fill="#DDF8FF"/>
<path d="M75.0684 86.9789V78.5391H66.6352V86.9789H75.0684Z" fill="#DDF8FF"/>
<path d="M66.6348 86.9633V78.5234H58.2016V86.9633H66.6348Z" fill="#DDF8FF"/>
<path d="M58.1855 86.9789V78.5391H49.7524V86.9789H58.1855Z" fill="#DDF8FF"/>
<path d="M49.752 86.9633V78.5234H41.3188V86.9633H49.752Z" fill="#DDF8FF"/>
<path d="M33.6324 86.8779H25.1992V95.3178H33.6324V86.8779Z" fill="#DDF8FF"/>
<path d="M42.064 86.8779H33.6309V95.3178H42.064V86.8779Z" fill="#DDF8FF"/>
<path d="M25.2496 86.8779H16.8164V95.3178H25.2496V86.8779Z" fill="#DDF8FF"/>
<path d="M16.8336 86.8779H8.40039V95.3178H16.8336V86.8779Z" fill="#DDF8FF"/>
<path d="M184.836 95.3344V86.8945H176.403V95.3344H184.836Z" fill="#DDF8FF"/>
<path d="M176.385 95.3344V86.8945H167.952V95.3344H176.385Z" fill="#DDF8FF"/>
<path d="M167.936 95.3178V86.8779H159.502V95.3178H167.936Z" fill="#DDF8FF"/>
<path d="M159.502 95.3178V86.8779H151.069V95.3178H159.502Z" fill="#DDF8FF"/>
<path d="M151.051 95.3178V86.8779H142.618V95.3178H151.051Z" fill="#DDF8FF"/>
<path d="M142.619 95.3178V86.8779H134.186V95.3178H142.619Z" fill="#DDF8FF"/>
<path d="M134.168 95.3178V86.8779H125.735V95.3178H134.168Z" fill="#DDF8FF"/>
<path d="M125.734 95.3178V86.8779H117.301V95.3178H125.734Z" fill="#DDF8FF"/>
<path d="M117.285 95.3178V86.8779H108.852V95.3178H117.285Z" fill="#DDF8FF"/>
<path d="M108.852 95.3178V86.8779H100.418V95.3178H108.852Z" fill="#DDF8FF"/>
<path d="M100.402 95.3178V86.8779H91.9692V95.3178H100.402Z" fill="#DDF8FF"/>
<path d="M91.9512 95.3344V86.8945H83.518V95.3344H91.9512Z" fill="#DDF8FF"/>
<path d="M83.5176 95.3178V86.8779H75.0844V95.3178H83.5176Z" fill="#DDF8FF"/>
<path d="M75.0684 95.3344V86.8945H66.6352V95.3344H75.0684Z" fill="#DDF8FF"/>
<path d="M66.6348 95.3178V86.8779H58.2016V95.3178H66.6348Z" fill="#DDF8FF"/>
<path d="M58.1855 95.3344V86.8945H49.7524V95.3344H58.1855Z" fill="#DDF8FF"/>
<path d="M49.752 95.3178V86.8779H41.3188V95.3178H49.752Z" fill="#DDF8FF"/>
<path d="M33.6324 95.2324H25.1992V103.672H33.6324V95.2324Z" fill="#DDF8FF"/>
<path d="M42.064 95.2324H33.6309V103.672H42.064V95.2324Z" fill="#DDF8FF"/>
<path d="M25.2496 95.2324H16.8164V103.672H25.2496V95.2324Z" fill="#DDF8FF"/>
<path d="M16.8336 95.2324H8.40039V103.672H16.8336V95.2324Z" fill="#DDF8FF"/>
<path d="M184.836 103.69V95.25H176.403V103.69H184.836Z" fill="#DDF8FF"/>
<path d="M176.385 103.69V95.25H167.952V103.69H176.385Z" fill="#DDF8FF"/>
<path d="M167.936 103.672V95.2324H159.502V103.672H167.936Z" fill="#DDF8FF"/>
<path d="M159.502 103.672V95.2324H151.069V103.672H159.502Z" fill="#DDF8FF"/>
<path d="M151.051 103.672V95.2324H142.618V103.672H151.051Z" fill="#DDF8FF"/>
<path d="M142.619 103.672V95.2324H134.186V103.672H142.619Z" fill="#DDF8FF"/>
<path d="M134.168 103.672V95.2324H125.735V103.672H134.168Z" fill="#DDF8FF"/>
<path d="M125.734 103.672V95.2324H117.301V103.672H125.734Z" fill="#DDF8FF"/>
<path d="M117.285 103.672V95.2324H108.852V103.672H117.285Z" fill="#DDF8FF"/>
<path d="M108.852 103.672V95.2324H100.418V103.672H108.852Z" fill="#DDF8FF"/>
<path d="M100.402 103.672V95.2324H91.9692V103.672H100.402Z" fill="#DDF8FF"/>
<path d="M91.9512 103.69V95.25H83.518V103.69H91.9512Z" fill="#DDF8FF"/>
<path d="M83.5176 103.672V95.2324H75.0844V103.672H83.5176Z" fill="#DDF8FF"/>
<path d="M75.0684 103.69V95.25H66.6352V103.69H75.0684Z" fill="#DDF8FF"/>
<path d="M66.6348 103.672V95.2324H58.2016V103.672H66.6348Z" fill="#DDF8FF"/>
<path d="M58.1855 103.69V95.25H49.7524V103.69H58.1855Z" fill="#DDF8FF"/>
<path d="M49.752 103.672V95.2324H41.3188V103.672H49.752Z" fill="#DDF8FF"/>
<path d="M33.6324 103.588H25.1992V112.028H33.6324V103.588Z" fill="#DDF8FF"/>
<path d="M42.064 103.588H33.6309V112.028H42.064V103.588Z" fill="#DDF8FF"/>
<path d="M25.2496 103.588H16.8164V112.028H25.2496V103.588Z" fill="#DDF8FF"/>
<path d="M16.8336 103.588H8.40039V112.028H16.8336V103.588Z" fill="#DDF8FF"/>
<path d="M184.836 112.044V103.604H176.403V112.044H184.836Z" fill="#DDF8FF"/>
<path d="M176.385 112.044V103.604H167.952V112.044H176.385Z" fill="#DDF8FF"/>
<path d="M167.936 112.028V103.588H159.502V112.028H167.936Z" fill="#DDF8FF"/>
<path d="M159.502 112.028V103.588H151.069V112.028H159.502Z" fill="#DDF8FF"/>
<path d="M151.051 112.028V103.588H142.618V112.028H151.051Z" fill="#DDF8FF"/>
<path d="M142.619 112.028V103.588H134.186V112.028H142.619Z" fill="#DDF8FF"/>
<path d="M134.168 112.028V103.588H125.735V112.028H134.168Z" fill="#DDF8FF"/>
<path d="M125.734 112.028V103.588H117.301V112.028H125.734Z" fill="#DDF8FF"/>
<path d="M117.285 112.028V103.588H108.852V112.028H117.285Z" fill="#DDF8FF"/>
<path d="M108.852 112.028V103.588H100.418V112.028H108.852Z" fill="#DDF8FF"/>
<path d="M100.402 112.028V103.588H91.9692V112.028H100.402Z" fill="#DDF8FF"/>
<path d="M91.9512 112.044V103.604H83.518V112.044H91.9512Z" fill="#DDF8FF"/>
<path d="M83.5176 112.028V103.588H75.0844V112.028H83.5176Z" fill="#DDF8FF"/>
<path d="M75.0684 112.044V103.604H66.6352V112.044H75.0684Z" fill="#DDF8FF"/>
<path d="M66.6348 112.028V103.588H58.2016V112.028H66.6348Z" fill="#DDF8FF"/>
<path d="M58.1855 112.044V103.604H49.7524V112.044H58.1855Z" fill="#DDF8FF"/>
<path d="M49.752 112.028V103.588H41.3188V112.028H49.752Z" fill="#DDF8FF"/>
<path d="M33.6324 111.942H25.1992V120.382H33.6324V111.942Z" fill="#DDF8FF"/>
<path d="M42.064 111.942H33.6309V120.382H42.064V111.942Z" fill="#DDF8FF"/>
<path d="M25.2496 111.942H16.8164V120.382H25.2496V111.942Z" fill="#DDF8FF"/>
<path d="M16.8336 111.942H8.40039V120.382H16.8336V111.942Z" fill="#DDF8FF"/>
<path d="M184.836 120.399V111.959H176.403V120.399H184.836Z" fill="#DDF8FF"/>
<path d="M176.385 120.399V111.959H167.952V120.399H176.385Z" fill="#DDF8FF"/>
<path d="M167.936 120.382V111.942H159.502V120.382H167.936Z" fill="#DDF8FF"/>
<path d="M159.502 120.382V111.942H151.069V120.382H159.502Z" fill="#DDF8FF"/>
<path d="M151.051 120.382V111.942H142.618V120.382H151.051Z" fill="#DDF8FF"/>
<path d="M142.619 120.382V111.942H134.186V120.382H142.619Z" fill="#DDF8FF"/>
<path d="M134.168 120.382V111.942H125.735V120.382H134.168Z" fill="#DDF8FF"/>
<path d="M125.734 120.382V111.942H117.301V120.382H125.734Z" fill="#DDF8FF"/>
<path d="M117.285 120.382V111.942H108.852V120.382H117.285Z" fill="#DDF8FF"/>
<path d="M108.834 120.382V111.942H100.401V120.382H108.834Z" fill="#DDF8FF"/>
<path d="M100.402 120.382V111.942H91.9692V120.382H100.402Z" fill="#DDF8FF"/>
<path d="M91.9512 120.399V111.959H83.518V120.399H91.9512Z" fill="#DDF8FF"/>
<path d="M83.5176 120.382V111.942H75.0844V120.382H83.5176Z" fill="#DDF8FF"/>
<path d="M75.0684 120.399V111.959H66.6352V120.399H75.0684Z" fill="#DDF8FF"/>
<path d="M66.6348 120.382V111.942H58.2016V120.382H66.6348Z" fill="#DDF8FF"/>
<path d="M58.1855 120.399V111.959H49.7524V120.399H58.1855Z" fill="#DDF8FF"/>
<path d="M49.752 120.382V111.942H41.3188V120.382H49.752Z" fill="#DDF8FF"/>
<path d="M33.6324 120.297H25.1992V128.737H33.6324V120.297Z" fill="#DDF8FF"/>
<path d="M42.064 120.297H33.6309V128.737H42.064V120.297Z" fill="#DDF8FF"/>
<path d="M25.2496 120.297H16.8164V128.737H25.2496V120.297Z" fill="#DDF8FF"/>
<path d="M16.8336 120.297H8.40039V128.737H16.8336V120.297Z" fill="#DDF8FF"/>
<path d="M184.836 128.754V120.314H176.403V128.754H184.836Z" fill="#DDF8FF"/>
<path d="M176.385 128.754V120.314H167.952V128.754H176.385Z" fill="#DDF8FF"/>
<path d="M167.936 128.737V120.297H159.502V128.737H167.936Z" fill="#DDF8FF"/>
<path d="M159.502 128.737V120.297H151.069V128.737H159.502Z" fill="#DDF8FF"/>
<path d="M151.051 128.737V120.297H142.618V128.737H151.051Z" fill="#DDF8FF"/>
<path d="M142.619 128.737V120.297H134.186V128.737H142.619Z" fill="#DDF8FF"/>
<path d="M134.168 128.737V120.297H125.735V128.737H134.168Z" fill="#DDF8FF"/>
<path d="M125.734 128.737V120.297H117.301V128.737H125.734Z" fill="#DDF8FF"/>
<path d="M117.285 128.737V120.297H108.852V128.737H117.285Z" fill="#DDF8FF"/>
<path d="M108.834 128.737V120.297H100.401V128.737H108.834Z" fill="#DDF8FF"/>
<path d="M100.402 128.737V120.297H91.9692V128.737H100.402Z" fill="#DDF8FF"/>
<path d="M91.9512 128.754V120.314H83.518V128.754H91.9512Z" fill="#DDF8FF"/>
<path d="M83.5176 128.737V120.297H75.0844V128.737H83.5176Z" fill="#DDF8FF"/>
<path d="M75.0684 128.754V120.314H66.6352V128.754H75.0684Z" fill="#DDF8FF"/>
<path d="M66.6348 128.737V120.297H58.2016V128.737H66.6348Z" fill="#DDF8FF"/>
<path d="M58.1855 128.754V120.314H49.7524V128.754H58.1855Z" fill="#DDF8FF"/>
<path d="M49.752 128.737V120.297H41.3188V128.737H49.752Z" fill="#DDF8FF"/>
<path d="M33.6324 128.652H25.1992V137.092H33.6324V128.652Z" fill="#DDF8FF"/>
<path d="M42.064 128.652H33.6309V137.092H42.064V128.652Z" fill="#DDF8FF"/>
<path d="M25.2496 128.652H16.8164V137.092H25.2496V128.652Z" fill="#DDF8FF"/>
<path d="M16.8336 128.652H8.40039V137.092H16.8336V128.652Z" fill="#DDF8FF"/>
<path d="M184.836 137.11V128.67H176.403V137.11H184.836Z" fill="#DDF8FF"/>
<path d="M176.385 137.11V128.67H167.952V137.11H176.385Z" fill="#DDF8FF"/>
<path d="M167.936 137.092V128.652H159.502V137.092H167.936Z" fill="#DDF8FF"/>
<path d="M159.502 137.092V128.652H151.069V137.092H159.502Z" fill="#DDF8FF"/>
<path d="M151.051 137.092V128.652H142.618V137.092H151.051Z" fill="#DDF8FF"/>
<path d="M142.619 137.092V128.652H134.186V137.092H142.619Z" fill="#DDF8FF"/>
<path d="M134.168 137.092V128.652H125.735V137.092H134.168Z" fill="#DDF8FF"/>
<path d="M125.734 137.092V128.652H117.301V137.092H125.734Z" fill="#DDF8FF"/>
<path d="M117.285 137.092V128.652H108.852V137.092H117.285Z" fill="#DDF8FF"/>
<path d="M108.834 137.092V128.652H100.401V137.092H108.834Z" fill="#DDF8FF"/>
<path d="M100.402 137.092V128.652H91.9692V137.092H100.402Z" fill="#DDF8FF"/>
<path d="M91.9512 137.11V128.67H83.518V137.11H91.9512Z" fill="#DDF8FF"/>
<path d="M83.5176 137.092V128.652H75.0844V137.092H83.5176Z" fill="#DDF8FF"/>
<path d="M75.0684 137.11V128.67H66.6352V137.11H75.0684Z" fill="#DDF8FF"/>
<path d="M66.6348 137.092V128.652H58.2016V137.092H66.6348Z" fill="#DDF8FF"/>
<path d="M58.1855 137.11V128.67H49.7524V137.11H58.1855Z" fill="#DDF8FF"/>
<path d="M49.752 137.092V128.652H41.3188V137.092H49.752Z" fill="#DDF8FF"/>
<path d="M33.6324 137.008H25.1992V145.448H33.6324V137.008Z" fill="#DDF8FF"/>
<path d="M42.064 137.008H33.6309V145.448H42.064V137.008Z" fill="#DDF8FF"/>
<path d="M25.2496 137.008H16.8164V145.448H25.2496V137.008Z" fill="#DDF8FF"/>
<path d="M16.8336 137.008H8.40039V145.448H16.8336V137.008Z" fill="#DDF8FF"/>
<path d="M184.836 145.464V137.024H176.403V145.464H184.836Z" fill="#DDF8FF"/>
<path d="M176.385 145.464V137.024H167.952V145.464H176.385Z" fill="#DDF8FF"/>
<path d="M167.936 145.448V137.008H159.502V145.448H167.936Z" fill="#DDF8FF"/>
<path d="M159.502 145.448V137.008H151.069V145.448H159.502Z" fill="#DDF8FF"/>
<path d="M151.051 145.448V137.008H142.618V145.448H151.051Z" fill="#DDF8FF"/>
<path d="M142.619 145.448V137.008H134.186V145.448H142.619Z" fill="#DDF8FF"/>
<path d="M134.168 145.448V137.008H125.735V145.448H134.168Z" fill="#DDF8FF"/>
<path d="M125.734 145.448V137.008H117.301V145.448H125.734Z" fill="#DDF8FF"/>
<path d="M117.285 145.448V137.008H108.852V145.448H117.285Z" fill="#DDF8FF"/>
<path d="M108.834 145.448V137.008H100.401V145.448H108.834Z" fill="#DDF8FF"/>
<path d="M100.402 145.448V137.008H91.9692V145.448H100.402Z" fill="#DDF8FF"/>
<path d="M91.9512 145.448V137.008H83.518V145.448H91.9512Z" fill="#DDF8FF"/>
<path d="M83.5176 145.448V137.008H75.0844V145.448H83.5176Z" fill="#DDF8FF"/>
<path d="M75.0684 145.464V137.024H66.6352V145.464H75.0684Z" fill="#DDF8FF"/>
<path d="M66.6348 145.448V137.008H58.2016V145.448H66.6348Z" fill="#DDF8FF"/>
<path d="M58.1855 145.464V137.024H49.7524V145.464H58.1855Z" fill="#DDF8FF"/>
<path d="M49.752 145.448V137.008H41.3188V145.448H49.752Z" fill="#DDF8FF"/>
<path d="M33.6324 145.362H25.1992V153.802H33.6324V145.362Z" fill="#DDF8FF"/>
<path d="M42.064 145.362H33.6309V153.802H42.064V145.362Z" fill="#DDF8FF"/>
<path d="M25.2496 145.362H16.8164V153.802H25.2496V145.362Z" fill="#DDF8FF"/>
<path d="M176.385 153.819V145.379H167.952V153.819H176.385Z" fill="#DDF8FF"/>
<path d="M167.936 153.802V145.362H159.502V153.802H167.936Z" fill="#DDF8FF"/>
<path d="M159.502 153.802V145.362H151.069V153.802H159.502Z" fill="#DDF8FF"/>
<path d="M151.051 153.802V145.362H142.618V153.802H151.051Z" fill="#DDF8FF"/>
<path d="M142.619 153.802V145.362H134.186V153.802H142.619Z" fill="#DDF8FF"/>
<path d="M134.168 153.802V145.362H125.735V153.802H134.168Z" fill="#DDF8FF"/>
<path d="M125.734 153.802V145.362H117.301V153.802H125.734Z" fill="#DDF8FF"/>
<path d="M117.285 153.802V145.362H108.852V153.802H117.285Z" fill="#DDF8FF"/>
<path d="M108.834 153.802V145.362H100.401V153.802H108.834Z" fill="#DDF8FF"/>
<path d="M100.402 153.802V145.362H91.9692V153.802H100.402Z" fill="#DDF8FF"/>
<path d="M91.9512 153.802V145.362H83.518V153.802H91.9512Z" fill="#DDF8FF"/>
<path d="M83.5176 153.802V145.362H75.0844V153.802H83.5176Z" fill="#DDF8FF"/>
<path d="M75.0684 153.819V145.379H66.6352V153.819H75.0684Z" fill="#DDF8FF"/>
<path d="M66.6348 153.802V145.362H58.2016V153.802H66.6348Z" fill="#DDF8FF"/>
<path d="M58.1855 153.819V145.379H49.7524V153.819H58.1855Z" fill="#DDF8FF"/>
<path d="M49.752 153.802V145.362H41.3188V153.802H49.752Z" fill="#DDF8FF"/>
<path d="M33.6324 153.717H25.1992V162.157H33.6324V153.717Z" fill="#DDF8FF"/>
<path d="M42.064 153.717H33.6309V162.157H42.064V153.717Z" fill="#DDF8FF"/>
<path d="M167.936 162.157V153.717H159.502V162.157H167.936Z" fill="#DDF8FF"/>
<path d="M159.502 162.157V153.717H151.069V162.157H159.502Z" fill="#DDF8FF"/>
<path d="M151.051 162.157V153.717H142.618V162.157H151.051Z" fill="#DDF8FF"/>
<path d="M142.619 162.157V153.717H134.186V162.157H142.619Z" fill="#DDF8FF"/>
<path d="M134.168 162.157V153.717H125.735V162.157H134.168Z" fill="#DDF8FF"/>
<path d="M125.734 162.157V153.717H117.301V162.157H125.734Z" fill="#DDF8FF"/>
<path d="M117.285 162.157V153.717H108.852V162.157H117.285Z" fill="#DDF8FF"/>
<path d="M108.834 162.157V153.717H100.401V162.157H108.834Z" fill="#DDF8FF"/>
<path d="M100.402 162.157V153.717H91.9692V162.157H100.402Z" fill="#DDF8FF"/>
<path d="M91.9512 162.157V153.717H83.518V162.157H91.9512Z" fill="#DDF8FF"/>
<path d="M83.5176 162.157V153.717H75.0844V162.157H83.5176Z" fill="#DDF8FF"/>
<path d="M75.0684 162.174V153.734H66.6352V162.174H75.0684Z" fill="#DDF8FF"/>
<path d="M66.6348 162.157V153.717H58.2016V162.157H66.6348Z" fill="#DDF8FF"/>
<path d="M58.1855 162.174V153.734H49.7524V162.174H58.1855Z" fill="#DDF8FF"/>
<path d="M49.752 162.157V153.717H41.3188V162.157H49.752Z" fill="#DDF8FF"/>
<path d="M42.064 162.072H33.6309V170.512H42.064V162.072Z" fill="#DDF8FF"/>
<path d="M159.502 170.512V162.072H151.069V170.512H159.502Z" fill="#DDF8FF"/>
<path d="M151.051 170.512V162.072H142.618V170.512H151.051Z" fill="#DDF8FF"/>
<path d="M142.619 170.512V162.072H134.186V170.512H142.619Z" fill="#DDF8FF"/>
<path d="M134.168 170.512V162.072H125.735V170.512H134.168Z" fill="#DDF8FF"/>
<path d="M125.734 170.512V162.072H117.301V170.512H125.734Z" fill="#DDF8FF"/>
<path d="M117.285 170.512V162.072H108.852V170.512H117.285Z" fill="#DDF8FF"/>
<path d="M108.834 170.512V162.072H100.401V170.512H108.834Z" fill="#DDF8FF"/>
<path d="M100.402 170.512V162.072H91.9692V170.512H100.402Z" fill="#DDF8FF"/>
<path d="M91.9512 170.512V162.072H83.518V170.512H91.9512Z" fill="#DDF8FF"/>
<path d="M83.5176 170.512V162.072H75.0844V170.512H83.5176Z" fill="#DDF8FF"/>
<path d="M75.0684 170.529V162.089H66.6352V170.529H75.0684Z" fill="#DDF8FF"/>
<path d="M66.6348 170.512V162.072H58.2016V170.512H66.6348Z" fill="#DDF8FF"/>
<path d="M58.1855 170.529V162.089H49.7524V170.529H58.1855Z" fill="#DDF8FF"/>
<path d="M49.752 170.512V162.072H41.3188V170.512H49.752Z" fill="#DDF8FF"/>
<path d="M33.6324 160.9H25.1992V169.34H33.6324V160.9Z" fill="black"/>
<path d="M25.2496 152.461H16.8164V160.901H25.2496V152.461Z" fill="black"/>
<path d="M16.8336 144.004H8.40039V152.444H16.8336V144.004Z" fill="black"/>
<path d="M8.43318 135.547H0V143.987H8.43318V135.547Z" fill="black"/>
<path d="M8.43318 127.073H0V135.513H8.43318V127.073Z" fill="black"/>
<path d="M8.43318 118.616H0V127.056H8.43318V118.616Z" fill="black"/>
<path d="M8.43318 110.143H0V118.582H8.43318V110.143Z" fill="black"/>
<path d="M8.43318 101.668H0V110.108H8.43318V101.668Z" fill="black"/>
<path d="M8.43318 93.2119H0V101.652H8.43318V93.2119Z" fill="black"/>
<path d="M8.43318 84.7383H0V93.1781H8.43318V84.7383Z" fill="black"/>
<path d="M8.43318 76.2812H0V84.7211H8.43318V76.2812Z" fill="black"/>
<path d="M8.43318 67.8076H0V76.2475H8.43318V67.8076Z" fill="black"/>
<path d="M8.43318 59.334H0V67.7738H8.43318V59.334Z" fill="black"/>
<path d="M8.43318 50.877H0V59.3168H8.43318V50.877Z" fill="black"/>
<path d="M193.252 135.547H184.818V143.987H193.252V135.547Z" fill="black"/>
<path d="M193.252 127.073H184.818V135.513H193.252V127.073Z" fill="black"/>
<path d="M193.252 118.616H184.818V127.056H193.252V118.616Z" fill="black"/>
<path d="M193.252 110.143H184.818V118.582H193.252V110.143Z" fill="black"/>
<path d="M193.252 101.668H184.818V110.108H193.252V101.668Z" fill="black"/>
<path d="M193.252 93.2119H184.818V101.652H193.252V93.2119Z" fill="black"/>
<path d="M193.252 84.7383H184.818V93.1781H193.252V84.7383Z" fill="black"/>
<path d="M193.252 76.2812H184.818V84.7211H193.252V76.2812Z" fill="black"/>
<path d="M193.252 67.8076H184.818V76.2475H193.252V67.8076Z" fill="black"/>
<path d="M193.252 59.334H184.818V67.7738H193.252V59.334Z" fill="black"/>
<path d="M193.252 50.877H184.818V59.3168H193.252V50.877Z" fill="black"/>
<path d="M176.402 144.004V152.443H184.836V144.004H176.402Z" fill="black"/>
<path d="M167.951 152.461V160.9H176.384V152.461H167.951Z" fill="black"/>
<path d="M159.484 160.918V169.357H167.918V160.918H159.484Z" fill="black"/>
<path d="M33.6324 16.8965H25.1992V25.3363H33.6324V16.8965Z" fill="black"/>
<path d="M42.064 8.45703H33.6309V16.8969H42.064V8.45703Z" fill="black"/>
<path d="M25.2496 25.3359H16.8164V33.7758H25.2496V25.3359Z" fill="black"/>
<path d="M16.8336 33.793H8.40039V42.2328H16.8336V33.793Z" fill="black"/>
<path d="M8.43318 42.25H0V51.6068H8.43318V42.25Z" fill="black"/>
<path d="M193.268 51.2508V42.2676H184.834V51.2508H193.268Z" fill="black"/>
<path d="M184.836 42.2504V33.8105H176.403V42.2504H184.836Z" fill="black"/>
<path d="M176.385 33.7933V25.3535H167.952V33.7933H176.385Z" fill="black"/>
<path d="M167.986 25.268V16.8281H159.553V25.268H167.986Z" fill="black"/>
<path d="M159.502 16.8793V8.43945H151.069V16.8793H159.502Z" fill="black"/>
<path d="M151.051 8.43984V0L142.618 0V8.43984H151.051Z" fill="black"/>
<path d="M142.602 8.43984V0L134.168 0V8.43984H142.602Z" fill="black"/>
<path d="M134.168 8.43983V0L125.735 0V8.43983H134.168Z" fill="black"/>
<path d="M125.719 8.43984V0L117.286 0V8.43984H125.719Z" fill="black"/>
<path d="M117.285 8.43984V0L108.852 0V8.43984H117.285Z" fill="black"/>
<path d="M108.834 8.43984V0L100.401 0V8.43984H108.834Z" fill="black"/>
<path d="M100.402 8.43984V0L91.9692 0V8.43984H100.402Z" fill="black"/>
<path d="M91.9512 8.43984V0L83.518 0V8.43984H91.9512Z" fill="black"/>
<path d="M83.5176 8.43984V0L75.0844 0V8.43984H83.5176Z" fill="black"/>
<path d="M75.0684 8.43984V0L66.6352 0V8.43984H75.0684Z" fill="black"/>
<path d="M66.6348 8.43984V0L58.2016 0V8.43984H66.6348Z" fill="black"/>
<path d="M58.1855 8.43984V0L49.7524 0V8.43984H58.1855Z" fill="black"/>
<path d="M49.7344 8.43984V0L41.3012 0V8.43984H49.7344Z" fill="black"/>
<path d="M125.836 177.661H134.32V169.17H125.836V177.661Z" fill="black"/>
<path d="M151.17 152.172H159.654V143.681H151.17V152.172Z" fill="black"/>
<path d="M151.17 109.684H159.654V101.193H151.17V109.684Z" fill="black"/>
<path d="M142.737 109.684H151.221V101.193H142.737V109.684Z" fill="#382509"/>
<path d="M134.303 109.684H142.787V101.193H134.303V109.684Z" fill="black"/>
<path d="M117.455 109.684H125.939V101.193H117.455V109.684Z" fill="#382509"/>
<path d="M109.022 109.684H117.506V101.193H109.022V109.684Z" fill="black"/>
<path d="M92.1546 92.668H100.639V84.1772H92.1546V92.668Z" fill="white"/>
<path d="M66.8382 109.684H75.3223V101.193H66.8382V109.684Z" fill="black"/>
<path d="M49.9729 152.172H58.457V143.681H49.9729V152.172Z" fill="black"/>
<path d="M49.9729 109.684H58.457V101.193H49.9729V109.684Z" fill="#382509"/>
<path d="M41.5394 143.682H50.0234V135.191H41.5394V143.682Z" fill="black"/>
<path d="M41.5394 118.191H50.0234V109.701H41.5394V118.191Z" fill="black"/>
<path d="M33.1058 143.682H41.5898V135.191H33.1058V143.682Z" fill="black"/>
<path d="M33.1058 109.684H41.5898V101.193H33.1058V109.684Z" fill="black"/>
<path d="M24.6722 143.682H33.1562V135.191H24.6722V143.682Z" fill="black"/>
<path d="M24.6722 92.668H33.1562V84.1772H24.6722V92.668Z" fill="white"/>
<path d="M142.737 160.662H151.221V152.171H142.737V160.662Z" fill="black"/>
<path d="M58.4046 160.662H66.8887V152.171H58.4046V160.662Z" fill="black"/>
<path d="M134.303 169.153H142.787V160.663H134.303V169.153Z" fill="black"/>
<path d="M125.887 169.153H134.371V160.663H125.887V169.153Z" fill="black"/>
<path d="M75.2718 169.153H83.7559V160.663H75.2718V169.153Z" fill="black"/>
<path d="M66.8382 169.153H75.3223V160.663H66.8382V169.153Z" fill="black"/>
<path d="M117.455 177.627H125.939V169.136H117.455V177.627Z" fill="black"/>
<path d="M109.022 177.627H117.506V169.136H109.022V177.627Z" fill="black"/>
<path d="M100.588 177.627H109.072V169.136H100.588V177.627Z" fill="black"/>
<path d="M92.1546 177.627H100.639V169.136H92.1546V177.627Z" fill="black"/>
<path d="M83.721 177.627H92.2051V169.136H83.721V177.627Z" fill="black"/>
<path d="M75.2718 177.627H83.7559V169.136H75.2718V177.627Z" fill="#F6F2EC"/>
<path d="M66.8382 177.627H75.3223V169.136H66.8382V177.627Z" fill="#F6F2EC"/>
<path d="M58.4046 177.627H66.8887V169.136H58.4046V177.627Z" fill="black"/>
<path d="M41.3362 177.627H49.8203V169.136H41.3362V177.627Z" fill="black"/>
<path opacity="0.3" d="M125.77 186.084H134.254V177.593H125.77V186.084Z" fill="black"/>
<path opacity="0.3" d="M125.77 194.574H134.254V186.083H125.77V194.574Z" fill="black"/>
<path d="M142.635 203.15H151.119V194.439H142.635V203.15Z" fill="white"/>
<path d="M134.201 203.15H142.686V194.439H134.201V203.15Z" fill="#DBDBDB"/>
<path d="M125.77 203.15H134.254V194.439H125.77V203.15Z" fill="black"/>
<path d="M151.069 211.539H159.553V203.048H151.069V211.539Z" fill="#F6F2EC"/>
<path d="M134.201 186.152H142.686V177.662H134.201V186.152Z" fill="#DAD6D0"/>
<path d="M142.635 186.203H151.119V177.712H142.635V186.203Z" fill="black"/>
<path d="M151.069 194.422H159.553V186.203H151.069V194.422Z" fill="black"/>
<path d="M142.635 211.539H151.119V203.048H142.635V211.539Z" fill="#2C8C2C"/>
<path d="M134.201 211.539H142.686V203.048H134.201V211.539Z" fill="black"/>
<path d="M151.069 220.014H159.553V211.523H151.069V220.014Z" fill="#DAD6D0"/>
<path d="M151.069 228.487H159.553V219.997H151.069V228.487Z" fill="black"/>
<path d="M159.366 211.539H167.85V203.048H159.366V211.539Z" fill="#F6F2EC"/>
<path d="M159.366 203.065H167.85V194.575H159.366V203.065Z" fill="black"/>
<path d="M159.366 220.014H167.85V211.523H159.366V220.014Z" fill="#F6F2EC"/>
<path d="M159.35 228.487H167.834V219.997H159.35V228.487Z" fill="black"/>
<path d="M142.635 220.014H151.119V211.523H142.635V220.014Z" fill="black"/>
<path d="M125.887 186.084H134.371V177.593H125.887V186.084Z" fill="black"/>
<path d="M117.455 186.084H125.939V177.593H117.455V186.084Z" fill="#DAD6D0"/>
<path d="M109.022 186.084H117.506V177.593H109.022V186.084Z" fill="#DAD6D0"/>
<path d="M100.588 186.084H109.072V177.593H100.588V186.084Z" fill="#DAD6D0"/>
<path d="M92.1546 186.084H100.639V177.593H92.1546V186.084Z" fill="#DAD6D0"/>
<path d="M83.721 186.084H92.2051V177.593H83.721V186.084Z" fill="#DAD6D0"/>
<path d="M75.2718 186.084H83.7559V177.593H75.2718V186.084Z" fill="#DAD6D0"/>
<path d="M66.8382 186.084H75.3223V177.593H66.8382V186.084Z" fill="#DAD6D0"/>
<path d="M58.4046 186.084H66.8887V177.593H58.4046V186.084Z" fill="black"/>
<path d="M117.455 194.574H125.939V186.083H117.455V194.574Z" fill="#F6F2EC"/>
<path d="M109.022 194.574H117.506V186.083H109.022V194.574Z" fill="#F6F2EC"/>
<path d="M100.588 194.574H109.072V186.083H100.588V194.574Z" fill="#F6F2EC"/>
<path d="M92.1546 194.574H100.639V186.083H92.1546V194.574Z" fill="#F6F2EC"/>
<path d="M83.721 194.574H92.2051V186.083H83.721V194.574Z" fill="#F6F2EC"/>
<path opacity="0.3" d="M75.2718 194.574H83.7559V186.083H75.2718V194.574Z" fill="black"/>
<path d="M66.8382 194.574H75.3223V186.083H66.8382V194.574Z" fill="#F6F2EC"/>
<path d="M58.4046 194.574H66.8887V186.083H58.4046V194.574Z" fill="#DAD6D0"/>
<path d="M117.455 203.049H125.939V194.218H117.455V203.049Z" fill="#DBDBDB"/>
<path d="M109.022 203.049H117.506V194.218H109.022V203.049Z" fill="#DBDBDB"/>
<path d="M100.588 203.049H109.072V194.218H100.588V203.049Z" fill="#DBDBDB"/>
<path d="M92.1546 203.049H100.639V194.218H92.1546V203.049Z" fill="#DBDBDB"/>
<path d="M83.721 203.049H92.2051V194.218H83.721V203.049Z" fill="#DBDBDB"/>
<path d="M75.1858 194.541H83.6699V186.05H75.1858V194.541Z" fill="black"/>
<path d="M49.887 194.541H58.3711V186.05H49.887V194.541Z" fill="black"/>
<path d="M125.905 211.557H134.389V203.066H125.905V211.557Z" fill="black"/>
<path d="M117.455 211.539H125.939V203.048H117.455V211.539Z" fill="#DBDBDB"/>
<path d="M109.022 211.539H117.506V203.048H109.022V211.539Z" fill="white"/>
<path d="M100.588 211.539H109.072V203.048H100.588V211.539Z" fill="white"/>
<path d="M92.1546 211.539H100.639V203.048H92.1546V211.539Z" fill="white"/>
<path d="M83.721 211.539H92.2051V203.048H83.721V211.539Z" fill="white"/>
<path d="M75.1858 203.015H83.6699V194.524H75.1858V203.015Z" fill="black"/>
<path d="M66.7542 203.031H75.2383V194.167H66.7542V203.031Z" fill="white"/>
<path d="M58.3206 203.031H66.8047V194.167H58.3206V203.031Z" fill="#2C8C2C"/>
<path d="M49.887 203.015H58.3711V194.524H49.887V203.015Z" fill="black"/>
<path d="M125.905 220.03H134.389V211.539H125.905V220.03Z" fill="black"/>
<path d="M117.455 220.014H125.939V211.523H117.455V220.014Z" fill="#196819"/>
<path d="M109.022 220.014H117.506V211.523H109.022V220.014Z" fill="#2C8C2C"/>
<path d="M100.588 220.014H109.072V211.523H100.588V220.014Z" fill="#2C8C2C"/>
<path d="M92.1546 220.014H100.639V211.523H92.1546V220.014Z" fill="#2C8C2C"/>
<path d="M83.721 220.014H92.2051V211.523H83.721V220.014Z" fill="black"/>
<path d="M75.1858 211.488H83.6699V202.997H75.1858V211.488Z" fill="black"/>
<path d="M66.7542 211.488H75.2383V202.997H66.7542V211.488Z" fill="white"/>
<path d="M58.3206 211.488H66.8047V202.997H58.3206V211.488Z" fill="white"/>
<path d="M49.887 211.488H58.3711V202.997H49.887V211.488Z" fill="black"/>
<path d="M108.987 228.487H117.471V219.997H108.987V228.487Z" fill="white"/>
<path d="M100.555 228.487H109.039V219.997H100.555V228.487Z" fill="black"/>
<path d="M92.1214 228.487H100.605V219.997H92.1214V228.487Z" fill="white"/>
<path d="M83.6878 228.487H92.1719V219.997H83.6878V228.487Z" fill="black"/>
<path d="M75.2542 228.487H83.7383V219.997H75.2542V228.487Z" fill="black"/>
<path d="M75.1858 219.979H83.6699V211.489H75.1858V219.979Z" fill="#DBDBDB"/>
<path d="M66.7542 219.979H75.2383V211.489H66.7542V219.979Z" fill="white"/>
<path d="M58.3206 219.979H66.8047V211.489H58.3206V219.979Z" fill="#2C8C2C"/>
<path d="M49.887 219.979H58.3711V211.489H49.887V219.979Z" fill="black"/>
<path d="M117.455 236.979H125.939V228.488H117.455V236.979Z" fill="white"/>
<path d="M108.987 236.979H117.471V228.488H108.987V236.979Z" fill="black"/>
<path d="M100.555 236.979H109.039V228.488H100.555V236.979Z" fill="black"/>
<path d="M92.1214 236.979H100.605V228.488H92.1214V236.979Z" fill="white"/>
<path d="M83.6878 236.979H92.1719V228.488H83.6878V236.979Z" fill="white"/>
<path d="M75.2542 236.979H83.7383V228.488H75.2542V236.979Z" fill="black"/>
<path d="M75.1858 228.471H83.6699V219.98H75.1858V228.471Z" fill="#DBDBDB"/>
<path d="M66.7542 228.471H75.2383V219.98H66.7542V228.471Z" fill="#DBDBDB"/>
<path d="M58.3206 228.471H66.8047V219.98H58.3206V228.471Z" fill="#DBDBDB"/>
<path d="M49.887 228.471H58.3711V219.98H49.887V228.471Z" fill="black"/>
<path d="M117.455 245.469H125.939V236.978H117.455V245.469Z" fill="white"/>
<path d="M108.987 245.469H117.471V236.978H108.987V245.469Z" fill="black"/>
<path d="M92.1214 245.469H100.605V236.978H92.1214V245.469Z" fill="black"/>
<path d="M83.6878 245.469H92.1719V236.978H83.6878V245.469Z" fill="#2C8C2C"/>
<path d="M75.2542 245.469H83.7383V236.978H75.2542V245.469Z" fill="white"/>
<path d="M75.1858 236.927H83.6699V228.436H75.1858V236.927Z" fill="black"/>
<path d="M66.7542 236.927H75.2383V228.436H66.7542V236.927Z" fill="black"/>
<path d="M58.3206 236.927H66.8047V228.436H58.3206V236.927Z" fill="black"/>
<path d="M117.455 253.926H125.939V245.435H117.455V253.926Z" fill="#DBDBDB"/>
<path d="M108.987 253.926H117.471V245.435H108.987V253.926Z" fill="black"/>
<path d="M66.8206 245.469H75.3047V236.978H66.8206V245.469Z" fill="black"/>
<path d="M125.803 236.979H134.287V228.488H125.803V236.979Z" fill="#2C8C2C"/>
<path d="M125.905 228.487H134.389V219.997H125.905V228.487Z" fill="black"/>
<path d="M125.803 245.469H134.287V236.978H125.803V245.469Z" fill="#DBDBDB"/>
<path d="M125.803 253.926H134.287V245.435H125.803V253.926Z" fill="#DBDBDB"/>
<path d="M134.252 245.469H142.736V236.978H134.252V245.469Z" fill="black"/>
<path d="M134.252 253.926H142.736V245.435H134.252V253.926Z" fill="#DBDBDB"/>
<path d="M134.252 236.994H142.736V228.503H134.252V236.994Z" fill="black"/>
<path d="M142.721 253.926H151.205V245.435H142.721V253.926Z" fill="black"/>
<path d="M108.987 262.416H117.471V253.925H108.987V262.416Z" fill="black"/>
<path d="M83.6878 262.416H92.1719V253.925H83.6878V262.416Z" fill="black"/>
<path d="M92.1722 253.926H100.656V245.435H92.1722V253.926Z" fill="black"/>
<path d="M75.2542 262.416H83.7383V253.925H75.2542V262.416Z" fill="#DBDBDB"/>
<path d="M66.8206 262.416H75.3047V253.925H66.8206V262.416Z" fill="white"/>
<path d="M92.1214 270.891H100.605V262.4H92.1214V270.891Z" fill="black"/>
<path d="M83.6878 270.891H92.1719V262.4H83.6878V270.891Z" fill="#DBDBDB"/>
<path d="M75.2542 270.891H83.7383V262.4H75.2542V270.891Z" fill="#DBDBDB"/>
<path d="M66.8206 270.891H75.3047V262.4H66.8206V270.891Z" fill="#DBDBDB"/>
<path d="M125.854 262.416H134.338V253.925H125.854V262.416Z" fill="black"/>
<path d="M117.42 262.416H125.904V253.925H117.42V262.416Z" fill="black"/>
<path d="M134.303 262.416H142.787V253.925H134.303V262.416Z" fill="black"/>
<path d="M142.737 262.416H151.221V253.925H142.737V262.416Z" fill="black"/>
<path d="M92.1214 279.381H100.605V270.89H92.1214V279.381Z" fill="black"/>
<path d="M83.6878 279.381H92.1719V270.89H83.6878V279.381Z" fill="black"/>
<path d="M75.2542 279.381H83.7383V270.89H75.2542V279.381Z" fill="black"/>
<path d="M66.8206 279.381H75.3047V270.89H66.8206V279.381Z" fill="black"/>
<path d="M58.3382 262.416H66.8223V253.925H58.3382V262.416Z" fill="black"/>
<path d="M58.3382 270.891H66.8223V262.4H58.3382V270.891Z" fill="black"/>
<path d="M58.3382 279.381H66.8223V270.89H58.3382V279.381Z" fill="black"/>
<path d="M159.604 143.682H168.088V135.191H159.604V143.682Z" fill="black"/>
<path d="M142.737 135.19H151.221V126.7H142.737V135.19Z" fill="#494442"/>
<path d="M142.737 126.683H151.221V118.192H142.737V126.683Z" fill="#494442"/>
<path d="M142.737 118.191H151.221V109.701H142.737V118.191Z" fill="black"/>
<path d="M134.303 135.19H142.787V126.7H134.303V135.19Z" fill="white"/>
<path d="M134.303 126.683H142.787V118.192H134.303V126.683Z" fill="white"/>
<path d="M134.303 118.191H142.787V109.701H134.303V118.191Z" fill="#D2C8C4"/>
<path d="M117.455 143.682H125.939V135.191H117.455V143.682Z" fill="#E1CCC2"/>
<path d="M117.455 135.19H125.939V126.7H117.455V135.19Z" fill="#E1CCC2"/>
<path d="M109.022 143.682H117.506V135.191H109.022V143.682Z" fill="#E1CCC2"/>
<path d="M83.721 135.19H92.2051V126.7H83.721V135.19Z" fill="#494442"/>
<path d="M83.721 126.683H92.2051V118.192H83.721V126.683Z" fill="#494442"/>
<path d="M83.721 118.191H92.2051V109.701H83.721V118.191Z" fill="#494442"/>
<path d="M83.721 109.684H92.2051V101.193H83.721V109.684Z" fill="black"/>
<path d="M75.2718 135.19H83.7559V126.7H75.2718V135.19Z" fill="white"/>
<path d="M75.2718 126.683H83.7559V118.192H75.2718V126.683Z" fill="white"/>
<path d="M75.2718 118.191H83.7559V109.701H75.2718V118.191Z" fill="white"/>
<path d="M75.2718 109.684H83.7559V101.193H75.2718V109.684Z" fill="#D2C8C4"/>
<path d="M66.8382 126.683H75.3223V118.192H66.8382V126.683Z" fill="#FDEAE0"/>
<path d="M66.8382 118.191H75.3223V109.701H66.8382V118.191Z" fill="#FDEAE0"/>
<path d="M33.1058 126.683H41.5898V118.192H33.1058V126.683Z" fill="#E1CCC2"/>
<path d="M33.1058 118.191H41.5898V109.701H33.1058V118.191Z" fill="#E1CCC2"/>
<path d="M109.022 160.662H117.506V152.171H109.022V160.662Z" fill="#494442"/>
<path d="M100.588 160.662H109.072V152.171H100.588V160.662Z" fill="#494442"/>
<path d="M151.17 143.682H159.654V135.191H151.17V143.682Z" fill="#EED6CA"/>
<path d="M151.17 135.19H159.654V126.7H151.17V135.19Z" fill="#FDEAE0"/>
<path d="M151.17 126.683H159.654V118.192H151.17V126.683Z" fill="#FDEAE0"/>
<path d="M151.17 118.191H159.654V109.701H151.17V118.191Z" fill="#EED6CA"/>
<path d="M142.737 152.172H151.221V143.681H142.737V152.172Z" fill="#EED6CA"/>
<path d="M142.737 143.682H151.221V135.191H142.737V143.682Z" fill="#FDEAE0"/>
<path d="M134.303 152.172H142.787V143.681H134.303V152.172Z" fill="#FDEAE0"/>
<path d="M134.303 143.682H142.787V135.191H134.303V143.682Z" fill="#FDEAE0"/>
<path d="M125.887 152.172H134.371V143.681H125.887V152.172Z" fill="#FDEAE0"/>
<path d="M125.887 143.682H134.371V135.191H125.887V143.682Z" fill="#FDEAE0"/>
<path d="M125.887 135.19H134.371V126.7H125.887V135.19Z" fill="#FDEAE0"/>
<path d="M125.887 126.683H134.371V118.192H125.887V126.683Z" fill="#FDEAE0"/>
<path d="M125.887 118.191H134.371V109.701H125.887V118.191Z" fill="#FDEAE0"/>
<path d="M125.887 109.684H134.371V101.193H125.887V109.684Z" fill="#EED6CA"/>
<path d="M117.455 152.172H125.939V143.681H117.455V152.172Z" fill="#FDEAE0"/>
<path d="M117.455 126.683H125.939V118.192H117.455V126.683Z" fill="#FDEAE0"/>
<path d="M117.455 118.191H125.939V109.701H117.455V118.191Z" fill="#FDEAE0"/>
<path d="M109.022 152.172H117.506V143.681H109.022V152.172Z" fill="#FDEAE0"/>
<path d="M109.022 135.19H117.506V126.7H109.022V135.19Z" fill="#FDEAE0"/>
<path d="M109.022 126.683H117.506V118.192H109.022V126.683Z" fill="#FDEAE0"/>
<path d="M109.022 118.191H117.506V109.701H109.022V118.191Z" fill="#FDEAE0"/>
<path d="M100.588 152.172H109.072V143.681H100.588V152.172Z" fill="#FDEAE0"/>
<path d="M100.588 143.682H109.072V135.191H100.588V143.682Z" fill="#FDEAE0"/>
<path d="M100.588 135.19H109.072V126.7H100.588V135.19Z" fill="#FDEAE0"/>
<path d="M100.588 126.683H109.072V118.192H100.588V126.683Z" fill="#FDEAE0"/>
<path d="M100.588 118.191H109.072V109.701H100.588V118.191Z" fill="#FDEAE0"/>
<path d="M100.588 109.684H109.072V101.193H100.588V109.684Z" fill="#EED6CA"/>
<path d="M92.1546 152.172H100.639V143.681H92.1546V152.172Z" fill="#FDEAE0"/>
<path d="M92.1546 143.682H100.639V135.191H92.1546V143.682Z" fill="#FDEAE0"/>
<path d="M92.1546 135.19H100.639V126.7H92.1546V135.19Z" fill="#FDEAE0"/>
<path d="M92.1546 126.683H100.639V118.192H92.1546V126.683Z" fill="#FDEAE0"/>
<path d="M92.1546 118.191H100.639V109.701H92.1546V118.191Z" fill="#FDEAE0"/>
<path d="M92.1546 109.684H100.639V101.193H92.1546V109.684Z" fill="#FDEAE0"/>
<path d="M83.721 152.172H92.2051V143.681H83.721V152.172Z" fill="#FDEAE0"/>
<path d="M83.721 143.682H92.2051V135.191H83.721V143.682Z" fill="#FDEAE0"/>
<path d="M75.2718 152.172H83.7559V143.681H75.2718V152.172Z" fill="#FDEAE0"/>
<path d="M75.2718 143.682H83.7559V135.191H75.2718V143.682Z" fill="#FDEAE0"/>
<path d="M66.8382 152.172H75.3223V143.681H66.8382V152.172Z" fill="#FDEAE0"/>
<path d="M66.8382 143.682H75.3223V135.191H66.8382V143.682Z" fill="#FDEAE0"/>
<path d="M66.8382 135.19H75.3223V126.7H66.8382V135.19Z" fill="#FDEAE0"/>
<path d="M58.4046 152.172H66.8887V143.681H58.4046V152.172Z" fill="#FDEAE0"/>
<path d="M58.4046 143.682H66.8887V135.191H58.4046V143.682Z" fill="#FDEAE0"/>
<path d="M58.4046 135.19H66.8887V126.7H58.4046V135.19Z" fill="#FDEAE0"/>
<path d="M58.4046 126.683H66.8887V118.192H58.4046V126.683Z" fill="#FDEAE0"/>
<path d="M58.4046 118.191H66.8887V109.701H58.4046V118.191Z" fill="#FDEAE0"/>
<path d="M58.4046 109.684H66.8887V101.193H58.4046V109.684Z" fill="#EED6CA"/>
<path d="M49.9729 143.682H58.457V135.191H49.9729V143.682Z" fill="#FDEAE0"/>
<path d="M49.9729 135.19H58.457V126.7H49.9729V135.19Z" fill="#FDEAE0"/>
<path d="M49.9729 126.683H58.457V118.192H49.9729V126.683Z" fill="#FDEAE0"/>
<path d="M49.9729 118.191H58.457V109.701H49.9729V118.191Z" fill="#FDEAE0"/>
<path d="M41.5394 135.19H50.0234V126.7H41.5394V135.19Z" fill="#FDEAE0"/>
<path d="M41.5394 126.683H50.0234V118.192H41.5394V126.683Z" fill="#FDEAE0"/>
<path d="M33.1058 135.19H41.5898V126.7H33.1058V135.19Z" fill="#FDEAE0"/>
<path d="M24.6722 135.19H33.1562V126.7H24.6722V135.19Z" fill="#FDEAE0"/>
<path d="M24.6722 126.683H33.1562V118.192H24.6722V126.683Z" fill="#FDEAE0"/>
<path d="M24.6722 118.191H33.1562V109.701H24.6722V118.191Z" fill="#FDEAE0"/>
<path d="M24.6722 109.684H33.1562V101.193H24.6722V109.684Z" fill="black"/>
<path d="M134.303 160.662H142.787V152.171H134.303V160.662Z" fill="#EED6CA"/>
<path d="M125.887 160.662H134.371V152.171H125.887V160.662Z" fill="#FDEAE0"/>
<path d="M117.455 160.662H125.939V152.171H117.455V160.662Z" fill="#FDEAE0"/>
<path d="M92.1546 160.662H100.639V152.171H92.1546V160.662Z" fill="#FDEAE0"/>
<path d="M83.721 160.662H92.2051V152.171H83.721V160.662Z" fill="#FDEAE0"/>
<path d="M75.2718 160.662H83.7559V152.171H75.2718V160.662Z" fill="#FDEAE0"/>
<path d="M66.8382 160.662H75.3223V152.171H66.8382V160.662Z" fill="#FDEAE0"/>
<path d="M117.455 169.153H125.939V160.663H117.455V169.153Z" fill="#EED6CA"/>
<path d="M109.022 169.153H117.506V160.663H109.022V169.153Z" fill="#EED6CA"/>
<path d="M100.588 169.153H109.072V160.663H100.588V169.153Z" fill="#EED6CA"/>
<path d="M92.1546 169.153H100.639V160.663H92.1546V169.153Z" fill="#EED6CA"/>
<path d="M83.721 169.153H92.2051V160.663H83.721V169.153Z" fill="#EED6CA"/>
<path d="M159.604 135.19H168.088V126.7H159.604V135.19Z" fill="black"/>
<path d="M159.604 126.683H168.088V118.192H159.604V126.683Z" fill="black"/>
<path d="M159.604 118.191H168.088V109.701H159.604V118.191Z" fill="black"/>
<path d="M159.604 109.684H168.088V101.193H159.604V109.684Z" fill="#382509"/>
<path d="M151.17 92.668H159.654V84.1772H151.17V92.668Z" fill="#DBDBDB"/>
<path d="M151.17 84.1777H159.654V75.6869H151.17V84.1777Z" fill="white"/>
<path d="M151.17 75.6699H159.654V67.1791H151.17V75.6699Z" fill="white"/>
<path d="M151.17 67.1797H159.654V58.6889H151.17V67.1797Z" fill="white"/>
<path d="M151.17 58.6885H159.654V50.1977H151.17V58.6885Z" fill="white"/>
<path d="M151.17 50.1807H159.654V41.6899H151.17V50.1807Z" fill="white"/>
<path d="M151.17 41.6895H159.654V33.1987H151.17V41.6895Z" fill="black"/>
<path d="M142.737 92.668H151.221V84.1772H142.737V92.668Z" fill="#DBDBDB"/>
<path d="M142.737 84.1777H151.221V75.6869H142.737V84.1777Z" fill="white"/>
<path d="M142.737 75.6699H151.221V67.1791H142.737V75.6699Z" fill="white"/>
<path d="M142.737 67.1797H151.221V58.6889H142.737V67.1797Z" fill="white"/>
<path d="M142.737 58.6885H151.221V50.1977H142.737V58.6885Z" fill="white"/>
<path d="M142.737 50.1807H151.221V41.6899H142.737V50.1807Z" fill="white"/>
<path d="M142.737 41.6895H151.221V33.1987H142.737V41.6895Z" fill="white"/>
<path d="M142.737 33.1816H151.221V24.6909H142.737V33.1816Z" fill="black"/>
<path d="M134.303 92.668H142.787V84.1772H134.303V92.668Z" fill="#DBDBDB"/>
<path d="M134.303 84.1777H142.787V75.6869H134.303V84.1777Z" fill="white"/>
<path d="M134.303 75.6699H142.787V67.1791H134.303V75.6699Z" fill="white"/>
<path d="M134.303 67.1797H142.787V58.6889H134.303V67.1797Z" fill="white"/>
<path d="M134.303 58.6885H142.787V50.1977H134.303V58.6885Z" fill="white"/>
<path d="M134.303 50.1807H142.787V41.6899H134.303V50.1807Z" fill="white"/>
<path d="M134.303 41.6895H142.787V33.1987H134.303V41.6895Z" fill="white"/>
<path d="M134.303 33.1816H142.787V24.6909H134.303V33.1816Z" fill="white"/>
<path d="M134.303 24.6738H142.787V16.183H134.303V24.6738Z" fill="black"/>
<path d="M125.887 92.668H134.371V84.1772H125.887V92.668Z" fill="#DBDBDB"/>
<path d="M125.887 84.1777H134.371V75.6869H125.887V84.1777Z" fill="white"/>
<path d="M125.887 75.6699H134.371V67.1791H125.887V75.6699Z" fill="white"/>
<path d="M125.887 41.6895H134.371V33.1987H125.887V41.6895Z" fill="white"/>
<path d="M125.887 33.1816H134.371V24.6909H125.887V33.1816Z" fill="white"/>
<path d="M125.887 24.6738H134.371V16.183H125.887V24.6738Z" fill="black"/>
<path d="M117.455 92.668H125.939V84.1772H117.455V92.668Z" fill="#DBDBDB"/>
<path d="M117.455 84.1777H125.939V75.6869H117.455V84.1777Z" fill="white"/>
<path d="M117.455 33.1816H125.939V24.6909H117.455V33.1816Z" fill="white"/>
<path d="M117.455 24.6738H125.939V16.183H117.455V24.6738Z" fill="black"/>
<path d="M109.022 92.668H117.506V84.1772H109.022V92.668Z" fill="#DBDBDB"/>
<path d="M109.022 84.1777H117.506V75.6869H109.022V84.1777Z" fill="white"/>
<path d="M109.022 33.1816H117.506V24.6909H109.022V33.1816Z" fill="white"/>
<path d="M109.022 24.6738H117.506V16.183H109.022V24.6738Z" fill="black"/>
<path d="M100.588 92.668H109.072V84.1772H100.588V92.668Z" fill="#DBDBDB"/>
<path d="M100.588 84.1777H109.072V75.6869H100.588V84.1777Z" fill="white"/>
<path d="M100.588 33.1816H109.072V24.6909H100.588V33.1816Z" fill="white"/>
<path d="M100.588 24.6738H109.072V16.183H100.588V24.6738Z" fill="black"/>
<path d="M92.1546 84.1777H100.639V75.6869H92.1546V84.1777Z" fill="white"/>
<path d="M92.1546 75.6699H100.639V67.1791H92.1546V75.6699Z" fill="white"/>
<path d="M92.1546 41.6895H100.639V33.1987H92.1546V41.6895Z" fill="white"/>
<path d="M92.1546 33.1816H100.639V24.6909H92.1546V33.1816Z" fill="white"/>
<path d="M92.1546 24.6738H100.639V16.183H92.1546V24.6738Z" fill="black"/>
<path d="M83.721 92.668H92.2051V84.1772H83.721V92.668Z" fill="#DBDBDB"/>
<path d="M83.721 84.1777H92.2051V75.6869H83.721V84.1777Z" fill="white"/>
<path d="M83.721 75.6699H92.2051V67.1791H83.721V75.6699Z" fill="white"/>
<path d="M83.721 67.1797H92.2051V58.6889H83.721V67.1797Z" fill="white"/>
<path d="M83.721 58.6885H92.2051V50.1977H83.721V58.6885Z" fill="white"/>
<path d="M83.721 50.1807H92.2051V41.6899H83.721V50.1807Z" fill="white"/>
<path d="M83.721 41.6895H92.2051V33.1987H83.721V41.6895Z" fill="white"/>
<path d="M83.721 33.1816H92.2051V24.6909H83.721V33.1816Z" fill="white"/>
<path d="M75.2718 92.668H83.7559V84.1772H75.2718V92.668Z" fill="#DBDBDB"/>
<path d="M75.2718 84.1777H83.7559V75.6869H75.2718V84.1777Z" fill="white"/>
<path d="M75.2718 75.6699H83.7559V67.1791H75.2718V75.6699Z" fill="white"/>
<path d="M75.2718 67.1797H83.7559V58.6889H75.2718V67.1797Z" fill="white"/>
<path d="M75.2718 58.6885H83.7559V50.1977H75.2718V58.6885Z" fill="white"/>
<path d="M75.2718 50.1807H83.7559V41.6899H75.2718V50.1807Z" fill="white"/>
<path d="M75.2718 41.6895H83.7559V33.1987H75.2718V41.6895Z" fill="white"/>
<path d="M75.2718 33.1816H83.7559V24.6909H75.2718V33.1816Z" fill="white"/>
<path d="M75.2718 24.6738H83.7559V16.183H75.2718V24.6738Z" fill="black"/>
<path d="M83.6878 24.6738H92.1719V16.183H83.6878V24.6738Z" fill="black"/>
<path d="M66.8382 92.668H75.3223V84.1772H66.8382V92.668Z" fill="#DBDBDB"/>
<path d="M66.8382 84.1777H75.3223V75.6869H66.8382V84.1777Z" fill="white"/>
<path d="M66.8382 75.6699H75.3223V67.1791H66.8382V75.6699Z" fill="white"/>
<path d="M66.8382 67.1797H75.3223V58.6889H66.8382V67.1797Z" fill="white"/>
<path d="M66.8382 58.6885H75.3223V50.1977H66.8382V58.6885Z" fill="white"/>
<path d="M66.8382 50.1807H75.3223V41.6899H66.8382V50.1807Z" fill="white"/>
<path d="M66.8382 41.6895H75.3223V33.1987H66.8382V41.6895Z" fill="white"/>
<path d="M66.8382 33.1816H75.3223V24.6909H66.8382V33.1816Z" fill="white"/>
<path d="M66.8382 24.6738H75.3223V16.183H66.8382V24.6738Z" fill="black"/>
<path d="M58.4046 92.668H66.8887V84.1772H58.4046V92.668Z" fill="#DBDBDB"/>
<path d="M58.4046 84.1777H66.8887V75.6869H58.4046V84.1777Z" fill="white"/>
<path d="M58.4046 75.6699H66.8887V67.1791H58.4046V75.6699Z" fill="white"/>
<path d="M58.4046 67.1797H66.8887V58.6889H58.4046V67.1797Z" fill="white"/>
<path d="M58.4046 58.6885H66.8887V50.1977H58.4046V58.6885Z" fill="white"/>
<path d="M58.4046 50.1807H66.8887V41.6899H58.4046V50.1807Z" fill="white"/>
<path d="M58.4046 41.6895H66.8887V33.1987H58.4046V41.6895Z" fill="white"/>
<path d="M58.4046 33.1816H66.8887V24.6909H58.4046V33.1816Z" fill="white"/>
<path d="M58.4046 24.6738H66.8887V16.183H58.4046V24.6738Z" fill="black"/>
<path d="M49.9729 92.668H58.457V84.1772H49.9729V92.668Z" fill="#DBDBDB"/>
<path d="M49.9729 84.1777H58.457V75.6869H49.9729V84.1777Z" fill="white"/>
<path d="M49.9729 75.6699H58.457V67.1791H49.9729V75.6699Z" fill="white"/>
<path d="M49.9729 67.1797H58.457V58.6889H49.9729V67.1797Z" fill="white"/>
<path d="M49.9729 58.6885H58.457V50.1977H49.9729V58.6885Z" fill="white"/>
<path d="M49.9729 50.1807H58.457V41.6899H49.9729V50.1807Z" fill="white"/>
<path d="M49.9729 41.6895H58.457V33.1987H49.9729V41.6895Z" fill="white"/>
<path d="M49.9729 33.1816H58.457V24.6909H49.9729V33.1816Z" fill="white"/>
<path d="M49.9729 24.6738H58.457V16.183H49.9729V24.6738Z" fill="black"/>
<path d="M41.5394 109.684H50.0234V101.193H41.5394V109.684Z" fill="#382509"/>
<path d="M41.5394 92.668H50.0234V84.1772H41.5394V92.668Z" fill="#DBDBDB"/>
<path d="M41.5394 84.1777H50.0234V75.6869H41.5394V84.1777Z" fill="white"/>
<path d="M41.5394 75.6699H50.0234V67.1791H41.5394V75.6699Z" fill="white"/>
<path d="M41.5394 67.1797H50.0234V58.6889H41.5394V67.1797Z" fill="white"/>
<path d="M41.5394 58.6885H50.0234V50.1977H41.5394V58.6885Z" fill="white"/>
<path d="M41.5394 50.1807H50.0234V41.6899H41.5394V50.1807Z" fill="white"/>
<path d="M41.5394 41.6895H50.0234V33.1987H41.5394V41.6895Z" fill="white"/>
<path d="M41.5394 33.1816H50.0234V24.6909H41.5394V33.1816Z" fill="black"/>
<path d="M33.1058 92.668H41.5898V84.1772H33.1058V92.668Z" fill="#DBDBDB"/>
<path d="M33.1058 84.1777H41.5898V75.6869H33.1058V84.1777Z" fill="white"/>
<path d="M33.1058 75.6699H41.5898V67.1791H33.1058V75.6699Z" fill="white"/>
<path d="M33.1058 67.1797H41.5898V58.6889H33.1058V67.1797Z" fill="white"/>
<path d="M33.1058 58.6885H41.5898V50.1977H33.1058V58.6885Z" fill="white"/>
<path d="M33.1058 50.1807H41.5898V41.6899H33.1058V50.1807Z" fill="white"/>
<path d="M33.1058 41.6895H41.5898V33.1987H33.1058V41.6895Z" fill="black"/>
<path d="M24.6722 84.1777H33.1562V75.6869H24.6722V84.1777Z" fill="white"/>
<path d="M24.6722 75.6699H33.1562V67.1791H24.6722V75.6699Z" fill="white"/>
<path d="M24.6722 67.1797H33.1562V58.6889H24.6722V67.1797Z" fill="white"/>
<path d="M24.6722 58.6885H33.1562V50.1977H24.6722V58.6885Z" fill="white"/>
<path d="M24.6722 50.1807H33.1562V41.6899H24.6722V50.1807Z" fill="black"/>
<path d="M159.604 92.668H168.088V84.1772H159.604V92.668Z" fill="#DBDBDB"/>
<path d="M159.604 84.1777H168.088V75.6869H159.604V84.1777Z" fill="#DBDBDB"/>
<path d="M159.604 75.6699H168.088V67.1791H159.604V75.6699Z" fill="#DBDBDB"/>
<path d="M159.604 67.1797H168.088V58.6889H159.604V67.1797Z" fill="#DBDBDB"/>
<path d="M159.604 58.6885H168.088V50.1977H159.604V58.6885Z" fill="#DBDBDB"/>
<path d="M159.604 50.1807H168.088V41.6899H159.604V50.1807Z" fill="black"/>
<path d="M49.9729 101.176H58.457V92.685H49.9729V101.176Z" fill="black"/>
<path d="M58.4046 101.176H66.8887V92.685H58.4046V101.176Z" fill="black"/>
<path d="M41.5394 101.176H50.0234V92.685H41.5394V101.176Z" fill="black"/>
<path d="M33.1058 101.176H41.5898V92.685H33.1058V101.176Z" fill="black"/>
<path d="M24.6722 101.176H33.1562V92.685H24.6722V101.176Z" fill="black"/>
<path d="M16.2737 101.176H24.7578V92.685H16.2737V101.176Z" fill="black"/>
<path d="M66.8382 101.176H75.3223V92.685H66.8382V101.176Z" fill="black"/>
<path d="M75.2718 101.176H83.7559V92.685H75.2718V101.176Z" fill="black"/>
<path d="M83.7054 101.176H92.1895V92.685H83.7054V101.176Z" fill="black"/>
<path d="M92.139 101.176H100.623V92.685H92.139V101.176Z" fill="black"/>
<path d="M100.571 101.176H109.055V92.685H100.571V101.176Z" fill="black"/>
<path d="M109.09 101.176H117.574V92.685H109.09V101.176Z" fill="black"/>
<path d="M117.623 101.176H126.107V92.685H117.623V101.176Z" fill="black"/>
<path d="M126.143 101.176H134.627V92.685H126.143V101.176Z" fill="black"/>
<path d="M127.007 68.2656H136.221V59.0446H127.007V68.2656Z" fill="#FCC5FF"/>
<path d="M127.007 59.0449H136.221V49.8239H127.007V59.0449Z" fill="#FCC5FF"/>
<path d="M127.007 49.8242H136.221V40.6032H127.007V49.8242Z" fill="#FCC5FF"/>
<path d="M117.827 77.4863H127.041V68.2653H117.827V77.4863Z" fill="#FCC5FF"/>
<path d="M117.827 68.2656H127.041V59.0446H117.827V68.2656Z" fill="#FCC5FF"/>
<path d="M117.827 59.0449H127.041V49.8239H117.827V59.0449Z" fill="#FCC5FF"/>
<path d="M117.827 49.8242H127.041V40.6032H117.827V49.8242Z" fill="#FCC5FF"/>
<path d="M117.827 40.5859H127.041V31.3649H117.827V40.5859Z" fill="#FCC5FF"/>
<path d="M108.683 77.4863H117.896V68.2653H108.683V77.4863Z" fill="#FCC5FF"/>
<path d="M108.683 68.2656H117.896V59.0446H108.683V68.2656Z" fill="#FCC5FF"/>
<path d="M108.683 59.0449H117.896V49.8239H108.683V59.0449Z" fill="#FCC5FF"/>
<path d="M108.683 49.8242H117.896V40.6032H108.683V49.8242Z" fill="#FCC5FF"/>
<path d="M108.683 40.5859H117.896V31.3649H108.683V40.5859Z" fill="#FCC5FF"/>
<path d="M99.5187 77.4863H108.732V68.2653H99.5187V77.4863Z" fill="#FCC5FF"/>
<path d="M99.5187 68.2656H108.732V59.0446H99.5187V68.2656Z" fill="#FCC5FF"/>
<path d="M99.5187 59.0449H108.732V49.8239H99.5187V59.0449Z" fill="#FCC5FF"/>
<path d="M99.5187 49.8242H108.732V40.6032H99.5187V49.8242Z" fill="#FCC5FF"/>
<path d="M99.5187 40.5859H108.732V31.3649H99.5187V40.5859Z" fill="#FCC5FF"/>
<path d="M90.3742 68.2656H99.5879V59.0446H90.3742V68.2656Z" fill="#FCC5FF"/>
<path d="M90.3742 59.0449H99.5879V49.8239H90.3742V59.0449Z" fill="#FCC5FF"/>
<path d="M90.3742 49.8242H99.5879V40.6032H90.3742V49.8242Z" fill="#FCC5FF"/>
<path d="M134.491 101.176H142.975V92.685H134.491V101.176Z" fill="black"/>
<path d="M142.823 101.176H151.307V92.685H142.823V101.176Z" fill="black"/>
<path d="M151.17 101.176H159.654V92.685H151.17V101.176Z" fill="black"/>
<path d="M159.518 101.176H168.002V92.685H159.518V101.176Z" fill="black"/>
<path d="M167.867 101.176H176.504V92.685H167.867V101.176Z" fill="black"/>
<path d="M125.887 67.1797H134.371V58.6889H125.887V67.1797Z" fill="#182744"/>
<path d="M125.887 58.6885H134.371V50.1977H125.887V58.6885Z" fill="#182744"/>
<path d="M125.887 50.1807H134.371V41.6899H125.887V50.1807Z" fill="#182744"/>
<path d="M117.455 75.6699H125.939V67.1791H117.455V75.6699Z" fill="#182744"/>
<path d="M117.455 67.1797H125.939V58.6889H117.455V67.1797Z" fill="#182744"/>
<path d="M117.455 58.6885H125.939V50.1977H117.455V58.6885Z" fill="#182744"/>
<path d="M117.455 50.1807H125.939V41.6899H117.455V50.1807Z" fill="#182744"/>
<path d="M117.455 41.6895H125.939V33.1987H117.455V41.6895Z" fill="#182744"/>
<path d="M109.022 75.6699H117.506V67.1791H109.022V75.6699Z" fill="#182744"/>
<path d="M109.022 67.1797H117.506V58.6889H109.022V67.1797Z" fill="#182744"/>
<path d="M109.022 58.6885H117.506V50.1977H109.022V58.6885Z" fill="#182744"/>
<path d="M109.022 50.1807H117.506V41.6899H109.022V50.1807Z" fill="#182744"/>
<path d="M109.022 41.6895H117.506V33.1987H109.022V41.6895Z" fill="#182744"/>
<path d="M100.588 75.6699H109.072V67.1791H100.588V75.6699Z" fill="#182744"/>
<path d="M100.588 67.1797H109.072V58.6889H100.588V67.1797Z" fill="#182744"/>
<path d="M100.588 58.6885H109.072V50.1977H100.588V58.6885Z" fill="#182744"/>
<path d="M100.588 50.1807H109.072V41.6899H100.588V50.1807Z" fill="#182744"/>
<path d="M100.588 41.6895H109.072V33.1987H100.588V41.6895Z" fill="#182744"/>
<path d="M92.1546 67.1797H100.639V58.6889H92.1546V67.1797Z" fill="#182744"/>
<path d="M125.887 64.6992H134.371V60.4538H125.887V64.6992Z" fill="#CECBBA"/>
<path d="M117.455 64.6992H125.939V56.2084H117.455V64.6992Z" fill="#CECBBA"/>
<path d="M109.022 64.6992H117.506V56.2084H109.022V64.6992Z" fill="#CECBBA"/>
<path d="M100.588 64.6992H109.072V56.2084H100.588V64.6992Z" fill="#CECBBA"/>
<path d="M92.1546 64.6992H100.639V56.2084H92.1546V64.6992Z" fill="#CECBBA"/>
<path d="M92.1546 58.6885H100.639V50.1977H92.1546V58.6885Z" fill="#182744"/>
<path d="M92.1546 50.1807H100.639V41.6899H92.1546V50.1807Z" fill="#182744"/>
<path d="M112.244 47.7861H120.729V30.7876H112.244V47.7861Z" fill="#CCCCCC"/>
<path d="M112.313 56.3281H120.797V47.8373H112.313V56.3281Z" fill="#EA4949"/>
<path d="M168.053 92.668H176.537V84.1772H168.053V92.668Z" fill="black"/>
<path d="M168.053 84.1777H176.537V75.6869H168.053V84.1777Z" fill="black"/>
<path d="M168.053 75.6699H176.537V67.1791H168.053V75.6699Z" fill="black"/>
<path d="M168.053 67.1797H176.537V58.6889H168.053V67.1797Z" fill="black"/>
<path d="M168.053 58.6885H176.537V50.1977H168.053V58.6885Z" fill="black"/>
<path d="M16.2386 135.19H24.7227V126.7H16.2386V135.19Z" fill="black"/>
<path d="M16.2386 126.683H24.7227V118.192H16.2386V126.683Z" fill="black"/>
<path d="M16.2386 118.191H24.7227V109.701H16.2386V118.191Z" fill="black"/>
<path d="M16.2386 84.1777H24.7227V75.6869H16.2386V84.1777Z" fill="black"/>
<path d="M16.2386 92.668H24.7227V84.1772H16.2386V92.668Z" fill="black"/>
<path d="M16.2386 75.6699H24.7227V67.1791H16.2386V75.6699Z" fill="black"/>
<path d="M16.2386 67.1797H24.7227V58.6889H16.2386V67.1797Z" fill="black"/>
<path d="M16.2386 58.6885H24.7227V50.1977H16.2386V58.6885Z" fill="black"/>
<path d="M75.5601 177.543H67.127V185.983H75.5601V177.543Z" fill="white"/>
<path d="M83.9586 177.543H75.5254V185.983H83.9586V177.543Z" fill="white"/>
<path d="M92.3414 177.543H83.9082V185.983H92.3414V177.543Z" fill="white"/>
<path d="M100.742 177.543H92.3086V185.983H100.742V177.543Z" fill="white"/>
<path d="M117.523 177.543H109.09V185.983H117.523V177.543Z" fill="white"/>
<path d="M125.904 177.543H117.471V185.983H125.904V177.543Z" fill="white"/>
<path d="M109.123 177.543H100.689V185.983H109.123V177.543Z" fill="white"/>
<path d="M134.304 177.543H125.871V185.983H134.304V177.543Z" fill="white"/>
<path d="M75.5601 185.982H67.127V194.422H75.5601V185.982Z" fill="black"/>
<path opacity="0.3" d="M83.9586 185.982H75.5254V194.422H83.9586V185.982Z" fill="black"/>
<path opacity="0.3" d="M92.3414 185.982H83.9082V194.422H92.3414V185.982Z" fill="black"/>
<path opacity="0.3" d="M100.742 185.982H92.3086V194.422H100.742V185.982Z" fill="black"/>
<path opacity="0.3" d="M109.123 185.982H100.689V194.422H109.123V185.982Z" fill="black"/>
<path opacity="0.3" d="M117.523 185.982H109.09V194.422H117.523V185.982Z" fill="black"/>
<path opacity="0.3" d="M125.904 185.982H117.471V194.422H125.904V185.982Z" fill="black"/>
<path opacity="0.3" d="M134.304 185.982H125.871V194.422H134.304V185.982Z" fill="black"/>
<path d="M142.687 185.982H134.254V194.422H142.687V185.982Z" fill="black"/>
<path d="M67.1773 177.543H58.7441V185.983H67.1773V177.543Z" fill="white"/>
<path d="M58.7789 177.543H50.3457V185.983H58.7789V177.543Z" fill="white"/>
<path d="M142.687 177.543H134.254V185.983H142.687V177.543Z" fill="white"/>
<path d="M75.5601 169.103H67.127V177.542H75.5601V169.103Z" fill="black"/>
<path d="M83.9586 169.103H75.5254V177.542H83.9586V169.103Z" fill="black"/>
<path d="M92.3414 169.103H83.9082V177.542H92.3414V169.103Z" fill="black"/>
<path d="M100.742 169.103H92.3086V177.542H100.742V169.103Z" fill="black"/>
<path d="M117.523 169.103H109.09V177.542H117.523V169.103Z" fill="black"/>
<path d="M125.904 169.103H117.471V177.542H125.904V169.103Z" fill="black"/>
<path d="M109.123 169.103H100.689V177.542H109.123V169.103Z" fill="black"/>
<path d="M134.304 169.103H125.871V177.542H134.304V169.103Z" fill="black"/>
<path d="M67.1773 169.103H58.7441V177.542H67.1773V169.103Z" fill="black"/>
<path d="M58.7789 169.103H50.3457V177.542H58.7789V169.103Z" fill="black"/>
<path d="M142.687 169.103H134.254V177.542H142.687V169.103Z" fill="black"/>
<path d="M75.5601 185.982H67.127V194.422H75.5601V185.982Z" fill="black"/>
<path d="M83.9586 185.982H75.5254V194.422H83.9586V185.982Z" fill="black"/>
<path d="M92.3414 185.982H83.9082V194.422H92.3414V185.982Z" fill="black"/>
<path d="M100.742 185.982H92.3086V194.422H100.742V185.982Z" fill="black"/>
<path d="M117.523 185.982H109.09V194.422H117.523V185.982Z" fill="black"/>
<path d="M125.904 185.982H117.471V194.422H125.904V185.982Z" fill="black"/>
<path d="M109.123 185.982H100.689V194.422H109.123V185.982Z" fill="black"/>
<path d="M134.304 185.982H125.871V194.422H134.304V185.982Z" fill="black"/>
<path d="M142.687 185.982H134.254V194.422H142.687V185.982Z" fill="black"/>
<path d="M67.1773 185.982H58.7441V194.422H67.1773V185.982Z" fill="black"/>
<path d="M58.7789 185.982H50.3457V194.422H58.7789V185.982Z" fill="black"/>
<path d="M50.4136 177.543H41.9805V185.983H50.4136V177.543Z" fill="white"/>
<path d="M50.4136 169.103H41.9805V177.542H50.4136V169.103Z" fill="black"/>
<path d="M50.4136 185.982H41.9805V194.422H50.4136V185.982Z" fill="black"/>
<path d="M42.0133 177.543H33.5801V185.983H42.0133V177.543Z" fill="white"/>
<path d="M42.0133 169.103H33.5801V177.542H42.0133V169.103Z" fill="black"/>
<path d="M42.0133 185.982H33.5801V194.422H42.0133V185.982Z" fill="black"/>
<path d="M33.6148 177.543H25.1816V185.983H33.6148V177.543Z" fill="black"/>
<path d="M142.687 185.982H134.254V194.422H142.687V185.982Z" fill="black"/>
<path d="M151.086 177.543H142.652V185.983H151.086V177.543Z" fill="white"/>
<path d="M151.086 169.103H142.652V177.542H151.086V169.103Z" fill="black"/>
<path d="M151.086 185.982H142.652V194.422H151.086V185.982Z" fill="black"/>
<path d="M159.468 177.543H151.035V185.983H159.468V177.543Z" fill="white"/>
<path d="M159.468 169.103H151.035V177.542H159.468V169.103Z" fill="black"/>
<path d="M159.926 185.982H151.035V194.422H159.926V185.982Z" fill="black"/>
<path d="M167.867 177.543H159.434V186.424H167.867V177.543Z" fill="black"/>
<path d="M151.086 211.539H159.57V203.048H151.086V211.539Z" fill="#847D72"/>
<path d="M159.366 203.065H167.85V194.575H159.366V203.065Z" fill="#F6F2EC"/>
<path d="M167.867 194.523H176.352V186.033H167.867V194.523Z" fill="#663B26"/>
<path d="M151.086 220.03H159.57V211.539H151.086V220.03Z" fill="#2C8C2C"/>
<path d="M159.366 220.03H167.85V211.539H159.366V220.03Z" fill="black"/>
<path d="M159.366 211.557H167.85V203.066H159.366V211.557Z" fill="#DAD6D0"/>
<path d="M167.867 203.031H176.352V194.54H167.867V203.031Z" fill="#663B26"/>
<path d="M151.069 203.15H159.553V194.439H151.069V203.15Z" fill="#847D72"/>
<path d="M210.134 203.049H201.65V211.54H210.134V203.049Z" fill="black"/>
<path d="M210.134 194.541H201.65V203.032H210.134V194.541Z" fill="white"/>
<path d="M218.568 203.049H210.084V211.54H218.568V203.049Z" fill="black"/>
<path d="M218.568 194.541H210.084V203.032H218.568V194.541Z" fill="white"/>
<path d="M227.002 203.049H218.518V211.54H227.002V203.049Z" fill="black"/>
<path d="M227.002 194.541H218.518V203.032H227.002V194.541Z" fill="white"/>
<path d="M235.433 203.049H226.949V211.54H235.433V203.049Z" fill="white"/>
<path d="M235.433 194.541H226.949V203.032H235.433V194.541Z" fill="white"/>
<path d="M243.867 203.049H235.383V211.54H243.867V203.049Z" fill="black"/>
<path d="M243.867 194.541H235.383V203.032H243.867V194.541Z" fill="white"/>
<path d="M252.3 203.049H243.816V211.54H252.3V203.049Z" fill="white"/>
<path d="M252.3 194.541H243.816V203.032H252.3V194.541Z" fill="white"/>
<path d="M260.734 203.049H252.25V211.54H260.734V203.049Z" fill="black"/>
<path d="M260.734 194.541H252.25V203.032H260.734V194.541Z" fill="white"/>
<path d="M269.167 203.049H260.683V211.54H269.167V203.049Z" fill="black"/>
<path d="M269.167 194.541H260.683V203.032H269.167V194.541Z" fill="black"/>
<path d="M201.701 203.049H193.217V211.54H201.701V203.049Z" fill="white"/>
<path d="M201.701 194.541H193.217V203.032H201.701V194.541Z" fill="white"/>
<path d="M193.269 203.049H184.785V211.54H193.269V203.049Z" fill="white"/>
<path d="M184.8 194.541H176.316V203.032H184.8V194.541Z" fill="white"/>
<path d="M193.269 194.541H184.785V203.032H193.269V194.541Z" fill="white"/>
<path d="M210.134 211.557H201.65V220.047H210.134V211.557Z" fill="white"/>
<path d="M218.568 211.557H210.084V220.047H218.568V211.557Z" fill="white"/>
<path d="M227.002 211.557H218.518V220.047H227.002V211.557Z" fill="white"/>
<path d="M235.433 211.557H226.949V220.047H235.433V211.557Z" fill="white"/>
<path d="M243.867 211.557H235.383V220.047H243.867V211.557Z" fill="white"/>
<path d="M252.3 211.557H243.816V220.047H252.3V211.557Z" fill="white"/>
<path d="M260.734 211.557H252.25V220.047H260.734V211.557Z" fill="white"/>
<path d="M269.167 211.557H260.683V220.047H269.167V211.557Z" fill="black"/>
<path d="M201.701 211.557H193.217V220.047H201.701V211.557Z" fill="white"/>
<path d="M193.269 211.557H184.785V220.047H193.269V211.557Z" fill="white"/>
<path d="M176.283 194.541H167.799V203.032H176.283V194.541Z" fill="white"/>
<path d="M184.785 186.051H176.301V194.542H184.785V186.051Z" fill="black"/>
<path d="M210.134 186.066H201.65V194.557H210.134V186.066Z" fill="black"/>
<path d="M218.568 186.066H210.084V194.557H218.568V186.066Z" fill="black"/>
<path d="M227.002 186.066H218.518V194.557H227.002V186.066Z" fill="black"/>
<path d="M235.433 186.066H226.949V194.557H235.433V186.066Z" fill="black"/>
<path d="M243.867 186.066H235.383V194.557H243.867V186.066Z" fill="black"/>
<path d="M252.3 186.066H243.816V194.557H252.3V186.066Z" fill="black"/>
<path d="M260.734 186.066H252.25V194.557H260.734V186.066Z" fill="black"/>
<path d="M269.167 186.066H260.683V194.557H269.167V186.066Z" fill="black"/>
<path d="M201.701 186.066H193.217V194.557H201.701V186.066Z" fill="black"/>
<path d="M193.269 186.066H184.785V194.557H193.269V186.066Z" fill="black"/>
<path d="M184.785 186.066H176.301V194.557H184.785V186.066Z" fill="black"/>
<path d="M210.134 220.166H201.65V228.657H210.134V220.166Z" fill="black"/>
<path d="M218.568 220.166H210.084V228.657H218.568V220.166Z" fill="black"/>
<path d="M227.002 220.166H218.518V228.657H227.002V220.166Z" fill="black"/>
<path d="M235.433 220.166H226.949V228.657H235.433V220.166Z" fill="black"/>
<path d="M243.867 220.166H235.383V228.657H243.867V220.166Z" fill="black"/>
<path d="M252.3 220.166H243.816V228.657H252.3V220.166Z" fill="black"/>
<path d="M260.734 220.166H252.25V228.657H260.734V220.166Z" fill="black"/>
<path d="M269.167 220.166H260.683V228.657H269.167V220.166Z" fill="black"/>
<path d="M201.701 220.166H193.217V228.657H201.701V220.166Z" fill="black"/>
<path d="M193.269 220.166H184.785V228.657H193.269V220.166Z" fill="black"/>
<path d="M184.785 220.166H176.301V228.657H184.785V220.166Z" fill="black"/>
<path d="M184.785 210.656H176.301V220.149H184.785V210.656Z" fill="black"/>
<path d="M184.785 203.065H176.301V211.556H184.785V203.065Z" fill="black"/>
<path d="M176.283 186.051H167.799V194.542H176.283V186.051Z" fill="black"/>
<path d="M176.283 203.065H167.799V211.556H176.283V203.065Z" fill="black"/>
<path d="M176.318 194.541H167.834V203.032H176.318V194.541Z" fill="white"/>
<path d="M167.834 194.541H159.35V203.032H167.834V194.541Z" fill="white"/>
<path d="M176.3 186.051H167.816V194.542H176.3V186.051Z" fill="black"/>
<path d="M176.3 186.066H167.816V194.557H176.3V186.066Z" fill="black"/>
<path d="M176.3 203.065H167.816V211.556H176.3V203.065Z" fill="black"/>
<path d="M167.834 186.051H159.35V194.542H167.834V186.051Z" fill="black"/>
<path d="M167.834 203.065H159.35V211.556H167.834V203.065Z" fill="#847D72"/>
<path d="M117.455 228.487H125.939V219.997H117.455V228.487Z" fill="white"/>
<path d="M83.6878 253.926H92.1719V245.435H83.6878V253.926Z" fill="#DBDBDB"/>
<path d="M75.2542 253.926H83.7383V245.435H75.2542V253.926Z" fill="white"/>
<path d="M66.8206 253.926H75.3047V245.435H66.8206V253.926Z" fill="black"/>
<path d="M110.888 60.9131H106.238V65.566H110.888V60.9131Z" fill="white"/>
<path d="M122.579 60.9131H117.93V65.566H122.579V60.9131Z" fill="white"/>
</svg>
