<svg width="auto" height="auto" viewBox="0 0 75 64" fill="none" xmlns="http://www.w3.org/2000/svg">
<path d="M9.13799 36.4404H0.0175781V45.5597H9.13799V36.4404Z" fill="black" fill-opacity="0.8"/>
<path d="M-0.000294685 54.752H9.12012L9.12012 45.6327H-0.000294685L-0.000294685 54.752Z" fill="black" fill-opacity="0.8"/>
<path d="M-0.000294685 63.8711H9.12012L9.12012 54.7518H-0.000294685L-0.000294685 63.8711Z" fill="black" fill-opacity="0.8"/>
<path d="M19.9997 63.8711H29.1201V54.7518H19.9997V63.8711Z" fill="black" fill-opacity="0.5"/>
<path d="M37.9997 63.8711H47.1201V54.7518H37.9997V63.8711Z" fill="black" fill-opacity="0.2"/>
<path d="M19.9997 54.752H29.1201V45.6327H19.9997V54.752Z" fill="black" fill-opacity="0.5"/>
<path d="M37.9997 54.752H47.1201V45.6327H37.9997V54.752Z" fill="black" fill-opacity="0.2"/>
<path d="M18.2044 27.3398H9.08398V36.4591H18.2044V27.3398Z" fill="black" fill-opacity="0.8"/>
<path d="M27.3245 18.2012H18.2041V27.3205H27.3245V18.2012Z" fill="black" fill-opacity="0.8"/>
<path d="M45.4925 0H36.3721V9.1193H45.4925V0Z" fill="black" fill-opacity="0.8"/>
<path d="M36.4085 9.08203H27.2881V18.2013H36.4085V9.08203Z" fill="black" fill-opacity="0.8"/>
<path d="M56.4085 9.08203H47.2881V18.2013H56.4085V9.08203Z" fill="black" fill-opacity="0.5"/>
<path d="M74.4085 9.08203H65.2881V18.2013H74.4085V9.08203Z" fill="black" fill-opacity="0.2"/>
<path d="M47.3245 18.2012H38.2041V27.3205H47.3245V18.2012Z" fill="black" fill-opacity="0.5"/>
<path d="M65.3245 18.2012H56.2041V27.3205H65.3245V18.2012Z" fill="black" fill-opacity="0.2"/>
<path d="M65.4925 0H56.3721V9.1193H65.4925V0Z" fill="black" fill-opacity="0.5"/>
<path d="M38.2044 27.3398H29.084V36.4591H38.2044V27.3398Z" fill="black" fill-opacity="0.5"/>
<path d="M56.2044 27.3398H47.084V36.4591H56.2044V27.3398Z" fill="black" fill-opacity="0.2"/>
<path d="M29.138 36.4404H20.0176V45.5597H29.138V36.4404Z" fill="black" fill-opacity="0.5"/>
<path d="M47.138 36.4404H38.0176V45.5597H47.138V36.4404Z" fill="black" fill-opacity="0.2"/>
</svg>
