<svg width="auto" height="auto" viewBox="0 0 353 292" fill="none" xmlns="http://www.w3.org/2000/svg">
<path d="M45.2415 82.8945H36.1211V92.0138H45.2415V82.8945Z" fill="#E2C430"/>
<path d="M36.1204 73.7207H27V82.84H36.1204V73.7207Z" fill="#E2C430"/>
<path d="M27.1204 65H18V74.1193H27.1204V65Z" fill="#E2C430"/>
<path d="M18.1204 56.2793H9V65.3986H18.1204V56.2793Z" fill="#E2C430"/>
<path d="M9.12041 47.5586H0V56.6779H9.12041V47.5586Z" fill="#E2C430"/>
<path d="M280.183 254.666H271.062V263.785H280.183V254.666Z" fill="#996758"/>
<path d="M198.574 246.349H189.453V255.468H198.574V246.349Z" fill="#EDE9E8"/>
<path d="M207.675 246.349H198.555V255.468H207.675V246.349Z" fill="black"/>
<path d="M216.686 246.349H207.565V255.468H216.686V246.349Z" fill="#B59910"/>
<path d="M234.872 246.349H225.752V255.468H234.872V246.349Z" fill="#1EC141"/>
<path d="M243.938 246.349H234.817V255.468H243.938V246.349Z" fill="#1EC141"/>
<path d="M253.004 246.349H243.884V255.468H253.004V246.349Z" fill="black"/>
<path d="M262.124 246.349H253.004V255.468H262.124V246.349Z" fill="black"/>
<path d="M271.227 246.349H262.106V255.468H271.227V246.349Z" fill="#87513C"/>
<path d="M189.599 246.349H180.479V255.468H189.599V246.349Z" fill="#EDE9E8"/>
<path d="M180.515 246.349H171.395V255.468H180.515V246.349Z" fill="#EDE9E8"/>
<path d="M171.413 246.349H162.293V255.468H171.413V246.349Z" fill="black"/>
<path d="M207.675 255.449H198.555V264.569H207.675V255.449Z" fill="black"/>
<path d="M234.872 255.449H225.752V264.569H234.872V255.449Z" fill="#EDE9E8"/>
<path d="M225.807 246.349H216.687V255.468H225.807V246.349Z" fill="black"/>
<path d="M225.807 255.449H216.687V264.569H225.807V255.449Z" fill="black"/>
<path d="M243.938 255.449H234.817V264.569H243.938V255.449Z" fill="#EDE9E8"/>
<path d="M253.004 255.449H243.884V264.569H253.004V255.449Z" fill="#EDE9E8"/>
<path d="M189.544 255.449H180.424V264.569H189.544V255.449Z" fill="black"/>
<path d="M198.61 255.449H189.489V264.569H198.61V255.449Z" fill="black"/>
<path d="M180.46 255.449H171.34V264.569H180.46V255.449Z" fill="black"/>
<path d="M171.376 255.449H162.256V264.569H171.376V255.449Z" fill="black"/>
<path d="M262.124 255.449H253.004V264.569H262.124V255.449Z" fill="black"/>
<path d="M289.394 292H298.515V282.881H289.394V292Z" fill="black"/>
<path d="M289.394 282.881H298.515V273.762H289.394V282.881Z" fill="#B59910"/>
<path d="M280.31 292H289.431V282.881H280.31V292Z" fill="black"/>
<path d="M280.31 282.881H289.431V273.762H280.31V282.881Z" fill="#B59910"/>
<path d="M271.245 292H280.365V282.881H271.245V292Z" fill="black"/>
<path d="M271.245 282.881H280.365V273.762H271.245V282.881Z" fill="#B59910"/>
<path d="M262.179 292H271.3V282.881H262.179V292Z" fill="black"/>
<path d="M262.179 282.881H271.3V273.762H262.179V282.881Z" fill="#B59910"/>
<path d="M253.113 292H262.233V282.881H253.113V292Z" fill="black"/>
<path d="M253.113 282.881H262.233V273.762H253.113V282.881Z" fill="#B59910"/>
<path d="M244.048 292H253.168V282.881H244.048V292Z" fill="black"/>
<path d="M244.048 282.881H253.168V273.762H244.048V282.881Z" fill="#B59910"/>
<path d="M234.982 292H244.103V282.881H234.982V292Z" fill="black"/>
<path d="M234.982 282.881H244.103V273.762H234.982V282.881Z" fill="#B59910"/>
<path d="M225.916 292H235.036V282.881H225.916V292Z" fill="black"/>
<path d="M225.916 282.881H235.036V273.762H225.916V282.881Z" fill="#B59910"/>
<path d="M216.869 292H225.989V282.881H216.869V292Z" fill="black"/>
<path d="M216.869 282.881H225.989V273.762H216.869V282.881Z" fill="#B59910"/>
<path d="M207.803 292H216.924V282.881H207.803V292Z" fill="black"/>
<path d="M207.803 282.881H216.924V273.762H207.803V282.881Z" fill="#B59910"/>
<path d="M198.737 292H207.857V282.881H198.737V292Z" fill="black"/>
<path d="M198.737 282.881H207.857V273.762H198.737V282.881Z" fill="#B59910"/>
<path d="M189.672 292H198.792V282.881H189.672V292Z" fill="black"/>
<path d="M189.672 282.881H198.792V273.762H189.672V282.881Z" fill="#B59910"/>
<path d="M180.606 292H189.727V282.881H180.606V292Z" fill="black"/>
<path d="M180.606 282.881H189.727V273.762H180.606V282.881Z" fill="#B59910"/>
<path d="M171.541 292H180.661V282.881H171.541V292Z" fill="black"/>
<path d="M171.541 282.881H180.661V273.762H171.541V282.881Z" fill="#B59910"/>
<path d="M162.457 292H171.577V282.881H162.457V292Z" fill="black"/>
<path d="M162.457 282.881H171.577V273.762H162.457V282.881Z" fill="#B59910"/>
<path d="M153.391 292H162.512V282.881H153.391V292Z" fill="black"/>
<path d="M153.391 282.881H162.512V273.762H153.391V282.881Z" fill="#B59910"/>
<path d="M298.442 292H307.562V282.881H298.442V292Z" fill="black"/>
<path d="M298.442 282.881H307.562V273.762H298.442V282.881Z" fill="#B59910"/>
<path d="M307.508 292H316.628V282.881H307.508V292Z" fill="black"/>
<path d="M307.508 282.881H316.628V273.762H307.508V282.881Z" fill="black"/>
<path d="M144.325 292H153.445V282.881H144.325V292Z" fill="black"/>
<path d="M144.325 282.881H153.445V273.762H144.325V282.881Z" fill="#B59910"/>
<path d="M244.048 273.762H253.168V264.642H244.048V273.762Z" fill="black"/>
<path d="M234.982 273.762H244.103V264.642H234.982V273.762Z" fill="black"/>
<path d="M225.916 273.762H235.036V264.642H225.916V273.762Z" fill="black"/>
<path d="M216.869 273.762H225.989V264.642H216.869V273.762Z" fill="black"/>
<path d="M207.803 273.762H216.924V264.642H207.803V273.762Z" fill="black"/>
<path d="M198.737 273.762H207.857V264.642H198.737V273.762Z" fill="black"/>
<path d="M189.672 273.762H198.792V264.642H189.672V273.762Z" fill="black"/>
<path d="M180.606 273.762H189.727V264.642H180.606V273.762Z" fill="black"/>
<path d="M180.478 264.624H189.599V255.505H180.478V264.624Z" fill="black"/>
<path d="M180.478 255.596H189.599V246.476H180.478V255.596Z" fill="black"/>
<path d="M171.413 255.596H180.533V246.476H171.413V255.596Z" fill="#B59910"/>
<path d="M162.457 273.762H171.577V264.642H162.457V273.762Z" fill="black"/>
<path d="M153.391 273.762H162.512V264.642H153.391V273.762Z" fill="black"/>
<path d="M307.508 273.762H316.628V264.642H307.508V273.762Z" fill="black"/>
<path d="M144.325 273.762H153.445V264.642H144.325V273.762Z" fill="black"/>
<path d="M124.059 292H144.361V282.881H124.059V292Z" fill="black"/>
<path d="M135.241 282.881H144.361V273.762H135.241V282.881Z" fill="#B59910"/>
<path d="M207.894 264.624H198.773V273.743H207.894V264.624Z" fill="black"/>
<path d="M216.96 264.624H207.84V273.743H216.96V264.624Z" fill="black"/>
<path d="M226.026 264.624H216.905V273.743H226.026V264.624Z" fill="black"/>
<path d="M235.091 264.624H225.971V273.743H235.091V264.624Z" fill="black"/>
<path d="M244.157 264.624H235.036V273.743H244.157V264.624Z" fill="black"/>
<path d="M253.223 264.624H244.103V273.743H253.223V264.624Z" fill="black"/>
<path d="M135.241 273.762H144.361V264.642H135.241V273.762Z" fill="black"/>
<path d="M171.413 273.762H180.533V264.642H171.413V273.762Z" fill="#B59910"/>
<path d="M171.413 264.624H180.533V255.505H171.413V264.624Z" fill="#B59910"/>
<path d="M171.412 256.891H174.148V246.622H171.412V256.891Z" fill="#DDC458"/>
<path d="M171.412 277.354H174.148V267.086H171.412V277.354Z" fill="#DDC458"/>
<path d="M171.412 267.05H174.148V256.781H171.412V267.05Z" fill="#DDC458"/>
<path d="M162.457 277.409H171.577V273.761H162.457V277.409Z" fill="#DDC458"/>
<path d="M153.391 277.409H162.512V273.761H153.391V277.409Z" fill="#DDC458"/>
<path d="M144.325 277.409H153.445V273.761H144.325V277.409Z" fill="#DDC458"/>
<path d="M135.241 277.409H144.361V273.761H135.241V277.409Z" fill="#DDC458"/>
<path d="M126.266 282.881H135.387V273.762H126.266V282.881Z" fill="#B59910"/>
<path d="M117.018 292H126.139V282.881H117.018V292Z" fill="black"/>
<path d="M117.018 282.881H126.139V273.762H117.018V282.881Z" fill="black"/>
<path d="M107.989 292H117.109V282.881H107.989V292Z" fill="black"/>
<path d="M126.266 273.762H135.387V264.642H126.266V273.762Z" fill="black"/>
<path d="M126.266 277.409H135.387V273.761H126.266V277.409Z" fill="#DDC458"/>
<path d="M334.832 246.33H325.712V255.449H334.832V246.33Z" fill="black"/>
<path d="M325.712 246.33H316.592V255.449H325.712V246.33Z" fill="black"/>
<path d="M316.646 246.33H307.525V255.449H316.646V246.33Z" fill="#F0BA34"/>
<path d="M262.234 264.569H253.113V273.689H262.234V264.569Z" fill="#F0BA34"/>
<path d="M262.234 255.469H253.113V264.588H262.234V255.469Z" fill="#FAFCFD"/>
<path d="M262.234 246.33H253.113V255.449H262.234V246.33Z" fill="#FAFCFD"/>
<path d="M271.299 264.569H262.179V273.689H271.299V264.569Z" fill="#F0BA34"/>
<path d="M271.299 255.469H262.179V264.588H271.299V255.469Z" fill="#FAFCFD"/>
<path d="M271.299 246.33H262.179V255.449H271.299V246.33Z" fill="#FAFCFD"/>
<path d="M280.365 264.569H271.244V273.689H280.365V264.569Z" fill="#F0BA34"/>
<path d="M280.365 255.469H271.244V264.588H280.365V255.469Z" fill="#FAFCFD"/>
<path d="M280.365 246.33H271.244V255.449H280.365V246.33Z" fill="#FAFCFD"/>
<path d="M289.431 264.569H280.311V273.689H289.431V264.569Z" fill="#F0BA34"/>
<path d="M289.431 255.469H280.311V264.588H289.431V255.469Z" fill="#FAFCFD"/>
<path d="M289.431 246.33H280.311V255.449H289.431V246.33Z" fill="#FAFCFD"/>
<path d="M298.496 264.569H289.376V273.689H298.496V264.569Z" fill="#F0BA34"/>
<path d="M298.496 255.469H289.376V264.588H298.496V255.469Z" fill="#FAFCFD"/>
<path d="M298.496 246.33H289.376V255.449H298.496V246.33Z" fill="#FAFCFD"/>
<path d="M253.114 264.569H243.993V273.689H253.114V264.569Z" fill="black"/>
<path d="M253.114 255.469H243.993V264.588H253.114V255.469Z" fill="black"/>
<path d="M253.114 246.33H243.993V255.449H253.114V246.33Z" fill="black"/>
<path d="M325.712 255.469H316.592V264.588H325.712V255.469Z" fill="black"/>
<path d="M316.646 264.569H307.525V273.689H316.646V264.569Z" fill="black"/>
<path d="M307.58 264.569H298.46V273.689H307.58V264.569Z" fill="#F0BA34"/>
<path d="M307.58 255.469H298.46V264.588H307.58V255.469Z" fill="#F0BA34"/>
<path d="M307.58 246.33H298.46V255.449H307.58V246.33Z" fill="#FAFCFD"/>
<path d="M316.646 255.469H307.525V264.588H316.646V255.469Z" fill="#F0BA34"/>
<path d="M271.282 252.769H262.161V255.504H271.282V252.769Z" fill="#D3E0E5"/>
<path d="M280.347 252.769H271.227V255.504H280.347V252.769Z" fill="#D3E0E5"/>
<path d="M289.412 252.769H280.292V255.504H289.412V252.769Z" fill="#D3E0E5"/>
<path d="M298.478 252.769H289.357V255.504H298.478V252.769Z" fill="#D3E0E5"/>
<path d="M216.632 255.395H207.548V273.998H216.632V255.395Z" fill="#B59910"/>
<path d="M180.515 164.402H171.395V173.522H180.515V164.402Z" fill="black"/>
<path opacity="0.3" d="M189.635 173.467H180.515V182.586H189.635V173.467Z" fill="black"/>
<path d="M180.57 182.586H171.449V191.705H180.57V182.586Z" fill="#FDEAE0"/>
<path opacity="0.3" d="M189.635 182.586H180.515V191.705H189.635V182.586Z" fill="black"/>
<path d="M171.486 191.688H162.365V200.807H171.486V191.688Z" fill="#FDEAE0"/>
<path d="M180.57 191.688H171.449V200.807H180.57V191.688Z" fill="#FDEAE0"/>
<path d="M189.635 191.688H180.515V200.807H189.635V191.688Z" fill="black"/>
<path d="M162.419 200.807H153.299V209.926H162.419V200.807Z" fill="#FDEAE0"/>
<path d="M171.486 182.66H162.365V191.779H171.486V182.66Z" fill="#FDEAE0"/>
<path d="M162.419 191.779H153.299V200.899H162.419V191.779Z" fill="#FDEAE0"/>
<path d="M180.57 173.521H171.449V182.641H180.57V173.521Z" fill="#FDEAE0"/>
<path d="M171.486 173.613H162.365V182.733H171.486V173.613Z" fill="black"/>
<path d="M162.419 182.715H153.299V191.834H162.419V182.715Z" fill="black"/>
<path d="M171.486 200.807H162.365V209.926H171.486V200.807Z" fill="#FDEAE0"/>
<path d="M180.57 200.807H171.449V209.926H180.57V200.807Z" fill="black"/>
<path d="M162.419 209.908H153.299V219.028H162.419V209.908Z" fill="#FDEAE0"/>
<path d="M162.419 219.027H153.299V228.147H162.419V219.027Z" fill="black"/>
<path d="M153.519 200.807H144.398V209.926H153.519V200.807Z" fill="#FDEAE0"/>
<path opacity="0.15" d="M153.519 191.688H144.398V200.807H153.519V191.688Z" fill="black"/>
<path d="M153.519 209.908H144.398V219.028H153.519V209.908Z" fill="#FDEAE0"/>
<path d="M153.519 219.027H144.398V228.147H153.519V219.027Z" fill="black"/>
<path d="M144.617 200.807H135.496V209.926H144.617V200.807Z" fill="black"/>
<path d="M144.617 209.908H135.496V219.028H144.617V209.908Z" fill="black"/>
<path d="M171.486 209.908H162.365V219.028H171.486V209.908Z" fill="black"/>
<path d="M153.245 137.045H144.125V146.164H153.245V137.045Z" fill="black"/>
<path d="M153.245 91.3936H144.125V100.513H153.245V91.3936Z" fill="black"/>
<path d="M162.329 91.3936H153.209V100.513H162.329V91.3936Z" fill="black"/>
<path d="M171.394 91.3936H162.273V100.513H171.394V91.3936Z" fill="#4C3510"/>
<path d="M180.46 82.2744H171.34V91.3937H180.46V82.2744Z" fill="black"/>
<path d="M189.526 91.3936H180.405V100.513H189.526V91.3936Z" fill="black"/>
<path d="M198.591 91.3936H189.471V100.513H198.591V91.3936Z" fill="#4C3510"/>
<path d="M207.658 82.2744H198.537V91.3937H207.658V82.2744Z" fill="black"/>
<path d="M225.788 82.2744H216.668V91.3937H225.788V82.2744Z" fill="black"/>
<path d="M234.854 82.2744H225.733V91.3937H234.854V82.2744Z" fill="black"/>
<path d="M243.92 91.3936H234.8V100.513H243.92V91.3936Z" fill="black"/>
<path d="M252.986 82.2744H243.865V91.3937H252.986V82.2744Z" fill="black"/>
<path d="M262.051 137.045H252.931V146.164H262.051V137.045Z" fill="black"/>
<path d="M262.051 91.3936H252.931V100.513H262.051V91.3936Z" fill="black"/>
<path d="M271.117 127.926H261.996V137.045H271.117V127.926Z" fill="black"/>
<path d="M271.117 100.531H261.996V109.651H271.117V100.531Z" fill="black"/>
<path d="M280.183 127.926H271.062V137.045H280.183V127.926Z" fill="black"/>
<path d="M280.183 91.3936H271.062V100.513H280.183V91.3936Z" fill="black"/>
<path d="M289.248 127.926H280.128V137.045H289.248V127.926Z" fill="black"/>
<path d="M289.248 82.2744H280.128V91.3937H289.248V82.2744Z" fill="black"/>
<path d="M162.329 146.164H153.209V155.283H162.329V146.164Z" fill="black"/>
<path d="M252.986 146.164H243.865V155.283H252.986V146.164Z" fill="black"/>
<path d="M171.394 155.266H162.273V164.385H171.394V155.266Z" fill="black"/>
<path d="M180.46 155.266H171.34V164.385H180.46V155.266Z" fill="black"/>
<path d="M234.854 155.266H225.733V164.385H234.854V155.266Z" fill="black"/>
<path d="M243.92 155.266H234.8V164.385H243.92V155.266Z" fill="black"/>
<path d="M189.526 164.366H180.405V173.486H189.526V164.366Z" fill="black"/>
<path d="M198.591 164.366H189.471V173.486H198.591V164.366Z" fill="black"/>
<path d="M207.658 164.366H198.537V173.486H207.658V164.366Z" fill="black"/>
<path d="M216.723 164.366H207.603V173.486H216.723V164.366Z" fill="black"/>
<path d="M225.788 164.366H216.668V173.486H225.788V164.366Z" fill="black"/>
<path d="M234.854 164.366H225.733V173.486H234.854V164.366Z" fill="#87513C"/>
<path d="M243.92 164.366H234.8V173.486H243.92V164.366Z" fill="#87513C"/>
<path d="M252.986 164.366H243.865V173.486H252.986V164.366Z" fill="black"/>
<path d="M262.051 164.366H252.931V173.486H262.051V164.366Z" fill="#6D3A2B"/>
<path d="M271.227 173.485H262.106V182.605H271.227V173.485Z" fill="#87513C"/>
<path d="M252.986 155.266H243.865V164.385H252.986V155.266Z" fill="black"/>
<path d="M189.526 173.485H180.405V182.605H189.526V173.485Z" fill="black"/>
<path d="M198.591 173.485H189.471V182.605H198.591V173.485Z" fill="#87513C"/>
<path d="M207.658 173.485H198.537V182.605H207.658V173.485Z" fill="#87513C"/>
<path d="M216.723 173.485H207.603V182.605H216.723V173.485Z" fill="#87513C"/>
<path d="M225.788 173.485H216.668V182.605H225.788V173.485Z" fill="#87513C"/>
<path d="M234.854 173.485H225.733V182.605H234.854V173.485Z" fill="#1EC141"/>
<path d="M243.92 173.485H234.8V182.605H243.92V173.485Z" fill="#1EC141"/>
<path d="M252.986 173.485H243.865V182.605H252.986V173.485Z" fill="#FDEAE0"/>
<path d="M262.051 173.485H252.931V182.605H262.051V173.485Z" fill="#6D3A2B"/>
<path d="M189.526 182.586H180.405V191.705H189.526V182.586Z" fill="black"/>
<path d="M189.471 182.586H180.351V191.705H189.471V182.586Z" fill="black"/>
<path d="M198.591 182.586H189.471V191.705H198.591V182.586Z" fill="#1EC141"/>
<path d="M207.658 182.586H198.537V191.705H207.658V182.586Z" fill="white"/>
<path d="M216.723 182.586H207.603V191.705H216.723V182.586Z" fill="white"/>
<path d="M225.788 182.586H216.668V191.705H225.788V182.586Z" fill="#1EC141"/>
<path d="M234.854 182.586H225.733V191.705H234.854V182.586Z" fill="#1EC141"/>
<path opacity="0.3" d="M243.92 182.586H234.8V191.705H243.92V182.586Z" fill="black"/>
<path d="M252.986 182.586H243.865V191.705H252.986V182.586Z" fill="#FDEAE0"/>
<path d="M262.051 182.586H252.931V191.705H262.051V182.586Z" fill="#FDEAE0"/>
<path opacity="0.3" d="M189.471 191.706H180.351V200.825H189.471V191.706Z" fill="black"/>
<path d="M198.591 191.688H189.471V200.807H198.591V191.688Z" fill="#1EC141"/>
<path d="M207.658 191.688H198.537V200.807H207.658V191.688Z" fill="white"/>
<path d="M216.723 191.688H207.603V200.807H216.723V191.688Z" fill="white"/>
<path d="M225.788 191.688H216.668V200.807H225.788V191.688Z" fill="#1EC141"/>
<path d="M234.854 191.688H225.733V200.807H234.854V191.688Z" fill="#1EC141"/>
<path d="M244.03 182.551H234.909V191.67H244.03V182.551Z" fill="black"/>
<path d="M244.03 173.485H234.909V182.605H244.03V173.485Z" fill="black"/>
<path d="M271.227 182.551H262.106V191.67H271.227V182.551Z" fill="#87513C"/>
<path d="M280.183 173.485H271.062V182.605H280.183V173.485Z" fill="#87513C"/>
<path d="M280.183 182.551H271.062V191.67H280.183V182.551Z" fill="#87513C"/>
<path d="M271.227 191.706H262.106V200.825H271.227V191.706Z" fill="#87513C"/>
<path d="M280.183 191.706H271.062V200.825H280.183V191.706Z" fill="#87513C"/>
<path d="M280.183 200.697H271.062V209.817H280.183V200.697Z" fill="#87513C"/>
<path d="M289.303 200.697H280.183V209.817H289.303V200.697Z" fill="#87513C"/>
<path d="M289.303 209.507H280.183V218.626H289.303V209.507Z" fill="#87513C"/>
<path d="M289.303 218.298H280.183V227.417H289.303V218.298Z" fill="#87513C"/>
<path d="M289.303 227.107H280.183V236.993H289.303V227.107Z" fill="#87513C"/>
<path d="M280.183 209.689H271.062V218.809H280.183V209.689Z" fill="#87513C"/>
<path d="M280.183 218.681H271.062V227.8H280.183V218.681Z" fill="#87513C"/>
<path d="M280.183 227.672H271.062V236.791H280.183V227.672Z" fill="#87513C"/>
<path d="M280.183 236.664H271.062V245.783H280.183V236.664Z" fill="#996758"/>
<path d="M289.303 236.664H280.183V245.783H289.303V236.664Z" fill="#87513C"/>
<path d="M289.303 245.656H280.183V254.776H289.303V245.656Z" fill="#87513C"/>
<path d="M280.183 245.674H271.062V254.793H280.183V245.674Z" fill="#996758"/>
<path opacity="0.3" d="M189.471 200.807H180.351V209.926H189.471V200.807Z" fill="black"/>
<path d="M198.591 200.807H189.471V209.926H198.591V200.807Z" fill="#1EC141"/>
<path d="M207.658 200.807H198.537V209.926H207.658V200.807Z" fill="#1EC141"/>
<path d="M216.723 200.807H207.603V209.926H216.723V200.807Z" fill="#1EC141"/>
<path d="M225.788 200.807H216.668V209.926H225.788V200.807Z" fill="#1EC141"/>
<path d="M234.854 200.807H225.733V209.926H234.854V200.807Z" fill="#1EC141"/>
<path d="M244.03 191.651H234.909V200.771H244.03V191.651Z" fill="black"/>
<path d="M253.095 191.651H243.975V200.771H253.095V191.651Z" fill="#FDEAE0"/>
<path d="M262.16 191.651H253.04V200.771H262.16V191.651Z" fill="#FDEAE0"/>
<path d="M271.227 191.651H262.106V200.771H271.227V191.651Z" fill="black"/>
<path d="M189.471 209.926H180.351V219.045H189.471V209.926Z" fill="black"/>
<path d="M198.591 209.908H189.471V219.028H198.591V209.908Z" fill="#FEE44D"/>
<path d="M207.658 209.908H198.537V219.028H207.658V209.908Z" fill="#FEE44D"/>
<path d="M216.723 209.908H207.603V219.028H216.723V209.908Z" fill="#FEE44D"/>
<path d="M225.788 209.908H216.668V219.028H225.788V209.908Z" fill="#FEE44D"/>
<path d="M234.854 209.908H225.733V219.028H234.854V209.908Z" fill="#FEE44D"/>
<path d="M244.03 200.771H234.909V209.89H244.03V200.771Z" fill="black"/>
<path d="M253.095 200.771H243.975V209.89H253.095V200.771Z" fill="#FDEAE0"/>
<path d="M262.16 200.771H253.04V209.89H262.16V200.771Z" fill="#FDEAE0"/>
<path d="M271.227 200.771H262.106V209.89H271.227V200.771Z" fill="black"/>
<path d="M198.574 219.027H189.453V228.147H198.574V219.027Z" fill="#FDEAE0"/>
<path d="M207.675 219.027H198.555V228.147H207.675V219.027Z" fill="#1EC141"/>
<path d="M225.807 219.027H216.687V228.147H225.807V219.027Z" fill="#1EC141"/>
<path d="M234.872 219.027H225.752V228.147H234.872V219.027Z" fill="black"/>
<path d="M243.938 219.027H234.817V228.147H243.938V219.027Z" fill="black"/>
<path d="M244.03 209.871H234.909V218.99H244.03V209.871Z" fill="#FDEAE0"/>
<path d="M253.095 209.871H243.975V218.99H253.095V209.871Z" fill="#FDEAE0"/>
<path d="M262.16 209.871H253.04V218.99H262.16V209.871Z" fill="#FDEAE0"/>
<path d="M271.227 209.871H262.106V218.99H271.227V209.871Z" fill="black"/>
<path d="M198.574 228.146H189.453V237.266H198.574V228.146Z" fill="#1EC141"/>
<path d="M207.675 228.129H198.555V237.248H207.675V228.129Z" fill="black"/>
<path d="M189.526 191.688H180.405V200.807H189.526V191.688Z" fill="black"/>
<path d="M189.526 200.807H180.405V209.926H189.526V200.807Z" fill="black"/>
<path d="M198.574 219.027H189.453V228.147H198.574V219.027Z" fill="#1EC141"/>
<path d="M216.742 228.129H207.621V237.248H216.742V228.129Z" fill="#76A8AC"/>
<path d="M225.807 228.129H216.687V237.248H225.807V228.129Z" fill="#1EC141"/>
<path d="M234.872 228.129H225.752V237.248H234.872V228.129Z" fill="#1EC141"/>
<path d="M243.938 228.129H234.817V237.248H243.938V228.129Z" fill="black"/>
<path d="M244.03 218.973H234.909V228.092H244.03V218.973Z" fill="#FDEAE0"/>
<path d="M253.095 218.973H243.975V228.092H253.095V218.973Z" fill="#FDEAE0"/>
<path d="M262.16 218.973H253.04V228.092H262.16V218.973Z" fill="#FDEAE0"/>
<path d="M271.227 218.973H262.106V228.092H271.227V218.973Z" fill="black"/>
<path d="M198.574 237.229H189.453V246.349H198.574V237.229Z" fill="#1EC141"/>
<path d="M207.675 237.229H198.555V246.349H207.675V237.229Z" fill="black"/>
<path d="M216.686 237.229H207.565V246.349H216.686V237.229Z" fill="#B59910"/>
<path d="M234.872 237.229H225.752V246.349H234.872V237.229Z" fill="#1EC141"/>
<path d="M243.938 237.229H234.817V246.349H243.938V237.229Z" fill="#1EC141"/>
<path d="M244.03 228.092H234.909V237.211H244.03V228.092Z" fill="black"/>
<path d="M253.095 228.092H243.975V237.211H253.095V228.092Z" fill="black"/>
<path d="M262.16 228.092H253.04V237.211H262.16V228.092Z" fill="black"/>
<path d="M253.004 237.229H243.884V246.349H253.004V237.229Z" fill="black"/>
<path d="M189.599 219.027H180.479V228.147H189.599V219.027Z" fill="#FDEAE0"/>
<path d="M189.599 228.146H180.479V237.266H189.599V228.146Z" fill="#1EC141"/>
<path d="M189.599 219.027H180.479V228.147H189.599V219.027Z" fill="#76A8AC"/>
<path d="M189.599 237.229H180.479V246.349H189.599V237.229Z" fill="#1EC141"/>
<path d="M180.515 237.229H171.395V246.349H180.515V237.229Z" fill="black"/>
<path d="M189.471 219.045H180.351V228.164H189.471V219.045Z" fill="black"/>
<path d="M180.515 228.146H171.395V237.266H180.515V228.146Z" fill="black"/>
<path d="M216.686 228.129H207.565V237.248H216.686V228.129Z" fill="black"/>
<path d="M144.197 127.926H135.076V137.045H144.197V127.926Z" fill="black"/>
<path d="M162.329 118.788H153.209V127.907H162.329V118.788Z" fill="#494442"/>
<path d="M162.329 109.65H153.209V118.77H162.329V109.65Z" fill="#494442"/>
<path d="M162.329 100.531H153.209V109.651H162.329V100.531Z" fill="black"/>
<path d="M171.394 118.788H162.273V127.907H171.394V118.788Z" fill="white"/>
<path d="M171.394 109.65H162.273V118.77H171.394V109.65Z" fill="white"/>
<path d="M171.394 100.531H162.273V109.651H171.394V100.531Z" fill="#D2C8C4"/>
<path d="M189.526 127.926H180.405V137.045H189.526V127.926Z" fill="#E1CCC2"/>
<path d="M189.526 118.788H180.405V127.907H189.526V118.788Z" fill="#E1CCC2"/>
<path d="M198.591 127.926H189.471V137.045H198.591V127.926Z" fill="#E1CCC2"/>
<path d="M225.788 118.788H216.668V127.907H225.788V118.788Z" fill="#494442"/>
<path d="M225.788 109.65H216.668V118.77H225.788V109.65Z" fill="#494442"/>
<path d="M225.788 100.531H216.668V109.651H225.788V100.531Z" fill="#494442"/>
<path d="M225.788 91.3936H216.668V100.513H225.788V91.3936Z" fill="black"/>
<path d="M234.854 118.788H225.733V127.907H234.854V118.788Z" fill="white"/>
<path d="M234.854 109.65H225.733V118.77H234.854V109.65Z" fill="white"/>
<path d="M234.854 100.531H225.733V109.651H234.854V100.531Z" fill="white"/>
<path d="M234.854 91.3936H225.733V100.513H234.854V91.3936Z" fill="#D2C8C4"/>
<path d="M243.92 109.65H234.8V118.77H243.92V109.65Z" fill="#FDEAE0"/>
<path d="M243.92 100.531H234.8V109.651H243.92V100.531Z" fill="#FDEAE0"/>
<path d="M280.183 109.65H271.062V118.77H280.183V109.65Z" fill="#E1CCC2"/>
<path d="M280.183 100.531H271.062V109.651H280.183V100.531Z" fill="#E1CCC2"/>
<path d="M198.591 146.164H189.471V155.283H198.591V146.164Z" fill="#494442"/>
<path d="M207.658 146.164H198.537V155.283H207.658V146.164Z" fill="#494442"/>
<path d="M153.245 127.926H144.125V137.045H153.245V127.926Z" fill="#FDEAE0"/>
<path d="M153.245 118.788H144.125V127.907H153.245V118.788Z" fill="#FDEAE0"/>
<path d="M153.245 109.65H144.125V118.77H153.245V109.65Z" fill="#FDEAE0"/>
<path d="M153.245 100.531H144.125V109.651H153.245V100.531Z" fill="#EED6CA"/>
<path d="M162.329 137.045H153.209V146.164H162.329V137.045Z" fill="#FDEAE0"/>
<path d="M162.329 127.926H153.209V137.045H162.329V127.926Z" fill="#FDEAE0"/>
<path d="M171.394 137.045H162.273V146.164H171.394V137.045Z" fill="#FDEAE0"/>
<path d="M171.394 127.926H162.273V137.045H171.394V127.926Z" fill="#FDEAE0"/>
<path d="M180.46 137.045H171.34V146.164H180.46V137.045Z" fill="#FDEAE0"/>
<path d="M180.46 127.926H171.34V137.045H180.46V127.926Z" fill="#FDEAE0"/>
<path d="M180.46 118.788H171.34V127.907H180.46V118.788Z" fill="#FDEAE0"/>
<path d="M180.46 109.65H171.34V118.77H180.46V109.65Z" fill="#FDEAE0"/>
<path d="M180.46 100.531H171.34V109.651H180.46V100.531Z" fill="#FDEAE0"/>
<path d="M180.46 91.3936H171.34V100.513H180.46V91.3936Z" fill="#EED6CA"/>
<path d="M189.526 137.045H180.405V146.164H189.526V137.045Z" fill="#FDEAE0"/>
<path d="M189.526 109.65H180.405V118.77H189.526V109.65Z" fill="#FDEAE0"/>
<path d="M189.526 100.531H180.405V109.651H189.526V100.531Z" fill="#FDEAE0"/>
<path d="M198.591 137.045H189.471V146.164H198.591V137.045Z" fill="#FDEAE0"/>
<path d="M198.591 118.788H189.471V127.907H198.591V118.788Z" fill="#FDEAE0"/>
<path d="M198.591 109.65H189.471V118.77H198.591V109.65Z" fill="#FDEAE0"/>
<path d="M198.591 100.531H189.471V109.651H198.591V100.531Z" fill="#FDEAE0"/>
<path d="M207.658 137.045H198.537V146.164H207.658V137.045Z" fill="#FDEAE0"/>
<path d="M207.658 127.926H198.537V137.045H207.658V127.926Z" fill="#FDEAE0"/>
<path d="M207.658 118.788H198.537V127.907H207.658V118.788Z" fill="#FDEAE0"/>
<path d="M207.658 109.65H198.537V118.77H207.658V109.65Z" fill="#FDEAE0"/>
<path d="M207.658 100.531H198.537V109.651H207.658V100.531Z" fill="#FDEAE0"/>
<path d="M207.658 91.3936H198.537V100.513H207.658V91.3936Z" fill="#EED6CA"/>
<path d="M216.723 137.045H207.603V146.164H216.723V137.045Z" fill="#FDEAE0"/>
<path d="M216.723 127.926H207.603V137.045H216.723V127.926Z" fill="#FDEAE0"/>
<path d="M216.723 118.788H207.603V127.907H216.723V118.788Z" fill="#FDEAE0"/>
<path d="M216.723 109.65H207.603V118.77H216.723V109.65Z" fill="#FDEAE0"/>
<path d="M216.723 100.531H207.603V109.651H216.723V100.531Z" fill="#FDEAE0"/>
<path d="M216.723 91.3936H207.603V100.513H216.723V91.3936Z" fill="#FDEAE0"/>
<path d="M225.788 137.045H216.668V146.164H225.788V137.045Z" fill="#FDEAE0"/>
<path d="M225.788 127.926H216.668V137.045H225.788V127.926Z" fill="#FDEAE0"/>
<path d="M234.854 137.045H225.733V146.164H234.854V137.045Z" fill="#FDEAE0"/>
<path d="M234.854 127.926H225.733V137.045H234.854V127.926Z" fill="#FDEAE0"/>
<path d="M243.92 137.045H234.8V146.164H243.92V137.045Z" fill="#FDEAE0"/>
<path d="M243.92 127.926H234.8V137.045H243.92V127.926Z" fill="#FDEAE0"/>
<path d="M243.92 118.788H234.8V127.907H243.92V118.788Z" fill="#FDEAE0"/>
<path d="M252.986 137.045H243.865V146.164H252.986V137.045Z" fill="#EED6CA"/>
<path d="M252.986 127.926H243.865V137.045H252.986V127.926Z" fill="#FDEAE0"/>
<path d="M252.986 118.788H243.865V127.907H252.986V118.788Z" fill="#FDEAE0"/>
<path d="M252.986 109.65H243.865V118.77H252.986V109.65Z" fill="#FDEAE0"/>
<path d="M252.986 100.531H243.865V109.651H252.986V100.531Z" fill="#FDEAE0"/>
<path d="M252.986 91.3936H243.865V100.513H252.986V91.3936Z" fill="#EED6CA"/>
<path d="M262.051 127.926H252.931V137.045H262.051V127.926Z" fill="#EED6CA"/>
<path d="M262.051 118.788H252.931V127.907H262.051V118.788Z" fill="#FDEAE0"/>
<path d="M262.051 109.65H252.931V118.77H262.051V109.65Z" fill="#FDEAE0"/>
<path d="M262.051 100.531H252.931V109.651H262.051V100.531Z" fill="#FDEAE0"/>
<path d="M271.117 118.788H261.996V127.907H271.117V118.788Z" fill="#FDEAE0"/>
<path d="M271.117 109.65H261.996V118.77H271.117V109.65Z" fill="#FDEAE0"/>
<path d="M280.183 118.788H271.062V127.907H280.183V118.788Z" fill="#FDEAE0"/>
<path d="M289.248 118.788H280.128V127.907H289.248V118.788Z" fill="#FDEAE0"/>
<path d="M289.248 109.65H280.128V118.77H289.248V109.65Z" fill="#FDEAE0"/>
<path d="M289.248 100.531H280.128V109.651H289.248V100.531Z" fill="#FDEAE0"/>
<path d="M289.248 91.3936H280.128V100.513H289.248V91.3936Z" fill="#FDEAE0"/>
<path d="M171.394 146.164H162.273V155.283H171.394V146.164Z" fill="#FDEAE0"/>
<path d="M180.46 146.164H171.34V155.283H180.46V146.164Z" fill="#FDEAE0"/>
<path d="M189.526 146.164H180.405V155.283H189.526V146.164Z" fill="#FDEAE0"/>
<path d="M216.723 146.164H207.603V155.283H216.723V146.164Z" fill="#FDEAE0"/>
<path d="M225.788 146.164H216.668V155.283H225.788V146.164Z" fill="#FDEAE0"/>
<path d="M234.854 146.164H225.733V155.283H234.854V146.164Z" fill="#EED6CA"/>
<path d="M243.92 146.164H234.8V155.283H243.92V146.164Z" fill="#EED6CA"/>
<path d="M189.526 155.266H180.405V164.385H189.526V155.266Z" fill="#EED6CA"/>
<path d="M198.591 155.266H189.471V164.385H198.591V155.266Z" fill="#EED6CA"/>
<path d="M207.658 155.266H198.537V164.385H207.658V155.266Z" fill="#EED6CA"/>
<path d="M216.723 155.266H207.603V164.385H216.723V155.266Z" fill="#EED6CA"/>
<path d="M225.788 155.266H216.668V164.385H225.788V155.266Z" fill="#EED6CA"/>
<path d="M144.197 118.788H135.076V127.907H144.197V118.788Z" fill="black"/>
<path d="M144.197 109.65H135.076V118.77H144.197V109.65Z" fill="black"/>
<path d="M144.197 100.531H135.076V109.651H144.197V100.531Z" fill="black"/>
<path d="M144.197 91.3936H135.076V100.513H144.197V91.3936Z" fill="#4C3510"/>
<path d="M144.197 82.2744H135.076V91.3937H144.197V82.2744Z" fill="black"/>
<path d="M135.058 82.2744H125.938V91.3937H135.058V82.2744Z" fill="black"/>
<path d="M216.723 82.2744H207.603V91.3937H216.723V82.2744Z" fill="#EED6CA"/>
<path d="M153.245 82.2744H144.125V91.3937H153.245V82.2744Z" fill="#4C3510"/>
<path d="M162.329 82.2744H153.209V91.3937H162.329V82.2744Z" fill="#4C3510"/>
<path d="M171.394 82.2744H162.273V91.3937H171.394V82.2744Z" fill="#4C3510"/>
<path d="M189.526 82.2744H180.405V91.3937H189.526V82.2744Z" fill="#4C3510"/>
<path d="M198.591 82.2744H189.471V91.3937H198.591V82.2744Z" fill="#4C3510"/>
<path d="M243.92 82.2744H234.8V91.3937H243.92V82.2744Z" fill="#4C3510"/>
<path d="M262.051 82.2744H252.931V91.3937H262.051V82.2744Z" fill="#4C3510"/>
<path d="M271.117 91.3936H261.996V100.513H271.117V91.3936Z" fill="#4C3510"/>
<path d="M271.117 82.2744H261.996V91.3937H271.117V82.2744Z" fill="#4C3510"/>
<path d="M280.183 82.2744H271.062V91.3937H280.183V82.2744Z" fill="#4C3510"/>
<path d="M298.314 118.788H289.193V127.907H298.314V118.788Z" fill="black"/>
<path d="M298.314 109.65H289.193V118.77H298.314V109.65Z" fill="black"/>
<path d="M298.314 100.531H289.193V109.651H298.314V100.531Z" fill="black"/>
<path d="M162.419 200.789H153.299V209.908H162.419V200.789Z" fill="#E2C430"/>
<path d="M153.519 182.531H144.398V191.651H153.519V182.531Z" fill="#E2C430"/>
<path d="M144.38 182.514H135.26V191.633H144.38V182.514Z" fill="#E2C430"/>
<path d="M162.419 209.908H153.299V219.028H162.419V209.908Z" fill="#FDEAE0"/>
<path d="M153.519 209.908H144.398V219.028H153.519V209.908Z" fill="#FDEAE0"/>
<path d="M126.413 164.238H117.293V173.358H126.413V164.238Z" fill="#E2C430"/>
<path d="M117.511 155.138H108.391V164.257H117.511V155.138Z" fill="#E2C430"/>
<path d="M108.372 145.982H99.252V155.102H108.372V145.982Z" fill="#E2C430"/>
<path d="M135.386 173.376H126.266V182.495H135.386V173.376Z" fill="#E2C430"/>
<path d="M90.2962 128.126H81.1758V137.245H90.2962V128.126Z" fill="#E2C430"/>
<path d="M81.3763 119.007H72.2559V128.126H81.3763V119.007Z" fill="#E2C430"/>
<path d="M72.2552 109.852H63.1348V118.971H72.2552V109.852Z" fill="#E2C430"/>
<path d="M99.2513 137.246H90.1309V146.365H99.2513V137.246Z" fill="#E2C430"/>
<path d="M54.1614 91.9961H45.041V101.115H54.1614V91.9961Z" fill="#E2C430"/>
<path d="M63.136 101.133H54.0156V110.252H63.136V101.133Z" fill="#E2C430"/>
<path d="M153.519 200.807H144.398V209.926H153.519V200.807Z" fill="#FDEAE0"/>
<path d="M144.38 191.633H135.26V200.752H144.38V191.633Z" fill="#E2C430"/>
<path d="M153.245 18.2568H144.125V27.3761H153.245V18.2568Z" fill="black"/>
<path d="M162.329 9.1377H153.209V18.257H162.329V9.1377Z" fill="black"/>
<path d="M171.394 0H162.273V9.1193H171.394V0Z" fill="black"/>
<path d="M180.46 0H171.34V9.1193H180.46V0Z" fill="black"/>
<path d="M189.526 0H180.405V9.1193H189.526V0Z" fill="black"/>
<path d="M198.591 0H189.471V9.1193H198.591V0Z" fill="black"/>
<path d="M207.658 0H198.537V9.1193H207.658V0Z" fill="black"/>
<path d="M216.723 82.165H207.603V91.2843H216.723V82.165Z" fill="black"/>
<path d="M216.723 0H207.603V9.1193H216.723V0Z" fill="black"/>
<path d="M225.788 0H216.668V9.1193H225.788V0Z" fill="black"/>
<path d="M225.788 9.1377H216.668V18.257H225.788V9.1377Z" fill="#FEE44D"/>
<path d="M234.854 0H225.733V9.1193H234.854V0Z" fill="black"/>
<path d="M243.92 0H234.8V9.1193H243.92V0Z" fill="black"/>
<path d="M252.986 0H243.865V9.1193H252.986V0Z" fill="black"/>
<path d="M262.051 0H252.931V9.1193H262.051V0Z" fill="black"/>
<path d="M271.117 9.1377H261.996V18.257H271.117V9.1377Z" fill="black"/>
<path d="M280.183 9.1377H271.062V18.257H280.183V9.1377Z" fill="black"/>
<path d="M289.248 9.1377H280.128V18.257H289.248V9.1377Z" fill="black"/>
<path d="M298.314 9.1377H289.193V18.257H298.314V9.1377Z" fill="black"/>
<path d="M298.314 18.2568H289.193V27.3761H298.314V18.2568Z" fill="#FAFCFD"/>
<path d="M307.452 9.1377H298.332V18.257H307.452V9.1377Z" fill="black"/>
<path d="M307.452 18.2568H298.332V27.3761H307.452V18.2568Z" fill="black"/>
<path d="M298.314 27.3945H289.193V36.5138H298.314V27.3945Z" fill="black"/>
<path d="M307.452 27.3945H298.332V36.5138H307.452V27.3945Z" fill="black"/>
<path d="M280.183 18.2568H271.062V27.3761H280.183V18.2568Z" fill="#FAFCFD"/>
<path d="M289.248 82.165H280.128V91.2843H289.248V82.165Z" fill="black"/>
<path d="M298.314 82.165H289.193V91.2843H298.314V82.165Z" fill="black"/>
<path d="M289.248 27.3945H280.128V36.5138H289.248V27.3945Z" fill="#F0BA34"/>
<path d="M289.248 18.2568H280.128V27.3761H289.248V18.2568Z" fill="#FAFCFD"/>
<path d="M153.245 82.165H144.125V91.2843H153.245V82.165Z" fill="black"/>
<path d="M153.245 73.0273H144.125V82.1466H153.245V73.0273Z" fill="#1D9837"/>
<path d="M153.245 63.9082H144.125V73.0275H153.245V63.9082Z" fill="#FEE44D"/>
<path d="M153.245 54.7705H144.125V63.8898H153.245V54.7705Z" fill="#FEE44D"/>
<path d="M153.245 45.6514H144.125V54.7707H153.245V45.6514Z" fill="#FEE44D"/>
<path d="M153.245 36.5137H144.125V45.633H153.245V36.5137Z" fill="#FEE44D"/>
<path d="M153.245 27.3945H144.125V36.5138H153.245V27.3945Z" fill="#FEE44D"/>
<path d="M162.329 82.165H153.209V91.2843H162.329V82.165Z" fill="black"/>
<path d="M162.329 73.0273H153.209V82.1466H162.329V73.0273Z" fill="#1D9837"/>
<path d="M162.329 63.9082H153.209V73.0275H162.329V63.9082Z" fill="#FEE44D"/>
<path d="M162.329 54.7705H153.209V63.8898H162.329V54.7705Z" fill="#FEE44D"/>
<path d="M162.329 45.6514H153.209V54.7707H162.329V45.6514Z" fill="#FEE44D"/>
<path d="M162.329 36.5137H153.209V45.633H162.329V36.5137Z" fill="#FEE44D"/>
<path d="M162.329 27.3945H153.209V36.5138H162.329V27.3945Z" fill="#FEE44D"/>
<path d="M162.329 18.2568H153.209V27.3761H162.329V18.2568Z" fill="#FEE44D"/>
<path d="M171.394 82.165H162.273V91.2843H171.394V82.165Z" fill="black"/>
<path d="M171.394 73.0273H162.273V82.1466H171.394V73.0273Z" fill="#1D9837"/>
<path d="M171.394 63.9082H162.273V73.0275H171.394V63.9082Z" fill="#FEE44D"/>
<path d="M171.394 54.7705H162.273V63.8898H171.394V54.7705Z" fill="#FEE44D"/>
<path d="M171.394 45.6514H162.273V54.7707H171.394V45.6514Z" fill="#FEE44D"/>
<path d="M171.394 36.5137H162.273V45.633H171.394V36.5137Z" fill="#FEE44D"/>
<path d="M171.394 27.3945H162.273V36.5138H171.394V27.3945Z" fill="#FEE44D"/>
<path d="M171.394 18.2568H162.273V27.3761H171.394V18.2568Z" fill="#FEE44D"/>
<path d="M171.394 9.1377H162.273V18.257H171.394V9.1377Z" fill="#FEE44D"/>
<path d="M180.46 82.165H171.34V91.2843H180.46V82.165Z" fill="black"/>
<path d="M180.46 73.0273H171.34V82.1466H180.46V73.0273Z" fill="#1D9837"/>
<path d="M180.46 63.9082H171.34V73.0275H180.46V63.9082Z" fill="#FEE44D"/>
<path d="M180.46 54.7705H171.34V63.8898H180.46V54.7705Z" fill="#FEE44D"/>
<path d="M180.46 45.6514H171.34V54.7707H180.46V45.6514Z" fill="#FEE44D"/>
<path d="M180.46 36.5137H171.34V45.633H180.46V36.5137Z" fill="#FEE44D"/>
<path d="M180.46 27.3945H171.34V36.5138H180.46V27.3945Z" fill="#FEE44D"/>
<path d="M180.46 18.2568H171.34V27.3761H180.46V18.2568Z" fill="#FEE44D"/>
<path d="M180.46 9.1377H171.34V18.257H180.46V9.1377Z" fill="#FEE44D"/>
<path d="M189.526 82.165H180.405V91.2843H189.526V82.165Z" fill="black"/>
<path d="M189.526 73.0273H180.405V82.1466H189.526V73.0273Z" fill="#1D9837"/>
<path d="M189.526 63.9082H180.405V73.0275H189.526V63.9082Z" fill="#FEE44D"/>
<path d="M189.526 54.7705H180.405V63.8898H189.526V54.7705Z" fill="#FEE44D"/>
<path d="M189.526 45.6514H180.405V54.7707H189.526V45.6514Z" fill="#FEE44D"/>
<path d="M189.526 36.5137H180.405V45.633H189.526V36.5137Z" fill="#FEE44D"/>
<path d="M189.526 27.3945H180.405V36.5138H189.526V27.3945Z" fill="#FEE44D"/>
<path d="M189.526 18.2568H180.405V27.3761H189.526V18.2568Z" fill="#FEE44D"/>
<path d="M189.526 9.1377H180.405V18.257H189.526V9.1377Z" fill="#FEE44D"/>
<path d="M198.591 82.165H189.471V91.2843H198.591V82.165Z" fill="black"/>
<path d="M198.591 73.0273H189.471V82.1466H198.591V73.0273Z" fill="#1D9837"/>
<path d="M198.591 63.9082H189.471V73.0275H198.591V63.9082Z" fill="#FEE44D"/>
<path d="M198.591 54.7705H189.471V63.8898H198.591V54.7705Z" fill="#FEE44D"/>
<path d="M198.591 45.6514H189.471V54.7707H198.591V45.6514Z" fill="#FEE44D"/>
<path d="M198.591 36.5137H189.471V45.633H198.591V36.5137Z" fill="#FEE44D"/>
<path d="M198.591 27.3945H189.471V36.5138H198.591V27.3945Z" fill="#FEE44D"/>
<path d="M198.591 18.2568H189.471V27.3761H198.591V18.2568Z" fill="#FEE44D"/>
<path d="M198.591 9.1377H189.471V18.257H198.591V9.1377Z" fill="#FEE44D"/>
<path d="M207.658 82.165H198.537V91.2843H207.658V82.165Z" fill="black"/>
<path d="M207.658 73.0273H198.537V82.1466H207.658V73.0273Z" fill="#1D9837"/>
<path d="M207.658 63.9082H198.537V73.0275H207.658V63.9082Z" fill="#FEE44D"/>
<path d="M207.658 54.7705H198.537V63.8898H207.658V54.7705Z" fill="#FEE44D"/>
<path d="M207.658 45.6514H198.537V54.7707H207.658V45.6514Z" fill="#FEE44D"/>
<path d="M207.658 36.5137H198.537V45.633H207.658V36.5137Z" fill="#FEE44D"/>
<path d="M207.658 27.3945H198.537V36.5138H207.658V27.3945Z" fill="#FEE44D"/>
<path d="M207.658 18.2568H198.537V27.3761H207.658V18.2568Z" fill="#FEE44D"/>
<path d="M207.658 9.1377H198.537V18.257H207.658V9.1377Z" fill="#FEE44D"/>
<path d="M216.723 73.0273H207.603V82.1466H216.723V73.0273Z" fill="#1D9837"/>
<path d="M216.723 63.9082H207.603V73.0275H216.723V63.9082Z" fill="#FEE44D"/>
<path d="M216.723 54.7705H207.603V63.8898H216.723V54.7705Z" fill="#FEE44D"/>
<path d="M216.723 45.6514H207.603V54.7707H216.723V45.6514Z" fill="#FEE44D"/>
<path d="M216.723 36.5137H207.603V45.633H216.723V36.5137Z" fill="#FEE44D"/>
<path d="M216.723 27.3945H207.603V36.5138H216.723V27.3945Z" fill="#FEE44D"/>
<path d="M216.723 18.2568H207.603V27.3761H216.723V18.2568Z" fill="#FEE44D"/>
<path d="M216.723 9.1377H207.603V18.257H216.723V9.1377Z" fill="#F5C435"/>
<path d="M225.788 82.165H216.668V91.2843H225.788V82.165Z" fill="black"/>
<path d="M225.788 73.0273H216.668V82.1466H225.788V73.0273Z" fill="#1D9837"/>
<path d="M225.788 63.9082H216.668V73.0275H225.788V63.9082Z" fill="#FEE44D"/>
<path d="M225.788 54.7705H216.668V63.8898H225.788V54.7705Z" fill="#FEE44D"/>
<path d="M225.788 45.6514H216.668V54.7707H225.788V45.6514Z" fill="#FEE44D"/>
<path d="M225.788 36.5137H216.668V45.633H225.788V36.5137Z" fill="#FEE44D"/>
<path d="M225.788 27.3945H216.668V36.5138H225.788V27.3945Z" fill="#FEE44D"/>
<path d="M225.788 18.2568H216.668V27.3761H225.788V18.2568Z" fill="#FEE44D"/>
<path d="M234.854 82.165H225.733V91.2843H234.854V82.165Z" fill="black"/>
<path d="M234.854 73.0273H225.733V82.1466H234.854V73.0273Z" fill="#1D9837"/>
<path d="M234.854 63.9082H225.733V73.0275H234.854V63.9082Z" fill="#FEE44D"/>
<path d="M234.854 54.7705H225.733V63.8898H234.854V54.7705Z" fill="#FEE44D"/>
<path d="M234.854 45.6514H225.733V54.7707H234.854V45.6514Z" fill="#F0BA34"/>
<path d="M234.854 36.5137H225.733V45.633H234.854V36.5137Z" fill="#FAFCFD"/>
<path d="M234.854 27.3945H225.733V36.5138H234.854V27.3945Z" fill="#FAFCFD"/>
<path d="M234.854 18.2568H225.733V27.3761H234.854V18.2568Z" fill="#FAFCFD"/>
<path d="M234.854 9.1377H225.733V18.257H234.854V9.1377Z" fill="#FEE44D"/>
<path d="M243.92 82.165H234.8V91.2843H243.92V82.165Z" fill="black"/>
<path d="M243.92 73.0273H234.8V82.1466H243.92V73.0273Z" fill="#1D9837"/>
<path d="M243.92 63.9082H234.8V73.0275H243.92V63.9082Z" fill="#FEE44D"/>
<path d="M243.92 54.7705H234.8V63.8898H243.92V54.7705Z" fill="#FEE44D"/>
<path d="M243.92 45.6514H234.8V54.7707H243.92V45.6514Z" fill="#F0BA34"/>
<path d="M243.92 36.5137H234.8V45.633H243.92V36.5137Z" fill="#FAFCFD"/>
<path d="M243.92 27.3945H234.8V36.5138H243.92V27.3945Z" fill="#FAFCFD"/>
<path d="M243.92 18.2568H234.8V27.3761H243.92V18.2568Z" fill="#FAFCFD"/>
<path d="M243.92 9.1377H234.8V18.257H243.92V9.1377Z" fill="#FEE44D"/>
<path d="M252.986 82.165H243.865V91.2843H252.986V82.165Z" fill="black"/>
<path d="M252.986 73.0273H243.865V82.1466H252.986V73.0273Z" fill="#1D9837"/>
<path d="M252.986 63.9082H243.865V73.0275H252.986V63.9082Z" fill="#FEE44D"/>
<path d="M252.986 54.7705H243.865V63.8898H252.986V54.7705Z" fill="#FEE44D"/>
<path d="M252.986 45.6514H243.865V54.7707H252.986V45.6514Z" fill="#F0BA34"/>
<path d="M252.986 36.5137H243.865V45.633H252.986V36.5137Z" fill="#FAFCFD"/>
<path d="M252.986 27.3945H243.865V36.5138H252.986V27.3945Z" fill="#FAFCFD"/>
<path d="M252.986 18.2568H243.865V27.3761H252.986V18.2568Z" fill="#FAFCFD"/>
<path d="M252.986 9.1377H243.865V18.257H252.986V9.1377Z" fill="#FEE44D"/>
<path d="M262.051 82.165H252.931V91.2843H262.051V82.165Z" fill="black"/>
<path d="M262.051 73.0273H252.931V82.1466H262.051V73.0273Z" fill="#1D9837"/>
<path d="M262.051 63.9082H252.931V73.0275H262.051V63.9082Z" fill="#FEE44D"/>
<path d="M262.051 54.7705H252.931V63.8898H262.051V54.7705Z" fill="#FEE44D"/>
<path d="M262.051 45.6514H252.931V54.7707H262.051V45.6514Z" fill="#F0BA34"/>
<path d="M262.051 36.5137H252.931V45.633H262.051V36.5137Z" fill="#FAFCFD"/>
<path d="M262.051 27.3945H252.931V36.5138H262.051V27.3945Z" fill="#FAFCFD"/>
<path d="M262.051 18.2568H252.931V27.3761H262.051V18.2568Z" fill="#FAFCFD"/>
<path d="M262.051 9.1377H252.931V18.257H262.051V9.1377Z" fill="#FEE44D"/>
<path d="M271.117 82.165H261.996V91.2843H271.117V82.165Z" fill="black"/>
<path d="M271.117 73.0273H261.996V82.1466H271.117V73.0273Z" fill="#1D9837"/>
<path d="M271.117 63.9082H261.996V73.0275H271.117V63.9082Z" fill="#FEE44D"/>
<path d="M271.117 54.7705H261.996V63.8898H271.117V54.7705Z" fill="#FEE44D"/>
<path d="M271.117 45.6514H261.996V54.7707H271.117V45.6514Z" fill="#F0BA34"/>
<path d="M271.117 36.5137H261.996V45.633H271.117V36.5137Z" fill="#FAFCFD"/>
<path d="M271.117 27.3945H261.996V36.5138H271.117V27.3945Z" fill="#FAFCFD"/>
<path d="M271.117 18.2568H261.996V27.3761H271.117V18.2568Z" fill="#FAFCFD"/>
<path d="M280.183 82.165H271.062V91.2843H280.183V82.165Z" fill="black"/>
<path d="M280.183 73.0273H271.062V82.1466H280.183V73.0273Z" fill="#1D9837"/>
<path d="M280.183 63.9082H271.062V73.0275H280.183V63.9082Z" fill="#FEE44D"/>
<path d="M280.183 54.7705H271.062V63.8898H280.183V54.7705Z" fill="#FEE44D"/>
<path d="M280.183 45.6514H271.062V54.7707H280.183V45.6514Z" fill="#F0BA34"/>
<path d="M280.183 36.5137H271.062V45.633H280.183V36.5137Z" fill="#F0BA34"/>
<path d="M280.183 27.3945H271.062V36.5138H280.183V27.3945Z" fill="#FAFCFD"/>
<path d="M289.248 73.0273H280.128V82.1466H289.248V73.0273Z" fill="#1D9837"/>
<path d="M289.248 63.9082H280.128V73.0275H289.248V63.9082Z" fill="#FEE44D"/>
<path d="M289.248 54.7705H280.128V63.8898H289.248V54.7705Z" fill="#FEE44D"/>
<path d="M289.248 45.6514H280.128V54.7707H289.248V45.6514Z" fill="#FEE44D"/>
<path d="M289.248 36.5137H280.128V45.633H289.248V36.5137Z" fill="#F0BA34"/>
<path d="M144.197 82.165H135.076V91.2843H144.197V82.165Z" fill="black"/>
<path d="M144.197 73.0273H135.076V82.1466H144.197V73.0273Z" fill="#1D9837"/>
<path d="M144.197 63.9082H135.076V73.0275H144.197V63.9082Z" fill="#FEE44D"/>
<path d="M144.197 54.7705H135.076V63.8898H144.197V54.7705Z" fill="#FEE44D"/>
<path d="M144.197 45.6514H135.076V54.7707H144.197V45.6514Z" fill="#FEE44D"/>
<path d="M144.197 36.5137H135.076V45.633H144.197V36.5137Z" fill="#FEE44D"/>
<path d="M144.197 27.3945H135.076V36.5138H144.197V27.3945Z" fill="black"/>
<path d="M135.132 82.165H126.012V91.2843H135.132V82.165Z" fill="black"/>
<path d="M135.132 73.0273H126.012V82.1466H135.132V73.0273Z" fill="#1D9837"/>
<path d="M126.011 82.165H116.891V91.2843H126.011V82.165Z" fill="black"/>
<path d="M126.011 73.0273H116.891V82.1466H126.011V73.0273Z" fill="#1D9837"/>
<path d="M116.89 82.165H107.77V91.2843H116.89V82.165Z" fill="black"/>
<path d="M116.89 73.0273H107.77V82.1466H116.89V73.0273Z" fill="#1D9837"/>
<path d="M107.771 82.165H98.6504V91.2843H107.771V82.165Z" fill="black"/>
<path d="M107.771 73.0273H98.6504V82.1466H107.771V73.0273Z" fill="#1D9837"/>
<path d="M98.6497 82.165H89.5293V91.2843H98.6497V82.165Z" fill="black"/>
<path d="M126.011 63.9258H116.891V73.0451H126.011V63.9258Z" fill="black"/>
<path d="M116.89 63.9258H107.77V73.0451H116.89V63.9258Z" fill="black"/>
<path d="M107.771 63.9258H98.6504V73.0451H107.771V63.9258Z" fill="black"/>
<path d="M98.6497 73.0645H89.5293V82.1838H98.6497V73.0645Z" fill="black"/>
<path d="M135.132 63.9082H126.012V73.0275H135.132V63.9082Z" fill="black"/>
<path d="M135.132 54.7705H126.012V63.8898H135.132V54.7705Z" fill="black"/>
<path d="M135.132 45.6514H126.012V54.7707H135.132V45.6514Z" fill="black"/>
<path d="M135.132 36.5137H126.012V45.633H135.132V36.5137Z" fill="black"/>
<path d="M298.314 73.0273H289.193V82.1466H298.314V73.0273Z" fill="black"/>
<path d="M298.314 63.9082H289.193V73.0275H298.314V63.9082Z" fill="black"/>
<path d="M298.314 54.7705H289.193V63.8898H298.314V54.7705Z" fill="black"/>
<path d="M298.314 45.6514H289.193V54.7707H298.314V45.6514Z" fill="black"/>
<path d="M298.314 36.5137H289.193V45.633H298.314V36.5137Z" fill="black"/>
<path d="M216.742 219.027H207.621V228.147H216.742V219.027Z" fill="black"/>
<path d="M225.807 237.229H216.687V246.349H225.807V237.229Z" fill="black"/>
<path d="M180.478 246.568H189.599V237.449H180.478V246.568Z" fill="black"/>
<path d="M171.413 246.568H180.533V237.449H171.413V246.568Z" fill="black"/>
<path d="M343.916 237.211H334.796V246.33H343.916V237.211Z" fill="black"/>
<path d="M325.712 237.211H316.592V246.33H325.712V237.211Z" fill="#F0BA34"/>
<path d="M334.832 237.211H325.712V246.33H334.832V237.211Z" fill="black"/>
<path d="M307.58 237.211H298.46V246.33H307.58V237.211Z" fill="#FAFCFD"/>
<path d="M316.646 237.211H307.525V246.33H316.646V237.211Z" fill="#FAFCFD"/>
<path d="M262.234 237.211H253.113V246.33H262.234V237.211Z" fill="#FAFCFD"/>
<path d="M271.299 237.211H262.179V246.33H271.299V237.211Z" fill="#FAFCFD"/>
<path d="M280.365 237.211H271.244V246.33H280.365V237.211Z" fill="#FAFCFD"/>
<path d="M289.431 237.211H280.311V246.33H289.431V237.211Z" fill="#FAFCFD"/>
<path d="M298.496 237.211H289.376V246.33H298.496V237.211Z" fill="#FAFCFD"/>
<path d="M325.712 228.129H316.592V237.248H325.712V228.129Z" fill="#FAFCFD"/>
<path d="M334.832 228.129H325.712V237.248H334.832V228.129Z" fill="#F0BA34"/>
<path d="M343.916 228.129H334.796V237.248H343.916V228.129Z" fill="black"/>
<path d="M307.58 228.129H298.46V237.248H307.58V228.129Z" fill="#FAFCFD"/>
<path d="M316.646 228.129H307.525V237.248H316.646V228.129Z" fill="#FAFCFD"/>
<path d="M262.234 228.129H253.113V237.248H262.234V228.129Z" fill="#FAFCFD"/>
<path d="M253.114 237.211H243.993V246.33H253.114V237.211Z" fill="black"/>
<path d="M253.114 228.129H243.993V237.248H253.114V228.129Z" fill="black"/>
<path d="M271.299 228.129H262.179V237.248H271.299V228.129Z" fill="#FAFCFD"/>
<path d="M280.365 228.129H271.244V237.248H280.365V228.129Z" fill="#FAFCFD"/>
<path d="M289.431 228.129H280.311V237.248H289.431V228.129Z" fill="#FAFCFD"/>
<path d="M353 228.129H343.88V237.248H353V228.129Z" fill="black"/>
<path d="M298.496 228.129H289.376V237.248H298.496V228.129Z" fill="#FAFCFD"/>
<path d="M325.712 219.1H316.592V228.219H325.712V219.1Z" fill="black"/>
<path d="M334.832 219.1H325.712V228.219H334.832V219.1Z" fill="black"/>
<path d="M343.916 219.1H334.796V228.219H343.916V219.1Z" fill="black"/>
<path d="M307.58 219.1H298.46V228.219H307.58V219.1Z" fill="black"/>
<path d="M316.646 219.1H307.525V228.219H316.646V219.1Z" fill="black"/>
<path d="M262.234 219.1H253.113V228.219H262.234V219.1Z" fill="black"/>
<path d="M253.114 219.1H243.993V228.219H253.114V219.1Z" fill="black"/>
<path d="M271.299 219.1H262.179V228.219H271.299V219.1Z" fill="black"/>
<path d="M280.365 219.1H271.244V228.219H280.365V219.1Z" fill="black"/>
<path d="M289.431 219.1H280.311V228.219H289.431V219.1Z" fill="black"/>
<path d="M298.496 219.1H289.376V228.219H298.496V219.1Z" fill="black"/>
<path d="M280.438 243.723H271.317V246.458H280.438V243.723Z" fill="#D3E0E5"/>
<path d="M289.503 243.723H280.383V246.458H289.503V243.723Z" fill="#D3E0E5"/>
<path d="M298.57 243.723H289.449V246.458H298.57V243.723Z" fill="#D3E0E5"/>
<path d="M307.635 243.723H298.515V246.458H307.635V243.723Z" fill="#D3E0E5"/>
<path d="M289.486 234.566H280.365V237.302H289.486V234.566Z" fill="#D3E0E5"/>
<path d="M298.551 234.566H289.431V237.302H298.551V234.566Z" fill="#D3E0E5"/>
<path d="M307.617 234.566H298.496V237.302H307.617V234.566Z" fill="#D3E0E5"/>
<path d="M316.683 234.566H307.562V237.302H316.683V234.566Z" fill="#D3E0E5"/>
<path d="M228.835 195.208V189.08H222.761V195.208H228.835Z" fill="black"/>
<path d="M234.891 195.208V189.08H228.816V195.208H234.891Z" fill="black"/>
<path d="M240.965 195.208V189.08H234.891V195.208H240.965Z" fill="black"/>
<path d="M247.039 195.208V189.08H240.965V195.208H247.039Z" fill="black"/>
<path d="M253.095 195.208V189.08H247.021V195.208H253.095Z" fill="black"/>
<path d="M259.169 195.208V189.08H253.095V195.208H259.169Z" fill="black"/>
<path d="M265.243 195.208V189.08H259.169V195.208H265.243Z" fill="black"/>
<path d="M222.742 201.263V195.135H216.668V201.263H222.742Z" fill="black"/>
<path d="M228.816 201.263V195.135H222.742V201.263H228.816Z" fill="#1EC141"/>
<path d="M234.872 201.263V195.135H228.798V201.263H234.872Z" fill="#1EC141"/>
<path d="M240.946 201.263V195.135H234.872V201.263H240.946Z" fill="#1EC141"/>
<path d="M247.021 201.263V195.135H240.946V201.263H247.021Z" fill="#1EC141"/>
<path d="M253.077 201.263V195.135H247.003V201.263H253.077Z" fill="#1EC141"/>
<path d="M259.151 201.263V195.135H253.077V201.263H259.151Z" fill="#1EC141"/>
<path d="M265.226 201.263V195.135H259.151V201.263H265.226Z" fill="#1EC141"/>
<path d="M271.281 201.263V195.135H265.207V201.263H271.281Z" fill="#1EC141"/>
<path d="M222.742 207.318V201.189H216.668V207.318H222.742Z" fill="black"/>
<path d="M228.816 207.318V201.189H222.742V207.318H228.816Z" fill="#1EC141"/>
<path d="M234.872 207.318V201.189H228.798V207.318H234.872Z" fill="#1EC141"/>
<path d="M240.946 207.318V201.189H234.872V207.318H240.946Z" fill="#1EC141"/>
<path d="M247.021 207.318V201.189H240.946V207.318H247.021Z" fill="#1EC141"/>
<path d="M253.077 207.318V201.189H247.003V207.318H253.077Z" fill="#1EC141"/>
<path d="M259.151 207.318V201.189H253.077V207.318H259.151Z" fill="#1EC141"/>
<path d="M265.226 207.318V201.189H259.151V207.318H265.226Z" fill="#1EC141"/>
<path d="M271.281 207.318V201.189H265.207V207.318H271.281Z" fill="#1EC141"/>
<path d="M222.742 213.373V207.245H216.668V213.373H222.742Z" fill="black"/>
<path d="M228.816 213.373V207.245H222.742V213.373H228.816Z" fill="#1EC141"/>
<path d="M234.891 213.373V207.245H228.816V213.373H234.891Z" fill="#1EC141"/>
<path d="M240.946 213.373V207.245H234.872V213.373H240.946Z" fill="white"/>
<path d="M247.021 213.373V207.245H240.946V213.373H247.021Z" fill="#1EC141"/>
<path d="M253.095 213.373V207.245H247.021V213.373H253.095Z" fill="#1EC141"/>
<path d="M259.151 213.373V207.245H253.077V213.373H259.151Z" fill="#1EC141"/>
<path d="M265.226 213.373V207.245H259.151V213.373H265.226Z" fill="#1EC141"/>
<path d="M271.3 213.373V207.245H265.226V213.373H271.3Z" fill="#1EC141"/>
<path d="M222.742 219.429V213.301H216.668V219.429H222.742Z" fill="black"/>
<path d="M228.816 219.429V213.301H222.742V219.429H228.816Z" fill="#1EC141"/>
<path d="M234.891 219.447V213.318H228.816V219.447H234.891Z" fill="#1EC141"/>
<path d="M240.946 219.429V213.301H234.872V219.429H240.946Z" fill="#1EC141"/>
<path d="M247.021 219.429V213.301H240.946V219.429H247.021Z" fill="white"/>
<path d="M253.095 219.447V213.318H247.021V219.447H253.095Z" fill="#1EC141"/>
<path d="M259.151 219.429V213.301H253.077V219.429H259.151Z" fill="#1EC141"/>
<path d="M265.226 219.429V213.301H259.151V219.429H265.226Z" fill="#1EC141"/>
<path d="M271.3 219.447V213.318H265.226V219.447H271.3Z" fill="#1EC141"/>
<path d="M222.742 225.484V219.355H216.668V225.484H222.742Z" fill="black"/>
<path d="M228.816 225.484V219.355H222.742V225.484H228.816Z" fill="#1EC141"/>
<path d="M234.891 225.502V219.374H228.816V225.502H234.891Z" fill="#1EC141"/>
<path d="M240.946 225.484V219.355H234.872V225.484H240.946Z" fill="#1EC141"/>
<path d="M247.021 225.484V219.355H240.946V225.484H247.021Z" fill="#1EC141"/>
<path d="M253.095 225.502V219.374H247.021V225.502H253.095Z" fill="white"/>
<path d="M259.151 225.484V219.355H253.077V225.484H259.151Z" fill="#1EC141"/>
<path d="M265.226 225.484V219.355H259.151V225.484H265.226Z" fill="#1EC141"/>
<path d="M271.3 225.502V219.374H265.226V225.502H271.3Z" fill="#1EC141"/>
<path d="M222.742 231.538V225.41H216.668V231.538H222.742Z" fill="black"/>
<path d="M228.816 231.538V225.41H222.742V231.538H228.816Z" fill="#1EC141"/>
<path d="M234.891 231.558V225.43H228.816V231.558H234.891Z" fill="#1EC141"/>
<path d="M240.946 231.538V225.41H234.872V231.538H240.946Z" fill="#1EC141"/>
<path d="M247.021 231.538V225.41H240.946V231.538H247.021Z" fill="#1EC141"/>
<path d="M253.095 231.558V225.43H247.021V231.558H253.095Z" fill="#1EC141"/>
<path d="M259.151 231.538V225.41H253.077V231.538H259.151Z" fill="white"/>
<path d="M265.226 231.538V225.41H259.151V231.538H265.226Z" fill="#1EC141"/>
<path d="M271.3 231.558V225.43H265.226V231.558H271.3Z" fill="#1EC141"/>
<path d="M222.742 237.595V231.467H216.668V237.595H222.742Z" fill="black"/>
<path d="M228.816 237.595V231.467H222.742V237.595H228.816Z" fill="#1EC141"/>
<path d="M234.891 237.613V231.484H228.816V237.613H234.891Z" fill="#1EC141"/>
<path d="M240.946 237.594V231.466H234.872V237.594H240.946Z" fill="#1EC141"/>
<path d="M247.021 237.594V231.466H240.946V237.594H247.021Z" fill="#1EC141"/>
<path d="M253.095 237.613V231.484H247.021V237.613H253.095Z" fill="#1EC141"/>
<path d="M259.151 237.595V231.467H253.077V237.595H259.151Z" fill="#1EC141"/>
<path d="M265.226 237.595V231.467H259.151V237.595H265.226Z" fill="#1EC141"/>
<path d="M271.3 237.613V231.484H265.226V237.613H271.3Z" fill="#1EC141"/>
<path d="M222.761 243.65V237.521H216.687V243.65H222.761Z" fill="black"/>
<path d="M228.816 243.65V237.521H222.742V243.65H228.816Z" fill="#1EC141"/>
<path d="M234.891 243.667V237.539H228.816V243.667H234.891Z" fill="#1EC141"/>
<path d="M240.965 243.65V237.521H234.891V243.65H240.965Z" fill="#1EC141"/>
<path d="M247.021 243.65V237.521H240.946V243.65H247.021Z" fill="#1EC141"/>
<path d="M253.095 243.667V237.539H247.021V243.667H253.095Z" fill="#1EC141"/>
<path d="M259.169 243.65V237.521H253.095V243.65H259.169Z" fill="#1EC141"/>
<path d="M265.226 243.65V237.521H259.151V243.65H265.226Z" fill="#1EC141"/>
<path d="M271.3 243.667V237.539H265.226V243.667H271.3Z" fill="#1EC141"/>
<path d="M228.816 249.723V243.595H222.742V249.723H228.816Z" fill="black"/>
<path d="M234.891 249.723V243.595H228.816V249.723H234.891Z" fill="black"/>
<path d="M240.965 249.704V243.576H234.891V249.704H240.965Z" fill="black"/>
<path d="M247.021 249.723V243.595H240.946V249.723H247.021Z" fill="black"/>
<path d="M253.095 249.723V243.595H247.021V249.723H253.095Z" fill="black"/>
<path d="M259.169 249.704V243.576H253.095V249.704H259.169Z" fill="black"/>
<path d="M265.226 249.723V243.595H259.151V249.723H265.226Z" fill="black"/>
<path d="M271.263 195.208V189.08H265.188V195.208H271.263Z" fill="black"/>
<path d="M277.318 201.263V195.135H271.244V201.263H277.318Z" fill="black"/>
<path d="M277.318 207.318V201.189H271.244V207.318H277.318Z" fill="black"/>
<path d="M277.318 213.373V207.245H271.244V213.373H277.318Z" fill="black"/>
<path d="M277.318 219.429V213.301H271.244V219.429H277.318Z" fill="black"/>
<path d="M277.318 225.484V219.355H271.244V225.484H277.318Z" fill="black"/>
<path d="M277.318 231.538V225.41H271.244V231.538H277.318Z" fill="black"/>
<path d="M277.318 237.594V231.466H271.244V237.594H277.318Z" fill="black"/>
<path d="M277.318 243.65V237.521H271.244V243.65H277.318Z" fill="black"/>
<path d="M271.263 249.704V243.576H265.189V249.704H271.263Z" fill="black"/>
<path d="M237.919 213.392V207.264H231.845V213.392H237.919Z" fill="white"/>
<path d="M237.919 219.447V213.318H231.845V219.447H237.919Z" fill="white"/>
<path d="M237.937 225.502V219.374H231.862V225.502H237.937Z" fill="white"/>
<path d="M237.937 231.558V225.43H231.862V231.558H237.937Z" fill="white"/>
<path d="M262.489 213.373V207.245H256.415V213.373H262.489Z" fill="white"/>
<path d="M262.489 219.429V213.301H256.415V219.429H262.489Z" fill="white"/>
<path d="M262.489 225.484V219.355H256.415V225.484H262.489Z" fill="white"/>
<path d="M262.489 231.538V225.41H256.415V231.538H262.489Z" fill="white"/>
<path d="M207.53 249.468H210.266V237.266H207.53V249.468Z" fill="#DDC458"/>
<path d="M207.493 237.248V239.983H216.614V237.248H207.493Z" fill="#DDC458"/>
<path d="M171.376 246.641V249.377H180.496V246.641H171.376Z" fill="#DDC458"/>
<path d="M207.53 273.743H210.266V261.542H207.53V273.743Z" fill="#DDC458"/>
<path d="M207.53 261.523H210.266V249.322H207.53V261.523Z" fill="#DDC458"/>
</svg>
