<svg width="auto" height="auto" viewBox="0 0 130 54" fill="none" xmlns="http://www.w3.org/2000/svg">
<path d="M95.7705 53.7803H89.4648V47.4746H95.7705V53.7803Z" fill="white"/>
<path d="M83.1279 6.11719H76.8223V12.4228H83.1279V6.11719Z" fill="#D1D2D4"/>
<path d="M83.1279 53.7803H76.8223V47.4746H83.1279V53.7803Z" fill="#D1D2D4"/>
<path d="M95.7705 47.4648H89.4648V41.1592H95.7705V47.4648Z" fill="#D1D2D4"/>
<path d="M89.4541 12.4326H83.1484V18.7383H89.4541V12.4326Z" fill="white"/>
<path d="M89.4541 47.4648H83.1484V41.1592H89.4541V47.4648Z" fill="white"/>
<path d="M76.8008 12.4326H70.4951V18.7383H76.8008V12.4326Z" fill="white"/>
<path d="M76.8008 47.4648H70.4951V41.1592H76.8008V47.4648Z" fill="white"/>
<path d="M95.7705 18.7598H89.4648V25.0654H95.7705V18.7598Z" fill="#EAEAEA"/>
<path d="M95.7705 41.1377H89.4648V34.832H95.7705V41.1377Z" fill="#EAEAEA"/>
<path d="M101.292 39.3057H94.9863V33H101.292V39.3057Z" fill="#EAEAEA"/>
<path d="M89.4541 18.7598H83.1484V25.0654H89.4541V18.7598Z" fill="#D1D2D4"/>
<path d="M89.4541 41.1377H83.1484V34.832H89.4541V41.1377Z" fill="#D1D2D4"/>
<path d="M83.1279 18.7598H76.8223V25.0654H83.1279V18.7598Z" fill="white"/>
<path d="M83.1279 41.1377H76.8223V34.832H83.1279V41.1377Z" fill="white"/>
<path d="M76.8008 18.7598H70.4951V25.0654H76.8008V18.7598Z" fill="#D1D2D4"/>
<path d="M76.8008 41.1377H70.4951V34.832H76.8008V41.1377Z" fill="#D1D2D4"/>
<path d="M70.4736 18.7598H64.168V25.0654H70.4736V18.7598Z" fill="#BFBFBF"/>
<path d="M70.4736 41.1377H64.168V34.832H70.4736V41.1377Z" fill="#BFBFBF"/>
<path d="M95.7705 25.0869H89.4648V31.3926H95.7705V25.0869Z" fill="#D1D2D4"/>
<path d="M95.7705 34.8105H89.4648V28.5049H95.7705V34.8105Z" fill="#D1D2D4"/>
<path d="M89.4541 25.0869H83.1484V31.3926H89.4541V25.0869Z" fill="#D1D2D4"/>
<path d="M89.4541 34.8105H83.1484V28.5049H89.4541V34.8105Z" fill="#D1D2D4"/>
<path d="M83.1279 25.0869H76.8223V31.3926H83.1279V25.0869Z" fill="#D1D2D4"/>
<path d="M83.1279 34.8105H76.8223V28.5049H83.1279V34.8105Z" fill="#D1D2D4"/>
<path d="M76.8008 25.0869H70.4951V31.3926H76.8008V25.0869Z" fill="#BFBFBF"/>
<path d="M76.8008 34.8105H70.4951V28.5049H76.8008V34.8105Z" fill="#BFBFBF"/>
<path d="M70.4736 25.0869H64.168V31.3926H70.4736V25.0869Z" fill="#D1D2D4"/>
<path d="M70.4736 34.8105H64.168V28.5049H70.4736V34.8105Z" fill="#D1D2D4"/>
<path d="M64.1787 18.7598H57.873V25.0654H64.1787V18.7598Z" fill="white"/>
<path d="M64.1787 41.1377H57.873V34.832H64.1787V41.1377Z" fill="white"/>
<path d="M57.8525 18.7598H51.5469V25.0654H57.8525V18.7598Z" fill="white"/>
<path d="M57.8525 41.1377H51.5469V34.832H57.8525V41.1377Z" fill="white"/>
<path d="M51.5361 18.7598H45.2305V25.0654H51.5361V18.7598Z" fill="#D1D2D4"/>
<path d="M51.5361 41.1377H45.2305V34.832H51.5361V41.1377Z" fill="#D1D2D4"/>
<path d="M45.209 18.7598H38.9033V25.0654H45.209V18.7598Z" fill="#D1D2D4"/>
<path d="M45.209 41.1377H38.9033V34.832H45.209V41.1377Z" fill="#D1D2D4"/>
<path d="M38.8838 18.7598H32.5781V25.0654H38.8838V18.7598Z" fill="#BFBFBF"/>
<path d="M38.8838 41.1377H32.5781V34.832H38.8838V41.1377Z" fill="#BFBFBF"/>
<path d="M64.1787 25.0869H57.873V31.3926H64.1787V25.0869Z" fill="#D1D2D4"/>
<path d="M64.1787 34.8105H57.873V28.5049H64.1787V34.8105Z" fill="#D1D2D4"/>
<path d="M57.8525 25.0869H51.5469V31.3926H57.8525V25.0869Z" fill="#D1D2D4"/>
<path d="M57.8525 34.8105H51.5469V28.5049H57.8525V34.8105Z" fill="#D1D2D4"/>
<path d="M51.5361 25.0869H45.2305V31.3926H51.5361V25.0869Z" fill="#D1D2D4"/>
<path d="M51.5361 34.8105H45.2305V28.5049H51.5361V34.8105Z" fill="#D1D2D4"/>
<path d="M45.209 25.0869H38.9033V31.3926H45.209V25.0869Z" fill="#D1D2D4"/>
<path d="M45.209 34.8105H38.9033V28.5049H45.209V34.8105Z" fill="#D1D2D4"/>
<path d="M38.8838 25.0869H32.5781V31.3926H38.8838V25.0869Z" fill="#D1D2D4"/>
<path d="M38.8838 34.8105H32.5781V28.5049H38.8838V34.8105Z" fill="#D1D2D4"/>
<path d="M32.5771 18.7598H26.2715V25.0654H32.5771V18.7598Z" fill="white"/>
<path d="M32.5771 41.1377H26.2715V34.832H32.5771V41.1377Z" fill="white"/>
<path d="M32.5771 25.0869H26.2715V31.3926H32.5771V25.0869Z" fill="#BFBFBF"/>
<path d="M32.5771 34.8105H26.2715V28.5049H32.5771V34.8105Z" fill="#BFBFBF"/>
<path d="M13.6191 18.7598H7.31348V25.0654H13.6191V18.7598Z" fill="white"/>
<path d="M70.4736 12.4326H64.168V18.7383H70.4736V12.4326Z" fill="white"/>
<path d="M70.4736 47.4648H64.168V41.1592H70.4736V47.4648Z" fill="white"/>
<path d="M51.5361 12.4326H45.2305V18.7383H51.5361V12.4326Z" fill="white"/>
<path d="M51.5361 47.4648H45.2305V41.1592H51.5361V47.4648Z" fill="white"/>
<path d="M45.209 12.4326H38.9033V18.7383H45.209V12.4326Z" fill="#D1D2D4"/>
<path d="M45.209 47.4648H38.9033V41.1592H45.209V47.4648Z" fill="#D1D2D4"/>
<path d="M38.8838 12.4326H32.5781V18.7383H38.8838V12.4326Z" fill="#BFBFBF"/>
<path d="M38.8838 47.4648H32.5781V41.1592H38.8838V47.4648Z" fill="#BFBFBF"/>
<path d="M32.5771 12.4326H26.2715V18.7383H32.5771V12.4326Z" fill="white"/>
<path d="M32.5771 47.4648H26.2715V41.1592H32.5771V47.4648Z" fill="white"/>
<path d="M64.1787 6.11719H57.873V12.4228H64.1787V6.11719Z" fill="#D1D2D4"/>
<path d="M64.1787 53.7803H57.873V47.4746H64.1787V53.7803Z" fill="#D1D2D4"/>
<path d="M57.8525 0H51.5469V6.30564H57.8525V0Z" fill="#D1D2D4"/>
<path d="M45.209 6.11719H38.9033V12.4228H45.209V6.11719Z" fill="white"/>
<path d="M45.209 53.7803H38.9033V47.4746H45.209V53.7803Z" fill="white"/>
<path d="M38.8838 6.11719H32.5781V12.4228H38.8838V6.11719Z" fill="white"/>
<path d="M38.8838 53.7803H32.5781V47.4746H38.8838V53.7803Z" fill="white"/>
<path d="M26.2617 41.3057H19.9561V35H26.2617V41.3057Z" fill="#D1D2D4"/>
<path d="M26.2617 25.0869H19.9561V31.3926H26.2617V25.0869Z" fill="white"/>
<path d="M26.2617 34.8105H19.9561V28.5049H26.2617V34.8105Z" fill="white"/>
<path d="M19.9346 25.0869H13.6289V31.3926H19.9346V25.0869Z" fill="white"/>
<path d="M19.9346 34.8105H13.6289V28.5049H19.9346V34.8105Z" fill="white"/>
<path d="M13.6191 25.0869H7.31348V31.3926H13.6191V25.0869Z" fill="#D1D2D4"/>
<path d="M13.6191 34.8105H7.31348V28.5049H13.6191V34.8105Z" fill="#D1D2D4"/>
<path d="M7.29197 25.0869H0.986328V31.3926H7.29197V25.0869Z" fill="white"/>
<path d="M7.29197 34.8105H0.986328V28.5049H7.29197V34.8105Z" fill="white"/>
<path d="M95.7705 19H89.4648V25.3057H95.7705V19Z" fill="white"/>
<path d="M107.292 26H100.986V32.3057H107.292V26Z" fill="white"/>
<path d="M117.292 33H110.986V39.3057H117.292V33Z" fill="white"/>
<path d="M129.292 19H122.986V25.3057H129.292V19Z" fill="white"/>
</svg>
