<svg width="auto" height="auto" viewBox="0 0 120 77" fill="none" xmlns="http://www.w3.org/2000/svg">
<path d="M111.451 -6.29425e-05V8.49072H119.935V-6.29425e-05H111.451Z" fill="#F5080D"/>
<path d="M111.451 8.43988V16.9307H119.935V8.43988H111.451Z" fill="#F5080D"/>
<path d="M111.434 16.8627V25.3535H119.918V16.8627H111.434Z" fill="#EEFC25"/>
<path d="M111.451 25.3027V33.7935H119.935V25.3027H111.451Z" fill="#FFFFEF"/>
<path d="M111.451 33.7426V42.2334H119.935V33.7426H111.451Z" fill="#FFFFEF"/>
<path d="M111.434 42.1826V50.6733H119.918V42.1826H111.434Z" fill="#FFFFEF"/>
<path d="M111.451 50.6054V59.0962H119.935V50.6054H111.451Z" fill="#EEFC25"/>
<path d="M102.949 0.0170269V8.50781H111.433V0.0170269H102.949Z" fill="#F5080D"/>
<path d="M102.967 8.43988V16.9307H111.451V8.43988H102.967Z" fill="#FFD853"/>
<path d="M102.949 16.8798V25.3706H111.433V16.8798H102.949Z" fill="#EEFC25"/>
<path d="M102.949 25.3198V33.8105H111.433V25.3198H102.949Z" fill="#EEFC25"/>
<path d="M102.967 33.7426V42.2334H111.451V33.7426H102.967Z" fill="#EEFC25"/>
<path d="M102.949 42.1826V50.6733H111.433V42.1826H102.949Z" fill="#FFFFEF"/>
<path d="M102.949 50.622V59.1128H111.433V50.622H102.949Z" fill="#EEFC25"/>
<path d="M102.949 59.079V67.5698H111.433V59.079H102.949Z" fill="#FFD853"/>
<path d="M102.949 67.5698V76.0605H111.433V67.5698H102.949Z" fill="#FA0C0E"/>
<path d="M94.5664 -6.29425e-05V8.49072H103.05V-6.29425e-05H94.5664Z" fill="#F5080D"/>
<path d="M94.5664 8.43988V16.9307H103.05V8.43988H94.5664Z" fill="#FFD853"/>
<path d="M94.5664 16.8798V25.3706H103.05V16.8798H94.5664Z" fill="#FFD853"/>
<path d="M94.5664 25.3027V33.7935H103.05V25.3027H94.5664Z" fill="#FFD853"/>
<path d="M94.5664 33.7426V42.2334H103.05V33.7426H94.5664Z" fill="#EEFC25"/>
<path d="M94.5664 42.1826V50.6733H103.05V42.1826H94.5664Z" fill="#EEFC25"/>
<path d="M94.5664 50.6054V59.0962H103.05V50.6054H94.5664Z" fill="#FFD853"/>
<path d="M94.5664 59.0619V67.5527H103.05V59.0619H94.5664Z" fill="#FA0C0E"/>
<path d="M94.5664 67.5698V76.0605H103.05V67.5698H94.5664Z" fill="#FA0C0E"/>
<path d="M86.1855 -6.29425e-05V8.49072H94.6696V-6.29425e-05H86.1855Z" fill="#F5080D"/>
<path d="M86.1855 8.43988V16.9307H94.6696V8.43988H86.1855Z" fill="#F5080D"/>
<path d="M86.168 16.8627V25.3535H94.6521V16.8627H86.168Z" fill="#FF711F"/>
<path d="M86.1855 25.3027V33.7935H94.6696V25.3027H86.1855Z" fill="#FFD853"/>
<path d="M86.1855 33.7426V42.2334H94.6696V33.7426H86.1855Z" fill="#EEFC25"/>
<path d="M86.168 42.1655V50.6562H94.6521V42.1655H86.168Z" fill="#FFD853"/>
<path d="M86.1855 50.6054V59.0962H94.6696V50.6054H86.1855Z" fill="#FFD853"/>
<path d="M86.168 59.0619V67.5527H94.6521V59.0619H86.168Z" fill="#FF711F"/>
<path d="M86.1855 67.5698V76.0605H94.6696V67.5698H86.1855Z" fill="#FA0C0E"/>
<path d="M77.8027 8.43988V16.9307H86.2868V8.43988H77.8027Z" fill="#F5080D"/>
<path d="M77.7852 16.8798V25.3706H86.2692V16.8798H77.7852Z" fill="#F5080D"/>
<path d="M77.7852 25.3198V33.8105H86.2692V25.3198H77.7852Z" fill="#FF711F"/>
<path d="M77.8027 33.7426V42.2334H86.2868V33.7426H77.8027Z" fill="#FFD853"/>
<path d="M77.7852 42.1826V50.6733H86.2692V42.1826H77.7852Z" fill="#FFD853"/>
<path d="M77.7852 50.622V59.1128H86.2692V50.622H77.7852Z" fill="#FF711F"/>
<path d="M77.7852 59.079V67.5698H86.2692V59.079H77.7852Z" fill="#FF711F"/>
<path d="M77.8027 67.5698V76.0605H86.2868V67.5698H77.8027Z" fill="#FA0C0E"/>
<path d="M69.2852 16.8627V25.3535H77.7692V16.8627H69.2852Z" fill="#F5080D"/>
<path d="M69.3008 25.3027V33.7935H77.7849V25.3027H69.3008Z" fill="#EEFC25"/>
<path d="M69.3008 33.7426V42.2334H77.7849V33.7426H69.3008Z" fill="#FF711F"/>
<path d="M69.2852 42.1826V50.6733H77.7692V42.1826H69.2852Z" fill="#FF711F"/>
<path d="M69.3008 50.6054V59.0962H77.7849V50.6054H69.3008Z" fill="#FFD853"/>
<path d="M69.3008 59.0619V67.5527H77.7849V59.0619H69.3008Z" fill="#FA0C0E"/>
<path d="M60.8008 16.8798V25.3706H69.2849V16.8798H60.8008Z" fill="#F5080D"/>
<path d="M60.8008 25.3198V33.8105H69.2849V25.3198H60.8008Z" fill="#F5080D"/>
<path d="M60.8184 33.7426V42.2334H69.3024V33.7426H60.8184Z" fill="#FF711F"/>
<path d="M60.8008 42.1826V50.6733H69.2849V42.1826H60.8008Z" fill="#FA0C0E"/>
<path d="M60.8008 50.622V59.1128H69.2849V50.622H60.8008Z" fill="#FFD853"/>
<path d="M60.8008 59.079V67.5698H69.2849V59.079H60.8008Z" fill="#FA0C0E"/>
<path d="M52.3164 50.6054V59.0962H60.8005V50.6054H52.3164Z" fill="#FA0C0E"/>
<path d="M52.2988 59.0619V67.5527H60.7829V59.0619H52.2988Z" fill="#FA0C0E"/>
<path d="M69.3008 67.5698V76.0605H77.7849V67.5698H69.3008Z" fill="#FA0C0E"/>
<path d="M111.451 59.0619V68.0112H119.935V59.0619H111.451Z" fill="#FA0C0E"/>
<path d="M43.8164 50.6053V58.7734H52.3005V50.6053H43.8164Z" fill="#FA0C0E"/>
<path d="M52.3848 25.3027V33.7935H60.8689V25.3027H52.3848Z" fill="#F5080D"/>
<path d="M52.3848 33.6577V42.1484H60.8689V33.6577H52.3848Z" fill="#FF711F"/>
<path d="M52.3848 42.0297V50.5205H60.8689V42.0297H52.3848Z" fill="#FFD853"/>
<path d="M43.8828 50.537V58.875H52.3669V50.537H43.8828Z" fill="#FA0C0E"/>
<path d="M43.918 25.3027V33.7935H52.4021V25.3027H43.918Z" fill="#F5080D"/>
<path d="M43.918 33.6747V42.1655H52.4021V33.6747H43.918Z" fill="#FF711F"/>
<path d="M43.9336 42.0297V50.5205H52.4177V42.0297H43.9336Z" fill="#FA0C0E"/>
<path d="M35.4492 25.2856V33.7764H43.9333V25.2856H35.4492Z" fill="#F5080D"/>
<path d="M35.4668 33.6577V42.1484H43.9509V33.6577H35.4668Z" fill="#F5080D"/>
<path d="M35.4668 42.0126V50.5034H43.9509V42.0126H35.4668Z" fill="#FA0C0E"/>
<path d="M27 33.6577V42.1484H35.4841V33.6577H27Z" fill="#F5080D"/>
<path d="M0 33.6577L0 42.1484H8.48409V33.6577H0Z" fill="#F5080D"/>
<path d="M19 42.3823V50.873H27.4841V42.3823H19Z" fill="#F5080D"/>
</svg>
