<svg width="auto" height="auto" viewBox="0 0 309 380" fill="none" xmlns="http://www.w3.org/2000/svg">
<path d="M291.925 311.957H300.386V303.496H291.925V311.957Z" fill="black"/>
<path d="M291.925 320.435H300.386V311.974H291.925V320.435Z" fill="black"/>
<path d="M241.569 311.957H250.029V303.496H241.569V311.957Z" fill="#FB7844"/>
<path d="M241.569 303.497H250.029V295.037H241.569V303.497Z" fill="#FB7844"/>
<path d="M233.158 311.957H241.618V303.496H233.158V311.957Z" fill="#FB7844"/>
<path d="M233.158 303.497H241.618V295.037H233.158V303.497Z" fill="#FB7844"/>
<path d="M224.765 311.957H233.226V303.496H224.765V311.957Z" fill="#FB7844"/>
<path d="M224.765 303.497H233.226V295.037H224.765V303.497Z" fill="#FB7844"/>
<path d="M216.356 311.957H224.816V303.496H216.356V311.957Z" fill="#FB7844"/>
<path d="M216.356 303.497H224.816V295.037H216.356V303.497Z" fill="#FB7844"/>
<path d="M207.946 311.957H216.406V303.496H207.946V311.957Z" fill="#FB7844"/>
<path d="M207.946 303.497H216.406V295.037H207.946V303.497Z" fill="#FB7844"/>
<path d="M199.537 311.957H207.997V303.496H199.537V311.957Z" fill="#FB7844"/>
<path d="M199.537 303.497H207.997V295.037H199.537V303.497Z" fill="#FB7844"/>
<path d="M191.125 311.957H199.586V303.496H191.125V311.957Z" fill="white"/>
<path d="M191.125 303.497H199.586V295.037H191.125V303.497Z" fill="#FB7844"/>
<path d="M182.716 311.957H191.177V303.496H182.716V311.957Z" fill="white"/>
<path d="M182.716 303.497H191.177V295.037H182.716V303.497Z" fill="white"/>
<path d="M174.307 311.957H182.768V303.496H174.307V311.957Z" fill="white"/>
<path d="M174.307 303.497H182.768V295.037H174.307V303.497Z" fill="white"/>
<path d="M165.879 311.957H174.34V303.496H165.879V311.957Z" fill="white"/>
<path d="M165.879 303.497H174.34V295.037H165.879V303.497Z" fill="white"/>
<path d="M157.47 311.957H165.931V303.496H157.47V311.957Z" fill="white"/>
<path d="M157.47 303.497H165.931V295.037H157.47V303.497Z" fill="#FB7844"/>
<path d="M149.061 311.957H157.521V303.496H149.061V311.957Z" fill="#FB7844"/>
<path d="M149.061 303.497H157.521V295.037H149.061V303.497Z" fill="#FB7844"/>
<path d="M140.65 311.957H149.11V303.496H140.65V311.957Z" fill="#FB7844"/>
<path d="M140.65 303.497H149.11V295.037H140.65V303.497Z" fill="#FB7844"/>
<path d="M132.241 311.957H140.701V303.496H132.241V311.957Z" fill="#FB7844"/>
<path d="M132.241 303.497H140.701V295.037H132.241V303.497Z" fill="#FB7844"/>
<path d="M123.831 311.957H132.292V303.496H123.831V311.957Z" fill="#FB7844"/>
<path d="M123.831 303.497H132.292V295.037H123.831V303.497Z" fill="#FB7844"/>
<path d="M115.422 311.957H123.883V303.496H115.422V311.957Z" fill="#FB7844"/>
<path d="M115.422 303.497H123.883V295.037H115.422V303.497Z" fill="#FB7844"/>
<path d="M249.995 311.957H258.455V303.496H249.995V311.957Z" fill="#E96739"/>
<path d="M249.995 303.497H258.455V295.037H249.995V303.497Z" fill="#FB7844"/>
<path d="M258.406 311.957H266.866V303.496H258.406V311.957Z" fill="black"/>
<path d="M258.406 303.497H266.866V295.037H258.406V303.497Z" fill="black"/>
<path d="M107.011 311.957H115.472V303.496H107.011V311.957Z" fill="#FB7844"/>
<path d="M107.011 303.497H115.472V295.037H107.011V303.497Z" fill="#FB7844"/>
<path d="M241.569 328.912H250.029V320.452H241.569V328.912Z" fill="#FB7844"/>
<path d="M241.569 320.435H250.029V311.974H241.569V320.435Z" fill="#FB7844"/>
<path d="M233.158 328.912H241.618V320.452H233.158V328.912Z" fill="#FB7844"/>
<path d="M233.158 320.435H241.618V311.974H233.158V320.435Z" fill="#FB7844"/>
<path d="M224.765 328.912H233.226V320.452H224.765V328.912Z" fill="#FB7844"/>
<path d="M224.765 320.435H233.226V311.974H224.765V320.435Z" fill="#FB7844"/>
<path d="M216.356 328.912H224.816V320.452H216.356V328.912Z" fill="#FB7844"/>
<path d="M216.356 320.435H224.816V311.974H216.356V320.435Z" fill="#FB7844"/>
<path d="M207.946 328.912H216.406V320.452H207.946V328.912Z" fill="#FB7844"/>
<path d="M207.946 320.435H216.406V311.974H207.946V320.435Z" fill="#FB7844"/>
<path d="M199.537 328.912H207.997V320.452H199.537V328.912Z" fill="#FB7844"/>
<path d="M199.537 320.435H207.997V311.974H199.537V320.435Z" fill="#FB7844"/>
<path d="M191.125 328.912H199.586V320.452H191.125V328.912Z" fill="white"/>
<path d="M191.125 320.435H199.586V311.974H191.125V320.435Z" fill="white"/>
<path d="M182.716 328.912H191.177V320.452H182.716V328.912Z" fill="white"/>
<path d="M182.716 320.435H191.177V311.974H182.716V320.435Z" fill="white"/>
<path d="M174.307 328.912H182.768V320.452H174.307V328.912Z" fill="white"/>
<path d="M174.307 320.435H182.768V311.974H174.307V320.435Z" fill="white"/>
<path d="M165.879 328.912H174.34V320.452H165.879V328.912Z" fill="white"/>
<path d="M165.879 320.435H174.34V311.974H165.879V320.435Z" fill="white"/>
<path d="M157.47 328.912H165.931V320.452H157.47V328.912Z" fill="white"/>
<path d="M157.47 320.435H165.931V311.974H157.47V320.435Z" fill="white"/>
<path d="M149.061 328.912H157.521V320.452H149.061V328.912Z" fill="#FB7844"/>
<path d="M149.061 320.435H157.521V311.974H149.061V320.435Z" fill="#FB7844"/>
<path d="M140.65 328.912H149.11V320.452H140.65V328.912Z" fill="#FB7844"/>
<path d="M140.65 320.435H149.11V311.974H140.65V320.435Z" fill="#FB7844"/>
<path d="M132.241 328.912H140.701V320.452H132.241V328.912Z" fill="#FB7844"/>
<path d="M132.241 320.435H140.701V311.974H132.241V320.435Z" fill="#FB7844"/>
<path d="M123.831 328.912H132.292V320.452H123.831V328.912Z" fill="#FB7844"/>
<path d="M123.831 320.435H132.292V311.974H123.831V320.435Z" fill="#FB7844"/>
<path d="M115.422 328.912H123.883V320.452H115.422V328.912Z" fill="#FB7844"/>
<path d="M115.422 320.435H123.883V311.974H115.422V320.435Z" fill="#FB7844"/>
<path d="M249.995 328.912H258.455V320.452H249.995V328.912Z" fill="#E96739"/>
<path d="M249.995 320.435H258.455V311.974H249.995V320.435Z" fill="#FB7844"/>
<path d="M258.406 328.912H266.866V320.452H258.406V328.912Z" fill="black"/>
<path d="M258.406 320.435H266.866V311.974H258.406V320.435Z" fill="black"/>
<path d="M241.569 295.02H250.029V286.559H241.569V295.02Z" fill="#FB7844"/>
<path d="M233.158 295.02H241.618V286.559H233.158V295.02Z" fill="#FB7844"/>
<path d="M224.765 295.02H233.226V286.559H224.765V295.02Z" fill="#FB7844"/>
<path d="M216.356 295.02H224.816V286.559H216.356V295.02Z" fill="#FB7844"/>
<path d="M207.946 295.02H216.406V286.559H207.946V295.02Z" fill="#FB7844"/>
<path d="M199.537 295.02H207.997V286.559H199.537V295.02Z" fill="#FB7844"/>
<path d="M191.125 295.02H199.586V286.559H191.125V295.02Z" fill="#FB7844"/>
<path d="M182.716 295.02H191.177V286.559H182.716V295.02Z" fill="#FB7844"/>
<path d="M174.307 295.02H182.768V286.559H174.307V295.02Z" fill="#FB7844"/>
<path d="M165.879 295.02H174.34V286.559H165.879V295.02Z" fill="#FB7844"/>
<path d="M157.47 295.02H165.931V286.559H157.47V295.02Z" fill="#FB7844"/>
<path d="M149.061 295.02H157.521V286.559H149.061V295.02Z" fill="#FB7844"/>
<path d="M140.65 295.02H149.11V286.559H140.65V295.02Z" fill="#FB7844"/>
<path d="M132.241 295.02H140.701V286.559H132.241V295.02Z" fill="#FB7844"/>
<path d="M123.831 295.02H132.292V286.559H123.831V295.02Z" fill="#FB7844"/>
<path d="M115.422 295.02H123.883V286.559H115.422V295.02Z" fill="#FB7844"/>
<path d="M249.995 295.02H258.455V286.559H249.995V295.02Z" fill="#FB7844"/>
<path d="M258.406 295.02H266.866V286.559H258.406V295.02Z" fill="black"/>
<path d="M107.011 295.02H115.472V286.559H107.011V295.02Z" fill="#FFAC8F"/>
<path d="M98.5668 295.02H107.027V286.559H98.5668V295.02Z" fill="black"/>
<path d="M241.569 337.39H250.029V328.929H241.569V337.39Z" fill="#FB7844"/>
<path d="M233.158 337.39H241.618V328.929H233.158V337.39Z" fill="#FB7844"/>
<path d="M224.765 337.39H233.226V328.929H224.765V337.39Z" fill="#FB7844"/>
<path d="M216.356 337.39H224.816V328.929H216.356V337.39Z" fill="#FB7844"/>
<path d="M207.946 337.39H216.406V328.929H207.946V337.39Z" fill="#FB7844"/>
<path d="M199.537 337.39H207.997V328.929H199.537V337.39Z" fill="#FB7844"/>
<path d="M191.125 337.39H199.586V328.929H191.125V337.39Z" fill="#FB7844"/>
<path d="M182.716 337.39H191.177V328.929H182.716V337.39Z" fill="white"/>
<path d="M174.307 337.39H182.768V328.929H174.307V337.39Z" fill="white"/>
<path d="M165.879 337.39H174.34V328.929H165.879V337.39Z" fill="white"/>
<path d="M157.47 337.39H165.931V328.929H157.47V337.39Z" fill="#FB7844"/>
<path d="M149.061 337.39H157.521V328.929H149.061V337.39Z" fill="#FB7844"/>
<path d="M140.65 337.39H149.11V328.929H140.65V337.39Z" fill="#FB7844"/>
<path d="M132.241 337.39H140.701V328.929H132.241V337.39Z" fill="#FB7844"/>
<path d="M123.831 337.39H132.292V328.929H123.831V337.39Z" fill="#FB7844"/>
<path d="M115.422 337.39H123.883V328.929H115.422V337.39Z" fill="#FB7844"/>
<path d="M249.995 337.39H258.455V328.929H249.995V337.39Z" fill="#E96739"/>
<path d="M258.406 337.39H266.866V328.929H258.406V337.39Z" fill="black"/>
<path d="M107.011 337.39H115.472V328.929H107.011V337.39Z" fill="#FB7844"/>
<path d="M241.569 345.8H250.029V337.339H241.569V345.8Z" fill="#E96739"/>
<path d="M233.158 345.8H241.618V337.339H233.158V345.8Z" fill="#FB7844"/>
<path d="M224.765 345.8H233.226V337.339H224.765V345.8Z" fill="#FB7844"/>
<path d="M216.356 345.8H224.816V337.339H216.356V345.8Z" fill="#FB7844"/>
<path d="M207.946 345.8H216.406V337.339H207.946V345.8Z" fill="#FB7844"/>
<path d="M199.537 345.8H207.997V337.339H199.537V345.8Z" fill="#FB7844"/>
<path d="M191.125 345.8H199.586V337.339H191.125V345.8Z" fill="#FB7844"/>
<path d="M182.716 345.8H191.177V337.339H182.716V345.8Z" fill="#FB7844"/>
<path d="M174.307 345.8H182.768V337.339H174.307V345.8Z" fill="#FB7844"/>
<path d="M165.879 345.8H174.34V337.339H165.879V345.8Z" fill="#FB7844"/>
<path d="M157.47 345.8H165.931V337.339H157.47V345.8Z" fill="#FB7844"/>
<path d="M149.061 345.8H157.521V337.339H149.061V345.8Z" fill="#FB7844"/>
<path d="M140.65 345.8H149.11V337.339H140.65V345.8Z" fill="#FB7844"/>
<path d="M132.241 345.8H140.701V337.339H132.241V345.8Z" fill="#FB7844"/>
<path d="M123.831 345.8H132.292V337.339H123.831V345.8Z" fill="#FB7844"/>
<path d="M115.422 345.8H123.883V337.339H115.422V345.8Z" fill="#FB7844"/>
<path d="M249.995 345.8H258.455V337.339H249.995V345.8Z" fill="black"/>
<path d="M107.011 345.8H115.472V337.339H107.011V345.8Z" fill="black"/>
<path d="M241.569 354.227H250.029V345.766H241.569V354.227Z" fill="black"/>
<path d="M233.158 354.227H241.618V345.766H233.158V354.227Z" fill="#E96739"/>
<path d="M224.765 354.227H233.226V345.766H224.765V354.227Z" fill="#FB7844"/>
<path d="M216.356 354.227H224.816V345.766H216.356V354.227Z" fill="#FB7844"/>
<path d="M207.946 354.227H216.406V345.766H207.946V354.227Z" fill="#FB7844"/>
<path d="M199.537 354.227H207.997V345.766H199.537V354.227Z" fill="#FB7844"/>
<path d="M191.125 354.227H199.586V345.766H191.125V354.227Z" fill="#FB7844"/>
<path d="M182.716 354.227H191.177V345.766H182.716V354.227Z" fill="#FB7844"/>
<path d="M174.307 354.227H182.768V345.766H174.307V354.227Z" fill="#FB7844"/>
<path d="M165.879 354.227H174.34V345.766H165.879V354.227Z" fill="#FB7844"/>
<path d="M157.47 354.227H165.931V345.766H157.47V354.227Z" fill="#FB7844"/>
<path d="M149.061 354.227H157.521V345.766H149.061V354.227Z" fill="#FB7844"/>
<path d="M140.65 354.227H149.11V345.766H140.65V354.227Z" fill="#FB7844"/>
<path d="M132.241 354.227H140.701V345.766H132.241V354.227Z" fill="#FB7844"/>
<path d="M123.831 354.227H132.292V345.766H123.831V354.227Z" fill="black"/>
<path d="M115.422 354.227H123.883V345.766H115.422V354.227Z" fill="black"/>
<path d="M233.158 362.653H241.618V354.193H233.158V362.653Z" fill="black"/>
<path d="M224.765 362.653H233.226V354.193H224.765V362.653Z" fill="black"/>
<path d="M216.356 362.653H224.816V354.193H216.356V362.653Z" fill="#E96739"/>
<path d="M207.946 362.653H216.406V354.193H207.946V362.653Z" fill="#E96739"/>
<path d="M199.537 362.653H207.997V354.193H199.537V362.653Z" fill="#E96739"/>
<path d="M191.125 362.653H199.586V354.193H191.125V362.653Z" fill="#E96739"/>
<path d="M182.716 362.653H191.177V354.193H182.716V362.653Z" fill="#E96739"/>
<path d="M174.307 362.653H182.768V354.193H174.307V362.653Z" fill="#E96739"/>
<path d="M165.879 362.653H174.34V354.193H165.879V362.653Z" fill="#FB7844"/>
<path d="M157.47 362.653H165.931V354.193H157.47V362.653Z" fill="#FB7844"/>
<path d="M149.061 362.653H157.521V354.193H149.061V362.653Z" fill="#FB7844"/>
<path d="M140.65 362.653H149.11V354.193H140.65V362.653Z" fill="black"/>
<path d="M132.241 362.653H140.701V354.193H132.241V362.653Z" fill="black"/>
<path d="M216.356 371.062H224.816V362.602H216.356V371.062Z" fill="black"/>
<path d="M207.946 371.062H216.406V362.602H207.946V371.062Z" fill="black"/>
<path d="M199.537 371.062H207.997V362.602H199.537V371.062Z" fill="black"/>
<path d="M191.125 371.062H199.586V362.602H191.125V371.062Z" fill="#E96739"/>
<path d="M182.716 371.062H191.177V362.602H182.716V371.062Z" fill="#E96739"/>
<path d="M174.307 371.062H182.768V362.602H174.307V371.062Z" fill="#E96739"/>
<path d="M165.879 371.062H174.34V362.602H165.879V371.062Z" fill="#E96739"/>
<path d="M157.47 371.062H165.931V362.602H157.47V371.062Z" fill="black"/>
<path d="M149.061 371.062H157.521V362.602H149.061V371.062Z" fill="black"/>
<path d="M191.125 379.506H199.586V371.045H191.125V379.506Z" fill="black"/>
<path d="M182.716 379.506H191.177V371.045H182.716V379.506Z" fill="black"/>
<path d="M174.307 379.506H182.768V371.045H174.307V379.506Z" fill="black"/>
<path d="M165.879 379.506H174.34V371.045H165.879V379.506Z" fill="black"/>
<path d="M98.5668 337.39H107.027V328.929H98.5668V337.39Z" fill="black"/>
<path d="M266.712 311.957H275.173V303.496H266.712V311.957Z" fill="#51BB6B"/>
<path d="M266.712 303.497H275.173V295.037H266.712V303.497Z" fill="#51BB6B"/>
<path d="M266.712 295.02H275.173V286.559H266.712V295.02Z" fill="#51BB6B"/>
<path d="M266.712 320.435H275.173V311.974H266.712V320.435Z" fill="#51BB6B"/>
<path d="M266.712 328.912H275.173V320.452H266.712V328.912Z" fill="#51BB6B"/>
<path d="M275.123 311.957H283.584V303.496H275.123V311.957Z" fill="#51BB6B"/>
<path d="M275.123 303.497H283.584V295.037H275.123V303.497Z" fill="#51BB6B"/>
<path d="M275.123 320.435H283.584V311.974H275.123V320.435Z" fill="#36984B"/>
<path d="M283.448 311.957H291.908V303.496H283.448V311.957Z" fill="#51BB6B"/>
<path d="M266.712 286.559H275.173V278.098H266.712V286.559Z" fill="black"/>
<path d="M275.123 295.02H283.584V286.559H275.123V295.02Z" fill="black"/>
<path d="M283.448 303.497H291.908V295.037H283.448V303.497Z" fill="black"/>
<path d="M283.448 320.435H291.908V311.974H283.448V320.435Z" fill="#36984B"/>
<path d="M275.123 328.912H283.584V320.452H275.123V328.912Z" fill="#36984B"/>
<path d="M266.712 337.39H275.173V328.929H266.712V337.39Z" fill="#36984B"/>
<path d="M283.448 328.912H291.908V320.452H283.448V328.912Z" fill="black"/>
<path d="M275.123 337.39H283.584V328.929H275.123V337.39Z" fill="black"/>
<path d="M266.712 345.85H275.173V337.389H266.712V345.85Z" fill="black"/>
<path d="M107.011 328.912H115.472V320.452H107.011V328.912Z" fill="#FB7844"/>
<path d="M107.011 320.435H115.472V311.974H107.011V320.435Z" fill="#FB7844"/>
<path d="M98.5668 311.957H107.027V303.496H98.5668V311.957Z" fill="#FB7844"/>
<path d="M98.5668 303.497H107.027V295.037H98.5668V303.497Z" fill="#FFAC8F"/>
<path d="M98.5668 328.912H107.027V320.452H98.5668V328.912Z" fill="#FB7844"/>
<path d="M98.5668 320.435H107.027V311.974H98.5668V320.435Z" fill="#FB7844"/>
<path d="M89.9897 311.957H98.4502V303.496H89.9897V311.957Z" fill="#FB7844"/>
<path d="M89.9897 303.497H98.4502V295.037H89.9897V303.497Z" fill="black"/>
<path d="M89.9897 328.912H98.4502V320.452H89.9897V328.912Z" fill="black"/>
<path d="M89.9897 320.435H98.4502V311.974H89.9897V320.435Z" fill="#FB7844"/>
<path d="M81.6127 311.957H90.0732V303.496H81.6127V311.957Z" fill="black"/>
<path d="M81.6127 320.435H90.0732V311.974H81.6127V320.435Z" fill="black"/>
<path d="M165.982 286.576H157.521V295.037H165.982V286.576Z" fill="#FB7844"/>
<path d="M174.391 286.576H165.931V295.037H174.391V286.576Z" fill="#FB7844"/>
<path d="M182.8 286.576H174.34V295.037H182.8V286.576Z" fill="#FB7844"/>
<path d="M191.211 286.576H182.75V295.037H191.211V286.576Z" fill="#FB7844"/>
<path d="M199.621 286.576H191.16V295.037H199.621V286.576Z" fill="#FB7844"/>
<path d="M208.031 286.576H199.57V295.037H208.031V286.576Z" fill="#FB7844"/>
<path d="M216.44 286.576H207.979V295.037H216.44V286.576Z" fill="#FB7844"/>
<path d="M224.85 286.576H216.39V295.037H224.85V286.576Z" fill="#FB7844"/>
<path d="M241.569 286.609H250.029V278.149H241.569V286.609Z" fill="#E96739"/>
<path d="M233.158 286.609H241.618V278.149H233.158V286.609Z" fill="#E96739"/>
<path d="M224.765 286.609H233.226V278.149H224.765V286.609Z" fill="#E96739"/>
<path d="M216.356 286.609H224.816V278.149H216.356V286.609Z" fill="#FB7844"/>
<path d="M207.946 286.609H216.406V278.149H207.946V286.609Z" fill="#FB7844"/>
<path d="M199.537 286.609H207.997V278.149H199.537V286.609Z" fill="#FB7844"/>
<path d="M191.125 286.609H199.586V278.149H191.125V286.609Z" fill="#FB7844"/>
<path d="M182.716 286.609H191.177V278.149H182.716V286.609Z" fill="#FB7844"/>
<path d="M174.307 286.609H182.768V278.149H174.307V286.609Z" fill="#FB7844"/>
<path d="M165.879 286.609H174.34V278.149H165.879V286.609Z" fill="#FB7844"/>
<path d="M157.47 286.609H165.931V278.149H157.47V286.609Z" fill="#FB7844"/>
<path d="M149.061 286.609H157.521V278.149H149.061V286.609Z" fill="#FB7844"/>
<path d="M140.65 286.609H149.11V278.149H140.65V286.609Z" fill="#FB7844"/>
<path d="M132.241 286.609H140.701V278.149H132.241V286.609Z" fill="#FB7844"/>
<path d="M123.831 286.609H132.292V278.149H123.831V286.609Z" fill="#FB7844"/>
<path d="M115.422 286.609H123.883V278.149H115.422V286.609Z" fill="#FFAC8F"/>
<path d="M249.995 286.609H258.455V278.149H249.995V286.609Z" fill="black"/>
<path d="M107.011 286.609H115.472V278.149H107.011V286.609Z" fill="black"/>
<path d="M165.982 278.149H157.521V286.61H165.982V278.149Z" fill="#FB7844"/>
<path d="M174.391 278.149H165.931V286.61H174.391V278.149Z" fill="#FB7844"/>
<path d="M182.8 278.149H174.34V286.61H182.8V278.149Z" fill="#FB7844"/>
<path d="M191.211 278.149H182.75V286.61H191.211V278.149Z" fill="#FB7844"/>
<path d="M199.621 278.149H191.16V286.61H199.621V278.149Z" fill="#FB7844"/>
<path d="M208.031 278.149H199.57V286.61H208.031V278.149Z" fill="#FB7844"/>
<path d="M216.44 278.149H207.979V286.61H216.44V278.149Z" fill="#E96739"/>
<path d="M224.85 278.149H216.39V286.61H224.85V278.149Z" fill="#E96739"/>
<path d="M241.569 278.199H250.029V269.739H241.569V278.199Z" fill="black"/>
<path d="M233.158 278.199H241.618V269.739H233.158V278.199Z" fill="#FB7844"/>
<path d="M224.765 278.199H233.226V269.739H224.765V278.199Z" fill="#FB7844"/>
<path d="M216.356 278.199H224.816V269.739H216.356V278.199Z" fill="#FB7844"/>
<path d="M207.946 278.199H216.406V269.739H207.946V278.199Z" fill="#FB7844"/>
<path d="M199.537 278.199H207.997V269.739H199.537V278.199Z" fill="#FB7844"/>
<path d="M191.125 278.199H199.586V269.739H191.125V278.199Z" fill="#FB7844"/>
<path d="M182.716 278.199H191.177V269.739H182.716V278.199Z" fill="#FB7844"/>
<path d="M174.307 278.199H182.768V269.739H174.307V278.199Z" fill="#FB7844"/>
<path d="M165.879 278.199H174.34V269.739H165.879V278.199Z" fill="#FB7844"/>
<path d="M157.47 278.199H165.931V269.739H157.47V278.199Z" fill="#FB7844"/>
<path d="M149.061 278.199H157.521V269.739H149.061V278.199Z" fill="#FB7844"/>
<path d="M140.65 278.199H149.11V269.739H140.65V278.199Z" fill="#FFAC8F"/>
<path d="M132.241 278.199H140.701V269.739H132.241V278.199Z" fill="#FFAC8F"/>
<path d="M123.831 278.199H132.292V269.739H123.831V278.199Z" fill="black"/>
<path d="M115.422 278.199H123.883V269.739H115.422V278.199Z" fill="black"/>
<path d="M165.982 269.739H157.521V278.2H165.982V269.739Z" fill="#FB7844"/>
<path d="M174.391 269.739H165.931V278.2H174.391V269.739Z" fill="#FB7844"/>
<path d="M182.8 269.739H174.34V278.2H182.8V269.739Z" fill="#FB7844"/>
<path d="M191.211 269.739H182.75V278.2H191.211V269.739Z" fill="#FB7844"/>
<path d="M199.621 269.739H191.16V278.2H199.621V269.739Z" fill="#FB7844"/>
<path d="M208.031 269.739H199.57V278.2H208.031V269.739Z" fill="#FB7844"/>
<path d="M216.44 269.739H207.979V278.2H216.44V269.739Z" fill="#FB7844"/>
<path d="M224.85 269.739H216.39V278.2H224.85V269.739Z" fill="#FB7844"/>
<path d="M233.158 269.772H241.618V261.312H233.158V269.772Z" fill="black"/>
<path d="M224.765 269.772H233.226V261.312H224.765V269.772Z" fill="black"/>
<path d="M216.356 269.772H224.816V261.312H216.356V269.772Z" fill="#FB7844"/>
<path d="M207.946 269.772H216.406V261.312H207.946V269.772Z" fill="#FB7844"/>
<path d="M199.537 269.772H207.997V261.312H199.537V269.772Z" fill="#FB7844"/>
<path d="M191.125 269.772H199.586V261.312H191.125V269.772Z" fill="#FB7844"/>
<path d="M182.716 269.772H191.177V261.312H182.716V269.772Z" fill="#FB7844"/>
<path d="M174.307 269.772H182.768V261.312H174.307V269.772Z" fill="#FB7844"/>
<path d="M165.879 269.772H174.34V261.312H165.879V269.772Z" fill="#FB7844"/>
<path d="M157.47 269.772H165.931V261.312H157.47V269.772Z" fill="#FB7844"/>
<path d="M149.061 269.772H157.521V261.312H149.061V269.772Z" fill="#FB7844"/>
<path d="M140.65 269.772H149.11V261.312H140.65V269.772Z" fill="black"/>
<path d="M132.241 269.772H140.701V261.312H132.241V269.772Z" fill="black"/>
<path d="M165.982 261.33H157.521V269.791H165.982V261.33Z" fill="#E96739"/>
<path d="M174.391 261.33H165.931V269.791H174.391V261.33Z" fill="#E96739"/>
<path d="M182.8 261.33H174.34V269.791H182.8V261.33Z" fill="#E96739"/>
<path d="M191.211 261.33H182.75V269.791H191.211V261.33Z" fill="#E96739"/>
<path d="M199.621 261.33H191.16V269.791H199.621V261.33Z" fill="#E96739"/>
<path d="M208.031 261.33H199.57V269.791H208.031V261.33Z" fill="#E96739"/>
<path d="M216.44 261.33H207.979V269.791H216.44V261.33Z" fill="#FB7844"/>
<path d="M224.85 261.33H216.39V269.791H224.85V261.33Z" fill="#FB7844"/>
<path d="M216.423 261.48H207.963V269.941H216.423V261.48Z" fill="black"/>
<path d="M224.833 261.48H216.372V269.941H224.833V261.48Z" fill="#DAD6D0"/>
<path d="M233.242 261.48H224.781V269.941H233.242V261.48Z" fill="#DAD6D0"/>
<path d="M241.653 261.48H233.192V269.941H241.653V261.48Z" fill="#DAD6D0"/>
<path d="M216.423 269.925H207.963V278.385H216.423V269.925Z" fill="black"/>
<path d="M224.833 269.925H216.372V278.385H224.833V269.925Z" fill="black"/>
<path d="M233.242 269.925H224.781V278.385H233.242V269.925Z" fill="black"/>
<path d="M241.653 269.925H233.192V278.385H241.653V269.925Z" fill="black"/>
<path d="M250.113 261.48H241.652V269.941H250.113V261.48Z" fill="black"/>
<path d="M250.113 269.925H241.652V278.385H250.113V269.925Z" fill="black"/>
<path d="M216.356 261.363H224.816V252.903H216.356V261.363Z" fill="black"/>
<path d="M207.946 261.363H216.406V252.903H207.946V261.363Z" fill="black"/>
<path d="M199.537 261.363H207.997V252.903H199.537V261.363Z" fill="black"/>
<path d="M191.125 261.363H199.586V252.903H191.125V261.363Z" fill="#FB7844"/>
<path d="M182.716 261.363H191.177V252.903H182.716V261.363Z" fill="#FB7844"/>
<path d="M174.307 261.363H182.768V252.903H174.307V261.363Z" fill="#FB7844"/>
<path d="M165.879 261.363H174.34V252.903H165.879V261.363Z" fill="#FB7844"/>
<path d="M157.47 261.363H165.931V252.903H157.47V261.363Z" fill="black"/>
<path d="M149.061 261.363H157.521V252.903H149.061V261.363Z" fill="black"/>
<path d="M165.982 252.903H157.521V261.364H165.982V252.903Z" fill="black"/>
<path d="M174.391 252.903H165.931V261.364H174.391V252.903Z" fill="#FB7844"/>
<path d="M182.8 252.903H174.34V261.364H182.8V252.903Z" fill="#FB7844"/>
<path d="M191.211 252.903H182.75V261.364H191.211V252.903Z" fill="#FB7844"/>
<path d="M199.621 252.903H191.16V261.364H199.621V252.903Z" fill="#FB7844"/>
<path d="M208.031 252.903H199.57V261.364H208.031V252.903Z" fill="black"/>
<path d="M216.44 252.903H207.979V261.364H216.44V252.903Z" fill="black"/>
<path d="M224.85 252.903H216.39V261.364H224.85V252.903Z" fill="black"/>
<path d="M191.125 252.953H199.586V244.493H191.125V252.953Z" fill="black"/>
<path d="M182.716 252.953H191.177V244.493H182.716V252.953Z" fill="black"/>
<path d="M174.307 252.953H182.768V244.493H174.307V252.953Z" fill="black"/>
<path d="M165.879 252.953H174.34V244.493H165.879V252.953Z" fill="black"/>
<path d="M174.391 244.493H165.931V252.954H174.391V244.493Z" fill="black"/>
<path d="M182.8 244.493H174.34V252.954H182.8V244.493Z" fill="black"/>
<path d="M191.211 244.493H182.75V252.954H191.211V244.493Z" fill="black"/>
<path d="M199.621 244.493H191.16V252.954H199.621V244.493Z" fill="black"/>
<path d="M166.081 20.0524V11.6426H157.671V20.0524H166.081Z" fill="#DDF8FF"/>
<path d="M174.492 20.0523V11.6426H166.082V20.0523H174.492Z" fill="#DDF8FF"/>
<path d="M182.918 20.0524V11.6426H174.508V20.0524H182.918Z" fill="#DDF8FF"/>
<path d="M191.327 20.069V11.6592H182.917V20.069H191.327Z" fill="#DDF8FF"/>
<path d="M199.755 20.0523V11.6426H191.345V20.0523H199.755Z" fill="#DDF8FF"/>
<path d="M208.164 20.069V11.6592H199.754V20.069H208.164Z" fill="#DDF8FF"/>
<path d="M216.592 20.0524V11.6426H208.182V20.0524H216.592Z" fill="#DDF8FF"/>
<path d="M225.018 20.069V11.6592H216.608V20.069H225.018Z" fill="#DDF8FF"/>
<path d="M233.429 20.0524V11.6426H225.019V20.0524H233.429Z" fill="#DDF8FF"/>
<path d="M241.854 20.069V11.6592H233.445V20.069H241.854Z" fill="#DDF8FF"/>
<path d="M250.264 20.0523V11.6426H241.854V20.0523H250.264Z" fill="#DDF8FF"/>
<path d="M258.691 20.0524V11.6426H250.282V20.0524H258.691Z" fill="#DDF8FF"/>
<path d="M267.101 20.0523V11.6426H258.691V20.0523H267.101Z" fill="#DDF8FF"/>
<path d="M266.34 28.3936H274.75V19.9838H266.34V28.3936Z" fill="#DDF8FF"/>
<path d="M149.246 28.3775V19.9678H140.836V28.3775H149.246Z" fill="#DDF8FF"/>
<path d="M157.655 28.3775V19.9678H149.246V28.3775H157.655Z" fill="#DDF8FF"/>
<path d="M157.655 25.2125V16.8027H149.246V25.2125H157.655Z" fill="#DDF8FF"/>
<path d="M166.081 28.3775V19.9678H157.671V28.3775H166.081Z" fill="#DDF8FF"/>
<path d="M174.492 28.3775V19.9678H166.082V28.3775H174.492Z" fill="#DDF8FF"/>
<path d="M182.918 28.3775V19.9678H174.508V28.3775H182.918Z" fill="#DDF8FF"/>
<path d="M191.327 28.3932V19.9834H182.917V28.3932H191.327Z" fill="#DDF8FF"/>
<path d="M199.755 28.3775V19.9678H191.345V28.3775H199.755Z" fill="#DDF8FF"/>
<path d="M208.164 28.3932V19.9834H199.754V28.3932H208.164Z" fill="#DDF8FF"/>
<path d="M216.592 28.3775V19.9678H208.182V28.3775H216.592Z" fill="#DDF8FF"/>
<path d="M225.018 28.3932V19.9834H216.608V28.3932H225.018Z" fill="#DDF8FF"/>
<path d="M233.429 28.3775V19.9678H225.019V28.3775H233.429Z" fill="#DDF8FF"/>
<path d="M241.854 28.3932V19.9834H233.445V28.3932H241.854Z" fill="#DDF8FF"/>
<path d="M250.264 28.3775V19.9678H241.854V28.3775H250.264Z" fill="#DDF8FF"/>
<path d="M258.691 28.3775V19.9678H250.282V28.3775H258.691Z" fill="#DDF8FF"/>
<path d="M267.101 28.3775V19.9678H258.691V28.3775H267.101Z" fill="#DDF8FF"/>
<path d="M274.749 36.7188H283.159V28.309H274.749V36.7188Z" fill="#DDF8FF"/>
<path d="M266.34 36.7188H274.75V28.309H266.34V36.7188Z" fill="#DDF8FF"/>
<path d="M149.246 36.7018V28.292H140.836V36.7018H149.246Z" fill="#DDF8FF"/>
<path d="M157.655 36.7018V28.292H149.245V36.7018H157.655Z" fill="#DDF8FF"/>
<path d="M166.081 36.7018V28.292H157.671V36.7018H166.081Z" fill="#DDF8FF"/>
<path d="M174.492 36.7018V28.292H166.082V36.7018H174.492Z" fill="#DDF8FF"/>
<path d="M182.918 36.7018V28.292H174.508V36.7018H182.918Z" fill="#DDF8FF"/>
<path d="M191.327 36.7184V28.3086H182.917V36.7184H191.327Z" fill="#DDF8FF"/>
<path d="M199.755 36.7018V28.292H191.345V36.7018H199.755Z" fill="#DDF8FF"/>
<path d="M208.164 36.7184V28.3086H199.754V36.7184H208.164Z" fill="#DDF8FF"/>
<path d="M216.592 36.7018V28.292H208.182V36.7018H216.592Z" fill="#DDF8FF"/>
<path d="M225.018 36.7184V28.3086H216.608V36.7184H225.018Z" fill="#DDF8FF"/>
<path d="M233.429 36.7018V28.292H225.019V36.7018H233.429Z" fill="#DDF8FF"/>
<path d="M241.854 36.7018V28.292H233.445V36.7018H241.854Z" fill="#DDF8FF"/>
<path d="M250.264 36.7018V28.292H241.854V36.7018H250.264Z" fill="#DDF8FF"/>
<path d="M258.691 36.7018V28.292H250.282V36.7018H258.691Z" fill="#DDF8FF"/>
<path d="M267.101 36.7017V28.292H258.691V36.7017H267.101Z" fill="#DDF8FF"/>
<path d="M274.749 45.0439H283.159V36.6342H274.749V45.0439Z" fill="#DDF8FF"/>
<path d="M266.34 45.0439H274.75V36.6342H266.34V45.0439Z" fill="#DDF8FF"/>
<path d="M283.107 45.0439H291.517V36.6342H283.107V45.0439Z" fill="#DDF8FF"/>
<path d="M140.818 45.027V36.6172H132.409V45.027H140.818Z" fill="#DDF8FF"/>
<path d="M149.246 45.027V36.6172H140.836V45.027H149.246Z" fill="#DDF8FF"/>
<path d="M157.655 45.027V36.6172H149.245V45.027H157.655Z" fill="#DDF8FF"/>
<path d="M166.081 45.027V36.6172H157.671V45.027H166.081Z" fill="#DDF8FF"/>
<path d="M174.492 45.0269V36.6172H166.082V45.0269H174.492Z" fill="#DDF8FF"/>
<path d="M182.918 45.027V36.6172H174.508V45.027H182.918Z" fill="#DDF8FF"/>
<path d="M191.327 45.0445V36.6348H182.917V45.0445H191.327Z" fill="#DDF8FF"/>
<path d="M199.755 45.0269V36.6172H191.345V45.0269H199.755Z" fill="#DDF8FF"/>
<path d="M208.164 45.0445V36.6348H199.754V45.0445H208.164Z" fill="#DDF8FF"/>
<path d="M216.592 45.027V36.6172H208.182V45.027H216.592Z" fill="#DDF8FF"/>
<path d="M225.018 45.0445V36.6348H216.608V45.0445H225.018Z" fill="#DDF8FF"/>
<path d="M233.429 45.027V36.6172H225.019V45.027H233.429Z" fill="#DDF8FF"/>
<path d="M241.854 45.027V36.6172H233.445V45.027H241.854Z" fill="#DDF8FF"/>
<path d="M250.264 45.0269V36.6172H241.854V45.0269H250.264Z" fill="#DDF8FF"/>
<path d="M258.691 45.027V36.6172H250.282V45.027H258.691Z" fill="#DDF8FF"/>
<path d="M267.101 45.0269V36.6172H258.691V45.0269H267.101Z" fill="#DDF8FF"/>
<path d="M274.749 53.3691H283.159V44.9594H274.749V53.3691Z" fill="#DDF8FF"/>
<path d="M266.34 53.3691H274.75V44.9594H266.34V53.3691Z" fill="#DDF8FF"/>
<path d="M283.107 53.3691H291.517V44.9594H283.107V53.3691Z" fill="#DDF8FF"/>
<path d="M291.501 53.3691H299.911V44.9594H291.501V53.3691Z" fill="#DDF8FF"/>
<path d="M132.393 53.3522V44.9424H123.983V53.3522H132.393Z" fill="#DDF8FF"/>
<path d="M166.081 16.8199V8.41016H157.671V16.8199H166.081Z" fill="#DDF8FF"/>
<path d="M174.492 16.8199V8.41016H166.082V16.8199H174.492Z" fill="#DDF8FF"/>
<path d="M182.918 16.8199V8.41016H174.508V16.8199H182.918Z" fill="#DDF8FF"/>
<path d="M191.327 16.8365V8.42676H182.917V16.8365H191.327Z" fill="#DDF8FF"/>
<path d="M199.755 16.8199V8.41016H191.345V16.8199H199.755Z" fill="#DDF8FF"/>
<path d="M208.164 16.8199V8.41016H199.754V16.8199H208.164Z" fill="#DDF8FF"/>
<path d="M216.592 16.8199V8.41016H208.182V16.8199H216.592Z" fill="#DDF8FF"/>
<path d="M225.001 16.8199V8.41016H216.591V16.8199H225.001Z" fill="#DDF8FF"/>
<path d="M233.429 16.8199V8.41016H225.019V16.8199H233.429Z" fill="#DDF8FF"/>
<path d="M241.838 16.8199V8.41016H233.428V16.8199H241.838Z" fill="#DDF8FF"/>
<path d="M250.264 16.8199V8.41016H241.854V16.8199H250.264Z" fill="#DDF8FF"/>
<path d="M258.675 16.8199V8.41016H250.265V16.8199H258.675Z" fill="#DDF8FF"/>
<path d="M267.101 16.8199V8.41016H258.691V16.8199H267.101Z" fill="#DDF8FF"/>
<path d="M266.34 25.1621H274.75V16.7523H266.34V25.1621Z" fill="#DDF8FF"/>
<path d="M274.749 33.4873H283.159V25.0775H274.749V33.4873Z" fill="#DDF8FF"/>
<path d="M283.107 41.8125H291.517V33.4027H283.107V41.8125Z" fill="#DDF8FF"/>
<path d="M140.802 41.7945V33.3848H132.392V41.7945H140.802Z" fill="#DDF8FF"/>
<path d="M291.501 50.1377H299.911V41.7279H291.501V50.1377Z" fill="#DDF8FF"/>
<path d="M132.375 50.1207V41.7109H123.965V50.1207H132.375Z" fill="#DDF8FF"/>
<path d="M140.818 53.3522V44.9424H132.409V53.3522H140.818Z" fill="#DDF8FF"/>
<path d="M149.246 53.3522V44.9424H140.836V53.3522H149.246Z" fill="#DDF8FF"/>
<path d="M157.655 53.3522V44.9424H149.245V53.3522H157.655Z" fill="#DDF8FF"/>
<path d="M166.081 53.3522V44.9424H157.671V53.3522H166.081Z" fill="#DDF8FF"/>
<path d="M174.492 53.3521V44.9424H166.082V53.3521H174.492Z" fill="#DDF8FF"/>
<path d="M182.918 53.3522V44.9424H174.508V53.3522H182.918Z" fill="#DDF8FF"/>
<path d="M191.327 53.3697V44.96H182.917V53.3697H191.327Z" fill="#DDF8FF"/>
<path d="M199.755 53.3521V44.9424H191.345V53.3521H199.755Z" fill="#DDF8FF"/>
<path d="M208.164 53.3697V44.96H199.754V53.3697H208.164Z" fill="#DDF8FF"/>
<path d="M216.592 53.3522V44.9424H208.182V53.3522H216.592Z" fill="#DDF8FF"/>
<path d="M225.018 53.3697V44.96H216.608V53.3697H225.018Z" fill="#DDF8FF"/>
<path d="M233.429 53.3522V44.9424H225.019V53.3522H233.429Z" fill="#DDF8FF"/>
<path d="M241.854 53.3522V44.9424H233.445V53.3522H241.854Z" fill="#DDF8FF"/>
<path d="M250.264 53.3521V44.9424H241.854V53.3521H250.264Z" fill="#DDF8FF"/>
<path d="M258.691 53.3522V44.9424H250.282V53.3522H258.691Z" fill="#DDF8FF"/>
<path d="M267.101 53.3521V44.9424H258.691V53.3521H267.101Z" fill="#DDF8FF"/>
<path d="M274.749 61.6953H283.159V53.2855H274.749V61.6953Z" fill="#DDF8FF"/>
<path d="M266.34 61.6953H274.75V53.2855H266.34V61.6953Z" fill="#DDF8FF"/>
<path d="M283.107 61.6953H291.517V53.2855H283.107V61.6953Z" fill="#DDF8FF"/>
<path d="M291.501 61.6953H299.911V53.2855H291.501V61.6953Z" fill="#DDF8FF"/>
<path d="M132.393 61.6774V53.2676H123.983V61.6774H132.393Z" fill="#DDF8FF"/>
<path d="M140.818 61.6774V53.2676H132.409V61.6774H140.818Z" fill="#DDF8FF"/>
<path d="M149.246 61.6774V53.2676H140.836V61.6774H149.246Z" fill="#DDF8FF"/>
<path d="M157.655 61.6774V53.2676H149.245V61.6774H157.655Z" fill="#DDF8FF"/>
<path d="M166.081 61.6774V53.2676H157.671V61.6774H166.081Z" fill="#DDF8FF"/>
<path d="M174.492 61.6773V53.2676H166.082V61.6773H174.492Z" fill="#DDF8FF"/>
<path d="M182.918 61.6774V53.2676H174.508V61.6774H182.918Z" fill="#DDF8FF"/>
<path d="M191.327 61.6949V53.2852H182.917V61.6949H191.327Z" fill="#DDF8FF"/>
<path d="M199.755 61.6773V53.2676H191.345V61.6773H199.755Z" fill="#DDF8FF"/>
<path d="M208.164 61.6949V53.2852H199.754V61.6949H208.164Z" fill="#DDF8FF"/>
<path d="M216.592 61.6774V53.2676H208.182V61.6774H216.592Z" fill="#DDF8FF"/>
<path d="M225.018 61.6949V53.2852H216.608V61.6949H225.018Z" fill="#DDF8FF"/>
<path d="M233.429 61.6774V53.2676H225.019V61.6774H233.429Z" fill="#DDF8FF"/>
<path d="M241.854 61.6774V53.2676H233.445V61.6774H241.854Z" fill="#DDF8FF"/>
<path d="M250.264 61.6773V53.2676H241.854V61.6773H250.264Z" fill="#DDF8FF"/>
<path d="M258.691 61.6783V53.2686H250.282V61.6783H258.691Z" fill="#DDF8FF"/>
<path d="M267.101 61.6783V53.2686H258.691V61.6783H267.101Z" fill="#DDF8FF"/>
<path d="M274.749 70.0195H283.159V61.6098H274.749V70.0195Z" fill="#DDF8FF"/>
<path d="M266.34 70.0195H274.75V61.6098H266.34V70.0195Z" fill="#DDF8FF"/>
<path d="M283.107 70.0195H291.517V61.6098H283.107V70.0195Z" fill="#DDF8FF"/>
<path d="M291.501 70.0195H299.911V61.6098H291.501V70.0195Z" fill="#DDF8FF"/>
<path d="M132.393 70.0035V61.5938H123.983V70.0035H132.393Z" fill="#DDF8FF"/>
<path d="M140.818 70.0035V61.5938H132.409V70.0035H140.818Z" fill="#DDF8FF"/>
<path d="M149.246 70.0035V61.5938H140.836V70.0035H149.246Z" fill="#DDF8FF"/>
<path d="M157.655 70.0035V61.5938H149.246V70.0035H157.655Z" fill="#DDF8FF"/>
<path d="M166.081 70.0035V61.5938H157.671V70.0035H166.081Z" fill="#DDF8FF"/>
<path d="M174.492 70.0035V61.5938H166.082V70.0035H174.492Z" fill="#DDF8FF"/>
<path d="M182.918 70.0035V61.5938H174.508V70.0035H182.918Z" fill="#DDF8FF"/>
<path d="M191.327 70.0201V61.6104H182.917V70.0201H191.327Z" fill="#DDF8FF"/>
<path d="M199.755 70.0035V61.5938H191.345V70.0035H199.755Z" fill="#DDF8FF"/>
<path d="M208.164 70.0201V61.6104H199.754V70.0201H208.164Z" fill="#DDF8FF"/>
<path d="M216.592 70.0035V61.5938H208.182V70.0035H216.592Z" fill="#DDF8FF"/>
<path d="M225.018 70.0201V61.6104H216.608V70.0201H225.018Z" fill="#DDF8FF"/>
<path d="M233.429 70.0035V61.5938H225.019V70.0035H233.429Z" fill="#DDF8FF"/>
<path d="M241.854 70.0035V61.5938H233.445V70.0035H241.854Z" fill="#DDF8FF"/>
<path d="M250.264 70.0035V61.5938H241.854V70.0035H250.264Z" fill="#DDF8FF"/>
<path d="M258.691 70.0035V61.5938H250.282V70.0035H258.691Z" fill="#DDF8FF"/>
<path d="M267.101 70.0035V61.5938H258.691V70.0035H267.101Z" fill="#DDF8FF"/>
<path d="M274.749 78.3447H283.159V69.935H274.749V78.3447Z" fill="#DDF8FF"/>
<path d="M266.34 78.3447H274.75V69.935H266.34V78.3447Z" fill="#DDF8FF"/>
<path d="M283.107 78.3447H291.517V69.935H283.107V78.3447Z" fill="#DDF8FF"/>
<path d="M291.501 78.3447H299.911V69.935H291.501V78.3447Z" fill="#DDF8FF"/>
<path d="M132.393 78.3277V69.918H123.983V78.3277H132.393Z" fill="#DDF8FF"/>
<path d="M140.818 78.3277V69.918H132.409V78.3277H140.818Z" fill="#DDF8FF"/>
<path d="M149.246 78.3277V69.918H140.836V78.3277H149.246Z" fill="#DDF8FF"/>
<path d="M157.655 78.3277V69.918H149.245V78.3277H157.655Z" fill="#DDF8FF"/>
<path d="M166.081 78.3277V69.918H157.671V78.3277H166.081Z" fill="#DDF8FF"/>
<path d="M174.492 78.3277V69.918H166.082V78.3277H174.492Z" fill="#DDF8FF"/>
<path d="M182.918 78.3277V69.918H174.508V78.3277H182.918Z" fill="#DDF8FF"/>
<path d="M191.327 78.3443V69.9346H182.917V78.3443H191.327Z" fill="#DDF8FF"/>
<path d="M199.755 78.3277V69.918H191.345V78.3277H199.755Z" fill="#DDF8FF"/>
<path d="M208.164 78.3443V69.9346H199.754V78.3443H208.164Z" fill="#DDF8FF"/>
<path d="M216.592 78.3277V69.918H208.182V78.3277H216.592Z" fill="#DDF8FF"/>
<path d="M225.001 78.3443V69.9346H216.591V78.3443H225.001Z" fill="#DDF8FF"/>
<path d="M233.429 78.3277V69.918H225.019V78.3277H233.429Z" fill="#DDF8FF"/>
<path d="M241.854 78.3277V69.918H233.445V78.3277H241.854Z" fill="#DDF8FF"/>
<path d="M250.264 78.3277V69.918H241.854V78.3277H250.264Z" fill="#DDF8FF"/>
<path d="M258.691 78.3277V69.918H250.282V78.3277H258.691Z" fill="#DDF8FF"/>
<path d="M267.101 78.3277V69.918H258.691V78.3277H267.101Z" fill="#DDF8FF"/>
<path d="M274.749 86.6699H283.159V78.2602H274.749V86.6699Z" fill="#DDF8FF"/>
<path d="M266.34 86.6699H274.75V78.2602H266.34V86.6699Z" fill="#DDF8FF"/>
<path d="M283.107 86.6699H291.517V78.2602H283.107V86.6699Z" fill="#DDF8FF"/>
<path d="M291.501 86.6699H299.911V78.2602H291.501V86.6699Z" fill="#DDF8FF"/>
<path d="M132.393 86.6529V78.2432H123.983V86.6529H132.393Z" fill="#DDF8FF"/>
<path d="M140.818 86.6529V78.2432H132.409V86.6529H140.818Z" fill="#DDF8FF"/>
<path d="M149.246 86.6529V78.2432H140.836V86.6529H149.246Z" fill="#DDF8FF"/>
<path d="M157.655 86.6529V78.2432H149.246V86.6529H157.655Z" fill="#DDF8FF"/>
<path d="M166.081 86.6529V78.2432H157.671V86.6529H166.081Z" fill="#DDF8FF"/>
<path d="M174.492 86.6529V78.2432H166.082V86.6529H174.492Z" fill="#DDF8FF"/>
<path d="M182.918 86.6529V78.2432H174.508V86.6529H182.918Z" fill="#DDF8FF"/>
<path d="M191.327 86.6695V78.2598H182.917V86.6695H191.327Z" fill="#DDF8FF"/>
<path d="M199.755 86.6529V78.2432H191.345V86.6529H199.755Z" fill="#DDF8FF"/>
<path d="M208.164 86.6695V78.2598H199.754V86.6695H208.164Z" fill="#DDF8FF"/>
<path d="M216.592 86.6529V78.2432H208.182V86.6529H216.592Z" fill="#DDF8FF"/>
<path d="M225.001 86.6695V78.2598H216.591V86.6695H225.001Z" fill="#DDF8FF"/>
<path d="M233.429 86.6529V78.2432H225.019V86.6529H233.429Z" fill="#DDF8FF"/>
<path d="M241.854 86.6529V78.2432H233.445V86.6529H241.854Z" fill="#DDF8FF"/>
<path d="M250.264 86.6529V78.2432H241.854V86.6529H250.264Z" fill="#DDF8FF"/>
<path d="M258.691 86.6529V78.2432H250.282V86.6529H258.691Z" fill="#DDF8FF"/>
<path d="M267.101 86.6529V78.2432H258.691V86.6529H267.101Z" fill="#DDF8FF"/>
<path d="M274.749 94.9951H283.159V86.5853H274.749V94.9951Z" fill="#DDF8FF"/>
<path d="M266.34 94.9951H274.75V86.5853H266.34V94.9951Z" fill="#DDF8FF"/>
<path d="M283.107 94.9951H291.517V86.5853H283.107V94.9951Z" fill="#DDF8FF"/>
<path d="M291.501 94.9951H299.911V86.5853H291.501V94.9951Z" fill="#DDF8FF"/>
<path d="M132.393 94.9781V86.5684H123.983V94.9781H132.393Z" fill="#DDF8FF"/>
<path d="M140.818 94.9781V86.5684H132.409V94.9781H140.818Z" fill="#DDF8FF"/>
<path d="M149.246 94.9781V86.5684H140.836V94.9781H149.246Z" fill="#DDF8FF"/>
<path d="M157.655 94.9781V86.5684H149.245V94.9781H157.655Z" fill="#DDF8FF"/>
<path d="M166.081 94.9781V86.5684H157.671V94.9781H166.081Z" fill="#DDF8FF"/>
<path d="M174.492 94.9781V86.5684H166.082V94.9781H174.492Z" fill="#DDF8FF"/>
<path d="M182.918 94.9781V86.5684H174.508V94.9781H182.918Z" fill="#DDF8FF"/>
<path d="M191.327 94.9957V86.5859H182.917V94.9957H191.327Z" fill="#DDF8FF"/>
<path d="M199.755 94.9781V86.5684H191.345V94.9781H199.755Z" fill="#DDF8FF"/>
<path d="M208.164 94.9957V86.5859H199.754V94.9957H208.164Z" fill="#DDF8FF"/>
<path d="M216.592 94.9781V86.5684H208.182V94.9781H216.592Z" fill="#DDF8FF"/>
<path d="M225.001 94.9957V86.5859H216.591V94.9957H225.001Z" fill="#DDF8FF"/>
<path d="M233.429 94.9781V86.5684H225.019V94.9781H233.429Z" fill="#DDF8FF"/>
<path d="M241.854 94.9781V86.5684H233.445V94.9781H241.854Z" fill="#DDF8FF"/>
<path d="M250.264 94.9781V86.5684H241.854V94.9781H250.264Z" fill="#DDF8FF"/>
<path d="M258.691 94.9781V86.5684H250.282V94.9781H258.691Z" fill="#DDF8FF"/>
<path d="M267.101 94.9781V86.5684H258.691V94.9781H267.101Z" fill="#DDF8FF"/>
<path d="M274.749 103.32H283.159V94.9105H274.749V103.32Z" fill="#DDF8FF"/>
<path d="M266.34 103.32H274.75V94.9105H266.34V103.32Z" fill="#DDF8FF"/>
<path d="M283.107 103.32H291.517V94.9105H283.107V103.32Z" fill="#DDF8FF"/>
<path d="M291.501 103.32H299.911V94.9105H291.501V103.32Z" fill="#DDF8FF"/>
<path d="M132.393 103.303V94.8936H123.983V103.303H132.393Z" fill="#DDF8FF"/>
<path d="M140.818 103.303V94.8936H132.409V103.303H140.818Z" fill="#DDF8FF"/>
<path d="M149.246 103.303V94.8936H140.836V103.303H149.246Z" fill="#DDF8FF"/>
<path d="M157.655 103.303V94.8936H149.246V103.303H157.655Z" fill="#DDF8FF"/>
<path d="M166.081 103.303V94.8936H157.671V103.303H166.081Z" fill="#DDF8FF"/>
<path d="M174.492 103.303V94.8936H166.082V103.303H174.492Z" fill="#DDF8FF"/>
<path d="M182.918 103.303V94.8936H174.508V103.303H182.918Z" fill="#DDF8FF"/>
<path d="M191.327 103.321V94.9111H182.917V103.321H191.327Z" fill="#DDF8FF"/>
<path d="M199.755 103.303V94.8936H191.345V103.303H199.755Z" fill="#DDF8FF"/>
<path d="M208.164 103.321V94.9111H199.754V103.321H208.164Z" fill="#DDF8FF"/>
<path d="M216.592 103.303V94.8936H208.182V103.303H216.592Z" fill="#DDF8FF"/>
<path d="M225.001 103.321V94.9111H216.591V103.321H225.001Z" fill="#DDF8FF"/>
<path d="M233.429 103.303V94.8936H225.019V103.303H233.429Z" fill="#DDF8FF"/>
<path d="M241.854 103.303V94.8936H233.445V103.303H241.854Z" fill="#DDF8FF"/>
<path d="M250.264 103.303V94.8936H241.854V103.303H250.264Z" fill="#DDF8FF"/>
<path d="M258.691 103.303V94.8936H250.282V103.303H258.691Z" fill="#DDF8FF"/>
<path d="M267.101 103.303V94.8936H258.691V103.303H267.101Z" fill="#DDF8FF"/>
<path d="M274.749 111.646H283.159V103.236H274.749V111.646Z" fill="#DDF8FF"/>
<path d="M266.34 111.646H274.75V103.236H266.34V111.646Z" fill="#DDF8FF"/>
<path d="M283.107 111.646H291.517V103.236H283.107V111.646Z" fill="#DDF8FF"/>
<path d="M291.501 111.646H299.911V103.236H291.501V111.646Z" fill="#DDF8FF"/>
<path d="M132.393 111.629V103.219H123.983V111.629H132.393Z" fill="#DDF8FF"/>
<path d="M140.818 111.629V103.219H132.409V111.629H140.818Z" fill="#DDF8FF"/>
<path d="M149.246 111.629V103.219H140.836V111.629H149.246Z" fill="#DDF8FF"/>
<path d="M157.655 111.629V103.219H149.245V111.629H157.655Z" fill="#DDF8FF"/>
<path d="M166.081 111.629V103.219H157.671V111.629H166.081Z" fill="#DDF8FF"/>
<path d="M174.492 111.629V103.219H166.082V111.629H174.492Z" fill="#DDF8FF"/>
<path d="M182.918 111.629V103.219H174.508V111.629H182.918Z" fill="#DDF8FF"/>
<path d="M191.327 111.646V103.236H182.917V111.646H191.327Z" fill="#DDF8FF"/>
<path d="M199.755 111.629V103.219H191.345V111.629H199.755Z" fill="#DDF8FF"/>
<path d="M208.164 111.646V103.236H199.754V111.646H208.164Z" fill="#DDF8FF"/>
<path d="M216.592 111.629V103.219H208.182V111.629H216.592Z" fill="#DDF8FF"/>
<path d="M225.001 111.629V103.219H216.591V111.629H225.001Z" fill="#DDF8FF"/>
<path d="M233.429 111.629V103.219H225.019V111.629H233.429Z" fill="#DDF8FF"/>
<path d="M241.854 111.629V103.219H233.445V111.629H241.854Z" fill="#DDF8FF"/>
<path d="M250.264 111.629V103.219H241.854V111.629H250.264Z" fill="#DDF8FF"/>
<path d="M258.691 111.629V103.219H250.282V111.629H258.691Z" fill="#DDF8FF"/>
<path d="M267.101 111.628V103.219H258.691V111.628H267.101Z" fill="#DDF8FF"/>
<path d="M274.749 119.971H283.159V111.561H274.749V119.971Z" fill="#DDF8FF"/>
<path d="M266.34 119.971H274.75V111.561H266.34V119.971Z" fill="#DDF8FF"/>
<path d="M283.107 119.971H291.517V111.561H283.107V119.971Z" fill="#DDF8FF"/>
<path d="M291.501 119.971H299.911V111.561H291.501V119.971Z" fill="#DDF8FF"/>
<path d="M132.393 119.954V111.544H123.983V119.954H132.393Z" fill="#DDF8FF"/>
<path d="M140.818 119.954V111.544H132.409V119.954H140.818Z" fill="#DDF8FF"/>
<path d="M149.246 119.954V111.544H140.836V119.954H149.246Z" fill="#DDF8FF"/>
<path d="M157.655 119.954V111.544H149.245V119.954H157.655Z" fill="#DDF8FF"/>
<path d="M166.081 119.954V111.544H157.671V119.954H166.081Z" fill="#DDF8FF"/>
<path d="M174.492 119.954V111.544H166.082V119.954H174.492Z" fill="#DDF8FF"/>
<path d="M182.918 119.954V111.544H174.508V119.954H182.918Z" fill="#DDF8FF"/>
<path d="M191.327 119.97V111.561H182.917V119.97H191.327Z" fill="#DDF8FF"/>
<path d="M199.755 119.954V111.544H191.345V119.954H199.755Z" fill="#DDF8FF"/>
<path d="M208.164 119.97V111.561H199.754V119.97H208.164Z" fill="#DDF8FF"/>
<path d="M216.592 119.954V111.544H208.182V119.954H216.592Z" fill="#DDF8FF"/>
<path d="M225.001 119.954V111.544H216.591V119.954H225.001Z" fill="#DDF8FF"/>
<path d="M233.429 119.954V111.544H225.019V119.954H233.429Z" fill="#DDF8FF"/>
<path d="M241.854 119.954V111.544H233.445V119.954H241.854Z" fill="#DDF8FF"/>
<path d="M250.264 119.954V111.544H241.854V119.954H250.264Z" fill="#DDF8FF"/>
<path d="M258.691 119.954V111.544H250.282V119.954H258.691Z" fill="#DDF8FF"/>
<path d="M267.101 119.954V111.544H258.691V119.954H267.101Z" fill="#DDF8FF"/>
<path d="M274.749 128.296H283.159V119.886H274.749V128.296Z" fill="#DDF8FF"/>
<path d="M266.34 128.296H274.75V119.886H266.34V128.296Z" fill="#DDF8FF"/>
<path d="M283.107 128.296H291.517V119.886H283.107V128.296Z" fill="#DDF8FF"/>
<path d="M291.501 128.296H299.911V119.886H291.501V128.296Z" fill="#DDF8FF"/>
<path d="M132.393 128.279V119.869H123.983V128.279H132.393Z" fill="#DDF8FF"/>
<path d="M140.818 128.279V119.869H132.409V128.279H140.818Z" fill="#DDF8FF"/>
<path d="M149.246 128.279V119.869H140.836V128.279H149.246Z" fill="#DDF8FF"/>
<path d="M157.655 128.279V119.869H149.245V128.279H157.655Z" fill="#DDF8FF"/>
<path d="M166.081 128.279V119.869H157.671V128.279H166.081Z" fill="#DDF8FF"/>
<path d="M174.492 128.279V119.869H166.082V128.279H174.492Z" fill="#DDF8FF"/>
<path d="M182.918 128.279V119.869H174.508V128.279H182.918Z" fill="#DDF8FF"/>
<path d="M191.327 128.296V119.886H182.917V128.296H191.327Z" fill="#DDF8FF"/>
<path d="M199.755 128.279V119.869H191.345V128.279H199.755Z" fill="#DDF8FF"/>
<path d="M208.164 128.296V119.886H199.754V128.296H208.164Z" fill="#DDF8FF"/>
<path d="M216.592 128.279V119.869H208.182V128.279H216.592Z" fill="#DDF8FF"/>
<path d="M225.001 128.279V119.869H216.591V128.279H225.001Z" fill="#DDF8FF"/>
<path d="M233.429 128.279V119.869H225.019V128.279H233.429Z" fill="#DDF8FF"/>
<path d="M241.854 128.279V119.869H233.445V128.279H241.854Z" fill="#DDF8FF"/>
<path d="M250.264 128.279V119.869H241.854V128.279H250.264Z" fill="#DDF8FF"/>
<path d="M258.691 128.279V119.869H250.282V128.279H258.691Z" fill="#DDF8FF"/>
<path d="M267.101 128.279V119.869H258.691V128.279H267.101Z" fill="#DDF8FF"/>
<path d="M274.749 136.621H283.159V128.211H274.749V136.621Z" fill="#DDF8FF"/>
<path d="M266.34 136.621H274.75V128.211H266.34V136.621Z" fill="#DDF8FF"/>
<path d="M283.107 136.621H291.517V128.211H283.107V136.621Z" fill="#DDF8FF"/>
<path d="M291.501 136.621H299.911V128.211H291.501V136.621Z" fill="#DDF8FF"/>
<path d="M132.393 136.604V128.194H123.983V136.604H132.393Z" fill="#DDF8FF"/>
<path d="M140.818 136.604V128.194H132.409V136.604H140.818Z" fill="#DDF8FF"/>
<path d="M149.246 136.604V128.194H140.836V136.604H149.246Z" fill="#DDF8FF"/>
<path d="M157.655 136.604V128.194H149.245V136.604H157.655Z" fill="#DDF8FF"/>
<path d="M166.081 136.604V128.194H157.671V136.604H166.081Z" fill="#DDF8FF"/>
<path d="M174.492 136.604V128.194H166.082V136.604H174.492Z" fill="#DDF8FF"/>
<path d="M182.918 136.604V128.194H174.508V136.604H182.918Z" fill="#DDF8FF"/>
<path d="M191.327 136.621V128.211H182.917V136.621H191.327Z" fill="#DDF8FF"/>
<path d="M199.755 136.604V128.194H191.345V136.604H199.755Z" fill="#DDF8FF"/>
<path d="M208.164 136.621V128.211H199.754V136.621H208.164Z" fill="#DDF8FF"/>
<path d="M216.592 136.604V128.194H208.182V136.604H216.592Z" fill="#DDF8FF"/>
<path d="M225.001 136.604V128.194H216.591V136.604H225.001Z" fill="#DDF8FF"/>
<path d="M233.429 136.604V128.194H225.019V136.604H233.429Z" fill="#DDF8FF"/>
<path d="M241.854 136.604V128.194H233.445V136.604H241.854Z" fill="#DDF8FF"/>
<path d="M250.264 136.604V128.194H241.854V136.604H250.264Z" fill="#DDF8FF"/>
<path d="M258.691 136.604V128.194H250.282V136.604H258.691Z" fill="#DDF8FF"/>
<path d="M267.101 136.604V128.194H258.691V136.604H267.101Z" fill="#DDF8FF"/>
<path d="M274.749 144.946H283.159V136.537H274.749V144.946Z" fill="#DDF8FF"/>
<path d="M266.34 144.946H274.75V136.537H266.34V144.946Z" fill="#DDF8FF"/>
<path d="M283.107 144.946H291.517V136.537H283.107V144.946Z" fill="#DDF8FF"/>
<path d="M291.501 144.946H299.911V136.537H291.501V144.946Z" fill="#DDF8FF"/>
<path d="M132.393 144.929V136.52H123.983V144.929H132.393Z" fill="#DDF8FF"/>
<path d="M140.818 144.929V136.52H132.409V144.929H140.818Z" fill="#DDF8FF"/>
<path d="M149.246 144.929V136.52H140.836V144.929H149.246Z" fill="#DDF8FF"/>
<path d="M157.655 144.929V136.52H149.245V144.929H157.655Z" fill="#DDF8FF"/>
<path d="M166.081 144.929V136.52H157.671V144.929H166.081Z" fill="#DDF8FF"/>
<path d="M174.492 144.929V136.52H166.082V144.929H174.492Z" fill="#DDF8FF"/>
<path d="M182.918 144.929V136.52H174.508V144.929H182.918Z" fill="#DDF8FF"/>
<path d="M191.327 144.947V136.537H182.917V144.947H191.327Z" fill="#DDF8FF"/>
<path d="M199.755 144.929V136.52H191.345V144.929H199.755Z" fill="#DDF8FF"/>
<path d="M208.164 144.947V136.537H199.754V144.947H208.164Z" fill="#DDF8FF"/>
<path d="M216.592 144.929V136.52H208.182V144.929H216.592Z" fill="#DDF8FF"/>
<path d="M225.001 144.929V136.52H216.591V144.929H225.001Z" fill="#DDF8FF"/>
<path d="M233.429 144.929V136.52H225.019V144.929H233.429Z" fill="#DDF8FF"/>
<path d="M241.854 144.929V136.52H233.445V144.929H241.854Z" fill="#DDF8FF"/>
<path d="M250.264 144.929V136.52H241.854V144.929H250.264Z" fill="#DDF8FF"/>
<path d="M258.691 144.929V136.52H250.282V144.929H258.691Z" fill="#DDF8FF"/>
<path d="M267.101 144.929V136.52H258.691V144.929H267.101Z" fill="#DDF8FF"/>
<path d="M274.749 153.271H283.159V144.862H274.749V153.271Z" fill="#DDF8FF"/>
<path d="M266.34 153.271H274.75V144.862H266.34V153.271Z" fill="#DDF8FF"/>
<path d="M283.107 153.271H291.517V144.862H283.107V153.271Z" fill="#DDF8FF"/>
<path d="M140.818 153.255V144.845H132.409V153.255H140.818Z" fill="#DDF8FF"/>
<path d="M149.246 153.255V144.845H140.836V153.255H149.246Z" fill="#DDF8FF"/>
<path d="M157.655 153.255V144.845H149.245V153.255H157.655Z" fill="#DDF8FF"/>
<path d="M166.081 153.255V144.845H157.671V153.255H166.081Z" fill="#DDF8FF"/>
<path d="M174.492 153.254V144.845H166.082V153.254H174.492Z" fill="#DDF8FF"/>
<path d="M182.918 153.255V144.845H174.508V153.255H182.918Z" fill="#DDF8FF"/>
<path d="M191.327 153.272V144.862H182.917V153.272H191.327Z" fill="#DDF8FF"/>
<path d="M199.755 153.254V144.845H191.345V153.254H199.755Z" fill="#DDF8FF"/>
<path d="M208.164 153.272V144.862H199.754V153.272H208.164Z" fill="#DDF8FF"/>
<path d="M216.592 153.255V144.845H208.182V153.255H216.592Z" fill="#DDF8FF"/>
<path d="M225.001 153.255V144.845H216.591V153.255H225.001Z" fill="#DDF8FF"/>
<path d="M233.429 153.255V144.845H225.019V153.255H233.429Z" fill="#DDF8FF"/>
<path d="M241.838 153.255V144.845H233.428V153.255H241.838Z" fill="#DDF8FF"/>
<path d="M250.264 153.254V144.845H241.854V153.254H250.264Z" fill="#DDF8FF"/>
<path d="M258.691 153.255V144.845H250.282V153.255H258.691Z" fill="#DDF8FF"/>
<path d="M267.101 153.254V144.845H258.691V153.254H267.101Z" fill="#DDF8FF"/>
<path d="M274.749 161.597H283.159V153.187H274.749V161.597Z" fill="#DDF8FF"/>
<path d="M266.34 161.597H274.75V153.187H266.34V161.597Z" fill="#DDF8FF"/>
<path d="M149.246 161.58V153.17H140.836V161.58H149.246Z" fill="#DDF8FF"/>
<path d="M157.655 161.58V153.17H149.245V161.58H157.655Z" fill="#DDF8FF"/>
<path d="M166.081 161.58V153.17H157.671V161.58H166.081Z" fill="#DDF8FF"/>
<path d="M174.492 161.58V153.17H166.082V161.58H174.492Z" fill="#DDF8FF"/>
<path d="M182.918 161.58V153.17H174.508V161.58H182.918Z" fill="#DDF8FF"/>
<path d="M191.327 161.596V153.187H182.917V161.596H191.327Z" fill="#DDF8FF"/>
<path d="M199.755 161.58V153.17H191.345V161.58H199.755Z" fill="#DDF8FF"/>
<path d="M208.164 161.596V153.187H199.754V161.596H208.164Z" fill="#DDF8FF"/>
<path d="M216.592 161.58V153.17H208.182V161.58H216.592Z" fill="#DDF8FF"/>
<path d="M225.001 161.58V153.17H216.591V161.58H225.001Z" fill="#DDF8FF"/>
<path d="M233.429 161.58V153.17H225.019V161.58H233.429Z" fill="#DDF8FF"/>
<path d="M241.838 161.58V153.17H233.428V161.58H241.838Z" fill="#DDF8FF"/>
<path d="M250.264 161.58V153.17H241.854V161.58H250.264Z" fill="#DDF8FF"/>
<path d="M258.691 161.58V153.17H250.282V161.58H258.691Z" fill="#DDF8FF"/>
<path d="M267.101 161.58V153.17H258.691V161.58H267.101Z" fill="#DDF8FF"/>
<path d="M266.34 169.922H274.75V161.512H266.34V169.922Z" fill="#DDF8FF"/>
<path d="M157.655 169.905V161.495H149.245V169.905H157.655Z" fill="#DDF8FF"/>
<path d="M166.081 169.905V161.495H157.671V169.905H166.081Z" fill="#DDF8FF"/>
<path d="M174.492 169.905V161.495H166.082V169.905H174.492Z" fill="#DDF8FF"/>
<path d="M182.918 169.905V161.495H174.508V169.905H182.918Z" fill="#DDF8FF"/>
<path d="M191.327 169.921V161.512H182.917V169.921H191.327Z" fill="#DDF8FF"/>
<path d="M199.755 169.905V161.495H191.345V169.905H199.755Z" fill="#DDF8FF"/>
<path d="M208.164 169.921V161.512H199.754V169.921H208.164Z" fill="#DDF8FF"/>
<path d="M216.592 169.905V161.495H208.182V169.905H216.592Z" fill="#DDF8FF"/>
<path d="M225.001 169.905V161.495H216.591V169.905H225.001Z" fill="#DDF8FF"/>
<path d="M233.429 169.905V161.495H225.019V169.905H233.429Z" fill="#DDF8FF"/>
<path d="M241.838 169.905V161.495H233.428V169.905H241.838Z" fill="#DDF8FF"/>
<path d="M250.264 169.905V161.495H241.854V169.905H250.264Z" fill="#DDF8FF"/>
<path d="M258.691 169.905V161.495H250.282V169.905H258.691Z" fill="#DDF8FF"/>
<path d="M267.101 169.905V161.495H258.691V169.905H267.101Z" fill="#DDF8FF"/>
<path d="M274.749 168.737H283.159V160.328H274.749V168.737Z" fill="black"/>
<path d="M283.109 160.327H291.519V151.917H283.109V160.327Z" fill="black"/>
<path d="M291.501 151.9H299.911V143.491H291.501V151.9Z" fill="black"/>
<path d="M299.86 143.474H308.27V135.064H299.86V143.474Z" fill="black"/>
<path d="M299.86 135.047H308.27V126.637H299.86V135.047Z" fill="black"/>
<path d="M299.86 126.604H308.27V118.194H299.86V126.604Z" fill="black"/>
<path d="M299.86 118.16H308.27V109.75H299.86V118.16Z" fill="black"/>
<path d="M299.86 109.733H308.27V101.324H299.86V109.733Z" fill="black"/>
<path d="M299.86 101.289H308.27V92.8793H299.86V101.289Z" fill="black"/>
<path d="M299.86 92.8623H308.27V84.4525H299.86V92.8623Z" fill="black"/>
<path d="M299.86 84.4199H308.27V76.0101H299.86V84.4199Z" fill="black"/>
<path d="M299.86 75.9756H308.27V67.5658H299.86V75.9756Z" fill="black"/>
<path d="M299.86 67.5488H308.27V59.1391H299.86V67.5488Z" fill="black"/>
<path d="M299.86 59.1055H308.27V50.6957H299.86V59.1055Z" fill="black"/>
<path d="M115.556 143.474H123.966V135.064H115.556V143.474Z" fill="black"/>
<path d="M115.556 135.047H123.966V126.637H115.556V135.047Z" fill="black"/>
<path d="M115.556 126.604H123.966V118.194H115.556V126.604Z" fill="black"/>
<path d="M115.556 118.16H123.966V109.75H115.556V118.16Z" fill="black"/>
<path d="M115.556 109.733H123.966V101.324H115.556V109.733Z" fill="black"/>
<path d="M115.556 101.289H123.966V92.8793H115.556V101.289Z" fill="black"/>
<path d="M115.556 92.8623H123.966V84.4525H115.556V92.8623Z" fill="black"/>
<path d="M115.556 84.4199H123.966V76.0101H115.556V84.4199Z" fill="black"/>
<path d="M115.556 75.9756H123.966V67.5658H115.556V75.9756Z" fill="black"/>
<path d="M115.556 67.5488H123.966V59.1391H115.556V67.5488Z" fill="black"/>
<path d="M115.556 59.1055H123.966V50.6957H115.556V59.1055Z" fill="black"/>
<path d="M123.966 143.491V151.9H132.376V143.491H123.966Z" fill="black"/>
<path d="M132.393 151.917V160.327H140.802V151.917H132.393Z" fill="black"/>
<path d="M140.818 160.344V168.754H149.228V160.344H140.818Z" fill="black"/>
<path d="M274.749 25.2637H283.159V16.8539H274.749V25.2637Z" fill="black"/>
<path d="M266.34 16.8369H274.75V8.42714L266.34 8.42714V16.8369Z" fill="black"/>
<path d="M283.109 33.6729H291.519V25.2631H283.109V33.6729Z" fill="black"/>
<path d="M291.501 42.0996H299.911V33.6898H291.501V42.0996Z" fill="black"/>
<path d="M299.86 50.5264H308.27V42.1166H299.86V50.5264Z" fill="black"/>
<path d="M123.983 51.0509V42.0996H115.574V51.0509H123.983Z" fill="black"/>
<path d="M132.393 42.1002V33.6904H123.983V42.1002H132.393Z" fill="black"/>
<path d="M140.818 33.6559V25.2461H132.409V33.6559H140.818Z" fill="black"/>
<path d="M149.179 25.1793V16.7695H140.769V25.1793H149.179Z" fill="black"/>
<path d="M157.655 16.8199V8.41016H149.246V16.8199H157.655Z" fill="black"/>
<path d="M166.064 8.40977V0L157.655 0V8.40977H166.064Z" fill="black"/>
<path d="M174.492 8.40976V0L166.082 0V8.40976H174.492Z" fill="black"/>
<path d="M182.918 8.40977V0L174.508 0V8.40977H182.918Z" fill="black"/>
<path d="M191.329 8.40977V0L182.919 0V8.40977H191.329Z" fill="black"/>
<path d="M199.755 8.40976V0L191.345 0V8.40976H199.755Z" fill="black"/>
<path d="M208.166 8.40977V0L199.756 0V8.40977H208.166Z" fill="black"/>
<path d="M216.592 8.40977V0L208.182 0V8.40977H216.592Z" fill="black"/>
<path d="M225.001 8.40977V0L216.591 0V8.40977H225.001Z" fill="black"/>
<path d="M233.429 8.40977V0L225.019 0V8.40977H233.429Z" fill="black"/>
<path d="M241.838 8.40977V0L233.428 0V8.40977H241.838Z" fill="black"/>
<path d="M250.266 8.40976V0L241.856 0V8.40976H250.266Z" fill="black"/>
<path d="M258.675 8.40977V0L250.265 0V8.40977H258.675Z" fill="black"/>
<path d="M267.101 8.40975V0L258.691 0V8.40975H267.101Z" fill="black"/>
<path d="M182.817 168.568H174.356V177.029H182.817V168.568Z" fill="black"/>
<path d="M157.52 143.187H149.06V151.647H157.52V143.187Z" fill="black"/>
<path d="M157.52 100.832H149.06V109.293H157.52V100.832Z" fill="black"/>
<path d="M165.931 100.832H157.471V109.293H165.931V100.832Z" fill="black"/>
<path d="M174.34 100.832H165.88V109.293H174.34V100.832Z" fill="#4C3510"/>
<path d="M182.75 92.3555H174.289V100.816H182.75V92.3555Z" fill="black"/>
<path d="M191.159 100.832H182.698V109.293H191.159V100.832Z" fill="black"/>
<path d="M199.587 100.832H191.126V109.293H199.587V100.832Z" fill="#4C3510"/>
<path d="M207.996 92.3555H199.535V100.816H207.996V92.3555Z" fill="black"/>
<path d="M224.816 92.3555H216.355V100.816H224.816V92.3555Z" fill="black"/>
<path d="M233.225 92.3555H224.765V100.816H233.225V92.3555Z" fill="black"/>
<path d="M241.634 100.832H233.174V109.293H241.634V100.832Z" fill="black"/>
<path d="M250.045 92.3555H241.585V100.816H250.045V92.3555Z" fill="black"/>
<path d="M258.455 143.187H249.994V151.647H258.455V143.187Z" fill="black"/>
<path d="M258.455 100.832H249.994V109.293H258.455V100.832Z" fill="black"/>
<path d="M266.864 134.708H258.403V143.169H266.864V134.708Z" fill="black"/>
<path d="M266.864 109.293H258.403V117.754H266.864V109.293Z" fill="black"/>
<path d="M275.273 134.708H266.812V143.169H275.273V134.708Z" fill="black"/>
<path d="M275.273 100.832H266.812V109.293H275.273V100.832Z" fill="black"/>
<path d="M283.684 134.708H275.224V143.169H283.684V134.708Z" fill="black"/>
<path d="M283.684 92.3555H275.224V100.816H283.684V92.3555Z" fill="black"/>
<path d="M165.931 151.63H157.471V160.09H165.931V151.63Z" fill="black"/>
<path d="M250.045 151.63H241.585V160.09H250.045V151.63Z" fill="black"/>
<path d="M174.34 160.073H165.88V168.534H174.34V160.073Z" fill="black"/>
<path d="M182.75 160.073H174.289V168.534H182.75V160.073Z" fill="black"/>
<path d="M233.225 160.073H224.765V168.534H233.225V160.073Z" fill="black"/>
<path d="M241.634 160.073H233.174V168.534H241.634V160.073Z" fill="black"/>
<path d="M191.159 168.534H182.698V176.995H191.159V168.534Z" fill="black"/>
<path d="M199.587 168.534H191.126V176.995H199.587V168.534Z" fill="black"/>
<path d="M207.996 168.534H199.535V176.995H207.996V168.534Z" fill="black"/>
<path d="M216.407 168.534H207.946V176.995H216.407V168.534Z" fill="black"/>
<path d="M224.816 168.534H216.355V176.995H224.816V168.534Z" fill="black"/>
<path d="M233.225 168.534H224.765V176.995H233.225V168.534Z" fill="#F6F2EC"/>
<path d="M241.634 168.534H233.174V176.995H241.634V168.534Z" fill="#F6F2EC"/>
<path d="M250.045 168.534H241.585V176.995H250.045V168.534Z" fill="black"/>
<path d="M267.05 168.534H258.59V176.995H267.05V168.534Z" fill="black"/>
<path opacity="0.3" d="M182.852 176.961H174.392V185.421H182.852V176.961Z" fill="black"/>
<path d="M174.441 185.421H165.98V193.881H174.441V185.421Z" fill="#DAD6D0"/>
<path opacity="0.3" d="M182.852 185.421H174.392V193.881H182.852V185.421Z" fill="black"/>
<path d="M166.032 193.864H157.571V202.325H166.032V193.864Z" fill="#F6F2EC"/>
<path d="M174.441 193.864H165.98V202.325H174.441V193.864Z" fill="#DAD6D0"/>
<path d="M182.852 193.864H174.392V202.325H182.852V193.864Z" fill="black"/>
<path d="M157.623 202.325H149.162V210.786H157.623V202.325Z" fill="#F6F2EC"/>
<path d="M166.032 185.489H157.571V193.95H166.032V185.489Z" fill="#F6F2EC"/>
<path d="M174.441 177.011H165.98V185.471H174.441V177.011Z" fill="#DAD6D0"/>
<path d="M166.032 177.096H157.571V185.556H166.032V177.096Z" fill="black"/>
<path d="M157.623 185.539H149.162V193.729H157.623V185.539Z" fill="black"/>
<path d="M166.032 202.325H157.571V210.786H166.032V202.325Z" fill="#DAD6D0"/>
<path d="M174.441 202.325H165.98V210.786H174.441V202.325Z" fill="black"/>
<path d="M157.623 210.769H149.162V219.229H157.623V210.769Z" fill="#DAD6D0"/>
<path d="M157.623 219.229H149.162V227.69H157.623V219.229Z" fill="black"/>
<path d="M149.365 202.325H140.904V210.786H149.365V202.325Z" fill="#F6F2EC"/>
<path d="M149.365 193.864H140.904V202.325H149.365V193.864Z" fill="black"/>
<path d="M149.365 210.769H140.904V219.229H149.365V210.769Z" fill="#F6F2EC"/>
<path d="M149.365 219.229H140.904V227.69H149.365V219.229Z" fill="black"/>
<path d="M141.108 202.325H132.647V210.786H141.108V202.325Z" fill="black"/>
<path d="M141.108 210.769H132.647V219.229H141.108V210.769Z" fill="black"/>
<path d="M166.032 210.769H157.571V219.229H166.032V210.769Z" fill="black"/>
<path d="M182.75 176.978H174.289V185.438H182.75V176.978Z" fill="black"/>
<path d="M191.159 176.978H182.698V185.438H191.159V176.978Z" fill="#DAD6D0"/>
<path d="M199.587 176.978H191.126V185.438H199.587V176.978Z" fill="#DAD6D0"/>
<path d="M207.996 176.978H199.535V185.438H207.996V176.978Z" fill="#DAD6D0"/>
<path d="M216.407 176.978H207.946V185.438H216.407V176.978Z" fill="#DAD6D0"/>
<path d="M224.816 176.978H216.355V185.438H224.816V176.978Z" fill="#DAD6D0"/>
<path d="M233.225 176.978H224.765V185.438H233.225V176.978Z" fill="#DAD6D0"/>
<path d="M241.634 176.978H233.174V185.438H241.634V176.978Z" fill="#DAD6D0"/>
<path d="M250.045 176.978H241.585V185.438H250.045V176.978Z" fill="black"/>
<path d="M182.75 185.421H174.289V193.881H182.75V185.421Z" fill="black"/>
<path d="M182.716 185.421H174.256V193.881H182.716V185.421Z" fill="black"/>
<path d="M191.159 185.421H182.698V193.881H191.159V185.421Z" fill="#F6F2EC"/>
<path d="M199.587 185.421H191.126V193.881H199.587V185.421Z" fill="#F6F2EC"/>
<path d="M207.996 185.421H199.535V193.881H207.996V185.421Z" fill="#F6F2EC"/>
<path d="M216.407 185.421H207.946V193.881H216.407V185.421Z" fill="#F6F2EC"/>
<path d="M224.816 185.421H216.355V193.881H224.816V185.421Z" fill="#F6F2EC"/>
<path opacity="0.3" d="M233.225 185.421H224.765V193.881H233.225V185.421Z" fill="black"/>
<path d="M241.634 185.421H233.174V193.881H241.634V185.421Z" fill="#F6F2EC"/>
<path d="M250.045 185.421H241.585V193.881H250.045V185.421Z" fill="#DAD6D0"/>
<path opacity="0.3" d="M182.716 193.882H174.256V202.342H182.716V193.882Z" fill="black"/>
<path d="M191.159 193.864H182.698V202.325H191.159V193.864Z" fill="#DAD6D0"/>
<path d="M199.587 193.864H191.126V202.325H199.587V193.864Z" fill="#DAD6D0"/>
<path d="M207.996 193.864H199.535V202.325H207.996V193.864Z" fill="#DAD6D0"/>
<path d="M216.407 193.864H207.946V202.325H216.407V193.864Z" fill="#DAD6D0"/>
<path d="M224.816 193.864H216.355V202.325H224.816V193.864Z" fill="#DAD6D0"/>
<path d="M233.309 185.388H224.849V193.848H233.309V185.388Z" fill="black"/>
<path d="M258.555 185.388H250.095V193.848H258.555V185.388Z" fill="black"/>
<path opacity="0.3" d="M182.716 202.325H174.256V210.786H182.716V202.325Z" fill="black"/>
<path d="M191.159 202.325H182.698V210.786H191.159V202.325Z" fill="#F6F2EC"/>
<path d="M199.587 202.325H191.126V210.786H199.587V202.325Z" fill="#FB7844"/>
<path d="M207.996 202.325H199.535V210.786H207.996V202.325Z" fill="#FB7844"/>
<path d="M216.407 202.325H207.946V210.786H216.407V202.325Z" fill="#FB7844"/>
<path d="M224.816 202.325H216.355V210.786H224.816V202.325Z" fill="#F6F2EC"/>
<path d="M233.309 193.83H224.849V202.291H233.309V193.83Z" fill="black"/>
<path d="M241.737 193.83H233.276V202.291H241.737V193.83Z" fill="#F6F2EC"/>
<path d="M250.146 193.83H241.686V202.291H250.146V193.83Z" fill="#DAD6D0"/>
<path d="M258.555 193.83H250.095V202.291H258.555V193.83Z" fill="black"/>
<path d="M182.716 210.785H174.256V219.246H182.716V210.785Z" fill="#FDEAE0"/>
<path d="M191.159 210.769H182.698V219.229H191.159V210.769Z" fill="#F6F2EC"/>
<path d="M199.587 210.769H191.126V219.229H199.587V210.769Z" fill="#F6F2EC"/>
<path d="M207.996 210.769H199.535V219.229H207.996V210.769Z" fill="#F6F2EC"/>
<path d="M216.407 210.769H207.946V219.229H216.407V210.769Z" fill="#F6F2EC"/>
<path d="M224.816 210.769H216.355V219.229H224.816V210.769Z" fill="black"/>
<path d="M233.309 202.291H224.849V210.752H233.309V202.291Z" fill="black"/>
<path d="M241.737 202.291H233.276V210.752H241.737V202.291Z" fill="#F6F2EC"/>
<path d="M250.146 202.291H241.686V210.752H250.146V202.291Z" fill="#DAD6D0"/>
<path d="M258.555 202.291H250.095V210.752H258.555V202.291Z" fill="black"/>
<path d="M191.159 219.229H182.698V227.69H191.159V219.229Z" fill="#FDEAE0"/>
<path d="M199.603 219.229H191.143V227.69H199.603V219.229Z" fill="#F6F2EC"/>
<path d="M208.012 219.229H199.552V227.69H208.012V219.229Z" fill="black"/>
<path d="M216.423 219.229H207.963V227.69H216.423V219.229Z" fill="#DAD6D0"/>
<path d="M224.833 219.229H216.372V227.69H224.833V219.229Z" fill="black"/>
<path d="M233.242 219.229H224.781V227.69H233.242V219.229Z" fill="black"/>
<path d="M233.309 210.735H224.849V219.196H233.309V210.735Z" fill="#F6F2EC"/>
<path d="M241.737 210.735H233.276V219.196H241.737V210.735Z" fill="#F6F2EC"/>
<path d="M250.146 210.735H241.686V219.196H250.146V210.735Z" fill="#DAD6D0"/>
<path d="M258.555 210.735H250.095V219.196H258.555V210.735Z" fill="black"/>
<path d="M191.159 227.69H182.698V236.151H191.159V227.69Z" fill="black"/>
<path d="M199.603 227.673H191.143V236.133H199.603V227.673Z" fill="black"/>
<path d="M182.75 193.864H174.289V202.325H182.75V193.864Z" fill="black"/>
<path d="M182.75 202.325H174.289V210.786H182.75V202.325Z" fill="black"/>
<path d="M182.716 210.769H174.256V219.229H182.716V210.769Z" fill="black"/>
<path d="M191.159 219.229H182.698V227.69H191.159V219.229Z" fill="#F6F2EC"/>
<path d="M191.159 227.673H182.698V236.133H191.159V227.673Z" fill="#F6F2EC"/>
<path d="M208.012 227.673H199.552V236.133H208.012V227.673Z" fill="#76A8AC"/>
<path d="M216.423 227.673H207.963V236.133H216.423V227.673Z" fill="#DAD6D0"/>
<path d="M224.833 227.673H216.372V236.133H224.833V227.673Z" fill="#F6F2EC"/>
<path d="M233.242 227.673H224.781V236.133H233.242V227.673Z" fill="black"/>
<path d="M233.309 219.179H224.849V227.639H233.309V219.179Z" fill="#F6F2EC"/>
<path d="M241.737 219.179H233.276V227.639H241.737V219.179Z" fill="#F6F2EC"/>
<path d="M250.146 219.179H241.686V227.639H250.146V219.179Z" fill="#DAD6D0"/>
<path d="M258.555 219.179H250.095V227.639H258.555V219.179Z" fill="black"/>
<path d="M191.159 236.116H182.698V244.577H191.159V236.116Z" fill="#F6F2EC"/>
<path d="M199.603 236.116H191.143V244.577H199.603V236.116Z" fill="black"/>
<path d="M216.423 236.116H207.963V244.577H216.423V236.116Z" fill="black"/>
<path d="M224.833 236.116H216.372V244.577H224.833V236.116Z" fill="#F6F2EC"/>
<path d="M233.242 236.116H224.781V244.577H233.242V236.116Z" fill="#F6F2EC"/>
<path d="M233.309 227.639H224.849V236.099H233.309V227.639Z" fill="black"/>
<path d="M241.737 227.639H233.276V236.099H241.737V227.639Z" fill="black"/>
<path d="M250.146 227.639H241.686V236.099H250.146V227.639Z" fill="black"/>
<path d="M191.159 244.577H182.698V253.038H191.159V244.577Z" fill="#DAD6D0"/>
<path d="M199.603 244.577H191.143V253.038H199.603V244.577Z" fill="black"/>
<path d="M224.833 244.577H216.372V253.038H224.833V244.577Z" fill="#F6F2EC"/>
<path d="M233.242 244.577H224.781V253.038H233.242V244.577Z" fill="#F6F2EC"/>
<path d="M241.653 236.116H233.192V244.577H241.653V236.116Z" fill="black"/>
<path d="M241.653 244.577H233.192V253.038H241.653V244.577Z" fill="black"/>
<path d="M182.834 219.229H174.373V227.69H182.834V219.229Z" fill="#FDEAE0"/>
<path d="M182.834 227.69H174.373V236.151H182.834V227.69Z" fill="black"/>
<path d="M182.834 219.229H174.373V227.69H182.834V219.229Z" fill="#76A8AC"/>
<path d="M182.834 227.673H174.373V236.133H182.834V227.673Z" fill="#F6F2EC"/>
<path d="M182.834 236.116H174.373V244.577H182.834V236.116Z" fill="#F6F2EC"/>
<path d="M182.834 244.577H174.373V253.038H182.834V244.577Z" fill="#DAD6D0"/>
<path d="M174.391 236.116H165.931V244.577H174.391V236.116Z" fill="black"/>
<path d="M174.391 244.577H165.931V253.038H174.391V244.577Z" fill="#DAD6D0"/>
<path d="M182.766 219.246H174.306V227.707H182.766V219.246Z" fill="black"/>
<path d="M174.391 227.69H165.931V236.151H174.391V227.69Z" fill="black"/>
<path d="M165.964 244.577H157.504V253.038H165.964V244.577Z" fill="black"/>
<path d="M199.603 253.021H191.143V261.481H199.603V253.021Z" fill="black"/>
<path d="M224.833 253.021H216.372V261.481H224.833V253.021Z" fill="black"/>
<path d="M207.962 227.673H199.502V236.133H207.962V227.673Z" fill="black"/>
<path d="M216.372 244.577H207.911V253.038H216.372V244.577Z" fill="black"/>
<path d="M233.242 253.021H224.781V261.481H233.242V253.021Z" fill="#F6F2EC"/>
<path d="M241.653 253.021H233.192V261.481H241.653V253.021Z" fill="#F6F2EC"/>
<path d="M182.784 253.021H174.323V261.481H182.784V253.021Z" fill="black"/>
<path d="M191.194 253.021H182.733V261.481H191.194V253.021Z" fill="black"/>
<path d="M174.357 253.021H165.896V261.481H174.357V253.021Z" fill="black"/>
<path d="M165.931 253.021H157.471V261.481H165.931V253.021Z" fill="black"/>
<path d="M250.113 253.021H241.652V261.481H250.113V253.021Z" fill="black"/>
<path d="M165.931 126.231H157.471V134.692H165.931V126.231Z" fill="#494442"/>
<path d="M165.931 117.771H157.471V126.231H165.931V117.771Z" fill="#494442"/>
<path d="M165.931 109.293H157.471V117.754H165.931V109.293Z" fill="black"/>
<path d="M174.34 126.231H165.88V134.692H174.34V126.231Z" fill="white"/>
<path d="M174.34 117.771H165.88V126.231H174.34V117.771Z" fill="white"/>
<path d="M174.34 109.293H165.88V117.754H174.34V109.293Z" fill="#D2C8C4"/>
<path d="M191.159 134.708H182.698V143.169H191.159V134.708Z" fill="#E1CCC2"/>
<path d="M191.159 126.231H182.698V134.692H191.159V126.231Z" fill="#E1CCC2"/>
<path d="M199.587 134.708H191.126V143.169H199.587V134.708Z" fill="#E1CCC2"/>
<path d="M224.816 126.231H216.355V134.692H224.816V126.231Z" fill="#494442"/>
<path d="M224.816 117.771H216.355V126.231H224.816V117.771Z" fill="#494442"/>
<path d="M224.816 109.293H216.355V117.754H224.816V109.293Z" fill="#494442"/>
<path d="M224.816 100.832H216.355V109.293H224.816V100.832Z" fill="black"/>
<path d="M233.225 126.231H224.765V134.692H233.225V126.231Z" fill="white"/>
<path d="M233.225 117.771H224.765V126.231H233.225V117.771Z" fill="white"/>
<path d="M233.225 109.293H224.765V117.754H233.225V109.293Z" fill="white"/>
<path d="M233.225 100.832H224.765V109.293H233.225V100.832Z" fill="#D2C8C4"/>
<path d="M241.634 117.771H233.174V126.231H241.634V117.771Z" fill="#FDEAE0"/>
<path d="M241.634 109.293H233.174V117.754H241.634V109.293Z" fill="#FDEAE0"/>
<path d="M275.273 117.771H266.812V126.231H275.273V117.771Z" fill="#E1CCC2"/>
<path d="M275.273 109.293H266.812V117.754H275.273V109.293Z" fill="#E1CCC2"/>
<path d="M199.587 151.63H191.126V160.09H199.587V151.63Z" fill="#494442"/>
<path d="M207.996 151.63H199.535V160.09H207.996V151.63Z" fill="#494442"/>
<path d="M157.52 134.708H149.06V143.169H157.52V134.708Z" fill="#FDEAE0"/>
<path d="M157.52 126.231H149.06V134.692H157.52V126.231Z" fill="#FDEAE0"/>
<path d="M157.52 117.771H149.06V126.231H157.52V117.771Z" fill="#FDEAE0"/>
<path d="M157.52 109.293H149.06V117.754H157.52V109.293Z" fill="#EED6CA"/>
<path d="M165.931 143.187H157.471V151.647H165.931V143.187Z" fill="#FDEAE0"/>
<path d="M165.931 134.708H157.471V143.169H165.931V134.708Z" fill="#FDEAE0"/>
<path d="M174.34 143.187H165.88V151.647H174.34V143.187Z" fill="#FDEAE0"/>
<path d="M174.34 134.708H165.88V143.169H174.34V134.708Z" fill="#FDEAE0"/>
<path d="M182.75 143.187H174.289V151.647H182.75V143.187Z" fill="#FDEAE0"/>
<path d="M182.75 134.708H174.289V143.169H182.75V134.708Z" fill="#FDEAE0"/>
<path d="M182.75 126.231H174.289V134.692H182.75V126.231Z" fill="#FDEAE0"/>
<path d="M182.75 117.771H174.289V126.231H182.75V117.771Z" fill="#FDEAE0"/>
<path d="M182.75 109.293H174.289V117.754H182.75V109.293Z" fill="#FDEAE0"/>
<path d="M182.75 100.832H174.289V109.293H182.75V100.832Z" fill="#EED6CA"/>
<path d="M191.159 143.187H182.698V151.647H191.159V143.187Z" fill="#FDEAE0"/>
<path d="M191.159 117.771H182.698V126.231H191.159V117.771Z" fill="#FDEAE0"/>
<path d="M191.159 109.293H182.698V117.754H191.159V109.293Z" fill="#FDEAE0"/>
<path d="M199.587 143.187H191.126V151.647H199.587V143.187Z" fill="#FDEAE0"/>
<path d="M199.587 126.231H191.126V134.692H199.587V126.231Z" fill="#FDEAE0"/>
<path d="M199.587 117.771H191.126V126.231H199.587V117.771Z" fill="#FDEAE0"/>
<path d="M199.587 109.293H191.126V117.754H199.587V109.293Z" fill="#FDEAE0"/>
<path d="M207.996 143.187H199.535V151.647H207.996V143.187Z" fill="#FDEAE0"/>
<path d="M207.996 134.708H199.535V143.169H207.996V134.708Z" fill="#FDEAE0"/>
<path d="M207.996 126.231H199.535V134.692H207.996V126.231Z" fill="#FDEAE0"/>
<path d="M207.996 117.771H199.535V126.231H207.996V117.771Z" fill="#FDEAE0"/>
<path d="M207.996 109.293H199.535V117.754H207.996V109.293Z" fill="#FDEAE0"/>
<path d="M207.996 100.832H199.535V109.293H207.996V100.832Z" fill="#EED6CA"/>
<path d="M216.407 143.187H207.946V151.647H216.407V143.187Z" fill="#FDEAE0"/>
<path d="M216.407 134.708H207.946V143.169H216.407V134.708Z" fill="#FDEAE0"/>
<path d="M216.407 126.231H207.946V134.692H216.407V126.231Z" fill="#FDEAE0"/>
<path d="M216.407 117.771H207.946V126.231H216.407V117.771Z" fill="#FDEAE0"/>
<path d="M216.407 109.293H207.946V117.754H216.407V109.293Z" fill="#FDEAE0"/>
<path d="M216.407 100.832H207.946V109.293H216.407V100.832Z" fill="#FDEAE0"/>
<path d="M224.816 143.187H216.355V151.647H224.816V143.187Z" fill="#FDEAE0"/>
<path d="M224.816 134.708H216.355V143.169H224.816V134.708Z" fill="#FDEAE0"/>
<path d="M233.225 143.187H224.765V151.647H233.225V143.187Z" fill="#FDEAE0"/>
<path d="M233.225 134.708H224.765V143.169H233.225V134.708Z" fill="#FDEAE0"/>
<path d="M241.634 143.187H233.174V151.647H241.634V143.187Z" fill="#FDEAE0"/>
<path d="M241.634 134.708H233.174V143.169H241.634V134.708Z" fill="#FDEAE0"/>
<path d="M241.634 126.231H233.174V134.692H241.634V126.231Z" fill="#FDEAE0"/>
<path d="M250.045 143.187H241.585V151.647H250.045V143.187Z" fill="#EED6CA"/>
<path d="M250.045 134.708H241.585V143.169H250.045V134.708Z" fill="#FDEAE0"/>
<path d="M250.045 126.231H241.585V134.692H250.045V126.231Z" fill="#FDEAE0"/>
<path d="M250.045 117.771H241.585V126.231H250.045V117.771Z" fill="#FDEAE0"/>
<path d="M250.045 109.293H241.585V117.754H250.045V109.293Z" fill="#FDEAE0"/>
<path d="M250.045 100.832H241.585V109.293H250.045V100.832Z" fill="#EED6CA"/>
<path d="M258.455 134.708H249.994V143.169H258.455V134.708Z" fill="#EED6CA"/>
<path d="M258.455 126.231H249.994V134.692H258.455V126.231Z" fill="#FDEAE0"/>
<path d="M258.455 117.771H249.994V126.231H258.455V117.771Z" fill="#FDEAE0"/>
<path d="M258.455 109.293H249.994V117.754H258.455V109.293Z" fill="#FDEAE0"/>
<path d="M266.864 126.231H258.403V134.692H266.864V126.231Z" fill="#FDEAE0"/>
<path d="M266.864 117.771H258.403V126.231H266.864V117.771Z" fill="#FDEAE0"/>
<path d="M275.273 126.231H266.812V134.692H275.273V126.231Z" fill="#FDEAE0"/>
<path d="M283.684 126.231H275.224V134.692H283.684V126.231Z" fill="#FDEAE0"/>
<path d="M283.684 117.771H275.224V126.231H283.684V117.771Z" fill="#FDEAE0"/>
<path d="M283.684 109.293H275.224V117.754H283.684V109.293Z" fill="#FDEAE0"/>
<path d="M283.684 100.832H275.224V109.293H283.684V100.832Z" fill="black"/>
<path d="M174.34 151.63H165.88V160.09H174.34V151.63Z" fill="#FDEAE0"/>
<path d="M182.75 151.63H174.289V160.09H182.75V151.63Z" fill="#FDEAE0"/>
<path d="M191.159 151.63H182.698V160.09H191.159V151.63Z" fill="#FDEAE0"/>
<path d="M216.407 151.63H207.946V160.09H216.407V151.63Z" fill="#FDEAE0"/>
<path d="M224.816 151.63H216.355V160.09H224.816V151.63Z" fill="#FDEAE0"/>
<path d="M233.225 151.63H224.765V160.09H233.225V151.63Z" fill="#EED6CA"/>
<path d="M241.634 151.63H233.174V160.09H241.634V151.63Z" fill="#EED6CA"/>
<path d="M191.159 160.073H182.698V168.534H191.159V160.073Z" fill="#EED6CA"/>
<path d="M199.587 160.073H191.126V168.534H199.587V160.073Z" fill="#EED6CA"/>
<path d="M207.996 160.073H199.535V168.534H207.996V160.073Z" fill="#EED6CA"/>
<path d="M216.407 160.073H207.946V168.534H216.407V160.073Z" fill="#EED6CA"/>
<path d="M224.816 160.073H216.355V168.534H224.816V160.073Z" fill="#EED6CA"/>
<path d="M149.111 126.231H140.65V134.692H149.111V126.231Z" fill="black"/>
<path d="M149.111 117.771H140.65V126.231H149.111V117.771Z" fill="black"/>
<path d="M149.111 109.293H140.65V117.754H149.111V109.293Z" fill="black"/>
<path d="M149.111 100.832H140.65V109.293H149.111V100.832Z" fill="#4C3510"/>
<path d="M149.111 92.3555H140.65V100.816H149.111V92.3555Z" fill="black"/>
<path d="M140.718 92.3555H132.258V100.816H140.718V92.3555Z" fill="black"/>
<path d="M216.407 92.3555H207.946V100.816H216.407V92.3555Z" fill="black"/>
<path d="M157.52 92.3555H149.06V100.816H157.52V92.3555Z" fill="black"/>
<path d="M157.52 33.0635H149.06V41.524H157.52V33.0635Z" fill="black"/>
<path d="M165.931 92.3555H157.471V100.816H165.931V92.3555Z" fill="black"/>
<path d="M165.931 24.6035H157.471V33.0641H165.931V24.6035Z" fill="black"/>
<path d="M174.34 92.3555H165.88V100.816H174.34V92.3555Z" fill="black"/>
<path d="M174.34 16.125H165.88V24.5855H174.34V16.125Z" fill="black"/>
<path d="M182.75 16.125H174.289V24.5855H182.75V16.125Z" fill="black"/>
<path d="M191.159 92.3555H182.698V100.816H191.159V92.3555Z" fill="black"/>
<path d="M191.159 16.125H182.698V24.5855H191.159V16.125Z" fill="black"/>
<path d="M199.587 92.3555H191.126V100.816H199.587V92.3555Z" fill="black"/>
<path d="M199.587 16.125H191.126V24.5855H199.587V16.125Z" fill="black"/>
<path d="M207.996 16.125H199.535V24.5855H207.996V16.125Z" fill="black"/>
<path d="M216.407 16.125H207.946V24.5855H216.407V16.125Z" fill="black"/>
<path d="M224.816 16.125H216.355V24.5855H224.816V16.125Z" fill="black"/>
<path d="M233.225 16.125H224.765V24.5855H233.225V16.125Z" fill="black"/>
<path d="M241.634 92.3555H233.174V100.816H241.634V92.3555Z" fill="black"/>
<path d="M241.634 16.125H233.174V24.5855H241.634V16.125Z" fill="black"/>
<path d="M250.045 16.125H241.585V24.5855H250.045V16.125Z" fill="black"/>
<path d="M258.455 92.3555H249.994V100.816H258.455V92.3555Z" fill="black"/>
<path d="M258.455 16.125H249.994V24.5855H258.455V16.125Z" fill="black"/>
<path d="M266.864 100.832H258.403V109.293H266.864V100.832Z" fill="#4C3510"/>
<path d="M266.864 92.3555H258.403V100.816H266.864V92.3555Z" fill="black"/>
<path d="M266.864 24.6035H258.403V33.0641H266.864V24.6035Z" fill="black"/>
<path d="M275.273 92.3555H266.812V100.816H275.273V92.3555Z" fill="black"/>
<path d="M275.273 33.0635H266.812V41.524H275.273V33.0635Z" fill="black"/>
<path d="M283.684 41.541H275.224V50.0016H283.684V41.541Z" fill="black"/>
<path d="M216.405 83.8945H207.944V92.3551H216.405V83.8945Z" fill="#E96739"/>
<path d="M283.684 83.8945H275.224V92.3551H283.684V83.8945Z" fill="#E96739"/>
<path d="M157.52 83.8945H149.06V92.3551H157.52V83.8945Z" fill="#E96739"/>
<path d="M157.52 75.417H149.06V83.8775H157.52V75.417Z" fill="#FB7844"/>
<path d="M157.52 66.9561H149.06V75.4166H157.52V66.9561Z" fill="#FB7844"/>
<path d="M157.52 58.4795H149.06V66.94H157.52V58.4795Z" fill="#FB7844"/>
<path d="M157.52 50.001H149.06V58.4615H157.52V50.001Z" fill="#FB7844"/>
<path d="M157.52 41.541H149.06V50.0016H157.52V41.541Z" fill="#FFAD91"/>
<path d="M165.931 83.8945H157.471V92.3551H165.931V83.8945Z" fill="#E96739"/>
<path d="M165.931 75.417H157.471V83.8775H165.931V75.417Z" fill="#FB7844"/>
<path d="M165.931 66.9561H157.471V75.4166H165.931V66.9561Z" fill="#FB7844"/>
<path d="M165.931 58.4795H157.471V66.94H165.931V58.4795Z" fill="#FB7844"/>
<path d="M165.931 50.001H157.471V58.4615H165.931V50.001Z" fill="#FB7844"/>
<path d="M165.931 41.541H157.471V50.0016H165.931V41.541Z" fill="#FB7844"/>
<path d="M165.931 33.0635H157.471V41.524H165.931V33.0635Z" fill="#FFAD91"/>
<path d="M174.34 83.8945H165.88V92.3551H174.34V83.8945Z" fill="#E96739"/>
<path d="M174.34 75.417H165.88V83.8775H174.34V75.417Z" fill="#FB7844"/>
<path d="M174.34 66.9561H165.88V75.4166H174.34V66.9561Z" fill="#FB7844"/>
<path d="M174.34 58.4795H165.88V66.94H174.34V58.4795Z" fill="#FB7844"/>
<path d="M174.34 50.001H165.88V58.4615H174.34V50.001Z" fill="#FB7844"/>
<path d="M174.34 41.541H165.88V50.0016H174.34V41.541Z" fill="#FB7844"/>
<path d="M174.34 33.0635H165.88V41.524H174.34V33.0635Z" fill="#FB7844"/>
<path d="M174.34 24.6035H165.88V33.0641H174.34V24.6035Z" fill="#FFAD91"/>
<path d="M182.75 83.8945H174.289V92.3551H182.75V83.8945Z" fill="#E96739"/>
<path d="M182.75 75.417H174.289V83.8775H182.75V75.417Z" fill="#FB7844"/>
<path d="M182.75 66.9561H174.289V75.4166H182.75V66.9561Z" fill="#FB7844"/>
<path d="M182.75 58.4795H174.289V66.94H182.75V58.4795Z" fill="#DF5D2F"/>
<path d="M182.75 50.001H174.289V58.4615H182.75V50.001Z" fill="#DF5D2F"/>
<path d="M182.75 41.541H174.289V50.0016H182.75V41.541Z" fill="#FB7844"/>
<path d="M182.75 33.0635H174.289V41.524H182.75V33.0635Z" fill="#FB7844"/>
<path d="M182.75 24.6035H174.289V33.0641H182.75V24.6035Z" fill="#FB7844"/>
<path d="M191.159 83.8945H182.698V92.3551H191.159V83.8945Z" fill="#E96739"/>
<path d="M191.159 75.417H182.698V83.8775H191.159V75.417Z" fill="#FB7844"/>
<path d="M191.159 66.9561H182.698V75.4166H191.159V66.9561Z" fill="#DF5D2F"/>
<path d="M191.159 58.4795H182.698V66.94H191.159V58.4795Z" fill="#DF5D2F"/>
<path d="M191.159 50.001H182.698V58.4615H191.159V50.001Z" fill="#DF5D2F"/>
<path d="M191.159 41.541H182.698V50.0016H191.159V41.541Z" fill="#51BB6B"/>
<path d="M191.159 33.0635H182.698V41.524H191.159V33.0635Z" fill="#FB7844"/>
<path d="M191.159 24.6035H182.698V33.0641H191.159V24.6035Z" fill="#FB7844"/>
<path d="M199.587 83.8945H191.126V92.3551H199.587V83.8945Z" fill="#E96739"/>
<path d="M199.587 75.417H191.126V83.8775H199.587V75.417Z" fill="#DF5D2F"/>
<path d="M199.587 66.9561H191.126V75.4166H199.587V66.9561Z" fill="#DF5D2F"/>
<path d="M199.587 58.4795H191.126V66.94H199.587V58.4795Z" fill="white"/>
<path d="M199.587 50.001H191.126V58.4615H199.587V50.001Z" fill="#DF5D2F"/>
<path d="M199.587 41.541H191.126V50.0016H199.587V41.541Z" fill="#51BB6B"/>
<path d="M199.587 33.0635H191.126V41.524H199.587V33.0635Z" fill="#51BB6B"/>
<path d="M199.587 24.6035H191.126V33.0641H199.587V24.6035Z" fill="#FB7844"/>
<path d="M207.996 83.8945H199.535V92.3551H207.996V83.8945Z" fill="#E96739"/>
<path d="M207.996 75.417H199.535V83.8775H207.996V75.417Z" fill="#FB7844"/>
<path d="M207.996 66.9561H199.535V75.4166H207.996V66.9561Z" fill="#DF5D2F"/>
<path d="M207.996 58.4795H199.535V66.94H207.996V58.4795Z" fill="#DF5D2F"/>
<path d="M207.996 50.001H199.535V58.4615H207.996V50.001Z" fill="#DF5D2F"/>
<path d="M207.996 41.541H199.535V50.0016H207.996V41.541Z" fill="#51BB6B"/>
<path d="M207.996 33.0635H199.535V41.524H207.996V33.0635Z" fill="#FB7844"/>
<path d="M207.996 24.6035H199.535V33.0641H207.996V24.6035Z" fill="#FB7844"/>
<path d="M216.405 75.417H207.944V83.8775H216.405V75.417Z" fill="#FB7844"/>
<path d="M216.405 66.9561H207.944V75.4166H216.405V66.9561Z" fill="#FB7844"/>
<path d="M216.405 58.4795H207.944V66.94H216.405V58.4795Z" fill="#DF5D2F"/>
<path d="M216.405 50.001H207.944V58.4615H216.405V50.001Z" fill="#DF5D2F"/>
<path d="M216.405 41.541H207.944V50.0016H216.405V41.541Z" fill="#FB7844"/>
<path d="M216.405 33.0635H207.944V41.524H216.405V33.0635Z" fill="#FB7844"/>
<path d="M216.405 24.6035H207.944V33.0641H216.405V24.6035Z" fill="#FB7844"/>
<path d="M224.816 83.8945H216.355V92.3551H224.816V83.8945Z" fill="#E96739"/>
<path d="M224.816 75.417H216.355V83.8775H224.816V75.417Z" fill="#FB7844"/>
<path d="M224.816 66.9561H216.355V75.4166H224.816V66.9561Z" fill="#FB7844"/>
<path d="M224.816 58.4795H216.355V66.94H224.816V58.4795Z" fill="#FB7844"/>
<path d="M224.816 50.001H216.355V58.4615H224.816V50.001Z" fill="#FB7844"/>
<path d="M224.816 41.541H216.355V50.0016H224.816V41.541Z" fill="#FB7844"/>
<path d="M224.816 33.0635H216.355V41.524H224.816V33.0635Z" fill="#FB7844"/>
<path d="M233.225 83.8945H224.765V92.3551H233.225V83.8945Z" fill="#E96739"/>
<path d="M233.225 75.417H224.765V83.8775H233.225V75.417Z" fill="#FB7844"/>
<path d="M233.225 66.9561H224.765V75.4166H233.225V66.9561Z" fill="#FB7844"/>
<path d="M233.225 58.4795H224.765V66.94H233.225V58.4795Z" fill="#FB7844"/>
<path d="M233.225 50.001H224.765V58.4615H233.225V50.001Z" fill="#FB7844"/>
<path d="M233.225 41.541H224.765V50.0016H233.225V41.541Z" fill="#FB7844"/>
<path d="M233.225 33.0635H224.765V41.524H233.225V33.0635Z" fill="#FB7844"/>
<path d="M233.225 24.6035H224.765V33.0641H233.225V24.6035Z" fill="#FB7844"/>
<path d="M224.816 24.6035H216.355V33.0641H224.816V24.6035Z" fill="#FB7844"/>
<path d="M241.634 83.8945H233.174V92.3551H241.634V83.8945Z" fill="#E96739"/>
<path d="M241.634 75.417H233.174V83.8775H241.634V75.417Z" fill="#FB7844"/>
<path d="M241.634 66.9561H233.174V75.4166H241.634V66.9561Z" fill="#FB7844"/>
<path d="M241.634 58.4795H233.174V66.94H241.634V58.4795Z" fill="#FB7844"/>
<path d="M241.634 50.001H233.174V58.4615H241.634V50.001Z" fill="#FB7844"/>
<path d="M241.634 41.541H233.174V50.0016H241.634V41.541Z" fill="#FB7844"/>
<path d="M241.634 33.0635H233.174V41.524H241.634V33.0635Z" fill="#FB7844"/>
<path d="M241.634 24.6035H233.174V33.0641H241.634V24.6035Z" fill="#FB7844"/>
<path d="M250.045 83.8945H241.585V92.3551H250.045V83.8945Z" fill="#E96739"/>
<path d="M250.045 75.417H241.585V83.8775H250.045V75.417Z" fill="#FB7844"/>
<path d="M250.045 66.9561H241.585V75.4166H250.045V66.9561Z" fill="#FB7844"/>
<path d="M250.045 58.4795H241.585V66.94H250.045V58.4795Z" fill="#FB7844"/>
<path d="M250.045 50.001H241.585V58.4615H250.045V50.001Z" fill="#FB7844"/>
<path d="M250.045 41.541H241.585V50.0016H250.045V41.541Z" fill="#FB7844"/>
<path d="M250.045 33.0635H241.585V41.524H250.045V33.0635Z" fill="#FB7844"/>
<path d="M250.045 24.6035H241.585V33.0641H250.045V24.6035Z" fill="#FB7844"/>
<path d="M258.455 83.8945H249.994V92.3551H258.455V83.8945Z" fill="#E96739"/>
<path d="M258.455 75.417H249.994V83.8775H258.455V75.417Z" fill="#FB7844"/>
<path d="M258.455 66.9561H249.994V75.4166H258.455V66.9561Z" fill="#FB7844"/>
<path d="M258.455 58.4795H249.994V66.94H258.455V58.4795Z" fill="#FB7844"/>
<path d="M258.455 50.001H249.994V58.4615H258.455V50.001Z" fill="#FB7844"/>
<path d="M258.455 41.541H249.994V50.0016H258.455V41.541Z" fill="#FB7844"/>
<path d="M258.455 33.0635H249.994V41.524H258.455V33.0635Z" fill="#FB7844"/>
<path d="M258.455 24.6035H249.994V33.0641H258.455V24.6035Z" fill="#FB7844"/>
<path d="M266.864 83.8945H258.403V92.3551H266.864V83.8945Z" fill="#E96739"/>
<path d="M266.864 75.417H258.403V83.8775H266.864V75.417Z" fill="#FB7844"/>
<path d="M266.864 66.9561H258.403V75.4166H266.864V66.9561Z" fill="#FB7844"/>
<path d="M266.864 58.4795H258.403V66.94H266.864V58.4795Z" fill="#FB7844"/>
<path d="M266.864 50.001H258.403V58.4615H266.864V50.001Z" fill="#FB7844"/>
<path d="M266.864 41.541H258.403V50.0016H266.864V41.541Z" fill="#FB7844"/>
<path d="M266.864 33.0635H258.403V41.524H266.864V33.0635Z" fill="#FB7844"/>
<path d="M275.273 83.8945H266.812V92.3551H275.273V83.8945Z" fill="#E96739"/>
<path d="M275.273 75.417H266.812V83.8775H275.273V75.417Z" fill="#FB7844"/>
<path d="M275.273 66.9561H266.812V75.4166H275.273V66.9561Z" fill="#FB7844"/>
<path d="M275.273 58.4795H266.812V66.94H275.273V58.4795Z" fill="#FB7844"/>
<path d="M275.273 50.001H266.812V58.4615H275.273V50.001Z" fill="#FB7844"/>
<path d="M275.273 41.541H266.812V50.0016H275.273V41.541Z" fill="#FB7844"/>
<path d="M283.684 75.417H275.224V83.8775H283.684V75.417Z" fill="#E96739"/>
<path d="M283.684 66.9561H275.224V75.4166H283.684V66.9561Z" fill="#E96739"/>
<path d="M283.684 58.4795H275.224V66.94H283.684V58.4795Z" fill="#E96739"/>
<path d="M283.684 50.001H275.224V58.4615H283.684V50.001Z" fill="#E96739"/>
<path d="M149.111 83.8945H140.65V92.3551H149.111V83.8945Z" fill="#E96739"/>
<path d="M149.111 75.417H140.65V83.8775H149.111V75.417Z" fill="#FFAD91"/>
<path d="M149.111 66.9561H140.65V75.4166H149.111V66.9561Z" fill="#FB7844"/>
<path d="M149.111 58.4795H140.65V66.94H149.111V58.4795Z" fill="#FFAD91"/>
<path d="M149.111 50.001H140.65V58.4615H149.111V50.001Z" fill="#FFAD91"/>
<path d="M149.111 41.541H140.65V50.0016H149.111V41.541Z" fill="black"/>
<path d="M140.718 83.8945H132.258V92.3551H140.718V83.8945Z" fill="black"/>
<path d="M140.718 75.417H132.258V83.8775H140.718V75.417Z" fill="black"/>
<path d="M140.718 66.9561H132.258V75.4166H140.718V66.9561Z" fill="black"/>
<path d="M140.718 58.4795H132.258V66.94H140.718V58.4795Z" fill="black"/>
<path d="M140.718 50.001H132.258V58.4615H140.718V50.001Z" fill="black"/>
<path d="M292.093 126.231H283.633V134.692H292.093V126.231Z" fill="black"/>
<path d="M292.093 117.771H283.633V126.231H292.093V117.771Z" fill="black"/>
<path d="M292.093 109.293H283.633V117.754H292.093V109.293Z" fill="black"/>
<path d="M292.093 75.417H283.633V83.8775H292.093V75.417Z" fill="black"/>
<path d="M292.093 83.8945H283.633V92.3551H292.093V83.8945Z" fill="black"/>
<path d="M292.093 92.3555H283.633V100.816H292.093V92.3555Z" fill="black"/>
<path d="M292.093 66.9561H283.633V75.4166H292.093V66.9561Z" fill="black"/>
<path d="M292.093 58.4795H283.633V66.94H292.093V58.4795Z" fill="black"/>
<path d="M292.093 50.001H283.633V58.4615H292.093V50.001Z" fill="black"/>
<path d="M232.937 185.319H241.347V176.91H232.937V185.319Z" fill="white"/>
<path d="M224.561 185.319H232.971V176.91H224.561V185.319Z" fill="white"/>
<path d="M216.203 185.319H224.612V176.91H216.203V185.319Z" fill="white"/>
<path d="M207.827 185.319H216.236V176.91H207.827V185.319Z" fill="white"/>
<path d="M191.09 185.319H199.5V176.91H191.09V185.319Z" fill="white"/>
<path d="M182.733 185.319H191.143V176.91H182.733V185.319Z" fill="white"/>
<path d="M199.467 185.319H207.877V176.91H199.467V185.319Z" fill="white"/>
<path d="M174.356 185.319H182.766V176.91H174.356V185.319Z" fill="white"/>
<path d="M232.937 193.729H241.347V185.32H232.937V193.729Z" fill="black"/>
<path opacity="0.3" d="M224.561 193.729H232.971V185.32H224.561V193.729Z" fill="black"/>
<path opacity="0.3" d="M216.203 193.729H224.612V185.32H216.203V193.729Z" fill="black"/>
<path opacity="0.3" d="M207.827 193.729H216.236V185.32H207.827V193.729Z" fill="black"/>
<path opacity="0.3" d="M199.467 193.729H207.877V185.32H199.467V193.729Z" fill="black"/>
<path opacity="0.3" d="M191.09 193.729H199.5V185.32H191.09V193.729Z" fill="black"/>
<path opacity="0.3" d="M182.733 193.729H191.143V185.32H182.733V193.729Z" fill="black"/>
<path opacity="0.3" d="M174.356 193.729H182.766V185.32H174.356V193.729Z" fill="black"/>
<path d="M165.98 193.729H174.39V185.32H165.98V193.729Z" fill="black"/>
<path d="M241.295 185.319H249.705V176.91H241.295V185.319Z" fill="white"/>
<path d="M249.671 185.319H258.081V176.91H249.671V185.319Z" fill="white"/>
<path d="M165.98 185.319H174.39V176.91H165.98V185.319Z" fill="white"/>
<path d="M232.937 176.91H241.347V168.5H232.937V176.91Z" fill="black"/>
<path d="M224.561 176.91H232.971V168.5H224.561V176.91Z" fill="black"/>
<path d="M216.203 176.91H224.612V168.5H216.203V176.91Z" fill="black"/>
<path d="M207.827 176.91H216.236V168.5H207.827V176.91Z" fill="black"/>
<path d="M191.09 176.91H199.5V168.5H191.09V176.91Z" fill="black"/>
<path d="M182.733 176.91H191.143V168.5H182.733V176.91Z" fill="black"/>
<path d="M199.467 176.91H207.877V168.5H199.467V176.91Z" fill="black"/>
<path d="M174.356 176.91H182.766V168.5H174.356V176.91Z" fill="black"/>
<path d="M241.295 176.91H249.705V168.5H241.295V176.91Z" fill="black"/>
<path d="M249.671 176.91H258.081V168.5H249.671V176.91Z" fill="black"/>
<path d="M165.98 176.91H174.39V168.5H165.98V176.91Z" fill="black"/>
<path d="M232.937 193.729H241.347V185.32H232.937V193.729Z" fill="black"/>
<path d="M224.561 193.729H232.971V185.32H224.561V193.729Z" fill="black"/>
<path d="M216.203 193.729H224.612V185.32H216.203V193.729Z" fill="black"/>
<path d="M207.827 193.729H216.236V185.32H207.827V193.729Z" fill="black"/>
<path d="M191.09 193.729H199.5V185.32H191.09V193.729Z" fill="black"/>
<path d="M182.733 193.729H191.143V185.32H182.733V193.729Z" fill="black"/>
<path d="M199.467 193.729H207.877V185.32H199.467V193.729Z" fill="black"/>
<path d="M174.356 193.729H182.766V185.32H174.356V193.729Z" fill="black"/>
<path d="M165.98 193.729H174.39V185.32H165.98V193.729Z" fill="black"/>
<path d="M241.295 193.729H249.705V185.32H241.295V193.729Z" fill="black"/>
<path d="M249.671 193.729H258.081V185.32H249.671V193.729Z" fill="black"/>
<path d="M258.015 185.319H266.425V176.91H258.015V185.319Z" fill="white"/>
<path d="M258.015 176.91H266.425V168.5H258.015V176.91Z" fill="black"/>
<path d="M258.015 193.729H266.425V185.32H258.015V193.729Z" fill="black"/>
<path d="M266.389 185.319H274.799V176.91H266.389V185.319Z" fill="white"/>
<path d="M266.389 176.91H274.799V168.5H266.389V176.91Z" fill="black"/>
<path d="M266.389 193.729H274.799V185.32H266.389V193.729Z" fill="black"/>
<path d="M274.766 185.319H283.176V176.91H274.766V185.319Z" fill="black"/>
<path d="M165.98 193.729H174.39V185.32H165.98V193.729Z" fill="black"/>
<path d="M157.621 185.319H166.031V176.91H157.621V185.319Z" fill="white"/>
<path d="M157.621 176.91H166.031V168.5H157.621V176.91Z" fill="black"/>
<path d="M157.621 193.729H166.031V185.32H157.621V193.729Z" fill="black"/>
<path d="M149.262 185.319H157.672V176.91H149.262V185.319Z" fill="white"/>
<path d="M149.262 176.91H157.672V168.5H149.262V176.91Z" fill="black"/>
<path d="M149.262 193.729H157.672V185.32H149.262V193.729Z" fill="black"/>
<path d="M140.886 185.319H149.296V176.91H140.886V185.319Z" fill="black"/>
<path d="M157.623 202.325H149.162V210.786H157.623V202.325Z" fill="#51BB6B"/>
<path d="M149.365 193.864H140.904V202.325H149.365V193.864Z" fill="#F6F2EC"/>
<path d="M149.365 185.388H140.904V193.848H149.365V185.388Z" fill="#36984B"/>
<path d="M140.886 185.37H132.426V193.831H140.886V185.37Z" fill="#51BB6B"/>
<path d="M140.886 176.893H132.426V185.353H140.886V176.893Z" fill="#51BB6B"/>
<path d="M149.365 176.893H140.904V185.353H149.365V176.893Z" fill="#36984B"/>
<path d="M157.623 210.785H149.162V219.246H157.623V210.785Z" fill="#DAD6D0"/>
<path d="M149.365 210.785H140.904V219.246H149.365V210.785Z" fill="#DAD6D0"/>
<path d="M124.22 168.415H115.76V176.876H124.22V168.415Z" fill="#FB7844"/>
<path d="M124.22 159.972H115.76V168.432H124.22V159.972Z" fill="#FB7844"/>
<path d="M124.22 151.478H115.76V159.938H124.22V151.478Z" fill="#FB7844"/>
<path d="M115.962 168.415H107.502V176.876H115.962V168.415Z" fill="#FB7844"/>
<path d="M107.486 168.415H99.0254V176.876H107.486V168.415Z" fill="#FB7844"/>
<path d="M115.962 159.972H107.502V168.432H115.962V159.972Z" fill="#FB7844"/>
<path d="M115.962 151.478H107.502V159.938H115.962V151.478Z" fill="#FB7844"/>
<path d="M107.486 159.972H99.0254V168.432H107.486V159.972Z" fill="#FB7844"/>
<path d="M107.486 151.478H99.0254V159.938H107.486V151.478Z" fill="#FB7844"/>
<path d="M107.486 143.372H99.0254V151.833H107.486V143.372Z" fill="#FB7844"/>
<path d="M99.025 151.478H90.5645V159.938H99.025V151.478Z" fill="#FB7844"/>
<path d="M132.545 176.893H124.084V185.353H132.545V176.893Z" fill="#FB7844"/>
<path d="M124.22 176.893H115.76V185.353H124.22V176.893Z" fill="#FB7844"/>
<path d="M115.962 176.893H107.502V185.353H115.962V176.893Z" fill="#FB7844"/>
<path d="M132.545 168.415H124.084V176.876H132.545V168.415Z" fill="#FB7844"/>
<path d="M132.545 159.972H124.084V168.432H132.545V159.972Z" fill="#FB7844"/>
<path d="M90.7164 134.912H82.2559V143.373H90.7164V134.912Z" fill="#FB7844"/>
<path d="M82.441 126.451H73.9805V134.912H82.441V126.451Z" fill="#FB7844"/>
<path d="M73.9801 117.957H65.5195V126.418H73.9801V117.957Z" fill="#FB7844"/>
<path d="M99.025 143.372H90.5645V151.833H99.025V143.372Z" fill="#FB7844"/>
<path d="M99.025 134.912H90.5645V143.373H99.025V134.912Z" fill="#FB7844"/>
<path d="M90.7164 143.372H82.2559V151.833H90.7164V143.372Z" fill="#FB7844"/>
<path d="M57.1949 101.391H48.7344V109.851H57.1949V101.391Z" fill="#FB7844"/>
<path d="M48.9215 92.9473H40.4609V101.408H48.9215V92.9473Z" fill="#FB7844"/>
<path d="M40.4605 84.4355H32V92.8961H40.4605V84.4355Z" fill="#FB7844"/>
<path d="M32.4605 76H24V84.4605H32.4605V76Z" fill="#FB7844"/>
<path d="M24.4605 68H16V76.4605H24.4605V68Z" fill="#FB7844"/>
<path d="M16.4605 60H8V68.4605H16.4605V60Z" fill="#FB7844"/>
<path d="M8.46054 52H0V60.4605H8.46054V52Z" fill="#FB7844"/>
<path d="M65.5201 109.869H57.0596V118.33H65.5201V109.869Z" fill="#FB7844"/>
<path d="M149.365 202.343H140.904V210.803H149.365V202.343Z" fill="#DAD6D0"/>
<path d="M140.886 193.83H132.426V202.291H140.886V193.83Z" fill="#36984B"/>
<path d="M132.545 193.83H124.084V202.291H132.545V193.83Z" fill="#36984B"/>
<path d="M132.545 185.37H124.084V193.831H132.545V185.37Z" fill="#51BB6B"/>
<path d="M157.623 193.864H149.162V202.325H157.623V193.864Z" fill="#F6F2EC"/>
<path d="M149.111 134.708H140.65V143.169H149.111V134.708Z" fill="black"/>
</svg>
