<svg width="326" height="292" viewBox="0 0 326 292" fill="none" xmlns="http://www.w3.org/2000/svg">
<path d="M153.515 164.402H144.395V173.522H153.515V164.402Z" fill="black"/>
<path opacity="0.3" d="M162.635 173.467H153.515V182.586H162.635V173.467Z" fill="black"/>
<path d="M153.57 182.586H144.449V191.705H153.57V182.586Z" fill="#FDEAE0"/>
<path opacity="0.3" d="M162.635 182.586H153.515V191.705H162.635V182.586Z" fill="black"/>
<path d="M144.486 191.688H135.365V200.807H144.486V191.688Z" fill="#FDEAE0"/>
<path d="M153.57 191.688H144.449V200.807H153.57V191.688Z" fill="#FDEAE0"/>
<path d="M162.635 191.688H153.515V200.807H162.635V191.688Z" fill="black"/>
<path d="M135.419 200.807H126.299V209.926H135.419V200.807Z" fill="#FDEAE0"/>
<path d="M144.486 182.66H135.365V191.779H144.486V182.66Z" fill="#FDEAE0"/>
<path d="M135.419 191.779H126.299V200.899H135.419V191.779Z" fill="#FDEAE0"/>
<path d="M153.57 173.521H144.449V182.641H153.57V173.521Z" fill="#FDEAE0"/>
<path d="M144.486 173.613H135.365V182.733H144.486V173.613Z" fill="black"/>
<path d="M135.419 182.715H126.299V191.834H135.419V182.715Z" fill="black"/>
<path d="M144.486 200.807H135.365V209.926H144.486V200.807Z" fill="#FDEAE0"/>
<path d="M153.57 200.807H144.449V209.926H153.57V200.807Z" fill="black"/>
<path d="M135.419 209.908H126.299V219.028H135.419V209.908Z" fill="#FDEAE0"/>
<path d="M135.419 219.027H126.299V228.147H135.419V219.027Z" fill="black"/>
<path d="M126.519 200.807H117.398V209.926H126.519V200.807Z" fill="#FDEAE0"/>
<path opacity="0.15" d="M126.519 191.688H117.398V200.807H126.519V191.688Z" fill="black"/>
<path d="M126.519 209.908H117.398V219.028H126.519V209.908Z" fill="#FDEAE0"/>
<path d="M126.519 219.027H117.398V228.147H126.519V219.027Z" fill="black"/>
<path d="M117.617 200.807H108.496V209.926H117.617V200.807Z" fill="black"/>
<path d="M117.617 209.908H108.496V219.028H117.617V209.908Z" fill="black"/>
<path d="M144.486 209.908H135.365V219.028H144.486V209.908Z" fill="black"/>
<path d="M126.245 137.045H117.125V146.164H126.245V137.045Z" fill="black"/>
<path d="M126.245 91.3936H117.125V100.513H126.245V91.3936Z" fill="black"/>
<path d="M135.329 91.3936H126.209V100.513H135.329V91.3936Z" fill="black"/>
<path d="M144.394 91.3936H135.273V100.513H144.394V91.3936Z" fill="#4C3510"/>
<path d="M153.46 82.2744H144.34V91.3937H153.46V82.2744Z" fill="black"/>
<path d="M162.526 91.3936H153.405V100.513H162.526V91.3936Z" fill="black"/>
<path d="M171.591 91.3936H162.471V100.513H171.591V91.3936Z" fill="#4C3510"/>
<path d="M180.658 82.2744H171.537V91.3937H180.658V82.2744Z" fill="black"/>
<path d="M198.788 82.2744H189.668V91.3937H198.788V82.2744Z" fill="black"/>
<path d="M207.854 82.2744H198.733V91.3937H207.854V82.2744Z" fill="black"/>
<path d="M216.92 91.3936H207.8V100.513H216.92V91.3936Z" fill="black"/>
<path d="M225.986 82.2744H216.865V91.3937H225.986V82.2744Z" fill="black"/>
<path d="M235.051 137.045H225.931V146.164H235.051V137.045Z" fill="black"/>
<path d="M235.051 91.3936H225.931V100.513H235.051V91.3936Z" fill="black"/>
<path d="M244.117 127.926H234.996V137.045H244.117V127.926Z" fill="black"/>
<path d="M244.117 100.531H234.996V109.651H244.117V100.531Z" fill="black"/>
<path d="M253.183 127.926H244.062V137.045H253.183V127.926Z" fill="black"/>
<path d="M253.183 91.3936H244.062V100.513H253.183V91.3936Z" fill="black"/>
<path d="M262.248 127.926H253.128V137.045H262.248V127.926Z" fill="black"/>
<path d="M262.248 82.2744H253.128V91.3937H262.248V82.2744Z" fill="black"/>
<path d="M135.329 146.164H126.209V155.283H135.329V146.164Z" fill="black"/>
<path d="M225.986 146.164H216.865V155.283H225.986V146.164Z" fill="black"/>
<path d="M144.394 155.266H135.273V164.385H144.394V155.266Z" fill="black"/>
<path d="M153.46 155.266H144.34V164.385H153.46V155.266Z" fill="black"/>
<path d="M207.854 155.266H198.733V164.385H207.854V155.266Z" fill="black"/>
<path d="M216.92 155.266H207.8V164.385H216.92V155.266Z" fill="black"/>
<path d="M162.526 164.366H153.405V173.486H162.526V164.366Z" fill="black"/>
<path d="M171.591 164.366H162.471V173.486H171.591V164.366Z" fill="black"/>
<path d="M180.658 164.366H171.537V173.486H180.658V164.366Z" fill="black"/>
<path d="M189.723 164.366H180.603V173.486H189.723V164.366Z" fill="black"/>
<path d="M198.788 164.366H189.668V173.486H198.788V164.366Z" fill="black"/>
<path d="M207.854 164.366H198.733V173.486H207.854V164.366Z" fill="#87513C"/>
<path d="M216.92 164.366H207.8V173.486H216.92V164.366Z" fill="#87513C"/>
<path d="M225.986 164.366H216.865V173.486H225.986V164.366Z" fill="black"/>
<path d="M235.051 164.366H225.931V173.486H235.051V164.366Z" fill="#6D3A2B"/>
<path d="M244.227 173.485H235.106V182.605H244.227V173.485Z" fill="#87513C"/>
<path d="M225.986 155.266H216.865V164.385H225.986V155.266Z" fill="black"/>
<path d="M162.526 173.485H153.405V182.605H162.526V173.485Z" fill="black"/>
<path d="M171.591 173.485H162.471V182.605H171.591V173.485Z" fill="#87513C"/>
<path d="M180.658 173.485H171.537V182.605H180.658V173.485Z" fill="#87513C"/>
<path d="M189.723 173.485H180.603V182.605H189.723V173.485Z" fill="#87513C"/>
<path d="M198.788 173.485H189.668V182.605H198.788V173.485Z" fill="#87513C"/>
<path d="M207.854 173.485H198.733V182.605H207.854V173.485Z" fill="#1EC141"/>
<path d="M216.92 173.485H207.8V182.605H216.92V173.485Z" fill="#1EC141"/>
<path d="M225.986 173.485H216.865V182.605H225.986V173.485Z" fill="#FDEAE0"/>
<path d="M235.051 173.485H225.931V182.605H235.051V173.485Z" fill="#6D3A2B"/>
<path d="M162.526 182.586H153.405V191.705H162.526V182.586Z" fill="black"/>
<path d="M162.471 182.586H153.351V191.705H162.471V182.586Z" fill="black"/>
<path d="M171.591 182.586H162.471V191.705H171.591V182.586Z" fill="#1EC141"/>
<path d="M180.658 182.586H171.537V191.705H180.658V182.586Z" fill="white"/>
<path d="M189.723 182.586H180.603V191.705H189.723V182.586Z" fill="white"/>
<path d="M198.788 182.586H189.668V191.705H198.788V182.586Z" fill="#1EC141"/>
<path d="M207.854 182.586H198.733V191.705H207.854V182.586Z" fill="#1EC141"/>
<path opacity="0.3" d="M216.92 182.586H207.8V191.705H216.92V182.586Z" fill="black"/>
<path d="M225.986 182.586H216.865V191.705H225.986V182.586Z" fill="#FDEAE0"/>
<path d="M235.051 182.586H225.931V191.705H235.051V182.586Z" fill="#FDEAE0"/>
<path opacity="0.3" d="M162.471 191.706H153.351V200.825H162.471V191.706Z" fill="black"/>
<path d="M171.591 191.688H162.471V200.807H171.591V191.688Z" fill="#1EC141"/>
<path d="M180.658 191.688H171.537V200.807H180.658V191.688Z" fill="white"/>
<path d="M189.723 191.688H180.603V200.807H189.723V191.688Z" fill="white"/>
<path d="M198.788 191.688H189.668V200.807H198.788V191.688Z" fill="#1EC141"/>
<path d="M207.854 191.688H198.733V200.807H207.854V191.688Z" fill="#1EC141"/>
<path d="M217.03 182.551H207.909V191.67H217.03V182.551Z" fill="black"/>
<path d="M217.03 173.485H207.909V182.605H217.03V173.485Z" fill="black"/>
<path d="M244.227 182.551H235.106V191.67H244.227V182.551Z" fill="#87513C"/>
<path d="M253.183 173.485H244.062V182.605H253.183V173.485Z" fill="#87513C"/>
<path d="M253.183 182.551H244.062V191.67H253.183V182.551Z" fill="#87513C"/>
<path d="M244.227 191.706H235.106V200.825H244.227V191.706Z" fill="#87513C"/>
<path d="M253.183 191.706H244.062V200.825H253.183V191.706Z" fill="#87513C"/>
<path d="M253.183 200.697H244.062V209.817H253.183V200.697Z" fill="#87513C"/>
<path d="M262.303 200.697H253.183V209.817H262.303V200.697Z" fill="#87513C"/>
<path d="M262.303 209.507H253.183V218.626H262.303V209.507Z" fill="#87513C"/>
<path d="M262.303 218.298H253.183V227.417H262.303V218.298Z" fill="#87513C"/>
<path d="M262.303 227.107H253.183V236.993H262.303V227.107Z" fill="#87513C"/>
<path d="M253.183 209.689H244.062V218.809H253.183V209.689Z" fill="#87513C"/>
<path d="M253.183 218.681H244.062V227.8H253.183V218.681Z" fill="#87513C"/>
<path d="M253.183 227.672H244.062V236.791H253.183V227.672Z" fill="#87513C"/>
<path d="M253.183 236.664H244.062V245.783H253.183V236.664Z" fill="#996758"/>
<path d="M262.303 236.664H253.183V245.783H262.303V236.664Z" fill="#87513C"/>
<path d="M262.303 245.656H253.183V254.776H262.303V245.656Z" fill="#87513C"/>
<path d="M253.183 245.674H244.062V254.793H253.183V245.674Z" fill="#996758"/>
<path d="M253.183 254.666H244.062V263.785H253.183V254.666Z" fill="#996758"/>
<path opacity="0.3" d="M162.471 200.807H153.351V209.926H162.471V200.807Z" fill="black"/>
<path d="M171.591 200.807H162.471V209.926H171.591V200.807Z" fill="#1EC141"/>
<path d="M180.658 200.807H171.537V209.926H180.658V200.807Z" fill="#1EC141"/>
<path d="M189.723 200.807H180.603V209.926H189.723V200.807Z" fill="#1EC141"/>
<path d="M198.788 200.807H189.668V209.926H198.788V200.807Z" fill="#1EC141"/>
<path d="M207.854 200.807H198.733V209.926H207.854V200.807Z" fill="#1EC141"/>
<path d="M217.03 191.651H207.909V200.771H217.03V191.651Z" fill="black"/>
<path d="M226.095 191.651H216.975V200.771H226.095V191.651Z" fill="#FDEAE0"/>
<path d="M235.16 191.651H226.04V200.771H235.16V191.651Z" fill="#FDEAE0"/>
<path d="M244.227 191.651H235.106V200.771H244.227V191.651Z" fill="black"/>
<path d="M162.471 209.926H153.351V219.045H162.471V209.926Z" fill="black"/>
<path d="M171.591 209.908H162.471V219.028H171.591V209.908Z" fill="#FEE44D"/>
<path d="M180.658 209.908H171.537V219.028H180.658V209.908Z" fill="#FEE44D"/>
<path d="M189.723 209.908H180.603V219.028H189.723V209.908Z" fill="#FEE44D"/>
<path d="M198.788 209.908H189.668V219.028H198.788V209.908Z" fill="#FEE44D"/>
<path d="M207.854 209.908H198.733V219.028H207.854V209.908Z" fill="#FEE44D"/>
<path d="M217.03 200.771H207.909V209.89H217.03V200.771Z" fill="black"/>
<path d="M226.095 200.771H216.975V209.89H226.095V200.771Z" fill="#FDEAE0"/>
<path d="M235.16 200.771H226.04V209.89H235.16V200.771Z" fill="#FDEAE0"/>
<path d="M244.227 200.771H235.106V209.89H244.227V200.771Z" fill="black"/>
<path d="M171.574 219.027H162.453V228.147H171.574V219.027Z" fill="#FDEAE0"/>
<path d="M180.675 219.027H171.555V228.147H180.675V219.027Z" fill="#1EC141"/>
<path d="M198.807 219.027H189.687V228.147H198.807V219.027Z" fill="#1EC141"/>
<path d="M207.872 219.027H198.752V228.147H207.872V219.027Z" fill="black"/>
<path d="M216.938 219.027H207.817V228.147H216.938V219.027Z" fill="black"/>
<path d="M217.03 209.871H207.909V218.99H217.03V209.871Z" fill="#FDEAE0"/>
<path d="M226.095 209.871H216.975V218.99H226.095V209.871Z" fill="#FDEAE0"/>
<path d="M235.16 209.871H226.04V218.99H235.16V209.871Z" fill="#FDEAE0"/>
<path d="M244.227 209.871H235.106V218.99H244.227V209.871Z" fill="black"/>
<path d="M171.574 228.146H162.453V237.266H171.574V228.146Z" fill="#1EC141"/>
<path d="M180.675 228.129H171.555V237.248H180.675V228.129Z" fill="black"/>
<path d="M162.526 191.688H153.405V200.807H162.526V191.688Z" fill="black"/>
<path d="M162.526 200.807H153.405V209.926H162.526V200.807Z" fill="black"/>
<path d="M171.574 219.027H162.453V228.147H171.574V219.027Z" fill="#1EC141"/>
<path d="M189.742 228.129H180.621V237.248H189.742V228.129Z" fill="#76A8AC"/>
<path d="M198.807 228.129H189.687V237.248H198.807V228.129Z" fill="#1EC141"/>
<path d="M207.872 228.129H198.752V237.248H207.872V228.129Z" fill="#1EC141"/>
<path d="M216.938 228.129H207.817V237.248H216.938V228.129Z" fill="black"/>
<path d="M217.03 218.973H207.909V228.092H217.03V218.973Z" fill="#FDEAE0"/>
<path d="M226.095 218.973H216.975V228.092H226.095V218.973Z" fill="#FDEAE0"/>
<path d="M235.16 218.973H226.04V228.092H235.16V218.973Z" fill="#FDEAE0"/>
<path d="M244.227 218.973H235.106V228.092H244.227V218.973Z" fill="black"/>
<path d="M171.574 237.229H162.453V246.349H171.574V237.229Z" fill="#1EC141"/>
<path d="M180.675 237.229H171.555V246.349H180.675V237.229Z" fill="black"/>
<path d="M189.686 237.229H180.565V246.349H189.686V237.229Z" fill="#B59910"/>
<path d="M207.872 237.229H198.752V246.349H207.872V237.229Z" fill="#1EC141"/>
<path d="M216.938 237.229H207.817V246.349H216.938V237.229Z" fill="#1EC141"/>
<path d="M217.03 228.092H207.909V237.211H217.03V228.092Z" fill="black"/>
<path d="M226.095 228.092H216.975V237.211H226.095V228.092Z" fill="black"/>
<path d="M235.16 228.092H226.04V237.211H235.16V228.092Z" fill="black"/>
<path d="M171.574 246.349H162.453V255.468H171.574V246.349Z" fill="#EDE9E8"/>
<path d="M180.675 246.349H171.555V255.468H180.675V246.349Z" fill="black"/>
<path d="M189.686 246.349H180.565V255.468H189.686V246.349Z" fill="#B59910"/>
<path d="M207.872 246.349H198.752V255.468H207.872V246.349Z" fill="#1EC141"/>
<path d="M216.938 246.349H207.817V255.468H216.938V246.349Z" fill="#1EC141"/>
<path d="M226.004 237.229H216.884V246.349H226.004V237.229Z" fill="black"/>
<path d="M226.004 246.349H216.884V255.468H226.004V246.349Z" fill="black"/>
<path d="M235.124 246.349H226.004V255.468H235.124V246.349Z" fill="black"/>
<path d="M244.227 246.349H235.106V255.468H244.227V246.349Z" fill="#87513C"/>
<path d="M162.599 219.027H153.479V228.147H162.599V219.027Z" fill="#FDEAE0"/>
<path d="M162.599 228.146H153.479V237.266H162.599V228.146Z" fill="#1EC141"/>
<path d="M162.599 219.027H153.479V228.147H162.599V219.027Z" fill="#76A8AC"/>
<path d="M162.599 237.229H153.479V246.349H162.599V237.229Z" fill="#1EC141"/>
<path d="M162.599 246.349H153.479V255.468H162.599V246.349Z" fill="#EDE9E8"/>
<path d="M153.515 237.229H144.395V246.349H153.515V237.229Z" fill="black"/>
<path d="M153.515 246.349H144.395V255.468H153.515V246.349Z" fill="#EDE9E8"/>
<path d="M162.471 219.045H153.351V228.164H162.471V219.045Z" fill="black"/>
<path d="M153.515 228.146H144.395V237.266H153.515V228.146Z" fill="black"/>
<path d="M144.413 246.349H135.293V255.468H144.413V246.349Z" fill="black"/>
<path d="M180.675 255.449H171.555V264.569H180.675V255.449Z" fill="black"/>
<path d="M207.872 255.449H198.752V264.569H207.872V255.449Z" fill="#EDE9E8"/>
<path d="M189.686 228.129H180.565V237.248H189.686V228.129Z" fill="black"/>
<path d="M198.807 246.349H189.687V255.468H198.807V246.349Z" fill="black"/>
<path d="M198.807 255.449H189.687V264.569H198.807V255.449Z" fill="black"/>
<path d="M216.938 255.449H207.817V264.569H216.938V255.449Z" fill="#EDE9E8"/>
<path d="M226.004 255.449H216.884V264.569H226.004V255.449Z" fill="#EDE9E8"/>
<path d="M162.544 255.449H153.424V264.569H162.544V255.449Z" fill="black"/>
<path d="M171.61 255.449H162.489V264.569H171.61V255.449Z" fill="black"/>
<path d="M153.46 255.449H144.34V264.569H153.46V255.449Z" fill="black"/>
<path d="M144.376 255.449H135.256V264.569H144.376V255.449Z" fill="black"/>
<path d="M235.124 255.449H226.004V264.569H235.124V255.449Z" fill="black"/>
<path d="M117.197 127.926H108.076V137.045H117.197V127.926Z" fill="black"/>
<path d="M135.329 118.788H126.209V127.907H135.329V118.788Z" fill="#494442"/>
<path d="M135.329 109.65H126.209V118.77H135.329V109.65Z" fill="#494442"/>
<path d="M135.329 100.531H126.209V109.651H135.329V100.531Z" fill="black"/>
<path d="M144.394 118.788H135.273V127.907H144.394V118.788Z" fill="white"/>
<path d="M144.394 109.65H135.273V118.77H144.394V109.65Z" fill="white"/>
<path d="M144.394 100.531H135.273V109.651H144.394V100.531Z" fill="#D2C8C4"/>
<path d="M162.526 127.926H153.405V137.045H162.526V127.926Z" fill="#E1CCC2"/>
<path d="M162.526 118.788H153.405V127.907H162.526V118.788Z" fill="#E1CCC2"/>
<path d="M171.591 127.926H162.471V137.045H171.591V127.926Z" fill="#E1CCC2"/>
<path d="M198.788 118.788H189.668V127.907H198.788V118.788Z" fill="#494442"/>
<path d="M198.788 109.65H189.668V118.77H198.788V109.65Z" fill="#494442"/>
<path d="M198.788 100.531H189.668V109.651H198.788V100.531Z" fill="#494442"/>
<path d="M198.788 91.3936H189.668V100.513H198.788V91.3936Z" fill="black"/>
<path d="M207.854 118.788H198.733V127.907H207.854V118.788Z" fill="white"/>
<path d="M207.854 109.65H198.733V118.77H207.854V109.65Z" fill="white"/>
<path d="M207.854 100.531H198.733V109.651H207.854V100.531Z" fill="white"/>
<path d="M207.854 91.3936H198.733V100.513H207.854V91.3936Z" fill="#D2C8C4"/>
<path d="M216.92 109.65H207.8V118.77H216.92V109.65Z" fill="#FDEAE0"/>
<path d="M216.92 100.531H207.8V109.651H216.92V100.531Z" fill="#FDEAE0"/>
<path d="M253.183 109.65H244.062V118.77H253.183V109.65Z" fill="#E1CCC2"/>
<path d="M253.183 100.531H244.062V109.651H253.183V100.531Z" fill="#E1CCC2"/>
<path d="M171.591 146.164H162.471V155.283H171.591V146.164Z" fill="#494442"/>
<path d="M180.658 146.164H171.537V155.283H180.658V146.164Z" fill="#494442"/>
<path d="M126.245 127.926H117.125V137.045H126.245V127.926Z" fill="#FDEAE0"/>
<path d="M126.245 118.788H117.125V127.907H126.245V118.788Z" fill="#FDEAE0"/>
<path d="M126.245 109.65H117.125V118.77H126.245V109.65Z" fill="#FDEAE0"/>
<path d="M126.245 100.531H117.125V109.651H126.245V100.531Z" fill="#EED6CA"/>
<path d="M135.329 137.045H126.209V146.164H135.329V137.045Z" fill="#FDEAE0"/>
<path d="M135.329 127.926H126.209V137.045H135.329V127.926Z" fill="#FDEAE0"/>
<path d="M144.394 137.045H135.273V146.164H144.394V137.045Z" fill="#FDEAE0"/>
<path d="M144.394 127.926H135.273V137.045H144.394V127.926Z" fill="#FDEAE0"/>
<path d="M153.46 137.045H144.34V146.164H153.46V137.045Z" fill="#FDEAE0"/>
<path d="M153.46 127.926H144.34V137.045H153.46V127.926Z" fill="#FDEAE0"/>
<path d="M153.46 118.788H144.34V127.907H153.46V118.788Z" fill="#FDEAE0"/>
<path d="M153.46 109.65H144.34V118.77H153.46V109.65Z" fill="#FDEAE0"/>
<path d="M153.46 100.531H144.34V109.651H153.46V100.531Z" fill="#FDEAE0"/>
<path d="M153.46 91.3936H144.34V100.513H153.46V91.3936Z" fill="#EED6CA"/>
<path d="M162.526 137.045H153.405V146.164H162.526V137.045Z" fill="#FDEAE0"/>
<path d="M162.526 109.65H153.405V118.77H162.526V109.65Z" fill="#FDEAE0"/>
<path d="M162.526 100.531H153.405V109.651H162.526V100.531Z" fill="#FDEAE0"/>
<path d="M171.591 137.045H162.471V146.164H171.591V137.045Z" fill="#FDEAE0"/>
<path d="M171.591 118.788H162.471V127.907H171.591V118.788Z" fill="#FDEAE0"/>
<path d="M171.591 109.65H162.471V118.77H171.591V109.65Z" fill="#FDEAE0"/>
<path d="M171.591 100.531H162.471V109.651H171.591V100.531Z" fill="#FDEAE0"/>
<path d="M180.658 137.045H171.537V146.164H180.658V137.045Z" fill="#FDEAE0"/>
<path d="M180.658 127.926H171.537V137.045H180.658V127.926Z" fill="#FDEAE0"/>
<path d="M180.658 118.788H171.537V127.907H180.658V118.788Z" fill="#FDEAE0"/>
<path d="M180.658 109.65H171.537V118.77H180.658V109.65Z" fill="#FDEAE0"/>
<path d="M180.658 100.531H171.537V109.651H180.658V100.531Z" fill="#FDEAE0"/>
<path d="M180.658 91.3936H171.537V100.513H180.658V91.3936Z" fill="#EED6CA"/>
<path d="M189.723 137.045H180.603V146.164H189.723V137.045Z" fill="#FDEAE0"/>
<path d="M189.723 127.926H180.603V137.045H189.723V127.926Z" fill="#FDEAE0"/>
<path d="M189.723 118.788H180.603V127.907H189.723V118.788Z" fill="#FDEAE0"/>
<path d="M189.723 109.65H180.603V118.77H189.723V109.65Z" fill="#FDEAE0"/>
<path d="M189.723 100.531H180.603V109.651H189.723V100.531Z" fill="#FDEAE0"/>
<path d="M189.723 91.3936H180.603V100.513H189.723V91.3936Z" fill="#FDEAE0"/>
<path d="M198.788 137.045H189.668V146.164H198.788V137.045Z" fill="#FDEAE0"/>
<path d="M198.788 127.926H189.668V137.045H198.788V127.926Z" fill="#FDEAE0"/>
<path d="M207.854 137.045H198.733V146.164H207.854V137.045Z" fill="#FDEAE0"/>
<path d="M207.854 127.926H198.733V137.045H207.854V127.926Z" fill="#FDEAE0"/>
<path d="M216.92 137.045H207.8V146.164H216.92V137.045Z" fill="#FDEAE0"/>
<path d="M216.92 127.926H207.8V137.045H216.92V127.926Z" fill="#FDEAE0"/>
<path d="M216.92 118.788H207.8V127.907H216.92V118.788Z" fill="#FDEAE0"/>
<path d="M225.986 137.045H216.865V146.164H225.986V137.045Z" fill="#EED6CA"/>
<path d="M225.986 127.926H216.865V137.045H225.986V127.926Z" fill="#FDEAE0"/>
<path d="M225.986 118.788H216.865V127.907H225.986V118.788Z" fill="#FDEAE0"/>
<path d="M225.986 109.65H216.865V118.77H225.986V109.65Z" fill="#FDEAE0"/>
<path d="M225.986 100.531H216.865V109.651H225.986V100.531Z" fill="#FDEAE0"/>
<path d="M225.986 91.3936H216.865V100.513H225.986V91.3936Z" fill="#EED6CA"/>
<path d="M235.051 127.926H225.931V137.045H235.051V127.926Z" fill="#EED6CA"/>
<path d="M235.051 118.788H225.931V127.907H235.051V118.788Z" fill="#FDEAE0"/>
<path d="M235.051 109.65H225.931V118.77H235.051V109.65Z" fill="#FDEAE0"/>
<path d="M235.051 100.531H225.931V109.651H235.051V100.531Z" fill="#FDEAE0"/>
<path d="M244.117 118.788H234.996V127.907H244.117V118.788Z" fill="#FDEAE0"/>
<path d="M244.117 109.65H234.996V118.77H244.117V109.65Z" fill="#FDEAE0"/>
<path d="M253.183 118.788H244.062V127.907H253.183V118.788Z" fill="#FDEAE0"/>
<path d="M262.248 118.788H253.128V127.907H262.248V118.788Z" fill="#FDEAE0"/>
<path d="M262.248 109.65H253.128V118.77H262.248V109.65Z" fill="#FDEAE0"/>
<path d="M262.248 100.531H253.128V109.651H262.248V100.531Z" fill="#FDEAE0"/>
<path d="M262.248 91.3936H253.128V100.513H262.248V91.3936Z" fill="#FDEAE0"/>
<path d="M144.394 146.164H135.273V155.283H144.394V146.164Z" fill="#FDEAE0"/>
<path d="M153.46 146.164H144.34V155.283H153.46V146.164Z" fill="#FDEAE0"/>
<path d="M162.526 146.164H153.405V155.283H162.526V146.164Z" fill="#FDEAE0"/>
<path d="M189.723 146.164H180.603V155.283H189.723V146.164Z" fill="#FDEAE0"/>
<path d="M198.788 146.164H189.668V155.283H198.788V146.164Z" fill="#FDEAE0"/>
<path d="M207.854 146.164H198.733V155.283H207.854V146.164Z" fill="#EED6CA"/>
<path d="M216.92 146.164H207.8V155.283H216.92V146.164Z" fill="#EED6CA"/>
<path d="M162.526 155.266H153.405V164.385H162.526V155.266Z" fill="#EED6CA"/>
<path d="M171.591 155.266H162.471V164.385H171.591V155.266Z" fill="#EED6CA"/>
<path d="M180.658 155.266H171.537V164.385H180.658V155.266Z" fill="#EED6CA"/>
<path d="M189.723 155.266H180.603V164.385H189.723V155.266Z" fill="#EED6CA"/>
<path d="M198.788 155.266H189.668V164.385H198.788V155.266Z" fill="#EED6CA"/>
<path d="M117.197 118.788H108.076V127.907H117.197V118.788Z" fill="black"/>
<path d="M117.197 109.65H108.076V118.77H117.197V109.65Z" fill="black"/>
<path d="M117.197 100.531H108.076V109.651H117.197V100.531Z" fill="black"/>
<path d="M117.197 91.3936H108.076V100.513H117.197V91.3936Z" fill="#4C3510"/>
<path d="M117.197 82.2744H108.076V91.3937H117.197V82.2744Z" fill="black"/>
<path d="M108.058 82.2744H98.9375V91.3937H108.058V82.2744Z" fill="black"/>
<path d="M189.723 82.2744H180.603V91.3937H189.723V82.2744Z" fill="#EED6CA"/>
<path d="M126.245 82.2744H117.125V91.3937H126.245V82.2744Z" fill="#4C3510"/>
<path d="M135.329 82.2744H126.209V91.3937H135.329V82.2744Z" fill="#4C3510"/>
<path d="M144.394 82.2744H135.273V91.3937H144.394V82.2744Z" fill="#4C3510"/>
<path d="M162.526 82.2744H153.405V91.3937H162.526V82.2744Z" fill="#4C3510"/>
<path d="M171.591 82.2744H162.471V91.3937H171.591V82.2744Z" fill="#4C3510"/>
<path d="M216.92 82.2744H207.8V91.3937H216.92V82.2744Z" fill="#4C3510"/>
<path d="M235.051 82.2744H225.931V91.3937H235.051V82.2744Z" fill="#4C3510"/>
<path d="M244.117 91.3936H234.996V100.513H244.117V91.3936Z" fill="#4C3510"/>
<path d="M244.117 82.2744H234.996V91.3937H244.117V82.2744Z" fill="#4C3510"/>
<path d="M253.183 82.2744H244.062V91.3937H253.183V82.2744Z" fill="#4C3510"/>
<path d="M271.314 118.788H262.193V127.907H271.314V118.788Z" fill="black"/>
<path d="M271.314 109.65H262.193V118.77H271.314V109.65Z" fill="black"/>
<path d="M271.314 100.531H262.193V109.651H271.314V100.531Z" fill="black"/>
<path d="M135.419 200.789H126.299V209.908H135.419V200.789Z" fill="#E2C430"/>
<path d="M126.519 182.531H117.398V191.651H126.519V182.531Z" fill="#E2C430"/>
<path d="M117.38 182.514H108.26V191.633H117.38V182.514Z" fill="#E2C430"/>
<path d="M135.419 209.908H126.299V219.028H135.419V209.908Z" fill="#FDEAE0"/>
<path d="M126.519 209.908H117.398V219.028H126.519V209.908Z" fill="#FDEAE0"/>
<path d="M99.4134 164.238H90.293V173.358H99.4134V164.238Z" fill="#E2C430"/>
<path d="M90.511 155.138H81.3906V164.257H90.511V155.138Z" fill="#E2C430"/>
<path d="M81.3724 145.982H72.252V155.102H81.3724V145.982Z" fill="#E2C430"/>
<path d="M108.386 173.376H99.2656V182.495H108.386V173.376Z" fill="#E2C430"/>
<path d="M63.2962 128.126H54.1758V137.245H63.2962V128.126Z" fill="#E2C430"/>
<path d="M54.3763 119.007H45.2559V128.126H54.3763V119.007Z" fill="#E2C430"/>
<path d="M45.2552 109.852H36.1348V118.971H45.2552V109.852Z" fill="#E2C430"/>
<path d="M72.2513 137.246H63.1309V146.365H72.2513V137.246Z" fill="#E2C430"/>
<path d="M27.1614 91.9961H18.041V101.115H27.1614V91.9961Z" fill="#E2C430"/>
<path d="M18.2415 82.8945H9.12109V92.0138H18.2415V82.8945Z" fill="#E2C430"/>
<path d="M9.12041 73.7207H0V82.84H9.12041V73.7207Z" fill="#E2C430"/>
<path d="M36.136 101.133H27.0156V110.252H36.136V101.133Z" fill="#E2C430"/>
<path d="M126.519 200.807H117.398V209.926H126.519V200.807Z" fill="#FDEAE0"/>
<path d="M117.38 191.633H108.26V200.752H117.38V191.633Z" fill="#E2C430"/>
<path d="M126.245 18.2568H117.125V27.3761H126.245V18.2568Z" fill="black"/>
<path d="M135.329 9.1377H126.209V18.257H135.329V9.1377Z" fill="black"/>
<path d="M144.394 0H135.273V9.1193H144.394V0Z" fill="black"/>
<path d="M153.46 0H144.34V9.1193H153.46V0Z" fill="black"/>
<path d="M162.526 0H153.405V9.1193H162.526V0Z" fill="black"/>
<path d="M171.591 0H162.471V9.1193H171.591V0Z" fill="black"/>
<path d="M180.658 0H171.537V9.1193H180.658V0Z" fill="black"/>
<path d="M189.723 82.165H180.603V91.2843H189.723V82.165Z" fill="black"/>
<path d="M189.723 0H180.603V9.1193H189.723V0Z" fill="black"/>
<path d="M198.788 0H189.668V9.1193H198.788V0Z" fill="black"/>
<path d="M198.788 9.1377H189.668V18.257H198.788V9.1377Z" fill="#FEE44D"/>
<path d="M207.854 0H198.733V9.1193H207.854V0Z" fill="black"/>
<path d="M216.92 0H207.8V9.1193H216.92V0Z" fill="black"/>
<path d="M225.986 0H216.865V9.1193H225.986V0Z" fill="black"/>
<path d="M235.051 0H225.931V9.1193H235.051V0Z" fill="black"/>
<path d="M244.117 9.1377H234.996V18.257H244.117V9.1377Z" fill="black"/>
<path d="M253.183 9.1377H244.062V18.257H253.183V9.1377Z" fill="black"/>
<path d="M262.248 9.1377H253.128V18.257H262.248V9.1377Z" fill="black"/>
<path d="M271.314 9.1377H262.193V18.257H271.314V9.1377Z" fill="black"/>
<path d="M271.314 18.2568H262.193V27.3761H271.314V18.2568Z" fill="#FAFCFD"/>
<path d="M280.452 9.1377H271.332V18.257H280.452V9.1377Z" fill="black"/>
<path d="M280.452 18.2568H271.332V27.3761H280.452V18.2568Z" fill="black"/>
<path d="M271.314 27.3945H262.193V36.5138H271.314V27.3945Z" fill="black"/>
<path d="M280.452 27.3945H271.332V36.5138H280.452V27.3945Z" fill="black"/>
<path d="M253.183 18.2568H244.062V27.3761H253.183V18.2568Z" fill="#FAFCFD"/>
<path d="M262.248 82.165H253.128V91.2843H262.248V82.165Z" fill="black"/>
<path d="M271.314 82.165H262.193V91.2843H271.314V82.165Z" fill="black"/>
<path d="M262.248 27.3945H253.128V36.5138H262.248V27.3945Z" fill="#F0BA34"/>
<path d="M262.248 18.2568H253.128V27.3761H262.248V18.2568Z" fill="#FAFCFD"/>
<path d="M126.245 82.165H117.125V91.2843H126.245V82.165Z" fill="black"/>
<path d="M126.245 73.0273H117.125V82.1466H126.245V73.0273Z" fill="#1D9837"/>
<path d="M126.245 63.9082H117.125V73.0275H126.245V63.9082Z" fill="#FEE44D"/>
<path d="M126.245 54.7705H117.125V63.8898H126.245V54.7705Z" fill="#FEE44D"/>
<path d="M126.245 45.6514H117.125V54.7707H126.245V45.6514Z" fill="#FEE44D"/>
<path d="M126.245 36.5137H117.125V45.633H126.245V36.5137Z" fill="#FEE44D"/>
<path d="M126.245 27.3945H117.125V36.5138H126.245V27.3945Z" fill="#FEE44D"/>
<path d="M135.329 82.165H126.209V91.2843H135.329V82.165Z" fill="black"/>
<path d="M135.329 73.0273H126.209V82.1466H135.329V73.0273Z" fill="#1D9837"/>
<path d="M135.329 63.9082H126.209V73.0275H135.329V63.9082Z" fill="#FEE44D"/>
<path d="M135.329 54.7705H126.209V63.8898H135.329V54.7705Z" fill="#FEE44D"/>
<path d="M135.329 45.6514H126.209V54.7707H135.329V45.6514Z" fill="#FEE44D"/>
<path d="M135.329 36.5137H126.209V45.633H135.329V36.5137Z" fill="#FEE44D"/>
<path d="M135.329 27.3945H126.209V36.5138H135.329V27.3945Z" fill="#FEE44D"/>
<path d="M135.329 18.2568H126.209V27.3761H135.329V18.2568Z" fill="#FEE44D"/>
<path d="M144.394 82.165H135.273V91.2843H144.394V82.165Z" fill="black"/>
<path d="M144.394 73.0273H135.273V82.1466H144.394V73.0273Z" fill="#1D9837"/>
<path d="M144.394 63.9082H135.273V73.0275H144.394V63.9082Z" fill="#FEE44D"/>
<path d="M144.394 54.7705H135.273V63.8898H144.394V54.7705Z" fill="#FEE44D"/>
<path d="M144.394 45.6514H135.273V54.7707H144.394V45.6514Z" fill="#FEE44D"/>
<path d="M144.394 36.5137H135.273V45.633H144.394V36.5137Z" fill="#FEE44D"/>
<path d="M144.394 27.3945H135.273V36.5138H144.394V27.3945Z" fill="#FEE44D"/>
<path d="M144.394 18.2568H135.273V27.3761H144.394V18.2568Z" fill="#FEE44D"/>
<path d="M144.394 9.1377H135.273V18.257H144.394V9.1377Z" fill="#FEE44D"/>
<path d="M153.46 82.165H144.34V91.2843H153.46V82.165Z" fill="black"/>
<path d="M153.46 73.0273H144.34V82.1466H153.46V73.0273Z" fill="#1D9837"/>
<path d="M153.46 63.9082H144.34V73.0275H153.46V63.9082Z" fill="#FEE44D"/>
<path d="M153.46 54.7705H144.34V63.8898H153.46V54.7705Z" fill="#FEE44D"/>
<path d="M153.46 45.6514H144.34V54.7707H153.46V45.6514Z" fill="#FEE44D"/>
<path d="M153.46 36.5137H144.34V45.633H153.46V36.5137Z" fill="#FEE44D"/>
<path d="M153.46 27.3945H144.34V36.5138H153.46V27.3945Z" fill="#FEE44D"/>
<path d="M153.46 18.2568H144.34V27.3761H153.46V18.2568Z" fill="#FEE44D"/>
<path d="M153.46 9.1377H144.34V18.257H153.46V9.1377Z" fill="#FEE44D"/>
<path d="M162.526 82.165H153.405V91.2843H162.526V82.165Z" fill="black"/>
<path d="M162.526 73.0273H153.405V82.1466H162.526V73.0273Z" fill="#1D9837"/>
<path d="M162.526 63.9082H153.405V73.0275H162.526V63.9082Z" fill="#FEE44D"/>
<path d="M162.526 54.7705H153.405V63.8898H162.526V54.7705Z" fill="#FEE44D"/>
<path d="M162.526 45.6514H153.405V54.7707H162.526V45.6514Z" fill="#FEE44D"/>
<path d="M162.526 36.5137H153.405V45.633H162.526V36.5137Z" fill="#FEE44D"/>
<path d="M162.526 27.3945H153.405V36.5138H162.526V27.3945Z" fill="#FEE44D"/>
<path d="M162.526 18.2568H153.405V27.3761H162.526V18.2568Z" fill="#FEE44D"/>
<path d="M162.526 9.1377H153.405V18.257H162.526V9.1377Z" fill="#FEE44D"/>
<path d="M171.591 82.165H162.471V91.2843H171.591V82.165Z" fill="black"/>
<path d="M171.591 73.0273H162.471V82.1466H171.591V73.0273Z" fill="#1D9837"/>
<path d="M171.591 63.9082H162.471V73.0275H171.591V63.9082Z" fill="#FEE44D"/>
<path d="M171.591 54.7705H162.471V63.8898H171.591V54.7705Z" fill="#FEE44D"/>
<path d="M171.591 45.6514H162.471V54.7707H171.591V45.6514Z" fill="#FEE44D"/>
<path d="M171.591 36.5137H162.471V45.633H171.591V36.5137Z" fill="#FEE44D"/>
<path d="M171.591 27.3945H162.471V36.5138H171.591V27.3945Z" fill="#FEE44D"/>
<path d="M171.591 18.2568H162.471V27.3761H171.591V18.2568Z" fill="#FEE44D"/>
<path d="M171.591 9.1377H162.471V18.257H171.591V9.1377Z" fill="#FEE44D"/>
<path d="M180.658 82.165H171.537V91.2843H180.658V82.165Z" fill="black"/>
<path d="M180.658 73.0273H171.537V82.1466H180.658V73.0273Z" fill="#1D9837"/>
<path d="M180.658 63.9082H171.537V73.0275H180.658V63.9082Z" fill="#FEE44D"/>
<path d="M180.658 54.7705H171.537V63.8898H180.658V54.7705Z" fill="#FEE44D"/>
<path d="M180.658 45.6514H171.537V54.7707H180.658V45.6514Z" fill="#FEE44D"/>
<path d="M180.658 36.5137H171.537V45.633H180.658V36.5137Z" fill="#FEE44D"/>
<path d="M180.658 27.3945H171.537V36.5138H180.658V27.3945Z" fill="#FEE44D"/>
<path d="M180.658 18.2568H171.537V27.3761H180.658V18.2568Z" fill="#FEE44D"/>
<path d="M180.658 9.1377H171.537V18.257H180.658V9.1377Z" fill="#FEE44D"/>
<path d="M189.723 73.0273H180.603V82.1466H189.723V73.0273Z" fill="#1D9837"/>
<path d="M189.723 63.9082H180.603V73.0275H189.723V63.9082Z" fill="#FEE44D"/>
<path d="M189.723 54.7705H180.603V63.8898H189.723V54.7705Z" fill="#FEE44D"/>
<path d="M189.723 45.6514H180.603V54.7707H189.723V45.6514Z" fill="#FEE44D"/>
<path d="M189.723 36.5137H180.603V45.633H189.723V36.5137Z" fill="#FEE44D"/>
<path d="M189.723 27.3945H180.603V36.5138H189.723V27.3945Z" fill="#FEE44D"/>
<path d="M189.723 18.2568H180.603V27.3761H189.723V18.2568Z" fill="#FEE44D"/>
<path d="M189.723 9.1377H180.603V18.257H189.723V9.1377Z" fill="#F5C435"/>
<path d="M198.788 82.165H189.668V91.2843H198.788V82.165Z" fill="black"/>
<path d="M198.788 73.0273H189.668V82.1466H198.788V73.0273Z" fill="#1D9837"/>
<path d="M198.788 63.9082H189.668V73.0275H198.788V63.9082Z" fill="#FEE44D"/>
<path d="M198.788 54.7705H189.668V63.8898H198.788V54.7705Z" fill="#FEE44D"/>
<path d="M198.788 45.6514H189.668V54.7707H198.788V45.6514Z" fill="#FEE44D"/>
<path d="M198.788 36.5137H189.668V45.633H198.788V36.5137Z" fill="#FEE44D"/>
<path d="M198.788 27.3945H189.668V36.5138H198.788V27.3945Z" fill="#FEE44D"/>
<path d="M198.788 18.2568H189.668V27.3761H198.788V18.2568Z" fill="#FEE44D"/>
<path d="M207.854 82.165H198.733V91.2843H207.854V82.165Z" fill="black"/>
<path d="M207.854 73.0273H198.733V82.1466H207.854V73.0273Z" fill="#1D9837"/>
<path d="M207.854 63.9082H198.733V73.0275H207.854V63.9082Z" fill="#FEE44D"/>
<path d="M207.854 54.7705H198.733V63.8898H207.854V54.7705Z" fill="#FEE44D"/>
<path d="M207.854 45.6514H198.733V54.7707H207.854V45.6514Z" fill="#F0BA34"/>
<path d="M207.854 36.5137H198.733V45.633H207.854V36.5137Z" fill="#FAFCFD"/>
<path d="M207.854 27.3945H198.733V36.5138H207.854V27.3945Z" fill="#FAFCFD"/>
<path d="M207.854 18.2568H198.733V27.3761H207.854V18.2568Z" fill="#FAFCFD"/>
<path d="M207.854 9.1377H198.733V18.257H207.854V9.1377Z" fill="#FEE44D"/>
<path d="M216.92 82.165H207.8V91.2843H216.92V82.165Z" fill="black"/>
<path d="M216.92 73.0273H207.8V82.1466H216.92V73.0273Z" fill="#1D9837"/>
<path d="M216.92 63.9082H207.8V73.0275H216.92V63.9082Z" fill="#FEE44D"/>
<path d="M216.92 54.7705H207.8V63.8898H216.92V54.7705Z" fill="#FEE44D"/>
<path d="M216.92 45.6514H207.8V54.7707H216.92V45.6514Z" fill="#F0BA34"/>
<path d="M216.92 36.5137H207.8V45.633H216.92V36.5137Z" fill="#FAFCFD"/>
<path d="M216.92 27.3945H207.8V36.5138H216.92V27.3945Z" fill="#FAFCFD"/>
<path d="M216.92 18.2568H207.8V27.3761H216.92V18.2568Z" fill="#FAFCFD"/>
<path d="M216.92 9.1377H207.8V18.257H216.92V9.1377Z" fill="#FEE44D"/>
<path d="M225.986 82.165H216.865V91.2843H225.986V82.165Z" fill="black"/>
<path d="M225.986 73.0273H216.865V82.1466H225.986V73.0273Z" fill="#1D9837"/>
<path d="M225.986 63.9082H216.865V73.0275H225.986V63.9082Z" fill="#FEE44D"/>
<path d="M225.986 54.7705H216.865V63.8898H225.986V54.7705Z" fill="#FEE44D"/>
<path d="M225.986 45.6514H216.865V54.7707H225.986V45.6514Z" fill="#F0BA34"/>
<path d="M225.986 36.5137H216.865V45.633H225.986V36.5137Z" fill="#FAFCFD"/>
<path d="M225.986 27.3945H216.865V36.5138H225.986V27.3945Z" fill="#FAFCFD"/>
<path d="M225.986 18.2568H216.865V27.3761H225.986V18.2568Z" fill="#FAFCFD"/>
<path d="M225.986 9.1377H216.865V18.257H225.986V9.1377Z" fill="#FEE44D"/>
<path d="M235.051 82.165H225.931V91.2843H235.051V82.165Z" fill="black"/>
<path d="M235.051 73.0273H225.931V82.1466H235.051V73.0273Z" fill="#1D9837"/>
<path d="M235.051 63.9082H225.931V73.0275H235.051V63.9082Z" fill="#FEE44D"/>
<path d="M235.051 54.7705H225.931V63.8898H235.051V54.7705Z" fill="#FEE44D"/>
<path d="M235.051 45.6514H225.931V54.7707H235.051V45.6514Z" fill="#F0BA34"/>
<path d="M235.051 36.5137H225.931V45.633H235.051V36.5137Z" fill="#FAFCFD"/>
<path d="M235.051 27.3945H225.931V36.5138H235.051V27.3945Z" fill="#FAFCFD"/>
<path d="M235.051 18.2568H225.931V27.3761H235.051V18.2568Z" fill="#FAFCFD"/>
<path d="M235.051 9.1377H225.931V18.257H235.051V9.1377Z" fill="#FEE44D"/>
<path d="M244.117 82.165H234.996V91.2843H244.117V82.165Z" fill="black"/>
<path d="M244.117 73.0273H234.996V82.1466H244.117V73.0273Z" fill="#1D9837"/>
<path d="M244.117 63.9082H234.996V73.0275H244.117V63.9082Z" fill="#FEE44D"/>
<path d="M244.117 54.7705H234.996V63.8898H244.117V54.7705Z" fill="#FEE44D"/>
<path d="M244.117 45.6514H234.996V54.7707H244.117V45.6514Z" fill="#F0BA34"/>
<path d="M244.117 36.5137H234.996V45.633H244.117V36.5137Z" fill="#FAFCFD"/>
<path d="M244.117 27.3945H234.996V36.5138H244.117V27.3945Z" fill="#FAFCFD"/>
<path d="M244.117 18.2568H234.996V27.3761H244.117V18.2568Z" fill="#FAFCFD"/>
<path d="M253.183 82.165H244.062V91.2843H253.183V82.165Z" fill="black"/>
<path d="M253.183 73.0273H244.062V82.1466H253.183V73.0273Z" fill="#1D9837"/>
<path d="M253.183 63.9082H244.062V73.0275H253.183V63.9082Z" fill="#FEE44D"/>
<path d="M253.183 54.7705H244.062V63.8898H253.183V54.7705Z" fill="#FEE44D"/>
<path d="M253.183 45.6514H244.062V54.7707H253.183V45.6514Z" fill="#F0BA34"/>
<path d="M253.183 36.5137H244.062V45.633H253.183V36.5137Z" fill="#F0BA34"/>
<path d="M253.183 27.3945H244.062V36.5138H253.183V27.3945Z" fill="#FAFCFD"/>
<path d="M262.248 73.0273H253.128V82.1466H262.248V73.0273Z" fill="#1D9837"/>
<path d="M262.248 63.9082H253.128V73.0275H262.248V63.9082Z" fill="#FEE44D"/>
<path d="M262.248 54.7705H253.128V63.8898H262.248V54.7705Z" fill="#FEE44D"/>
<path d="M262.248 45.6514H253.128V54.7707H262.248V45.6514Z" fill="#FEE44D"/>
<path d="M262.248 36.5137H253.128V45.633H262.248V36.5137Z" fill="#F0BA34"/>
<path d="M117.197 82.165H108.076V91.2843H117.197V82.165Z" fill="black"/>
<path d="M117.197 73.0273H108.076V82.1466H117.197V73.0273Z" fill="#1D9837"/>
<path d="M117.197 63.9082H108.076V73.0275H117.197V63.9082Z" fill="#FEE44D"/>
<path d="M117.197 54.7705H108.076V63.8898H117.197V54.7705Z" fill="#FEE44D"/>
<path d="M117.197 45.6514H108.076V54.7707H117.197V45.6514Z" fill="#FEE44D"/>
<path d="M117.197 36.5137H108.076V45.633H117.197V36.5137Z" fill="#FEE44D"/>
<path d="M117.197 27.3945H108.076V36.5138H117.197V27.3945Z" fill="black"/>
<path d="M108.132 82.165H99.0117V91.2843H108.132V82.165Z" fill="black"/>
<path d="M108.132 73.0273H99.0117V82.1466H108.132V73.0273Z" fill="#1D9837"/>
<path d="M99.011 82.165H89.8906V91.2843H99.011V82.165Z" fill="black"/>
<path d="M99.011 73.0273H89.8906V82.1466H99.011V73.0273Z" fill="#1D9837"/>
<path d="M89.8899 82.165H80.7695V91.2843H89.8899V82.165Z" fill="black"/>
<path d="M89.8899 73.0273H80.7695V82.1466H89.8899V73.0273Z" fill="#1D9837"/>
<path d="M80.7708 82.165H71.6504V91.2843H80.7708V82.165Z" fill="black"/>
<path d="M80.7708 73.0273H71.6504V82.1466H80.7708V73.0273Z" fill="#1D9837"/>
<path d="M71.6497 82.165H62.5293V91.2843H71.6497V82.165Z" fill="black"/>
<path d="M99.011 63.9258H89.8906V73.0451H99.011V63.9258Z" fill="black"/>
<path d="M89.8899 63.9258H80.7695V73.0451H89.8899V63.9258Z" fill="black"/>
<path d="M80.7708 63.9258H71.6504V73.0451H80.7708V63.9258Z" fill="black"/>
<path d="M71.6497 73.0645H62.5293V82.1838H71.6497V73.0645Z" fill="black"/>
<path d="M108.132 63.9082H99.0117V73.0275H108.132V63.9082Z" fill="black"/>
<path d="M108.132 54.7705H99.0117V63.8898H108.132V54.7705Z" fill="black"/>
<path d="M108.132 45.6514H99.0117V54.7707H108.132V45.6514Z" fill="black"/>
<path d="M108.132 36.5137H99.0117V45.633H108.132V36.5137Z" fill="black"/>
<path d="M271.314 73.0273H262.193V82.1466H271.314V73.0273Z" fill="black"/>
<path d="M271.314 63.9082H262.193V73.0275H271.314V63.9082Z" fill="black"/>
<path d="M271.314 54.7705H262.193V63.8898H271.314V54.7705Z" fill="black"/>
<path d="M271.314 45.6514H262.193V54.7707H271.314V45.6514Z" fill="black"/>
<path d="M271.314 36.5137H262.193V45.633H271.314V36.5137Z" fill="black"/>
<path d="M189.742 219.027H180.621V228.147H189.742V219.027Z" fill="black"/>
<path d="M198.807 237.229H189.687V246.349H198.807V237.229Z" fill="black"/>
<path d="M262.394 292H271.515V282.881H262.394V292Z" fill="black"/>
<path d="M262.394 282.881H271.515V273.762H262.394V282.881Z" fill="#B59910"/>
<path d="M253.31 292H262.431V282.881H253.31V292Z" fill="black"/>
<path d="M253.31 282.881H262.431V273.762H253.31V282.881Z" fill="#B59910"/>
<path d="M244.245 292H253.365V282.881H244.245V292Z" fill="black"/>
<path d="M244.245 282.881H253.365V273.762H244.245V282.881Z" fill="#B59910"/>
<path d="M235.179 292H244.3V282.881H235.179V292Z" fill="black"/>
<path d="M235.179 282.881H244.3V273.762H235.179V282.881Z" fill="#B59910"/>
<path d="M226.113 292H235.233V282.881H226.113V292Z" fill="black"/>
<path d="M226.113 282.881H235.233V273.762H226.113V282.881Z" fill="#B59910"/>
<path d="M217.048 292H226.168V282.881H217.048V292Z" fill="black"/>
<path d="M217.048 282.881H226.168V273.762H217.048V282.881Z" fill="#B59910"/>
<path d="M207.982 292H217.103V282.881H207.982V292Z" fill="black"/>
<path d="M207.982 282.881H217.103V273.762H207.982V282.881Z" fill="#B59910"/>
<path d="M198.916 292H208.036V282.881H198.916V292Z" fill="black"/>
<path d="M198.916 282.881H208.036V273.762H198.916V282.881Z" fill="#B59910"/>
<path d="M189.869 292H198.989V282.881H189.869V292Z" fill="black"/>
<path d="M189.869 282.881H198.989V273.762H189.869V282.881Z" fill="#B59910"/>
<path d="M180.803 292H189.924V282.881H180.803V292Z" fill="black"/>
<path d="M180.803 282.881H189.924V273.762H180.803V282.881Z" fill="#B59910"/>
<path d="M171.737 292H180.857V282.881H171.737V292Z" fill="black"/>
<path d="M171.737 282.881H180.857V273.762H171.737V282.881Z" fill="#B59910"/>
<path d="M162.672 292H171.792V282.881H162.672V292Z" fill="black"/>
<path d="M162.672 282.881H171.792V273.762H162.672V282.881Z" fill="#B59910"/>
<path d="M153.606 292H162.727V282.881H153.606V292Z" fill="black"/>
<path d="M153.606 282.881H162.727V273.762H153.606V282.881Z" fill="#B59910"/>
<path d="M144.541 292H153.661V282.881H144.541V292Z" fill="black"/>
<path d="M144.541 282.881H153.661V273.762H144.541V282.881Z" fill="#B59910"/>
<path d="M135.457 292H144.577V282.881H135.457V292Z" fill="black"/>
<path d="M135.457 282.881H144.577V273.762H135.457V282.881Z" fill="#B59910"/>
<path d="M126.391 292H135.512V282.881H126.391V292Z" fill="black"/>
<path d="M126.391 282.881H135.512V273.762H126.391V282.881Z" fill="#B59910"/>
<path d="M271.442 292H280.562V282.881H271.442V292Z" fill="black"/>
<path d="M271.442 282.881H280.562V273.762H271.442V282.881Z" fill="#B59910"/>
<path d="M280.508 292H289.628V282.881H280.508V292Z" fill="black"/>
<path d="M280.508 282.881H289.628V273.762H280.508V282.881Z" fill="black"/>
<path d="M117.325 292H126.445V282.881H117.325V292Z" fill="black"/>
<path d="M117.325 282.881H126.445V273.762H117.325V282.881Z" fill="#B59910"/>
<path d="M217.048 273.762H226.168V264.642H217.048V273.762Z" fill="black"/>
<path d="M207.982 273.762H217.103V264.642H207.982V273.762Z" fill="black"/>
<path d="M198.916 273.762H208.036V264.642H198.916V273.762Z" fill="black"/>
<path d="M189.869 273.762H198.989V264.642H189.869V273.762Z" fill="black"/>
<path d="M180.803 273.762H189.924V264.642H180.803V273.762Z" fill="black"/>
<path d="M171.737 273.762H180.857V264.642H171.737V273.762Z" fill="black"/>
<path d="M162.672 273.762H171.792V264.642H162.672V273.762Z" fill="black"/>
<path d="M153.606 273.762H162.727V264.642H153.606V273.762Z" fill="black"/>
<path d="M153.478 264.624H162.599V255.505H153.478V264.624Z" fill="black"/>
<path d="M153.478 255.596H162.599V246.476H153.478V255.596Z" fill="black"/>
<path d="M144.413 255.596H153.533V246.476H144.413V255.596Z" fill="#B59910"/>
<path d="M153.478 246.568H162.599V237.449H153.478V246.568Z" fill="black"/>
<path d="M144.413 246.568H153.533V237.449H144.413V246.568Z" fill="black"/>
<path d="M135.457 273.762H144.577V264.642H135.457V273.762Z" fill="black"/>
<path d="M126.391 273.762H135.512V264.642H126.391V273.762Z" fill="black"/>
<path d="M280.508 273.762H289.628V264.642H280.508V273.762Z" fill="black"/>
<path d="M117.325 273.762H126.445V264.642H117.325V273.762Z" fill="black"/>
<path d="M97.0593 292H117.361V282.881H97.0593V292Z" fill="black"/>
<path d="M108.241 282.881H117.361V273.762H108.241V282.881Z" fill="#B59910"/>
<path d="M180.894 264.624H171.773V273.743H180.894V264.624Z" fill="black"/>
<path d="M189.96 264.624H180.84V273.743H189.96V264.624Z" fill="black"/>
<path d="M199.026 264.624H189.905V273.743H199.026V264.624Z" fill="black"/>
<path d="M208.091 264.624H198.971V273.743H208.091V264.624Z" fill="black"/>
<path d="M217.157 264.624H208.036V273.743H217.157V264.624Z" fill="black"/>
<path d="M226.223 264.624H217.103V273.743H226.223V264.624Z" fill="black"/>
<path d="M108.241 273.762H117.361V264.642H108.241V273.762Z" fill="black"/>
<path d="M144.413 273.762H153.533V264.642H144.413V273.762Z" fill="#B59910"/>
<path d="M144.413 264.624H153.533V255.505H144.413V264.624Z" fill="#B59910"/>
<path d="M144.412 256.891H147.148V246.622H144.412V256.891Z" fill="#DDC458"/>
<path d="M144.412 277.354H147.148V267.086H144.412V277.354Z" fill="#DDC458"/>
<path d="M144.412 267.05H147.148V256.781H144.412V267.05Z" fill="#DDC458"/>
<path d="M135.457 277.409H144.577V273.761H135.457V277.409Z" fill="#DDC458"/>
<path d="M126.391 277.409H135.512V273.761H126.391V277.409Z" fill="#DDC458"/>
<path d="M117.325 277.409H126.445V273.761H117.325V277.409Z" fill="#DDC458"/>
<path d="M108.241 277.409H117.361V273.761H108.241V277.409Z" fill="#DDC458"/>
<path d="M99.2663 282.881H108.387V273.762H99.2663V282.881Z" fill="#B59910"/>
<path d="M90.0183 292H99.1387V282.881H90.0183V292Z" fill="black"/>
<path d="M90.0183 282.881H99.1387V273.762H90.0183V282.881Z" fill="black"/>
<path d="M80.989 292H90.1094V282.881H80.989V292Z" fill="black"/>
<path d="M99.2663 273.762H108.387V264.642H99.2663V273.762Z" fill="black"/>
<path d="M99.2663 277.409H108.387V273.761H99.2663V277.409Z" fill="#DDC458"/>
<path d="M298.712 237.211H289.592V246.33H298.712V237.211Z" fill="#F0BA34"/>
<path d="M307.832 237.211H298.712V246.33H307.832V237.211Z" fill="black"/>
<path d="M316.916 237.211H307.796V246.33H316.916V237.211Z" fill="black"/>
<path d="M298.712 246.33H289.592V255.449H298.712V246.33Z" fill="black"/>
<path d="M307.832 246.33H298.712V255.449H307.832V246.33Z" fill="black"/>
<path d="M280.58 237.211H271.46V246.33H280.58V237.211Z" fill="#FAFCFD"/>
<path d="M289.646 246.33H280.525V255.449H289.646V246.33Z" fill="#F0BA34"/>
<path d="M289.646 237.211H280.525V246.33H289.646V237.211Z" fill="#FAFCFD"/>
<path d="M235.234 264.569H226.113V273.689H235.234V264.569Z" fill="#F0BA34"/>
<path d="M235.234 255.469H226.113V264.588H235.234V255.469Z" fill="#FAFCFD"/>
<path d="M235.234 246.33H226.113V255.449H235.234V246.33Z" fill="#FAFCFD"/>
<path d="M235.234 237.211H226.113V246.33H235.234V237.211Z" fill="#FAFCFD"/>
<path d="M244.299 264.569H235.179V273.689H244.299V264.569Z" fill="#F0BA34"/>
<path d="M244.299 255.469H235.179V264.588H244.299V255.469Z" fill="#FAFCFD"/>
<path d="M244.299 246.33H235.179V255.449H244.299V246.33Z" fill="#FAFCFD"/>
<path d="M244.299 237.211H235.179V246.33H244.299V237.211Z" fill="#FAFCFD"/>
<path d="M253.365 264.569H244.244V273.689H253.365V264.569Z" fill="#F0BA34"/>
<path d="M253.365 255.469H244.244V264.588H253.365V255.469Z" fill="#FAFCFD"/>
<path d="M253.365 246.33H244.244V255.449H253.365V246.33Z" fill="#FAFCFD"/>
<path d="M253.365 237.211H244.244V246.33H253.365V237.211Z" fill="#FAFCFD"/>
<path d="M262.431 264.569H253.311V273.689H262.431V264.569Z" fill="#F0BA34"/>
<path d="M262.431 255.469H253.311V264.588H262.431V255.469Z" fill="#FAFCFD"/>
<path d="M262.431 246.33H253.311V255.449H262.431V246.33Z" fill="#FAFCFD"/>
<path d="M262.431 237.211H253.311V246.33H262.431V237.211Z" fill="#FAFCFD"/>
<path d="M271.496 264.569H262.376V273.689H271.496V264.569Z" fill="#F0BA34"/>
<path d="M271.496 255.469H262.376V264.588H271.496V255.469Z" fill="#FAFCFD"/>
<path d="M271.496 246.33H262.376V255.449H271.496V246.33Z" fill="#FAFCFD"/>
<path d="M271.496 237.211H262.376V246.33H271.496V237.211Z" fill="#FAFCFD"/>
<path d="M298.712 228.129H289.592V237.248H298.712V228.129Z" fill="#FAFCFD"/>
<path d="M307.832 228.129H298.712V237.248H307.832V228.129Z" fill="#F0BA34"/>
<path d="M316.916 228.129H307.796V237.248H316.916V228.129Z" fill="black"/>
<path d="M280.58 228.129H271.46V237.248H280.58V228.129Z" fill="#FAFCFD"/>
<path d="M289.646 228.129H280.525V237.248H289.646V228.129Z" fill="#FAFCFD"/>
<path d="M235.234 228.129H226.113V237.248H235.234V228.129Z" fill="#FAFCFD"/>
<path d="M226.114 264.569H216.993V273.689H226.114V264.569Z" fill="black"/>
<path d="M226.114 255.469H216.993V264.588H226.114V255.469Z" fill="black"/>
<path d="M226.114 246.33H216.993V255.449H226.114V246.33Z" fill="black"/>
<path d="M226.114 237.211H216.993V246.33H226.114V237.211Z" fill="black"/>
<path d="M226.114 228.129H216.993V237.248H226.114V228.129Z" fill="black"/>
<path d="M244.299 228.129H235.179V237.248H244.299V228.129Z" fill="#FAFCFD"/>
<path d="M253.365 228.129H244.244V237.248H253.365V228.129Z" fill="#FAFCFD"/>
<path d="M262.431 228.129H253.311V237.248H262.431V228.129Z" fill="#FAFCFD"/>
<path d="M271.496 228.129H262.376V237.248H271.496V228.129Z" fill="#FAFCFD"/>
<path d="M298.712 219.1H289.592V228.219H298.712V219.1Z" fill="black"/>
<path d="M307.832 219.1H298.712V228.219H307.832V219.1Z" fill="black"/>
<path d="M316.916 219.1H307.796V228.219H316.916V219.1Z" fill="black"/>
<path d="M326 228.129H316.88V237.248H326V228.129Z" fill="black"/>
<path d="M280.58 219.1H271.46V228.219H280.58V219.1Z" fill="black"/>
<path d="M289.646 219.1H280.525V228.219H289.646V219.1Z" fill="black"/>
<path d="M235.234 219.1H226.113V228.219H235.234V219.1Z" fill="black"/>
<path d="M226.114 219.1H216.993V228.219H226.114V219.1Z" fill="black"/>
<path d="M244.299 219.1H235.179V228.219H244.299V219.1Z" fill="black"/>
<path d="M253.365 219.1H244.244V228.219H253.365V219.1Z" fill="black"/>
<path d="M262.431 219.1H253.311V228.219H262.431V219.1Z" fill="black"/>
<path d="M271.496 219.1H262.376V228.219H271.496V219.1Z" fill="black"/>
<path d="M280.58 264.569H271.46V273.689H280.58V264.569Z" fill="#F0BA34"/>
<path d="M280.58 255.469H271.46V264.588H280.58V255.469Z" fill="#F0BA34"/>
<path d="M280.58 246.33H271.46V255.449H280.58V246.33Z" fill="#FAFCFD"/>
<path d="M298.712 255.469H289.592V264.588H298.712V255.469Z" fill="black"/>
<path d="M289.646 255.469H280.525V264.588H289.646V255.469Z" fill="#F0BA34"/>
<path d="M289.646 264.569H280.525V273.689H289.646V264.569Z" fill="black"/>
<path d="M244.282 252.769H235.161V255.504H244.282V252.769Z" fill="#D3E0E5"/>
<path d="M253.347 252.769H244.227V255.504H253.347V252.769Z" fill="#D3E0E5"/>
<path d="M262.412 252.769H253.292V255.504H262.412V252.769Z" fill="#D3E0E5"/>
<path d="M271.478 252.769H262.357V255.504H271.478V252.769Z" fill="#D3E0E5"/>
<path d="M253.438 243.723H244.317V246.458H253.438V243.723Z" fill="#D3E0E5"/>
<path d="M262.503 243.723H253.383V246.458H262.503V243.723Z" fill="#D3E0E5"/>
<path d="M271.57 243.723H262.449V246.458H271.57V243.723Z" fill="#D3E0E5"/>
<path d="M280.635 243.723H271.515V246.458H280.635V243.723Z" fill="#D3E0E5"/>
<path d="M262.486 234.566H253.365V237.302H262.486V234.566Z" fill="#D3E0E5"/>
<path d="M271.551 234.566H262.431V237.302H271.551V234.566Z" fill="#D3E0E5"/>
<path d="M280.617 234.566H271.496V237.302H280.617V234.566Z" fill="#D3E0E5"/>
<path d="M289.683 234.566H280.562V237.302H289.683V234.566Z" fill="#D3E0E5"/>
<path d="M201.835 195.208V189.08H195.761V195.208H201.835Z" fill="black"/>
<path d="M207.891 195.208V189.08H201.816V195.208H207.891Z" fill="black"/>
<path d="M213.965 195.208V189.08H207.891V195.208H213.965Z" fill="black"/>
<path d="M220.039 195.208V189.08H213.965V195.208H220.039Z" fill="black"/>
<path d="M226.095 195.208V189.08H220.021V195.208H226.095Z" fill="black"/>
<path d="M232.169 195.208V189.08H226.095V195.208H232.169Z" fill="black"/>
<path d="M238.243 195.208V189.08H232.169V195.208H238.243Z" fill="black"/>
<path d="M195.742 201.263V195.135H189.668V201.263H195.742Z" fill="black"/>
<path d="M201.816 201.263V195.135H195.742V201.263H201.816Z" fill="#1EC141"/>
<path d="M207.872 201.263V195.135H201.798V201.263H207.872Z" fill="#1EC141"/>
<path d="M213.946 201.263V195.135H207.872V201.263H213.946Z" fill="#1EC141"/>
<path d="M220.021 201.263V195.135H213.946V201.263H220.021Z" fill="#1EC141"/>
<path d="M226.077 201.263V195.135H220.003V201.263H226.077Z" fill="#1EC141"/>
<path d="M232.151 201.263V195.135H226.077V201.263H232.151Z" fill="#1EC141"/>
<path d="M238.226 201.263V195.135H232.151V201.263H238.226Z" fill="#1EC141"/>
<path d="M244.281 201.263V195.135H238.207V201.263H244.281Z" fill="#1EC141"/>
<path d="M195.742 207.318V201.189H189.668V207.318H195.742Z" fill="black"/>
<path d="M201.816 207.318V201.189H195.742V207.318H201.816Z" fill="#1EC141"/>
<path d="M207.872 207.318V201.189H201.798V207.318H207.872Z" fill="#1EC141"/>
<path d="M213.946 207.318V201.189H207.872V207.318H213.946Z" fill="#1EC141"/>
<path d="M220.021 207.318V201.189H213.946V207.318H220.021Z" fill="#1EC141"/>
<path d="M226.077 207.318V201.189H220.003V207.318H226.077Z" fill="#1EC141"/>
<path d="M232.151 207.318V201.189H226.077V207.318H232.151Z" fill="#1EC141"/>
<path d="M238.226 207.318V201.189H232.151V207.318H238.226Z" fill="#1EC141"/>
<path d="M244.281 207.318V201.189H238.207V207.318H244.281Z" fill="#1EC141"/>
<path d="M195.742 213.373V207.245H189.668V213.373H195.742Z" fill="black"/>
<path d="M201.816 213.373V207.245H195.742V213.373H201.816Z" fill="#1EC141"/>
<path d="M207.891 213.373V207.245H201.816V213.373H207.891Z" fill="#1EC141"/>
<path d="M213.946 213.373V207.245H207.872V213.373H213.946Z" fill="white"/>
<path d="M220.021 213.373V207.245H213.946V213.373H220.021Z" fill="#1EC141"/>
<path d="M226.095 213.373V207.245H220.021V213.373H226.095Z" fill="#1EC141"/>
<path d="M232.151 213.373V207.245H226.077V213.373H232.151Z" fill="#1EC141"/>
<path d="M238.226 213.373V207.245H232.151V213.373H238.226Z" fill="#1EC141"/>
<path d="M244.3 213.373V207.245H238.226V213.373H244.3Z" fill="#1EC141"/>
<path d="M195.742 219.429V213.301H189.668V219.429H195.742Z" fill="black"/>
<path d="M201.816 219.429V213.301H195.742V219.429H201.816Z" fill="#1EC141"/>
<path d="M207.891 219.447V213.318H201.816V219.447H207.891Z" fill="#1EC141"/>
<path d="M213.946 219.429V213.301H207.872V219.429H213.946Z" fill="#1EC141"/>
<path d="M220.021 219.429V213.301H213.946V219.429H220.021Z" fill="white"/>
<path d="M226.095 219.447V213.318H220.021V219.447H226.095Z" fill="#1EC141"/>
<path d="M232.151 219.429V213.301H226.077V219.429H232.151Z" fill="#1EC141"/>
<path d="M238.226 219.429V213.301H232.151V219.429H238.226Z" fill="#1EC141"/>
<path d="M244.3 219.447V213.318H238.226V219.447H244.3Z" fill="#1EC141"/>
<path d="M195.742 225.484V219.355H189.668V225.484H195.742Z" fill="black"/>
<path d="M201.816 225.484V219.355H195.742V225.484H201.816Z" fill="#1EC141"/>
<path d="M207.891 225.502V219.374H201.816V225.502H207.891Z" fill="#1EC141"/>
<path d="M213.946 225.484V219.355H207.872V225.484H213.946Z" fill="#1EC141"/>
<path d="M220.021 225.484V219.355H213.946V225.484H220.021Z" fill="#1EC141"/>
<path d="M226.095 225.502V219.374H220.021V225.502H226.095Z" fill="white"/>
<path d="M232.151 225.484V219.355H226.077V225.484H232.151Z" fill="#1EC141"/>
<path d="M238.226 225.484V219.355H232.151V225.484H238.226Z" fill="#1EC141"/>
<path d="M244.3 225.502V219.374H238.226V225.502H244.3Z" fill="#1EC141"/>
<path d="M195.742 231.538V225.41H189.668V231.538H195.742Z" fill="black"/>
<path d="M201.816 231.538V225.41H195.742V231.538H201.816Z" fill="#1EC141"/>
<path d="M207.891 231.558V225.43H201.816V231.558H207.891Z" fill="#1EC141"/>
<path d="M213.946 231.538V225.41H207.872V231.538H213.946Z" fill="#1EC141"/>
<path d="M220.021 231.538V225.41H213.946V231.538H220.021Z" fill="#1EC141"/>
<path d="M226.095 231.558V225.43H220.021V231.558H226.095Z" fill="#1EC141"/>
<path d="M232.151 231.538V225.41H226.077V231.538H232.151Z" fill="white"/>
<path d="M238.226 231.538V225.41H232.151V231.538H238.226Z" fill="#1EC141"/>
<path d="M244.3 231.558V225.43H238.226V231.558H244.3Z" fill="#1EC141"/>
<path d="M195.742 237.595V231.467H189.668V237.595H195.742Z" fill="black"/>
<path d="M201.816 237.595V231.467H195.742V237.595H201.816Z" fill="#1EC141"/>
<path d="M207.891 237.613V231.484H201.816V237.613H207.891Z" fill="#1EC141"/>
<path d="M213.946 237.594V231.466H207.872V237.594H213.946Z" fill="#1EC141"/>
<path d="M220.021 237.594V231.466H213.946V237.594H220.021Z" fill="#1EC141"/>
<path d="M226.095 237.613V231.484H220.021V237.613H226.095Z" fill="#1EC141"/>
<path d="M232.151 237.595V231.467H226.077V237.595H232.151Z" fill="#1EC141"/>
<path d="M238.226 237.595V231.467H232.151V237.595H238.226Z" fill="#1EC141"/>
<path d="M244.3 237.613V231.484H238.226V237.613H244.3Z" fill="#1EC141"/>
<path d="M195.761 243.65V237.521H189.687V243.65H195.761Z" fill="black"/>
<path d="M201.816 243.65V237.521H195.742V243.65H201.816Z" fill="#1EC141"/>
<path d="M207.891 243.667V237.539H201.816V243.667H207.891Z" fill="#1EC141"/>
<path d="M213.965 243.65V237.521H207.891V243.65H213.965Z" fill="#1EC141"/>
<path d="M220.021 243.65V237.521H213.946V243.65H220.021Z" fill="#1EC141"/>
<path d="M226.095 243.667V237.539H220.021V243.667H226.095Z" fill="#1EC141"/>
<path d="M232.169 243.65V237.521H226.095V243.65H232.169Z" fill="#1EC141"/>
<path d="M238.226 243.65V237.521H232.151V243.65H238.226Z" fill="#1EC141"/>
<path d="M244.3 243.667V237.539H238.226V243.667H244.3Z" fill="#1EC141"/>
<path d="M201.816 249.723V243.595H195.742V249.723H201.816Z" fill="black"/>
<path d="M207.891 249.723V243.595H201.816V249.723H207.891Z" fill="black"/>
<path d="M213.965 249.704V243.576H207.891V249.704H213.965Z" fill="black"/>
<path d="M220.021 249.723V243.595H213.946V249.723H220.021Z" fill="black"/>
<path d="M226.095 249.723V243.595H220.021V249.723H226.095Z" fill="black"/>
<path d="M232.169 249.704V243.576H226.095V249.704H232.169Z" fill="black"/>
<path d="M238.226 249.723V243.595H232.151V249.723H238.226Z" fill="black"/>
<path d="M244.263 195.208V189.08H238.188V195.208H244.263Z" fill="black"/>
<path d="M250.318 201.263V195.135H244.244V201.263H250.318Z" fill="black"/>
<path d="M250.318 207.318V201.189H244.244V207.318H250.318Z" fill="black"/>
<path d="M250.318 213.373V207.245H244.244V213.373H250.318Z" fill="black"/>
<path d="M250.318 219.429V213.301H244.244V219.429H250.318Z" fill="black"/>
<path d="M250.318 225.484V219.355H244.244V225.484H250.318Z" fill="black"/>
<path d="M250.318 231.538V225.41H244.244V231.538H250.318Z" fill="black"/>
<path d="M250.318 237.594V231.466H244.244V237.594H250.318Z" fill="black"/>
<path d="M250.318 243.65V237.521H244.244V243.65H250.318Z" fill="black"/>
<path d="M244.263 249.704V243.576H238.189V249.704H244.263Z" fill="black"/>
<path d="M210.919 213.392V207.264H204.845V213.392H210.919Z" fill="white"/>
<path d="M210.919 219.447V213.318H204.845V219.447H210.919Z" fill="white"/>
<path d="M210.937 225.502V219.374H204.862V225.502H210.937Z" fill="white"/>
<path d="M210.937 231.558V225.43H204.862V231.558H210.937Z" fill="white"/>
<path d="M235.489 213.373V207.245H229.415V213.373H235.489Z" fill="white"/>
<path d="M235.489 219.429V213.301H229.415V219.429H235.489Z" fill="white"/>
<path d="M235.489 225.484V219.355H229.415V225.484H235.489Z" fill="white"/>
<path d="M235.489 231.538V225.41H229.415V231.538H235.489Z" fill="white"/>
<path d="M189.632 255.395H180.548V273.998H189.632V255.395Z" fill="#B59910"/>
<path d="M180.53 249.468H183.266V237.266H180.53V249.468Z" fill="#DDC458"/>
<path d="M180.493 237.248V239.983H189.614V237.248H180.493Z" fill="#DDC458"/>
<path d="M144.376 246.641V249.377H153.496V246.641H144.376Z" fill="#DDC458"/>
<path d="M180.53 273.743H183.266V261.542H180.53V273.743Z" fill="#DDC458"/>
<path d="M180.53 261.523H183.266V249.322H180.53V261.523Z" fill="#DDC458"/>
</svg>
