<svg width="50" height="66" viewBox="0 0 50 66" fill="none" xmlns="http://www.w3.org/2000/svg">
<path d="M5 15H10V10H40V15H15V30H35V35H15V55H40V60H10V55H5V15Z" fill="white"/>
<path d="M5 15V11H1V15H5ZM10 15V19H14V15H10ZM10 10V6H6V10H10ZM40 10H44V6H40V10ZM40 15V19H44V15H40ZM15 15V11H11V15H15ZM15 30H11V34H15V30ZM35 30H39V26H35V30ZM35 35V39H39V35H35ZM15 35V31H11V35H15ZM15 55H11V59H15V55ZM40 55H44V51H40V55ZM40 60V64H44V60H40ZM10 60H6V64H10V60ZM10 55H14V51H10V55ZM5 55H1V59H5V55ZM5 19H10V11H5V19ZM14 15V10H6V15H14ZM10 14H40V6H10V14ZM36 10V15H44V10H36ZM40 11H15V19H40V11ZM11 15V30H19V15H11ZM15 34H35V26H15V34ZM31 30V35H39V30H31ZM35 31H15V39H35V31ZM11 35V55H19V35H11ZM15 59H40V51H15V59ZM36 55V60H44V55H36ZM40 56H10V64H40V56ZM14 60V55H6V60H14ZM10 51H5V59H10V51ZM9 55V15H1V55H9Z" fill="#A9AB5A"/>
<path d="M5 15H10V10H40V15H15V30H35V35H15V55H40V60H10V55H5V15Z" fill="white"/>
<path d="M5 15V13H3V15H5ZM10 15V17H12V15H10ZM10 10V8H8V10H10ZM40 10H42V8H40V10ZM40 15V17H42V15H40ZM15 15V13H13V15H15ZM15 30H13V32H15V30ZM35 30H37V28H35V30ZM35 35V37H37V35H35ZM15 35V33H13V35H15ZM15 55H13V57H15V55ZM40 55H42V53H40V55ZM40 60V62H42V60H40ZM10 60H8V62H10V60ZM10 55H12V53H10V55ZM5 55H3V57H5V55ZM5 17H10V13H5V17ZM12 15V10H8V15H12ZM10 12H40V8H10V12ZM38 10V15H42V10H38ZM40 13H15V17H40V13ZM13 15V30H17V15H13ZM15 32H35V28H15V32ZM33 30V35H37V30H33ZM35 33H15V37H35V33ZM13 35V55H17V35H13ZM15 57H40V53H15V57ZM38 55V60H42V55H38ZM40 58H10V62H40V58ZM12 60V55H8V60H12ZM10 53H5V57H10V53ZM7 55V15H3V55H7Z" fill="black"/>
<path d="M5 15H10V10H40V15H15V30H35V35H15V55H40V60H10V55H5V15Z" fill="white"/>
</svg>
