<svg width="102" height="189" viewBox="0 0 102 189" fill="none" xmlns="http://www.w3.org/2000/svg">
<path d="M62.8565 119.733H69.1621V113.428H62.8565V119.733Z" fill="#EB480A"/>
<path d="M69.0567 119.733H75.3623V113.428H69.0567V119.733Z" fill="#EB480A"/>
<path d="M56.5186 119.733H62.8242V113.428H56.5186V119.733Z" fill="#FFFFF2"/>
<path d="M50.2657 119.733H56.5713V113.428H50.2657V119.733Z" fill="#FFFFF2"/>
<path d="M44.002 119.733H50.3076V113.428H44.002V119.733Z" fill="#FFFFF2"/>
<path d="M37.7393 119.733H44.0449V113.428H37.7393V119.733Z" fill="#E74608"/>
<path d="M31.4756 119.733H37.7812V113.428H31.4756V119.733Z" fill="#E74608"/>
<path d="M25.2744 119.733H31.5801V113.428H25.2744V119.733Z" fill="#E74608"/>
<path d="M25.2852 126.05H31.5908V119.744H25.2852V126.05Z" fill="#E74608"/>
<path d="M31.5381 126.05H37.8438V119.744H31.5381V126.05Z" fill="#E74608"/>
<path d="M37.8018 126.05H44.1074V119.744H37.8018V126.05Z" fill="#F4FC3E"/>
<path d="M44.0654 126.05H50.3711V119.744H44.0654V126.05Z" fill="#FFFFF2"/>
<path d="M50.3291 126.05H56.6348V119.744H50.3291V126.05Z" fill="#FFFFF2"/>
<path d="M56.5928 126.05H62.8984V119.744H56.5928V126.05Z" fill="#FFFFF2"/>
<path d="M62.8457 126.05H69.1514V119.744H62.8457V126.05Z" fill="#F4FC3E"/>
<path d="M25.2852 132.355H31.5908V126.05H25.2852V132.355Z" fill="#E74608"/>
<path d="M31.5381 132.355H37.8438V126.05H31.5381V132.355Z" fill="#FFE064"/>
<path d="M37.8018 132.355H44.1074V126.05H37.8018V132.355Z" fill="#F4FC3E"/>
<path d="M44.0654 132.355H50.3711V126.05H44.0654V132.355Z" fill="#F4FC3E"/>
<path d="M50.3291 132.355H56.6348V126.05H50.3291V132.355Z" fill="#F4FC3E"/>
<path d="M56.5928 132.355H62.8984V126.05H56.5928V132.355Z" fill="#FFFFF2"/>
<path d="M62.8457 132.355H69.1514V126.05H62.8457V132.355Z" fill="#F4FC3E"/>
<path d="M69.1406 132.355H75.4463V126.05H69.1406V132.355Z" fill="#FFE064"/>
<path d="M75.4463 132.355H81.752V126.05H75.4463V132.355Z" fill="#EB480A"/>
<path d="M25.2852 138.588H31.5908V132.282H25.2852V138.588Z" fill="#E74608"/>
<path d="M31.5381 138.588H37.8438V132.282H31.5381V138.588Z" fill="#FFE064"/>
<path d="M37.8018 138.588H44.1074V132.282H37.8018V138.588Z" fill="#FFE064"/>
<path d="M44.0654 138.588H50.3711V132.282H44.0654V138.588Z" fill="#FFE064"/>
<path d="M50.3291 138.588H56.6348V132.282H50.3291V138.588Z" fill="#F4FC3E"/>
<path d="M56.5928 138.588H62.8984V132.282H56.5928V138.588Z" fill="#F4FC3E"/>
<path d="M62.8457 138.588H69.1514V132.282H62.8457V138.588Z" fill="#FFE064"/>
<path d="M69.1406 138.588H75.4463V132.282H69.1406V138.588Z" fill="#EB480A"/>
<path d="M75.4463 138.588H81.752V132.282H75.4463V138.588Z" fill="#EB480A"/>
<path d="M25.2852 144.819H31.5908V138.514H25.2852V144.819Z" fill="#E74608"/>
<path d="M31.5381 144.819H37.8438V138.514H31.5381V144.819Z" fill="#E74608"/>
<path d="M37.8018 144.819H44.1074V138.514H37.8018V144.819Z" fill="#FF8C27"/>
<path d="M44.0654 144.819H50.3711V138.514H44.0654V144.819Z" fill="#FFE064"/>
<path d="M50.3291 144.819H56.6348V138.514H50.3291V144.819Z" fill="#F4FC3E"/>
<path d="M56.5928 144.819H62.8984V138.514H56.5928V144.819Z" fill="#FFE064"/>
<path d="M62.8457 144.819H69.1514V138.514H62.8457V144.819Z" fill="#FFE064"/>
<path d="M69.1406 144.819H75.4463V138.514H69.1406V144.819Z" fill="#FF8C27"/>
<path d="M75.4463 144.819H81.752V138.514H75.4463V144.819Z" fill="#EB480A"/>
<path d="M31.5381 151.053H37.8438V144.747H31.5381V151.053Z" fill="#E74608"/>
<path d="M37.8018 151.053H44.1074V144.747H37.8018V151.053Z" fill="#E74608"/>
<path d="M44.0654 151.053H50.3711V144.747H44.0654V151.053Z" fill="#FF8C27"/>
<path d="M50.3291 151.053H56.6348V144.747H50.3291V151.053Z" fill="#FFE064"/>
<path d="M56.5928 151.053H62.8984V144.747H56.5928V151.053Z" fill="#FFE064"/>
<path d="M62.8457 151.053H69.1514V144.747H62.8457V151.053Z" fill="#FF8C27"/>
<path d="M69.1406 151.053H75.4463V144.747H69.1406V151.053Z" fill="#FF8C27"/>
<path d="M75.4463 151.053H81.752V144.747H75.4463V151.053Z" fill="#EB480A"/>
<path d="M37.8018 157.357H44.1074V151.052H37.8018V157.357Z" fill="#E74608"/>
<path d="M44.0654 157.357H50.3711V151.052H44.0654V157.357Z" fill="#E74608"/>
<path d="M50.3291 157.357H56.6348V151.052H50.3291V157.357Z" fill="#FF8C27"/>
<path d="M56.5928 157.357H62.8984V151.052H56.5928V157.357Z" fill="#FF8C27"/>
<path d="M62.8457 157.357H69.1514V151.052H62.8457V157.357Z" fill="#FFE064"/>
<path d="M69.1406 157.357H75.4463V151.052H69.1406V157.357Z" fill="#EB480A"/>
<path d="M37.8018 163.674H44.1074V157.368H37.8018V163.674Z" fill="#E74608"/>
<path d="M44.0654 163.674H50.3711V157.368H44.0654V163.674Z" fill="#E74608"/>
<path d="M50.3291 163.674H56.6348V157.368H50.3291V163.674Z" fill="#E74608"/>
<path d="M56.5928 163.674H62.8984V157.368H56.5928V163.674Z" fill="#EB480A"/>
<path d="M62.8457 163.674H69.1514V157.368H62.8457V163.674Z" fill="#FFE064"/>
<path d="M69.1406 163.674H75.4463V157.368H69.1406V163.674Z" fill="#EB480A"/>
<path d="M44.0654 169.979H50.3711V163.674H44.0654V169.979Z" fill="#FF8C27"/>
<path d="M50.3291 169.979H56.6348V163.674H50.3291V169.979Z" fill="#E74608"/>
<path d="M56.5928 169.979H62.8984V163.674H56.5928V169.979Z" fill="#EB480A"/>
<path d="M19 126.05H25.3057V119.744H19V126.05Z" fill="white"/>
<path d="M19 132.355H25.3057V126.05H19V132.355Z" fill="white"/>
<path d="M19 138.588H25.3057V132.282H19V138.588Z" fill="white"/>
<path d="M19 144.819H25.3057V138.514H19V144.819Z" fill="white"/>
<path d="M25.2533 151.053H31.7373V144.747H25.2533V151.053Z" fill="white"/>
<path d="M31.7383 157.357H38.0439V151.052H31.7383V157.357Z" fill="white"/>
<path d="M31.7383 163.674H38.0439V157.368H31.7383V163.674Z" fill="white"/>
<path d="M37.791 169.979H44.0967V163.674H37.791V169.979Z" fill="white"/>
<path d="M44 177H50V170H44V177Z" fill="white"/>
<path d="M62.8457 169.979H69.1514V163.674H62.8457V169.979Z" fill="#EB480A"/>
<path d="M69.1406 169.979H75.4463V163.674H69.1406V169.979Z" fill="#EB480A"/>
<path d="M75.4463 157.357H81.752V151.052H75.4463V157.357Z" fill="#EB480A"/>
<path d="M75.3948 126.05H82.1201V119.744H75.3948V126.05Z" fill="white"/>
<path d="M81.711 132.355H88.0166V126.05H81.711V132.355Z" fill="white"/>
<path d="M81.711 138.588H88.0166V132.282H81.711V138.588Z" fill="white"/>
<path d="M81.711 144.819H88.0166V138.514H81.711V144.819Z" fill="white"/>
<path d="M81.711 151.053H88.0166V144.747H81.711V151.053Z" fill="white"/>
<path d="M75.3945 163.674H81.7002V157.368H75.3945V163.674Z" fill="white"/>
<path d="M63 189H70V183H63V189Z" fill="white"/>
<path d="M69 189H76V183H69V189Z" fill="white"/>
<path d="M69 183H76V176H69V183Z" fill="white"/>
<path d="M57 189H64V183H57V189Z" fill="white"/>
<path d="M57 183H63V176H57V183Z" fill="white"/>
<path d="M75.3945 169.979H81.7002V163.674H75.3945V169.979Z" fill="white"/>
<path d="M75.3945 176.306H81.7002V170H75.3945V176.306Z" fill="white"/>
<path d="M81.711 157.357H88.0166V151.052H81.711V157.357Z" fill="white"/>
<path d="M69.1408 126.05H75.7822V119.744H69.1408V126.05Z" fill="#EB480A"/>
<path d="M68.9424 176.296H75.248V169.99H68.9424V176.296Z" fill="white"/>
<path d="M58.7934 157.379H50.2949V163.685H58.7934V157.379Z" fill="#FFE064"/>
<path d="M65.004 157.379H56.7363V163.685H65.004V157.379Z" fill="#FF8C27"/>
<path d="M50.348 157.379H44.3467V163.685H50.348V157.379Z" fill="#FFE064"/>
<path d="M69.1797 157.379H62.874V163.685H69.1797V157.379Z" fill="white"/>
<path d="M38.1455 169.927H44.4512V163.621H38.1455V169.927Z" fill="white"/>
<path d="M44.3565 169.927H50.6621V163.621H44.3565V169.927Z" fill="#EEEED2"/>
<path d="M50.5674 169.927H56.873V163.621H50.5674V169.927Z" fill="#EEEED2"/>
<path d="M56.7783 169.927H63.084V163.621H56.7783V169.927Z" fill="#FFEDA8"/>
<path d="M62.9893 169.927H69.2949V163.621H62.9893V169.927Z" fill="#FFEDA8"/>
<path d="M69.2012 169.927H75.5068V163.621H69.2012V169.927Z" fill="#FFE064"/>
<path d="M56 176H63V170H56V176Z" fill="#EEEED2"/>
<path d="M69.2012 176.265H75.5068V169.959H69.2012V176.265Z" fill="#EEEED2"/>
<path d="M63 176H70V170H63V176Z" fill="#FFEDA8"/>
<path d="M63 183H70V176H63V183Z" fill="#EEEED2"/>
<path d="M50 177H57V170H50V177Z" fill="#D1D2D4"/>
<path d="M37.7715 113.471H31.4658V119.776H37.7715V113.471Z" fill="black"/>
<path d="M44.0771 113.471H37.7715V119.776H44.0771V113.471Z" fill="black"/>
<path d="M50.3926 113.471H44.0869V119.776H50.3926V113.471Z" fill="black"/>
<path d="M56.6992 113.471H50.3936V119.776H56.6992V113.471Z" fill="black"/>
<path d="M63.0039 113.471H56.6982V119.776H63.0039V113.471Z" fill="black"/>
<path d="M69.3203 113.471H63.0146V119.776H69.3203V113.471Z" fill="black"/>
<path d="M31.4443 113.471H25.1387V119.776H31.4443V113.471Z" fill="black"/>
<path d="M31.4443 107.144H25.1387V113.449H31.4443V107.144Z" fill="black"/>
<path d="M31.4443 100.816H25.1387V107.122H31.4443V100.816Z" fill="black"/>
<path d="M31.4443 94.4795H25.1387V100.785H31.4443V94.4795Z" fill="black"/>
<path d="M31.4443 88.1523H25.1387V94.458H31.4443V88.1523Z" fill="black"/>
<path d="M75.6367 113.471H69.3311V119.776H75.6367V113.471Z" fill="black"/>
<path d="M75.6367 107.144H69.3311V113.449H75.6367V107.144Z" fill="black"/>
<path d="M75.6367 100.816H69.3311V107.122H75.6367V100.816Z" fill="black"/>
<path d="M75.6367 94.4795H69.3311V100.785H75.6367V94.4795Z" fill="black"/>
<path d="M75.6367 88.1523H69.3311V94.458H75.6367V88.1523Z" fill="black"/>
<path d="M31.5908 81.8477H25.2852V88.1533H31.5908V81.8477Z" fill="black"/>
<path d="M25.2754 75.542H18.9697V81.8476H25.2754V75.542Z" fill="black"/>
<path d="M25.2539 81.8477H18.9482V88.1533H25.2539V81.8477Z" fill="black"/>
<path d="M18.9482 75.542H12.6426V81.8476H18.9482V75.542Z" fill="black"/>
<path d="M81.9316 75.542H75.626V81.8476H81.9316V75.542Z" fill="black"/>
<path d="M81.9316 81.8574H75.626V88.1631H81.9316V81.8574Z" fill="black"/>
<path d="M88.2373 75.542H81.9316V81.8476H88.2373V75.542Z" fill="black"/>
<path d="M88.2373 69.2266H81.9316V75.5322H88.2373V69.2266Z" fill="black"/>
<path d="M56.6992 63.0039H50.3936V69.3096H56.6992V63.0039Z" fill="black"/>
<path d="M63.0039 63.0039H56.6982V69.3096H63.0039V63.0039Z" fill="black"/>
<path d="M69.3203 63.0039H63.0146V69.3096H69.3203V63.0039Z" fill="black"/>
<path d="M94.543 63.0039H88.2373V69.3096H94.543V63.0039Z" fill="black"/>
<path d="M50.3926 56.6885H44.0869V62.9941H50.3926V56.6885Z" fill="black"/>
<path d="M94.543 56.6885H88.2373V62.9941H94.543V56.6885Z" fill="black"/>
<path d="M50.3926 50.3818H44.0869V56.6875H50.3926V50.3818Z" fill="black"/>
<path d="M94.543 50.3818H88.2373V56.6875H94.543V50.3818Z" fill="black"/>
<path d="M18.9697 44.0762H12.6641V50.3818H18.9697V44.0762Z" fill="#0A87E4"/>
<path d="M37.7715 44.0762H31.4658V50.3818H37.7715V44.0762Z" fill="#0A87E4"/>
<path d="M25.2754 44.0762H18.9697V50.3818H25.2754V44.0762Z" fill="#0A87E4"/>
<path d="M44.0771 44.0762H37.7715V50.3818H44.0771V44.0762Z" fill="#0A87E4"/>
<path d="M56.6992 44.0762H50.3936V50.3818H56.6992V44.0762Z" fill="#0A87E4"/>
<path d="M63.0039 44.0762H56.6982V50.3818H63.0039V44.0762Z" fill="#0A87E4"/>
<path d="M69.3203 44.0762H63.0146V50.3818H69.3203V44.0762Z" fill="black"/>
<path d="M75.626 44.0762H69.3203V50.3818H75.626V44.0762Z" fill="#0A87E4"/>
<path d="M81.9316 44.0762H75.626V50.3818H81.9316V44.0762Z" fill="#0A87E4"/>
<path d="M88.2373 44.0762H81.9316V50.3818H88.2373V44.0762Z" fill="#0A87E4"/>
<path d="M81.9316 44.0762H75.626V50.3818H81.9316V44.0762Z" fill="black"/>
<path d="M75.626 44.0762H69.3203V50.3818H75.626V44.0762Z" fill="black"/>
<path d="M63.0039 44.0762H56.6982V50.3818H63.0039V44.0762Z" fill="black"/>
<path d="M56.6992 44.0762H50.3936V50.3818H56.6992V44.0762Z" fill="black"/>
<path d="M44.0869 44.0762H37.7812V50.3818H44.0869V44.0762Z" fill="black"/>
<path d="M37.7715 44.0762H31.4658V50.3818H37.7715V44.0762Z" fill="black"/>
<path d="M25.1592 44.0762H18.8535V50.3818H25.1592V44.0762Z" fill="black"/>
<path d="M18.8545 44.0762H12.5488V50.3818H18.8545V44.0762Z" fill="black"/>
<path d="M31.5908 37.7705H25.2852V44.0762H31.5908V37.7705Z" fill="#0A87E4"/>
<path d="M50.3926 37.7705H44.0869V44.0762H50.3926V37.7705Z" fill="#0A87E4"/>
<path d="M69.3203 37.7705H63.0146V44.0762H69.3203V37.7705Z" fill="#0A87E4"/>
<path d="M88.2373 37.7705H81.9316V44.0762H88.2373V37.7705Z" fill="black"/>
<path d="M88.2373 44.0762H81.9316V50.3818H88.2373V44.0762Z" fill="black"/>
<path d="M31.5908 31.4658H25.2852V37.7715H31.5908V31.4658Z" fill="#0A87E4"/>
<path d="M50.3926 31.4658H44.0869V37.7715H50.3926V31.4658Z" fill="#0A87E4"/>
<path d="M69.3203 31.4658H63.0146V37.7715H69.3203V31.4658Z" fill="#0A87E4"/>
<path d="M88.2373 31.4658H81.9316V37.7715H88.2373V31.4658Z" fill="black"/>
<path d="M31.5908 25.1484H25.2852V31.4541H31.5908V25.1484Z" fill="#0A87E4"/>
<path d="M50.3926 25.1484H44.0869V31.4541H50.3926V25.1484Z" fill="#0A87E4"/>
<path d="M69.3203 25.1484H63.0146V31.4541H69.3203V25.1484Z" fill="#0A87E4"/>
<path d="M88.2373 25.1484H81.9316V31.4541H88.2373V25.1484Z" fill="black"/>
<path d="M12.6328 69.2266H6.32715V75.5322H12.6328V69.2266Z" fill="black"/>
<path d="M12.6328 63.0039H6.32715V69.3096H12.6328V63.0039Z" fill="black"/>
<path d="M12.6328 56.6885H6.32715V62.9941H12.6328V56.6885Z" fill="black"/>
<path d="M12.6328 50.3818H6.32715V56.6875H12.6328V50.3818Z" fill="black"/>
<path d="M12.6328 44.0762H6.32715V50.3818H12.6328V44.0762Z" fill="black"/>
<path d="M12.6328 37.7705H6.32715V44.0762H12.6328V37.7705Z" fill="black"/>
<path d="M12.6328 31.4658H6.32715V37.7715H12.6328V31.4658Z" fill="black"/>
<path d="M12.6328 25.1484H6.32715V31.4541H12.6328V25.1484Z" fill="black"/>
<path d="M12.6328 18.8438H6.32715V25.1494H12.6328V18.8438Z" fill="black"/>
<path d="M31.5908 18.8438H25.2852V25.1494H31.5908V18.8438Z" fill="#0A87E4"/>
<path d="M50.3926 18.8438H44.0869V25.1494H50.3926V18.8438Z" fill="#0A87E4"/>
<path d="M69.3203 18.8438H63.0146V25.1494H69.3203V18.8438Z" fill="#0A87E4"/>
<path d="M88.2373 18.8438H81.9316V25.1494H88.2373V18.8438Z" fill="black"/>
<path d="M31.5908 12.5381H25.2852V18.8437H31.5908V12.5381Z" fill="black"/>
<path d="M25.2754 12.5381H18.9697V18.8437H25.2754V12.5381Z" fill="black"/>
<path d="M18.9482 12.5381H12.6426V18.8437H18.9482V12.5381Z" fill="black"/>
<path d="M50.3926 12.5381H44.0869V18.8437H50.3926V12.5381Z" fill="black"/>
<path d="M69.3203 12.5381H63.0146V18.8437H69.3203V12.5381Z" fill="black"/>
<path d="M69.3203 18.8652H63.0146V25.1709H69.3203V18.8652Z" fill="black"/>
<path d="M69.3203 25.2012H63.0146V31.5068H69.3203V25.2012Z" fill="black"/>
<path d="M69.3203 31.5283H63.0146V37.834H69.3203V31.5283Z" fill="black"/>
<path d="M69.3203 37.8545H63.0146V44.1601H69.3203V37.8545Z" fill="black"/>
<path d="M50.3926 18.8652H44.0869V25.1709H50.3926V18.8652Z" fill="black"/>
<path d="M50.3926 25.2012H44.0869V31.5068H50.3926V25.2012Z" fill="black"/>
<path d="M50.3926 31.5283H44.0869V37.834H50.3926V31.5283Z" fill="black"/>
<path d="M50.3926 37.8545H44.0869V44.1601H50.3926V37.8545Z" fill="black"/>
<path d="M31.5908 18.8652H25.2852V25.1709H31.5908V18.8652Z" fill="black"/>
<path d="M31.5908 25.2012H25.2852V31.5068H31.5908V25.2012Z" fill="black"/>
<path d="M31.5908 31.5283H25.2852V37.834H31.5908V31.5283Z" fill="black"/>
<path d="M31.5908 37.8545H25.2852V44.1601H31.5908V37.8545Z" fill="black"/>
<path d="M37.7715 107.144H31.4658V113.449H37.7715V107.144Z" fill="#B9B9B9"/>
<path d="M44.0771 107.144H37.7715V113.449H44.0771V107.144Z" fill="#CDCDCD"/>
<path d="M50.3935 107.144H44.0879V113.449H50.3935V107.144Z" fill="#CDCDCD"/>
<path d="M56.6992 107.144H50.3936V113.449H56.6992V107.144Z" fill="#CDCDCD"/>
<path d="M63.0039 107.144H56.6982V113.449H63.0039V107.144Z" fill="#CDCDCD"/>
<path d="M69.3213 107.144H63.0156V113.449H69.3213V107.144Z" fill="#ACACAC"/>
<path d="M37.7715 100.816H31.4658V107.122H37.7715V100.816Z" fill="#B9B9B9"/>
<path d="M44.0771 100.816H37.7715V107.122H44.0771V100.816Z" fill="#CDCDCD"/>
<path d="M50.3935 100.816H44.0879V107.122H50.3935V100.816Z" fill="#CDCDCD"/>
<path d="M56.6992 100.816H50.3936V107.122H56.6992V100.816Z" fill="#CDCDCD"/>
<path d="M63.0039 100.816H56.6982V107.122H63.0039V100.816Z" fill="#CDCDCD"/>
<path d="M69.3213 100.816H63.0156V107.122H69.3213V100.816Z" fill="#ACACAC"/>
<path d="M37.7715 94.4795H31.4658V100.785H37.7715V94.4795Z" fill="#B9B9B9"/>
<path d="M44.0771 94.4795H37.7715V100.785H44.0771V94.4795Z" fill="#CDCDCD"/>
<path d="M50.3935 94.4795H44.0879V100.785H50.3935V94.4795Z" fill="#CDCDCD"/>
<path d="M56.6992 94.4795H50.3936V100.785H56.6992V94.4795Z" fill="#CDCDCD"/>
<path d="M63.0039 94.4795H56.6982V100.785H63.0039V94.4795Z" fill="#CDCDCD"/>
<path d="M69.3213 94.4795H63.0156V100.785H69.3213V94.4795Z" fill="#ACACAC"/>
<path d="M37.7715 88.1533H31.4658V94.459H37.7715V88.1533Z" fill="#B9B9B9"/>
<path d="M44.0771 88.1533H37.7715V94.459H44.0771V88.1533Z" fill="#CDCDCD"/>
<path d="M50.3935 88.1533H44.0879V94.459H50.3935V88.1533Z" fill="#CDCDCD"/>
<path d="M56.6992 88.1533H50.3936V94.459H56.6992V88.1533Z" fill="#CDCDCD"/>
<path d="M63.0039 88.1533H56.6982V94.459H63.0039V88.1533Z" fill="#CDCDCD"/>
<path d="M69.3213 88.1533H63.0156V94.459H69.3213V88.1533Z" fill="#ACACAC"/>
<path d="M37.7715 81.8477H31.4658V88.1533H37.7715V81.8477Z" fill="#CDCDCD"/>
<path d="M44.0771 81.8477H37.7715V88.1533H44.0771V81.8477Z" fill="#CDCDCD"/>
<path d="M50.3935 81.8477H44.0879V88.1533H50.3935V81.8477Z" fill="#CDCDCD"/>
<path d="M56.6992 81.8477H50.3936V88.1533H56.6992V81.8477Z" fill="#CDCDCD"/>
<path d="M63.0039 81.8477H56.6982V88.1533H63.0039V81.8477Z" fill="#CDCDCD"/>
<path d="M69.3213 81.8477H63.0156V88.1533H69.3213V81.8477Z" fill="#CDCDCD"/>
<path d="M75.626 81.8477H69.3203V88.1533H75.626V81.8477Z" fill="#ACACAC"/>
<path d="M37.7715 75.542H31.4658V81.8476H37.7715V75.542Z" fill="#CDCDCD"/>
<path d="M31.5918 75.542H25.2861V81.8476H31.5918V75.542Z" fill="#B9B9B9"/>
<path d="M44.0771 75.542H37.7715V81.8476H44.0771V75.542Z" fill="#CDCDCD"/>
<path d="M50.3935 75.542H44.0879V81.8476H50.3935V75.542Z" fill="#CDCDCD"/>
<path d="M56.6992 75.542H50.3936V81.8476H56.6992V75.542Z" fill="#CDCDCD"/>
<path d="M63.0039 75.542H56.6982V81.8476H63.0039V75.542Z" fill="#CDCDCD"/>
<path d="M69.3213 75.542H63.0156V81.8476H69.3213V75.542Z" fill="#CDCDCD"/>
<path d="M75.626 75.542H69.3203V81.8476H75.626V75.542Z" fill="#929292"/>
<path d="M37.7715 69.2266H31.4658V75.5322H37.7715V69.2266Z" fill="#CDCDCD"/>
<path d="M31.5918 69.2266H25.2861V75.5322H31.5918V69.2266Z" fill="#CDCDCD"/>
<path d="M25.2754 69.2266H18.9697V75.5322H25.2754V69.2266Z" fill="#B9B9B9"/>
<path d="M18.9697 69.2266H12.6641V75.5322H18.9697V69.2266Z" fill="#B9B9B9"/>
<path d="M18.9697 63.0039H12.6641V69.3096H18.9697V63.0039Z" fill="#B9B9B9"/>
<path d="M44.0771 69.2266H37.7715V75.5322H44.0771V69.2266Z" fill="#CDCDCD"/>
<path d="M50.3935 69.2266H44.0879V75.5322H50.3935V69.2266Z" fill="#CDCDCD"/>
<path d="M56.6992 69.2266H50.3936V75.5322H56.6992V69.2266Z" fill="#929292"/>
<path d="M63.0039 69.2266H56.6982V75.5322H63.0039V69.2266Z" fill="#929292"/>
<path d="M69.3213 69.2266H63.0156V75.5322H69.3213V69.2266Z" fill="#929292"/>
<path d="M75.626 69.2266H69.3203V75.5322H75.626V69.2266Z" fill="#CDCDCD"/>
<path d="M81.9316 69.2266H75.626V75.5322H81.9316V69.2266Z" fill="#ACACAC"/>
<path d="M37.7715 63.0039H31.4658V69.3096H37.7715V63.0039Z" fill="#CDCDCD"/>
<path d="M31.5918 63.0039H25.2861V69.3096H31.5918V63.0039Z" fill="#CDCDCD"/>
<path d="M25.2754 63.0039H18.9697V69.3096H25.2754V63.0039Z" fill="#CDCDCD"/>
<path d="M44.0771 63.0039H37.7715V69.3096H44.0771V63.0039Z" fill="#CDCDCD"/>
<path d="M50.3935 63.0039H44.0879V69.3096H50.3935V63.0039Z" fill="#ACACAC"/>
<path d="M75.626 63.0039H69.3203V69.3096H75.626V63.0039Z" fill="#CDCDCD"/>
<path d="M81.9316 63.0039H75.626V69.3096H81.9316V63.0039Z" fill="#CDCDCD"/>
<path d="M88.2373 63.0039H81.9316V69.3096H88.2373V63.0039Z" fill="#ACACAC"/>
<path d="M18.9697 56.6885H12.6641V62.9941H18.9697V56.6885Z" fill="#CDCDCD"/>
<path d="M37.7715 56.6885H31.4658V62.9941H37.7715V56.6885Z" fill="#CDCDCD"/>
<path d="M31.5918 56.6885H25.2861V62.9941H31.5918V56.6885Z" fill="#CDCDCD"/>
<path d="M25.2754 56.6885H18.9697V62.9941H25.2754V56.6885Z" fill="#CDCDCD"/>
<path d="M44.0771 56.6885H37.7715V62.9941H44.0771V56.6885Z" fill="#CDCDCD"/>
<path d="M56.6992 56.6885H50.3936V62.9941H56.6992V56.6885Z" fill="#CDCDCD"/>
<path d="M63.0039 56.6885H56.6982V62.9941H63.0039V56.6885Z" fill="#CDCDCD"/>
<path d="M69.3213 56.6885H63.0156V62.9941H69.3213V56.6885Z" fill="#CDCDCD"/>
<path d="M75.626 56.6885H69.3203V62.9941H75.626V56.6885Z" fill="#CDCDCD"/>
<path d="M81.9316 56.6885H75.626V62.9941H81.9316V56.6885Z" fill="#CDCDCD"/>
<path d="M88.2373 56.6885H81.9316V62.9941H88.2373V56.6885Z" fill="#ACACAC"/>
<path d="M18.9697 50.3828H12.6641V56.6885H18.9697V50.3828Z" fill="#929292"/>
<path d="M37.7715 50.3828H31.4658V56.6885H37.7715V50.3828Z" fill="#929292"/>
<path d="M31.5918 50.3828H25.2861V56.6885H31.5918V50.3828Z" fill="#CDCDCD"/>
<path d="M25.2754 50.3828H18.9697V56.6885H25.2754V50.3828Z" fill="#929292"/>
<path d="M44.0771 50.3828H37.7715V56.6885H44.0771V50.3828Z" fill="#929292"/>
<path d="M56.6992 50.3828H50.3936V56.6885H56.6992V50.3828Z" fill="#B9B9B9"/>
<path d="M63.0039 50.3828H56.6982V56.6885H63.0039V50.3828Z" fill="#B9B9B9"/>
<path d="M69.3213 50.3828H63.0156V56.6885H69.3213V50.3828Z" fill="#B9B9B9"/>
<path d="M75.626 50.3828H69.3203V56.6885H75.626V50.3828Z" fill="#B9B9B9"/>
<path d="M81.9316 50.3828H75.626V56.6885H81.9316V50.3828Z" fill="#B9B9B9"/>
<path d="M88.2373 50.3828H81.9316V56.6885H88.2373V50.3828Z" fill="#B9B9B9"/>
<path d="M31.5918 44.0762H25.2861V50.3818H31.5918V44.0762Z" fill="#929292"/>
<path d="M50.3935 44.0762H44.0879V50.3818H50.3935V44.0762Z" fill="#929292"/>
<path d="M18.9697 37.7705H12.6641V44.0762H18.9697V37.7705Z" fill="#CDCDCD"/>
<path d="M37.7715 37.7705H31.4658V44.0762H37.7715V37.7705Z" fill="#CDCDCD"/>
<path d="M25.2754 37.7705H18.9697V44.0762H25.2754V37.7705Z" fill="#ACACAC"/>
<path d="M44.0771 37.7705H37.7715V44.0762H44.0771V37.7705Z" fill="#ACACAC"/>
<path d="M56.6992 37.7705H50.3936V44.0762H56.6992V37.7705Z" fill="#CDCDCD"/>
<path d="M63.0039 37.7705H56.6982V44.0762H63.0039V37.7705Z" fill="#ACACAC"/>
<path d="M75.626 37.7705H69.3203V44.0762H75.626V37.7705Z" fill="#CDCDCD"/>
<path d="M81.9316 37.7705H75.626V44.0762H81.9316V37.7705Z" fill="#ACACAC"/>
<path d="M18.9697 31.4658H12.6641V37.7715H18.9697V31.4658Z" fill="#CDCDCD"/>
<path d="M37.7715 31.4658H31.4658V37.7715H37.7715V31.4658Z" fill="#CDCDCD"/>
<path d="M25.2754 31.4658H18.9697V37.7715H25.2754V31.4658Z" fill="#ACACAC"/>
<path d="M44.0771 31.4658H37.7715V37.7715H44.0771V31.4658Z" fill="#ACACAC"/>
<path d="M56.6992 31.4658H50.3936V37.7715H56.6992V31.4658Z" fill="#CDCDCD"/>
<path d="M63.0039 31.4658H56.6982V37.7715H63.0039V31.4658Z" fill="#ACACAC"/>
<path d="M75.626 31.4658H69.3203V37.7715H75.626V31.4658Z" fill="#CDCDCD"/>
<path d="M81.9316 31.4658H75.626V37.7715H81.9316V31.4658Z" fill="#ACACAC"/>
<path d="M18.9697 25.1484H12.6641V31.4541H18.9697V25.1484Z" fill="#CDCDCD"/>
<path d="M37.7715 25.1484H31.4658V31.4541H37.7715V25.1484Z" fill="#CDCDCD"/>
<path d="M25.2754 25.1484H18.9697V31.4541H25.2754V25.1484Z" fill="#ACACAC"/>
<path d="M44.0771 25.1484H37.7715V31.4541H44.0771V25.1484Z" fill="#ACACAC"/>
<path d="M56.6992 25.1484H50.3936V31.4541H56.6992V25.1484Z" fill="#CDCDCD"/>
<path d="M63.0039 25.1484H56.6982V31.4541H63.0039V25.1484Z" fill="#ACACAC"/>
<path d="M75.626 25.1484H69.3203V31.4541H75.626V25.1484Z" fill="#CDCDCD"/>
<path d="M81.9316 25.1484H75.626V31.4541H81.9316V25.1484Z" fill="#ACACAC"/>
<path d="M18.9697 18.8438H12.6641V25.1494H18.9697V18.8438Z" fill="#B9B9B9"/>
<path d="M37.7715 18.8438H31.4658V25.1494H37.7715V18.8438Z" fill="#CDCDCD"/>
<path d="M25.2754 18.8438H18.9697V25.1494H25.2754V18.8438Z" fill="#B9B9B9"/>
<path d="M44.0771 18.8438H37.7715V25.1494H44.0771V18.8438Z" fill="#ACACAC"/>
<path d="M56.6992 18.8438H50.3936V25.1494H56.6992V18.8438Z" fill="#CDCDCD"/>
<path d="M63.0039 18.8438H56.6982V25.1494H63.0039V18.8438Z" fill="#ACACAC"/>
<path d="M75.626 18.8438H69.3203V25.1494H75.626V18.8438Z" fill="#CDCDCD"/>
<path d="M81.9316 18.8438H75.626V25.1494H81.9316V18.8438Z" fill="#ACACAC"/>
<path d="M37.7715 12.5381H31.4658V18.8437H37.7715V12.5381Z" fill="#B9B9B9"/>
<path d="M44.0771 12.5381H37.7715V18.8437H44.0771V12.5381Z" fill="#B9B9B9"/>
<path d="M56.6992 12.5381H50.3936V18.8437H56.6992V12.5381Z" fill="#B9B9B9"/>
<path d="M63.0039 12.5381H56.6982V18.8437H63.0039V12.5381Z" fill="#B9B9B9"/>
<path d="M75.626 12.5381H69.3203V18.8437H75.626V12.5381Z" fill="#B9B9B9"/>
<path d="M81.9316 12.5381H75.626V18.8437H81.9316V12.5381Z" fill="#B9B9B9"/>
<path d="M88.2373 12.5381H81.9316V18.8437H88.2373V12.5381Z" fill="black"/>
<path d="M81.9316 113.471H75.626V119.776H81.9316V113.471Z" fill="white"/>
<path d="M81.9316 107.144H75.626V113.449H81.9316V107.144Z" fill="white"/>
<path d="M81.9316 100.816H75.626V107.122H81.9316V100.816Z" fill="white"/>
<path d="M81.9316 94.4795H75.626V100.785H81.9316V94.4795Z" fill="white"/>
<path d="M81.9316 88.1523H75.626V94.458H81.9316V88.1523Z" fill="white"/>
<path d="M88.2266 81.8574H81.9209V88.1631H88.2266V81.8574Z" fill="white"/>
<path d="M95.4558 75.542H88.2373V81.8476H95.4558V75.542Z" fill="white"/>
<path d="M95.4558 69.2266H88.2373V75.5322H95.4558V69.2266Z" fill="white"/>
<path d="M101.793 63.0039H94.543V69.4879H101.793V63.0039Z" fill="white"/>
<path d="M100.849 56.6885H94.543V62.9941H100.849V56.6885Z" fill="white"/>
<path d="M100.849 50.3818H94.543V56.6875H100.849V50.3818Z" fill="white"/>
<path d="M94.543 37.7705H88.2373V44.0762H94.543V37.7705Z" fill="white"/>
<path d="M94.543 44.0762H88.2373V50.3818H94.543V44.0762Z" fill="white"/>
<path d="M94.543 31.4658H88.2373V37.7715H94.543V31.4658Z" fill="white"/>
<path d="M94.543 25.1484H88.2373V31.4541H94.543V25.1484Z" fill="white"/>
<path d="M94.543 18.8438H88.2373V25.1494H94.543V18.8438Z" fill="white"/>
<path d="M94.543 12.5381H88.2373V18.8437H94.543V12.5381Z" fill="white"/>
<path d="M44.0771 6.23242H37.7715V12.5381H44.0771V6.23242Z" fill="black"/>
<path d="M37.7715 6.23242H31.4658V12.5381H37.7715V6.23242Z" fill="black"/>
<path d="M25.1289 113.471H18.8232V119.776H25.1289V113.471Z" fill="white"/>
<path d="M25.1289 107.144H18.8232V113.449H25.1289V107.144Z" fill="white"/>
<path d="M25.1289 100.816H18.8232V107.122H25.1289V100.816Z" fill="white"/>
<path d="M25.1289 94.4795H18.8232V100.785H25.1289V94.4795Z" fill="white"/>
<path d="M25.1289 88.1523H18.8232V94.458H25.1289V88.1523Z" fill="white"/>
<path d="M18.9385 81.8477H12.6328V88.1533H18.9385V81.8477Z" fill="white"/>
<path d="M12.6328 75.542H6.32715V81.8476H12.6328V75.542Z" fill="white"/>
<path d="M6.30564 69.2266H0V75.5322H6.30564V69.2266Z" fill="white"/>
<path d="M6.30564 63.0039H0V69.3096H6.30564V63.0039Z" fill="white"/>
<path d="M6.30564 56.6885H0V62.9941H6.30564V56.6885Z" fill="white"/>
<path d="M6.30564 50.3818H0V56.6875H6.30564V50.3818Z" fill="white"/>
<path d="M6.30564 44.0762H0V50.3818H6.30564V44.0762Z" fill="white"/>
<path d="M6.30564 37.7705H0V44.0762H6.30564V37.7705Z" fill="white"/>
<path d="M6.30564 31.4658H0V37.7715H6.30564V31.4658Z" fill="white"/>
<path d="M6.30564 25.1484H0V31.4541H6.30564V25.1484Z" fill="white"/>
<path d="M6.30564 18.8438H0V25.1494H6.30564V18.8438Z" fill="white"/>
<path d="M12.6328 12.5381H6.32715V18.8437H12.6328V12.5381Z" fill="white"/>
<path d="M31.4551 6.23242H25.1494V12.5381H31.4551V6.23242Z" fill="white"/>
<path d="M56.6992 6.23242H50.3936V12.5381H56.6992V6.23242Z" fill="black"/>
<path d="M63.0039 6.23242H56.6982V12.5381H63.0039V6.23242Z" fill="black"/>
<path d="M75.626 6.23242H69.3203V12.5381H75.626V6.23242Z" fill="black"/>
<path d="M81.9316 6.23242H75.626V12.5381H81.9316V6.23242Z" fill="black"/>
<path d="M25.2754 6.30566H18.9697V12.6113H25.2754V6.30566Z" fill="white"/>
<path d="M18.9482 6.30566H12.6426V12.6113H18.9482V6.30566Z" fill="white"/>
<path d="M50.3926 6.30566H44.0869V12.6113H50.3926V6.30566Z" fill="white"/>
<path d="M69.3203 6.30566H63.0146V12.6113H69.3203V6.30566Z" fill="white"/>
<path d="M88.2373 6.30566H81.9316V12.6113H88.2373V6.30566Z" fill="white"/>
<path d="M44.0771 0H37.7715V6.30564H44.0771V0Z" fill="white"/>
<path d="M37.7715 0H31.4658V6.30564H37.7715V0Z" fill="white"/>
<path d="M56.6992 0H50.3936V6.30564H56.6992V0Z" fill="white"/>
<path d="M63.0039 0H56.6982V6.30564H63.0039V0Z" fill="white"/>
<path d="M75.626 0H69.3203V6.30564H75.626V0Z" fill="white"/>
<path d="M81.9316 0H75.626V6.30564H81.9316V0Z" fill="white"/>
</svg>
