<svg width="102" height="189" viewBox="0 0 102 189" fill="none" xmlns="http://www.w3.org/2000/svg">
<g id="&#236;&#163;&#188;&#235;&#168;&#185;">
<g id="&#235;&#182;&#136;&#234;&#189;&#131;">
<path id="Vector" d="M38.0761 113.429H31.7705V119.734H38.0761V113.429Z" fill="#EB480A"/>
<path id="Vector_2" d="M31.875 113.429H25.5693V119.734H31.875V113.429Z" fill="#EB480A"/>
<path id="Vector_3" d="M44.4131 113.429H38.1074V119.734H44.4131V113.429Z" fill="#FFFFF2"/>
<path id="Vector_4" d="M50.666 113.429H44.3604V119.734H50.666V113.429Z" fill="#FFFFF2"/>
<path id="Vector_5" d="M56.9297 113.429H50.624V119.734H56.9297V113.429Z" fill="#FFFFF2"/>
<path id="Vector_6" d="M63.1933 113.429H56.8877V119.734H63.1933V113.429Z" fill="#E74608"/>
<path id="Vector_7" d="M69.457 113.429H63.1514V119.734H69.457V113.429Z" fill="#E74608"/>
<path id="Vector_8" d="M75.6582 113.429H69.3525V119.734H75.6582V113.429Z" fill="#E74608"/>
<path id="Vector_9" d="M75.6582 119.734H69.3525V126.04H75.6582V119.734Z" fill="#E74608"/>
<path id="Vector_10" d="M69.3935 119.734H63.0879V126.04H69.3935V119.734Z" fill="#E74608"/>
<path id="Vector_11" d="M63.1299 119.734H56.8242V126.04H63.1299V119.734Z" fill="#F4FC3E"/>
<path id="Vector_12" d="M56.8672 119.734H50.5615V126.04H56.8672V119.734Z" fill="#FFFFF2"/>
<path id="Vector_13" d="M50.6035 119.734H44.2979V126.04H50.6035V119.734Z" fill="#FFFFF2"/>
<path id="Vector_14" d="M44.3506 119.734H38.0449V126.04H44.3506V119.734Z" fill="#FFFFF2"/>
<path id="Vector_15" d="M38.0859 119.734H31.7803V126.04H38.0859V119.734Z" fill="#F4FC3E"/>
<path id="Vector_16" d="M75.6582 126.051H69.3525V132.356H75.6582V126.051Z" fill="#E74608"/>
<path id="Vector_17" d="M69.3935 126.051H63.0879V132.356H69.3935V126.051Z" fill="#FFE064"/>
<path id="Vector_18" d="M63.1299 126.051H56.8242V132.356H63.1299V126.051Z" fill="#F4FC3E"/>
<path id="Vector_19" d="M56.8672 126.051H50.5615V132.356H56.8672V126.051Z" fill="#F4FC3E"/>
<path id="Vector_20" d="M50.6035 126.051H44.2979V132.356H50.6035V126.051Z" fill="#F4FC3E"/>
<path id="Vector_21" d="M44.3506 126.051H38.0449V132.356H44.3506V126.051Z" fill="#FFFFF2"/>
<path id="Vector_22" d="M38.0859 126.051H31.7803V132.356H38.0859V126.051Z" fill="#F4FC3E"/>
<path id="Vector_23" d="M31.8017 126.051H25.4961V132.356H31.8017V126.051Z" fill="#FFE064"/>
<path id="Vector_24" d="M25.4853 126.051H19.1797V132.356H25.4853V126.051Z" fill="#EB480A"/>
<path id="Vector_25" d="M75.6582 132.282H69.3525V138.588H75.6582V132.282Z" fill="#E74608"/>
<path id="Vector_26" d="M69.3935 132.282H63.0879V138.588H69.3935V132.282Z" fill="#FFE064"/>
<path id="Vector_27" d="M63.1299 132.282H56.8242V138.588H63.1299V132.282Z" fill="#FFE064"/>
<path id="Vector_28" d="M56.8672 132.282H50.5615V138.588H56.8672V132.282Z" fill="#FFE064"/>
<path id="Vector_29" d="M50.6035 132.282H44.2979V138.588H50.6035V132.282Z" fill="#F4FC3E"/>
<path id="Vector_30" d="M44.3506 132.282H38.0449V138.588H44.3506V132.282Z" fill="#F4FC3E"/>
<path id="Vector_31" d="M38.0859 132.282H31.7803V138.588H38.0859V132.282Z" fill="#FFE064"/>
<path id="Vector_32" d="M31.8017 132.282H25.4961V138.588H31.8017V132.282Z" fill="#EB480A"/>
<path id="Vector_33" d="M25.4853 132.282H19.1797V138.588H25.4853V132.282Z" fill="#EB480A"/>
<path id="Vector_34" d="M75.6582 138.515H69.3525V144.82H75.6582V138.515Z" fill="#E74608"/>
<path id="Vector_35" d="M69.3935 138.515H63.0879V144.82H69.3935V138.515Z" fill="#E74608"/>
<path id="Vector_36" d="M63.1299 138.515H56.8242V144.82H63.1299V138.515Z" fill="#FF8C27"/>
<path id="Vector_37" d="M56.8672 138.515H50.5615V144.82H56.8672V138.515Z" fill="#FFE064"/>
<path id="Vector_38" d="M50.6035 138.515H44.2979V144.82H50.6035V138.515Z" fill="#F4FC3E"/>
<path id="Vector_39" d="M44.3506 138.515H38.0449V144.82H44.3506V138.515Z" fill="#FFE064"/>
<path id="Vector_40" d="M38.0859 138.515H31.7803V144.82H38.0859V138.515Z" fill="#FFE064"/>
<path id="Vector_41" d="M31.8017 138.515H25.4961V144.82H31.8017V138.515Z" fill="#FF8C27"/>
<path id="Vector_42" d="M25.4853 138.515H19.1797V144.82H25.4853V138.515Z" fill="#EB480A"/>
<path id="Vector_43" d="M69.3935 144.746H63.0879V151.052H69.3935V144.746Z" fill="#E74608"/>
<path id="Vector_44" d="M63.1299 144.746H56.8242V151.052H63.1299V144.746Z" fill="#E74608"/>
<path id="Vector_45" d="M56.8672 144.746H50.5615V151.052H56.8672V144.746Z" fill="#FF8C27"/>
<path id="Vector_46" d="M50.6035 144.746H44.2979V151.052H50.6035V144.746Z" fill="#FFE064"/>
<path id="Vector_47" d="M44.3506 144.746H38.0449V151.052H44.3506V144.746Z" fill="#FFE064"/>
<path id="Vector_48" d="M38.0859 144.746H31.7803V151.052H38.0859V144.746Z" fill="#FF8C27"/>
<path id="Vector_49" d="M31.8017 144.746H25.4961V151.052H31.8017V144.746Z" fill="#FF8C27"/>
<path id="Vector_50" d="M25.4853 144.746H19.1797V151.052H25.4853V144.746Z" fill="#EB480A"/>
<path id="Vector_51" d="M63.1299 151.063H56.8242V157.369H63.1299V151.063Z" fill="#E74608"/>
<path id="Vector_52" d="M56.8672 151.063H50.5615V157.369H56.8672V151.063Z" fill="#E74608"/>
<path id="Vector_53" d="M50.6035 151.063H44.2979V157.369H50.6035V151.063Z" fill="#FF8C27"/>
<path id="Vector_54" d="M44.3506 151.063H38.0449V157.369H44.3506V151.063Z" fill="#FF8C27"/>
<path id="Vector_55" d="M38.0859 151.063H31.7803V157.369H38.0859V151.063Z" fill="#FFE064"/>
<path id="Vector_56" d="M31.8017 151.063H25.4961V157.369H31.8017V151.063Z" fill="#EB480A"/>
<path id="Vector_57" d="M63.1299 157.368H56.8242V163.674H63.1299V157.368Z" fill="#E74608"/>
<path id="Vector_58" d="M56.8672 157.368H50.5615V163.674H56.8672V157.368Z" fill="#E74608"/>
<path id="Vector_59" d="M50.6035 157.368H44.2979V163.674H50.6035V157.368Z" fill="#E74608"/>
<path id="Vector_60" d="M44.3506 157.368H38.0449V163.674H44.3506V157.368Z" fill="#EB480A"/>
<path id="Vector_61" d="M38.0859 157.368H31.7803V163.674H38.0859V157.368Z" fill="#FFE064"/>
<path id="Vector_62" d="M31.8017 157.368H25.4961V163.674H31.8017V157.368Z" fill="#EB480A"/>
<path id="Vector_63" d="M56.8672 163.686H50.5615V169.991H56.8672V163.686Z" fill="#FF8C27"/>
<path id="Vector_64" d="M50.6035 163.686H44.2979V169.991H50.6035V163.686Z" fill="#E74608"/>
<path id="Vector_65" d="M44.3506 163.686H38.0449V169.991H44.3506V163.686Z" fill="#EB480A"/>
<path id="Vector_66" d="M50.6035 169.99H44.2979V176.296H50.6035V169.99Z" fill="#E74608"/>
<path id="Vector_67" d="M44.3506 169.99H38.0449V176.296H44.3506V169.99Z" fill="#EB480A"/>
<path id="Vector_68" d="M50.6035 176.223H44.2979V182.528H50.6035V176.223Z" fill="#E74608"/>
<path id="Vector_69" d="M44.3506 176.223H38.0449V182.528H44.3506V176.223Z" fill="#EB480A"/>
<path id="Vector_70" d="M81.9424 119.734H75.6367V126.04H81.9424V119.734Z" fill="white"/>
<path id="Vector_71" d="M81.9424 126.051H75.6367V132.356H81.9424V126.051Z" fill="white"/>
<path id="Vector_72" d="M81.9424 132.282H75.6367V138.588H81.9424V132.282Z" fill="white"/>
<path id="Vector_73" d="M81.9424 138.515H75.6367V144.82H81.9424V138.515Z" fill="white"/>
<path id="Vector_74" d="M75.6686 144.746H69.1846V151.052H75.6686V144.746Z" fill="white"/>
<path id="Vector_75" d="M69.1953 151.063H62.8896V157.369H69.1953V151.063Z" fill="white"/>
<path id="Vector_76" d="M69.1953 157.368H62.8896V163.674H69.1953V157.368Z" fill="white"/>
<path id="Vector_77" d="M63.1514 163.686H56.8457V169.991H63.1514V163.686Z" fill="white"/>
<path id="Vector_78" d="M56.8877 169.99H50.582V176.296H56.8877V169.99Z" fill="white"/>
<path id="Vector_79" d="M56.8877 176.223H50.582V182.528H56.8877V176.223Z" fill="white"/>
<path id="Vector_80" d="M38.0859 163.686H31.7803V169.991H38.0859V163.686Z" fill="#EB480A"/>
<path id="Vector_81" d="M31.8017 163.686H25.4961V169.991H31.8017V163.686Z" fill="#EB480A"/>
<path id="Vector_82" d="M25.4853 151.063H19.1797V157.369H25.4853V151.063Z" fill="#EB480A"/>
<path id="Vector_83" d="M25.5378 119.734H18.8125V126.04H25.5378V119.734Z" fill="white"/>
<path id="Vector_84" d="M19.2324 126.051H12.9268V132.356H19.2324V126.051Z" fill="white"/>
<path id="Vector_85" d="M19.2324 132.282H12.9268V138.588H19.2324V132.282Z" fill="white"/>
<path id="Vector_86" d="M19.2324 138.515H12.9268V144.82H19.2324V138.515Z" fill="white"/>
<path id="Vector_87" d="M19.2324 144.746H12.9268V151.052H19.2324V144.746Z" fill="white"/>
<path id="Vector_88" d="M25.5381 157.368H19.2324V163.674H25.5381V157.368Z" fill="white"/>
<path id="Vector_89" d="M38.0859 176.223H31.7803V182.528H38.0859V176.223Z" fill="white"/>
<path id="Vector_90" d="M44.2344 182.539H37.9287V188.845H44.2344V182.539Z" fill="white"/>
<path id="Vector_91" d="M25.5381 163.686H19.2324V169.991H25.5381V163.686Z" fill="white"/>
<path id="Vector_92" d="M19.2324 151.063H12.9268V157.369H19.2324V151.063Z" fill="white"/>
<path id="Vector_93" d="M31.8015 119.734H25.1602V126.04H31.8015V119.734Z" fill="#EB480A"/>
<path id="Vector_94" d="M38.0868 169.99H32.0225V176.296H38.0868V169.99Z" fill="#EB480A"/>
<path id="Vector_95" d="M32.001 169.99H25.6953V176.296H32.001V169.99Z" fill="white"/>
<path id="Vector_96" d="M65.0283 159.319H58.7227V165.625H65.0283V159.319Z" fill="#FFE064"/>
<path id="Vector_97" d="M69.2051 159.319H62.8994V165.625H69.2051V159.319Z" fill="white"/>
<path id="Vector_98" d="M58.8174 159.319H52.5117V165.625H58.8174V159.319Z" fill="#FFE064"/>
<path id="Vector_99" d="M52.6064 159.319H46.3008V165.625H52.6064V159.319Z" fill="#FFE064"/>
<path id="Vector_100" d="M75.5098 163.632H69.2041V169.937H75.5098V163.632Z" fill="white"/>
<path id="Vector_101" d="M69.2988 163.632H62.9932V169.937H69.2988V163.632Z" fill="#EEEED2"/>
<path id="Vector_102" d="M63.0879 163.632H56.7822V169.937H63.0879V163.632Z" fill="#EEEED2"/>
<path id="Vector_103" d="M56.8769 163.632H50.5713V169.937H56.8769V163.632Z" fill="#FFEDA8"/>
<path id="Vector_104" d="M50.666 163.632H44.3604V169.937H50.666V163.632Z" fill="#FFEDA8"/>
<path id="Vector_105" d="M44.4541 163.632H38.1484V169.937H44.4541V163.632Z" fill="#FFE064"/>
<path id="Vector_106" d="M69.2988 169.948H62.9932V176.254H69.2988V169.948Z" fill="white"/>
<path id="Vector_107" d="M63.2666 169.948H56.9609V176.254H63.2666V169.948Z" fill="white"/>
<path id="Vector_108" d="M56.8769 169.948H50.5713V176.254H56.8769V169.948Z" fill="#EEEED2"/>
<path id="Vector_109" d="M50.666 169.948H44.3604V176.254H50.666V169.948Z" fill="#FFEDA8"/>
<path id="Vector_110" d="M44.4541 169.948H38.1484V176.254H44.4541V169.948Z" fill="#EEEED2"/>
<path id="Vector_111" d="M38.1277 169.948H31.9375V176.254H38.1277V169.948Z" fill="#EB480A"/>
<path id="Vector_112" d="M56.8769 176.274H50.5713V182.58H56.8769V176.274Z" fill="white"/>
<path id="Vector_113" d="M50.666 176.274H44.3604V182.58H50.666V176.274Z" fill="#EEEED2"/>
<path id="Vector_114" d="M44.4541 176.274H38.1484V182.58H44.4541V176.274Z" fill="white"/>
<path id="Vector_115" d="M38.2431 176.274H31.9375V182.58H38.2431V176.274Z" fill="white"/>
<path id="Vector_116" d="M32.0322 176.274H25.7266V182.58H32.0322V176.274Z" fill="white"/>
<path id="Vector_117" d="M50.9609 182.602H43.9609V188.907H50.9609V182.602Z" fill="white"/>
</g>
<g id="&#236;&#163;&#188;&#235;&#168;&#185;_2">
<path id="Vector_118" d="M37.7715 113.471H31.4658V119.776H37.7715V113.471Z" fill="black"/>
<path id="Vector_119" d="M44.0771 113.471H37.7715V119.776H44.0771V113.471Z" fill="black"/>
<path id="Vector_120" d="M50.3926 113.471H44.0869V119.776H50.3926V113.471Z" fill="black"/>
<path id="Vector_121" d="M56.6992 113.471H50.3936V119.776H56.6992V113.471Z" fill="black"/>
<path id="Vector_122" d="M63.0039 113.471H56.6982V119.776H63.0039V113.471Z" fill="black"/>
<path id="Vector_123" d="M69.3203 113.471H63.0146V119.776H69.3203V113.471Z" fill="black"/>
<path id="Vector_124" d="M31.4443 113.471H25.1387V119.776H31.4443V113.471Z" fill="black"/>
<path id="Vector_125" d="M31.4443 107.144H25.1387V113.449H31.4443V107.144Z" fill="black"/>
<path id="Vector_126" d="M31.4443 100.816H25.1387V107.122H31.4443V100.816Z" fill="black"/>
<path id="Vector_127" d="M31.4443 94.4795H25.1387V100.785H31.4443V94.4795Z" fill="black"/>
<path id="Vector_128" d="M31.4443 88.1523H25.1387V94.458H31.4443V88.1523Z" fill="black"/>
<path id="Vector_129" d="M75.6367 113.471H69.3311V119.776H75.6367V113.471Z" fill="black"/>
<path id="Vector_130" d="M75.6367 107.144H69.3311V113.449H75.6367V107.144Z" fill="black"/>
<path id="Vector_131" d="M75.6367 100.816H69.3311V107.122H75.6367V100.816Z" fill="black"/>
<path id="Vector_132" d="M75.6367 94.4795H69.3311V100.785H75.6367V94.4795Z" fill="black"/>
<path id="Vector_133" d="M75.6367 88.1523H69.3311V94.458H75.6367V88.1523Z" fill="black"/>
<path id="Vector_134" d="M31.5908 81.8477H25.2852V88.1533H31.5908V81.8477Z" fill="black"/>
<path id="Vector_135" d="M25.2754 75.542H18.9697V81.8476H25.2754V75.542Z" fill="black"/>
<path id="Vector_136" d="M25.2539 81.8477H18.9482V88.1533H25.2539V81.8477Z" fill="black"/>
<path id="Vector_137" d="M18.9482 75.542H12.6426V81.8476H18.9482V75.542Z" fill="black"/>
<path id="Vector_138" d="M81.9316 75.542H75.626V81.8476H81.9316V75.542Z" fill="black"/>
<path id="Vector_139" d="M81.9316 81.8574H75.626V88.1631H81.9316V81.8574Z" fill="black"/>
<path id="Vector_140" d="M88.2373 75.542H81.9316V81.8476H88.2373V75.542Z" fill="black"/>
<path id="Vector_141" d="M88.2373 69.2266H81.9316V75.5322H88.2373V69.2266Z" fill="black"/>
<path id="Vector_142" d="M56.6992 63.0039H50.3936V69.3096H56.6992V63.0039Z" fill="black"/>
<path id="Vector_143" d="M63.0039 63.0039H56.6982V69.3096H63.0039V63.0039Z" fill="black"/>
<path id="Vector_144" d="M69.3203 63.0039H63.0146V69.3096H69.3203V63.0039Z" fill="black"/>
<path id="Vector_145" d="M94.543 63.0039H88.2373V69.3096H94.543V63.0039Z" fill="black"/>
<path id="Vector_146" d="M50.3926 56.6885H44.0869V62.9941H50.3926V56.6885Z" fill="black"/>
<path id="Vector_147" d="M94.543 56.6885H88.2373V62.9941H94.543V56.6885Z" fill="black"/>
<path id="Vector_148" d="M50.3926 50.3818H44.0869V56.6875H50.3926V50.3818Z" fill="black"/>
<path id="Vector_149" d="M94.543 50.3818H88.2373V56.6875H94.543V50.3818Z" fill="black"/>
<path id="Vector_150" d="M18.9697 44.0762H12.6641V50.3818H18.9697V44.0762Z" fill="#0A87E4"/>
<path id="Vector_151" d="M37.7715 44.0762H31.4658V50.3818H37.7715V44.0762Z" fill="#0A87E4"/>
<path id="Vector_152" d="M25.2754 44.0762H18.9697V50.3818H25.2754V44.0762Z" fill="#0A87E4"/>
<path id="Vector_153" d="M44.0771 44.0762H37.7715V50.3818H44.0771V44.0762Z" fill="#0A87E4"/>
<path id="Vector_154" d="M56.6992 44.0762H50.3936V50.3818H56.6992V44.0762Z" fill="#0A87E4"/>
<path id="Vector_155" d="M63.0039 44.0762H56.6982V50.3818H63.0039V44.0762Z" fill="#0A87E4"/>
<path id="Vector_156" d="M69.3203 44.0762H63.0146V50.3818H69.3203V44.0762Z" fill="black"/>
<path id="Vector_157" d="M75.626 44.0762H69.3203V50.3818H75.626V44.0762Z" fill="#0A87E4"/>
<path id="Vector_158" d="M81.9316 44.0762H75.626V50.3818H81.9316V44.0762Z" fill="#0A87E4"/>
<path id="Vector_159" d="M88.2373 44.0762H81.9316V50.3818H88.2373V44.0762Z" fill="#0A87E4"/>
<path id="Vector_160" d="M81.9316 44.0762H75.626V50.3818H81.9316V44.0762Z" fill="black"/>
<path id="Vector_161" d="M75.626 44.0762H69.3203V50.3818H75.626V44.0762Z" fill="black"/>
<path id="Vector_162" d="M63.0039 44.0762H56.6982V50.3818H63.0039V44.0762Z" fill="black"/>
<path id="Vector_163" d="M56.6992 44.0762H50.3936V50.3818H56.6992V44.0762Z" fill="black"/>
<path id="Vector_164" d="M44.0869 44.0762H37.7812V50.3818H44.0869V44.0762Z" fill="black"/>
<path id="Vector_165" d="M37.7715 44.0762H31.4658V50.3818H37.7715V44.0762Z" fill="black"/>
<path id="Vector_166" d="M25.1592 44.0762H18.8535V50.3818H25.1592V44.0762Z" fill="black"/>
<path id="Vector_167" d="M18.8545 44.0762H12.5488V50.3818H18.8545V44.0762Z" fill="black"/>
<path id="Vector_168" d="M31.5908 37.7705H25.2852V44.0762H31.5908V37.7705Z" fill="#0A87E4"/>
<path id="Vector_169" d="M50.3926 37.7705H44.0869V44.0762H50.3926V37.7705Z" fill="#0A87E4"/>
<path id="Vector_170" d="M69.3203 37.7705H63.0146V44.0762H69.3203V37.7705Z" fill="#0A87E4"/>
<path id="Vector_171" d="M88.2373 37.7705H81.9316V44.0762H88.2373V37.7705Z" fill="black"/>
<path id="Vector_172" d="M88.2373 44.0762H81.9316V50.3818H88.2373V44.0762Z" fill="black"/>
<path id="Vector_173" d="M31.5908 31.4658H25.2852V37.7715H31.5908V31.4658Z" fill="#0A87E4"/>
<path id="Vector_174" d="M50.3926 31.4658H44.0869V37.7715H50.3926V31.4658Z" fill="#0A87E4"/>
<path id="Vector_175" d="M69.3203 31.4658H63.0146V37.7715H69.3203V31.4658Z" fill="#0A87E4"/>
<path id="Vector_176" d="M88.2373 31.4658H81.9316V37.7715H88.2373V31.4658Z" fill="black"/>
<path id="Vector_177" d="M31.5908 25.1484H25.2852V31.4541H31.5908V25.1484Z" fill="#0A87E4"/>
<path id="Vector_178" d="M50.3926 25.1484H44.0869V31.4541H50.3926V25.1484Z" fill="#0A87E4"/>
<path id="Vector_179" d="M69.3203 25.1484H63.0146V31.4541H69.3203V25.1484Z" fill="#0A87E4"/>
<path id="Vector_180" d="M88.2373 25.1484H81.9316V31.4541H88.2373V25.1484Z" fill="black"/>
<path id="Vector_181" d="M12.6328 69.2266H6.32715V75.5322H12.6328V69.2266Z" fill="black"/>
<path id="Vector_182" d="M12.6328 63.0039H6.32715V69.3096H12.6328V63.0039Z" fill="black"/>
<path id="Vector_183" d="M12.6328 56.6885H6.32715V62.9941H12.6328V56.6885Z" fill="black"/>
<path id="Vector_184" d="M12.6328 50.3818H6.32715V56.6875H12.6328V50.3818Z" fill="black"/>
<path id="Vector_185" d="M12.6328 44.0762H6.32715V50.3818H12.6328V44.0762Z" fill="black"/>
<path id="Vector_186" d="M12.6328 37.7705H6.32715V44.0762H12.6328V37.7705Z" fill="black"/>
<path id="Vector_187" d="M12.6328 31.4658H6.32715V37.7715H12.6328V31.4658Z" fill="black"/>
<path id="Vector_188" d="M12.6328 25.1484H6.32715V31.4541H12.6328V25.1484Z" fill="black"/>
<path id="Vector_189" d="M12.6328 18.8438H6.32715V25.1494H12.6328V18.8438Z" fill="black"/>
<path id="Vector_190" d="M31.5908 18.8438H25.2852V25.1494H31.5908V18.8438Z" fill="#0A87E4"/>
<path id="Vector_191" d="M50.3926 18.8438H44.0869V25.1494H50.3926V18.8438Z" fill="#0A87E4"/>
<path id="Vector_192" d="M69.3203 18.8438H63.0146V25.1494H69.3203V18.8438Z" fill="#0A87E4"/>
<path id="Vector_193" d="M88.2373 18.8438H81.9316V25.1494H88.2373V18.8438Z" fill="black"/>
<path id="Vector_194" d="M31.5908 12.5381H25.2852V18.8437H31.5908V12.5381Z" fill="black"/>
<path id="Vector_195" d="M25.2754 12.5381H18.9697V18.8437H25.2754V12.5381Z" fill="black"/>
<path id="Vector_196" d="M18.9482 12.5381H12.6426V18.8437H18.9482V12.5381Z" fill="black"/>
<path id="Vector_197" d="M50.3926 12.5381H44.0869V18.8437H50.3926V12.5381Z" fill="black"/>
<path id="Vector_198" d="M69.3203 12.5381H63.0146V18.8437H69.3203V12.5381Z" fill="black"/>
<path id="Vector_199" d="M69.3203 18.8652H63.0146V25.1709H69.3203V18.8652Z" fill="black"/>
<path id="Vector_200" d="M69.3203 25.2012H63.0146V31.5068H69.3203V25.2012Z" fill="black"/>
<path id="Vector_201" d="M69.3203 31.5283H63.0146V37.834H69.3203V31.5283Z" fill="black"/>
<path id="Vector_202" d="M69.3203 37.8545H63.0146V44.1601H69.3203V37.8545Z" fill="black"/>
<path id="Vector_203" d="M50.3926 18.8652H44.0869V25.1709H50.3926V18.8652Z" fill="black"/>
<path id="Vector_204" d="M50.3926 25.2012H44.0869V31.5068H50.3926V25.2012Z" fill="black"/>
<path id="Vector_205" d="M50.3926 31.5283H44.0869V37.834H50.3926V31.5283Z" fill="black"/>
<path id="Vector_206" d="M50.3926 37.8545H44.0869V44.1601H50.3926V37.8545Z" fill="black"/>
<path id="Vector_207" d="M31.5908 18.8652H25.2852V25.1709H31.5908V18.8652Z" fill="black"/>
<path id="Vector_208" d="M31.5908 25.2012H25.2852V31.5068H31.5908V25.2012Z" fill="black"/>
<path id="Vector_209" d="M31.5908 31.5283H25.2852V37.834H31.5908V31.5283Z" fill="black"/>
<path id="Vector_210" d="M31.5908 37.8545H25.2852V44.1601H31.5908V37.8545Z" fill="black"/>
<g id="Group">
<path id="Vector_211" d="M37.7715 107.144H31.4658V113.449H37.7715V107.144Z" fill="#B9B9B9"/>
<path id="Vector_212" d="M44.0771 107.144H37.7715V113.449H44.0771V107.144Z" fill="#CDCDCD"/>
<path id="Vector_213" d="M50.3935 107.144H44.0879V113.449H50.3935V107.144Z" fill="#CDCDCD"/>
<path id="Vector_214" d="M56.6992 107.144H50.3936V113.449H56.6992V107.144Z" fill="#CDCDCD"/>
<path id="Vector_215" d="M63.0039 107.144H56.6982V113.449H63.0039V107.144Z" fill="#CDCDCD"/>
<path id="Vector_216" d="M69.3213 107.144H63.0156V113.449H69.3213V107.144Z" fill="#ACACAC"/>
<path id="Vector_217" d="M37.7715 100.816H31.4658V107.122H37.7715V100.816Z" fill="#B9B9B9"/>
<path id="Vector_218" d="M44.0771 100.816H37.7715V107.122H44.0771V100.816Z" fill="#CDCDCD"/>
<path id="Vector_219" d="M50.3935 100.816H44.0879V107.122H50.3935V100.816Z" fill="#CDCDCD"/>
<path id="Vector_220" d="M56.6992 100.816H50.3936V107.122H56.6992V100.816Z" fill="#CDCDCD"/>
<path id="Vector_221" d="M63.0039 100.816H56.6982V107.122H63.0039V100.816Z" fill="#CDCDCD"/>
<path id="Vector_222" d="M69.3213 100.816H63.0156V107.122H69.3213V100.816Z" fill="#ACACAC"/>
<path id="Vector_223" d="M37.7715 94.4795H31.4658V100.785H37.7715V94.4795Z" fill="#B9B9B9"/>
<path id="Vector_224" d="M44.0771 94.4795H37.7715V100.785H44.0771V94.4795Z" fill="#CDCDCD"/>
<path id="Vector_225" d="M50.3935 94.4795H44.0879V100.785H50.3935V94.4795Z" fill="#CDCDCD"/>
<path id="Vector_226" d="M56.6992 94.4795H50.3936V100.785H56.6992V94.4795Z" fill="#CDCDCD"/>
<path id="Vector_227" d="M63.0039 94.4795H56.6982V100.785H63.0039V94.4795Z" fill="#CDCDCD"/>
<path id="Vector_228" d="M69.3213 94.4795H63.0156V100.785H69.3213V94.4795Z" fill="#ACACAC"/>
<path id="Vector_229" d="M37.7715 88.1533H31.4658V94.459H37.7715V88.1533Z" fill="#B9B9B9"/>
<path id="Vector_230" d="M44.0771 88.1533H37.7715V94.459H44.0771V88.1533Z" fill="#CDCDCD"/>
<path id="Vector_231" d="M50.3935 88.1533H44.0879V94.459H50.3935V88.1533Z" fill="#CDCDCD"/>
<path id="Vector_232" d="M56.6992 88.1533H50.3936V94.459H56.6992V88.1533Z" fill="#CDCDCD"/>
<path id="Vector_233" d="M63.0039 88.1533H56.6982V94.459H63.0039V88.1533Z" fill="#CDCDCD"/>
<path id="Vector_234" d="M69.3213 88.1533H63.0156V94.459H69.3213V88.1533Z" fill="#ACACAC"/>
<path id="Vector_235" d="M37.7715 81.8477H31.4658V88.1533H37.7715V81.8477Z" fill="#CDCDCD"/>
<path id="Vector_236" d="M44.0771 81.8477H37.7715V88.1533H44.0771V81.8477Z" fill="#CDCDCD"/>
<path id="Vector_237" d="M50.3935 81.8477H44.0879V88.1533H50.3935V81.8477Z" fill="#CDCDCD"/>
<path id="Vector_238" d="M56.6992 81.8477H50.3936V88.1533H56.6992V81.8477Z" fill="#CDCDCD"/>
<path id="Vector_239" d="M63.0039 81.8477H56.6982V88.1533H63.0039V81.8477Z" fill="#CDCDCD"/>
<path id="Vector_240" d="M69.3213 81.8477H63.0156V88.1533H69.3213V81.8477Z" fill="#CDCDCD"/>
<path id="Vector_241" d="M75.626 81.8477H69.3203V88.1533H75.626V81.8477Z" fill="#ACACAC"/>
<path id="Vector_242" d="M37.7715 75.542H31.4658V81.8476H37.7715V75.542Z" fill="#CDCDCD"/>
<path id="Vector_243" d="M31.5918 75.542H25.2861V81.8476H31.5918V75.542Z" fill="#B9B9B9"/>
<path id="Vector_244" d="M44.0771 75.542H37.7715V81.8476H44.0771V75.542Z" fill="#CDCDCD"/>
<path id="Vector_245" d="M50.3935 75.542H44.0879V81.8476H50.3935V75.542Z" fill="#CDCDCD"/>
<path id="Vector_246" d="M56.6992 75.542H50.3936V81.8476H56.6992V75.542Z" fill="#CDCDCD"/>
<path id="Vector_247" d="M63.0039 75.542H56.6982V81.8476H63.0039V75.542Z" fill="#CDCDCD"/>
<path id="Vector_248" d="M69.3213 75.542H63.0156V81.8476H69.3213V75.542Z" fill="#CDCDCD"/>
<path id="Vector_249" d="M75.626 75.542H69.3203V81.8476H75.626V75.542Z" fill="#929292"/>
<path id="Vector_250" d="M37.7715 69.2266H31.4658V75.5322H37.7715V69.2266Z" fill="#CDCDCD"/>
<path id="Vector_251" d="M31.5918 69.2266H25.2861V75.5322H31.5918V69.2266Z" fill="#CDCDCD"/>
<path id="Vector_252" d="M25.2754 69.2266H18.9697V75.5322H25.2754V69.2266Z" fill="#B9B9B9"/>
<path id="Vector_253" d="M18.9697 69.2266H12.6641V75.5322H18.9697V69.2266Z" fill="#B9B9B9"/>
<path id="Vector_254" d="M18.9697 63.0039H12.6641V69.3096H18.9697V63.0039Z" fill="#B9B9B9"/>
<path id="Vector_255" d="M44.0771 69.2266H37.7715V75.5322H44.0771V69.2266Z" fill="#CDCDCD"/>
<path id="Vector_256" d="M50.3935 69.2266H44.0879V75.5322H50.3935V69.2266Z" fill="#CDCDCD"/>
<path id="Vector_257" d="M56.6992 69.2266H50.3936V75.5322H56.6992V69.2266Z" fill="#929292"/>
<path id="Vector_258" d="M63.0039 69.2266H56.6982V75.5322H63.0039V69.2266Z" fill="#929292"/>
<path id="Vector_259" d="M69.3213 69.2266H63.0156V75.5322H69.3213V69.2266Z" fill="#929292"/>
<path id="Vector_260" d="M75.626 69.2266H69.3203V75.5322H75.626V69.2266Z" fill="#CDCDCD"/>
<path id="Vector_261" d="M81.9316 69.2266H75.626V75.5322H81.9316V69.2266Z" fill="#ACACAC"/>
<path id="Vector_262" d="M37.7715 63.0039H31.4658V69.3096H37.7715V63.0039Z" fill="#CDCDCD"/>
<path id="Vector_263" d="M31.5918 63.0039H25.2861V69.3096H31.5918V63.0039Z" fill="#CDCDCD"/>
<path id="Vector_264" d="M25.2754 63.0039H18.9697V69.3096H25.2754V63.0039Z" fill="#CDCDCD"/>
<path id="Vector_265" d="M44.0771 63.0039H37.7715V69.3096H44.0771V63.0039Z" fill="#CDCDCD"/>
<path id="Vector_266" d="M50.3935 63.0039H44.0879V69.3096H50.3935V63.0039Z" fill="#ACACAC"/>
<path id="Vector_267" d="M75.626 63.0039H69.3203V69.3096H75.626V63.0039Z" fill="#CDCDCD"/>
<path id="Vector_268" d="M81.9316 63.0039H75.626V69.3096H81.9316V63.0039Z" fill="#CDCDCD"/>
<path id="Vector_269" d="M88.2373 63.0039H81.9316V69.3096H88.2373V63.0039Z" fill="#ACACAC"/>
<path id="Vector_270" d="M18.9697 56.6885H12.6641V62.9941H18.9697V56.6885Z" fill="#CDCDCD"/>
<path id="Vector_271" d="M37.7715 56.6885H31.4658V62.9941H37.7715V56.6885Z" fill="#CDCDCD"/>
<path id="Vector_272" d="M31.5918 56.6885H25.2861V62.9941H31.5918V56.6885Z" fill="#CDCDCD"/>
<path id="Vector_273" d="M25.2754 56.6885H18.9697V62.9941H25.2754V56.6885Z" fill="#CDCDCD"/>
<path id="Vector_274" d="M44.0771 56.6885H37.7715V62.9941H44.0771V56.6885Z" fill="#CDCDCD"/>
<path id="Vector_275" d="M56.6992 56.6885H50.3936V62.9941H56.6992V56.6885Z" fill="#CDCDCD"/>
<path id="Vector_276" d="M63.0039 56.6885H56.6982V62.9941H63.0039V56.6885Z" fill="#CDCDCD"/>
<path id="Vector_277" d="M69.3213 56.6885H63.0156V62.9941H69.3213V56.6885Z" fill="#CDCDCD"/>
<path id="Vector_278" d="M75.626 56.6885H69.3203V62.9941H75.626V56.6885Z" fill="#CDCDCD"/>
<path id="Vector_279" d="M81.9316 56.6885H75.626V62.9941H81.9316V56.6885Z" fill="#CDCDCD"/>
<path id="Vector_280" d="M88.2373 56.6885H81.9316V62.9941H88.2373V56.6885Z" fill="#ACACAC"/>
<path id="Vector_281" d="M18.9697 50.3828H12.6641V56.6885H18.9697V50.3828Z" fill="#929292"/>
<path id="Vector_282" d="M37.7715 50.3828H31.4658V56.6885H37.7715V50.3828Z" fill="#929292"/>
<path id="Vector_283" d="M31.5918 50.3828H25.2861V56.6885H31.5918V50.3828Z" fill="#CDCDCD"/>
<path id="Vector_284" d="M25.2754 50.3828H18.9697V56.6885H25.2754V50.3828Z" fill="#929292"/>
<path id="Vector_285" d="M44.0771 50.3828H37.7715V56.6885H44.0771V50.3828Z" fill="#929292"/>
<path id="Vector_286" d="M56.6992 50.3828H50.3936V56.6885H56.6992V50.3828Z" fill="#B9B9B9"/>
<path id="Vector_287" d="M63.0039 50.3828H56.6982V56.6885H63.0039V50.3828Z" fill="#B9B9B9"/>
<path id="Vector_288" d="M69.3213 50.3828H63.0156V56.6885H69.3213V50.3828Z" fill="#B9B9B9"/>
<path id="Vector_289" d="M75.626 50.3828H69.3203V56.6885H75.626V50.3828Z" fill="#B9B9B9"/>
<path id="Vector_290" d="M81.9316 50.3828H75.626V56.6885H81.9316V50.3828Z" fill="#B9B9B9"/>
<path id="Vector_291" d="M88.2373 50.3828H81.9316V56.6885H88.2373V50.3828Z" fill="#B9B9B9"/>
<path id="Vector_292" d="M31.5918 44.0762H25.2861V50.3818H31.5918V44.0762Z" fill="#929292"/>
<path id="Vector_293" d="M50.3935 44.0762H44.0879V50.3818H50.3935V44.0762Z" fill="#929292"/>
<path id="Vector_294" d="M18.9697 37.7705H12.6641V44.0762H18.9697V37.7705Z" fill="#CDCDCD"/>
<path id="Vector_295" d="M37.7715 37.7705H31.4658V44.0762H37.7715V37.7705Z" fill="#CDCDCD"/>
<path id="Vector_296" d="M25.2754 37.7705H18.9697V44.0762H25.2754V37.7705Z" fill="#ACACAC"/>
<path id="Vector_297" d="M44.0771 37.7705H37.7715V44.0762H44.0771V37.7705Z" fill="#ACACAC"/>
<path id="Vector_298" d="M56.6992 37.7705H50.3936V44.0762H56.6992V37.7705Z" fill="#CDCDCD"/>
<path id="Vector_299" d="M63.0039 37.7705H56.6982V44.0762H63.0039V37.7705Z" fill="#ACACAC"/>
<path id="Vector_300" d="M75.626 37.7705H69.3203V44.0762H75.626V37.7705Z" fill="#CDCDCD"/>
<path id="Vector_301" d="M81.9316 37.7705H75.626V44.0762H81.9316V37.7705Z" fill="#ACACAC"/>
<path id="Vector_302" d="M18.9697 31.4658H12.6641V37.7715H18.9697V31.4658Z" fill="#CDCDCD"/>
<path id="Vector_303" d="M37.7715 31.4658H31.4658V37.7715H37.7715V31.4658Z" fill="#CDCDCD"/>
<path id="Vector_304" d="M25.2754 31.4658H18.9697V37.7715H25.2754V31.4658Z" fill="#ACACAC"/>
<path id="Vector_305" d="M44.0771 31.4658H37.7715V37.7715H44.0771V31.4658Z" fill="#ACACAC"/>
<path id="Vector_306" d="M56.6992 31.4658H50.3936V37.7715H56.6992V31.4658Z" fill="#CDCDCD"/>
<path id="Vector_307" d="M63.0039 31.4658H56.6982V37.7715H63.0039V31.4658Z" fill="#ACACAC"/>
<path id="Vector_308" d="M75.626 31.4658H69.3203V37.7715H75.626V31.4658Z" fill="#CDCDCD"/>
<path id="Vector_309" d="M81.9316 31.4658H75.626V37.7715H81.9316V31.4658Z" fill="#ACACAC"/>
<path id="Vector_310" d="M18.9697 25.1484H12.6641V31.4541H18.9697V25.1484Z" fill="#CDCDCD"/>
<path id="Vector_311" d="M37.7715 25.1484H31.4658V31.4541H37.7715V25.1484Z" fill="#CDCDCD"/>
<path id="Vector_312" d="M25.2754 25.1484H18.9697V31.4541H25.2754V25.1484Z" fill="#ACACAC"/>
<path id="Vector_313" d="M44.0771 25.1484H37.7715V31.4541H44.0771V25.1484Z" fill="#ACACAC"/>
<path id="Vector_314" d="M56.6992 25.1484H50.3936V31.4541H56.6992V25.1484Z" fill="#CDCDCD"/>
<path id="Vector_315" d="M63.0039 25.1484H56.6982V31.4541H63.0039V25.1484Z" fill="#ACACAC"/>
<path id="Vector_316" d="M75.626 25.1484H69.3203V31.4541H75.626V25.1484Z" fill="#CDCDCD"/>
<path id="Vector_317" d="M81.9316 25.1484H75.626V31.4541H81.9316V25.1484Z" fill="#ACACAC"/>
<path id="Vector_318" d="M18.9697 18.8438H12.6641V25.1494H18.9697V18.8438Z" fill="#B9B9B9"/>
<path id="Vector_319" d="M37.7715 18.8438H31.4658V25.1494H37.7715V18.8438Z" fill="#CDCDCD"/>
<path id="Vector_320" d="M25.2754 18.8438H18.9697V25.1494H25.2754V18.8438Z" fill="#B9B9B9"/>
<path id="Vector_321" d="M44.0771 18.8438H37.7715V25.1494H44.0771V18.8438Z" fill="#ACACAC"/>
<path id="Vector_322" d="M56.6992 18.8438H50.3936V25.1494H56.6992V18.8438Z" fill="#CDCDCD"/>
<path id="Vector_323" d="M63.0039 18.8438H56.6982V25.1494H63.0039V18.8438Z" fill="#ACACAC"/>
<path id="Vector_324" d="M75.626 18.8438H69.3203V25.1494H75.626V18.8438Z" fill="#CDCDCD"/>
<path id="Vector_325" d="M81.9316 18.8438H75.626V25.1494H81.9316V18.8438Z" fill="#ACACAC"/>
<path id="Vector_326" d="M37.7715 12.5381H31.4658V18.8437H37.7715V12.5381Z" fill="#B9B9B9"/>
<path id="Vector_327" d="M44.0771 12.5381H37.7715V18.8437H44.0771V12.5381Z" fill="#B9B9B9"/>
<path id="Vector_328" d="M56.6992 12.5381H50.3936V18.8437H56.6992V12.5381Z" fill="#B9B9B9"/>
<path id="Vector_329" d="M63.0039 12.5381H56.6982V18.8437H63.0039V12.5381Z" fill="#B9B9B9"/>
<path id="Vector_330" d="M75.626 12.5381H69.3203V18.8437H75.626V12.5381Z" fill="#B9B9B9"/>
<path id="Vector_331" d="M81.9316 12.5381H75.626V18.8437H81.9316V12.5381Z" fill="#B9B9B9"/>
</g>
<path id="Vector_332" d="M88.2373 12.5381H81.9316V18.8437H88.2373V12.5381Z" fill="black"/>
<path id="Vector_333" d="M81.9316 113.471H75.626V119.776H81.9316V113.471Z" fill="white"/>
<path id="Vector_334" d="M81.9316 107.144H75.626V113.449H81.9316V107.144Z" fill="white"/>
<path id="Vector_335" d="M81.9316 100.816H75.626V107.122H81.9316V100.816Z" fill="white"/>
<path id="Vector_336" d="M81.9316 94.4795H75.626V100.785H81.9316V94.4795Z" fill="white"/>
<path id="Vector_337" d="M81.9316 88.1523H75.626V94.458H81.9316V88.1523Z" fill="white"/>
<path id="Vector_338" d="M88.2266 81.8574H81.9209V88.1631H88.2266V81.8574Z" fill="white"/>
<path id="Vector_339" d="M95.4558 75.542H88.2373V81.8476H95.4558V75.542Z" fill="white"/>
<path id="Vector_340" d="M95.4558 69.2266H88.2373V75.5322H95.4558V69.2266Z" fill="white"/>
<path id="Vector_341" d="M101.793 63.0039H94.543V69.4879H101.793V63.0039Z" fill="white"/>
<path id="Vector_342" d="M100.849 56.6885H94.543V62.9941H100.849V56.6885Z" fill="white"/>
<path id="Vector_343" d="M100.849 50.3818H94.543V56.6875H100.849V50.3818Z" fill="white"/>
<path id="Vector_344" d="M94.543 37.7705H88.2373V44.0762H94.543V37.7705Z" fill="white"/>
<path id="Vector_345" d="M94.543 44.0762H88.2373V50.3818H94.543V44.0762Z" fill="white"/>
<path id="Vector_346" d="M94.543 31.4658H88.2373V37.7715H94.543V31.4658Z" fill="white"/>
<path id="Vector_347" d="M94.543 25.1484H88.2373V31.4541H94.543V25.1484Z" fill="white"/>
<path id="Vector_348" d="M94.543 18.8438H88.2373V25.1494H94.543V18.8438Z" fill="white"/>
<path id="Vector_349" d="M94.543 12.5381H88.2373V18.8437H94.543V12.5381Z" fill="white"/>
<path id="Vector_350" d="M44.0771 6.23242H37.7715V12.5381H44.0771V6.23242Z" fill="black"/>
<path id="Vector_351" d="M37.7715 6.23242H31.4658V12.5381H37.7715V6.23242Z" fill="black"/>
<path id="Vector_352" d="M25.1289 113.471H18.8232V119.776H25.1289V113.471Z" fill="white"/>
<path id="Vector_353" d="M25.1289 107.144H18.8232V113.449H25.1289V107.144Z" fill="white"/>
<path id="Vector_354" d="M25.1289 100.816H18.8232V107.122H25.1289V100.816Z" fill="white"/>
<path id="Vector_355" d="M25.1289 94.4795H18.8232V100.785H25.1289V94.4795Z" fill="white"/>
<path id="Vector_356" d="M25.1289 88.1523H18.8232V94.458H25.1289V88.1523Z" fill="white"/>
<path id="Vector_357" d="M18.9385 81.8477H12.6328V88.1533H18.9385V81.8477Z" fill="white"/>
<path id="Vector_358" d="M12.6328 75.542H6.32715V81.8476H12.6328V75.542Z" fill="white"/>
<path id="Vector_359" d="M6.30564 69.2266H0V75.5322H6.30564V69.2266Z" fill="white"/>
<path id="Vector_360" d="M6.30564 63.0039H0V69.3096H6.30564V63.0039Z" fill="white"/>
<path id="Vector_361" d="M6.30564 56.6885H0V62.9941H6.30564V56.6885Z" fill="white"/>
<path id="Vector_362" d="M6.30564 50.3818H0V56.6875H6.30564V50.3818Z" fill="white"/>
<path id="Vector_363" d="M6.30564 44.0762H0V50.3818H6.30564V44.0762Z" fill="white"/>
<path id="Vector_364" d="M6.30564 37.7705H0V44.0762H6.30564V37.7705Z" fill="white"/>
<path id="Vector_365" d="M6.30564 31.4658H0V37.7715H6.30564V31.4658Z" fill="white"/>
<path id="Vector_366" d="M6.30564 25.1484H0V31.4541H6.30564V25.1484Z" fill="white"/>
<path id="Vector_367" d="M6.30564 18.8438H0V25.1494H6.30564V18.8438Z" fill="white"/>
<path id="Vector_368" d="M12.6328 12.5381H6.32715V18.8437H12.6328V12.5381Z" fill="white"/>
<path id="Vector_369" d="M31.4551 6.23242H25.1494V12.5381H31.4551V6.23242Z" fill="white"/>
<path id="Vector_370" d="M56.6992 6.23242H50.3936V12.5381H56.6992V6.23242Z" fill="black"/>
<path id="Vector_371" d="M63.0039 6.23242H56.6982V12.5381H63.0039V6.23242Z" fill="black"/>
<path id="Vector_372" d="M75.626 6.23242H69.3203V12.5381H75.626V6.23242Z" fill="black"/>
<path id="Vector_373" d="M81.9316 6.23242H75.626V12.5381H81.9316V6.23242Z" fill="black"/>
<path id="Vector_374" d="M25.2754 6.30566H18.9697V12.6113H25.2754V6.30566Z" fill="white"/>
<path id="Vector_375" d="M18.9482 6.30566H12.6426V12.6113H18.9482V6.30566Z" fill="white"/>
<path id="Vector_376" d="M50.3926 6.30566H44.0869V12.6113H50.3926V6.30566Z" fill="white"/>
<path id="Vector_377" d="M69.3203 6.30566H63.0146V12.6113H69.3203V6.30566Z" fill="white"/>
<path id="Vector_378" d="M88.2373 6.30566H81.9316V12.6113H88.2373V6.30566Z" fill="white"/>
<path id="Vector_379" d="M44.0771 0H37.7715V6.30564H44.0771V0Z" fill="white"/>
<path id="Vector_380" d="M37.7715 0H31.4658V6.30564H37.7715V0Z" fill="white"/>
<path id="Vector_381" d="M56.6992 0H50.3936V6.30564H56.6992V0Z" fill="white"/>
<path id="Vector_382" d="M63.0039 0H56.6982V6.30564H63.0039V0Z" fill="white"/>
<path id="Vector_383" d="M75.626 0H69.3203V6.30564H75.626V0Z" fill="white"/>
<path id="Vector_384" d="M81.9316 0H75.626V6.30564H81.9316V0Z" fill="white"/>
</g>
</g>
</svg>
