<?xml version="1.0" standalone="no"?>
<!DOCTYPE svg PUBLIC "-//W3C//DTD SVG 20010904//EN"
 "http://www.w3.org/TR/2001/REC-SVG-20010904/DTD/svg10.dtd">
<svg version="1.0" xmlns="http://www.w3.org/2000/svg"
 width="256.000000pt" height="256.000000pt" viewBox="0 0 256.000000 256.000000"
 preserveAspectRatio="xMidYMid meet">

<g transform="translate(0.000000,256.000000) scale(0.100000,-0.100000)"
fill="#000000" stroke="none">
<path d="M1100 2545 c-136 -20 -214 -44 -375 -114 -95 -42 -248 -153 -345
-251 -187 -189 -311 -425 -361 -690 -17 -88 -17 -337 0 -430 82 -455 416 -846
847 -989 154 -51 243 -65 414 -65 284 0 517 74 743 235 272 195 454 482 518
819 16 84 16 346 0 430 -50 265 -174 501 -361 690 -286 289 -686 424 -1080
365z m350 -150 c240 -39 452 -148 625 -320 555 -556 393 -1482 -319 -1816 -46
-21 -86 -39 -89 -39 -2 0 -7 87 -10 193 -4 141 -9 205 -21 240 -18 51 -15 67
13 67 31 0 194 87 249 133 119 99 195 244 209 398 15 154 -12 288 -81 402 -33
54 -33 56 -28 153 6 131 -9 205 -53 253 -32 35 -36 36 -97 34 -71 -1 -139 -25
-232 -80 l-61 -36 -101 17 c-129 20 -220 20 -348 0 l-101 -17 -52 32 c-84 52
-171 82 -241 84 -61 2 -65 1 -97 -34 -44 -48 -59 -122 -53 -253 5 -97 5 -99
-28 -153 -125 -208 -112 -508 30 -697 76 -101 210 -195 331 -231 44 -14 45
-18 23 -100 -10 -38 -18 -51 -38 -56 -83 -23 -134 1 -205 96 -29 40 -69 85
-87 99 -41 30 -109 56 -151 56 -28 0 -29 -2 -23 -31 3 -17 6 -51 6 -74 0 -39
2 -43 30 -48 31 -7 72 -46 143 -137 62 -79 135 -115 234 -115 l73 0 0 -97 c0
-54 -3 -98 -6 -98 -3 0 -44 18 -90 39 -506 237 -762 797 -608 1330 158 542
705 895 1254 806z m-613 -496 c170 -91 143 -83 230 -63 106 25 307 25 421 1
94 -21 66 -28 236 62 43 23 88 41 100 39 20 -3 21 -9 20 -93 0 -49 -2 -109 -4
-131 -4 -35 2 -51 37 -105 49 -77 71 -134 81 -214 20 -164 -28 -306 -139 -409
-93 -86 -198 -131 -368 -157 -44 -7 -81 -17 -81 -22 0 -5 28 -50 63 -100 l62
-91 3 -222 3 -223 -48 -8 c-62 -10 -284 -10 -346 0 l-48 8 3 223 3 222 63 91
c34 50 62 95 62 100 0 5 -37 15 -81 22 -170 26 -275 71 -368 157 -111 103
-159 245 -139 409 10 79 32 137 80 212 22 35 40 73 40 85 -1 13 -4 67 -8 120
-4 53 -4 104 -1 112 10 25 40 19 124 -25z"/>
</g>
</svg>
