<svg width="50" height="80" viewBox="0 0 50 80" fill="none" xmlns="http://www.w3.org/2000/svg">
<g id="I">
<g id="I_2">
<path d="M12.5 10H32.5V15H27.5V55H32.5V60H12.5V55H17.5V15H12.5V10Z" fill="white"/>
<path d="M12.5 10V6H8.5V10H12.5ZM32.5 10H36.5V6H32.5V10ZM32.5 15V19H36.5V15H32.5ZM27.5 15V11H23.5V15H27.5ZM27.5 55H23.5V59H27.5V55ZM32.5 55H36.5V51H32.5V55ZM32.5 60V64H36.5V60H32.5ZM12.5 60H8.5V64H12.5V60ZM12.5 55V51H8.5V55H12.5ZM17.5 55V59H21.5V55H17.5ZM17.5 15H21.5V11H17.5V15ZM12.5 15H8.5V19H12.5V15ZM12.5 14H32.5V6H12.5V14ZM28.5 10V15H36.5V10H28.5ZM32.5 11H27.5V19H32.5V11ZM23.5 15V55H31.5V15H23.5ZM27.5 59H32.5V51H27.5V59ZM28.5 55V60H36.5V55H28.5ZM32.5 56H12.5V64H32.5V56ZM16.5 60V55H8.5V60H16.5ZM12.5 59H17.5V51H12.5V59ZM21.5 55V15H13.5V55H21.5ZM17.5 11H12.5V19H17.5V11ZM16.5 15V10H8.5V15H16.5Z" fill="#A9AB5A"/>
</g>
<g id="I_3">
<path d="M12.5 10H32.5V15H27.5V55H32.5V60H12.5V55H17.5V15H12.5V10Z" fill="white"/>
<path d="M12.5 10V8H10.5V10H12.5ZM32.5 10H34.5V8H32.5V10ZM32.5 15V17H34.5V15H32.5ZM27.5 15V13H25.5V15H27.5ZM27.5 55H25.5V57H27.5V55ZM32.5 55H34.5V53H32.5V55ZM32.5 60V62H34.5V60H32.5ZM12.5 60H10.5V62H12.5V60ZM12.5 55V53H10.5V55H12.5ZM17.5 55V57H19.5V55H17.5ZM17.5 15H19.5V13H17.5V15ZM12.5 15H10.5V17H12.5V15ZM12.5 12H32.5V8H12.5V12ZM30.5 10V15H34.5V10H30.5ZM32.5 13H27.5V17H32.5V13ZM25.5 15V55H29.5V15H25.5ZM27.5 57H32.5V53H27.5V57ZM30.5 55V60H34.5V55H30.5ZM32.5 58H12.5V62H32.5V58ZM14.5 60V55H10.5V60H14.5ZM12.5 57H17.5V53H12.5V57ZM19.5 55V15H15.5V55H19.5ZM17.5 13H12.5V17H17.5V13ZM14.5 15V10H10.5V15H14.5Z" fill="black"/>
</g>
<path id="I_4" d="M12.5 10H32.5V15H27.5V55H32.5V60H12.5V55H17.5V15H12.5V10Z" fill="white"/>
</g>
</svg>
