<svg width="84" height="46" viewBox="0 0 84 46" fill="none" xmlns="http://www.w3.org/2000/svg">
<path d="M81 3H3V43H81V3Z" fill="#111823" stroke="black" stroke-width="5" stroke-miterlimit="10"/>
<path d="M10.98 38.9902H72.48" stroke="#A0935C" stroke-width="3" stroke-miterlimit="10"/>
<path d="M7.02979 5.5498V34.5198" stroke="#FFFAE3" stroke-width="2" stroke-miterlimit="10"/>
<path d="M76.98 5.5498V34.5198" stroke="#C1B78E" stroke-width="3" stroke-miterlimit="10"/>
<path d="M11.0498 34.5H8.0498V37.5H11.0498V34.5Z" fill="#A0935C"/>
<path d="M75.48 34.5H72.48V37.5H75.48V34.5Z" fill="#C1B78E"/>
<path d="M6.02979 6.50977H78.4498" stroke="#FFFAE3" stroke-width="2" stroke-miterlimit="10"/>
<path d="M13.7002 17.5498H14.9502V16.2998H16.2002V15.0498H21.2002V16.2998H22.4502V17.5498H23.7002V26.2998H22.4502V27.5498H21.2002V28.7998H16.2002V27.5498H14.9502V26.2998H13.7002V17.5498ZM16.2002 17.5498V26.2998H17.4502V27.5498H19.9502V26.2998H21.2002V17.5498H19.9502V16.2998H17.4502V17.5498H16.2002ZM26.2002 13.7998H28.7002V21.2998H32.4502V22.5498H28.7002V30.0498H26.2002V13.7998ZM33.7002 17.5498H34.9502V16.2998H36.2002V15.0498H41.2002V16.2998H42.4502V17.5498H43.7002V26.2998H42.4502V27.5498H41.2002V28.7998H36.2002V27.5498H34.9502V26.2998H33.7002V17.5498ZM36.2002 17.5498V26.2998H37.4502V27.5498H39.9502V26.2998H41.2002V17.5498H39.9502V16.2998H37.4502V17.5498H36.2002ZM47.4502 13.7998H49.9502V30.0498H47.4502V13.7998ZM53.7002 13.7998H63.7002V15.0498H56.2002V17.5498H63.7002V18.7998H56.2002V21.2998H63.7002V22.5498H54.9502V21.2998H53.7002V13.7998ZM62.4502 17.5498H64.9502V13.7998H67.4502V22.5498H64.9502V18.7998H62.4502V17.5498ZM68.7002 13.7998H71.2002V22.5498H68.7002V13.7998ZM54.9502 23.7998H71.2002V28.7998H69.9502V30.0498H56.2002V28.7998H54.9502V23.7998ZM57.4502 25.0498V28.7998H68.7002V25.0498H57.4502Z" fill="white"/>
</svg>
