<svg width="130" height="174" viewBox="0 0 130 174" fill="none" xmlns="http://www.w3.org/2000/svg">
<path d="M46.8683 172.209V171.702H43.6249V171.195H40.3727V170.688H37.1205V170.181H33.8683V169.674H30.6249V169.167H27.3727V167.61H25.1958V162.706H30.0916V163.248H33.2913V163.755H36.5435V164.262H39.7869V164.769H43.0391V165.276H46.2913V165.783H49.5347V166.29H79.7661V165.582H83.1232V164.97H86.5939V164.358H89.8199V163.755H93.177V163.143H96.5253V162.531H99.8737V161.928H103.222V161.316H106.614V160.625H109.927V160.101H112.952V158.833H115.89V157.391H118.687V155.896H121.17V154.637H126.276V159.734H124.606V161.814H121.808V163.309H118.871V164.752H115.846V166.011H112.725V166.544H109.35V167.235H106.098V167.847H102.671V168.45H99.3229V169.062H95.9396V169.674H92.5126V170.277H89.2953V170.889H85.8246V171.501H82.5374V172.209H46.8683Z" fill="#2E6FB0"/>
<path d="M124.964 155.948V158.431H123.295V160.511H120.497V161.998H117.56V163.44H114.535V164.708H111.414V165.232H108.039V165.923H104.787V166.535H101.36V167.147H98.0115V167.759H94.6282V168.371H91.2011V168.983H87.9927V169.595H84.5219V170.207H81.226V170.924H48.1796V170.417H44.9274V169.91H41.6752V169.403H38.423V168.895H35.1709V168.388H31.9187V167.881H28.6665V166.325H26.4809V164.052H28.7539V164.585H31.9536V165.093H35.2058V165.6H38.458V166.107H41.7102V166.614H44.9624V167.121H48.2146V167.628H81.0686V166.911H84.417V166.299H87.8877V165.687H91.1137V165.075H94.4621V164.463H97.8104V163.851H101.159V163.239H104.507V162.627H107.899V161.936H111.213V161.412H114.237V160.144H117.175V158.702H119.972V157.216H122.455V155.957H124.938M127.561 153.334H119.833V154.593H117.35V156.079H114.552V157.522H111.615V158.789H108.59V159.314H105.276V160.004H101.884V160.616H98.536V161.228H95.1877V161.84H91.8393V162.452H88.491V163.064H85.265V163.676H81.7943V164.288H78.4459V165.005H50.8373V164.498H47.5851V163.991H44.3329V163.484H41.0808V162.977H37.8286V162.47H34.5764V161.963H31.3766V161.429H23.8582V168.948H26.0438V170.504H29.2959V171.011H32.5481V171.518H35.8003V172.025H39.0525V172.532H42.3047V173.039H45.5569V173.546H83.84V172.83H87.1359V172.218H90.6066V171.606H93.8151V170.994H97.2422V170.382H100.625V169.77H103.974V169.158H107.401V168.546H110.653V167.855H114.028V167.331H117.149V166.063H120.174V164.62H123.111V163.134H125.909V161.054H127.578V153.325L127.561 153.334Z" fill="white"/>
<path d="M20.877 162.417V161.709H17.5548V160.957H14.2939V160.45H11.0155V159.436H7.72835V158.431H4.44994V157.11H1.3114V148.036H4.44994V146.864H7.57973V145.702H10.7183V144.53H13.8481V143.367H17.0478V142.519H20.2737V141.75H23.3074V140.823H29.226V146.742H26.1924V147.669H22.9664V148.438H19.7667V149.277H16.6369V150.449H14.9496V152.223H16.9604V153.045H20.2563V154.042H23.4735V154.732H26.5158V155.344H29.7505V155.956H33.029V156.498H83.9886V155.782H87.0222V154.916H90.3181V154.225H93.614V153.526H96.9099V152.835H100.197V152.145H103.493V151.445H106.789V150.755H109.735V149.539H112.533V147.8H113.197V143.533H118.276V145.378H120.007V151.288H118.451V153.718H115.654V155.458H112.707V156.673H109.412V157.364H106.116V158.055H102.82V158.754H99.5327V159.445H96.2368V160.135H92.9409V160.835H89.9072V161.7H86.6988V162.417H20.877Z" fill="#2E6FB0"/>
<path d="M27.9146 142.135V145.431H24.881V146.358H21.655V147.136H18.4553V147.975H15.3167V149.147H13.6295V150.659H12.1782V152.163H13.6295V153.535H15.6402V156.35V154.357H18.9361V155.363H22.1446V156.053H25.187V156.665H28.4217V157.277H31.7001V157.81H85.2825V157.094H88.3161V156.228H91.612V155.537H94.9079V154.847H98.2038V154.156H101.5V153.465H104.796V152.775H108.091V152.084H111.038V150.869H113.835V149.129H115.391V147.311H114.5V144.854H116.956V146.699H118.687V149.995H117.131V152.425H114.334V154.165H111.387V155.38H108.091V156.071H104.796V156.761H101.5V157.452H98.2038V158.143H94.9079V158.833H91.612V159.524H88.5783V160.389H85.3699V161.106H22.1883V159.349H22.1533V160.407H18.8574V159.646H15.6052V159.139H12.3181V158.125H9.03093V157.111H5.74378V155.791H2.62273V149.339H5.76126V148.168H8.8998V146.996H12.0383V145.825H15.1769V144.653H18.3766V143.814H21.6026V143.036H24.6362V142.109H27.9321M30.5548 139.486H22.0135V140.413H18.9798V141.191H15.7539V142.03H12.5541V143.202H9.4156V144.373H6.27707V145.545H3.13853V146.716H0V158.414H3.13853V159.734H6.42569V160.748H9.71284V161.762H13V162.269H16.2522V163.03H19.5743V163.729H88.0101V163.012H91.2186V162.147H94.2522V161.456H97.5481V160.765H100.844V160.075H104.14V159.384H107.436V158.693H110.732V158.003H114.028V156.788H116.974V155.048H119.771V152.617H121.328V144.076H119.597V142.231H111.894V146.507H111.23V148.246H108.432V149.461H105.486V150.152H102.19V150.843H98.8944V151.533H95.5985V152.224H92.3026V152.915H89.0067V153.605H85.7108V154.471H82.6772V155.188H34.3403V154.654H31.0619V154.042H27.8272V153.431H24.7848V152.74H21.5763V151.734H18.2804V150.913H17.9482V150.598H21.0868V149.759H24.2865V148.981H27.5124V148.054H30.5461V139.513L30.5548 139.486Z" fill="white"/>
<path d="M49.08 147.328V146.358H44.8137V145.291H40.7397V143.98H37.2952V142.476H33.9469V140.684H31.8137V133.69H33.9469V131.111H36.3598V128.523H42.2784V133.585H43.8521V134.363H48.1184V135.378H51.8077V136.252H71.9065V134.643H76.2253V133.183H83.2192V134.267H87.4681V135.561H90.8252V141.751H87.4681V143.01H83.2455V144.172H78.9267V145.143H74.7041V146.262H70.464V147.328H49.08Z" fill="#2E6FB0"/>
<path d="M40.967 129.843V133.139H39.6294V134.905H42.5407V135.683H46.807V136.697H50.4963V137.572H73.2179V135.954H77.5366V134.503H81.9078V135.587H86.1567V136.881H89.5138V140.439H86.1567V141.698H81.9341V142.861H77.6153V143.831H73.3927V144.95H69.1526V146.017H50.3914V145.047H46.125V143.98H42.0511V142.669H38.6066V141.165H35.2582V139.373H33.125V135.001H35.2582V132.431H37.6711V129.843H40.967M43.5897 127.221H35.0484V129.808H32.6355V132.379H30.5023V141.995H32.6355V143.788H35.9838V145.291H39.4283V146.603H43.5023V147.669H47.7686V148.64H71.7754V147.573H76.0154V146.454H80.238V145.484H84.5568V144.321H88.7794V143.062H92.1365V134.258H88.7794V132.964H84.5306V131.88H74.9139V133.332H70.5951V134.949H53.119V134.075H49.4297V133.061H45.1634V132.283H43.5897V127.221V127.221Z" fill="white"/>
<path d="M46.3785 128.793V127.989H42.1297V127.185H37.8808V126.38H33.632V125.576H29.3832V122.883H27.3724V115.889H29.322V113.074H31.4464V110.714H38.4404V117.708H36.3159V118.582L36.3509 119.386H40.626V120.191H44.8748V120.995H49.1236V121.799H61.7739V120.995H66.0315V120.366H66.1976V120.025H70.2803V119.736H70.394V118.984H74.5903V117.953H78.778V116.921H82.9743V115.889H89.9683V116.563H92.1976V117.21H94.2783V124.203H90.0207V124.833H85.7719V125.462H81.5231V126.092H77.2743V126.73H73.1915V127.019H73.0254V127.359H68.7679V127.989H64.554V128.793H46.3785Z" fill="#2E6FB0"/>
<path d="M37.1291 112.025V116.396H35.0046V119.893H35.0658V120.698H39.3147V121.502H43.5635V122.306H47.8123V123.11H63.0853V122.306H67.3342V121.677H67.509V121.336H71.5917V121.047H71.7054V120.304H75.9017V119.273H80.0981V118.241H84.2945V117.209H88.6657V117.891H90.895V118.538H92.9757V122.909H88.7269V123.539H84.4781V124.168H80.2292V124.798H75.9804V125.427H71.8977V125.716H71.7229V126.057H67.474V126.686H63.2514V127.49H47.7074V126.686H43.4586V125.882H39.2097V125.078H34.9609V124.273H30.7121V121.572H28.7013V117.201H30.6509V114.386H32.7753V112.034H37.1465M39.7693 109.411H30.1526V111.763H28.0282V114.578H26.0786V124.195H28.0894V126.896H32.3382V127.7H36.587V128.505H40.8358V129.309H45.0847V130.113H65.8742V129.309H70.0968V128.679H74.3456V128.338H74.5204V128.05H78.6032V127.421H82.852V126.791H87.1008V126.162H91.3496V125.532H95.5984V115.915H93.5178V115.269H91.2884V114.587H81.6718V115.618H77.4754V116.65H73.279V117.681H69.0826V118.425H68.969V118.713H64.8863V119.054H64.7114V119.683H60.4626V120.488H50.435V119.683H46.1862V118.879H41.9374V118.075H39.7518V109.402L39.7693 109.411Z" fill="white"/>
<path d="M102.829 125.62V118.626H106.938V116.948H109.91V115.024H112.096V112.839H114.202V110.627H116.388V108.441H118.373V105.644H119.972V101.325H117.551V99.0081H114.919V97.2159H108.004V98.2737H101.01V91.2798H104.699V90.2219H108.389V89.1729H115.383V90.2219H118.644V92.0141H121.913V94.3309H124.545V96.8575H126.966V100.092H128.68V107.086H126.966V109.936H125.367V112.638H123.382V115.435H121.196V117.621H119.089V119.833H116.904V122.018H113.931V123.942H109.823V125.62H102.829Z" fill="#2E6FB0"/>
<path d="M114.071 90.4841V91.5419H117.341V93.3341H120.611V95.6508H123.242V98.1774H125.664V101.403H127.377V105.775H125.664V108.633H124.055V111.335H122.071V114.132H119.885V116.318H117.778V118.53H115.593V120.715H112.62V122.639H108.511V124.326H104.14V119.955H108.249V118.268H111.221V116.344H113.407V114.159H115.514V111.947H117.699V109.761H119.684V106.964H121.293V100.022H118.871V97.7053H116.239V95.9131H112.97V94.8553H110.391V95.9131H106.701V96.9622H102.33V92.591H106.02V91.5419H109.709V90.4841H114.08M116.703 87.8613H107.086V88.9192H103.397V89.9683H99.7075V99.5849H109.324V98.5358H113.617V100.328H116.248V102.645H118.67V104.341H117.061V107.138H115.077V109.324H112.891V111.536H110.784V113.721H108.599V115.645H105.626V117.332H101.517V126.949H111.134V125.261H115.243V123.338H118.215V121.153H120.401V118.941H122.508V116.755H124.693V113.958H126.678V111.256H128.287V108.397H130V98.7806H128.287V95.5547H125.865V93.0281H123.233V90.7114H119.964V88.9192H116.694V87.8613H116.703Z" fill="white"/>
<path d="M30.3537 111.187V110.785H26.0874V109.631H21.891V108.381H17.8608V107H13.7518V97.3393H17.8608V96.2465H21.9697V95.1624H26.0874V94.0696H30.1964V92.9856H34.3053V91.8928H38.4842V90.8262H45.4781V97.8201H41.2992V98.8867H37.1903V99.9795H33.0814V101.064H28.9637V102.148H33.0814V104.193H65.1224V103.293H69.1089V102.471H73.0955V101.641H77.0733V100.81H81.0598V99.9795H85.0376V99.149H89.0242V98.3272H93.002V97.4966H99.9959V104.491H96.0181V105.321H92.0316V106.143H88.0538V106.973H84.0672V107.804H80.0894V108.635H76.1029V109.465H72.1163V110.287H68.1035V111.187H30.3537Z" fill="#2E6FB0"/>
<path d="M44.1667 92.1373V96.5086H39.9791V97.5751H35.8702V98.6592H31.7612V99.7432H27.6523V100.827H27.5736V103.441H31.7612V105.487H66.4337V104.587H70.4203V103.756H74.4068V102.926H78.3934V102.095H82.3799V101.264H86.3665V100.434H90.353V99.6034H94.3396V98.7728H98.7108V103.144H94.7242V103.975H90.7377V104.805H86.7511V105.636H82.7646V106.466H78.778V107.297H74.7915V108.127H70.8049V108.958H66.7921V109.858H31.665V109.456H27.39V108.302H23.2024V107.061H19.1721V105.679H15.0632V98.633H19.1721V97.5489H23.281V96.4648H27.39V95.3808H31.4989V94.2967H35.6079V93.2127H39.7955V92.1461H44.1667M46.7895 89.5233H37.1728V90.5899H32.9852V91.674H28.8762V92.758H24.7673V93.8421H20.6583V94.9262H16.5494V96.0102H12.4404V108.302H16.5494V109.683H20.5796V110.925H24.7673V112.079H29.0423V112.481H69.4149V111.581H73.4276V110.75H77.4142V109.919H81.4008V109.089H85.3873V108.258H89.3739V107.428H93.3604V106.597H97.3469V105.767H101.334V96.1501H91.7168V96.9806H87.7303V97.8112H83.7437V98.6417H79.7572V99.4722H75.7706V100.303H71.7841V101.133H67.7975V101.964H63.811V102.864H34.3927V101.273H38.5016V100.189H42.6106V99.1225H46.7982V89.5059L46.7895 89.5233Z" fill="white"/>
<path d="M59.7195 92.6777V89.0759H56.4848V85.4652H53.3201V81.1989H50.6711V78.0254H48.8265V73.7766H44.394V67.3159H41.9462V55.9508H46.2387V49.9884H50.8809V44.9091H56.4848V40.1794H62.4384V35.7995H66.9058V30.8949H71.1809V26.2702H75.5521V21.5318H78.3846V12.8506H82.7384V11.4518H81.8466V8.33946H79.967V1.31055H86.961V4.42285H88.8406V8.56677H91.2797V17.1518H89.7498V24.2857H86.9172V32.897H82.546V37.6354H78.271V42.2601H73.8036V47.1646H67.85V51.5446H62.2461V56.2742H57.6039V61.3536H53.3113V63.9414H54.2205V71.0315H55.8204V74.205H57.6651V78.4713H60.314V82.0819H63.4788V85.6838H66.7135V92.6777H59.7195Z" fill="#CF372F"/>
<path d="M85.6496 2.62273V5.73504H87.5292V9.88769H89.9596V15.8413H88.4297V22.9751H85.5972V31.5864H81.2259V36.3248H76.9596V40.9496H72.4922V45.8541H66.5386V50.234H60.9347V54.9637H56.2925V60.043H52V65.2535H52.9179V72.3436H54.5178V75.5084H56.3625V79.7747H59.0114V83.3853H62.1762V86.996H65.4196V91.3672H61.0484V87.7566H57.805V84.1459H54.6402V79.8796H51.9912V76.7149H50.1466V72.4573H45.7142V65.9966H43.2575V57.2542H47.5501V51.3006H52.1923V46.2212H57.7962V41.4916H63.7498V37.1116H68.2172V32.2071H72.4835V27.5824H76.8547V22.844H79.6873V14.1627H84.0497V10.1412H83.158V7.02892H81.2784V2.62273H85.6496ZM88.2723 0H78.6557V9.65165H80.5353V11.54H77.0733V20.2212H74.2407V24.9596H69.8695V29.5844H65.6032V34.4889H61.1358V38.8689H55.1822V43.5985H49.5783V48.6779H44.9361V54.6315H40.6436V68.6194H43.1002V75.08H47.5326V79.3376H49.3772V82.5024H52.0262V86.7687H55.191V90.3793H58.4344V93.9899H68.0511V84.3732H64.8076V80.7626H61.6429V77.152H58.9939V72.8857H57.1493V69.7209H55.5494V62.6658H58.924V57.5864H63.5662V52.8568H69.1701V48.4768H75.1237V43.5723H79.5911V38.9475H83.8574V34.2091H88.2286V25.5978H91.0612V18.464H92.5911V7.26496H90.1607V3.11231H88.2811V0H88.2723Z" fill="white"/>
<path d="M72.6147 101.176V94.1821H75.4036V90.7376H77.5367V87.4504H78.8131V86.9608H76.1642V83.1579H73.419V80.2291H71.487V76.6535H67.4305V73.2352H65.5858V61.87H67.4305V58.3119H69.7297V50.2688H75.5347V47.3663H80.8851V44.4464H84.7667V41.6925H88.7795V39.6905H92.3027V37.9245H95.6073V35.7214H98.912V33.4746H105.906V40.4686H102.601V42.7154H99.2966V44.9185H95.7734V46.6844H91.7607V48.6864H87.879V51.4403H84.382V56.2224H81.0949V61.634H79.4601V64.5627H77.1958V66.7658H79.5562V68.864H82.8521V72.1949H85.2825V75.5957H87.5293V77.1168H89.033V85.0899H87.5293V86.9608H86.8125V90.3529H84.5307V94.4443H82.3975V97.7315H79.6087V101.176H72.6147Z" fill="#CF372F"/>
<path d="M104.595 34.7868V39.158H101.29V41.4048H97.9852V43.6079H94.462V45.3739H90.4493V47.3759H86.5676V50.1298H83.0706V54.9119H79.7835V60.3234H78.1487V63.2522H75.8931V68.078H78.2536V70.1762H81.5495V73.507H83.9799V76.9078H86.2267V78.4378H87.7216V83.7881H86.2267V85.659H85.5011V89.0511H83.228V93.1425H81.0949V96.421H78.306V99.8655H73.9348V95.4943H76.7236V92.0497H78.8568V88.7713H80.1332V85.6503H77.4842V81.8473H74.7391V78.9273H72.807V75.3429H68.7418V71.9247H66.8971V63.1822H68.7418V59.624H71.0411V51.581H76.846V48.6785H82.1964V45.7585H86.078V43.0047H90.0908V41.0027H93.614V39.2367H96.9187V37.0336H100.223V34.7868H104.595M107.217 32.1641H97.6006V34.4109H94.2959V36.614H90.9913V38.3799H87.4681V40.3819H83.4553V43.1358H79.5737V46.0558H74.2233V48.9583H68.4183V57.0013H66.1191V60.5595H64.2744V74.5474H66.1191V77.9657H70.1843V81.5501H72.1164V84.47H74.8615V88.273H76.2341V89.427H74.1009V92.8715H71.3121V102.488H80.9288V99.0437H83.7176V95.7653H85.8507V91.6738H88.1238V88.2818H88.8494V86.4109H90.3444V75.815H88.8494V74.2851H86.6026V70.8843H84.1722V67.5534H80.8763V65.4553H80.7801V62.9462H82.415V57.5346H85.7021V52.7525H89.1991V49.9986H93.0807V47.9966H97.0935V46.2306H100.617V44.0275H103.921V41.7807H107.226V32.1641H107.217Z" fill="white"/>
</svg>
