<svg width="auto" height="auto" viewBox="0 0 130 134" fill="none" xmlns="http://www.w3.org/2000/svg">
<mask id="path-1-inside-1_628_176" fill="white">
<path fill-rule="evenodd" clip-rule="evenodd" d="M10.5625 0H119.438V10.5625H130V119.438H119.438V130H10.5625V119.438H0V10.5625H10.5625V0Z"/>
</mask>
<path fill-rule="evenodd" clip-rule="evenodd" d="M10.5625 0H119.438V10.5625H130V119.438H119.438V130H10.5625V119.438H0V10.5625H10.5625V0Z" fill="#F4DE50"/>
<path d="M119.438 0H122.438V-3H119.438V0ZM10.5625 0V-3H7.5625V0H10.5625ZM119.438 10.5625H116.438V13.5625H119.438V10.5625ZM130 10.5625H133V7.5625H130V10.5625ZM130 119.438V122.438H133V119.438H130ZM119.438 119.438V116.438H116.438V119.438H119.438ZM119.438 130V133H122.438V130H119.438ZM10.5625 130H7.5625V133H10.5625V130ZM10.5625 119.438H13.5625V116.438H10.5625V119.438ZM0 119.438H-3V122.438H0V119.438ZM0 10.5625V7.5625H-3V10.5625H0ZM10.5625 10.5625V13.5625H13.5625V10.5625H10.5625ZM119.438 -3H10.5625V3H119.438V-3ZM122.438 10.5625V0H116.438V10.5625H122.438ZM130 7.5625H119.438V13.5625H130V7.5625ZM133 119.438V10.5625H127V119.438H133ZM119.438 122.438H130V116.438H119.438V122.438ZM122.438 130V119.438H116.438V130H122.438ZM10.5625 133H119.438V127H10.5625V133ZM7.5625 119.438V130H13.5625V119.438H7.5625ZM0 122.438H10.5625V116.438H0V122.438ZM-3 10.5625V119.438H3V10.5625H-3ZM10.5625 7.5625H0V13.5625H10.5625V7.5625ZM7.5625 0V10.5625H13.5625V0H7.5625Z" fill="white" mask="url(#path-1-inside-1_628_176)"/>
<path d="M29.625 100.75H40.875V106.375H52.125V61.375H46.5V55.75H69V61.375H63.375V106.375H57.75V112H35.25V106.375H29.625V100.75ZM74.625 61.375H80.25V55.75H108.375V61.375H114V67H102.75V61.375H85.875V78.25H108.375V83.875H114V106.375H108.375V112H80.25V106.375H74.625V100.75H85.875V106.375H102.75V83.875H80.25V78.25H74.625V61.375Z" fill="black"/>
</svg>
