<svg width="50" height="66" viewBox="0 0 50 66" fill="none" xmlns="http://www.w3.org/2000/svg">
<path d="M5 10H15V55H40V60H5V10Z" fill="white"/>
<path d="M5 10V6H1V10H5ZM15 10H19V6H15V10ZM15 55H11V59H15V55ZM40 55H44V51H40V55ZM40 60V64H44V60H40ZM5 60H1V64H5V60ZM5 14H15V6H5V14ZM11 10V55H19V10H11ZM15 59H40V51H15V59ZM36 55V60H44V55H36ZM40 56H5V64H40V56ZM9 60V10H1V60H9Z" fill="#A9AB5A"/>
<path d="M5 10H15V55H40V60H5V10Z" fill="white"/>
<path d="M5 10V8H3V10H5ZM15 10H17V8H15V10ZM15 55H13V57H15V55ZM40 55H42V53H40V55ZM40 60V62H42V60H40ZM5 60H3V62H5V60ZM5 12H15V8H5V12ZM13 10V55H17V10H13ZM15 57H40V53H15V57ZM38 55V60H42V55H38ZM40 58H5V62H40V58ZM7 60V10H3V60H7Z" fill="black"/>
<path d="M5 10H15V55H40V60H5V10Z" fill="white"/>
</svg>
