<svg width="40" height="80" viewBox="0 0 40 80" fill="none" xmlns="http://www.w3.org/2000/svg">
<path d="M0 10H10V55H35V60H0V10Z" fill="white"/>
<path d="M0 10V6H-4V10H0ZM10 10H14V6H10V10ZM10 55H6V59H10V55ZM35 55H39V51H35V55ZM35 60V64H39V60H35ZM0 60H-4V64H0V60ZM0 14H10V6H0V14ZM6 10V55H14V10H6ZM10 59H35V51H10V59ZM31 55V60H39V55H31ZM35 56H0V64H35V56ZM4 60V10H-4V60H4Z" fill="#A9AB5A"/>
<path d="M0 10H10V55H35V60H0V10Z" fill="white"/>
<path d="M0 10V8H-2V10H0ZM10 10H12V8H10V10ZM10 55H8V57H10V55ZM35 55H37V53H35V55ZM35 60V62H37V60H35ZM0 60H-2V62H0V60ZM0 12H10V8H0V12ZM8 10V55H12V10H8ZM10 57H35V53H10V57ZM33 55V60H37V55H33ZM35 58H0V62H35V58ZM2 60V10H-2V60H2Z" fill="black"/>
<path d="M0 10H10V55H35V60H0V10Z" fill="white"/>
</svg>
