<svg width="46" height="48" viewBox="0 0 46 48" fill="none" xmlns="http://www.w3.org/2000/svg">
<g id="Group 393">
<g id="Group">
<path id="Vector" d="M43 3H3V43H43V3Z" fill="#5777CE" stroke="black" stroke-width="5" stroke-miterlimit="10"/>
<path id="Vector_2" d="M10.4805 5.5H5.48047V10.5H10.4805V5.5Z" fill="black"/>
<path id="Vector_3" d="M40.5195 5.5H35.5195V10.5H40.5195V5.5Z" fill="black"/>
<path id="Vector_4" d="M10.4805 35.5195H5.48047V40.5195H10.4805V35.5195Z" fill="black"/>
<path id="Vector_5" d="M8.00977 10.5098H5.50977V35.5098H8.00977V10.5098Z" fill="#C0CFFF"/>
<path id="Vector_6" d="M35.5 8.01953V5.51953L10.5 5.51953V8.01953L35.5 8.01953Z" fill="#C0CFFF"/>
<path id="Vector_7" d="M35.4902 40.5H10.4902V45.5H35.4902V40.5Z" fill="black"/>
<path id="Vector_8" d="M40.5195 35.5195H35.5195V40.5195H40.5195V35.5195Z" fill="black"/>
<path id="Vector_9" d="M10.4805 40.4805H5.48047V45.4805H10.4805V40.4805Z" fill="#5675B2"/>
<path id="Vector_10" d="M35.4902 45.4199H10.4902V47.9199H35.4902V45.4199Z" fill="#5675B2"/>
<path id="Vector_11" d="M40.5195 40.4805H35.5195V45.4805H40.5195V40.4805Z" fill="#5675B2"/>
<path id="Vector_12" d="M10.4805 35.5H5.48047V40.5H10.4805V35.5Z" fill="#38598E"/>
<path id="Vector_13" d="M35.4902 40.4707H10.4902V45.4707H35.4902V40.4707Z" fill="#38598E"/>
<path id="Vector_14" d="M40.5195 35.5H35.5195V40.5H40.5195V35.5Z" fill="#38598E"/>
<path id="N" d="M16.5898 14.75H27.8398V16.625H29.7148V33.5H25.9648V16.625H20.3398V33.5H16.5898V14.75Z" fill="white"/>
</g>
</g>
</svg>
