<svg width="242" height="48" viewBox="0 0 242 48" fill="none" xmlns="http://www.w3.org/2000/svg">
<path d="M42.5 3H2.5V43H42.5V3Z" fill="#5777CE" stroke="black" stroke-width="5" stroke-miterlimit="10"/>
<path d="M9.99023 5.5H4.99023V10.5H9.99023V5.5Z" fill="black"/>
<path d="M40.0195 5.5H35.0195V10.5H40.0195V5.5Z" fill="black"/>
<path d="M9.99023 35.5195H4.99023V40.5195H9.99023V35.5195Z" fill="black"/>
<path d="M7.50977 10.5098H5.00977V35.5098H7.50977V10.5098Z" fill="#C0CFFF"/>
<path d="M35 8.01953V5.51953L10 5.51953V8.01953L35 8.01953Z" fill="#C0CFFF"/>
<path d="M35 40.5H10V45.5H35V40.5Z" fill="black"/>
<path d="M40.0195 35.5195H35.0195V40.5195H40.0195V35.5195Z" fill="black"/>
<path d="M9.99023 40.4805H4.99023V45.4805H9.99023V40.4805Z" fill="#5675B2"/>
<path d="M35 45.4199H10V47.9199H35V45.4199Z" fill="#5675B2"/>
<path d="M40.0195 40.4805H35.0195V45.4805H40.0195V40.4805Z" fill="#5675B2"/>
<path d="M9.99023 35.5H4.99023V40.5H9.99023V35.5Z" fill="#38598E"/>
<path d="M35 40.4707H10V45.4707H35V40.4707Z" fill="#38598E"/>
<path d="M40.0195 35.5H35.0195V40.5H40.0195V35.5Z" fill="#38598E"/>
<path d="M16.2002 13.75H19.9502V30.625H29.3252V32.5H16.2002V13.75Z" fill="white"/>
<path d="M91.5605 3H51.5605V43H91.5605V3Z" fill="#5777CE" stroke="black" stroke-width="5" stroke-miterlimit="10"/>
<path d="M59.041 5.5H54.041V10.5H59.041V5.5Z" fill="black"/>
<path d="M89.0703 5.5H84.0703V10.5H89.0703V5.5Z" fill="black"/>
<path d="M59.041 35.5195H54.041V40.5195H59.041V35.5195Z" fill="black"/>
<path d="M56.5703 10.5098H54.0703V35.5098H56.5703V10.5098Z" fill="#C0CFFF"/>
<path d="M84.0605 8.01953V5.51953L59.0605 5.51953V8.01953L84.0605 8.01953Z" fill="#C0CFFF"/>
<path d="M84.0508 40.5H59.0508V45.5H84.0508V40.5Z" fill="black"/>
<path d="M89.0703 35.5195H84.0703V40.5195H89.0703V35.5195Z" fill="black"/>
<path d="M59.041 40.4805H54.041V45.4805H59.041V40.4805Z" fill="#5675B2"/>
<path d="M84.0508 45.4199H59.0508V47.9199H84.0508V45.4199Z" fill="#5675B2"/>
<path d="M89.0703 40.4805H84.0703V45.4805H89.0703V40.4805Z" fill="#5675B2"/>
<path d="M59.041 35.5H54.041V40.5H59.041V35.5Z" fill="#38598E"/>
<path d="M84.0508 40.4707H59.0508V45.4707H84.0508V40.4707Z" fill="#38598E"/>
<path d="M89.0703 35.5H84.0703V40.5H89.0703V35.5Z" fill="#38598E"/>
<path d="M65.2607 16.625H67.1357V14.75H76.5107V16.625H78.3857V31.625H76.5107V33.5H67.1357V31.625H65.2607V16.625ZM69.0107 16.625V31.625H74.6357V16.625H69.0107Z" fill="white"/>
<path d="M140.61 3H100.61V43H140.61V3Z" fill="#5777CE" stroke="black" stroke-width="5" stroke-miterlimit="10"/>
<path d="M108.101 5.5H103.101V10.5H108.101V5.5Z" fill="black"/>
<path d="M138.13 5.5H133.13V10.5H138.13V5.5Z" fill="black"/>
<path d="M108.101 35.5195H103.101V40.5195H108.101V35.5195Z" fill="black"/>
<path d="M105.63 10.5098H103.13V35.5098H105.63V10.5098Z" fill="#C0CFFF"/>
<path d="M133.11 8.0293V5.5293L108.11 5.5293V8.0293L133.11 8.0293Z" fill="#C0CFFF"/>
<path d="M133.11 40.5H108.11V45.5H133.11V40.5Z" fill="black"/>
<path d="M138.13 35.5195H133.13V40.5195H138.13V35.5195Z" fill="black"/>
<path d="M108.101 40.4805H103.101V45.4805H108.101V40.4805Z" fill="#5675B2"/>
<path d="M133.11 45.4199H108.11V47.9199H133.11V45.4199Z" fill="#5675B2"/>
<path d="M138.13 40.4805H133.13V45.4805H138.13V40.4805Z" fill="#5675B2"/>
<path d="M108.101 35.5H103.101V40.5H108.101V35.5Z" fill="#38598E"/>
<path d="M133.11 40.4707H108.11V45.4707H133.11V40.4707Z" fill="#38598E"/>
<path d="M138.13 35.5H133.13V40.5H138.13V35.5Z" fill="#38598E"/>
<path d="M114.311 16.625H116.186V14.75H125.561V16.625H127.436V18.5H123.686V16.625H118.061V31.625H123.686V24.125H121.811V22.25H127.436V33.5H116.186V31.625H114.311V16.625Z" fill="white"/>
<path d="M189.67 3H149.67V43H189.67V3Z" fill="#5777CE" stroke="black" stroke-width="5" stroke-miterlimit="10"/>
<path d="M157.16 5.5H152.16V10.5H157.16V5.5Z" fill="black"/>
<path d="M187.189 5.5H182.189V10.5H187.189V5.5Z" fill="black"/>
<path d="M157.16 35.5195H152.16V40.5195H157.16V35.5195Z" fill="black"/>
<path d="M154.68 10.5098H152.18V35.5098H154.68V10.5098Z" fill="#C0CFFF"/>
<path d="M182.17 8.0293V5.5293L157.17 5.5293V8.0293L182.17 8.0293Z" fill="#C0CFFF"/>
<path d="M182.17 40.5H157.17V45.5H182.17V40.5Z" fill="black"/>
<path d="M187.189 35.5195H182.189V40.5195H187.189V35.5195Z" fill="black"/>
<path d="M157.16 40.4805H152.16V45.4805H157.16V40.4805Z" fill="#5675B2"/>
<path d="M182.17 45.4199H157.17V47.9199H182.17V45.4199Z" fill="#5675B2"/>
<path d="M187.189 40.4805H182.189V45.4805H187.189V40.4805Z" fill="#5675B2"/>
<path d="M157.16 35.5H152.16V40.5H157.16V35.5Z" fill="#38598E"/>
<path d="M182.17 40.4707H157.17V45.4707H182.17V40.4707Z" fill="#38598E"/>
<path d="M187.189 35.5H182.189V40.5H187.189V35.5Z" fill="#38598E"/>
<path d="M166.61 14.75H174.11V16.625H172.235V31.625H174.11V33.5H166.61V31.625H168.485V16.625H166.61V14.75Z" fill="white"/>
<path d="M238.73 3H198.73V43H238.73V3Z" fill="#5777CE" stroke="black" stroke-width="5" stroke-miterlimit="10"/>
<path d="M206.211 5.5H201.211V10.5H206.211V5.5Z" fill="black"/>
<path d="M236.25 5.5H231.25V10.5H236.25V5.5Z" fill="black"/>
<path d="M206.211 35.5195H201.211V40.5195H206.211V35.5195Z" fill="black"/>
<path d="M203.74 10.5098H201.24V35.5098H203.74V10.5098Z" fill="#C0CFFF"/>
<path d="M231.23 8.01953V5.51953L206.23 5.51953V8.01953L231.23 8.01953Z" fill="#C0CFFF"/>
<path d="M231.221 40.5H206.221V45.5H231.221V40.5Z" fill="black"/>
<path d="M236.25 35.5195H231.25V40.5195H236.25V35.5195Z" fill="black"/>
<path d="M206.211 40.4805H201.211V45.4805H206.211V40.4805Z" fill="#5675B2"/>
<path d="M231.221 45.4199H206.221V47.9199H231.221V45.4199Z" fill="#5675B2"/>
<path d="M236.25 40.4805H231.25V45.4805H236.25V40.4805Z" fill="#5675B2"/>
<path d="M206.211 35.5H201.211V40.5H206.211V35.5Z" fill="#38598E"/>
<path d="M231.221 40.4707H206.221V45.4707H231.221V40.4707Z" fill="#38598E"/>
<path d="M236.25 35.5H231.25V40.5H236.25V35.5Z" fill="#38598E"/>
<path d="M212.32 14.75H223.57V16.625H225.445V33.5H221.695V16.625H216.07V33.5H212.32V14.75Z" fill="white"/>
</svg>
