<svg width="46" height="48" viewBox="0 0 46 48" fill="none" xmlns="http://www.w3.org/2000/svg">
<g id="Group">
<path id="Vector" d="M43 2.5H3V42.5H43V2.5Z" fill="#5777CE" stroke="black" stroke-width="5" stroke-miterlimit="10"/>
<path id="Vector_2" d="M10.4902 5H5.49023V10H10.4902V5Z" fill="black"/>
<path id="Vector_3" d="M40.5195 5H35.5195V10H40.5195V5Z" fill="black"/>
<path id="Vector_4" d="M10.4902 35.0303H5.49023V40.0303H10.4902V35.0303Z" fill="black"/>
<path id="Vector_5" d="M8.00977 10.0195H5.50977V35.0195H8.00977V10.0195Z" fill="#C0CFFF"/>
<path id="Vector_6" d="M35.5 7.53027V5.03027L10.5 5.03027V7.53027L35.5 7.53027Z" fill="#C0CFFF"/>
<path id="Vector_7" d="M35.5 40H10.5V45H35.5V40Z" fill="black"/>
<path id="Vector_8" d="M40.5195 35.0303H35.5195V40.0303H40.5195V35.0303Z" fill="black"/>
<path id="Vector_9" d="M10.4902 39.9902H5.49023V44.9902H10.4902V39.9902Z" fill="#5675B2"/>
<path id="Vector_10" d="M35.5 44.9297H10.5V47.4297H35.5V44.9297Z" fill="#5675B2"/>
<path id="Vector_11" d="M40.5195 39.9902H35.5195V44.9902H40.5195V39.9902Z" fill="#5675B2"/>
<path id="Vector_12" d="M10.4902 35H5.49023V40H10.4902V35Z" fill="#38598E"/>
<path id="Vector_13" d="M35.5 39.9805H10.5V44.9805H35.5V39.9805Z" fill="#38598E"/>
<path id="Vector_14" d="M40.5195 35H35.5195V40H40.5195V35Z" fill="#38598E"/>
<path id="O" d="M17.1699 17.5156H19.0449V15.6406H28.4199V17.5156H30.2949V32.5156H28.4199V34.3906H19.0449V32.5156H17.1699V17.5156ZM20.9199 17.5156V32.5156H26.5449V17.5156H20.9199Z" fill="white"/>
</g>
</svg>
