<svg width="46" height="48" viewBox="0 0 46 48" fill="none" xmlns="http://www.w3.org/2000/svg">
<g id="Group">
<path id="Vector" d="M42.6699 3H2.66992V43H42.6699V3Z" fill="#5777CE" stroke="black" stroke-width="5" stroke-miterlimit="10"/>
<path id="Vector_2" d="M10.1602 5.5H5.16016V10.5H10.1602V5.5Z" fill="black"/>
<path id="Vector_3" d="M40.1895 5.5H35.1895V10.5H40.1895V5.5Z" fill="black"/>
<path id="Vector_4" d="M10.1602 35.5195H5.16016V40.5195H10.1602V35.5195Z" fill="black"/>
<path id="Vector_5" d="M7.67969 10.5098H5.17969V35.5098H7.67969V10.5098Z" fill="#C0CFFF"/>
<path id="Vector_6" d="M35.1699 8.0293V5.5293L10.1699 5.5293V8.0293L35.1699 8.0293Z" fill="#C0CFFF"/>
<path id="Vector_7" d="M35.1699 40.5H10.1699V45.5H35.1699V40.5Z" fill="black"/>
<path id="Vector_8" d="M40.1895 35.5195H35.1895V40.5195H40.1895V35.5195Z" fill="black"/>
<path id="Vector_9" d="M10.1602 40.4805H5.16016V45.4805H10.1602V40.4805Z" fill="#5675B2"/>
<path id="Vector_10" d="M35.1699 45.4199H10.1699V47.9199H35.1699V45.4199Z" fill="#5675B2"/>
<path id="Vector_11" d="M40.1895 40.4805H35.1895V45.4805H40.1895V40.4805Z" fill="#5675B2"/>
<path id="Vector_12" d="M10.1602 35.5H5.16016V40.5H10.1602V35.5Z" fill="#38598E"/>
<path id="Vector_13" d="M35.1699 40.4707H10.1699V45.4707H35.1699V40.4707Z" fill="#38598E"/>
<path id="Vector_14" d="M40.1895 35.5H35.1895V40.5H40.1895V35.5Z" fill="#38598E"/>
<path id="I" d="M19.6104 14.75H27.1104V16.625H25.2354V31.625H27.1104V33.5H19.6104V31.625H21.4854V16.625H19.6104V14.75Z" fill="white"/>
</g>
</svg>
