<svg width="46" height="48" viewBox="0 0 46 48" fill="none" xmlns="http://www.w3.org/2000/svg">
<g id="Group">
<path id="Vector" d="M43 2.5H3V42.5H43V2.5Z" fill="#5777CE" stroke="black" stroke-width="5" stroke-miterlimit="10"/>
<path id="Vector_2" d="M10.4902 5H5.49023V10H10.4902V5Z" fill="black"/>
<path id="Vector_3" d="M40.5195 5H35.5195V10H40.5195V5Z" fill="black"/>
<path id="Vector_4" d="M10.4902 35.0195H5.49023V40.0195H10.4902V35.0195Z" fill="black"/>
<path id="Vector_5" d="M8.00977 10.0098H5.50977V35.0098H8.00977V10.0098Z" fill="#C0CFFF"/>
<path id="Vector_6" d="M35.5 7.51953V5.01953L10.5 5.01953V7.51953L35.5 7.51953Z" fill="#C0CFFF"/>
<path id="Vector_7" d="M35.5 40H10.5V45H35.5V40Z" fill="black"/>
<path id="Vector_8" d="M40.5195 35.0195H35.5195V40.0195H40.5195V35.0195Z" fill="black"/>
<path id="Vector_9" d="M10.4902 39.9805H5.49023V44.9805H10.4902V39.9805Z" fill="#5675B2"/>
<path id="Vector_10" d="M35.5 44.9199H10.5V47.4199H35.5V44.9199Z" fill="#5675B2"/>
<path id="Vector_11" d="M40.5195 39.9805H35.5195V44.9805H40.5195V39.9805Z" fill="#5675B2"/>
<path id="Vector_12" d="M10.4902 35H5.49023V40H10.4902V35Z" fill="#38598E"/>
<path id="Vector_13" d="M35.5 39.9697H10.5V44.9697H35.5V39.9697Z" fill="#38598E"/>
<path id="Vector_14" d="M40.5195 35H35.5195V40H40.5195V35Z" fill="#38598E"/>
<path id="G" d="M15.3301 17.125H17.2051V15.25H26.5801V17.125H28.4551V19H24.7051V17.125H19.0801V32.125H24.7051V24.625H22.8301V22.75H28.4551V34H17.2051V32.125H15.3301V17.125Z" fill="white"/>
</g>
</svg>
