<svg width="252" height="57" viewBox="0 0 252 57" fill="none" xmlns="http://www.w3.org/2000/svg">
<g id="&#236;&#151;&#176;&#234;&#184;&#176;">
<path id="Vector" d="M169.549 0H163.243V6.30564H169.549V0Z" fill="#D1D2D4"/>
<path id="Vector_2" d="M175.876 0H169.57V6.30564H175.876V0Z" fill="white"/>
<path id="Vector_3" d="M157.127 0H150.821V6.30564H157.127V0Z" fill="#D1D2D4"/>
<path id="Vector_4" d="M169.549 6.32617H163.243V12.6318H169.549V6.32617Z" fill="#D1D2D4"/>
<path id="Vector_5" d="M175.876 6.32617H169.57V12.6318H175.876V6.32617Z" fill="#D1D2D4"/>
<path id="Vector_6" d="M182.203 6.32617H175.897V12.6318H182.203V6.32617Z" fill="white"/>
<path id="Vector_7" d="M163.338 6.32617H157.032V12.6318H163.338V6.32617Z" fill="#D1D2D4"/>
<path id="Vector_8" d="M157.127 6.32617H150.821V12.6318H157.127V6.32617Z" fill="#D1D2D4"/>
<path id="Vector_9" d="M169.549 12.6533H163.243V18.959H169.549V12.6533Z" fill="#D1D2D4"/>
<path id="Vector_10" d="M175.876 12.6533H169.57V18.959H175.876V12.6533Z" fill="#D1D2D4"/>
<path id="Vector_11" d="M182.203 12.6533H175.897V18.959H182.203V12.6533Z" fill="#D1D2D4"/>
<path id="Vector_12" d="M188.529 12.6533H182.224V18.959H188.529V12.6533Z" fill="white"/>
<path id="Vector_13" d="M163.338 12.6533H157.032V18.959H163.338V12.6533Z" fill="#EAEAEA"/>
<path id="Vector_14" d="M157.127 12.6533H150.821V18.959H157.127V12.6533Z" fill="#D1D2D4"/>
<path id="Vector_15" d="M150.916 12.6533H144.61V18.959H150.916V12.6533Z" fill="#D1D2D4"/>
<path id="Vector_16" d="M138.493 12.6533H132.188V18.959H138.493V12.6533Z" fill="#D1D2D4"/>
<path id="Vector_17" d="M132.282 12.6533H125.977V18.959H132.282V12.6533Z" fill="#D1D2D4"/>
<path id="Vector_18" d="M126.071 12.6533H119.766V18.959H126.071V12.6533Z" fill="#D1D2D4"/>
<path id="Vector_19" d="M119.86 12.6533H113.555V18.959H119.86V12.6533Z" fill="white"/>
<path id="Vector_20" d="M113.648 12.6533H107.343V18.959H113.648V12.6533Z" fill="white"/>
<path id="Vector_21" d="M107.437 12.6533H101.131V18.959H107.437V12.6533Z" fill="white"/>
<path id="Vector_22" d="M169.549 18.9805H163.243V25.2861H169.549V18.9805Z" fill="#D1D2D4"/>
<path id="Vector_23" d="M175.876 18.9805H169.57V25.2861H175.876V18.9805Z" fill="#BFBFBF"/>
<path id="Vector_24" d="M182.203 18.9805H175.897V25.2861H182.203V18.9805Z" fill="#BFBFBF"/>
<path id="Vector_25" d="M188.529 18.9805H182.224V25.2861H188.529V18.9805Z" fill="white"/>
<path id="Vector_26" d="M163.338 18.9805H157.032V25.2861H163.338V18.9805Z" fill="#EAEAEA"/>
<path id="Vector_27" d="M157.127 18.9805H150.821V25.2861H157.127V18.9805Z" fill="#EAEAEA"/>
<path id="Vector_28" d="M150.916 18.9805H144.61V25.2861H150.916V18.9805Z" fill="#D1D2D4"/>
<path id="Vector_29" d="M150.916 7H144.61V13.3056H150.916V7Z" fill="white"/>
<path id="Vector_30" d="M144.705 18.9805H138.399V25.2861H144.705V18.9805Z" fill="#D1D2D4"/>
<path id="Vector_31" d="M144.705 7H138.399V13.3056H144.705V7Z" fill="white"/>
<path id="Vector_32" d="M144.705 13H138.399V19.3056H144.705V13Z" fill="white"/>
<path id="Vector_33" d="M138.493 18.9805H132.188V25.2861H138.493V18.9805Z" fill="#D1D2D4"/>
<path id="Vector_34" d="M138.493 7H132.188V13.3056H138.493V7Z" fill="white"/>
<path id="Vector_35" d="M138 0H132V7H138V0Z" fill="#D1D2D4"/>
<path id="Vector_36" d="M132.282 18.9805H125.977V25.2861H132.282V18.9805Z" fill="#D1D2D4"/>
<path id="Vector_37" d="M132.282 7H125.977V13.3056H132.282V7Z" fill="white"/>
<path id="Vector_38" d="M132 0H126V7H132V0Z" fill="white"/>
<path id="Vector_39" d="M126.071 18.9805H119.766V25.2861H126.071V18.9805Z" fill="#D1D2D4"/>
<path id="Vector_40" d="M126.071 7H119.766V13.3056H126.071V7Z" fill="white"/>
<path id="Vector_41" d="M119.86 18.9805H113.555V25.2861H119.86V18.9805Z" fill="#D1D2D4"/>
<path id="Vector_42" d="M113.648 18.9805H107.343V25.2861H113.648V18.9805Z" fill="#BFBFBF"/>
<path id="Vector_43" d="M107.437 18.9805H101.131V25.2861H107.437V18.9805Z" fill="#BFBFBF"/>
<path id="Vector_44" d="M101.111 18.9805H94.8057V25.2861H101.111V18.9805Z" fill="white"/>
<path id="Vector_45" d="M169.549 25.3057H163.243V31.6113H169.549V25.3057Z" fill="#BFBFBF"/>
<path id="Vector_46" d="M175.876 25.3057H169.57V31.6113H175.876V25.3057Z" fill="#D1D2D4"/>
<path id="Vector_47" d="M182.203 25.3057H175.897V31.6113H182.203V25.3057Z" fill="#D1D2D4"/>
<path id="Vector_48" d="M188.529 25.3057H182.224V31.6113H188.529V25.3057Z" fill="#D1D2D4"/>
<path id="Vector_49" d="M194.74 25.3057H188.435V31.6113H194.74V25.3057Z" fill="white"/>
<path id="Vector_50" d="M200.951 25.3057H194.646V31.6113H200.951V25.3057Z" fill="white"/>
<path id="Vector_51" d="M163.338 25.3057H157.032V31.6113H163.338V25.3057Z" fill="#D1D2D4"/>
<path id="Vector_52" d="M157.127 25.3057H150.821V31.6113H157.127V25.3057Z" fill="#D1D2D4"/>
<path id="Vector_53" d="M150.916 25.3057H144.61V31.6113H150.916V25.3057Z" fill="#EAEAEA"/>
<path id="Vector_54" d="M144.705 25.3057H138.399V31.6113H144.705V25.3057Z" fill="#D1D2D4"/>
<path id="Vector_55" d="M138.493 25.3057H132.188V31.6113H138.493V25.3057Z" fill="#D1D2D4"/>
<path id="Vector_56" d="M132.282 25.3057H125.977V31.6113H132.282V25.3057Z" fill="#D1D2D4"/>
<path id="Vector_57" d="M126.071 25.3057H119.766V31.6113H126.071V25.3057Z" fill="#D1D2D4"/>
<path id="Vector_58" d="M119.86 25.3057H113.555V31.6113H119.86V25.3057Z" fill="#BFBFBF"/>
<path id="Vector_59" d="M113.648 25.3057H107.343V31.6113H113.648V25.3057Z" fill="#D1D2D4"/>
<path id="Vector_60" d="M107.437 25.3057H101.131V31.6113H107.437V25.3057Z" fill="#D1D2D4"/>
<path id="Vector_61" d="M101.111 25.3057H94.8057V31.6113H101.111V25.3057Z" fill="white"/>
<path id="Vector_62" d="M169.549 31.6123H163.243V37.918H169.549V31.6123Z" fill="#D1D2D4"/>
<path id="Vector_63" d="M175.876 31.6123H169.57V37.918H175.876V31.6123Z" fill="#D1D2D4"/>
<path id="Vector_64" d="M182.203 31.6123H175.897V37.918H182.203V31.6123Z" fill="#D1D2D4"/>
<path id="Vector_65" d="M188.529 31.6123H182.224V37.918H188.529V31.6123Z" fill="#D1D2D4"/>
<path id="Vector_66" d="M194.74 31.6123H188.435V37.918H194.74V31.6123Z" fill="#BFBFBF"/>
<path id="Vector_67" d="M200.951 31.6123H194.646V37.918H200.951V31.6123Z" fill="#D1D2D4"/>
<path id="Vector_68" d="M207.278 31.6123H200.973V37.918H207.278V31.6123Z" fill="white"/>
<path id="Vector_69" d="M163.338 31.6123H157.032V37.918H163.338V31.6123Z" fill="#D1D2D4"/>
<path id="Vector_70" d="M157.127 31.6123H150.821V37.918H157.127V31.6123Z" fill="#D1D2D4"/>
<path id="Vector_71" d="M150.916 31.6123H144.61V37.918H150.916V31.6123Z" fill="#D1D2D4"/>
<path id="Vector_72" d="M144.705 31.6123H138.399V37.918H144.705V31.6123Z" fill="#D1D2D4"/>
<path id="Vector_73" d="M138.493 31.6123H132.188V37.918H138.493V31.6123Z" fill="#AFAFAF"/>
<path id="Vector_74" d="M132.282 31.6123H125.977V37.918H132.282V31.6123Z" fill="#D1D2D4"/>
<path id="Vector_75" d="M126.071 31.6123H119.766V37.918H126.071V31.6123Z" fill="#D1D2D4"/>
<path id="Vector_76" d="M119.86 31.6123H113.555V37.918H119.86V31.6123Z" fill="#D1D2D4"/>
<path id="Vector_77" d="M113.648 31.6123H107.343V37.918H113.648V31.6123Z" fill="#D1D2D4"/>
<path id="Vector_78" d="M107.437 31.6123H101.131V37.918H107.437V31.6123Z" fill="#D1D2D4"/>
<path id="Vector_79" d="M101.111 31.6123H94.8057V37.918H101.111V31.6123Z" fill="#BFBFBF"/>
<path id="Vector_80" d="M94.7842 31.6123H88.4785V37.918H94.7842V31.6123Z" fill="white"/>
<path id="Vector_81" d="M82.1416 31.6123H75.8359V37.918H82.1416V31.6123Z" fill="#D1D2D4"/>
<path id="Vector_82" d="M169.549 37.9277H163.243V44.2334H169.549V37.9277Z" fill="#D1D2D4"/>
<path id="Vector_83" d="M175.876 37.9277H169.57V44.2334H175.876V37.9277Z" fill="#D1D2D4"/>
<path id="Vector_84" d="M182.203 37.9277H175.897V44.2334H182.203V37.9277Z" fill="#D1D2D4"/>
<path id="Vector_85" d="M188.529 37.9277H182.224V44.2334H188.529V37.9277Z" fill="#D1D2D4"/>
<path id="Vector_86" d="M194.74 37.9277H188.435V44.2334H194.74V37.9277Z" fill="#D1D2D4"/>
<path id="Vector_87" d="M200.951 37.9277H194.646V44.2334H200.951V37.9277Z" fill="#D1D2D4"/>
<path id="Vector_88" d="M207.278 37.9277H200.973V44.2334H207.278V37.9277Z" fill="#D1D2D4"/>
<path id="Vector_89" d="M213.595 37.9277H207.289V44.2334H213.595V37.9277Z" fill="white"/>
<path id="Vector_90" d="M219.91 25.3057H213.604V31.6113H219.91V25.3057Z" fill="#D1D2D4"/>
<path id="Vector_91" d="M163.338 37.9277H157.032V44.2334H163.338V37.9277Z" fill="#D1D2D4"/>
<path id="Vector_92" d="M157.127 37.9277H150.821V44.2334H157.127V37.9277Z" fill="#AFAFAF"/>
<path id="Vector_93" d="M150.916 37.9277H144.61V44.2334H150.916V37.9277Z" fill="#AFAFAF"/>
<path id="Vector_94" d="M144.705 37.9277H138.399V44.2334H144.705V37.9277Z" fill="#D1D2D4"/>
<path id="Vector_95" d="M138.493 37.9277H132.188V44.2334H138.493V37.9277Z" fill="#D1D2D4"/>
<path id="Vector_96" d="M132.282 37.9277H125.977V44.2334H132.282V37.9277Z" fill="#AFAFAF"/>
<path id="Vector_97" d="M126.071 37.9277H119.766V44.2334H126.071V37.9277Z" fill="#D1D2D4"/>
<path id="Vector_98" d="M119.86 37.9277H113.555V44.2334H119.86V37.9277Z" fill="#D1D2D4"/>
<path id="Vector_99" d="M113.648 37.9277H107.343V44.2334H113.648V37.9277Z" fill="#EAEAEA"/>
<path id="Vector_100" d="M107.437 37.9277H101.131V44.2334H107.437V37.9277Z" fill="#EAEAEA"/>
<path id="Vector_101" d="M101.111 37.9277H94.8057V44.2334H101.111V37.9277Z" fill="#D1D2D4"/>
<path id="Vector_102" d="M94.7842 37.9277H88.4785V44.2334H94.7842V37.9277Z" fill="#D1D2D4"/>
<path id="Vector_103" d="M88.4678 37.9277H82.1621V44.2334H88.4678V37.9277Z" fill="white"/>
<path id="Vector_104" d="M75.8144 37.9277H69.5088V44.2334H75.8144V37.9277Z" fill="white"/>
<path id="Vector_105" d="M169.549 44.2549H163.243V50.5605H169.549V44.2549Z" fill="#BFBFBF"/>
<path id="Vector_106" d="M175.876 44.2549H169.57V50.5605H175.876V44.2549Z" fill="#D1D2D4"/>
<path id="Vector_107" d="M182.203 44.2549H175.897V50.5605H182.203V44.2549Z" fill="#D1D2D4"/>
<path id="Vector_108" d="M188.529 44.2549H182.224V50.5605H188.529V44.2549Z" fill="#D1D2D4"/>
<path id="Vector_109" d="M194.74 44.2549H188.435V50.5605H194.74V44.2549Z" fill="#BFBFBF"/>
<path id="Vector_110" d="M200.951 44.2549H194.646V50.5605H200.951V44.2549Z" fill="#D1D2D4"/>
<path id="Vector_111" d="M207.278 44.2549H200.973V50.5605H207.278V44.2549Z" fill="#D1D2D4"/>
<path id="Vector_112" d="M213.595 44.2549H207.289V50.5605H213.595V44.2549Z" fill="white"/>
<path id="Vector_113" d="M163.338 44.2549H157.032V50.5605H163.338V44.2549Z" fill="#AFAFAF"/>
<path id="Vector_114" d="M157.127 44.2549H150.821V50.5605H157.127V44.2549Z" fill="#D1D2D4"/>
<path id="Vector_115" d="M150.916 44.2549H144.61V50.5605H150.916V44.2549Z" fill="#BFBFBF"/>
<path id="Vector_116" d="M144.705 44.2549H138.399V50.5605H144.705V44.2549Z" fill="#D1D2D4"/>
<path id="Vector_117" d="M138.493 44.2549H132.188V50.5605H138.493V44.2549Z" fill="#D1D2D4"/>
<path id="Vector_118" d="M132.282 44.2549H125.977V50.5605H132.282V44.2549Z" fill="#D1D2D4"/>
<path id="Vector_119" d="M126.071 44.2549H119.766V50.5605H126.071V44.2549Z" fill="#AFAFAF"/>
<path id="Vector_120" d="M119.86 44.2549H113.555V50.5605H119.86V44.2549Z" fill="#D1D2D4"/>
<path id="Vector_121" d="M113.648 44.2549H107.343V50.5605H113.648V44.2549Z" fill="#D1D2D4"/>
<path id="Vector_122" d="M107.437 44.2549H101.131V50.5605H107.437V44.2549Z" fill="#D1D2D4"/>
<path id="Vector_123" d="M101.111 44.2549H94.8057V50.5605H101.111V44.2549Z" fill="#EAEAEA"/>
<path id="Vector_124" d="M94.7842 44.2549H88.4785V50.5605H94.7842V44.2549Z" fill="#EAEAEA"/>
<path id="Vector_125" d="M88.4678 44.2549H82.1621V50.5605H88.4678V44.2549Z" fill="#D1D2D4"/>
<path id="Vector_126" d="M82.1416 44.2549H75.8359V50.5605H82.1416V44.2549Z" fill="white"/>
<path id="Vector_127" d="M75.8144 44.2549H69.5088V50.5605H75.8144V44.2549Z" fill="#D1D2D4"/>
<path id="Vector_128" d="M69.4873 44.2549H63.1816V50.5605H69.4873V44.2549Z" fill="#BFBFBF"/>
<path id="Vector_129" d="M169.549 50.582H163.243V56.8877H169.549V50.582Z" fill="#D1D2D4"/>
<path id="Vector_130" d="M175.876 50.582H169.57V56.8877H175.876V50.582Z" fill="#D1D2D4"/>
<path id="Vector_131" d="M182.203 50.582H175.897V56.8877H182.203V50.582Z" fill="#D1D2D4"/>
<path id="Vector_132" d="M188.529 50.582H182.224V56.8877H188.529V50.582Z" fill="#D1D2D4"/>
<path id="Vector_133" d="M194.74 50.582H188.435V56.8877H194.74V50.582Z" fill="#D1D2D4"/>
<path id="Vector_134" d="M200.951 50.582H194.646V56.8877H200.951V50.582Z" fill="#BFBFBF"/>
<path id="Vector_135" d="M207.278 50.582H200.973V56.8877H207.278V50.582Z" fill="#BFBFBF"/>
<path id="Vector_136" d="M213.595 50.582H207.289V56.8877H213.595V50.582Z" fill="#D1D2D4"/>
<path id="Vector_137" d="M219.921 50.582H213.615V56.8877H219.921V50.582Z" fill="white"/>
<path id="Vector_138" d="M163.338 50.582H157.032V56.8877H163.338V50.582Z" fill="#BFBFBF"/>
<path id="Vector_139" d="M157.127 50.582H150.821V56.8877H157.127V50.582Z" fill="#D1D2D4"/>
<path id="Vector_140" d="M150.916 50.582H144.61V56.8877H150.916V50.582Z" fill="#D1D2D4"/>
<path id="Vector_141" d="M144.705 50.582H138.399V56.8877H144.705V50.582Z" fill="#D1D2D4"/>
<path id="Vector_142" d="M138.493 50.582H132.188V56.8877H138.493V50.582Z" fill="#D1D2D4"/>
<path id="Vector_143" d="M132.282 50.582H125.977V56.8877H132.282V50.582Z" fill="#D1D2D4"/>
<path id="Vector_144" d="M126.071 50.582H119.766V56.8877H126.071V50.582Z" fill="#AFAFAF"/>
<path id="Vector_145" d="M119.86 50.582H113.555V56.8877H119.86V50.582Z" fill="#D1D2D4"/>
<path id="Vector_146" d="M113.648 50.582H107.343V56.8877H113.648V50.582Z" fill="#D1D2D4"/>
<path id="Vector_147" d="M107.437 50.582H101.131V56.8877H107.437V50.582Z" fill="#D1D2D4"/>
<path id="Vector_148" d="M101.111 50.582H94.8057V56.8877H101.111V50.582Z" fill="#D1D2D4"/>
<path id="Vector_149" d="M94.7842 50.582H88.4785V56.8877H94.7842V50.582Z" fill="#D1D2D4"/>
<path id="Vector_150" d="M88.4678 50.582H82.1621V56.8877H88.4678V50.582Z" fill="#D1D2D4"/>
<path id="Vector_151" d="M82.1416 50.582H75.8359V56.8877H82.1416V50.582Z" fill="#D1D2D4"/>
<path id="Vector_152" d="M75.8144 50.582H69.5088V56.8877H75.8144V50.582Z" fill="#BFBFBF"/>
<path id="Vector_153" d="M69.4873 50.582H63.1816V56.8877H69.4873V50.582Z" fill="#D1D2D4"/>
<path id="Vector_154" d="M63.1924 44.2549H56.8867V50.5605H63.1924V44.2549Z" fill="white"/>
<path id="Vector_155" d="M56.8662 44.2549H50.5605V50.5605H56.8662V44.2549Z" fill="white"/>
<path id="Vector_156" d="M50.5498 44.2549H44.2441V50.5605H50.5498V44.2549Z" fill="#D1D2D4"/>
<path id="Vector_157" d="M44.2226 44.2549H37.917V50.5605H44.2226V44.2549Z" fill="#D1D2D4"/>
<path id="Vector_158" d="M37.8974 44.2549H31.5918V50.5605H37.8974V44.2549Z" fill="#BFBFBF"/>
<path id="Vector_159" d="M63.1924 50.582H56.8867V56.8877H63.1924V50.582Z" fill="#D1D2D4"/>
<path id="Vector_160" d="M56.8662 50.582H50.5605V56.8877H56.8662V50.582Z" fill="#D1D2D4"/>
<path id="Vector_161" d="M50.5498 50.582H44.2441V56.8877H50.5498V50.582Z" fill="#D1D2D4"/>
<path id="Vector_162" d="M44.2226 50.582H37.917V56.8877H44.2226V50.582Z" fill="#D1D2D4"/>
<path id="Vector_163" d="M37.8974 50.582H31.5918V56.8877H37.8974V50.582Z" fill="#D1D2D4"/>
<path id="Vector_164" d="M31.5908 44.2549H25.2852V50.5605H31.5908V44.2549Z" fill="white"/>
<path id="Vector_165" d="M31.5908 50.582H25.2852V56.8877H31.5908V50.582Z" fill="#BFBFBF"/>
<path id="Vector_166" d="M12.6328 44.2549H6.32715V50.5605H12.6328V44.2549Z" fill="white"/>
<path id="Vector_167" d="M69.4873 37.9277H63.1816V44.2334H69.4873V37.9277Z" fill="white"/>
<path id="Vector_168" d="M50.5498 37.9277H44.2441V44.2334H50.5498V37.9277Z" fill="white"/>
<path id="Vector_169" d="M44.2226 37.9277H37.917V44.2334H44.2226V37.9277Z" fill="#D1D2D4"/>
<path id="Vector_170" d="M37.8974 37.9277H31.5918V44.2334H37.8974V37.9277Z" fill="#BFBFBF"/>
<path id="Vector_171" d="M31.5908 37.9277H25.2852V44.2334H31.5908V37.9277Z" fill="white"/>
<path id="Vector_172" d="M18.9482 37.9277H12.6426V44.2334H18.9482V37.9277Z" fill="#D1D2D4"/>
<path id="Vector_173" d="M6.30565 37.9277H0V44.2334H6.30565V37.9277Z" fill="#D1D2D4"/>
<path id="Vector_174" d="M63.1924 31.6123H56.8867V37.918H63.1924V31.6123Z" fill="#D1D2D4"/>
<path id="Vector_175" d="M56.8662 25.4951H50.5605V31.8008H56.8662V25.4951Z" fill="#D1D2D4"/>
<path id="Vector_176" d="M44.2226 31.6123H37.917V37.918H44.2226V31.6123Z" fill="white"/>
<path id="Vector_177" d="M37.8974 31.6123H31.5918V37.918H37.8974V31.6123Z" fill="white"/>
<path id="Vector_178" d="M25.2754 31.6123H18.9697V37.918H25.2754V31.6123Z" fill="#D1D2D4"/>
<path id="Vector_179" d="M18.9482 31.6123H12.6426V37.918H18.9482V31.6123Z" fill="#D1D2D4"/>
<path id="Vector_180" d="M25.2754 50.582H18.9697V56.8877H25.2754V50.582Z" fill="white"/>
<path id="Vector_181" d="M18.9482 50.582H12.6426V56.8877H18.9482V50.582Z" fill="white"/>
<path id="Vector_182" d="M12.6328 50.582H6.32715V56.8877H12.6328V50.582Z" fill="#D1D2D4"/>
<path id="Vector_183" d="M6.30565 50.582H0V56.8877H6.30565V50.582Z" fill="white"/>
<path id="Vector_184" d="M232.501 44.2549H226.195V50.5605H232.501V44.2549Z" fill="white"/>
<path id="Vector_185" d="M238.912 37.9697H232.606V44.2754H238.912V37.9697Z" fill="#D1D2D4"/>
<path id="Vector_186" d="M245.238 31.623H238.933V37.9287H245.238V31.623Z" fill="#D1D2D4"/>
<path id="Vector_187" d="M226.174 44.2549H219.868V50.5605H226.174V44.2549Z" fill="white"/>
<path id="Vector_188" d="M245.144 50.582H238.838V56.8877H245.144V50.582Z" fill="white"/>
<path id="Vector_189" d="M251.471 44.2549H245.165V50.5605H251.471V44.2549Z" fill="white"/>
<path id="Vector_190" d="M238.828 50.582H232.522V56.8877H238.828V50.582Z" fill="white"/>
<path id="Vector_191" d="M232.501 50.582H226.195V56.8877H232.501V50.582Z" fill="#D1D2D4"/>
<path id="Vector_192" d="M226.174 50.582H219.868V56.8877H226.174V50.582Z" fill="#D1D2D4"/>
</g>
</svg>
