<svg width="350" height="99" viewBox="0 0 350 99" fill="none" xmlns="http://www.w3.org/2000/svg">
<g id="&#236;&#157;&#180;&#235;&#166;&#132;">
<g id="Group">
<path id="&#236;&#157;&#180;&#235;&#166;&#132;&#235;&#176;&#176;&#234;&#178;&#189;" d="M343.317 38.7782H330.947V37.6976V30.1959H326.026V24.3623H319.29V18.256H312.754V13.2619H311.956V9.37988H43.2581V13.2619H37.0679V18.256H30.7203V24.3623H24.7713V30.1959H18.4552V37.6976H12.7791V38.7782H6.95605V57.4539H12.7791V63.8224H24.7713V70.4429H30.7203V76.6541H37.0679V83.2115H312.754V76.6541H319.29V70.4429H326.026V63.8224H330.947V57.4539H343.317V38.7782Z" fill="black"/>
<g id="&#236;&#157;&#180;&#235;&#166;&#132;_2">
<g id="&#234;&#184;&#128;&#236;&#148;&#168;">
<g id="&#60;">
<path id="&#60;_2" d="M30.3844 40.7292H36.2386V34.875H42.0928V29.0208H47.9469V23.1667H53.8011V17.3125H65.5094V23.1667H59.6553V29.0208H53.8011V34.875H47.9469V40.7292H42.0928V46.5833H47.9469V52.4375H53.8011V58.2917H59.6553V64.1458H65.5094V70H53.8011V64.1458H47.9469V58.2917H42.0928V52.4375H36.2386V46.5833H30.3844V40.7292Z" fill="#CA5FFF"/>
<path id="&#60;_3" d="M18.8327 40.7292H24.6869V34.875H30.541V29.0208H36.3952V23.1667H42.2494V17.3125H53.9577V23.1667H48.1035V29.0208H42.2494V34.875H36.3952V40.7292H30.541V46.5833H36.3952V52.4375H42.2494V58.2917H48.1035V64.1458H53.9577V70H42.2494V64.1458H36.3952V58.2917H30.541V52.4375H24.6869V46.5833H18.8327V40.7292Z" fill="#90F8FF"/>
<path id="&#60;_4" d="M26.5231 40.7292H32.3773V34.875H38.2314V29.0208H44.0856V23.1667H49.9398V17.3125H61.6481V23.1667H55.794V29.0208H49.9398V34.875H44.0856V40.7292H38.2314V46.5833H44.0856V52.4375H49.9398V58.2917H55.794V64.1458H61.6481V70H49.9398V64.1458H44.0856V58.2917H38.2314V52.4375H32.3773V46.5833H26.5231V40.7292Z" fill="white"/>
</g>
<g id="&#236;&#185;&#156;&#235;&#139;&#164;">
<path id="&#236;&#185;&#156;&#235;&#139;&#164;_2" d="M80.1332 23.2885H92.5532V19.1485H100.833V23.2885H113.253V27.4285H100.833V35.7085H104.973V39.8485H109.113V43.9885H113.253V48.1285H104.973V43.9885H100.833V39.8485H92.5532V43.9885H88.4132V48.1285H80.1332V43.9885H84.2732V39.8485H88.4132V35.7085H92.5532V27.4285H80.1332V23.2885ZM125.673 19.1485H133.953V48.1285H125.673V19.1485ZM84.2732 52.2685H92.5532V68.8285H133.953V72.9685H88.4132V68.8285H84.2732V52.2685ZM146.373 23.2885H175.353V27.4285H154.653V64.6885H167.073V60.5485H175.353V64.6885H171.213V68.8285H150.513V64.6885H146.373V23.2885ZM187.773 19.1485H196.053V43.9885H208.473V48.1285H196.053V72.9685H187.773V19.1485Z" fill="#90F8FF"/>
<path id="&#236;&#185;&#156;&#235;&#139;&#164;_3" d="M87.2992 23.2885H99.7192V19.1485H107.999V23.2885H120.419V27.4285H107.999V35.7085H112.139V39.8485H116.279V43.9885H120.419V48.1285H112.139V43.9885H107.999V39.8485H99.7192V43.9885H95.5792V48.1285H87.2992V43.9885H91.4392V39.8485H95.5792V35.7085H99.7192V27.4285H87.2992V23.2885ZM132.839 19.1485H141.119V48.1285H132.839V19.1485ZM91.4392 52.2685H99.7192V68.8285H141.119V72.9685H95.5792V68.8285H91.4392V52.2685ZM153.539 23.2885H182.519V27.4285H161.819V64.6885H174.239V60.5485H182.519V64.6885H178.379V68.8285H157.679V64.6885H153.539V23.2885ZM194.939 19.1485H203.219V43.9885H215.639V48.1285H203.219V72.9685H194.939V19.1485Z" fill="#CA5FFF"/>
<path id="&#236;&#185;&#156;&#235;&#139;&#164;_4" d="M84.6761 23.2885H97.0961V19.1485H105.376V23.2885H117.796V27.4285H105.376V35.7085H109.516V39.8485H113.656V43.9885H117.796V48.1285H109.516V43.9885H105.376V39.8485H97.0961V43.9885H92.9561V48.1285H84.6761V43.9885H88.8161V39.8485H92.9561V35.7085H97.0961V27.4285H84.6761V23.2885ZM130.216 19.1485H138.496V48.1285H130.216V19.1485ZM88.8161 52.2685H97.0961V68.8285H138.496V72.9685H92.9561V68.8285H88.8161V52.2685ZM150.916 23.2885H179.896V27.4285H159.196V64.6885H171.616V60.5485H179.896V64.6885H175.756V68.8285H155.056V64.6885H150.916V23.2885ZM192.316 19.1485H200.596V43.9885H213.016V48.1285H200.596V72.9685H192.316V19.1485Z" fill="white"/>
</g>
<g id="/">
<path id="/_2" d="M234.747 58.4323H240.482V52.6973H246.217V46.9623H251.952V41.2273H257.687V35.4923H263.422V29.7573H269.157V24.0223H274.892V35.4923H269.157V41.2273H263.422V46.9623H257.687V52.6973H251.952V58.4323H246.217V64.1673H240.482V69.9023H234.747V58.4323Z" fill="#CA5FFF"/>
<path id="/_3" d="M226.279 58.4323H232.014V52.6973H237.749V46.9623H243.484V41.2273H249.219V35.4923H254.954V29.7573H260.689V24.0223H266.424V35.4923H260.689V41.2273H254.954V46.9623H249.219V52.6973H243.484V58.4323H237.749V64.1673H232.014V69.9023H226.279V58.4323Z" fill="#90F8FF"/>
<path id="/_4" d="M231.756 58.4323H237.491V52.6973H243.226V46.9623H248.961V41.2273H254.696V35.4923H260.431V29.7573H266.166V24.0223H271.901V35.4923H266.166V41.2273H260.431V46.9623H254.696V52.6973H248.961V58.4323H243.226V64.1673H237.491V69.9023H231.756V58.4323Z" fill="white"/>
</g>
<g id="&#60;_5">
<path id="&#60;_6" d="M319.616 40.7292H313.761V34.875H307.907V29.0208H302.053V23.1667H296.199V17.3125H284.491V23.1667H290.345V29.0208H296.199V34.875L302.053 34.875V40.7292H307.907V46.5833H302.053V52.4375L296.199 52.4375V58.2917H290.345V64.1458H284.491V70H296.199V64.1458H302.053V58.2917H307.907V52.4375H313.761V46.5833H319.616V40.7292Z" fill="#90F8FF"/>
<path id="&#60;_7" d="M331.166 40.7292H325.312V34.875H319.458V29.0208H313.604V23.1667H307.75V17.3125H296.041V23.1667H301.896V29.0208H307.75V34.875L313.604 34.875V40.7292H319.458V46.5833H313.604V52.4375L307.75 52.4375V58.2917H301.896V64.1458H296.041V70H307.75V64.1458H313.604V58.2917H319.458V52.4375H325.312V46.5833H331.166V40.7292Z" fill="#CA5FFF"/>
<path id="&#60;_8" d="M325.878 40.7292H320.024V34.875H314.17V29.0208H308.316V23.1667H302.462V17.3125H290.753V23.1667H296.607V29.0208H302.462V34.875L308.316 34.875V40.7292H314.17V46.5833H308.316V52.4375L302.462 52.4375V58.2917H296.607V64.1458H290.753V70H302.462V64.1458H308.316V58.2917H314.17V52.4375H320.024V46.5833H325.878V40.7292Z" fill="white"/>
</g>
</g>
<g id="Group_2">
<g id="Group_3">
<path id="Vector" d="M30.7197 19.7129H24.4141V26.0185H30.7197V19.7129Z" fill="white"/>
<path id="Vector_2" d="M31.1184 26.4172H24.0049V19.3037H31.1184V26.4172ZM24.8128 25.6199H30.321V20.1116H24.8128V25.6199Z" fill="white"/>
</g>
<g id="Group_4">
<path id="Vector_3" d="M24.6875 26.0391H18.3818V32.3447H24.6875V26.0391Z" fill="white"/>
<path id="Vector_4" d="M25.0862 32.7444H17.9727V25.6309H25.0862V32.7444ZM18.7805 31.947H24.2888V26.4388H18.7805V31.947Z" fill="white"/>
</g>
<g id="Group_5">
<path id="Vector_5" d="M12.7578 51.2617H6.45215V57.5674H12.7578V51.2617Z" fill="white"/>
<path id="Vector_6" d="M13.1565 57.9768H6.04297V50.8633H13.1565V57.9768ZM6.85085 57.1794H12.3591V51.6711H6.85085V57.1794Z" fill="white"/>
</g>
<g id="Group_6">
<path id="Vector_7" d="M18.79 57.5889H12.4844V63.8945H18.79V57.5889Z" fill="white"/>
<path id="Vector_8" d="M19.1897 64.304H12.0762V57.1904H19.1897V64.304ZM12.8841 63.5066H18.3923V57.9983H12.8841V63.5066Z" fill="white"/>
</g>
<g id="Group_7">
<path id="Vector_9" d="M24.7927 63.9258H18.4766V70.2314H24.415V76.5266H30.7206V70.2209H24.7927V63.9258Z" fill="white"/>
<path id="Vector_10" d="M31.1193 76.9253H24.0058V70.6301H18.0674V63.5166H25.1809V69.8118H31.1193V76.9253ZM24.8137 76.1279H30.3219V70.6196H24.8137V76.1279ZM18.8753 69.8327H24.3835V64.3245H18.8753V69.8327Z" fill="white"/>
</g>
<g id="Group_8">
<path id="Vector_11" d="M6.71482 44.967H12.7582V38.6718H18.6861V32.3662H12.3805V38.6614H6.45252V44.9565H0.40918V51.2621H6.71482V44.967Z" fill="white"/>
<path id="Vector_12" d="M7.11352 51.6609H0V44.5473H6.04334V38.2522H11.9818V31.957H19.0953V39.0706H13.1569V45.3657H7.11352V51.6609ZM0.807878 50.8635H6.31614V45.3552H0.807878V50.8635ZM6.85122 44.5683H12.3595V39.0601H6.85122V44.5683ZM12.7896 38.2732H18.2979V32.7649H12.7896V38.2732Z" fill="white"/>
</g>
<g id="Group_9">
<path id="Vector_13" d="M313.026 7.10156H307.266H306.721H43.3315H40.7295H37.0259V13.3757H30.7412V19.6919H37.0469V13.4072H40.7295H43.3315H306.721H307.266H312.953V19.6919H319.259V13.3757H313.026V7.10156Z" fill="white"/>
<path id="Vector_14" d="M319.658 20.0906H312.544V13.8059H37.4563V20.0906H30.3428V12.977H36.6274V6.69238H313.425V12.977H319.658V20.0906ZM313.352 19.2932H318.86V13.7849H313.352V19.2932ZM31.1506 19.2932H36.6589V13.7849H31.1506V19.2932ZM37.4353 13.0085H312.628V7.50025H37.4248V13.0085H37.4353Z" fill="white"/>
</g>
<g id="Group_10">
<path id="Vector_15" d="M325.586 19.7129H319.28V26.0185H325.586V19.7129Z" fill="white"/>
<path id="Vector_16" d="M325.985 26.4172H318.871V19.3037H325.985V26.4172ZM319.679 25.6199H325.187V20.1116H319.679V25.6199Z" fill="white"/>
</g>
<g id="Group_11">
<path id="Vector_17" d="M331.618 26.0391H325.312V32.3447H331.618V26.0391Z" fill="white"/>
<path id="Vector_18" d="M332.017 32.7444H324.903V25.6309H332.017V32.7444ZM325.711 31.947H331.219V26.4388H325.711V31.947Z" fill="white"/>
</g>
<g id="Group_12">
<path id="Vector_19" d="M343.547 51.2617H337.241V57.5674H343.547V51.2617Z" fill="white"/>
<path id="Vector_20" d="M343.956 57.9768H336.843V50.8633H343.956V57.9768ZM337.651 57.1794H343.159V51.6711H337.651V57.1794Z" fill="white"/>
</g>
<g id="Group_13">
<path id="Vector_21" d="M337.515 57.5889H331.209V63.8945H337.515V57.5889Z" fill="white"/>
<path id="Vector_22" d="M337.913 64.304H330.8V57.1904H337.913V64.304ZM331.608 63.5066H337.116V57.9983H331.608V63.5066Z" fill="white"/>
</g>
<g id="Group_14">
<path id="Vector_23" d="M325.208 70.2209H319.28V76.5266H325.586V70.2314H331.514V63.9258H325.208V70.2209Z" fill="white"/>
<path id="Vector_24" d="M325.985 76.9253H318.871V69.8118H324.81V63.5166H331.923V70.6301H325.985V76.9253ZM319.679 76.1279H325.187V70.6196H319.679V76.1279ZM325.617 69.8327H331.126V64.3245H325.617V69.8327Z" fill="white"/>
</g>
<g id="Group_15">
<path id="Vector_25" d="M319.258 76.5156H312.952V82.8213H319.258V76.5156Z" fill="white"/>
<path id="Vector_26" d="M319.656 83.2307H312.543V76.1172H319.656V83.2307ZM313.351 82.4333H318.859V76.9251H313.351V82.4333Z" fill="white"/>
</g>
<g id="Group_16">
<path id="Vector_27" d="M343.547 44.9565V38.6614H337.619V32.3662H331.313V38.6718H337.241V44.967H343.285V51.2621H349.59V44.9565H343.547Z" fill="white"/>
<path id="Vector_28" d="M350 51.6609H342.886V45.3657H336.843V39.0706H330.904V31.957H338.018V38.2522H343.956V44.5473H350V51.6609ZM343.694 50.8635H349.202V45.3552H343.694V50.8635ZM337.651 44.5683H343.159V39.0601H337.651V44.5683ZM331.712 38.2732H337.22V32.7649H331.712V38.2732Z" fill="white"/>
</g>
<g id="Group_17">
<path id="Vector_29" d="M307.266 82.8328H43.3525H40.7295H37.0469V76.5166H30.7412V82.8328H37.0469V89.1384H40.7295H43.3525H306.626V89.1489H312.932V82.8432H307.266V82.8328Z" fill="white"/>
<path id="Vector_30" d="M313.331 89.5476L36.6379 89.5266V83.2209H30.3428V76.1074H37.4563V82.413L313.341 82.434V89.5476H313.331ZM307.025 88.7502H312.533V83.2419L37.4458 83.2209V88.7292L307.025 88.7502ZM31.1402 82.4235H36.6484V76.9153H31.1402V82.4235Z" fill="white"/>
</g>
</g>
<path id="Vector_31" d="M313.331 86.7998H36.6484V89.6956H313.331V86.7998Z" fill="#101927"/>
<path id="Vector_32" d="M319.962 6.52539H30.584V9.4841H319.962V6.52539Z" fill="#101927"/>
</g>
</g>
</g>
</svg>
