<svg width="252" height="57" viewBox="0 0 252 57" fill="none" xmlns="http://www.w3.org/2000/svg">
<g id="&#236;&#151;&#176;&#234;&#184;&#176;">
<path id="Vector" d="M81.9219 0H88.2275V6.30564H81.9219V0Z" fill="#D1D2D4"/>
<path id="Vector_2" d="M75.5947 0H81.9004V6.30564H75.5947V0Z" fill="white"/>
<path id="Vector_3" d="M94.3438 0H100.649V6.30564H94.3438V0Z" fill="#D1D2D4"/>
<path id="Vector_4" d="M81.9219 6.32617H88.2275V12.6318H81.9219V6.32617Z" fill="#D1D2D4"/>
<path id="Vector_5" d="M75.5947 6.32617H81.9004V12.6318H75.5947V6.32617Z" fill="#D1D2D4"/>
<path id="Vector_6" d="M69.2676 6.32617H75.5732V12.6318H69.2676V6.32617Z" fill="white"/>
<path id="Vector_7" d="M88.1328 6.32617H94.4385V12.6318H88.1328V6.32617Z" fill="#D1D2D4"/>
<path id="Vector_8" d="M94.3438 6.32617H100.649V12.6318H94.3438V6.32617Z" fill="#D1D2D4"/>
<path id="Vector_9" d="M81.9219 12.6533H88.2275V18.959H81.9219V12.6533Z" fill="#D1D2D4"/>
<path id="Vector_10" d="M75.5947 12.6533H81.9004V18.959H75.5947V12.6533Z" fill="#D1D2D4"/>
<path id="Vector_11" d="M69.2676 12.6533H75.5732V18.959H69.2676V12.6533Z" fill="#D1D2D4"/>
<path id="Vector_12" d="M62.9414 12.6533H69.2471V18.959H62.9414V12.6533Z" fill="white"/>
<path id="Vector_13" d="M88.1328 12.6533H94.4385V18.959H88.1328V12.6533Z" fill="#EAEAEA"/>
<path id="Vector_14" d="M94.3438 12.6533H100.649V18.959H94.3438V12.6533Z" fill="#D1D2D4"/>
<path id="Vector_15" d="M100.555 12.6533H106.86V18.959H100.555V12.6533Z" fill="#D1D2D4"/>
<path id="Vector_16" d="M112.978 12.6533H119.283V18.959H112.978V12.6533Z" fill="#D1D2D4"/>
<path id="Vector_17" d="M119.189 12.6533H125.494V18.959H119.189V12.6533Z" fill="#D1D2D4"/>
<path id="Vector_18" d="M125.399 12.6533H131.705V18.959H125.399V12.6533Z" fill="#D1D2D4"/>
<path id="Vector_19" d="M131.61 12.6533H137.916V18.959H131.61V12.6533Z" fill="white"/>
<path id="Vector_20" d="M137.822 12.6533H144.128V18.959H137.822V12.6533Z" fill="white"/>
<path id="Vector_21" d="M144.034 12.6533H150.34V18.959H144.034V12.6533Z" fill="white"/>
<path id="Vector_22" d="M81.9219 18.9805H88.2275V25.2861H81.9219V18.9805Z" fill="#D1D2D4"/>
<path id="Vector_23" d="M75.5947 18.9805H81.9004V25.2861H75.5947V18.9805Z" fill="#BFBFBF"/>
<path id="Vector_24" d="M69.2676 18.9805H75.5732V25.2861H69.2676V18.9805Z" fill="#BFBFBF"/>
<path id="Vector_25" d="M62.9414 18.9805H69.2471V25.2861H62.9414V18.9805Z" fill="white"/>
<path id="Vector_26" d="M88.1328 18.9805H94.4385V25.2861H88.1328V18.9805Z" fill="#EAEAEA"/>
<path id="Vector_27" d="M94.3438 18.9805H100.649V25.2861H94.3438V18.9805Z" fill="#EAEAEA"/>
<path id="Vector_28" d="M100.555 18.9805H106.86V25.2861H100.555V18.9805Z" fill="#D1D2D4"/>
<path id="Vector_29" d="M100.555 7H106.86V13.3056H100.555V7Z" fill="white"/>
<path id="Vector_30" d="M106.766 18.9805H113.071V25.2861H106.766V18.9805Z" fill="#D1D2D4"/>
<path id="Vector_31" d="M106.766 7H113.071V13.3056H106.766V7Z" fill="white"/>
<path id="Vector_32" d="M106.766 13H113.071V19.3056H106.766V13Z" fill="white"/>
<path id="Vector_33" d="M112.978 18.9805H119.283V25.2861H112.978V18.9805Z" fill="#D1D2D4"/>
<path id="Vector_34" d="M112.978 7H119.283V13.3056H112.978V7Z" fill="white"/>
<path id="Vector_35" d="M113.471 0H119.471V7H113.471V0Z" fill="#D1D2D4"/>
<path id="Vector_36" d="M119.189 18.9805H125.494V25.2861H119.189V18.9805Z" fill="#D1D2D4"/>
<path id="Vector_37" d="M119.189 7H125.494V13.3056H119.189V7Z" fill="white"/>
<path id="Vector_38" d="M119.471 0H125.471V7H119.471V0Z" fill="white"/>
<path id="Vector_39" d="M125.399 18.9805H131.705V25.2861H125.399V18.9805Z" fill="#D1D2D4"/>
<path id="Vector_40" d="M125.399 7H131.705V13.3056H125.399V7Z" fill="white"/>
<path id="Vector_41" d="M131.61 18.9805H137.916V25.2861H131.61V18.9805Z" fill="#D1D2D4"/>
<path id="Vector_42" d="M137.822 18.9805H144.128V25.2861H137.822V18.9805Z" fill="#BFBFBF"/>
<path id="Vector_43" d="M144.034 18.9805H150.34V25.2861H144.034V18.9805Z" fill="#BFBFBF"/>
<path id="Vector_44" d="M150.359 18.9805H156.665V25.2861H150.359V18.9805Z" fill="white"/>
<path id="Vector_45" d="M81.9219 25.3057H88.2275V31.6113H81.9219V25.3057Z" fill="#BFBFBF"/>
<path id="Vector_46" d="M75.5947 25.3057H81.9004V31.6113H75.5947V25.3057Z" fill="#D1D2D4"/>
<path id="Vector_47" d="M69.2676 25.3057H75.5732V31.6113H69.2676V25.3057Z" fill="#D1D2D4"/>
<path id="Vector_48" d="M62.9414 25.3057H69.2471V31.6113H62.9414V25.3057Z" fill="#D1D2D4"/>
<path id="Vector_49" d="M56.7305 25.3057H63.0361V31.6113H56.7305V25.3057Z" fill="white"/>
<path id="Vector_50" d="M50.5195 25.3057H56.8252V31.6113H50.5195V25.3057Z" fill="white"/>
<path id="Vector_51" d="M88.1328 25.3057H94.4385V31.6113H88.1328V25.3057Z" fill="#D1D2D4"/>
<path id="Vector_52" d="M94.3438 25.3057H100.649V31.6113H94.3438V25.3057Z" fill="#D1D2D4"/>
<path id="Vector_53" d="M100.555 25.3057H106.86V31.6113H100.555V25.3057Z" fill="#EAEAEA"/>
<path id="Vector_54" d="M106.766 25.3057H113.071V31.6113H106.766V25.3057Z" fill="#D1D2D4"/>
<path id="Vector_55" d="M112.978 25.3057H119.283V31.6113H112.978V25.3057Z" fill="#D1D2D4"/>
<path id="Vector_56" d="M119.189 25.3057H125.494V31.6113H119.189V25.3057Z" fill="#D1D2D4"/>
<path id="Vector_57" d="M125.399 25.3057H131.705V31.6113H125.399V25.3057Z" fill="#D1D2D4"/>
<path id="Vector_58" d="M131.61 25.3057H137.916V31.6113H131.61V25.3057Z" fill="#BFBFBF"/>
<path id="Vector_59" d="M137.822 25.3057H144.128V31.6113H137.822V25.3057Z" fill="#D1D2D4"/>
<path id="Vector_60" d="M144.034 25.3057H150.34V31.6113H144.034V25.3057Z" fill="#D1D2D4"/>
<path id="Vector_61" d="M150.359 25.3057H156.665V31.6113H150.359V25.3057Z" fill="white"/>
<path id="Vector_62" d="M81.9219 31.6123H88.2275V37.918H81.9219V31.6123Z" fill="#D1D2D4"/>
<path id="Vector_63" d="M75.5947 31.6123H81.9004V37.918H75.5947V31.6123Z" fill="#D1D2D4"/>
<path id="Vector_64" d="M69.2676 31.6123H75.5732V37.918H69.2676V31.6123Z" fill="#D1D2D4"/>
<path id="Vector_65" d="M62.9414 31.6123H69.2471V37.918H62.9414V31.6123Z" fill="#D1D2D4"/>
<path id="Vector_66" d="M56.7305 31.6123H63.0361V37.918H56.7305V31.6123Z" fill="#BFBFBF"/>
<path id="Vector_67" d="M50.5195 31.6123H56.8252V37.918H50.5195V31.6123Z" fill="#D1D2D4"/>
<path id="Vector_68" d="M44.1924 31.6123H50.498V37.918H44.1924V31.6123Z" fill="white"/>
<path id="Vector_69" d="M88.1328 31.6123H94.4385V37.918H88.1328V31.6123Z" fill="#D1D2D4"/>
<path id="Vector_70" d="M94.3438 31.6123H100.649V37.918H94.3438V31.6123Z" fill="#D1D2D4"/>
<path id="Vector_71" d="M100.555 31.6123H106.86V37.918H100.555V31.6123Z" fill="#D1D2D4"/>
<path id="Vector_72" d="M106.766 31.6123H113.071V37.918H106.766V31.6123Z" fill="#D1D2D4"/>
<path id="Vector_73" d="M112.978 31.6123H119.283V37.918H112.978V31.6123Z" fill="#AFAFAF"/>
<path id="Vector_74" d="M119.189 31.6123H125.494V37.918H119.189V31.6123Z" fill="#D1D2D4"/>
<path id="Vector_75" d="M125.399 31.6123H131.705V37.918H125.399V31.6123Z" fill="#D1D2D4"/>
<path id="Vector_76" d="M131.61 31.6123H137.916V37.918H131.61V31.6123Z" fill="#D1D2D4"/>
<path id="Vector_77" d="M137.822 31.6123H144.128V37.918H137.822V31.6123Z" fill="#D1D2D4"/>
<path id="Vector_78" d="M144.034 31.6123H150.34V37.918H144.034V31.6123Z" fill="#D1D2D4"/>
<path id="Vector_79" d="M150.359 31.6123H156.665V37.918H150.359V31.6123Z" fill="#BFBFBF"/>
<path id="Vector_80" d="M156.687 31.6123H162.992V37.918H156.687V31.6123Z" fill="white"/>
<path id="Vector_81" d="M169.329 31.6123H175.635V37.918H169.329V31.6123Z" fill="#D1D2D4"/>
<path id="Vector_82" d="M81.9219 37.9277H88.2275V44.2334H81.9219V37.9277Z" fill="#D1D2D4"/>
<path id="Vector_83" d="M75.5947 37.9277H81.9004V44.2334H75.5947V37.9277Z" fill="#D1D2D4"/>
<path id="Vector_84" d="M69.2676 37.9277H75.5732V44.2334H69.2676V37.9277Z" fill="#D1D2D4"/>
<path id="Vector_85" d="M62.9414 37.9277H69.2471V44.2334H62.9414V37.9277Z" fill="#D1D2D4"/>
<path id="Vector_86" d="M56.7305 37.9277H63.0361V44.2334H56.7305V37.9277Z" fill="#D1D2D4"/>
<path id="Vector_87" d="M50.5195 37.9277H56.8252V44.2334H50.5195V37.9277Z" fill="#D1D2D4"/>
<path id="Vector_88" d="M44.1924 37.9277H50.498V44.2334H44.1924V37.9277Z" fill="#D1D2D4"/>
<path id="Vector_89" d="M37.876 37.9277H44.1816V44.2334H37.876V37.9277Z" fill="white"/>
<path id="Vector_90" d="M31.5606 25.3057H37.8662V31.6113H31.5606V25.3057Z" fill="#D1D2D4"/>
<path id="Vector_91" d="M88.1328 37.9277H94.4385V44.2334H88.1328V37.9277Z" fill="#D1D2D4"/>
<path id="Vector_92" d="M94.3438 37.9277H100.649V44.2334H94.3438V37.9277Z" fill="#AFAFAF"/>
<path id="Vector_93" d="M100.555 37.9277H106.86V44.2334H100.555V37.9277Z" fill="#AFAFAF"/>
<path id="Vector_94" d="M106.766 37.9277H113.071V44.2334H106.766V37.9277Z" fill="#D1D2D4"/>
<path id="Vector_95" d="M112.978 37.9277H119.283V44.2334H112.978V37.9277Z" fill="#D1D2D4"/>
<path id="Vector_96" d="M119.189 37.9277H125.494V44.2334H119.189V37.9277Z" fill="#AFAFAF"/>
<path id="Vector_97" d="M125.399 37.9277H131.705V44.2334H125.399V37.9277Z" fill="#D1D2D4"/>
<path id="Vector_98" d="M131.61 37.9277H137.916V44.2334H131.61V37.9277Z" fill="#D1D2D4"/>
<path id="Vector_99" d="M137.822 37.9277H144.128V44.2334H137.822V37.9277Z" fill="#EAEAEA"/>
<path id="Vector_100" d="M144.034 37.9277H150.34V44.2334H144.034V37.9277Z" fill="#EAEAEA"/>
<path id="Vector_101" d="M150.359 37.9277H156.665V44.2334H150.359V37.9277Z" fill="#D1D2D4"/>
<path id="Vector_102" d="M156.687 37.9277H162.992V44.2334H156.687V37.9277Z" fill="#D1D2D4"/>
<path id="Vector_103" d="M163.003 37.9277H169.309V44.2334H163.003V37.9277Z" fill="white"/>
<path id="Vector_104" d="M175.656 37.9277H181.962V44.2334H175.656V37.9277Z" fill="white"/>
<path id="Vector_105" d="M81.9219 44.2549H88.2275V50.5605H81.9219V44.2549Z" fill="#BFBFBF"/>
<path id="Vector_106" d="M75.5947 44.2549H81.9004V50.5605H75.5947V44.2549Z" fill="#D1D2D4"/>
<path id="Vector_107" d="M69.2676 44.2549H75.5732V50.5605H69.2676V44.2549Z" fill="#D1D2D4"/>
<path id="Vector_108" d="M62.9414 44.2549H69.2471V50.5605H62.9414V44.2549Z" fill="#D1D2D4"/>
<path id="Vector_109" d="M56.7305 44.2549H63.0361V50.5605H56.7305V44.2549Z" fill="#BFBFBF"/>
<path id="Vector_110" d="M50.5195 44.2549H56.8252V50.5605H50.5195V44.2549Z" fill="#D1D2D4"/>
<path id="Vector_111" d="M44.1924 44.2549H50.498V50.5605H44.1924V44.2549Z" fill="#D1D2D4"/>
<path id="Vector_112" d="M37.876 44.2549H44.1816V50.5605H37.876V44.2549Z" fill="white"/>
<path id="Vector_113" d="M88.1328 44.2549H94.4385V50.5605H88.1328V44.2549Z" fill="#AFAFAF"/>
<path id="Vector_114" d="M94.3438 44.2549H100.649V50.5605H94.3438V44.2549Z" fill="#D1D2D4"/>
<path id="Vector_115" d="M100.555 44.2549H106.86V50.5605H100.555V44.2549Z" fill="#BFBFBF"/>
<path id="Vector_116" d="M106.766 44.2549H113.071V50.5605H106.766V44.2549Z" fill="#D1D2D4"/>
<path id="Vector_117" d="M112.978 44.2549H119.283V50.5605H112.978V44.2549Z" fill="#D1D2D4"/>
<path id="Vector_118" d="M119.189 44.2549H125.494V50.5605H119.189V44.2549Z" fill="#D1D2D4"/>
<path id="Vector_119" d="M125.399 44.2549H131.705V50.5605H125.399V44.2549Z" fill="#AFAFAF"/>
<path id="Vector_120" d="M131.61 44.2549H137.916V50.5605H131.61V44.2549Z" fill="#D1D2D4"/>
<path id="Vector_121" d="M137.822 44.2549H144.128V50.5605H137.822V44.2549Z" fill="#D1D2D4"/>
<path id="Vector_122" d="M144.034 44.2549H150.34V50.5605H144.034V44.2549Z" fill="#D1D2D4"/>
<path id="Vector_123" d="M150.359 44.2549H156.665V50.5605H150.359V44.2549Z" fill="#EAEAEA"/>
<path id="Vector_124" d="M156.687 44.2549H162.992V50.5605H156.687V44.2549Z" fill="#EAEAEA"/>
<path id="Vector_125" d="M163.003 44.2549H169.309V50.5605H163.003V44.2549Z" fill="#D1D2D4"/>
<path id="Vector_126" d="M169.329 44.2549H175.635V50.5605H169.329V44.2549Z" fill="white"/>
<path id="Vector_127" d="M175.656 44.2549H181.962V50.5605H175.656V44.2549Z" fill="#D1D2D4"/>
<path id="Vector_128" d="M181.983 44.2549H188.289V50.5605H181.983V44.2549Z" fill="#BFBFBF"/>
<path id="Vector_129" d="M81.9219 50.582H88.2275V56.8877H81.9219V50.582Z" fill="#D1D2D4"/>
<path id="Vector_130" d="M75.5947 50.582H81.9004V56.8877H75.5947V50.582Z" fill="#D1D2D4"/>
<path id="Vector_131" d="M69.2676 50.582H75.5732V56.8877H69.2676V50.582Z" fill="#D1D2D4"/>
<path id="Vector_132" d="M62.9414 50.582H69.2471V56.8877H62.9414V50.582Z" fill="#D1D2D4"/>
<path id="Vector_133" d="M56.7305 50.582H63.0361V56.8877H56.7305V50.582Z" fill="#D1D2D4"/>
<path id="Vector_134" d="M50.5195 50.582H56.8252V56.8877H50.5195V50.582Z" fill="#BFBFBF"/>
<path id="Vector_135" d="M44.1924 50.582H50.498V56.8877H44.1924V50.582Z" fill="#BFBFBF"/>
<path id="Vector_136" d="M37.876 50.582H44.1816V56.8877H37.876V50.582Z" fill="#D1D2D4"/>
<path id="Vector_137" d="M31.5498 50.582H37.8555V56.8877H31.5498V50.582Z" fill="white"/>
<path id="Vector_138" d="M88.1328 50.582H94.4385V56.8877H88.1328V50.582Z" fill="#BFBFBF"/>
<path id="Vector_139" d="M94.3438 50.582H100.649V56.8877H94.3438V50.582Z" fill="#D1D2D4"/>
<path id="Vector_140" d="M100.555 50.582H106.86V56.8877H100.555V50.582Z" fill="#D1D2D4"/>
<path id="Vector_141" d="M106.766 50.582H113.071V56.8877H106.766V50.582Z" fill="#D1D2D4"/>
<path id="Vector_142" d="M112.978 50.582H119.283V56.8877H112.978V50.582Z" fill="#D1D2D4"/>
<path id="Vector_143" d="M119.189 50.582H125.494V56.8877H119.189V50.582Z" fill="#D1D2D4"/>
<path id="Vector_144" d="M125.399 50.582H131.705V56.8877H125.399V50.582Z" fill="#AFAFAF"/>
<path id="Vector_145" d="M131.61 50.582H137.916V56.8877H131.61V50.582Z" fill="#D1D2D4"/>
<path id="Vector_146" d="M137.822 50.582H144.128V56.8877H137.822V50.582Z" fill="#D1D2D4"/>
<path id="Vector_147" d="M144.034 50.582H150.34V56.8877H144.034V50.582Z" fill="#D1D2D4"/>
<path id="Vector_148" d="M150.359 50.582H156.665V56.8877H150.359V50.582Z" fill="#D1D2D4"/>
<path id="Vector_149" d="M156.687 50.582H162.992V56.8877H156.687V50.582Z" fill="#D1D2D4"/>
<path id="Vector_150" d="M163.003 50.582H169.309V56.8877H163.003V50.582Z" fill="#D1D2D4"/>
<path id="Vector_151" d="M169.329 50.582H175.635V56.8877H169.329V50.582Z" fill="#D1D2D4"/>
<path id="Vector_152" d="M175.656 50.582H181.962V56.8877H175.656V50.582Z" fill="#BFBFBF"/>
<path id="Vector_153" d="M181.983 50.582H188.289V56.8877H181.983V50.582Z" fill="#D1D2D4"/>
<path id="Vector_154" d="M188.278 44.2549H194.584V50.5605H188.278V44.2549Z" fill="white"/>
<path id="Vector_155" d="M194.605 44.2549H200.91V50.5605H194.605V44.2549Z" fill="white"/>
<path id="Vector_156" d="M200.921 44.2549H207.227V50.5605H200.921V44.2549Z" fill="#D1D2D4"/>
<path id="Vector_157" d="M207.248 44.2549H213.554V50.5605H207.248V44.2549Z" fill="#D1D2D4"/>
<path id="Vector_158" d="M213.573 44.2549H219.879V50.5605H213.573V44.2549Z" fill="#BFBFBF"/>
<path id="Vector_159" d="M188.278 50.582H194.584V56.8877H188.278V50.582Z" fill="#D1D2D4"/>
<path id="Vector_160" d="M194.605 50.582H200.91V56.8877H194.605V50.582Z" fill="#D1D2D4"/>
<path id="Vector_161" d="M200.921 50.582H207.227V56.8877H200.921V50.582Z" fill="#D1D2D4"/>
<path id="Vector_162" d="M207.248 50.582H213.554V56.8877H207.248V50.582Z" fill="#D1D2D4"/>
<path id="Vector_163" d="M213.573 50.582H219.879V56.8877H213.573V50.582Z" fill="#D1D2D4"/>
<path id="Vector_164" d="M219.88 44.2549H226.186V50.5605H219.88V44.2549Z" fill="white"/>
<path id="Vector_165" d="M219.88 50.582H226.186V56.8877H219.88V50.582Z" fill="#BFBFBF"/>
<path id="Vector_166" d="M238.838 44.2549H245.144V50.5605H238.838V44.2549Z" fill="white"/>
<path id="Vector_167" d="M181.983 37.9277H188.289V44.2334H181.983V37.9277Z" fill="white"/>
<path id="Vector_168" d="M200.921 37.9277H207.227V44.2334H200.921V37.9277Z" fill="white"/>
<path id="Vector_169" d="M207.248 37.9277H213.554V44.2334H207.248V37.9277Z" fill="#D1D2D4"/>
<path id="Vector_170" d="M213.573 37.9277H219.879V44.2334H213.573V37.9277Z" fill="#BFBFBF"/>
<path id="Vector_171" d="M219.88 37.9277H226.186V44.2334H219.88V37.9277Z" fill="white"/>
<path id="Vector_172" d="M232.522 37.9277H238.828V44.2334H232.522V37.9277Z" fill="#D1D2D4"/>
<path id="Vector_173" d="M245.165 37.9277H251.471V44.2334H245.165V37.9277Z" fill="#D1D2D4"/>
<path id="Vector_174" d="M188.278 31.6123H194.584V37.918H188.278V31.6123Z" fill="#D1D2D4"/>
<path id="Vector_175" d="M194.605 25.4951H200.91V31.8008H194.605V25.4951Z" fill="#D1D2D4"/>
<path id="Vector_176" d="M207.248 31.6123H213.554V37.918H207.248V31.6123Z" fill="white"/>
<path id="Vector_177" d="M213.573 31.6123H219.879V37.918H213.573V31.6123Z" fill="white"/>
<path id="Vector_178" d="M226.195 31.6123H232.501V37.918H226.195V31.6123Z" fill="#D1D2D4"/>
<path id="Vector_179" d="M232.522 31.6123H238.828V37.918H232.522V31.6123Z" fill="#D1D2D4"/>
<path id="Vector_180" d="M226.195 50.582H232.501V56.8877H226.195V50.582Z" fill="white"/>
<path id="Vector_181" d="M232.522 50.582H238.828V56.8877H232.522V50.582Z" fill="white"/>
<path id="Vector_182" d="M238.838 50.582H245.144V56.8877H238.838V50.582Z" fill="#D1D2D4"/>
<path id="Vector_183" d="M245.165 50.582H251.471V56.8877H245.165V50.582Z" fill="white"/>
<path id="Vector_184" d="M18.9698 44.2549H25.2754V50.5605H18.9698V44.2549Z" fill="white"/>
<path id="Vector_185" d="M12.5586 37.9697H18.8643V44.2754H12.5586V37.9697Z" fill="#D1D2D4"/>
<path id="Vector_186" d="M6.23243 31.623H12.5381V37.9287H6.23243V31.623Z" fill="#D1D2D4"/>
<path id="Vector_187" d="M25.2969 44.2549H31.6025V50.5605H25.2969V44.2549Z" fill="white"/>
<path id="Vector_188" d="M6.32716 50.582H12.6328V56.8877H6.32716V50.582Z" fill="white"/>
<path id="Vector_189" d="M8.58307e-06 44.2549H6.30566V50.5605H8.58307e-06V44.2549Z" fill="white"/>
<path id="Vector_190" d="M12.6426 50.582H18.9482V56.8877H12.6426V50.582Z" fill="white"/>
<path id="Vector_191" d="M18.9698 50.582H25.2754V56.8877H18.9698V50.582Z" fill="#D1D2D4"/>
<path id="Vector_192" d="M25.2969 50.582H31.6025V56.8877H25.2969V50.582Z" fill="#D1D2D4"/>
</g>
</svg>
