<svg width="286" height="535" viewBox="0 0 286 535" fill="none" xmlns="http://www.w3.org/2000/svg">
<path fill-rule="evenodd" clip-rule="evenodd" d="M178.456 186C213.379 171.797 238 137.524 238 97.5C238 44.7568 195.243 2 142.5 2C89.7568 2 47 44.7568 47 97.5C47 137.524 71.6214 171.797 106.544 186H2V533H284V186H178.456Z" fill="#D9D9D9"/>
<path d="M178.456 186L177.702 184.147L178.456 188V186ZM106.544 186V188L107.298 184.147L106.544 186ZM2 186V184H0V186H2ZM2 533H0V535H2V533ZM284 533V535H286V533H284ZM284 186H286V184H284V186ZM236 97.5C236 136.683 211.898 170.241 177.702 184.147L179.209 187.853C214.86 173.354 240 138.365 240 97.5H236ZM142.5 4C194.139 4 236 45.8614 236 97.5H240C240 43.6522 196.348 0 142.5 0V4ZM49 97.5C49 45.8614 90.8614 4 142.5 4V0C88.6522 0 45 43.6522 45 97.5H49ZM107.298 184.147C73.1025 170.241 49 136.683 49 97.5H45C45 138.365 70.1403 173.354 105.791 187.853L107.298 184.147ZM2 188H106.544V184H2V188ZM4 533V186H0V533H4ZM284 531H2V535H284V531ZM282 186V533H286V186H282ZM178.456 188H284V184H178.456V188Z" fill="black"/>
</svg>
