<svg width="27" height="24" viewBox="0 0 27 24" fill="none" xmlns="http://www.w3.org/2000/svg">
<path d="M19.2371 23.1589V22.5995H17.4876V21.3556H16.1652V19.6525H13.9885V18.225H12.3458V19.6525H9.98841V21.3556H8.66599V22.5995H6.91645V23.1088H5.52832V20.1952H6.25935V17.8994H6.98216V15.7288H7.75426V14.0592H5.79116V12.6316H3.67201V11.3626H1.79926V10.102H0.411133V8.70787H1.17501V8.46577H8.23887V7.92313H9.47094V5.97796H10.4648V4.0328H11.4669V2.08764H12.2226V0.417969H13.8489V2.08764H14.6867V4.0328H15.6641V5.74421L15.6723 5.97796H16.6826V7.92313H17.9147V8.3155H24.9786V8.70787H25.7424V10.102H24.3543V11.3626H22.4816V12.6316H20.3624V14.0592H18.3993V15.7288H18.7279V15.7539H19.1714V17.8994H19.8942V20.1952H20.617V23.1589H19.2371Z" fill="#F7C85A"/>
<path d="M13.4295 0.834834V2.5045H14.2673V4.44967H15.2448V6.16108H15.2612V6.39483H16.2633V8.33999H17.4954V8.74071H24.5592V9.13309H25.3231V9.69242H23.935V10.953H22.0622V12.222H19.9431V13.6495H17.98V16.154H18.3085V16.1707H18.7521V18.3163H19.4749V20.6121H20.1977V22.7409H19.6309V22.1815H17.8814V20.9376H16.559V19.2346H14.3823V17.807H11.9182V19.2346H9.56085V20.9376H8.23843V22.1815H6.48889V22.6908H5.92214V20.6121H6.64495V18.3163H7.36777V16.1457H8.13165V13.6412H6.16855V12.2136H4.0494V10.9447H2.20951V9.68408H0.821379V9.12474H1.58526V8.88264H8.64912V8.33165H9.88118V6.38648H10.8833V4.44132H11.8853V2.5045H12.641V0.834834H13.446M14.2673 0H11.8196V1.66967H11.064V3.61483H10.0619V5.56H9.0598V7.50516H7.82774V8.05615H0.763882V8.29825H0V10.5273H1.38813V11.7879H3.26087V13.0568H5.38003V14.4844H7.34312V15.3192H6.57924V17.4898H5.85643V19.7856H5.13362V23.534H7.34312V23.0247H9.09266V21.7808H10.4151V20.0778H12.7724V18.6502H13.5938V20.0778H15.7705V21.7808H17.0929V23.0247H18.8424V23.5841H21.0519V19.7856H20.3291V17.4898H19.6063V15.3443H18.8424V14.4927H20.8055V13.0652H22.9247V11.7962H24.7974V10.5356H26.1855V8.3066H25.4217V7.91423H18.3578V7.51351H17.1257V5.56834H16.1237V5.33459H16.1072V3.62318H15.1298V1.66967H14.292V0H14.2673Z" fill="white"/>
<path d="M22.5626 9.48438H16.9443V10.1439H22.5626V9.48438Z" fill="white"/>
<path d="M15.6879 7.73047H14.8994V8.45677H15.6879V7.73047Z" fill="white"/>
<path d="M14.8432 6.22852H14.0547V6.95482H14.8432V6.22852Z" fill="white"/>
</svg>
