<svg width="98" height="101" viewBox="0 0 98 101" fill="none" xmlns="http://www.w3.org/2000/svg">
<mask id="path-1-inside-1_650_367" fill="white">
<path fill-rule="evenodd" clip-rule="evenodd" d="M7.88246 0H89.1325V7.88246H97.0149V89.1325H89.1325V97.0149H7.88246V89.1325H0V7.88246H7.88246V0Z"/>
</mask>
<path fill-rule="evenodd" clip-rule="evenodd" d="M7.88246 0H89.1325V7.88246H97.0149V89.1325H89.1325V97.0149H7.88246V89.1325H0V7.88246H7.88246V0Z" fill="#F4DE50"/>
<path d="M89.1325 0H92.1325V-3H89.1325V0ZM7.88246 0V-3H4.88246V0H7.88246ZM89.1325 7.88246H86.1325V10.8825H89.1325V7.88246ZM97.0149 7.88246H100.015V4.88246H97.0149V7.88246ZM97.0149 89.1325V92.1325H100.015V89.1325H97.0149ZM89.1325 89.1325V86.1325H86.1325V89.1325H89.1325ZM89.1325 97.0149V100.015H92.1325V97.0149H89.1325ZM7.88246 97.0149H4.88246V100.015H7.88246V97.0149ZM7.88246 89.1325H10.8825V86.1325H7.88246V89.1325ZM0 89.1325H-3V92.1325H0V89.1325ZM0 7.88246V4.88246H-3V7.88246H0ZM7.88246 7.88246V10.8825H10.8825V7.88246H7.88246ZM89.1325 -3H7.88246V3H89.1325V-3ZM92.1325 7.88246V0H86.1325V7.88246H92.1325ZM97.0149 4.88246H89.1325V10.8825H97.0149V4.88246ZM100.015 89.1325V7.88246H94.0149V89.1325H100.015ZM89.1325 92.1325H97.0149V86.1325H89.1325V92.1325ZM92.1325 97.0149V89.1325H86.1325V97.0149H92.1325ZM7.88246 100.015H89.1325V94.0149H7.88246V100.015ZM4.88246 89.1325V97.0149H10.8825V89.1325H4.88246ZM0 92.1325H7.88246V86.1325H0V92.1325ZM-3 7.88246V89.1325H3V7.88246H-3ZM7.88246 4.88246H0V10.8825H7.88246V4.88246ZM4.88246 0V7.88246H10.8825V0H4.88246Z" fill="white" mask="url(#path-1-inside-1_650_367)"/>
<path d="M10.6905 89.5859H21.9405V95.2109H33.1905V50.2109H27.5655V44.5859H50.0655V50.2109H44.4405V95.2109H38.8155V100.836H16.3155V95.2109H10.6905V89.5859ZM55.6905 50.2109H61.3155V44.5859H89.4405V50.2109H95.0655V55.8359H83.8155V50.2109H66.9405V67.0859H89.4405V72.7109H95.0655V95.2109H89.4405V100.836H61.3155V95.2109H55.6905V89.5859H66.9405V95.2109H83.8155V72.7109H61.3155V67.0859H55.6905V50.2109Z" fill="black"/>
</svg>
