<svg width="45" height="41" viewBox="0 0 45 41" fill="none" xmlns="http://www.w3.org/2000/svg">
<path d="M33.0581 40.0767V39.1052H30.0516V36.9446H27.779V33.9866H24.0384V31.5071H21.2153V33.9866H17.1642V36.9446H14.8916V39.1052H11.885V39.9897H9.49948V34.9291H10.7558V30.9415H11.9979V27.1715H13.3248V24.2715H9.95118V21.7919H6.30939V19.5879H3.09107V17.3984H0.705566V14.9768H2.0183V14.5563H14.1576V13.6138H16.2749V10.2353H17.9829V6.85671H19.7049V3.47816H21.0036V0.578125H23.7984V3.47816H25.2382V6.85671H26.9179V9.82925L26.932 10.2353H28.6682V13.6138H30.7856V14.2953H42.9248V14.9768H44.2376V17.3984H41.8521V19.5879H38.6337V21.7919H34.992V24.2715H31.6184V27.1715H32.183V27.215H32.9452V30.9415H34.1874V34.9291H35.4295V40.0767H33.0581Z" fill="#F7C85A"/>
<path d="M23.0787 1.30354V4.20358H24.5185V7.58212H26.1982V10.5547H26.2265V10.9607H27.9486V14.3392H30.0659V15.0352H42.2051V15.7167H43.5179V16.6882H41.1324V18.8778H37.9141V21.0818H34.2723V23.5613H30.8987V27.9114H31.4633V27.9404H32.2255V31.667H33.4677V35.6545H34.7099V39.3521H33.7359V38.3805H30.7293V36.22H28.4567V33.262H24.7161V30.7824H20.4815V33.262H16.4304V36.22H14.1578V38.3805H11.1512V39.2651H10.1772V35.6545H11.4194V31.667H12.6615V27.8969H13.9743V23.5468H10.6007V21.0673H6.95891V18.8633H3.79705V16.6737H1.41154V15.7022H2.72428V15.2817H14.8636V14.3247H16.9809V10.9462H18.7029V7.56762H20.425V4.20358H21.7237V1.30354H23.107M24.5185 -0.146484H20.3121V2.75356H19.0135V6.1321H17.2914V9.51065H15.5693V12.8892H13.452V13.8462H1.31274V14.2667H0V18.1383H2.38551V20.3278H5.60383V22.5318H9.24561V25.0114H12.6192V26.4614H11.3065V30.2314H10.0643V34.219H8.82215V40.7296H12.6192V39.8451H15.6258V37.6845H17.8984V34.7265H21.9495V32.247H23.361V34.7265H27.1016V37.6845H29.3742V39.8451H32.3808V40.8166H36.1779V34.219H34.9357V30.2314H33.6935V26.5049H32.3808V25.0259H35.7544V22.5463H39.3962V20.3423H42.6145V18.1528H45V14.2812H43.6873V13.5997H31.548V12.9037H29.4307V9.52515H27.7086V9.11914H27.6804V6.1466H26.0006V2.75356H24.5609V-0.146484H24.5185Z" fill="white"/>
</svg>
