<svg width="169" height="80" viewBox="0 0 169 80" fill="none" xmlns="http://www.w3.org/2000/svg">
<g clip-path="url(#clip0_650_333)">
<path d="M65.86 78.0083V76.1242H59.8702V71.9342H55.3427V66.1974H47.8906V61.3887H42.2663V66.1974H34.1955V71.9342H29.668V76.1242H23.6782V77.8396H18.9257V68.0253H21.4285V60.292H23.9032V52.9805H26.5466V47.3563H19.8256V42.5475H12.5704V38.2731H6.15873V34.0268H1.40625V29.3306H4.02152V28.5151H28.2057V26.6872H32.4239V20.135H35.8266V13.5827H39.2574V7.03049H41.8445V1.40625H47.4125V7.03049H50.2809V13.5827H53.6273V19.3476L53.6554 20.135H57.1143V26.6872H61.3325V28.0089H85.5167V29.3306H88.132V34.0268H83.3795V38.2731H76.9679V42.5475H69.7126V47.3563H62.9916V52.9805H64.1165V53.0649H65.635V60.292H68.1097V68.0253H70.5843V78.0083H65.86Z" fill="#F7C85A"/>
<path d="M45.9781 2.81212V8.43635H48.8465V14.9886H52.1929V20.7534H52.2491V21.5408H55.6799V28.0931H59.8981V29.4429H84.0823V30.7646H86.6976V32.6487H81.9451V36.895H75.5335V41.1694H68.2782V45.9781H61.5573V54.4145H62.6821V54.4707H64.2006V61.6979H66.6753V69.4312H69.15V76.6021H67.2096V74.718H61.2198V70.5279H56.6923V64.7912H49.2402V59.9825H40.8038V64.7912H32.7331V70.5279H28.2055V74.718H22.2157V76.4334H20.2754V69.4312H22.75V61.6979H25.2247V54.3864H27.84V45.95H21.119V41.1413H13.8637V36.8669H7.5646V32.6206H2.81212V30.7364H5.42739V29.9209H29.6116V28.0649H33.8298V21.5127H37.2606V14.9605H40.6913V8.43635H43.2785V2.81212H46.0344M48.8465 0H40.4664V5.62424H37.8792V12.1765H34.4484V18.7287H31.0177V25.2809H26.7995V27.1369H2.61527V27.9524H0V35.4608H4.75248V39.7071H11.1641V43.9815H18.4194V48.7902H25.1403V51.6024H22.5251V58.9139H20.0504V66.6472H17.5757V79.2736H25.1403V77.5582H31.1301V73.3681H35.6577V67.6314H43.7284V62.8227H46.5405V67.6314H53.9927V73.3681H58.5202V77.5582H64.51V79.4423H72.0746V66.6472H69.5999V58.9139H67.1253V51.6867H64.51V48.8184H71.2309V44.0096H78.4862V39.7352H84.8978V35.4889H89.6503V27.9806H87.035V26.6589H62.8508V25.3091H58.6327V18.7568H55.2019V17.9694H55.1456V12.2046H51.7992V5.62424H48.9308V0H48.8465Z" fill="white"/>
<path d="M77.249 31.9453H58.0142V34.1669H77.249V31.9453Z" fill="white"/>
<path d="M53.7114 26.04H51.0117V28.4866H53.7114V26.04Z" fill="white"/>
<path d="M50.8149 20.9785H48.1152V23.4251H50.8149V20.9785Z" fill="white"/>
</g>
<g clip-path="url(#clip1_650_333)">
<path d="M105.189 78.0083V76.1242H99.1993V71.9342H94.6718V66.1974H87.2197V61.3887H81.5954V66.1974H73.5246V71.9342H68.9971V76.1242H63.0073V77.8396H58.2548V68.0253H60.7576V60.292H63.2323V52.9805H65.8757V47.3563H59.1547V42.5475H51.8995V38.2731H45.4878V34.0268H40.7354V29.3306H43.3506V28.5151H67.5348V26.6872H71.753V20.135H75.1557V13.5827H78.5865V7.03049H81.1736V1.40625H86.7416V7.03049H89.61V13.5827H92.9564V19.3476L92.9845 20.135H96.4434V26.6872H100.662V28.0089H124.846V29.3306H127.461V34.0268H122.709V38.2731H116.297V42.5475H109.042V47.3563H102.321V52.9805H103.446V53.0649H104.964V60.292H107.439V68.0253H109.913V78.0083H105.189Z" fill="#F7C85A"/>
<path d="M85.3072 2.81212V8.43635H88.1756V14.9886H91.522V20.7534H91.5783V21.5408H95.009V28.0931H99.2272V29.4429H123.411V30.7646H126.027V32.6487H121.274V36.895H114.863V41.1694H107.607V45.9781H100.886V54.4145H102.011V54.4707H103.53V61.6979H106.004V69.4312H108.479V76.6021H106.539V74.718H100.549V70.5279H96.0214V64.7912H88.5693V59.9825H80.1329V64.7912H72.0622V70.5279H67.5346V74.718H61.5448V76.4334H59.6045V69.4312H62.0791V61.6979H64.5538V54.3864H67.1691V45.95H60.4481V41.1413H53.1928V36.8669H46.8937V32.6206H42.1412V30.7364H44.7565V29.9209H68.9407V28.0649H73.1589V21.5127H76.5897V14.9605H80.0204V8.43635H82.6076V2.81212H85.3635M88.1756 0H79.7955V5.62424H77.2083V12.1765H73.7775V18.7287H70.3468V25.2809H66.1286V27.1369H41.9444V27.9524H39.3291V35.4608H44.0816V39.7071H50.4932V43.9815H57.7485V48.7902H64.4694V51.6024H61.8542V58.9139H59.3795V66.6472H56.9048V79.2736H64.4694V77.5582H70.4592V73.3681H74.9868V67.6314H83.0575V62.8227H85.8696V67.6314H93.3218V73.3681H97.8493V77.5582H103.839V79.4423H111.404V66.6472H108.929V58.9139H106.454V51.6867H103.839V48.8184H110.56V44.0096H117.815V39.7352H124.227V35.4889H128.979V27.9806H126.364V26.6589H102.18V25.3091H97.9618V18.7568H94.531V17.9694H94.4747V12.2046H91.1283V5.62424H88.26V0H88.1756Z" fill="white"/>
<path d="M116.578 31.9453H97.3433V34.1669H116.578V31.9453Z" fill="white"/>
<path d="M93.0405 26.04H90.3408V28.4866H93.0405V26.04Z" fill="white"/>
<path d="M90.144 20.9785H87.4443V23.4251H90.144V20.9785Z" fill="white"/>
</g>
<g clip-path="url(#clip2_650_333)">
<path d="M144.809 78.0083V76.1242H138.819V71.9342H134.292V66.1974H126.84V61.3887H121.216V66.1974H113.145V71.9342H108.617V76.1242H102.627V77.8396H97.875V68.0253H100.378V60.292H102.852V52.9805H105.496V47.3563H98.7748V42.5475H91.5196V38.2731H85.1079V34.0268H80.3555V29.3306H82.9707V28.5151H107.155V26.6872H111.373V20.135H114.776V13.5827H118.207V7.03049H120.794V1.40625H126.362V7.03049H129.23V13.5827H132.576V19.3476L132.605 20.135H136.064V26.6872H140.282V28.0089H164.466V29.3306H167.081V34.0268H162.329V38.2731H155.917V42.5475H148.662V47.3563H141.941V52.9805H143.066V53.0649H144.584V60.292H147.059V68.0253H149.534V78.0083H144.809Z" fill="#F7C85A"/>
<path d="M124.927 2.81212V8.43635H127.796V14.9886H131.142V20.7534H131.198V21.5408H134.629V28.0931H138.847V29.4429H163.032V30.7646H165.647V32.6487H160.894V36.895H154.483V41.1694H147.227V45.9781H140.506V54.4145H141.631V54.4707H143.15V61.6979H145.625V69.4312H148.099V76.6021H146.159V74.718H140.169V70.5279H135.642V64.7912H128.189V59.9825H119.753V64.7912H111.682V70.5279H107.155V74.718H101.165V76.4334H99.2246V69.4312H101.699V61.6979H104.174V54.3864H106.789V45.95H100.068V41.1413H92.813V36.8669H86.5138V32.6206H81.7613V30.7364H84.3766V29.9209H108.561V28.0649H112.779V21.5127H116.21V14.9605H119.641V8.43635H122.228V2.81212H124.984M127.796 0H119.416V5.62424H116.828V12.1765H113.398V18.7287H109.967V25.2809H105.749V27.1369H81.5645V27.9524H78.9492V35.4608H83.7017V39.7071H90.1133V43.9815H97.3686V48.7902H104.09V51.6024H101.474V58.9139H98.9996V66.6472H96.525V79.2736H104.09V77.5582H110.079V73.3681H114.607V67.6314H122.678V62.8227H125.49V67.6314H132.942V73.3681H137.469V77.5582H143.459V79.4423H151.024V66.6472H148.549V58.9139H146.074V51.6867H143.459V48.8184H150.18V44.0096H157.435V39.7352H163.847V35.4889H168.6V27.9806H165.984V26.6589H141.8V25.3091H137.582V18.7568H134.151V17.9694H134.095V12.2046H130.748V5.62424H127.88V0H127.796Z" fill="white"/>
<path d="M156.198 31.9453H136.963V34.1669H156.198V31.9453Z" fill="white"/>
<path d="M132.661 26.04H129.961V28.4866H132.661V26.04Z" fill="white"/>
<path d="M129.764 20.9785H127.064V23.4251H129.764V20.9785Z" fill="white"/>
</g>
<defs>
<clipPath id="clip0_650_333">
<rect width="89.5378" height="79.4142" fill="white"/>
</clipPath>
<clipPath id="clip1_650_333">
<rect width="89.5378" height="79.4142" fill="white" transform="translate(39.3291)"/>
</clipPath>
<clipPath id="clip2_650_333">
<rect width="89.5378" height="79.4142" fill="white" transform="translate(78.9492)"/>
</clipPath>
</defs>
</svg>
