<svg width="39" height="39" viewBox="0 0 39 39" fill="none" xmlns="http://www.w3.org/2000/svg">
<path d="M37.5237 14.1811V11.9901H36.4059V10.7079H35.159V9.75684H29.2929V16.5247H28.0388V17.9079H26.9915V19.028H25.7751V20.2632H13.855V21.1439H12.7512V22.163H11.8096V24.4691V24.5114V26.8151V26.8174V29.1587V29.1634V30.9575V31.507V33.2871V33.3058V35.6354H12.7512V36.873H13.9395V38.0001H15.7759H16.2878H22.9007H22.9195H25.35V36.873H26.543V35.6354H27.649V33.3058V33.2871V31.507V30.9575V29.1587H25.4792H25.3007H18.608V27.3153H35.2083V25.9838H36.4059V24.5114H37.5237V22.8065H38.186V14.1811H37.5237Z" fill="#F6C244" stroke="white" stroke-miterlimit="10"/>
<path d="M26.4347 3.36476V2.12485H25.2488V1H24.9036H22.9005H16.2853H14.3831H13.8359V2.12485H12.643V3.36476H11.5369V5.69195V5.71309V7.49312V8.04028V9.84145H13.7091H13.8853H20.578V11.6849H3.97768V13.0164H2.78003V14.4888H1.66223V16.1937H1V24.8191H1.66223V27.0101H2.78003V28.2922H4.02699V29.2433H9.89311V22.4754H11.1471V21.0923H12.1968V19.9721H13.4132V18.7369H25.3334V17.8563H26.4347V16.8371H27.3787V14.5287V14.4888V12.1851V12.1804V9.84145V9.83675V8.04028V7.49312V5.71309V5.69195V3.36476H26.4347Z" fill="#3077B7" stroke="white" stroke-miterlimit="10"/>
<path d="M16.4099 5.19238H14.0615V7.54071H16.4099V5.19238Z" fill="white"/>
<path d="M15.8231 4.61719H14.6489V5.79135H15.8231V4.61719Z" fill="white"/>
<path d="M15.8231 6.9043H14.6489V8.07846H15.8231V6.9043Z" fill="white"/>
<path d="M16.91 5.70508H15.7358V6.87924H16.91V5.70508Z" fill="white"/>
<path d="M14.7357 5.70508H13.5615V6.87924H14.7357V5.70508Z" fill="white"/>
<path d="M22.7781 33.8066H25.1265V31.4583H22.7781V33.8066Z" fill="white"/>
<path d="M23.3654 34.3828H24.5396V33.2086H23.3654V34.3828Z" fill="white"/>
<path d="M23.3654 32.0967H24.5396V30.9225H23.3654V32.0967Z" fill="white"/>
<path d="M22.2785 33.2949H23.4526V32.1208H22.2785V33.2949Z" fill="white"/>
<path d="M24.4503 33.2949H25.6245V32.1208H24.4503V33.2949Z" fill="white"/>
</svg>
