<svg width="80" height="47" viewBox="0 0 80 47" fill="none" xmlns="http://www.w3.org/2000/svg">
<g clip-path="url(#clip0_650_316)">
<path d="M39.3022 45.9746V44.8641H35.7721V42.3947H33.1038V39.0138H28.7119V36.1798H25.3973V39.0138H20.6408V42.3947H17.9725V44.8641H14.4424V45.8751H11.6415V40.0911H13.1165V35.5334H14.575V31.2244H16.1329V27.9097H12.1719V25.0757H7.89597V22.5566H4.11728V20.054H1.31641V17.2863H2.85772V16.8057H17.1107V15.7284H19.5967V11.8669H21.602V8.00531H23.624V4.14375H25.1487V0.829102H28.4302V4.14375H30.1207V8.00531H32.0929V11.4028L32.1094 11.8669H34.148V15.7284H36.6339V16.5074H50.8869V17.2863H52.4282V20.054H49.6273V22.5566H45.8486V25.0757H41.5728V27.9097H37.6118V31.2244H38.2747V31.2741H39.1696V35.5334H40.6281V40.0911H42.0865V45.9746H39.3022Z" fill="#F7C85A"/>
<path d="M27.585 1.65732V4.97197H29.2755V8.83353H31.2477V12.231H31.2808V12.6951H33.3028V16.5566H35.7887V17.3522H50.0417V18.1311H51.583V19.2415H48.7822V21.7441H45.0035V24.2632H40.7276V27.0972H36.7666V32.0692H37.4295V32.1023H38.3245V36.3617H39.7829V40.9193H41.2413V45.1455H40.0978V44.0351H36.5677V41.5656H33.8994V38.1847H29.5075V35.3507H24.5355V38.1847H19.779V41.5656H17.1107V44.0351H13.5806V45.046H12.4371V40.9193H13.8955V36.3617H15.354V32.0526H16.8953V27.0806H12.9343V24.2466H8.65839V21.7275H4.94599V19.2249H2.14511V18.1145H3.68642V17.6339H17.9394V16.5401H20.4254V12.6785H22.4473V8.81695H24.4692V4.97197H25.994V1.65732H27.6182M29.2755 0H24.3367V3.31464H22.8119V7.17621H20.79V11.0378H18.7681V14.8993H16.2821V15.9932H2.0291V16.4738H0.487793V20.8988H3.28867V23.4014H7.06736V25.9205H11.3433V28.7545H15.3043V30.4119H13.7629V34.7209H12.3045V39.2785H10.8461V46.7199H15.3043V45.7089H18.8343V43.2395H21.5026V39.8586H26.2591V37.0246H27.9165V39.8586H32.3084V43.2395H34.9767V45.7089H38.5068V46.8194H42.965V39.2785H41.5065V34.7209H40.0481V30.4616H38.5068V28.7711H42.4678V25.9371H46.7436V23.418H50.5223V20.9154H53.3232V16.4904H51.7819V15.7114H37.5289V14.9159H35.043V11.0543H33.021V10.5903H32.9879V7.19278H31.0157V3.31464H29.3252V0H29.2755Z" fill="white"/>
<path d="M46.0143 18.8271H34.6782V20.1364H46.0143V18.8271Z" fill="white"/>
<path d="M32.1428 15.3467H30.5518V16.7885H32.1428V15.3467Z" fill="white"/>
<path d="M30.4358 12.3633H28.8447V13.8052H30.4358V12.3633Z" fill="white"/>
</g>
<g clip-path="url(#clip1_650_316)">
<path d="M65.3242 45.9746V44.8641H61.7941V42.3947H59.1258V39.0138H54.7339V36.1798H51.4193V39.0138H46.6628V42.3947H43.9945V44.8641H40.4644V45.8751H37.6635V40.0911H39.1385V35.5334H40.597V31.2244H42.1548V27.9097H38.1938V25.0757H33.9179V22.5566H30.1393V20.054H27.3384V17.2863H28.8797V16.8057H43.1327V15.7284H45.6186V11.8669H47.624V8.00531H49.6459V4.14375H51.1707V0.829102H54.4522V4.14375H56.1426V8.00531H58.1148V11.4028L58.1314 11.8669H60.1699V15.7284H62.6559V16.5074H76.9089V17.2863H78.4502V20.054H75.6493V22.5566H71.8706V25.0757H67.5947V27.9097H63.6337V31.2244H64.2967V31.2741H65.1916V35.5334H66.6501V40.0911H68.1085V45.9746H65.3242Z" fill="#F7C85A"/>
<path d="M53.607 1.65732V4.97197H55.2974V8.83353H57.2697V12.231H57.3028V12.6951H59.3247V16.5566H61.8107V17.3522H76.0637V18.1311H77.605V19.2415H74.8041V21.7441H71.0254V24.2632H66.7495V27.0972H62.7885V32.0692H63.4515V32.1023H64.3464V36.3617H65.8049V40.9193H67.2633V45.1455H66.1198V44.0351H62.5897V41.5656H59.9214V38.1847H55.5295V35.3507H50.5575V38.1847H45.801V41.5656H43.1327V44.0351H39.6026V45.046H38.4591V40.9193H39.9175V36.3617H41.3759V32.0526H42.9173V27.0806H38.9563V24.2466H34.6804V21.7275H30.968V19.2249H28.1671V18.1145H29.7084V17.6339H43.9614V16.5401H46.4473V12.6785H48.4693V8.81695H50.4912V4.97197H52.016V1.65732H53.6401M55.2974 0H50.3586V3.31464H48.8339V7.17621H46.812V11.0378H44.79V14.8993H42.304V15.9932H28.0511V16.4738H26.5098V20.8988H29.3106V23.4014H33.0893V25.9205H37.3652V28.7545H41.3262V30.4119H39.7849V34.7209H38.3265V39.2785H36.868V46.7199H41.3262V45.7089H44.8563V43.2395H47.5246V39.8586H52.2811V37.0246H53.9384V39.8586H58.3303V43.2395H60.9986V45.7089H64.5287V46.8194H68.9869V39.2785H67.5285V34.7209H66.07V30.4616H64.5287V28.7711H68.4897V25.9371H72.7656V23.418H76.5443V20.9154H79.3452V16.4904H77.8039V15.7114H63.5509V14.9159H61.0649V11.0543H59.043V10.5903H59.0098V7.19278H57.0376V3.31464H55.3472V0H55.2974Z" fill="white"/>
<path d="M72.0363 18.8271H60.7002V20.1364H72.0363V18.8271Z" fill="white"/>
<path d="M58.1648 15.3467H56.5737V16.7885H58.1648V15.3467Z" fill="white"/>
<path d="M56.4577 12.3633H54.8667V13.8052H56.4577V12.3633Z" fill="white"/>
</g>
<defs>
<clipPath id="clip0_650_316">
<rect width="52.7691" height="46.8028" fill="white" transform="translate(0.487793)"/>
</clipPath>
<clipPath id="clip1_650_316">
<rect width="52.7691" height="46.8028" fill="white" transform="translate(26.5098)"/>
</clipPath>
</defs>
</svg>
