<svg width="auto" height="auto" viewBox="0 0 49 49" fill="none" xmlns="http://www.w3.org/2000/svg">
<path d="M18.0177 48.6226V48.4794H16.8216V48.3362H15.6222V48.1931H14.4229V48.0499H13.2236V47.9067H12.0275V47.7636H10.8282V47.3242H10.0254V45.9394H11.8308V46.0925H13.0108V46.2356H14.2101V46.3788H15.4062V46.522H16.6056V46.6651H17.8049V46.8083H19.001V46.9515H30.1495V46.7515H31.3876V46.5787H32.6675V46.406H33.8571V46.2356H35.0952V46.0629H36.3299V45.8901H37.5647V45.7198H38.7995V45.547H40.0504V45.352H41.2723V45.2039H42.3878V44.8459H43.4711V44.4387H44.5028V44.0166H45.4184V43.6611H47.3012V45.1002H46.6854V45.6877H45.6537V46.1098H44.5705V46.517H43.455V46.8725H42.304V47.0231H41.0595V47.218H39.8602V47.3908H38.5964V47.5612H37.3616V47.7339H36.1139V47.9067H34.8501V48.077H33.6637V48.2498H32.3838V48.4226H31.1716V48.6226H18.0177Z" fill="#2E6FB0"/>
<path d="M46.8177 44.0315V44.7325H46.2019V45.32H45.1702V45.7396H44.087V46.1469H42.9715V46.5048H41.8205V46.6529H40.576V46.8479H39.3767V47.0207H38.1129V47.1935H36.8781V47.3663H35.6304V47.5391H34.3666V47.7119H33.1834V47.8847H31.9035V48.0574H30.6881V48.2598H18.5014V48.1167H17.302V47.9735H16.1027V47.8303H14.9034V47.6872H13.7041V47.544H12.5047V47.4008H11.3054V46.9615H10.4994V46.3197H11.3377V46.4703H12.5176V46.6134H13.717V46.7566H14.9163V46.8998H16.1156V47.0429H17.3149V47.1861H18.5143V47.3293H30.63V47.1269H31.8648V46.9541H33.1447V46.7813H34.3344V46.6085H35.5692V46.4357H36.804V46.2629H38.0388V46.0901H39.2735V45.9174H40.5245V45.7224H41.7463V45.5743H42.8618V45.2163H43.9451V44.8091H44.9768V44.3894H45.8924V44.034H46.808M47.7752 43.2935H44.9252V43.6489H44.0096V44.0686H42.9779V44.4758H41.8947V44.8337H40.7792V44.9818H39.5573V45.1768H38.3063V45.3496H37.0716V45.5224H35.8368V45.6952H34.602V45.868H33.3672V46.0408H32.1775V46.2136H30.8976V46.3863H29.6628V46.5888H19.4815V46.4456H18.2821V46.3024H17.0828V46.1593H15.8835V46.0161H14.6842V45.8729H13.4848V45.7298H12.3049V45.5792H9.53223V47.702H10.3382V48.1414H11.5375V48.2845H12.7369V48.4277H13.9362V48.5709H15.1355V48.714H16.3348V48.8572H17.5342V49.0004H31.652V48.7979H32.8675V48.6252H34.1474V48.4524H35.3306V48.2796H36.5944V48.1068H37.8421V47.934H39.0769V47.7612H40.3407V47.5884H41.54V47.3934H42.7845V47.2453H43.9354V46.8874H45.0509V46.4801H46.1342V46.0605H47.1659V45.4731H47.7817V43.291L47.7752 43.2935Z" fill="white"/>
<path d="M8.43355 45.8566V45.6567H7.20844V45.4444H6.00589V45.3013H4.79689V45.0149H3.58467V44.7311H2.37567V44.3583H1.21826V41.7962H2.37567V41.4654H3.52986V41.1371H4.68728V40.8064H5.84147V40.4781H7.02145V40.2386H8.2111V40.0214H9.32982V39.7598H11.5125V41.4309H10.3937V41.6925H9.20409V41.9097H8.02411V42.1467H6.86992V42.4774H6.24769V42.9785H6.98921V43.2105H8.20465V43.4919H9.39108V43.6869H10.513V43.8597H11.7059V44.0325H12.9149V44.1855H31.7075V43.9831H32.8263V43.7388H34.0417V43.5438H35.2572V43.3463H36.4726V43.1513H37.6848V42.9563H38.9003V42.7588H40.1157V42.5638H41.2022V42.2207H42.2339V41.7295H42.4789V40.525H44.352V41.0458H44.9904V42.7144H44.4165V43.4006H43.3848V43.8918H42.2984V44.2349H41.0829V44.4299H39.8675V44.6249H38.652V44.8224H37.4398V45.0174H36.2244V45.2124H35.0089V45.4099H33.8902V45.6542H32.707V45.8566H8.43355Z" fill="#2E6FB0"/>
<path d="M11.0286 40.1307V41.0613H9.90985V41.323H8.7202V41.5426H7.54022V41.7796H6.38281V42.1104H5.76058V42.5374H5.22539V42.9619H5.76058V43.3495H6.50209V44.1443V43.5815H7.71754V43.8654H8.90074V44.0604H10.0227V44.2332H11.2156V44.4059H12.4246V44.5565H32.1844V44.3541H33.3031V44.1097H34.5186V43.9147H35.734V43.7197H36.9495V43.5247H38.1649V43.3297H39.3804V43.1347H40.5958V42.9397H41.6823V42.5966H42.714V42.1054H43.2878V41.592H42.959V40.8984H43.8649V41.4192H44.5033V42.3498H43.9294V43.036H42.8977V43.5272H41.8112V43.8703H40.5958V44.0653H39.3804V44.2603H38.1649V44.4553H36.9495V44.6503H35.734V44.8453H34.5186V45.0403H33.3999V45.2847H32.2166V45.4871H8.91686V44.9909H8.90397V45.2896H7.68852V45.0749H6.4892V44.9317H5.27698V44.6454H4.06476V44.359H2.85254V43.9863H1.70157V42.1647H2.85899V41.8339H4.0164V41.5031H5.17381V41.1724H6.33122V40.8416H7.5112V40.6047H8.70086V40.385H9.81958V40.1233H11.035M12.0022 39.3828H8.85238V39.6445H7.73366V39.8641H6.54401V40.1011H5.36403V40.4319H4.20661V40.7626H3.0492V41.0934H1.89179V41.4242H0.734375V44.7268H1.89179V45.0996H3.10401V45.3859H4.31623V45.6722H5.52845V45.8154H6.72777V46.0301H7.95289V46.2276H33.1903V46.0252H34.3735V45.7808H35.4922V45.5858H36.7077V45.3908H37.9231V45.1958H39.1386V45.0008H40.354V44.8058H41.5694V44.6108H42.7849V44.2677H43.8714V43.7765H44.9031V43.0903H45.4769V40.6787H44.8386V40.1579H41.9982V41.3649H41.7532V41.8561H40.7215V42.1992H39.6351V42.3942H38.4196V42.5892H37.2042V42.7842H35.9887V42.9792H34.7733V43.1742H33.5578V43.3692H32.3424V43.6136H31.2237V43.816H13.3982V43.6654H12.1892V43.4926H10.9963V43.3199H9.87439V43.1249H8.69119V42.841H7.47574V42.609H7.35323V42.5201H8.51064V42.2831H9.69062V42.0635H10.8803V41.8018H11.999V39.3902L12.0022 39.3828Z" fill="white"/>
<path d="M18.8342 41.5976V41.3236H17.2609V41.0224H15.7585V40.6522H14.4882V40.2276H13.2535V39.7216H12.4668V37.7469H13.2535V37.0187H14.1433V36.2881H16.3259V37.7173H16.9062V37.937H18.4795V38.2233H19.8401V38.4701H27.252V38.0159H28.8447V37.6037H31.4239V37.9098H32.9907V38.2751H34.2287V40.0227H32.9907V40.3782H31.4335V40.7065H29.8409V40.9805H28.2837V41.2964H26.7201V41.5976H18.8342Z" fill="#2E6FB0"/>
<path d="M15.842 36.6604V37.591H15.3488V38.0896H16.4223V38.3093H17.9957V38.5956H19.3562V38.8425H27.7353V38.3858H29.328V37.9761H30.94V38.2821H32.5068V38.6475H33.7449V39.6521H32.5068V40.0075H30.9497V40.3358H29.357V40.6098H27.7998V40.9258H26.2362V41.2269H19.3175V40.9529H17.7442V40.6518H16.2418V40.2815H14.9716V39.857H13.7368V39.351H12.9501V38.1168H13.7368V37.3911H14.6266V36.6604H15.842M16.8092 35.9199H13.6594V36.6506H12.7696V37.3763H11.9829V40.0915H12.7696V40.5975H14.0044V41.022H15.2746V41.3923H16.777V41.6934H18.3503V41.9674H27.2034V41.6663H28.767V41.3503H30.3242V41.0763H31.9168V40.7481H33.474V40.3926H34.712V37.907H33.474V37.5416H31.9072V37.2356H28.3608V37.6453H26.7681V38.102H20.3234V37.8551H18.9629V37.5688H17.3895V37.3491H16.8092V35.9199V35.9199Z" fill="white"/>
<path d="M17.8381 36.3644V36.1373H16.2712V35.9102H14.7043V35.6831H13.1375V35.456H11.5706V34.6957H10.8291V32.721H11.5481V31.9262H12.3315V31.2598H14.9107V33.2345H14.1272V33.4813L14.1401 33.7084H15.7167V33.9355H17.2835V34.1626H18.8504V34.3897H23.5155V34.1626H25.0856V33.9848H25.1468V33.8886H26.6525V33.8071H26.6944V33.5948H28.2419V33.3036H29.7862V33.0123H31.3337V32.721H33.9129V32.9111H34.735V33.0938H35.5023V35.0685H33.9322V35.2462H32.3654V35.4239H30.7985V35.6016H29.2316V35.7818H27.726V35.8633H27.6648V35.9595H26.0947V36.1373H24.5407V36.3644H17.8381Z" fill="#2E6FB0"/>
<path d="M14.4267 31.6302V32.8643H13.6433V33.8517H13.6658V34.0788H15.2327V34.3059H16.7995V34.533H18.3664V34.7601H23.9987V34.533H25.5656V34.3552H25.6301V34.259H27.1357V34.1775H27.1776V33.9677H28.7251V33.6764H30.2726V33.3852H31.8201V33.0939H33.4321V33.2864H34.2542V33.4691H35.0215V34.7033H33.4547V34.881H31.8878V35.0587H30.321V35.2364H28.7541V35.4142H27.2485V35.4956H27.184V35.5919H25.6172V35.7696H24.06V35.9967H18.3277V35.7696H16.7609V35.5425H15.194V35.3154H13.6271V35.0883H12.0603V34.3256H11.3188V33.0914H12.0377V32.2966H12.8211V31.6326H14.4331M15.4003 30.8921H11.8539V31.5561H11.0705V32.3509H10.3516V35.0661H11.0931V35.8289H12.6599V36.0559H14.2268V36.283H15.7937V36.5101H17.3605V36.7372H25.0272V36.5101H26.5844V36.3324H28.1512V36.2361H28.2157V36.1547H29.7213V35.977H31.2882V35.7992H32.855V35.6215H34.4219V35.4438H35.9887V32.7286H35.2214V32.5459H34.3993V32.3534H30.8529V32.6447H29.3054V32.9359H27.7579V33.2272H26.2104V33.437H26.1685V33.5185H24.6629V33.6147H24.5984V33.7924H23.0315V34.0195H19.3336V33.7924H17.7667V33.5654H16.1999V33.3383H15.3939V30.8896L15.4003 30.8921Z" fill="white"/>
<path d="M38.6555 35.4693V33.4946H40.1707V33.0207H41.2669V32.4777H42.0729V31.8606H42.8499V31.2361H43.6559V30.619H44.3877V29.8291H44.9777V28.6097H44.0847V27.9556H43.1142V27.4496H40.5641V27.7483H37.9849V25.7736H39.3454V25.4749H40.7059V25.1787H43.2851V25.4749H44.4877V25.9809H45.6934V26.635H46.6639V27.3484H47.5569V28.2617H48.1888V30.2364H47.5569V31.0411H46.9669V31.8038H46.2351V32.5937H45.4291V33.2108H44.6521V33.8353H43.8461V34.4524H42.7499V34.9954H41.2346V35.4693H38.6555Z" fill="#2E6FB0"/>
<path d="M42.8009 25.5481V25.8468H44.0067V26.3528H45.2125V27.0069H46.1829V27.7203H47.0759V28.6311H47.7078V29.8653H47.0759V30.6725H46.4827V31.4352H45.7509V32.2251H44.9449V32.8422H44.1679V33.4667H43.3619V34.0837H42.2657V34.6268H40.7505V35.1032H39.1385V33.869H40.6537V33.3926H41.7499V32.8496H42.5559V32.2325H43.3329V31.608H44.1389V30.9909H44.8707V30.201H45.4639V28.2411H44.5709V27.587H43.6005V27.081H42.3947V26.7823H41.4436V27.081H40.0831V27.3772H38.4711V26.143H39.8316V25.8468H41.1922V25.5481H42.8041M43.7713 24.8076H40.225V25.1063H38.8644V25.4025H37.5039V28.1177H41.0503V27.8215H42.6333V28.3275H43.6037V28.9816H44.4967V29.4605H43.9035V30.2504H43.1717V30.8675H42.3657V31.492H41.5887V32.1091H40.7827V32.6521H39.6865V33.1285H38.1713V35.8437H41.7177V35.3673H43.2329V34.8243H44.3291V34.2072H45.1351V33.5827H45.9121V32.9656H46.7181V32.1757H47.4499V31.413H48.0431V30.6058H48.675V27.8906H48.0431V26.9798H47.1501V26.2664H46.1797V25.6123H44.9739V25.1063H43.7681V24.8076H43.7713Z" fill="white"/>
<path d="M11.9285 31.3924V31.2788H10.3552V30.953H8.80769V30.6H7.32143V30.21H5.80615V27.4825H7.32143V27.1739H8.8367V26.8679H10.3552V26.5593H11.8705V26.2532H13.3858V25.9447H14.9268V25.6436H17.506V27.6183H15.9649V27.9194H14.4497V28.2279H12.9344V28.534H11.4159V28.8401H12.9344V29.4177H24.7503V29.1634H26.2205V28.9314H27.6906V28.6969H29.1575V28.4624H30.6277V28.2279H32.0946V27.9934H33.5647V27.7614H35.0316V27.5269H37.6108V29.5016H36.1439V29.7361H34.6738V29.9681H33.2069V30.2026H31.7367V30.4371H30.2698V30.6716H28.7997V30.9061H27.3295V31.1381H25.8497V31.3924H11.9285Z" fill="#2E6FB0"/>
<path d="M17.0221 26.0135V27.2477H15.4778V27.5488H13.9626V27.8549H12.4473V28.161H10.932V28.467H10.903V29.2051H12.4473V29.7827H25.2336V29.5284H26.7038V29.294H28.1739V29.0595H29.6441V28.825H31.1142V28.5905H32.5843V28.356H34.0545V28.1215H35.5246V27.887H37.1366V29.1212H35.6665V29.3557H34.1963V29.5902H32.7262V29.8247H31.2561V30.0591H29.7859V30.2936H28.3158V30.5281H26.8456V30.7626H25.3658V31.0169H12.4118V30.9033H10.8353V30.5775H9.291V30.227H7.80474V29.837H6.28946V27.8475H7.80474V27.5414H9.32002V27.2353H10.8353V26.9293H12.3506V26.6232H13.8658V26.3171H15.4101V26.016H17.0221M17.9893 25.2754H14.4429V25.5766H12.8986V25.8827H11.3834V26.1887H9.86809V26.4948H8.35282V26.8009H6.83754V27.107H5.32227V30.5775H6.83754V30.9675H8.3238V31.318H9.86809V31.6438H11.4446V31.7574H26.333V31.5031H27.8128V31.2686H29.283V31.0342H30.7531V30.7997H32.2233V30.5652H33.6934V30.3307H35.1635V30.0962H36.6337V29.8617H38.1038V27.1465H34.5574V27.381H33.0873V27.6155H31.6171V27.85H30.147V28.0844H28.6769V28.3189H27.2067V28.5534H25.7366V28.7879H24.2664V29.0422H13.4177V28.5929H14.933V28.2869H16.4483V27.9857H17.9926V25.2705L17.9893 25.2754Z" fill="white"/>
<path d="M22.7575 26.167V25.1501H21.5646V24.1306H20.3975V22.9261H19.4207V22.0301H18.7404V20.8304H17.1058V19.0063H16.2031V15.7974H17.7861V14.114H19.498V12.6799H21.5646V11.3445H23.7602V10.1078H25.4076V8.72308H26.9842V7.41731H28.5961V6.07946H29.6407V3.62836H31.2463V3.23343H30.9174V2.35469H30.2243V0.370117H32.8035V1.24886H33.4966V2.41886H34.3961V4.8428H33.8319V6.85699H32.7873V9.28834H31.1753V10.6262H29.5988V11.932H27.9513V13.3167H25.7558V14.5534H23.6892V15.8888H21.9773V17.3229H20.3943V18.0535H20.7296V20.0554H21.3196V20.9514H21.9999V22.1559H22.9767V23.1754H24.1438V24.1924H25.3367V26.167H22.7575Z" fill="#CF372F"/>
<path d="M32.3198 0.740511V1.61925H33.0129V2.79173H33.9092V4.47269H33.345V6.48687H32.3004V8.91822H30.6884V10.2561H29.1151V11.5618H27.4677V12.9466H25.2721V14.1832H23.2055V15.5186H21.4936V16.9528H19.9106V18.4239H20.2491V20.4258H20.8391V21.3193H21.5194V22.5239H22.4963V23.5433H23.6633V24.5627H24.8594V25.7969H23.2475V24.7775H22.0514V23.7581H20.8843V22.5535H19.9074V21.6599H19.2271V20.4578H17.5926V18.6337H16.6866V16.1653H18.2696V14.4844H19.9815V13.0503H22.0481V11.7149H24.2437V10.4782H25.8911V9.09347H27.4644V7.7877H29.0764V6.44985H30.121V3.99876H31.7298V2.86331H31.4009V1.98457H30.7078V0.740511H32.3198ZM33.287 0H29.7406V2.72508H30.4337V3.25825H29.157V5.70934H28.1125V7.04719H26.5005V8.35296H24.9272V9.73772H23.2797V10.9744H21.0842V12.3098H19.0176V13.7439H17.3056V15.4248H15.7227V19.3742H16.6286V21.1984H18.2632V22.4005H18.9434V23.294H19.9203V24.4986H21.0874V25.518H22.2835V26.5374H25.8299V23.8222H24.6338V22.8028H23.4667V21.7834H22.4898V20.5788H21.8096V19.6852H21.2196V17.6933H22.464V16.2591H24.176V14.9238H26.2425V13.6871H28.4381V12.3024H30.0855V10.9966H31.6588V9.65873H33.2708V7.22739H34.3154V5.2132H34.8796V2.05121H33.9833V0.878739H33.2902V0H33.287Z" fill="white"/>
<path d="M27.513 28.5672V26.5925H28.5414V25.62H29.3281V24.6919H29.7988V24.5536H28.8219V23.4799H27.8096V22.653H27.0971V21.6434H25.6012V20.6783H24.9209V17.4694H25.6012V16.4648H26.4491V14.1939H28.5898V13.3744H30.5629V12.55H31.9943V11.7724H33.4742V11.2072H34.7734V10.7085H35.9921V10.0865H37.2108V9.45215H39.7899V11.4268H38.5713V12.0612H37.3526V12.6832H36.0533V13.1819H34.5735V13.7471H33.1421V14.5246H31.8525V15.8748H30.6403V17.4028H30.0374V18.2297H29.2024V18.8517H30.0728V19.4441H31.2883V20.3846H32.1846V21.3448H33.0131V21.7742H33.5676V24.0254H33.0131V24.5536H32.7488V25.5114H31.9073V26.6666H31.1206V27.5947H30.0922V28.5672H27.513Z" fill="#CF372F"/>
<path d="M39.3065 9.82254V11.0567H38.0879V11.6911H36.8692V12.3131H35.5699V12.8117H34.0901V13.377H32.6587V14.1545H31.3691V15.5047H30.1569V17.0326H29.554V17.8596H28.7222V19.2221H29.5927V19.8145H30.8081V20.7549H31.7044V21.7151H32.5329V22.1471H33.0842V23.6577H32.5329V24.186H32.2654V25.1437H31.4271V26.2989H30.6405V27.2245H29.612V28.1971H28V26.9629H29.0285V25.9904H29.8151V25.0647H30.2858V24.1835H29.309V23.1098H28.2966V22.2853H27.5841V21.2733H26.085V20.3082H25.4047V17.8398H26.085V16.8352H26.9329V14.5643H29.0736V13.7448H31.0467V12.9203H32.4781V12.1428H33.9579V11.5776H35.2572V11.0789H36.4759V10.4569H37.6946V9.82254H39.3065M40.2737 9.08203H36.7274V9.7164H35.5087V10.3384H34.29V10.837H32.9908V11.4023H31.5109V12.1798H30.0795V13.0043H28.1064V13.8238H25.9657V16.0947H25.1178V17.0993H24.4375V21.0487H25.1178V22.0138H26.6169V23.0258H27.3294V23.8503H28.3418V24.924H28.8479V25.2498H28.0613V26.2224H27.0328V28.9376H30.5792V27.9651H31.6077V27.0394H32.3943V25.8842H33.2326V24.9265H33.5001V24.3983H34.0514V21.4066H33.5001V20.9746H32.6716V20.0144H31.7753V19.074H30.5599V18.4816H30.5244V17.7732H31.1273V16.2452H32.3395V14.895H33.6291V14.1175H35.0606V13.5522H36.5404V13.0536H37.8396V12.4316H39.0583V11.7972H40.277V9.08203H40.2737Z" fill="white"/>
</svg>
