<svg width="70" height="80" viewBox="0 0 70 80" fill="none" xmlns="http://www.w3.org/2000/svg">
<g id="N">
<g id="N_2">
<path d="M15 10H45V15H50V60H40V15H25V60H15V10Z" fill="white"/>
<path d="M15 10V6H11V10H15ZM45 10H49V6H45V10ZM45 15H41V19H45V15ZM50 15H54V11H50V15ZM50 60V64H54V60H50ZM40 60H36V64H40V60ZM40 15H44V11H40V15ZM25 15V11H21V15H25ZM25 60V64H29V60H25ZM15 60H11V64H15V60ZM15 14H45V6H15V14ZM41 10V15H49V10H41ZM45 19H50V11H45V19ZM46 15V60H54V15H46ZM50 56H40V64H50V56ZM44 60V15H36V60H44ZM40 11H25V19H40V11ZM21 15V60H29V15H21ZM25 56H15V64H25V56ZM19 60V10H11V60H19Z" fill="#A9AB5A"/>
</g>
<g id="N_3">
<path d="M15 10H45V15H50V60H40V15H25V60H15V10Z" fill="white"/>
<path d="M15 10V8H13V10H15ZM45 10H47V8H45V10ZM45 15H43V17H45V15ZM50 15H52V13H50V15ZM50 60V62H52V60H50ZM40 60H38V62H40V60ZM40 15H42V13H40V15ZM25 15V13H23V15H25ZM25 60V62H27V60H25ZM15 60H13V62H15V60ZM15 12H45V8H15V12ZM43 10V15H47V10H43ZM45 17H50V13H45V17ZM48 15V60H52V15H48ZM50 58H40V62H50V58ZM42 60V15H38V60H42ZM40 13H25V17H40V13ZM23 15V60H27V15H23ZM25 58H15V62H25V58ZM17 60V10H13V60H17Z" fill="black"/>
</g>
<path id="N_4" d="M15 10H45V15H50V60H40V15H25V60H15V10Z" fill="white"/>
</g>
</svg>
