<svg width="40" height="80" viewBox="0 0 40 80" fill="none" xmlns="http://www.w3.org/2000/svg">
<path d="M0 15H5V10H30V15H35V55H30V60H5V55H0V15ZM10 15V55H25V15H10Z" fill="white"/>
<path d="M0 15V11H-4V15H0ZM5 15V19H9V15H5ZM5 10V6H1V10H5ZM30 10H34V6H30V10ZM30 15H26V19H30V15ZM35 15H39V11H35V15ZM35 55V59H39V55H35ZM30 55V51H26V55H30ZM30 60V64H34V60H30ZM5 60H1V64H5V60ZM5 55H9V51H5V55ZM0 55H-4V59H0V55ZM10 15V11H6V15H10ZM10 55H6V59H10V55ZM25 55V59H29V55H25ZM25 15H29V11H25V15ZM0 19H5V11H0V19ZM9 15V10H1V15H9ZM5 14H30V6H5V14ZM26 10V15H34V10H26ZM30 19H35V11H30V19ZM31 15V55H39V15H31ZM35 51H30V59H35V51ZM26 55V60H34V55H26ZM30 56H5V64H30V56ZM9 60V55H1V60H9ZM5 51H0V59H5V51ZM4 55V15H-4V55H4ZM6 15V55H14V15H6ZM10 59H25V51H10V59ZM29 55V15H21V55H29ZM25 11H10V19H25V11Z" fill="#A9AB5A"/>
<path d="M0 15H5V10H30V15H35V55H30V60H5V55H0V15ZM10 15V55H25V15H10Z" fill="white"/>
<path d="M0 15V13H-2V15H0ZM5 15V17H7V15H5ZM5 10V8H3V10H5ZM30 10H32V8H30V10ZM30 15H28V17H30V15ZM35 15H37V13H35V15ZM35 55V57H37V55H35ZM30 55V53H28V55H30ZM30 60V62H32V60H30ZM5 60H3V62H5V60ZM5 55H7V53H5V55ZM0 55H-2V57H0V55ZM10 15V13H8V15H10ZM10 55H8V57H10V55ZM25 55V57H27V55H25ZM25 15H27V13H25V15ZM0 17H5V13H0V17ZM7 15V10H3V15H7ZM5 12H30V8H5V12ZM28 10V15H32V10H28ZM30 17H35V13H30V17ZM33 15V55H37V15H33ZM35 53H30V57H35V53ZM28 55V60H32V55H28ZM30 58H5V62H30V58ZM7 60V55H3V60H7ZM5 53H0V57H5V53ZM2 55V15H-2V55H2ZM8 15V55H12V15H8ZM10 57H25V53H10V57ZM27 55V15H23V55H27ZM25 13H10V17H25V13Z" fill="black"/>
<path d="M0 15H5V10H30V15H35V55H30V60H5V55H0V15ZM10 15V55H25V15H10Z" fill="white"/>
</svg>
