<svg width="50" height="66" viewBox="0 0 50 66" fill="none" xmlns="http://www.w3.org/2000/svg">
<path d="M5 15H10V10H35V15H40V55H35V60H10V55H5V15ZM15 15V55H30V15H15Z" fill="white"/>
<path d="M5 15V11H1V15H5ZM10 15V19H14V15H10ZM10 10V6H6V10H10ZM35 10H39V6H35V10ZM35 15H31V19H35V15ZM40 15H44V11H40V15ZM40 55V59H44V55H40ZM35 55V51H31V55H35ZM35 60V64H39V60H35ZM10 60H6V64H10V60ZM10 55H14V51H10V55ZM5 55H1V59H5V55ZM15 15V11H11V15H15ZM15 55H11V59H15V55ZM30 55V59H34V55H30ZM30 15H34V11H30V15ZM5 19H10V11H5V19ZM14 15V10H6V15H14ZM10 14H35V6H10V14ZM31 10V15H39V10H31ZM35 19H40V11H35V19ZM36 15V55H44V15H36ZM40 51H35V59H40V51ZM31 55V60H39V55H31ZM35 56H10V64H35V56ZM14 60V55H6V60H14ZM10 51H5V59H10V51ZM9 55V15H1V55H9ZM11 15V55H19V15H11ZM15 59H30V51H15V59ZM34 55V15H26V55H34ZM30 11H15V19H30V11Z" fill="#A9AB5A"/>
<path d="M5 15H10V10H35V15H40V55H35V60H10V55H5V15ZM15 15V55H30V15H15Z" fill="white"/>
<path d="M5 15V13H3V15H5ZM10 15V17H12V15H10ZM10 10V8H8V10H10ZM35 10H37V8H35V10ZM35 15H33V17H35V15ZM40 15H42V13H40V15ZM40 55V57H42V55H40ZM35 55V53H33V55H35ZM35 60V62H37V60H35ZM10 60H8V62H10V60ZM10 55H12V53H10V55ZM5 55H3V57H5V55ZM15 15V13H13V15H15ZM15 55H13V57H15V55ZM30 55V57H32V55H30ZM30 15H32V13H30V15ZM5 17H10V13H5V17ZM12 15V10H8V15H12ZM10 12H35V8H10V12ZM33 10V15H37V10H33ZM35 17H40V13H35V17ZM38 15V55H42V15H38ZM40 53H35V57H40V53ZM33 55V60H37V55H33ZM35 58H10V62H35V58ZM12 60V55H8V60H12ZM10 53H5V57H10V53ZM7 55V15H3V55H7ZM13 15V55H17V15H13ZM15 57H30V53H15V57ZM32 55V15H28V55H32ZM30 13H15V17H30V13Z" fill="black"/>
<path d="M5 15H10V10H35V15H40V55H35V60H10V55H5V15ZM15 15V55H30V15H15Z" fill="white"/>
</svg>
