<svg width="134" height="133" viewBox="0 0 134 133" fill="none" xmlns="http://www.w3.org/2000/svg">
<path d="M129.685 48.0803V40.4207H125.777V35.9382H121.418V32.6133H100.91V56.2735H96.526V61.109H92.8645V65.025H88.6119V69.3433H46.9397V72.4219H43.0811V75.9849H39.7891V84.0468V84.1946V92.2483V92.2565V100.441V100.458V106.73V108.651V114.874V114.94V123.084H43.0811V127.41H47.2352V131.351H53.6552H55.4449H78.5633H78.629H87.126V127.41H91.2965V123.084H95.1632V114.94V114.874V108.651V106.73V100.441H87.5775H86.9536H63.556V93.9969H121.59V89.342H125.777V84.1946H129.685V78.2344H132V48.0803H129.685Z" fill="#F6C244" stroke="white" stroke-width="3" stroke-miterlimit="10"/>
<path d="M90.9188 10.2671V5.93243H86.7729V2H85.5661H78.5633H55.4367H48.7869H46.874V5.93243H42.7035V10.2671H38.8367V18.4029V18.4768V24.6997V26.6126V32.9094H46.4307H47.0464H70.4439V39.354H12.4098V44.0088H8.22292V49.1563H4.31512V55.1165H2V85.2706H4.31512V92.9302H8.22292V97.4127H12.5823V100.738H33.09V77.0773H37.4739V72.2419H41.1437V68.3258H45.3963V64.0076H87.0685V60.9289H90.9188V57.3659H94.2191V49.2959V49.1563V41.1026V41.0862V32.9094V32.893V26.6126V24.6997V18.4768V18.4029V10.2671H90.9188Z" fill="#3077B7" stroke="white" stroke-width="3" stroke-miterlimit="10"/>
<path d="M55.872 16.6543H47.6624V24.864H55.872V16.6543Z" fill="white"/>
<path d="M53.8194 14.6445H49.7146V18.7494H53.8194V14.6445Z" fill="white"/>
<path d="M53.8194 22.6406H49.7146V26.7455H53.8194V22.6406Z" fill="white"/>
<path d="M57.6205 18.4473H53.5156V22.5521H57.6205V18.4473Z" fill="white"/>
<path d="M50.0184 18.4473H45.9136V22.5521H50.0184V18.4473Z" fill="white"/>
<path d="M78.1363 116.688H86.3459V108.479H78.1363V116.688Z" fill="white"/>
<path d="M80.1886 118.7H84.2935V114.595H80.1886V118.7Z" fill="white"/>
<path d="M80.1886 110.712H84.2935V106.607H80.1886V110.712Z" fill="white"/>
<path d="M76.3878 114.898H80.4927V110.794H76.3878V114.898Z" fill="white"/>
<path d="M83.9816 114.898H88.0864V110.794H83.9816V114.898Z" fill="white"/>
</svg>
