<svg width="186" height="46" viewBox="0 0 186 46" fill="none" xmlns="http://www.w3.org/2000/svg">
<path d="M183 3H3V43H183V3Z" fill="#CA3E3E" stroke="black" stroke-width="5" stroke-miterlimit="10"/>
<path d="M11 39L175 39" stroke="#D87D7D" stroke-width="3" stroke-miterlimit="10"/>
<path d="M7 5.5498V34.5198" stroke="#FFC0C0" stroke-width="3" stroke-miterlimit="10"/>
<path d="M179 5.5498V34.5198" stroke="#EDA2A2" stroke-width="3" stroke-miterlimit="10"/>
<path d="M12 34H9V37H12V34Z" fill="#FFC0C0"/>
<path d="M178 34.5H175V37.5H178V34.5Z" fill="#D87D7D"/>
<path d="M8 7L180 7" stroke="#FFC0C0" stroke-width="3" stroke-miterlimit="10"/>
<path d="M70 15.5H77.5V16.75H78.75V20.5H77.5V21.75H78.75V28H76.25V21.75H72.5V28H70V15.5ZM72.5 16.75V20.5H76.25V16.75H72.5ZM80 16.75H81.25V15.5H88.75V16.75H82.5V20.5H87.5V21.75H82.5V26.75H88.75V28H81.25V26.75H80V16.75ZM90 16.75H91.25V15.5H97.5V16.75H98.75V28H96.25V21.75H92.5V28H90V16.75ZM92.5 16.75V20.5H96.25V16.75H92.5ZM100 15.5H107.5V16.75H108.75V26.75H107.5V28H100V15.5ZM102.5 16.75V26.75H106.25V16.75H102.5ZM110 15.5H112.5V20.5H115V15.5H117.5V20.5H116.25V21.75H115V28H112.5V21.75H111.25V20.5H110V15.5Z" fill="white"/>
</svg>
