<svg width="50" height="66" viewBox="0 0 50 66" fill="none" xmlns="http://www.w3.org/2000/svg">
<path d="M5 15H10V10H35V15H40V20H30V15H15V30H35V35H40V55H35V60H10V55H5V50H15V55H30V35H10V30H5V15Z" fill="white"/>
<path d="M5 15V11H1V15H5ZM10 15V19H14V15H10ZM10 10V6H6V10H10ZM35 10H39V6H35V10ZM35 15H31V19H35V15ZM40 15H44V11H40V15ZM40 20V24H44V20H40ZM30 20H26V24H30V20ZM30 15H34V11H30V15ZM15 15V11H11V15H15ZM15 30H11V34H15V30ZM35 30H39V26H35V30ZM35 35H31V39H35V35ZM40 35H44V31H40V35ZM40 55V59H44V55H40ZM35 55V51H31V55H35ZM35 60V64H39V60H35ZM10 60H6V64H10V60ZM10 55H14V51H10V55ZM5 55H1V59H5V55ZM5 50V46H1V50H5ZM15 50H19V46H15V50ZM15 55H11V59H15V55ZM30 55V59H34V55H30ZM30 35H34V31H30V35ZM10 35H6V39H10V35ZM10 30H14V26H10V30ZM5 30H1V34H5V30ZM5 19H10V11H5V19ZM14 15V10H6V15H14ZM10 14H35V6H10V14ZM31 10V15H39V10H31ZM35 19H40V11H35V19ZM36 15V20H44V15H36ZM40 16H30V24H40V16ZM34 20V15H26V20H34ZM30 11H15V19H30V11ZM11 15V30H19V15H11ZM15 34H35V26H15V34ZM31 30V35H39V30H31ZM35 39H40V31H35V39ZM36 35V55H44V35H36ZM40 51H35V59H40V51ZM31 55V60H39V55H31ZM35 56H10V64H35V56ZM14 60V55H6V60H14ZM10 51H5V59H10V51ZM9 55V50H1V55H9ZM5 54H15V46H5V54ZM11 50V55H19V50H11ZM15 59H30V51H15V59ZM34 55V35H26V55H34ZM30 31H10V39H30V31ZM14 35V30H6V35H14ZM10 26H5V34H10V26ZM9 30V15H1V30H9Z" fill="#A9AB5A"/>
<path d="M5 15H10V10H35V15H40V20H30V15H15V30H35V35H40V55H35V60H10V55H5V50H15V55H30V35H10V30H5V15Z" fill="white"/>
<path d="M5 15V13H3V15H5ZM10 15V17H12V15H10ZM10 10V8H8V10H10ZM35 10H37V8H35V10ZM35 15H33V17H35V15ZM40 15H42V13H40V15ZM40 20V22H42V20H40ZM30 20H28V22H30V20ZM30 15H32V13H30V15ZM15 15V13H13V15H15ZM15 30H13V32H15V30ZM35 30H37V28H35V30ZM35 35H33V37H35V35ZM40 35H42V33H40V35ZM40 55V57H42V55H40ZM35 55V53H33V55H35ZM35 60V62H37V60H35ZM10 60H8V62H10V60ZM10 55H12V53H10V55ZM5 55H3V57H5V55ZM5 50V48H3V50H5ZM15 50H17V48H15V50ZM15 55H13V57H15V55ZM30 55V57H32V55H30ZM30 35H32V33H30V35ZM10 35H8V37H10V35ZM10 30H12V28H10V30ZM5 30H3V32H5V30ZM5 17H10V13H5V17ZM12 15V10H8V15H12ZM10 12H35V8H10V12ZM33 10V15H37V10H33ZM35 17H40V13H35V17ZM38 15V20H42V15H38ZM40 18H30V22H40V18ZM32 20V15H28V20H32ZM30 13H15V17H30V13ZM13 15V30H17V15H13ZM15 32H35V28H15V32ZM33 30V35H37V30H33ZM35 37H40V33H35V37ZM38 35V55H42V35H38ZM40 53H35V57H40V53ZM33 55V60H37V55H33ZM35 58H10V62H35V58ZM12 60V55H8V60H12ZM10 53H5V57H10V53ZM7 55V50H3V55H7ZM5 52H15V48H5V52ZM13 50V55H17V50H13ZM15 57H30V53H15V57ZM32 55V35H28V55H32ZM30 33H10V37H30V33ZM12 35V30H8V35H12ZM10 28H5V32H10V28ZM7 30V15H3V30H7Z" fill="black"/>
<path d="M5 15H10V10H35V15H40V20H30V15H15V30H35V35H40V55H35V60H10V55H5V50H15V55H30V35H10V30H5V15Z" fill="white"/>
</svg>
