<svg width="34" height="34" viewBox="0 0 34 34" fill="none" xmlns="http://www.w3.org/2000/svg">
<path d="M32 2H2V32H32V2Z" fill="black" stroke="white" stroke-width="3" stroke-miterlimit="10"/>
<path d="M30.5 27.5H27.5V30.5H30.5V27.5Z" fill="white"/>
<path d="M14.9591 11.4297H13.7891V12.5997H14.9591V11.4297Z" fill="white"/>
<path d="M12.67 13.7402H11.5V14.9102H12.67V13.7402Z" fill="white"/>
<path d="M11.5098 11.4609H10.3398V13.7609H11.5098V11.4609Z" fill="white"/>
<path d="M9.17 16.0508H8V18.3508H9.17V16.0508Z" fill="white"/>
<path d="M14.9493 16.0508H13.7793V18.3508H14.9493V16.0508Z" fill="white"/>
<path d="M20.7091 16.0508H19.5391V18.3508H20.7091V16.0508Z" fill="white"/>
<path d="M26.5001 16.0508H25.3301V18.3508H26.5001V16.0508Z" fill="white"/>
<path d="M24.1798 11.4609H23.0098V13.7609H24.1798V11.4609Z" fill="white"/>
<path d="M16.1309 9.15039H14.9609V11.4504H16.1309V9.15039Z" fill="white"/>
<path d="M19.5802 9.15039H18.4102V11.4504H19.5802V9.15039Z" fill="white"/>
<path d="M13.8008 11.4512V10.2812H11.5008V11.4512H13.8008Z" fill="white"/>
<path d="M11.4609 16.0899V14.9199H9.16094V16.0899H11.4609Z" fill="white"/>
<path d="M25.3203 16.0802V14.9102H23.0203V16.0802H25.3203Z" fill="white"/>
<path d="M23 11.4512V10.2812H20.7V11.4512H23Z" fill="white"/>
<path d="M18.4199 9.17V8H16.1199V9.17H18.4199Z" fill="white"/>
<path d="M18.4199 14.9298V13.7598H16.1199V14.9298H18.4199Z" fill="white"/>
<path d="M20.7091 11.4297H19.5391V12.5997H20.7091V11.4297Z" fill="white"/>
<path d="M19.5802 14.8711H18.4102V16.0411H19.5802V14.8711Z" fill="white"/>
<path d="M16.0899 14.8711H14.9199V16.0411H16.0899V14.8711Z" fill="white"/>
<path d="M23.0294 13.7695H21.8594V14.9395H23.0294V13.7695Z" fill="white"/>
<path d="M19.5097 22.9609H20.6797V21.7909H19.5097V22.9609Z" fill="white"/>
<path d="M21.8105 20.6504H22.9805V19.4804H21.8105V20.6504Z" fill="white"/>
<path d="M22.9706 22.9199H24.1406V20.6199H22.9706V22.9199Z" fill="white"/>
<path d="M10.3007 22.9199H11.4707V20.6199H10.3007V22.9199Z" fill="white"/>
<path d="M18.3495 25.2402H19.5195V22.9402H18.3495V25.2402Z" fill="white"/>
<path d="M14.9003 25.2402H16.0703V22.9402H14.9003V25.2402Z" fill="white"/>
<path d="M20.6797 22.9296V24.0996H22.9797V22.9296H20.6797Z" fill="white"/>
<path d="M23.0195 18.2987V19.4688H25.3195V18.2987H23.0195Z" fill="white"/>
<path d="M9.16016 18.2987V19.4688H11.4602V18.2987H9.16016Z" fill="white"/>
<path d="M11.4805 22.9296V24.0996H13.7805V22.9296H11.4805Z" fill="white"/>
<path d="M16.0605 25.2089V26.3789H18.3605V25.2089H16.0605Z" fill="white"/>
<path d="M16.0605 19.4511V20.6211H18.3605V19.4511H16.0605Z" fill="white"/>
<path d="M13.7695 22.9609H14.9395V21.7909H13.7695V22.9609Z" fill="white"/>
<path d="M14.9003 19.5098H16.0703V18.3398H14.9003V19.5098Z" fill="white"/>
<path d="M18.3905 19.5098H19.5605V18.3398H18.3905V19.5098Z" fill="white"/>
<path d="M11.4511 20.6094H12.6211V19.4394H11.4511V20.6094Z" fill="white"/>
</svg>
