<svg width="34" height="34" viewBox="0 0 34 34" fill="none" xmlns="http://www.w3.org/2000/svg">
<path d="M32 2H2V32H32V2Z" fill="black" stroke="white" stroke-width="3" stroke-miterlimit="10"/>
<path d="M30.5 27.5H27.5V30.5H30.5V27.5Z" fill="white"/>
<path d="M24.0263 17.6329L24.0141 17.6256L23.7961 17.4997V15.4764L23.9963 15.3603L24.0085 15.3534L25.9822 14.213L24.8429 12.2376L24.8356 12.2254L23.6962 10.2499L21.7229 11.3907L21.7104 11.3976L21.4305 11.5595L19.7868 10.6094V10.2949V10.2807V8H17.5077H17.4935H15.2148V10.2807V10.2949V10.4281L13.4041 11.4741L13.2718 11.3976L13.2593 11.3907L11.286 10.2499L10.1466 12.2254L10.1393 12.2376L9 14.213L10.9737 15.3534L10.9859 15.3603L11.2209 15.4963H11.214V17.5041L11.0037 17.6256L10.9915 17.6329L9.0178 18.7732L10.1571 20.7483L10.1644 20.7608L11.3038 22.7359L13.2771 21.5955L13.2896 21.5887L13.5525 21.4365L15.2338 22.4084V22.7051V22.7193V25H17.5129H17.5267H19.8058V22.7193V22.7051V22.5776L21.608 21.5364L21.5927 21.5101L21.7282 21.5887L21.7407 21.5955L23.714 22.7359L24.8534 20.7608L24.8607 20.7483L26 18.7732L24.0263 17.6329Z" fill="white"/>
<path d="M20.9979 15.3273H19.8383V14.1667H18.6775V13.0049H16.3341V14.1667H15.1515V15.3273H14V17.6727H15.1515V18.8451H16.3341V19.9947H18.6775V18.8451H19.8383V17.6727H20.9979V15.3273Z" fill="black"/>
</svg>
