<svg width="34" height="34" viewBox="0 0 34 34" fill="none" xmlns="http://www.w3.org/2000/svg">
<path d="M32 2H2V32H32V2Z" fill="white" stroke="black" stroke-width="3" stroke-miterlimit="10"/>
<path d="M31.5856 2.49316H31.2812V2.8467H31.5856V2.49316Z" fill="#FFFAE3"/>
<path d="M30.5 27.5H27.5V30.5H30.5V27.5Z" fill="black"/>
<path d="M32 2H2V32H32V2Z" fill="white" stroke="black" stroke-width="3" stroke-miterlimit="10"/>
<path d="M31.5856 2.49316H31.2812V2.8467H31.5856V2.49316Z" fill="#FFFAE3"/>
<path d="M30.5 27.5H27.5V30.5H30.5V27.5Z" fill="black"/>
<path d="M12.3333 14H8V19H12.3333V14Z" fill="black"/>
<path d="M13.7784 12.333H12.334V20.6663H13.7784V12.333Z" fill="black"/>
<path d="M15.2218 10.667H13.7773V22.3337H15.2218V10.667Z" fill="black"/>
<path d="M16.6671 9H15.2227V24H16.6671V9Z" fill="black"/>
<path d="M19.5558 12.333H18.1113V13.9997H19.5558V12.333Z" fill="black"/>
<path d="M21.0001 14H19.5557V15.6667H21.0001V14Z" fill="black"/>
<path d="M21.0001 15.666H19.5557V17.3327H21.0001V15.666Z" fill="black"/>
<path d="M21.0001 17.334H19.5557V19.0007H21.0001V17.334Z" fill="black"/>
<path d="M19.5558 19H18.1113V20.6667H19.5558V19Z" fill="black"/>
<path d="M23.8898 12.333H22.4453V13.9997H23.8898V12.333Z" fill="black"/>
<path d="M22.4444 10.666H21V12.3327H22.4444V10.666Z" fill="black"/>
<path d="M25.3331 13.999H23.8887V15.6657H25.3331V13.999Z" fill="black"/>
<path d="M25.3331 15.666H23.8887V17.3327H25.3331V15.666Z" fill="black"/>
<path d="M25.3331 17.333H23.8887V18.9997H25.3331V17.333Z" fill="black"/>
<path d="M23.8898 19H22.4453V20.6667H23.8898V19Z" fill="black"/>
<path d="M22.4444 20.666H21V22.3327H22.4444V20.666Z" fill="black"/>
</svg>
