<svg width="34" height="34" viewBox="0 0 34 34" fill="none" xmlns="http://www.w3.org/2000/svg">
<path d="M32 2H2V32H32V2Z" fill="black" stroke="white" stroke-width="3" stroke-miterlimit="10"/>
<path d="M30.5 27.5H27.5V30.5H30.5V27.5Z" fill="white"/>
<path d="M13.3333 14H9V19H13.3333V14Z" fill="white"/>
<path d="M14.7784 12.333H13.334V20.6663H14.7784V12.333Z" fill="white"/>
<path d="M16.2218 10.667H14.7773V22.3337H16.2218V10.667Z" fill="white"/>
<path d="M17.6671 9H16.2227V24H17.6671V9Z" fill="white"/>
<path d="M20.5558 12.333H19.1113V13.9997H20.5558V12.333Z" fill="white"/>
<path d="M22.0001 14H20.5557V15.6667H22.0001V14Z" fill="white"/>
<path d="M22.0001 15.666H20.5557V17.3327H22.0001V15.666Z" fill="white"/>
<path d="M22.0001 17.334H20.5557V19.0007H22.0001V17.334Z" fill="white"/>
<path d="M20.5558 19H19.1113V20.6667H20.5558V19Z" fill="white"/>
<path d="M24.8898 12.333H23.4453V13.9997H24.8898V12.333Z" fill="white"/>
<path d="M23.4444 10.666H22V12.3327H23.4444V10.666Z" fill="white"/>
<path d="M26.3331 13.999H24.8887V15.6657H26.3331V13.999Z" fill="white"/>
<path d="M26.3331 15.666H24.8887V17.3327H26.3331V15.666Z" fill="white"/>
<path d="M26.3331 17.333H24.8887V18.9997H26.3331V17.333Z" fill="white"/>
<path d="M24.8898 19H23.4453V20.6667H24.8898V19Z" fill="white"/>
<path d="M23.4444 20.666H22V22.3327H23.4444V20.666Z" fill="white"/>
</svg>
