<svg width="108" height="95" viewBox="0 0 108 95" fill="none" xmlns="http://www.w3.org/2000/svg">
<g clip-path="url(#clip0_628_184)">
<path d="M78.7854 93.3176V91.0637H71.62V86.0513H66.204V79.1887H57.2893V73.4362H50.5613V79.1887H40.9065V86.0513H35.4904V91.0637H28.3251V93.1158H22.6399V81.3753H25.6338V72.1243H28.5942V63.3778H31.7564V56.6498H23.7164V50.8973H15.0372V45.784H7.36721V40.7043H1.68201V35.0864H4.81055V34.1108H33.7411V31.9242H38.7872V24.086H42.8576V16.2479H46.9618V8.40969H50.0567V1.68164H56.7174V8.40969H60.1487V16.2479H64.1519V23.1441L64.1855 24.086H68.3233V31.9242H73.3693V33.5053H102.3V35.0864H105.428V40.7043H99.7433V45.784H92.0733V50.8973H83.3941V56.6498H75.3541V63.3778H76.6997V63.4787H78.5163V72.1243H81.4766V81.3753H84.437V93.3176H78.7854Z" fill="#F7C85A"/>
<path d="M55.0018 3.36402V10.0921H58.4331V17.9302H62.4363V24.8265H62.5035V25.7684H66.6076V33.6066H71.6537V35.2213H100.584V36.8024H103.713V39.0563H98.0276V44.136H90.3577V49.2493H81.6785V55.0018H73.6385V65.0938H74.9841V65.1611H76.8006V73.8067H79.761V83.0577H82.7213V91.636H80.4001V89.3821H73.2348V84.3697H67.8187V77.5071H58.904V71.7546H48.812V77.5071H39.1572V84.3697H33.7411V89.3821H26.5758V91.4341H24.2546V83.0577H27.2149V73.8067H30.1753V65.0602H33.3038V54.9681H25.2638V49.2157H16.5846V44.1023H9.04922V39.0227H3.36402V36.7688H6.49256V35.7932H35.4232V33.5729H40.4692V25.7348H44.5733V17.8966H48.6774V10.0921H51.7723V3.36402H55.0691M58.4331 0H48.4083V6.72805H45.3134V14.5662H41.2093V22.4044H37.1052V30.2426H32.0591V32.4628H3.12854V33.4384H0V42.4203H5.6852V47.5H13.3552V52.6133H22.0343V58.3658H30.0744V61.7298H26.9458V70.4763H23.9855V79.7273H21.0251V94.8318H30.0744V92.7798H37.2397V87.7674H42.6558V80.9047H52.3106V75.1523H55.6746V80.9047H64.5892V87.7674H70.0053V92.7798H77.1707V95.0336H86.2199V79.7273H83.2596V70.4763H80.2992V61.8307H77.1707V58.3994H85.2107V52.647H93.8899V47.5336H101.56V42.454H107.245V33.472H104.117V31.8909H75.1859V30.2762H70.1399V22.438H66.0358V21.4961H65.9685V14.5999H61.9653V6.72805H58.534V0H58.4331Z" fill="white"/>
<path d="M92.4097 38.2148H69.3998V40.8724H92.4097V38.2148Z" fill="white"/>
<path d="M64.2528 31.1504H61.0234V34.0771H64.2528V31.1504Z" fill="white"/>
<path d="M60.7879 25.0957H57.5584V28.0224H60.7879V25.0957Z" fill="white"/>
</g>
<defs>
<clipPath id="clip0_628_184">
<rect width="107.11" height="95" fill="white"/>
</clipPath>
</defs>
</svg>
