<svg width="202" height="95" viewBox="0 0 202 95" fill="none" xmlns="http://www.w3.org/2000/svg">
<g clip-path="url(#clip0_628_209)">
<path d="M78.7854 93.3176V91.0637H71.62V86.0513H66.204V79.1887H57.2893V73.4362H50.5613V79.1887H40.9065V86.0513H35.4904V91.0637H28.3251V93.1158H22.6399V81.3753H25.6338V72.1243H28.5942V63.3778H31.7564V56.6498H23.7164V50.8973H15.0372V45.784H7.36721V40.7043H1.68201V35.0864H4.81055V34.1108H33.7411V31.9242H38.7872V24.086H42.8576V16.2479H46.9618V8.40969H50.0567V1.68164H56.7174V8.40969H60.1487V16.2479H64.1519V23.1441L64.1855 24.086H68.3233V31.9242H73.3693V33.5053H102.3V35.0864H105.428V40.7043H99.7433V45.784H92.0733V50.8973H83.3941V56.6498H75.3541V63.3778H76.6997V63.4787H78.5163V72.1243H81.4766V81.3753H84.437V93.3176H78.7854Z" fill="#F7C85A"/>
<path d="M55.0018 3.36402V10.0921H58.4331V17.9302H62.4363V24.8265H62.5035V25.7684H66.6076V33.6066H71.6537V35.2213H100.584V36.8024H103.713V39.0563H98.0276V44.136H90.3577V49.2493H81.6785V55.0018H73.6385V65.0938H74.9841V65.1611H76.8006V73.8067H79.761V83.0577H82.7213V91.636H80.4001V89.3821H73.2348V84.3697H67.8187V77.5071H58.904V71.7546H48.812V77.5071H39.1572V84.3697H33.7411V89.3821H26.5758V91.4341H24.2546V83.0577H27.2149V73.8067H30.1753V65.0602H33.3038V54.9681H25.2638V49.2157H16.5846V44.1023H9.04922V39.0227H3.36402V36.7688H6.49256V35.7932H35.4232V33.5729H40.4692V25.7348H44.5733V17.8966H48.6774V10.0921H51.7723V3.36402H55.0691M58.4331 0H48.4083V6.72805H45.3134V14.5662H41.2093V22.4044H37.1052V30.2426H32.0591V32.4628H3.12854V33.4384H0V42.4203H5.6852V47.5H13.3552V52.6133H22.0343V58.3658H30.0744V61.7298H26.9458V70.4763H23.9855V79.7273H21.0251V94.8318H30.0744V92.7798H37.2397V87.7674H42.6558V80.9047H52.3106V75.1523H55.6746V80.9047H64.5892V87.7674H70.0053V92.7798H77.1707V95.0336H86.2199V79.7273H83.2596V70.4763H80.2992V61.8307H77.1707V58.3994H85.2107V52.647H93.8899V47.5336H101.56V42.454H107.245V33.472H104.117V31.8909H75.1859V30.2762H70.1399V22.438H66.0358V21.4961H65.9685V14.5999H61.9653V6.72805H58.534V0H58.4331Z" fill="white"/>
<path d="M92.4097 38.2148H69.3998V40.8724H92.4097V38.2148Z" fill="white"/>
<path d="M64.2528 31.1504H61.0233V34.0771H64.2528V31.1504Z" fill="white"/>
<path d="M60.7879 25.0957H57.5585V28.0224H60.7879V25.0957Z" fill="white"/>
</g>
<g clip-path="url(#clip1_628_209)">
<path d="M125.833 93.3176V91.0637H118.668V86.0513H113.252V79.1887H104.337V73.4362H97.6089V79.1887H87.9541V86.0513H82.538V91.0637H75.3727V93.1158H69.6875V81.3753H72.6815V72.1243H75.6418V63.3778H78.804V56.6498H70.764V50.8973H62.0848V45.784H54.4148V40.7043H48.7296V35.0864H51.8582V34.1108H80.7887V31.9242H85.8348V24.086H89.9053V16.2479H94.0094V8.40969H97.1043V1.68164H103.765V8.40969H107.196V16.2479H111.2V23.1441L111.233 24.086H115.371V31.9242H120.417V33.5053H149.348V35.0864H152.476V40.7043H146.791V45.784H139.121V50.8973H130.442V56.6498H122.402V63.3778H123.747V63.4787H125.564V72.1243H128.524V81.3753H131.485V93.3176H125.833Z" fill="#F7C85A"/>
<path d="M102.049 3.36402V10.0921H105.481V17.9302H109.484V24.8265H109.551V25.7684H113.655V33.6066H118.701V35.2213H147.632V36.8024H150.76V39.0563H145.075V44.136H137.405V49.2493H128.726V55.0018H120.686V65.0938H122.032V65.1611H123.848V73.8067H126.809V83.0577H129.769V91.636H127.448V89.3821H120.282V84.3697H114.866V77.5071H105.952V71.7546H95.8596V77.5071H86.2048V84.3697H80.7888V89.3821H73.6234V91.4341H71.3022V83.0577H74.2626V73.8067H77.2229V65.0602H80.3514V54.9681H72.3114V49.2157H63.6322V44.1023H56.0968V39.0227H50.4116V36.7688H53.5402V35.7932H82.4708V33.5729H87.5168V25.7348H91.6209V17.8966H95.725V10.0921H98.8199V3.36402H102.117M105.481 0H95.4559V6.72805H92.361V14.5662H88.2569V22.4044H84.1528V30.2426H79.1067V32.4628H50.1761V33.4384H47.0476V42.4203H52.7328V47.5H60.4028V52.6133H69.082V58.3658H77.122V61.7298H73.9934V70.4763H71.0331V79.7273H68.0727V94.8318H77.122V92.7798H84.2873V87.7674H89.7034V80.9047H99.3582V75.1523H102.722V80.9047H111.637V87.7674H117.053V92.7798H124.218V95.0336H133.268V79.7273H130.307V70.4763H127.347V61.8307H124.218V58.3994H132.258V52.647H140.937V47.5336H148.607V42.454H154.293V33.472H151.164V31.8909H122.234V30.2762H117.187V22.438H113.083V21.4961H113.016V14.5999H109.013V6.72805H105.582V0H105.481Z" fill="white"/>
<path d="M139.457 38.2148H116.447V40.8724H139.457V38.2148Z" fill="white"/>
<path d="M111.3 31.1504H108.071V34.0771H111.3V31.1504Z" fill="white"/>
<path d="M107.836 25.0957H104.606V28.0224H107.836V25.0957Z" fill="white"/>
</g>
<g clip-path="url(#clip2_628_209)">
<path d="M173.229 93.3176V91.0637H166.064V86.0513H160.648V79.1887H151.733V73.4362H145.005V79.1887H135.35V86.0513H129.934V91.0637H122.769V93.1158H117.084V81.3753H120.078V72.1243H123.038V63.3778H126.2V56.6498H118.16V50.8973H109.481V45.784H101.811V40.7043H96.1259V35.0864H99.2544V34.1108H128.185V31.9242H133.231V24.086H137.301V16.2479H141.406V8.40969H144.501V1.68164H151.161V8.40969H154.593V16.2479H158.596V23.1441L158.629 24.086H162.767V31.9242H167.813V33.5053H196.744V35.0864H199.872V40.7043H194.187V45.784H186.517V50.8973H177.838V56.6498H169.798V63.3778H171.144V63.4787H172.96V72.1243H175.92V81.3753H178.881V93.3176H173.229Z" fill="#F7C85A"/>
<path d="M149.446 3.36402V10.0921H152.877V17.9302H156.88V24.8265H156.947V25.7684H161.051V33.6066H166.098V35.2213H195.028V36.8024H198.157V39.0563H192.471V44.136H184.802V49.2493H176.122V55.0018H168.082V65.0938H169.428V65.1611H171.244V73.8067H174.205V83.0577H177.165V91.636H174.844V89.3821H167.679V84.3697H162.263V77.5071H153.348V71.7546H143.256V77.5071H133.601V84.3697H128.185V89.3821H121.02V91.4341H118.698V83.0577H121.659V73.8067H124.619V65.0602H127.748V54.9681H119.708V49.2157H111.028V44.1023H103.493V39.0227H97.8079V36.7688H100.936V35.7932H129.867V33.5729H134.913V25.7348H139.017V17.8966H143.121V10.0921H146.216V3.36402H149.513M152.877 0H142.852V6.72805H139.757V14.5662H135.653V22.4044H131.549V30.2426H126.503V32.4628H97.5724V33.4384H94.4438V42.4203H100.129V47.5H107.799V52.6133H116.478V58.3658H124.518V61.7298H121.39V70.4763H118.429V79.7273H115.469V94.8318H124.518V92.7798H131.684V87.7674H137.1V80.9047H146.754V75.1523H150.118V80.9047H159.033V87.7674H164.449V92.7798H171.615V95.0336H180.664V79.7273H177.703V70.4763H174.743V61.8307H171.615V58.3994H179.655V52.647H188.334V47.5336H196.004V42.454H201.689V33.472H198.56V31.8909H169.63V30.2762H164.584V22.438H160.48V21.4961H160.412V14.5999H156.409V6.72805H152.978V0H152.877Z" fill="white"/>
<path d="M186.854 38.2148H163.844V40.8724H186.854V38.2148Z" fill="white"/>
<path d="M158.697 31.1504H155.467V34.0771H158.697V31.1504Z" fill="white"/>
<path d="M155.232 25.0957H152.002V28.0224H155.232V25.0957Z" fill="white"/>
</g>
<defs>
<clipPath id="clip0_628_209">
<rect width="107.11" height="95" fill="white"/>
</clipPath>
<clipPath id="clip1_628_209">
<rect width="107.11" height="95" fill="white" transform="translate(47.0476)"/>
</clipPath>
<clipPath id="clip2_628_209">
<rect width="107.11" height="95" fill="white" transform="translate(94.4438)"/>
</clipPath>
</defs>
</svg>
