<svg width="80" height="127" viewBox="0 0 80 127" fill="none" xmlns="http://www.w3.org/2000/svg">
<path d="M40 62H45V57H70V62H75V67H65V62H50V77H70V82H75V102H70V107H45V102H40V97H50V102H65V82H45V77H40V62Z" fill="white"/>
<path d="M40 62V58H36V62H40ZM45 62V66H49V62H45ZM45 57V53H41V57H45ZM70 57H74V53H70V57ZM70 62H66V66H70V62ZM75 62H79V58H75V62ZM75 67V71H79V67H75ZM65 67H61V71H65V67ZM65 62H69V58H65V62ZM50 62V58H46V62H50ZM50 77H46V81H50V77ZM70 77H74V73H70V77ZM70 82H66V86H70V82ZM75 82H79V78H75V82ZM75 102V106H79V102H75ZM70 102V98H66V102H70ZM70 107V111H74V107H70ZM45 107H41V111H45V107ZM45 102H49V98H45V102ZM40 102H36V106H40V102ZM40 97V93H36V97H40ZM50 97H54V93H50V97ZM50 102H46V106H50V102ZM65 102V106H69V102H65ZM65 82H69V78H65V82ZM45 82H41V86H45V82ZM45 77H49V73H45V77ZM40 77H36V81H40V77ZM40 66H45V58H40V66ZM49 62V57H41V62H49ZM45 61H70V53H45V61ZM66 57V62H74V57H66ZM70 66H75V58H70V66ZM71 62V67H79V62H71ZM75 63H65V71H75V63ZM69 67V62H61V67H69ZM65 58H50V66H65V58ZM46 62V77H54V62H46ZM50 81H70V73H50V81ZM66 77V82H74V77H66ZM70 86H75V78H70V86ZM71 82V102H79V82H71ZM75 98H70V106H75V98ZM66 102V107H74V102H66ZM70 103H45V111H70V103ZM49 107V102H41V107H49ZM45 98H40V106H45V98ZM44 102V97H36V102H44ZM40 101H50V93H40V101ZM46 97V102H54V97H46ZM50 106H65V98H50V106ZM69 102V82H61V102H69ZM65 78H45V86H65V78ZM49 82V77H41V82H49ZM45 73H40V81H45V73ZM44 77V62H36V77H44Z" fill="#A9AB5A"/>
<path d="M40 62H45V57H70V62H75V67H65V62H50V77H70V82H75V102H70V107H45V102H40V97H50V102H65V82H45V77H40V62Z" fill="white"/>
<path d="M40 62V60H38V62H40ZM45 62V64H47V62H45ZM45 57V55H43V57H45ZM70 57H72V55H70V57ZM70 62H68V64H70V62ZM75 62H77V60H75V62ZM75 67V69H77V67H75ZM65 67H63V69H65V67ZM65 62H67V60H65V62ZM50 62V60H48V62H50ZM50 77H48V79H50V77ZM70 77H72V75H70V77ZM70 82H68V84H70V82ZM75 82H77V80H75V82ZM75 102V104H77V102H75ZM70 102V100H68V102H70ZM70 107V109H72V107H70ZM45 107H43V109H45V107ZM45 102H47V100H45V102ZM40 102H38V104H40V102ZM40 97V95H38V97H40ZM50 97H52V95H50V97ZM50 102H48V104H50V102ZM65 102V104H67V102H65ZM65 82H67V80H65V82ZM45 82H43V84H45V82ZM45 77H47V75H45V77ZM40 77H38V79H40V77ZM40 64H45V60H40V64ZM47 62V57H43V62H47ZM45 59H70V55H45V59ZM68 57V62H72V57H68ZM70 64H75V60H70V64ZM73 62V67H77V62H73ZM75 65H65V69H75V65ZM67 67V62H63V67H67ZM65 60H50V64H65V60ZM48 62V77H52V62H48ZM50 79H70V75H50V79ZM68 77V82H72V77H68ZM70 84H75V80H70V84ZM73 82V102H77V82H73ZM75 100H70V104H75V100ZM68 102V107H72V102H68ZM70 105H45V109H70V105ZM47 107V102H43V107H47ZM45 100H40V104H45V100ZM42 102V97H38V102H42ZM40 99H50V95H40V99ZM48 97V102H52V97H48ZM50 104H65V100H50V104ZM67 102V82H63V102H67ZM65 80H45V84H65V80ZM47 82V77H43V82H47ZM45 75H40V79H45V75ZM42 77V62H38V77H42Z" fill="black"/>
<path d="M40 62H45V57H70V62H75V67H65V62H50V77H70V82H75V102H70V107H45V102H40V97H50V102H65V82H45V77H40V62Z" fill="white"/>
<path d="M0 10H10V50H15V55H20V50H25V10H35V50H30V55H25V60H10V55H5V50H0V10Z" fill="white"/>
<path d="M0 10V6H-4V10H0ZM10 10H14V6H10V10ZM10 50H6V54H10V50ZM15 50H19V46H15V50ZM15 55H11V59H15V55ZM20 55V59H24V55H20ZM20 50V46H16V50H20ZM25 50V54H29V50H25ZM25 10V6H21V10H25ZM35 10H39V6H35V10ZM35 50V54H39V50H35ZM30 50V46H26V50H30ZM30 55V59H34V55H30ZM25 55V51H21V55H25ZM25 60V64H29V60H25ZM10 60H6V64H10V60ZM10 55H14V51H10V55ZM5 55H1V59H5V55ZM5 50H9V46H5V50ZM0 50H-4V54H0V50ZM0 14H10V6H0V14ZM6 10V50H14V10H6ZM10 54H15V46H10V54ZM11 50V55H19V50H11ZM15 59H20V51H15V59ZM24 55V50H16V55H24ZM20 54H25V46H20V54ZM29 50V10H21V50H29ZM25 14H35V6H25V14ZM31 10V50H39V10H31ZM35 46H30V54H35V46ZM26 50V55H34V50H26ZM30 51H25V59H30V51ZM21 55V60H29V55H21ZM25 56H10V64H25V56ZM14 60V55H6V60H14ZM10 51H5V59H10V51ZM9 55V50H1V55H9ZM5 46H0V54H5V46ZM4 50V10H-4V50H4Z" fill="#A9AB5A"/>
<path d="M0 10H10V50H15V55H20V50H25V10H35V50H30V55H25V60H10V55H5V50H0V10Z" fill="white"/>
<path d="M0 10V8H-2V10H0ZM10 10H12V8H10V10ZM10 50H8V52H10V50ZM15 50H17V48H15V50ZM15 55H13V57H15V55ZM20 55V57H22V55H20ZM20 50V48H18V50H20ZM25 50V52H27V50H25ZM25 10V8H23V10H25ZM35 10H37V8H35V10ZM35 50V52H37V50H35ZM30 50V48H28V50H30ZM30 55V57H32V55H30ZM25 55V53H23V55H25ZM25 60V62H27V60H25ZM10 60H8V62H10V60ZM10 55H12V53H10V55ZM5 55H3V57H5V55ZM5 50H7V48H5V50ZM0 50H-2V52H0V50ZM0 12H10V8H0V12ZM8 10V50H12V10H8ZM10 52H15V48H10V52ZM13 50V55H17V50H13ZM15 57H20V53H15V57ZM22 55V50H18V55H22ZM20 52H25V48H20V52ZM27 50V10H23V50H27ZM25 12H35V8H25V12ZM33 10V50H37V10H33ZM35 48H30V52H35V48ZM28 50V55H32V50H28ZM30 53H25V57H30V53ZM23 55V60H27V55H23ZM25 58H10V62H25V58ZM12 60V55H8V60H12ZM10 53H5V57H10V53ZM7 55V50H3V55H7ZM5 48H0V52H5V48ZM2 50V10H-2V50H2Z" fill="black"/>
<path d="M0 10H10V50H15V55H20V50H25V10H35V50H30V55H25V60H10V55H5V50H0V10Z" fill="white"/>
</svg>
