<svg width="40" height="80" viewBox="0 0 40 80" fill="none" xmlns="http://www.w3.org/2000/svg">
<path d="M0 15H5V10H30V15H35V20H25V15H10V30H30V35H35V55H30V60H5V55H0V50H10V55H25V35H5V30H0V15Z" fill="white"/>
<path d="M0 15V11H-4V15H0ZM5 15V19H9V15H5ZM5 10V6H1V10H5ZM30 10H34V6H30V10ZM30 15H26V19H30V15ZM35 15H39V11H35V15ZM35 20V24H39V20H35ZM25 20H21V24H25V20ZM25 15H29V11H25V15ZM10 15V11H6V15H10ZM10 30H6V34H10V30ZM30 30H34V26H30V30ZM30 35H26V39H30V35ZM35 35H39V31H35V35ZM35 55V59H39V55H35ZM30 55V51H26V55H30ZM30 60V64H34V60H30ZM5 60H1V64H5V60ZM5 55H9V51H5V55ZM0 55H-4V59H0V55ZM0 50V46H-4V50H0ZM10 50H14V46H10V50ZM10 55H6V59H10V55ZM25 55V59H29V55H25ZM25 35H29V31H25V35ZM5 35H1V39H5V35ZM5 30H9V26H5V30ZM0 30H-4V34H0V30ZM0 19H5V11H0V19ZM9 15V10H1V15H9ZM5 14H30V6H5V14ZM26 10V15H34V10H26ZM30 19H35V11H30V19ZM31 15V20H39V15H31ZM35 16H25V24H35V16ZM29 20V15H21V20H29ZM25 11H10V19H25V11ZM6 15V30H14V15H6ZM10 34H30V26H10V34ZM26 30V35H34V30H26ZM30 39H35V31H30V39ZM31 35V55H39V35H31ZM35 51H30V59H35V51ZM26 55V60H34V55H26ZM30 56H5V64H30V56ZM9 60V55H1V60H9ZM5 51H0V59H5V51ZM4 55V50H-4V55H4ZM0 54H10V46H0V54ZM6 50V55H14V50H6ZM10 59H25V51H10V59ZM29 55V35H21V55H29ZM25 31H5V39H25V31ZM9 35V30H1V35H9ZM5 26H0V34H5V26ZM4 30V15H-4V30H4Z" fill="#A9AB5A"/>
<path d="M0 15H5V10H30V15H35V20H25V15H10V30H30V35H35V55H30V60H5V55H0V50H10V55H25V35H5V30H0V15Z" fill="white"/>
<path d="M0 15V13H-2V15H0ZM5 15V17H7V15H5ZM5 10V8H3V10H5ZM30 10H32V8H30V10ZM30 15H28V17H30V15ZM35 15H37V13H35V15ZM35 20V22H37V20H35ZM25 20H23V22H25V20ZM25 15H27V13H25V15ZM10 15V13H8V15H10ZM10 30H8V32H10V30ZM30 30H32V28H30V30ZM30 35H28V37H30V35ZM35 35H37V33H35V35ZM35 55V57H37V55H35ZM30 55V53H28V55H30ZM30 60V62H32V60H30ZM5 60H3V62H5V60ZM5 55H7V53H5V55ZM0 55H-2V57H0V55ZM0 50V48H-2V50H0ZM10 50H12V48H10V50ZM10 55H8V57H10V55ZM25 55V57H27V55H25ZM25 35H27V33H25V35ZM5 35H3V37H5V35ZM5 30H7V28H5V30ZM0 30H-2V32H0V30ZM0 17H5V13H0V17ZM7 15V10H3V15H7ZM5 12H30V8H5V12ZM28 10V15H32V10H28ZM30 17H35V13H30V17ZM33 15V20H37V15H33ZM35 18H25V22H35V18ZM27 20V15H23V20H27ZM25 13H10V17H25V13ZM8 15V30H12V15H8ZM10 32H30V28H10V32ZM28 30V35H32V30H28ZM30 37H35V33H30V37ZM33 35V55H37V35H33ZM35 53H30V57H35V53ZM28 55V60H32V55H28ZM30 58H5V62H30V58ZM7 60V55H3V60H7ZM5 53H0V57H5V53ZM2 55V50H-2V55H2ZM0 52H10V48H0V52ZM8 50V55H12V50H8ZM10 57H25V53H10V57ZM27 55V35H23V55H27ZM25 33H5V37H25V33ZM7 35V30H3V35H7ZM5 28H0V32H5V28ZM2 30V15H-2V30H2Z" fill="black"/>
<path d="M0 15H5V10H30V15H35V20H25V15H10V30H30V35H35V55H30V60H5V55H0V50H10V55H25V35H5V30H0V15Z" fill="white"/>
</svg>
