<svg width="78" height="77" viewBox="0 0 78 77" fill="none" xmlns="http://www.w3.org/2000/svg">
<g id="W">
<g id="W_2">
<path d="M16.5 10H26.5V55H31.5V10H41.5V55H46.5V10H56.5V55H51.5V60H21.5V55H16.5V10Z" fill="white"/>
<path d="M16.5 10V6H12.5V10H16.5ZM26.5 10H30.5V6H26.5V10ZM26.5 55H22.5V59H26.5V55ZM31.5 55V59H35.5V55H31.5ZM31.5 10V6H27.5V10H31.5ZM41.5 10H45.5V6H41.5V10ZM41.5 55H37.5V59H41.5V55ZM46.5 55V59H50.5V55H46.5ZM46.5 10V6H42.5V10H46.5ZM56.5 10H60.5V6H56.5V10ZM56.5 55V59H60.5V55H56.5ZM51.5 55V51H47.5V55H51.5ZM51.5 60V64H55.5V60H51.5ZM21.5 60H17.5V64H21.5V60ZM21.5 55H25.5V51H21.5V55ZM16.5 55H12.5V59H16.5V55ZM16.5 14H26.5V6H16.5V14ZM22.5 10V55H30.5V10H22.5ZM26.5 59H31.5V51H26.5V59ZM35.5 55V10H27.5V55H35.5ZM31.5 14H41.5V6H31.5V14ZM37.5 10V55H45.5V10H37.5ZM41.5 59H46.5V51H41.5V59ZM50.5 55V10H42.5V55H50.5ZM46.5 14H56.5V6H46.5V14ZM52.5 10V55H60.5V10H52.5ZM56.5 51H51.5V59H56.5V51ZM47.5 55V60H55.5V55H47.5ZM51.5 56H21.5V64H51.5V56ZM25.5 60V55H17.5V60H25.5ZM21.5 51H16.5V59H21.5V51ZM20.5 55V10H12.5V55H20.5Z" fill="#A9AB5A"/>
</g>
<g id="W_3">
<path d="M16.5 10H26.5V55H31.5V10H41.5V55H46.5V10H56.5V55H51.5V60H21.5V55H16.5V10Z" fill="white"/>
<path d="M16.5 10V8H14.5V10H16.5ZM26.5 10H28.5V8H26.5V10ZM26.5 55H24.5V57H26.5V55ZM31.5 55V57H33.5V55H31.5ZM31.5 10V8H29.5V10H31.5ZM41.5 10H43.5V8H41.5V10ZM41.5 55H39.5V57H41.5V55ZM46.5 55V57H48.5V55H46.5ZM46.5 10V8H44.5V10H46.5ZM56.5 10H58.5V8H56.5V10ZM56.5 55V57H58.5V55H56.5ZM51.5 55V53H49.5V55H51.5ZM51.5 60V62H53.5V60H51.5ZM21.5 60H19.5V62H21.5V60ZM21.5 55H23.5V53H21.5V55ZM16.5 55H14.5V57H16.5V55ZM16.5 12H26.5V8H16.5V12ZM24.5 10V55H28.5V10H24.5ZM26.5 57H31.5V53H26.5V57ZM33.5 55V10H29.5V55H33.5ZM31.5 12H41.5V8H31.5V12ZM39.5 10V55H43.5V10H39.5ZM41.5 57H46.5V53H41.5V57ZM48.5 55V10H44.5V55H48.5ZM46.5 12H56.5V8H46.5V12ZM54.5 10V55H58.5V10H54.5ZM56.5 53H51.5V57H56.5V53ZM49.5 55V60H53.5V55H49.5ZM51.5 58H21.5V62H51.5V58ZM23.5 60V55H19.5V60H23.5ZM21.5 53H16.5V57H21.5V53ZM18.5 55V10H14.5V55H18.5Z" fill="black"/>
</g>
<path id="W_4" d="M16.5 10H26.5V55H31.5V10H41.5V55H46.5V10H56.5V55H51.5V60H21.5V55H16.5V10Z" fill="white"/>
</g>
</svg>
